<?xml version="1.0"?>
<!-- Generated by SVGo and Plotinum VG -->
<svg width="425.2pt" height="283.46pt" viewBox="0 0 425.2 283.46"
	xmlns="http://www.w3.org/2000/svg"
	xmlns:xlink="http://www.w3.org/1999/xlink">
<g transform="scale(1, -1) translate(0, -283.46)">
<path d="M0,0L425.2,0L425.2,283.46L0,283.46Z" style="fill:#FFFFFF" />
<text x="207.23" y="-3.8613" transform="scale(1, -1)"
	style="font-family:Times;font-weight:normal;font-style:normal;font-size:12px">database size</text>
<text x="60.221" y="-15.602" transform="scale(1, -1)"
	style="font-family:Times;font-weight:normal;font-style:normal;font-size:10px">4.00 mb</text>
<text x="136.74" y="-15.602" transform="scale(1, -1)"
	style="font-family:Times;font-weight:normal;font-style:normal;font-size:10px">260.00 mb</text>
<text x="218.26" y="-15.602" transform="scale(1, -1)"
	style="font-family:Times;font-weight:normal;font-style:normal;font-size:10px">516.00 mb</text>
<text x="299.79" y="-15.602" transform="scale(1, -1)"
	style="font-family:Times;font-weight:normal;font-style:normal;font-size:10px">772.00 mb</text>
<text x="377.42" y="-15.602" transform="scale(1, -1)"
	style="font-family:Times;font-weight:normal;font-style:normal;font-size:10px">1023.64 mb</text>
<path d="M76.61,25.23L76.61,33.23" style="fill:none;stroke:#000000;stroke-width:0.5" />
<path d="M158.13,25.23L158.13,33.23" style="fill:none;stroke:#000000;stroke-width:0.5" />
<path d="M239.65,25.23L239.65,33.23" style="fill:none;stroke:#000000;stroke-width:0.5" />
<path d="M321.18,25.23L321.18,33.23" style="fill:none;stroke:#000000;stroke-width:0.5" />
<path d="M401.31,25.23L401.31,33.23" style="fill:none;stroke:#000000;stroke-width:0.5" />
<path d="M76.114,33.23L401.31,33.23" style="fill:none;stroke:#000000;stroke-width:0.5" />
<g transform="rotate(90)">
<text x="144.86" y="11.555" transform="scale(1, -1)"
	style="font-family:Times;font-weight:normal;font-style:normal;font-size:12px">speed</text>
</g>
<text x="20.416" y="-33.788" transform="scale(1, -1)"
	style="font-family:Times;font-weight:normal;font-style:normal;font-size:10px">0.03 mb/s</text>
<text x="15.416" y="-136.66" transform="scale(1, -1)"
	style="font-family:Times;font-weight:normal;font-style:normal;font-size:10px">32.03 mb/s</text>
<text x="15.416" y="-239.53" transform="scale(1, -1)"
	style="font-family:Times;font-weight:normal;font-style:normal;font-size:10px">64.03 mb/s</text>
<text x="15.416" y="-273.84" transform="scale(1, -1)"
	style="font-family:Times;font-weight:normal;font-style:normal;font-size:10px">74.70 mb/s</text>
<path d="M62.364,38.51L70.364,38.51" style="fill:none;stroke:#000000;stroke-width:0.5" />
<path d="M62.364,141.38L70.364,141.38" style="fill:none;stroke:#000000;stroke-width:0.5" />
<path d="M62.364,244.25L70.364,244.25" style="fill:none;stroke:#000000;stroke-width:0.5" />
<path d="M62.364,278.56L70.364,278.56" style="fill:none;stroke:#000000;stroke-width:0.5" />
<path d="M70.364,38.48L70.364,278.56" style="fill:none;stroke:#000000;stroke-width:0.5" />
<path d="M76.114,38.48L76.892,54.544L77.669,55.15L78.447,56.233L79.225,55.344L80.002,56.457L80.78,55.819L81.557,56.593L82.335,56.086L83.113,56.639L83.89,56.523L84.668,56.651L85.445,56.834L86.223,57.288L87.001,56.463L87.778,57.317L88.556,57.735L89.334,57.618L90.111,57.646L90.889,57.629L91.666,57.468L92.444,58.386L93.222,57.988L93.999,58.075L94.777,58.605L95.554,58.186L96.332,58.513L97.11,59.056L97.887,58.793L98.665,60.699L99.442,61.187L100.22,60.792L101,61.217L101.78,61.693L102.55,60.778L103.33,61.212L104.11,61.177L104.89,61.388L105.66,61.294L106.44,61.704L107.22,61.491L108,61.223L108.77,61.332L109.55,61.296L110.33,61.84L111.11,61.004L111.88,60.902L112.66,61.029L113.44,61.737L114.22,61.543L114.99,61.768L115.77,61.367L116.55,61.076L117.33,61.58L118.1,61.838L118.88,61.611L119.66,61.661L120.44,61.5L121.22,61.936L121.99,61.88L122.77,62.017L123.55,62.181L124.33,61.955L125.1,62.191L125.88,61.431L126.66,62.143L127.44,61.972L128.21,61.683L128.99,61.548L129.77,61.809L130.55,61.619L131.32,62.136L132.1,61.631L132.88,61.646L133.66,61.122L134.43,62.031L135.21,61.871L135.99,61.577L136.77,61.897L137.54,61.994L138.32,62.246L139.1,61.933L139.88,61.617L140.66,61.789L141.43,61.762L142.21,61.828L142.99,62.241L143.77,61.906L144.54,62.29L145.32,61.988L146.1,62.243L146.88,61.761L147.65,62.332L148.43,61.901L149.21,61.436L149.99,61.69L150.76,62.156L151.54,61.675L152.32,61.803L153.1,62.217L153.87,61.485L154.65,61.804L155.43,61.899L156.21,62.198L156.98,61.347L157.76,60.883L158.54,61.367L159.32,61.65L160.1,62.066L160.87,62.096L161.65,62.081L162.43,62.289L163.21,61.487L163.98,61.723L164.76,61.59L165.54,62.09L166.32,62.172L167.09,61.197L167.87,61.547L168.65,61.359L169.43,62.264L170.2,61.696L170.98,62.178L171.76,61.61L172.54,62.064L173.31,62.071L174.09,62.414L174.87,61.722L175.65,61.928L176.43,61.796L177.2,61.777L177.98,61.62L178.76,62.183L179.54,62.01L180.31,61.819L181.09,61.895L181.87,61.743L182.65,61.733L183.42,61.711L184.2,61.765L184.98,61.639L185.76,61.853L186.53,61.221L187.31,61.45L188.09,61.18L188.87,61.134L189.64,61.136L190.42,62.224L191.2,61.864L191.98,62.195L192.75,61.936L193.53,61.7L194.31,61.617L195.09,61.263L195.87,61.509L196.64,61.969L197.42,62.012L198.2,61.757L198.98,62.196L199.75,61.331L200.53,61.388L201.31,61.447L202.09,61.145L202.86,61.381L203.64,61.887L204.42,61.245L205.2,61.322L205.97,61.42L206.75,62.098L207.53,62.113L208.31,62.111L209.08,61.793L209.86,62.078L210.64,61.772L211.42,61.556L212.19,62.176L212.97,61.357L213.75,61.709L214.53,61.23L215.31,61.644L216.08,60.672L216.86,60.328L217.64,60.388L218.42,61.087L219.19,60.57L219.97,60.903L220.75,60.356L221.53,60.775L222.3,60.617L223.08,60.724L223.86,61.053L224.64,60.512L225.41,61.527L226.19,60.374L226.97,61.271L227.75,61.297L228.52,61.114L229.3,61.177L230.08,62.158L230.86,60.672L231.63,60.701L232.41,61.289L233.19,61.382L233.97,61.293L234.75,61.338L235.52,60.457L236.3,61.678L237.08,61.56L237.86,61.395L238.63,61.581L239.41,60.319L240.19,61.4L240.97,61.096L241.74,61.61L242.52,61.305L243.3,61.392L244.08,60.549L244.85,60.197L245.63,60.803L246.41,60.785L247.19,61.183L247.96,61.246L248.74,61.368L249.52,60.662L250.3,61.307L251.07,61.126L251.85,61.206L252.63,61.207L253.41,60.907L254.19,60.844L254.96,61.336L255.74,61.018L256.52,61.772L257.3,61.436L258.07,61.664L258.85,61.968L259.63,62.234L260.41,61.759L261.18,62.328L261.96,61.925L262.74,62.112L263.52,61.684L264.29,61.917L265.07,61.585L265.85,61.989L266.63,61.633L267.4,61.582L268.18,61.772L268.96,61.423L269.74,61.447L270.51,61.464L271.29,61.92L272.07,61.359L272.85,62.294L273.63,60.611L274.4,60.736L275.18,61.666L275.96,62.389L276.74,61.709L277.51,61.728L278.29,62.037L279.07,61.888L279.85,61.92L280.62,62.202L281.4,61.776L282.18,61.718L282.96,61.822L283.73,61.255L284.51,61.69L285.29,61.892L286.07,61.951L286.84,61.441L287.62,61.902L288.4,61.354L289.18,61.65L289.95,61.592L290.73,61.635L291.51,61.491L292.29,61.807L293.07,61.26L293.84,61.991L294.62,61.839L295.4,61.117L296.18,61.502L296.95,61.226L297.73,61.223L298.51,61.089L299.29,61.56L300.06,60.567L300.84,60.921L301.62,60.686L302.4,61.104L303.17,60.995L303.95,60.595L304.73,59.915L305.51,60.293L306.28,60.124L307.06,60.936L307.84,60.912L308.62,60.64L309.4,61.129L310.17,60.756L310.95,60.156L311.73,60.597L312.51,60.668L313.28,60.919L314.06,60.812L314.84,60.173L315.62,60.482L316.39,60.799L317.17,61.272L317.95,60.962L318.73,60.783L319.5,60.463L320.28,61.166L321.06,61.054L321.84,60.783L322.61,60.853L323.39,60.577L324.17,61.291L324.95,61.016L325.72,61.078L326.5,61.371L327.28,61.166L328.06,60.852L328.84,60.593L329.61,61.31L330.39,61.607L331.17,60.936L331.95,61.219L332.72,61.438L333.5,61.998L334.28,61.45L335.06,61.433L335.83,61.178L336.61,61.704L337.39,61.66L338.17,61.72L338.94,61.383L339.72,60.907L340.5,61.221L341.28,61.135L342.05,61.718L342.83,61.29L343.61,61.833L344.39,61.967L345.16,61.864L345.94,61.942L346.72,61.853L347.5,61.701L348.28,61.807L349.05,61.592L349.83,62.278L350.61,61.819L351.39,61.563L352.16,61.272L352.94,62.224L353.72,61.78L354.5,61.496L355.27,61.766L356.05,61.981L356.83,62.122L357.61,61.729L358.38,62.317L359.16,61.917L359.94,62.336L360.72,61.959L361.49,62.219L362.27,61.971L363.05,61.668L363.83,61.704L364.6,61.569L365.38,62.021L366.16,62.128L366.94,62.093L367.72,62.277L368.49,61.948L369.27,61.525L370.05,61.399L370.83,61.836L371.6,62.293L372.38,61.466L373.16,61.665L373.94,61.878L374.71,61.563L375.49,61.654L376.27,62.223L377.05,61.323L377.82,61.611L378.6,61.804L379.38,62.283L380.16,61.881L380.93,61.464L381.71,61.347L382.49,61.725L383.27,61.929L384.04,61.731L384.82,62.039L385.6,61.62L386.38,61.09L387.16,60.982L387.93,61.504L388.71,61.48L389.49,61.856L390.27,61.752L391.04,61.519L391.82,61.515L392.6,61.991L393.38,61.62L394.15,61.977L394.93,61.87L395.71,61.663L396.49,61.608L397.26,62.138L398.04,61.813L398.82,61.043L399.6,61.437L400.37,60.828L401.15,64.766L401.31,278.56" style="fill:none;stroke:#F15A60" />
<path d="M405.2,277.58L425.2,277.58" style="fill:none;stroke:#F15A60" />
<text x="266.94" y="-271.91" transform="scale(1, -1)"
	style="font-family:Times;font-weight:normal;font-style:normal;font-size:12px">random-read-bigcache-filter</text>
</g>
</svg>
