<?xml version="1.0"?>
<!-- Generated by SVGo and Plotinum VG -->
<svg width="425.2pt" height="283.46pt" viewBox="0 0 425.2 283.46"
	xmlns="http://www.w3.org/2000/svg"
	xmlns:xlink="http://www.w3.org/1999/xlink">
<g transform="scale(1, -1) translate(0, -283.46)">
<path d="M0,0L425.2,0L425.2,283.46L0,283.46Z" style="fill:#FFFFFF" />
<text x="207.23" y="-3.8613" transform="scale(1, -1)"
	style="font-family:Times;font-weight:normal;font-style:normal;font-size:12px">database size</text>
<text x="60.221" y="-15.602" transform="scale(1, -1)"
	style="font-family:Times;font-weight:normal;font-style:normal;font-size:10px">4.00 mb</text>
<text x="136.74" y="-15.602" transform="scale(1, -1)"
	style="font-family:Times;font-weight:normal;font-style:normal;font-size:10px">260.00 mb</text>
<text x="218.26" y="-15.602" transform="scale(1, -1)"
	style="font-family:Times;font-weight:normal;font-style:normal;font-size:10px">516.00 mb</text>
<text x="299.79" y="-15.602" transform="scale(1, -1)"
	style="font-family:Times;font-weight:normal;font-style:normal;font-size:10px">772.00 mb</text>
<text x="377.42" y="-15.602" transform="scale(1, -1)"
	style="font-family:Times;font-weight:normal;font-style:normal;font-size:10px">1023.64 mb</text>
<path d="M76.61,25.23L76.61,33.23" style="fill:none;stroke:#000000;stroke-width:0.5" />
<path d="M158.13,25.23L158.13,33.23" style="fill:none;stroke:#000000;stroke-width:0.5" />
<path d="M239.65,25.23L239.65,33.23" style="fill:none;stroke:#000000;stroke-width:0.5" />
<path d="M321.18,25.23L321.18,33.23" style="fill:none;stroke:#000000;stroke-width:0.5" />
<path d="M401.31,25.23L401.31,33.23" style="fill:none;stroke:#000000;stroke-width:0.5" />
<path d="M76.114,33.23L401.31,33.23" style="fill:none;stroke:#000000;stroke-width:0.5" />
<g transform="rotate(90)">
<text x="144.86" y="11.555" transform="scale(1, -1)"
	style="font-family:Times;font-weight:normal;font-style:normal;font-size:12px">speed</text>
</g>
<text x="20.416" y="-33.763" transform="scale(1, -1)"
	style="font-family:Times;font-weight:normal;font-style:normal;font-size:10px">0.03 mb/s</text>
<text x="15.416" y="-113.38" transform="scale(1, -1)"
	style="font-family:Times;font-weight:normal;font-style:normal;font-size:10px">32.03 mb/s</text>
<text x="15.416" y="-193" transform="scale(1, -1)"
	style="font-family:Times;font-weight:normal;font-style:normal;font-size:10px">64.03 mb/s</text>
<text x="15.416" y="-272.62" transform="scale(1, -1)"
	style="font-family:Times;font-weight:normal;font-style:normal;font-size:10px">96.03 mb/s</text>
<text x="15.416" y="-273.84" transform="scale(1, -1)"
	style="font-family:Times;font-weight:normal;font-style:normal;font-size:10px">96.52 mb/s</text>
<path d="M62.364,38.485L70.364,38.485" style="fill:none;stroke:#000000;stroke-width:0.5" />
<path d="M62.364,118.1L70.364,118.1" style="fill:none;stroke:#000000;stroke-width:0.5" />
<path d="M62.364,197.72L70.364,197.72" style="fill:none;stroke:#000000;stroke-width:0.5" />
<path d="M62.364,277.34L70.364,277.34" style="fill:none;stroke:#000000;stroke-width:0.5" />
<path d="M62.364,278.56L70.364,278.56" style="fill:none;stroke:#000000;stroke-width:0.5" />
<path d="M70.364,38.48L70.364,278.56" style="fill:none;stroke:#000000;stroke-width:0.5" />
<path d="M76.114,38.48L76.892,42.87L77.669,44.43L78.447,46.935L79.225,46.958L80.002,48.078L80.78,47.915L81.557,48.227L82.335,48.613L83.113,48.427L83.89,48.657L84.668,48.695L85.445,48.741L86.223,48.732L87.001,49.356L87.778,51.61L88.556,52.039L89.334,51.87L90.111,52.1L90.889,52.214L91.666,52.087L92.444,51.899L93.222,52.147L93.999,52.091L94.777,52.109L95.554,52.292L96.332,52.004L97.11,52.187L97.887,52.477L98.665,52.312L99.442,52.105L100.22,51.985L101,52.246L101.78,52.562L102.55,52.439L103.33,52.274L104.11,52.159L104.89,52.35L105.66,52.32L106.44,52.226L107.22,52.159L108,52.2L108.77,52.358L109.55,52.418L110.33,52.572L111.11,52.331L111.88,52.375L112.66,52.684L113.44,52.227L114.22,51.99L114.99,52.608L115.77,52.399L116.55,52.283L117.33,52.597L118.1,52.445L118.88,52.447L119.66,52.07L120.44,52.472L121.22,52.729L121.99,52.538L122.77,52.48L123.55,52.409L124.33,52.318L125.1,52.583L125.88,52.436L126.66,52.386L127.44,52.157L128.21,52.302L128.99,52.493L129.77,52.372L130.55,51.978L131.32,51.2L132.1,52.333L132.88,52.477L133.66,52.536L134.43,52.338L135.21,52.278L135.99,52.429L136.77,52.426L137.54,52.574L138.32,52.614L139.1,52.413L139.88,52.177L140.66,51.393L141.43,51.448L142.21,51.548L142.99,51.672L143.77,51.789L144.54,52.288L145.32,51.947L146.1,51.823L146.88,51.673L147.65,51.839L148.43,51.955L149.21,51.682L149.99,51.717L150.76,52.186L151.54,51.368L152.32,51.644L153.1,51.415L153.87,51.86L154.65,52.238L155.43,52.415L156.21,52.288L156.98,51.751L157.76,52.132L158.54,52.249L159.32,52.142L160.1,51.845L160.87,52.064L161.65,51.829L162.43,51.87L163.21,51.841L163.98,52.254L164.76,52.343L165.54,52.65L166.32,52.317L167.09,52.291L167.87,52.518L168.65,52.208L169.43,52.07L170.2,52.333L170.98,52.296L171.76,52.176L172.54,52.733L173.31,52.621L174.09,52.778L174.87,52.677L175.65,52.696L176.43,52.648L177.2,52.317L177.98,52.561L178.76,52.676L179.54,52.893L180.31,52.583L181.09,52.774L181.87,52.674L182.65,52.57L183.42,52.809L184.2,52.77L184.98,52.408L185.76,52.434L186.53,52.5L187.31,52.724L188.09,52.463L188.87,52.702L189.64,52.447L190.42,52.754L191.2,53.003L191.98,52.742L192.75,52.724L193.53,52.697L194.31,52.703L195.09,52.426L195.87,52.843L196.64,52.595L197.42,52.817L198.2,52.944L198.98,52.792L199.75,52.788L200.53,52.735L201.31,52.657L202.09,52.328L202.86,52.211L203.64,52.75L204.42,52.127L205.2,52.021L205.97,52.247L206.75,52.293L207.53,51.978L208.31,52.292L209.08,52.45L209.86,52.608L210.64,52.888L211.42,52.662L212.19,52.744L212.97,52.635L213.75,52.794L214.53,52.619L215.31,52.734L216.08,53.064L216.86,52.346L217.64,52.389L218.42,52.312L219.19,52.74L219.97,53.19L220.75,53.465L221.53,53.081L222.3,53.059L223.08,52.902L223.86,52.81L224.64,53.295L225.41,52.73L226.19,52.808L226.97,53.22L227.75,53.096L228.52,53.742L229.3,53.721L230.08,53.591L230.86,52.848L231.63,53.486L232.41,53.652L233.19,53.381L233.97,53.727L234.75,53.767L235.52,53.242L236.3,53.299L237.08,53.664L237.86,53.031L238.63,53.521L239.41,53.766L240.19,53.301L240.97,53.486L241.74,53.701L242.52,53.882L243.3,53.699L244.08,53.401L244.85,53.395L245.63,53.732L246.41,53.689L247.19,53.705L247.96,53.591L248.74,53.627L249.52,53.642L250.3,53.588L251.07,53.454L251.85,53.544L252.63,53.318L253.41,53.469L254.19,53.698L254.96,53.809L255.74,53.786L256.52,53.609L257.3,53.561L258.07,53.842L258.85,53.742L259.63,53.461L260.41,53.719L261.18,53.976L261.96,53.821L262.74,53.746L263.52,53.735L264.29,53.749L265.07,53.471L265.85,53.92L266.63,53.84L267.4,53.809L268.18,53.753L268.96,53.663L269.74,53.858L270.51,53.57L271.29,53.51L272.07,53.664L272.85,53.813L273.63,53.9L274.4,53.709L275.18,53.784L275.96,53.979L276.74,53.824L277.51,53.728L278.29,53.424L279.07,53.451L279.85,53.645L280.62,54.02L281.4,54.126L282.18,54.247L282.96,53.965L283.73,54.095L284.51,54.105L285.29,54.079L286.07,54.148L286.84,54.281L287.62,54.208L288.4,54.319L289.18,54.08L289.95,54.05L290.73,53.871L291.51,54.23L292.29,54.2L293.07,54.292L293.84,53.954L294.62,54.022L295.4,53.74L296.18,54.228L296.95,54.51L297.73,54.254L298.51,54.353L299.29,54.084L300.06,54.016L300.84,54.188L301.62,54.257L302.4,54.15L303.17,54.079L303.95,53.993L304.73,54.462L305.51,54.647L306.28,54.62L307.06,54.531L307.84,54.584L308.62,54.815L309.4,54.711L310.17,54.65L310.95,54.34L311.73,54.364L312.51,54.229L313.28,54.676L314.06,54.874L314.84,54.757L315.62,54.634L316.39,54.744L317.17,54.77L317.95,54.759L318.73,55.023L319.5,54.414L320.28,54.441L321.06,55.069L321.84,55.471L322.61,55.646L323.39,55.228L324.17,55.082L324.95,55.133L325.72,54.657L326.5,54.724L327.28,55.562L328.06,55.378L328.84,55.667L329.61,55.874L330.39,55.759L331.17,55.731L331.95,55.889L332.72,56.134L333.5,56.179L334.28,55.977L335.06,56.061L335.83,55.945L336.61,55.823L337.39,56.344L338.17,56.676L338.94,56.615L339.72,56.512L340.5,56.758L341.28,56.418L342.05,56.311L342.83,56.48L343.61,56.415L344.39,56.382L345.16,56.891L345.94,56.672L346.72,56.866L347.5,56.462L348.28,56.431L349.05,56.299L349.83,56.686L350.61,57.475L351.39,57.084L352.16,56.903L352.94,57.114L353.72,57.62L354.5,58.194L355.27,57.984L356.05,57.927L356.83,58.142L357.61,58.06L358.38,57.939L359.16,57.982L359.94,58.138L360.72,58.057L361.49,57.918L362.27,59.081L363.05,58.874L363.83,58.269L364.6,59.205L365.38,58.569L366.16,58.318L366.94,58.557L367.72,59.269L368.49,59.2L369.27,59.415L370.05,60.167L370.83,59.885L371.6,59.36L372.38,60.034L373.16,59.752L373.94,60.186L374.71,59.78L375.49,60.202L376.27,59.82L377.05,59.983L377.82,60.634L378.6,61.553L379.38,61.772L380.16,61.559L380.93,61.674L381.71,61.686L382.49,61.213L383.27,61.56L384.04,61.346L384.82,61.709L385.6,61.924L386.38,62.97L387.16,63.127L387.93,62.779L388.71,62.613L389.49,62.211L390.27,62.696L391.04,62.727L391.82,62.769L392.6,63.006L393.38,62.77L394.15,66.327L394.93,66.214L395.71,66.292L396.49,65.68L397.26,66.503L398.04,66.411L398.82,66.945L399.6,66.979L400.37,71.57L401.15,115.02L401.31,278.56" style="fill:none;stroke:#F15A60" />
<path d="M405.2,277.58L425.2,277.58" style="fill:none;stroke:#F15A60" />
<text x="266.94" y="-271.91" transform="scale(1, -1)"
	style="font-family:Times;font-weight:normal;font-style:normal;font-size:12px">random-read-bigcache-filter</text>
</g>
</svg>
