<?xml version="1.0"?>
<!-- Generated by SVGo and Plotinum VG -->
<svg width="425.2pt" height="283.46pt" viewBox="0 0 425.2 283.46"
	xmlns="http://www.w3.org/2000/svg"
	xmlns:xlink="http://www.w3.org/1999/xlink">
<g transform="scale(1, -1) translate(0, -283.46)">
<path d="M0,0L425.2,0L425.2,283.46L0,283.46Z" style="fill:#FFFFFF" />
<text x="207.46" y="-3.9023" transform="scale(1, -1)"
	style="font-family:Liberation Serif;font-variant:normal;font-weight:normal;font-style:normal;font-size:12px">database size</text>
<text x="60.689" y="-16.541" transform="scale(1, -1)"
	style="font-family:Liberation Serif;font-variant:normal;font-weight:normal;font-style:normal;font-size:10px">4.00 mb</text>
<text x="137.09" y="-16.541" transform="scale(1, -1)"
	style="font-family:Liberation Serif;font-variant:normal;font-weight:normal;font-style:normal;font-size:10px">260.00 mb</text>
<text x="218.5" y="-16.541" transform="scale(1, -1)"
	style="font-family:Liberation Serif;font-variant:normal;font-weight:normal;font-style:normal;font-size:10px">516.00 mb</text>
<text x="299.9" y="-16.541" transform="scale(1, -1)"
	style="font-family:Liberation Serif;font-variant:normal;font-weight:normal;font-style:normal;font-size:10px">772.00 mb</text>
<text x="377.42" y="-16.541" transform="scale(1, -1)"
	style="font-family:Liberation Serif;font-variant:normal;font-weight:normal;font-style:normal;font-size:10px">1023.64 mb</text>
<path d="M77.078,24.363L77.078,32.363" style="fill:none;stroke:#000000;stroke-width:0.5" />
<path d="M158.48,24.363L158.48,32.363" style="fill:none;stroke:#000000;stroke-width:0.5" />
<path d="M239.89,24.363L239.89,32.363" style="fill:none;stroke:#000000;stroke-width:0.5" />
<path d="M321.29,24.363L321.29,32.363" style="fill:none;stroke:#000000;stroke-width:0.5" />
<path d="M401.31,24.363L401.31,32.363" style="fill:none;stroke:#000000;stroke-width:0.5" />
<path d="M76.583,32.363L401.31,32.363" style="fill:none;stroke:#000000;stroke-width:0.5" />
<g transform="rotate(90)">
<text x="145.41" y="9.3867" transform="scale(1, -1)"
	style="font-family:Liberation Serif;font-variant:normal;font-weight:normal;font-style:normal;font-size:12px">speed</text>
</g>
<text x="20.885" y="-37.947" transform="scale(1, -1)"
	style="font-family:Liberation Serif;font-variant:normal;font-weight:normal;font-style:normal;font-size:10px">0.03 mb/s</text>
<text x="15.885" y="-137.43" transform="scale(1, -1)"
	style="font-family:Liberation Serif;font-variant:normal;font-weight:normal;font-style:normal;font-size:10px">32.03 mb/s</text>
<text x="15.885" y="-236.91" transform="scale(1, -1)"
	style="font-family:Liberation Serif;font-variant:normal;font-weight:normal;font-style:normal;font-size:10px">64.03 mb/s</text>
<text x="15.885" y="-275.64" transform="scale(1, -1)"
	style="font-family:Liberation Serif;font-variant:normal;font-weight:normal;font-style:normal;font-size:10px">76.49 mb/s</text>
<path d="M62.833,40.232L70.833,40.232" style="fill:none;stroke:#000000;stroke-width:0.5" />
<path d="M62.833,139.72L70.833,139.72" style="fill:none;stroke:#000000;stroke-width:0.5" />
<path d="M62.833,239.2L70.833,239.2" style="fill:none;stroke:#000000;stroke-width:0.5" />
<path d="M62.833,277.93L70.833,277.93" style="fill:none;stroke:#000000;stroke-width:0.5" />
<path d="M70.833,40.209L70.833,277.93" style="fill:none;stroke:#000000;stroke-width:0.5" />
<path d="M76.583,40.209L77.359,47.274L78.136,47.625L78.912,53.639L79.689,53.885L80.465,53.873L81.242,54.365L82.018,54.934L82.795,54.781L83.571,55.195L84.348,55.575L85.124,55.391L85.901,56.222L86.677,56.364L87.454,56.274L88.23,56.352L89.007,57.028L89.783,57.523L90.56,57.849L91.336,57.716L92.113,58.438L92.889,59.012L93.666,58.77L94.442,60.126L95.219,60.033L95.995,60.476L96.772,61.671L97.548,63.029L98.324,63.597L99.101,63.647L99.877,63.386L100.65,63.538L101.43,63.234L102.21,63.82L102.98,63.303L103.76,63.554L104.54,62.922L105.31,63.139L106.09,62.822L106.87,63.292L107.64,63.324L108.42,62.756L109.2,63.314L109.97,63.176L110.75,63.686L111.52,63.285L112.3,63.739L113.08,63.278L113.85,63.529L114.63,63.323L115.41,63.749L116.18,63.516L116.96,63.86L117.74,63.748L118.51,63.786L119.29,63.86L120.07,63.567L120.84,63.908L121.62,63.555L122.4,63.85L123.17,63.545L123.95,63.962L124.72,63.111L125.5,63.85L126.28,63.535L127.05,63.927L127.83,63.458L128.61,63.42L129.38,63.045L130.16,63.705L130.94,63.729L131.71,62.971L132.49,63.484L133.27,63.563L134.04,63.746L134.82,63.55L135.6,63.857L136.37,63.263L137.15,62.994L137.93,62.683L138.7,63.34L139.48,63.368L140.25,63.852L141.03,63.658L141.81,63.769L142.58,63.89L143.36,63.483L144.14,63.79L144.91,63.647L145.69,63.972L146.47,63.249L147.24,63.389L148.02,63.176L148.8,63.454L149.57,63.282L150.35,63.835L151.13,63.311L151.9,63.535L152.68,63.352L153.45,63.38L154.23,63.517L155.01,63.13L155.78,63.478L156.56,63.138L157.34,63.405L158.11,63.059L158.89,63.871L159.67,63.148L160.44,63.29L161.22,63.152L162,63.82L162.77,63.435L163.55,63.456L164.33,63.045L165.1,63.185L165.88,63.478L166.65,63.443L167.43,63.805L168.21,63.348L168.98,63.991L169.76,63.109L170.54,63.54L171.31,63.34L172.09,63.918L172.87,63.306L173.64,63.99L174.42,63.789L175.2,63.139L175.97,63.311L176.75,63.199L177.53,63.51L178.3,62.91L179.08,63.451L179.86,63.342L180.63,63.947L181.41,63.372L182.18,63.267L182.96,62.902L183.74,63.073L184.51,63.003L185.29,63.49L186.07,63.24L186.84,63.374L187.62,63.642L188.4,63.409L189.17,63.839L189.95,63.133L190.73,63.445L191.5,63.151L192.28,63.821L193.06,63.394L193.83,63.922L194.61,63.665L195.38,63.828L196.16,63.679L196.94,63.426L197.71,63.261L198.49,63.691L199.27,63.784L200.04,63.205L200.82,63.496L201.6,63.345L202.37,63.869L203.15,63.455L203.93,63.922L204.7,63.252L205.48,63.375L206.26,63.161L207.03,63.772L207.81,63.481L208.58,63.226L209.36,63.374L210.14,63.559L210.91,63.416L211.69,63.589L212.47,63.961L213.24,63.305L214.02,63.432L214.8,61.873L215.57,62.803L216.35,62.056L217.13,60.438L217.9,60.951L218.68,62.098L219.46,61.685L220.23,60.805L221.01,61.694L221.79,61.077L222.56,62.545L223.34,62.271L224.11,62.026L224.89,62.051L225.67,62.491L226.44,62.207L227.22,62.733L228,62.358L228.77,62.278L229.55,62.471L230.33,62.127L231.1,61.891L231.88,62.515L232.66,61.617L233.43,62.236L234.21,62.391L234.99,61.524L235.76,62.408L236.54,61.866L237.31,61.565L238.09,61.463L238.87,62.661L239.64,62.443L240.42,60.985L241.2,62.485L241.97,62.674L242.75,60.791L243.53,61.498L244.3,60.994L245.08,61.979L245.86,62.068L246.63,61.65L247.41,61.25L248.19,60.612L248.96,61.853L249.74,61.184L250.51,60.812L251.29,61.902L252.07,61.229L252.84,61.249L253.62,61.818L254.4,61.527L255.17,60.974L255.95,61.838L256.73,60.798L257.5,62.71L258.28,62.119L259.06,61.376L259.83,61.54L260.61,61.574L261.39,61.067L262.16,62.171L262.94,61.271L263.72,61.863L264.49,61.494L265.27,62.011L266.04,62.256L266.82,61.329L267.6,62.133L268.37,61.086L269.15,61.807L269.93,61.603L270.7,61.266L271.48,61.677L272.26,61.578L273.03,61.957L273.81,61.413L274.59,61.916L275.36,62.557L276.14,61.999L276.92,62.419L277.69,61.776L278.47,61.172L279.24,60.342L280.02,61.396L280.8,62.226L281.57,60.688L282.35,62.323L283.13,62.348L283.9,62.184L284.68,62.46L285.46,62.316L286.23,62.588L287.01,62.639L287.79,62.144L288.56,62.079L289.34,62.585L290.12,61.967L290.89,62.661L291.67,61.694L292.44,62.026L293.22,61.986L294,61.786L294.77,61.955L295.55,62.442L296.33,60.274L297.1,62.35L297.88,61.68L298.66,62.634L299.43,62.495L300.21,61.62L300.99,62.055L301.76,61.874L302.54,62.031L303.32,61.197L304.09,61.897L304.87,61.871L305.65,60.811L306.42,61.224L307.2,61.117L307.97,61.236L308.75,61.785L309.53,60.236L310.3,62.222L311.08,62.124L311.86,62.355L312.63,62.813L313.41,61.892L314.19,62.391L314.96,61.369L315.74,62.347L316.52,61.941L317.29,61.702L318.07,62.002L318.85,62.218L319.62,61.614L320.4,62.313L321.17,61.416L321.95,62.747L322.73,62.827L323.5,61.757L324.28,62.628L325.06,61.936L325.83,61.845L326.61,62.317L327.39,62.063L328.16,61.194L328.94,61.126L329.72,61.981L330.49,62.396L331.27,61.69L332.05,62.537L332.82,62.244L333.6,62.058L334.37,62.222L335.15,61.663L335.93,61.411L336.7,62.022L337.48,60.98L338.26,60.893L339.03,61.705L339.81,61.931L340.59,60.014L341.36,62.106L342.14,62.802L342.92,60.995L343.69,61.674L344.47,61.863L345.25,61.364L346.02,60.875L346.8,61.98L347.58,62.451L348.35,61.659L349.13,62.572L349.9,61.618L350.68,62.462L351.46,62.211L352.23,62.033L353.01,62.226L353.79,62.307L354.56,61.68L355.34,62.233L356.12,61.765L356.89,62.271L357.67,62.842L358.45,61.678L359.22,62.21L360,62.053L360.78,61.591L361.55,61.987L362.33,61.834L363.1,62.054L363.88,60.669L364.66,62.921L365.43,63.272L366.21,63.288L366.99,62.669L367.76,62.726L368.54,63.23L369.32,63.898L370.09,63.568L370.87,63.687L371.65,63.277L372.42,63.495L373.2,63.269L373.98,63.879L374.75,63.6L375.53,63.947L376.3,63.626L377.08,63.71L377.86,63.855L378.63,63.57L379.41,63.363L380.19,63.504L380.96,63.858L381.74,63.511L382.52,63.985L383.29,63.668L384.07,63.907L384.85,63.477L385.62,63.867L386.4,63.164L387.18,63.807L387.95,63.584L388.73,63.422L389.51,63.443L390.28,63.5L391.06,63.696L391.83,63.516L392.61,63.869L393.39,63.608L394.16,63.627L394.94,63.395L395.72,63.869L396.49,63.487L397.27,63.86L398.05,63.599L398.82,63.518L399.6,63.383L400.38,63.33L401.15,66.847L401.31,277.93" style="fill:none;stroke:#F15A60" />
<path d="M405.2,275.78L425.2,275.78" style="fill:none;stroke:#F15A60" />
<text x="294.26" y="-273.29" transform="scale(1, -1)"
	style="font-family:Liberation Serif;font-variant:normal;font-weight:normal;font-style:normal;font-size:12px">random-read-bigcache</text>
</g>
</svg>
