<?xml version="1.0"?>
<!-- Generated by SVGo and Plotinum VG -->
<svg width="425.2pt" height="283.46pt" viewBox="0 0 425.2 283.46"
	xmlns="http://www.w3.org/2000/svg"
	xmlns:xlink="http://www.w3.org/1999/xlink">
<g transform="scale(1, -1) translate(0, -283.46)">
<path d="M0,0L425.2,0L425.2,283.46L0,283.46Z" style="fill:#FFFFFF" />
<text x="207.23" y="-3.8613" transform="scale(1, -1)"
	style="font-family:Times;font-weight:normal;font-style:normal;font-size:12px">database size</text>
<text x="60.221" y="-15.602" transform="scale(1, -1)"
	style="font-family:Times;font-weight:normal;font-style:normal;font-size:10px">4.00 mb</text>
<text x="136.74" y="-15.602" transform="scale(1, -1)"
	style="font-family:Times;font-weight:normal;font-style:normal;font-size:10px">260.00 mb</text>
<text x="218.26" y="-15.602" transform="scale(1, -1)"
	style="font-family:Times;font-weight:normal;font-style:normal;font-size:10px">516.00 mb</text>
<text x="299.79" y="-15.602" transform="scale(1, -1)"
	style="font-family:Times;font-weight:normal;font-style:normal;font-size:10px">772.00 mb</text>
<text x="377.42" y="-15.602" transform="scale(1, -1)"
	style="font-family:Times;font-weight:normal;font-style:normal;font-size:10px">1023.64 mb</text>
<path d="M76.61,25.23L76.61,33.23" style="fill:none;stroke:#000000;stroke-width:0.5" />
<path d="M158.13,25.23L158.13,33.23" style="fill:none;stroke:#000000;stroke-width:0.5" />
<path d="M239.65,25.23L239.65,33.23" style="fill:none;stroke:#000000;stroke-width:0.5" />
<path d="M321.18,25.23L321.18,33.23" style="fill:none;stroke:#000000;stroke-width:0.5" />
<path d="M401.31,25.23L401.31,33.23" style="fill:none;stroke:#000000;stroke-width:0.5" />
<path d="M76.114,33.23L401.31,33.23" style="fill:none;stroke:#000000;stroke-width:0.5" />
<g transform="rotate(90)">
<text x="144.86" y="11.555" transform="scale(1, -1)"
	style="font-family:Times;font-weight:normal;font-style:normal;font-size:12px">speed</text>
</g>
<text x="20.416" y="-33.761" transform="scale(1, -1)"
	style="font-family:Times;font-weight:normal;font-style:normal;font-size:10px">0.03 mb/s</text>
<text x="15.416" y="-113.98" transform="scale(1, -1)"
	style="font-family:Times;font-weight:normal;font-style:normal;font-size:10px">32.03 mb/s</text>
<text x="15.416" y="-194.2" transform="scale(1, -1)"
	style="font-family:Times;font-weight:normal;font-style:normal;font-size:10px">64.03 mb/s</text>
<text x="15.416" y="-273.84" transform="scale(1, -1)"
	style="font-family:Times;font-weight:normal;font-style:normal;font-size:10px">95.80 mb/s</text>
<path d="M62.364,38.483L70.364,38.483" style="fill:none;stroke:#000000;stroke-width:0.5" />
<path d="M62.364,118.7L70.364,118.7" style="fill:none;stroke:#000000;stroke-width:0.5" />
<path d="M62.364,198.92L70.364,198.92" style="fill:none;stroke:#000000;stroke-width:0.5" />
<path d="M62.364,278.56L70.364,278.56" style="fill:none;stroke:#000000;stroke-width:0.5" />
<path d="M70.364,38.48L70.364,278.56" style="fill:none;stroke:#000000;stroke-width:0.5" />
<path d="M76.114,38.48L76.892,41.638L77.669,42.996L78.447,45.983L79.225,45.984L80.002,46.273L80.78,46.372L81.557,46.201L82.335,46.5L83.113,46.633L83.89,47.722L84.668,48.518L85.445,48.554L86.223,48.571L87.001,48.406L87.778,48.339L88.556,48.413L89.334,48.445L90.111,48.418L90.889,48.596L91.666,48.321L92.444,48.097L93.222,48.346L93.999,48.572L94.777,48.559L95.554,48.445L96.332,48.452L97.11,48.422L97.887,48.313L98.665,48.301L99.442,48.585L100.22,48.317L101,48.395L101.78,48.487L102.55,48.403L103.33,48.465L104.11,48.415L104.89,48.383L105.66,48.335L106.44,48.496L107.22,48.62L108,48.564L108.77,48.512L109.55,48.535L110.33,48.377L111.11,48.397L111.88,48.402L112.66,48.372L113.44,48.608L114.22,48.544L114.99,48.517L115.77,48.532L116.55,48.475L117.33,48.424L118.1,48.417L118.88,48.262L119.66,48.375L120.44,48.433L121.22,48.53L121.99,48.418L122.77,48.397L123.55,48.53L124.33,48.519L125.1,48.605L125.88,48.275L126.66,48.316L127.44,48.361L128.21,48.509L128.99,48.577L129.77,48.455L130.55,48.552L131.32,48.458L132.1,48.33L132.88,48.516L133.66,48.378L134.43,48.471L135.21,48.499L135.99,48.437L136.77,48.46L137.54,48.438L138.32,48.346L139.1,48.369L139.88,48.429L140.66,48.664L141.43,48.552L142.21,48.487L142.99,48.375L143.77,48.095L144.54,48.484L145.32,48.52L146.1,48.456L146.88,48.377L147.65,48.334L148.43,48.379L149.21,48.409L149.99,48.442L150.76,48.398L151.54,48.322L152.32,48.421L153.1,48.681L153.87,48.62L154.65,48.65L155.43,48.575L156.21,48.466L156.98,48.328L157.76,48.652L158.54,48.475L159.32,48.373L160.1,48.407L160.87,48.446L161.65,48.688L162.43,48.663L163.21,48.562L163.98,48.307L164.76,48.333L165.54,48.389L166.32,48.613L167.09,48.587L167.87,48.626L168.65,48.323L169.43,48.395L170.2,48.385L170.98,48.623L171.76,48.456L172.54,48.43L173.31,48.467L174.09,48.512L174.87,48.507L175.65,48.645L176.43,48.644L177.2,48.651L177.98,48.495L178.76,48.538L179.54,48.509L180.31,48.63L181.09,48.782L181.87,48.734L182.65,48.618L183.42,48.676L184.2,48.758L184.98,48.562L185.76,48.451L186.53,48.659L187.31,48.744L188.09,48.528L188.87,48.545L189.64,48.47L190.42,48.73L191.2,48.673L191.98,48.58L192.75,48.803L193.53,48.772L194.31,48.804L195.09,48.39L195.87,48.549L196.64,48.662L197.42,48.606L198.2,48.595L198.98,48.736L199.75,48.684L200.53,48.636L201.31,48.527L202.09,48.588L202.86,48.517L203.64,48.76L204.42,48.856L205.2,48.921L205.97,48.951L206.75,48.942L207.53,48.837L208.31,48.601L209.08,48.576L209.86,48.535L210.64,48.503L211.42,48.653L212.19,48.687L212.97,48.846L213.75,48.829L214.53,48.847L215.31,48.852L216.08,48.772L216.86,48.778L217.64,48.85L218.42,48.953L219.19,49.071L219.97,49.046L220.75,48.967L221.53,49.028L222.3,49.095L223.08,49.014L223.86,48.95L224.64,49.056L225.41,49.097L226.19,49.277L226.97,49.202L227.75,49.215L228.52,49.059L229.3,49.125L230.08,49.299L230.86,49.479L231.63,49.422L232.41,49.212L233.19,49.331L233.97,49.298L234.75,49.601L235.52,49.389L236.3,49.525L237.08,49.533L237.86,49.351L238.63,49.23L239.41,49.085L240.19,49.3L240.97,49.333L241.74,49.367L242.52,49.351L243.3,49.235L244.08,49.315L244.85,49.327L245.63,49.383L246.41,49.306L247.19,49.565L247.96,49.044L248.74,48.956L249.52,49.478L250.3,49.178L251.07,49.022L251.85,49.384L252.63,49.278L253.41,49.357L254.19,49.305L254.96,49.365L255.74,49.203L256.52,49.229L257.3,49.2L258.07,49.267L258.85,49.278L259.63,49.3L260.41,49.213L261.18,49.197L261.96,49.233L262.74,49.161L263.52,49.188L264.29,49.308L265.07,49.256L265.85,49.312L266.63,49.161L267.4,49.354L268.18,49.525L268.96,49.426L269.74,49.613L270.51,49.583L271.29,49.217L272.07,49.396L272.85,49.395L273.63,49.444L274.4,49.484L275.18,49.541L275.96,49.616L276.74,49.614L277.51,49.451L278.29,49.535L279.07,49.571L279.85,49.424L280.62,49.525L281.4,49.496L282.18,49.635L282.96,49.493L283.73,49.447L284.51,49.522L285.29,49.77L286.07,49.786L286.84,49.833L287.62,49.731L288.4,49.737L289.18,49.901L289.95,49.742L290.73,49.838L291.51,49.925L292.29,50.041L293.07,49.998L293.84,49.83L294.62,49.734L295.4,49.915L296.18,49.99L296.95,50.052L297.73,50.223L298.51,50.34L299.29,50.397L300.06,50.109L300.84,50.165L301.62,50.286L302.4,50.217L303.17,50.299L303.95,50.33L304.73,50.208L305.51,50.061L306.28,50.279L307.06,50.359L307.84,50.479L308.62,50.347L309.4,50.197L310.17,50.404L310.95,50.241L311.73,50.164L312.51,50.114L313.28,50.248L314.06,50.784L314.84,50.611L315.62,50.757L316.39,50.472L317.17,50.533L317.95,50.592L318.73,50.655L319.5,50.827L320.28,50.511L321.06,50.061L321.84,50.448L322.61,50.869L323.39,50.987L324.17,51.082L324.95,50.963L325.72,50.943L326.5,50.998L327.28,51.234L328.06,51.11L328.84,51.066L329.61,51.244L330.39,51.153L331.17,51.326L331.95,51.381L332.72,51.337L333.5,51.325L334.28,51.376L335.06,51.231L335.83,51.337L336.61,51.208L337.39,51.33L338.17,51.449L338.94,51.861L339.72,51.879L340.5,51.945L341.28,51.97L342.05,51.797L342.83,51.904L343.61,51.957L344.39,52.205L345.16,51.998L345.94,51.878L346.72,52.034L347.5,52.409L348.28,52.918L349.05,52.6L349.83,52.576L350.61,52.357L351.39,52.729L352.16,52.788L352.94,52.491L353.72,52.698L354.5,52.718L355.27,52.863L356.05,53.232L356.83,53.083L357.61,53.051L358.38,53.12L359.16,53.206L359.94,53.005L360.72,53.13L361.49,53.187L362.27,52.943L363.05,53.854L363.83,54.207L364.6,53.87L365.38,53.815L366.16,53.827L366.94,53.96L367.72,53.902L368.49,54.026L369.27,54.139L370.05,53.798L370.83,54.417L371.6,54.885L372.38,54.932L373.16,55.269L373.94,54.264L374.71,54.702L375.49,54.769L376.27,54.994L377.05,55.321L377.82,54.915L378.6,54.719L379.38,56.005L380.16,55.981L380.93,56.014L381.71,55.933L382.49,56.096L383.27,55.813L384.04,55.986L384.82,56.066L385.6,56.091L386.38,56.453L387.16,56.709L387.93,57.778L388.71,57.869L389.49,57.504L390.27,57.51L391.04,57.453L391.82,57.459L392.6,57.573L393.38,57.439L394.15,57.449L394.93,57.357L395.71,60.007L396.49,61.966L397.26,62.032L398.04,62.176L398.82,61.943L399.6,61.94L400.37,65.635L401.15,112.59L401.31,278.56" style="fill:none;stroke:#F15A60" />
<path d="M405.2,277.58L425.2,277.58" style="fill:none;stroke:#F15A60" />
<text x="340.9" y="-271.91" transform="scale(1, -1)"
	style="font-family:Times;font-weight:normal;font-style:normal;font-size:12px">random-read</text>
</g>
</svg>
