<?xml version="1.0"?>
<!-- Generated by SVGo and Plotinum VG -->
<svg width="425.2pt" height="283.46pt" viewBox="0 0 425.2 283.46"
	xmlns="http://www.w3.org/2000/svg"
	xmlns:xlink="http://www.w3.org/1999/xlink">
<g transform="scale(1, -1) translate(0, -283.46)">
<path d="M0,0L425.2,0L425.2,283.46L0,283.46Z" style="fill:#FFFFFF" />
<text x="207.46" y="-3.9023" transform="scale(1, -1)"
	style="font-family:Liberation Serif;font-variant:normal;font-weight:normal;font-style:normal;font-size:12px">database size</text>
<text x="60.689" y="-16.541" transform="scale(1, -1)"
	style="font-family:Liberation Serif;font-variant:normal;font-weight:normal;font-style:normal;font-size:10px">4.00 mb</text>
<text x="137.09" y="-16.541" transform="scale(1, -1)"
	style="font-family:Liberation Serif;font-variant:normal;font-weight:normal;font-style:normal;font-size:10px">260.00 mb</text>
<text x="218.5" y="-16.541" transform="scale(1, -1)"
	style="font-family:Liberation Serif;font-variant:normal;font-weight:normal;font-style:normal;font-size:10px">516.00 mb</text>
<text x="299.9" y="-16.541" transform="scale(1, -1)"
	style="font-family:Liberation Serif;font-variant:normal;font-weight:normal;font-style:normal;font-size:10px">772.00 mb</text>
<text x="377.42" y="-16.541" transform="scale(1, -1)"
	style="font-family:Liberation Serif;font-variant:normal;font-weight:normal;font-style:normal;font-size:10px">1023.64 mb</text>
<path d="M77.078,24.363L77.078,32.363" style="fill:none;stroke:#000000;stroke-width:0.5" />
<path d="M158.48,24.363L158.48,32.363" style="fill:none;stroke:#000000;stroke-width:0.5" />
<path d="M239.89,24.363L239.89,32.363" style="fill:none;stroke:#000000;stroke-width:0.5" />
<path d="M321.29,24.363L321.29,32.363" style="fill:none;stroke:#000000;stroke-width:0.5" />
<path d="M401.31,24.363L401.31,32.363" style="fill:none;stroke:#000000;stroke-width:0.5" />
<path d="M76.583,32.363L401.31,32.363" style="fill:none;stroke:#000000;stroke-width:0.5" />
<g transform="rotate(90)">
<text x="145.41" y="9.3867" transform="scale(1, -1)"
	style="font-family:Liberation Serif;font-variant:normal;font-weight:normal;font-style:normal;font-size:12px">speed</text>
</g>
<text x="20.885" y="-37.951" transform="scale(1, -1)"
	style="font-family:Liberation Serif;font-variant:normal;font-weight:normal;font-style:normal;font-size:10px">0.03 mb/s</text>
<text x="15.885" y="-137.01" transform="scale(1, -1)"
	style="font-family:Liberation Serif;font-variant:normal;font-weight:normal;font-style:normal;font-size:10px">32.03 mb/s</text>
<text x="15.885" y="-236.07" transform="scale(1, -1)"
	style="font-family:Liberation Serif;font-variant:normal;font-weight:normal;font-style:normal;font-size:10px">64.03 mb/s</text>
<text x="15.885" y="-275.64" transform="scale(1, -1)"
	style="font-family:Liberation Serif;font-variant:normal;font-weight:normal;font-style:normal;font-size:10px">76.81 mb/s</text>
<path d="M62.833,40.236L70.833,40.236" style="fill:none;stroke:#000000;stroke-width:0.5" />
<path d="M62.833,139.3L70.833,139.3" style="fill:none;stroke:#000000;stroke-width:0.5" />
<path d="M62.833,238.36L70.833,238.36" style="fill:none;stroke:#000000;stroke-width:0.5" />
<path d="M62.833,277.93L70.833,277.93" style="fill:none;stroke:#000000;stroke-width:0.5" />
<path d="M70.833,40.209L70.833,277.93" style="fill:none;stroke:#000000;stroke-width:0.5" />
<path d="M76.583,40.209L77.359,51.229L78.136,52.397L78.912,52.639L79.689,52.308L80.465,52.528L81.242,52.945L82.018,54.485L82.795,56.786L83.571,56.227L84.348,57.228L85.124,56.824L85.901,57.195L86.677,56.946L87.454,57.147L88.23,57.562L89.007,57.159L89.783,57.598L90.56,57.67L91.336,58.086L92.113,58.384L92.889,58.235L93.666,57.772L94.442,58.621L95.219,58.324L95.995,57.736L96.772,58.141L97.548,58.272L98.324,58.679L99.101,58.653L99.877,59.69L100.65,59.679L101.43,59.664L102.21,59.908L102.98,61.423L103.76,62.144L104.54,62.057L105.31,62.558L106.09,61.67L106.87,62.042L107.64,61.842L108.42,62.381L109.2,62.429L109.97,62.135L110.75,61.742L111.52,62.576L112.3,62.175L113.08,62.57L113.85,62.032L114.63,62.275L115.41,61.793L116.18,62.552L116.96,62.533L117.74,62.765L118.51,62.267L119.29,62.261L120.07,61.818L120.84,62.325L121.62,61.654L122.4,62.739L123.17,62.461L123.95,62.385L124.72,61.939L125.5,60.326L126.28,61.831L127.05,62.287L127.83,62.43L128.61,62.395L129.38,62.458L130.16,62.674L130.94,62.757L131.71,62.603L132.49,62.821L133.27,61.353L134.04,61.631L134.82,62.136L135.6,62.32L136.37,62.359L137.15,62.847L137.93,62.515L138.7,62.589L139.48,62.703L140.25,62.719L141.03,62.367L141.81,62.808L142.58,62.327L143.36,62.211L144.14,61.569L144.91,62.096L145.69,61.941L146.47,62.98L147.24,62.277L148.02,62.602L148.8,62.624L149.57,62.811L150.35,62.596L151.13,62.723L151.9,62.396L152.68,62.073L153.45,62.182L154.23,62.395L155.01,62.368L155.78,62.197L156.56,62.341L157.34,62.143L158.11,62.233L158.89,62.861L159.67,61.558L160.44,62.185L161.22,62.256L162,62.295L162.77,62.78L163.55,62.202L164.33,62.353L165.1,62.25L165.88,62.223L166.65,62.1L167.43,61.899L168.21,62.005L168.98,62.23L169.76,62.386L170.54,62.48L171.31,62.453L172.09,62.837L172.87,62.198L173.64,62.378L174.42,62.109L175.2,62.177L175.97,62.317L176.75,62.874L177.53,62.254L178.3,62.254L179.08,62.019L179.86,62.131L180.63,62.543L181.41,62.947L182.18,62.357L182.96,62.385L183.74,62.045L184.51,62.531L185.29,62.499L186.07,62.276L186.84,62.139L187.62,62.445L188.4,62.108L189.17,62.522L189.95,61.967L190.73,62.075L191.5,61.971L192.28,62.912L193.06,62.9L193.83,61.899L194.61,62.261L195.38,62.121L196.16,62.381L196.94,62.152L197.71,62.355L198.49,61.934L199.27,62.579L200.04,62.464L200.82,62.835L201.6,62.057L202.37,62.678L203.15,62.348L203.93,62.996L204.7,62.236L205.48,62.32L206.26,62.241L207.03,62.705L207.81,62.055L208.58,62.418L209.36,62.199L210.14,62.8L210.91,62.449L211.69,62.266L212.47,61.593L213.24,62.656L214.02,61.901L214.8,62.159L215.57,62.193L216.35,62.389L217.13,62.171L217.9,62.795L218.68,62.383L219.46,62.354L220.23,62.251L221.01,62.452L221.79,62.005L222.56,62.78L223.34,62.367L224.11,61.788L224.89,62.661L225.67,62.679L226.44,62.589L227.22,62.118L228,62.196L228.77,62.149L229.55,62.59L230.33,62.518L231.1,62.704L231.88,62.527L232.66,62.676L233.43,62.31L234.21,62.33L234.99,61.958L235.76,61.588L236.54,62.23L237.31,62.319L238.09,62.25L238.87,62.332L239.64,62.091L240.42,62.424L241.2,62.381L241.97,62.824L242.75,62.333L243.53,62.29L244.3,61.94L245.08,62.376L245.86,62.229L246.63,61.855L247.41,62.13L248.19,62.633L248.96,62.288L249.74,62.797L250.51,62.577L251.29,62.366L252.07,62.103L252.84,62.171L253.62,61.993L254.4,62.7L255.17,62.396L255.95,62.32L256.73,62.258L257.5,62.575L258.28,61.697L259.06,62.705L259.83,62.713L260.61,62.182L261.39,62.609L262.16,62.453L262.94,62.551L263.72,62.678L264.49,62.773L265.27,62.087L266.04,62.196L266.82,62.198L267.6,62.485L268.37,62.185L269.15,62.351L269.93,61.523L270.7,61.912L271.48,62.07L272.26,62.446L273.03,62.368L273.81,62.098L274.59,62.341L275.36,62.894L276.14,62.204L276.92,62.09L277.69,62.256L278.47,62.849L279.24,62.58L280.02,62.365L280.8,61.638L281.57,62.02L282.35,62.25L283.13,62.118L283.9,62.152L284.68,62.359L285.46,61.983L286.23,62.678L287.01,62.565L287.79,62.08L288.56,62.336L289.34,62.21L290.12,62.295L290.89,62.177L291.67,62.683L292.44,61.882L293.22,62.857L294,62.067L294.77,62.354L295.55,62.177L296.33,62.775L297.1,62.144L297.88,62.559L298.66,62.038L299.43,62.414L300.21,62.309L300.99,62.73L301.76,62.27L302.54,62.283L303.32,62.151L304.09,61.786L304.87,62.2L305.65,62.617L306.42,62.317L307.2,62.408L307.97,62.033L308.75,62.324L309.53,61.843L310.3,62.274L311.08,62.175L311.86,62.359L312.63,62.122L313.41,62.574L314.19,62.269L314.96,61.952L315.74,62.39L316.52,62.603L317.29,62.81L318.07,62.572L318.85,62.644L319.62,62.589L320.4,62.772L321.17,62.539L321.95,62.707L322.73,62.472L323.5,62.584L324.28,61.941L325.06,62.197L325.83,62.599L326.61,62.057L327.39,62.531L328.16,62.762L328.94,62.06L329.72,62.659L330.49,62.217L331.27,62.181L332.05,62.271L332.82,62.599L333.6,62.134L334.37,62.462L335.15,62.231L335.93,62.103L336.7,61.984L337.48,62.794L338.26,61.712L339.03,62.663L339.81,62.525L340.59,62.656L341.36,62.286L342.14,62.194L342.92,61.879L343.69,62.361L344.47,62.294L345.25,62.587L346.02,62.241L346.8,62.7L347.58,62.475L348.35,62.378L349.13,62.12L349.9,62.237L350.68,62.749L351.46,62.497L352.23,62.494L353.01,61.951L353.79,62.356L354.56,62.044L355.34,62.305L356.12,62.187L356.89,62.435L357.67,62.458L358.45,62.871L359.22,62.433L360,62.641L360.78,61.668L361.55,62.275L362.33,62.28L363.1,62.293L363.88,62.266L364.66,62.646L365.43,62.249L366.21,62.361L366.99,62.16L367.76,62.441L368.54,62.218L369.32,62.298L370.09,62.087L370.87,62.27L371.65,62.384L372.42,61.993L373.2,62.514L373.98,62.489L374.75,62.216L375.53,62.323L376.3,62.27L377.08,62.68L377.86,62.693L378.63,61.001L379.41,62.047L380.19,62.383L380.96,62.387L381.74,62.491L382.52,62.774L383.29,61.893L384.07,61.787L384.85,62.072L385.62,62.589L386.4,62.396L387.18,62.763L387.95,62.185L388.73,62.544L389.51,62.506L390.28,62.912L391.06,61.97L391.83,62.489L392.61,62.271L393.39,62.812L394.16,62.365L394.94,61.92L395.72,62.205L396.49,62.823L397.27,59.76L398.05,61.683L398.82,62.372L399.6,63.047L400.38,62.234L401.15,65.661L401.31,277.93" style="fill:none;stroke:#F15A60" />
<path d="M405.2,275.78L425.2,275.78" style="fill:none;stroke:#F15A60" />
<text x="266.94" y="-273.29" transform="scale(1, -1)"
	style="font-family:Liberation Serif;font-variant:normal;font-weight:normal;font-style:normal;font-size:12px">random-read-bigcache-filter</text>
</g>
</svg>
