<?xml version="1.0"?>
<!-- Generated by SVGo and Plotinum VG -->
<svg width="425.2pt" height="283.46pt" viewBox="0 0 425.2 283.46"
	xmlns="http://www.w3.org/2000/svg"
	xmlns:xlink="http://www.w3.org/1999/xlink">
<g transform="scale(1, -1) translate(0, -283.46)">
<path d="M0,0L425.2,0L425.2,283.46L0,283.46Z" style="fill:#FFFFFF" />
<text x="205.98" y="-3.8613" transform="scale(1, -1)"
	style="font-family:Times;font-weight:normal;font-style:normal;font-size:12px">database size</text>
<text x="54.984" y="-15.602" transform="scale(1, -1)"
	style="font-family:Times;font-weight:normal;font-style:normal;font-size:10px">2.00 mb</text>
<text x="173.67" y="-15.602" transform="scale(1, -1)"
	style="font-family:Times;font-weight:normal;font-style:normal;font-size:10px">258.00 mb</text>
<text x="297.35" y="-15.602" transform="scale(1, -1)"
	style="font-family:Times;font-weight:normal;font-style:normal;font-size:10px">514.00 mb</text>
<text x="382.42" y="-15.602" transform="scale(1, -1)"
	style="font-family:Times;font-weight:normal;font-style:normal;font-size:10px">690.08 mb</text>
<path d="M71.373,25.23L71.373,33.23" style="fill:none;stroke:#000000;stroke-width:0.5" />
<path d="M195.06,25.23L195.06,33.23" style="fill:none;stroke:#000000;stroke-width:0.5" />
<path d="M318.74,25.23L318.74,33.23" style="fill:none;stroke:#000000;stroke-width:0.5" />
<path d="M403.81,25.23L403.81,33.23" style="fill:none;stroke:#000000;stroke-width:0.5" />
<path d="M71.114,33.23L403.81,33.23" style="fill:none;stroke:#000000;stroke-width:0.5" />
<g transform="rotate(90)">
<text x="144.86" y="11.555" transform="scale(1, -1)"
	style="font-family:Times;font-weight:normal;font-style:normal;font-size:12px">speed</text>
</g>
<text x="15.416" y="-33.759" transform="scale(1, -1)"
	style="font-family:Times;font-weight:normal;font-style:normal;font-size:10px">0.00 mb/s</text>
<text x="15.416" y="-128.32" transform="scale(1, -1)"
	style="font-family:Times;font-weight:normal;font-style:normal;font-size:10px">2.00 mb/s</text>
<text x="15.416" y="-222.89" transform="scale(1, -1)"
	style="font-family:Times;font-weight:normal;font-style:normal;font-size:10px">4.00 mb/s</text>
<text x="15.416" y="-273.84" transform="scale(1, -1)"
	style="font-family:Times;font-weight:normal;font-style:normal;font-size:10px">5.08 mb/s</text>
<path d="M57.364,38.481L65.364,38.481" style="fill:none;stroke:#000000;stroke-width:0.5" />
<path d="M57.364,133.05L65.364,133.05" style="fill:none;stroke:#000000;stroke-width:0.5" />
<path d="M57.364,227.61L65.364,227.61" style="fill:none;stroke:#000000;stroke-width:0.5" />
<path d="M57.364,278.56L65.364,278.56" style="fill:none;stroke:#000000;stroke-width:0.5" />
<path d="M65.364,38.48L65.364,278.56" style="fill:none;stroke:#000000;stroke-width:0.5" />
<path d="M71.114,38.48L71.822,250.57L72.53,250.47L73.238,248.81L73.946,250.43L74.654,252.22L75.361,256.25L76.069,252.97L76.777,251.19L77.485,249.54L78.193,250.25L78.901,255.55L79.609,256.3L80.316,249.25L81.024,250.63L81.732,250.34L82.44,255.1L83.148,254.41L83.856,253.78L84.564,256.01L85.271,254.45L85.979,247.71L86.687,251.22L87.395,248.23L88.103,252.07L88.811,249.56L89.519,252.67L90.226,253.97L90.934,250.17L91.642,253.04L92.35,249.61L93.058,252.54L93.766,255.09L94.474,255.04L95.181,254.62L95.889,250.35L96.597,249.7L97.305,254.94L98.013,248.34L98.721,250.93L99.429,248.65L100.14,254.18L100.84,257.71L101.55,256.17L102.26,257.19L102.97,257.77L103.68,256.82L104.38,257.58L105.09,256.8L105.8,256.24L106.51,257.22L107.22,255.48L107.92,255.98L108.63,252.45L109.34,252.18L110.05,255.73L110.75,253.04L111.46,253.23L112.17,253.57L112.88,253.91L113.59,257.04L114.29,254.55L115,255.19L115.71,256.84L116.42,253.13L117.13,252L117.83,253.62L118.54,252.37L119.25,253.42L119.96,254.18L120.66,256.73L121.37,256.51L122.08,251.53L122.79,257.13L123.5,256.46L124.2,254.13L124.91,254.19L125.62,254.96L126.33,255.63L127.04,253.61L127.74,256.51L128.45,255.42L129.16,254.5L129.87,253.91L130.57,241.34L131.28,246.72L131.99,252.71L132.7,252.77L133.41,253.59L134.11,253.27L134.82,254.17L135.53,256.02L136.24,254.37L136.95,254.95L137.65,256.39L138.36,255.7L139.07,255.07L139.78,256.46L140.48,256.15L141.19,255.8L141.9,256.28L142.61,258.62L143.32,256.51L144.02,254.75L144.73,256.87L145.44,254.22L146.15,251.56L146.86,253.86L147.56,257.57L148.27,258.16L148.98,255.52L149.69,252.82L150.39,253.28L151.1,253.45L151.81,253.79L152.52,252.04L153.23,252.29L153.93,249.49L154.64,254.22L155.35,255.82L156.06,253L156.77,252.75L157.47,250.47L158.18,253.96L158.89,255.31L159.6,254.76L160.3,255.89L161.01,253.8L161.72,255.22L162.43,256.64L163.14,254.56L163.84,254.25L164.55,249.67L165.26,250.11L165.97,249.81L166.68,253.25L167.38,251.28L168.09,253.44L168.8,253.62L169.51,251.83L170.21,252.67L170.92,251.69L171.63,252.9L172.34,251.89L173.05,257.53L173.75,257.23L174.46,254.41L175.17,256.66L175.88,253.58L176.59,254.45L177.29,255.48L178,253.87L178.71,250.69L179.42,251.18L180.12,255.41L180.83,251.88L181.54,255.57L182.25,253.55L182.96,252.51L183.66,254.61L184.37,257.09L185.08,251.4L185.79,251.43L186.5,252.73L187.2,251.07L187.91,253.39L188.62,256.09L189.33,252.3L190.03,252.92L190.74,253.94L191.45,255.34L192.16,255.35L192.87,253.08L193.57,253.76L194.28,252.11L194.99,253.91L195.7,254.15L196.41,255.19L197.11,257.88L197.82,249.36L198.53,255.91L199.24,255.39L199.94,256.62L200.65,253.77L201.36,252.76L202.07,257.02L202.78,253.8L203.48,255.11L204.19,256.71L204.9,257.34L205.61,250.06L206.32,252.56L207.02,251.19L207.73,252.73L208.44,252.97L209.15,250.25L209.85,248.54L210.56,252.83L211.27,257.52L211.98,254.99L212.69,253.76L213.39,253.02L214.1,249.95L214.81,251.86L215.52,253.66L216.23,247.79L216.93,256.59L217.64,256.74L218.35,240.49L219.06,250.45L219.76,248.81L220.47,249.2L221.18,251.45L221.89,256.06L222.6,256.79L223.3,251.43L224.01,252.2L224.72,249.59L225.43,250.59L226.14,252.6L226.84,250.97L227.55,255.41L228.26,253.4L228.97,255.12L229.67,257.55L230.38,256.72L231.09,248.94L231.8,250.85L232.51,255.46L233.21,257.59L233.92,254.32L234.63,254.19L235.34,257.23L236.05,253.89L236.75,252.37L237.46,253.95L238.17,250.93L238.88,253.33L239.58,253.06L240.29,256.99L241,256.53L241.71,253.29L242.42,256.41L243.12,256.73L243.83,252.29L244.54,251.97L245.25,249.26L245.96,254.03L246.66,251.19L247.37,251.11L248.08,252.61L248.79,253.14L249.49,253.05L250.2,254.62L250.91,250.24L251.62,251.14L252.33,251.57L253.03,255.05L253.74,252.96L254.45,253.38L255.16,254.71L255.87,252.19L256.57,253.12L257.28,255.42L257.99,255.81L258.7,256.81L259.4,256.7L260.11,250.76L260.82,252.23L261.53,252.22L262.24,252.29L262.94,251.38L263.65,246.91L264.36,250.02L265.07,250.49L265.78,252.2L266.48,252.72L267.19,250.38L267.9,253.59L268.61,251.42L269.31,250.38L270.02,250.71L270.73,251.16L271.44,252.41L272.15,251.82L272.85,252.52L273.56,253.42L274.27,253.94L274.98,255.14L275.69,252.29L276.39,254.73L277.1,256.54L277.81,255.67L278.52,257.33L279.22,256.35L279.93,256.12L280.64,258.06L281.35,257.84L282.06,251.99L282.76,251.28L283.47,253.13L284.18,256.14L284.89,255.8L285.6,251.91L286.3,255.06L287.01,253.34L287.72,255.11L288.43,254.87L289.13,255.73L289.84,259.42L290.55,254.03L291.26,258.83L291.97,258.13L292.67,257.81L293.38,258.67L294.09,259.6L294.8,261.74L295.51,260.13L296.21,261.26L296.92,261.25L297.63,256.96L298.34,259.6L299.04,262.14L299.75,260.01L300.46,257.54L301.17,258.3L301.88,259.93L302.58,262.9L303.29,262.16L304,264.15L304.71,263.32L305.42,263.12L306.12,265.93L306.83,250.5L307.54,259.8L308.25,261.3L308.95,260.79L309.66,265.03L310.37,265.9L311.08,262.07L311.79,260.9L312.49,263.16L313.2,260.52L313.91,261.08L314.62,262L315.33,263.47L316.03,261.18L316.74,267.11L317.45,266.21L318.16,264.95L318.86,266.79L319.57,267.58L320.28,263.31L320.99,264.12L321.7,266.17L322.4,264.91L323.11,265.9L323.82,265.43L324.53,267.43L325.24,263.43L325.94,263.11L326.65,262.68L327.36,263.61L328.07,264.79L328.77,263.49L329.48,267.35L330.19,269.09L330.9,262.08L331.61,257.68L332.31,258.27L333.02,264.02L333.73,265.2L334.44,262.34L335.15,267.32L335.85,266.04L336.56,260.49L337.27,261.33L337.98,262.08L338.68,262.73L339.39,266.21L340.1,268.05L340.81,268.57L341.52,264.62L342.22,265.01L342.93,266.58L343.64,261.74L344.35,266.25L345.06,267.02L345.76,262.17L346.47,261.74L347.18,263.19L347.89,265.64L348.59,265.84L349.3,261.3L350.01,263.86L350.72,258.34L351.43,266.1L352.13,267.43L352.84,264.46L353.55,265.14L354.26,263.22L354.97,263.89L355.67,265.55L356.38,264.49L357.09,267.02L357.8,263.56L358.5,264.03L359.21,262.29L359.92,264.45L360.63,265L361.34,267.68L362.04,266.44L362.75,264.62L363.46,262.22L364.17,263.28L364.88,264.67L365.58,264.03L366.29,266.69L367,260.93L367.71,264.63L368.41,264.17L369.12,262.62L369.83,262.81L370.54,264.45L371.25,264.39L371.95,268.47L372.66,266.54L373.37,266.86L374.08,269.01L374.79,268.05L375.49,267.88L376.2,266.11L376.91,263.84L377.62,267L378.32,266.8L379.03,267.47L379.74,270.13L380.45,267.55L381.16,265.75L381.86,267.87L382.57,263.98L383.28,268.35L383.99,267.29L384.7,268.16L385.4,268L386.11,267.97L386.82,270.79L387.53,269.99L388.23,267.23L388.94,269.03L389.65,268.55L390.36,271.23L391.07,275.29L391.77,275.29L392.48,275.47L393.19,273.74L393.9,270.82L394.61,270.44L395.31,270.88L396.02,272.85L396.73,271.63L397.44,269.43L398.14,274.06L398.85,273.12L399.56,257.74L400.27,268.97L400.98,269.56L401.68,271.27L402.39,265.99L403.1,276.59L403.81,278.56" style="fill:none;stroke:#F15A60" />
<path d="M405.2,277.58L425.2,277.58" style="fill:none;stroke:#F15A60" />
<text x="304.91" y="-271.91" transform="scale(1, -1)"
	style="font-family:Times;font-weight:normal;font-style:normal;font-size:12px">pebble-random-read</text>
</g>
</svg>
