<?xml version="1.0"?>
<!-- Generated by SVGo and Plotinum VG -->
<svg width="425.2pt" height="283.46pt" viewBox="0 0 425.2 283.46"
	xmlns="http://www.w3.org/2000/svg"
	xmlns:xlink="http://www.w3.org/1999/xlink">
<g transform="scale(1, -1) translate(0, -283.46)">
<path d="M0,0L425.2,0L425.2,283.46L0,283.46Z" style="fill:#FFFFFF" />
<text x="207.23" y="-3.8613" transform="scale(1, -1)"
	style="font-family:Times;font-weight:normal;font-style:normal;font-size:12px">database size</text>
<text x="60.221" y="-15.602" transform="scale(1, -1)"
	style="font-family:Times;font-weight:normal;font-style:normal;font-size:10px">4.00 mb</text>
<text x="136.74" y="-15.602" transform="scale(1, -1)"
	style="font-family:Times;font-weight:normal;font-style:normal;font-size:10px">260.00 mb</text>
<text x="218.26" y="-15.602" transform="scale(1, -1)"
	style="font-family:Times;font-weight:normal;font-style:normal;font-size:10px">516.00 mb</text>
<text x="299.79" y="-15.602" transform="scale(1, -1)"
	style="font-family:Times;font-weight:normal;font-style:normal;font-size:10px">772.00 mb</text>
<text x="377.42" y="-15.602" transform="scale(1, -1)"
	style="font-family:Times;font-weight:normal;font-style:normal;font-size:10px">1023.64 mb</text>
<path d="M76.61,25.23L76.61,33.23" style="fill:none;stroke:#000000;stroke-width:0.5" />
<path d="M158.13,25.23L158.13,33.23" style="fill:none;stroke:#000000;stroke-width:0.5" />
<path d="M239.65,25.23L239.65,33.23" style="fill:none;stroke:#000000;stroke-width:0.5" />
<path d="M321.18,25.23L321.18,33.23" style="fill:none;stroke:#000000;stroke-width:0.5" />
<path d="M401.31,25.23L401.31,33.23" style="fill:none;stroke:#000000;stroke-width:0.5" />
<path d="M76.114,33.23L401.31,33.23" style="fill:none;stroke:#000000;stroke-width:0.5" />
<g transform="rotate(90)">
<text x="144.86" y="11.555" transform="scale(1, -1)"
	style="font-family:Times;font-weight:normal;font-style:normal;font-size:12px">speed</text>
</g>
<text x="20.416" y="-33.787" transform="scale(1, -1)"
	style="font-family:Times;font-weight:normal;font-style:normal;font-size:10px">0.03 mb/s</text>
<text x="15.416" y="-140.62" transform="scale(1, -1)"
	style="font-family:Times;font-weight:normal;font-style:normal;font-size:10px">32.03 mb/s</text>
<text x="15.416" y="-247.45" transform="scale(1, -1)"
	style="font-family:Times;font-weight:normal;font-style:normal;font-size:10px">64.03 mb/s</text>
<text x="15.416" y="-273.84" transform="scale(1, -1)"
	style="font-family:Times;font-weight:normal;font-style:normal;font-size:10px">71.94 mb/s</text>
<path d="M62.364,38.509L70.364,38.509" style="fill:none;stroke:#000000;stroke-width:0.5" />
<path d="M62.364,145.34L70.364,145.34" style="fill:none;stroke:#000000;stroke-width:0.5" />
<path d="M62.364,252.17L70.364,252.17" style="fill:none;stroke:#000000;stroke-width:0.5" />
<path d="M62.364,278.56L70.364,278.56" style="fill:none;stroke:#000000;stroke-width:0.5" />
<path d="M70.364,38.48L70.364,278.56" style="fill:none;stroke:#000000;stroke-width:0.5" />
<path d="M76.114,38.48L76.892,44.498L77.669,44.655L78.447,45.802L79.225,46.483L80.002,46.555L80.78,46.507L81.557,46.822L82.335,46.781L83.113,47.799L83.89,47.783L84.668,47.75L85.445,47.719L86.223,47.754L87.001,47.697L87.778,47.735L88.556,47.77L89.334,47.757L90.111,47.721L90.889,47.753L91.666,47.778L92.444,47.782L93.222,47.761L93.999,47.695L94.777,47.737L95.554,47.685L96.332,47.718L97.11,47.789L97.887,47.83L98.665,47.822L99.442,47.708L100.22,47.843L101,47.814L101.78,47.81L102.55,47.77L103.33,47.82L104.11,47.808L104.89,47.798L105.66,47.741L106.44,47.818L107.22,47.741L108,47.757L108.77,47.773L109.55,47.815L110.33,47.796L111.11,47.801L111.88,47.646L112.66,47.761L113.44,47.817L114.22,47.797L114.99,47.713L115.77,47.89L116.55,47.8L117.33,47.732L118.1,47.85L118.88,47.853L119.66,47.833L120.44,47.854L121.22,47.82L121.99,47.801L122.77,47.808L123.55,47.757L124.33,47.863L125.1,47.823L125.88,47.799L126.66,47.742L127.44,47.856L128.21,47.82L128.99,47.661L129.77,47.797L130.55,47.757L131.32,47.733L132.1,47.791L132.88,47.847L133.66,47.795L134.43,47.672L135.21,47.669L135.99,47.564L136.77,47.616L137.54,47.77L138.32,47.691L139.1,47.563L139.88,47.713L140.66,47.664L141.43,47.623L142.21,47.761L142.99,47.725L143.77,47.655L144.54,47.778L145.32,47.685L146.1,47.808L146.88,47.833L147.65,47.691L148.43,47.833L149.21,47.763L149.99,47.769L150.76,47.834L151.54,47.826L152.32,47.699L153.1,47.73L153.87,47.79L154.65,47.888L155.43,47.791L156.21,47.841L156.98,47.838L157.76,47.781L158.54,47.718L159.32,47.786L160.1,47.888L160.87,47.868L161.65,47.791L162.43,47.806L163.21,47.779L163.98,47.805L164.76,47.844L165.54,47.757L166.32,47.729L167.09,47.649L167.87,47.58L168.65,47.565L169.43,47.632L170.2,47.714L170.98,47.688L171.76,47.624L172.54,47.677L173.31,47.768L174.09,47.731L174.87,47.652L175.65,47.694L176.43,47.683L177.2,47.685L177.98,47.868L178.76,47.803L179.54,47.794L180.31,47.802L181.09,47.845L181.87,47.77L182.65,47.819L183.42,47.644L184.2,47.776L184.98,47.824L185.76,47.766L186.53,47.824L187.31,47.768L188.09,47.778L188.87,47.775L189.64,47.725L190.42,47.747L191.2,47.81L191.98,47.789L192.75,47.783L193.53,47.801L194.31,47.78L195.09,47.716L195.87,47.885L196.64,47.833L197.42,47.793L198.2,47.849L198.98,47.804L199.75,47.77L200.53,47.78L201.31,47.702L202.09,47.752L202.86,47.766L203.64,47.759L204.42,47.819L205.2,47.814L205.97,47.846L206.75,47.756L207.53,47.8L208.31,47.805L209.08,47.767L209.86,47.898L210.64,47.763L211.42,47.799L212.19,47.71L212.97,47.8L213.75,47.774L214.53,47.807L215.31,47.751L216.08,47.832L216.86,47.776L217.64,47.815L218.42,47.774L219.19,47.605L219.97,47.827L220.75,47.764L221.53,47.729L222.3,47.823L223.08,47.751L223.86,47.786L224.64,47.782L225.41,47.88L226.19,47.861L226.97,47.804L227.75,47.828L228.52,47.769L229.3,47.867L230.08,47.771L230.86,47.714L231.63,47.881L232.41,47.771L233.19,47.825L233.97,47.838L234.75,47.76L235.52,47.821L236.3,47.806L237.08,47.713L237.86,47.799L238.63,47.782L239.41,47.803L240.19,47.799L240.97,47.82L241.74,47.784L242.52,47.784L243.3,47.854L244.08,47.748L244.85,47.768L245.63,47.768L246.41,47.832L247.19,47.762L247.96,47.734L248.74,47.8L249.52,47.83L250.3,47.797L251.07,47.826L251.85,47.818L252.63,47.802L253.41,47.81L254.19,47.816L254.96,47.657L255.74,47.827L256.52,47.783L257.3,47.734L258.07,47.809L258.85,47.789L259.63,47.762L260.41,47.802L261.18,47.838L261.96,47.718L262.74,47.771L263.52,47.793L264.29,47.794L265.07,47.836L265.85,47.816L266.63,47.804L267.4,47.866L268.18,47.807L268.96,47.719L269.74,47.797L270.51,47.814L271.29,47.797L272.07,47.794L272.85,47.784L273.63,47.803L274.4,47.82L275.18,47.763L275.96,47.864L276.74,47.847L277.51,47.762L278.29,47.725L279.07,47.853L279.85,47.788L280.62,47.848L281.4,47.865L282.18,47.694L282.96,47.775L283.73,47.794L284.51,47.736L285.29,47.824L286.07,47.8L286.84,47.818L287.62,47.846L288.4,47.89L289.18,47.774L289.95,47.783L290.73,47.626L291.51,47.774L292.29,47.8L293.07,47.796L293.84,47.841L294.62,47.795L295.4,47.737L296.18,47.748L296.95,47.832L297.73,47.822L298.51,47.805L299.29,47.839L300.06,47.785L300.84,47.759L301.62,47.829L302.4,47.819L303.17,47.884L303.95,47.845L304.73,47.707L305.51,47.857L306.28,47.841L307.06,47.839L307.84,47.801L308.62,47.742L309.4,47.882L310.17,47.779L310.95,47.782L311.73,47.716L312.51,47.859L313.28,47.875L314.06,47.752L314.84,47.709L315.62,47.86L316.39,47.761L317.17,47.861L317.95,47.8L318.73,47.835L319.5,47.781L320.28,47.775L321.06,47.909L321.84,47.853L322.61,47.779L323.39,47.835L324.17,47.73L324.95,47.788L325.72,47.844L326.5,47.658L327.28,47.773L328.06,47.753L328.84,47.718L329.61,47.814L330.39,47.793L331.17,47.855L331.95,47.867L332.72,47.765L333.5,47.768L334.28,47.811L335.06,47.859L335.83,47.75L336.61,47.814L337.39,47.835L338.17,48.019L338.94,48.128L339.72,48.111L340.5,48.087L341.28,48.157L342.05,48.088L342.83,48.093L343.61,48.091L344.39,48.001L345.16,48.308L345.94,48.494L346.72,48.388L347.5,48.441L348.28,48.459L349.05,48.506L349.83,48.476L350.61,48.517L351.39,48.484L352.16,48.677L352.94,49.038L353.72,49.052L354.5,48.961L355.27,49.072L356.05,49.069L356.83,49.05L357.61,49.053L358.38,49.083L359.16,49.132L359.94,49.453L360.72,49.361L361.49,49.334L362.27,49.453L363.05,49.325L363.83,49.395L364.6,49.29L365.38,49.389L366.16,49.392L366.94,49.9L367.72,50.272L368.49,50.219L369.27,50.344L370.05,50.23L370.83,50.195L371.6,50.186L372.38,50.346L373.16,50.204L373.94,50.405L374.71,51.138L375.49,51.335L376.27,51.187L377.05,51.315L377.82,51.248L378.6,51.286L379.38,51.097L380.16,51.131L380.93,51.228L381.71,52.599L382.49,52.679L383.27,52.621L384.04,52.76L384.82,52.535L385.6,52.674L386.38,52.713L387.16,52.579L387.93,52.769L388.71,53.16L389.49,53.719L390.27,53.945L391.04,53.94L391.82,53.94L392.6,53.866L393.38,53.808L394.15,53.805L394.93,53.933L395.71,54.251L396.49,57.058L397.26,57.161L398.04,56.829L398.82,57.318L399.6,56.924L400.37,56.912L401.15,59.902L401.31,278.56" style="fill:none;stroke:#F15A60" />
<path d="M405.2,277.58L425.2,277.58" style="fill:none;stroke:#F15A60" />
<text x="313.58" y="-271.91" transform="scale(1, -1)"
	style="font-family:Times;font-weight:normal;font-style:normal;font-size:12px">random-read-filter</text>
</g>
</svg>
