<?xml version="1.0"?>
<!-- Generated by SVGo and Plotinum VG -->
<svg width="425.2pt" height="283.46pt" viewBox="0 0 425.2 283.46"
	xmlns="http://www.w3.org/2000/svg"
	xmlns:xlink="http://www.w3.org/1999/xlink">
<g transform="scale(1, -1) translate(0, -283.46)">
<path d="M0,0L425.2,0L425.2,283.46L0,283.46Z" style="fill:#FFFFFF" />
<text x="207.46" y="-3.9023" transform="scale(1, -1)"
	style="font-family:Liberation Serif;font-variant:normal;font-weight:normal;font-style:normal;font-size:12px">database size</text>
<text x="60.689" y="-16.541" transform="scale(1, -1)"
	style="font-family:Liberation Serif;font-variant:normal;font-weight:normal;font-style:normal;font-size:10px">4.00 mb</text>
<text x="137.09" y="-16.541" transform="scale(1, -1)"
	style="font-family:Liberation Serif;font-variant:normal;font-weight:normal;font-style:normal;font-size:10px">260.00 mb</text>
<text x="218.5" y="-16.541" transform="scale(1, -1)"
	style="font-family:Liberation Serif;font-variant:normal;font-weight:normal;font-style:normal;font-size:10px">516.00 mb</text>
<text x="299.9" y="-16.541" transform="scale(1, -1)"
	style="font-family:Liberation Serif;font-variant:normal;font-weight:normal;font-style:normal;font-size:10px">772.00 mb</text>
<text x="377.42" y="-16.541" transform="scale(1, -1)"
	style="font-family:Liberation Serif;font-variant:normal;font-weight:normal;font-style:normal;font-size:10px">1023.64 mb</text>
<path d="M77.078,24.363L77.078,32.363" style="fill:none;stroke:#000000;stroke-width:0.5" />
<path d="M158.48,24.363L158.48,32.363" style="fill:none;stroke:#000000;stroke-width:0.5" />
<path d="M239.89,24.363L239.89,32.363" style="fill:none;stroke:#000000;stroke-width:0.5" />
<path d="M321.29,24.363L321.29,32.363" style="fill:none;stroke:#000000;stroke-width:0.5" />
<path d="M401.31,24.363L401.31,32.363" style="fill:none;stroke:#000000;stroke-width:0.5" />
<path d="M76.583,32.363L401.31,32.363" style="fill:none;stroke:#000000;stroke-width:0.5" />
<g transform="rotate(90)">
<text x="145.41" y="9.3867" transform="scale(1, -1)"
	style="font-family:Liberation Serif;font-variant:normal;font-weight:normal;font-style:normal;font-size:12px">speed</text>
</g>
<text x="20.885" y="-37.955" transform="scale(1, -1)"
	style="font-family:Liberation Serif;font-variant:normal;font-weight:normal;font-style:normal;font-size:10px">0.03 mb/s</text>
<text x="15.885" y="-150.27" transform="scale(1, -1)"
	style="font-family:Liberation Serif;font-variant:normal;font-weight:normal;font-style:normal;font-size:10px">32.03 mb/s</text>
<text x="15.885" y="-262.59" transform="scale(1, -1)"
	style="font-family:Liberation Serif;font-variant:normal;font-weight:normal;font-style:normal;font-size:10px">64.03 mb/s</text>
<text x="15.885" y="-275.64" transform="scale(1, -1)"
	style="font-family:Liberation Serif;font-variant:normal;font-weight:normal;font-style:normal;font-size:10px">67.75 mb/s</text>
<path d="M62.833,40.24L70.833,40.24" style="fill:none;stroke:#000000;stroke-width:0.5" />
<path d="M62.833,152.56L70.833,152.56" style="fill:none;stroke:#000000;stroke-width:0.5" />
<path d="M62.833,264.88L70.833,264.88" style="fill:none;stroke:#000000;stroke-width:0.5" />
<path d="M62.833,277.93L70.833,277.93" style="fill:none;stroke:#000000;stroke-width:0.5" />
<path d="M70.833,40.209L70.833,277.93" style="fill:none;stroke:#000000;stroke-width:0.5" />
<path d="M76.583,40.209L77.359,47.14L78.136,47.652L78.912,48.082L79.689,48.139L80.465,48.383L81.242,48.412L82.018,48.905L82.795,48.855L83.571,48.788L84.348,49.107L85.124,49.532L85.901,49.625L86.677,49.699L87.454,50.072L88.23,50.357L89.007,51.172L89.783,51.176L90.56,51.216L91.336,51.263L92.113,50.813L92.889,51.142L93.666,51.392L94.442,51.243L95.219,51.396L95.995,51.293L96.772,51.319L97.548,51.291L98.324,51.281L99.101,51.311L99.877,51.194L100.65,51.425L101.43,51.342L102.21,51.356L102.98,51.298L103.76,51.361L104.54,51.231L105.31,51.355L106.09,51.334L106.87,51.368L107.64,51.296L108.42,51.277L109.2,51.448L109.97,51.315L110.75,51.32L111.52,51.337L112.3,51.382L113.08,51.405L113.85,51.418L114.63,51.322L115.41,51.258L116.18,51.414L116.96,51.365L117.74,51.466L118.51,51.407L119.29,51.467L120.07,51.346L120.84,51.396L121.62,51.348L122.4,51.474L123.17,51.378L123.95,51.466L124.72,51.286L125.5,51.429L126.28,51.428L127.05,51.339L127.83,51.469L128.61,51.468L129.38,51.339L130.16,51.37L130.94,51.348L131.71,51.388L132.49,51.386L133.27,51.453L134.04,51.4L134.82,51.444L135.6,51.332L136.37,51.503L137.15,51.327L137.93,51.377L138.7,51.45L139.48,51.42L140.25,51.35L141.03,51.471L141.81,51.374L142.58,51.46L143.36,51.397L144.14,51.449L144.91,51.429L145.69,51.307L146.47,51.33L147.24,51.361L148.02,51.37L148.8,51.433L149.57,51.276L150.35,51.351L151.13,51.436L151.9,51.388L152.68,51.41L153.45,51.345L154.23,51.416L155.01,51.448L155.78,51.338L156.56,51.338L157.34,51.428L158.11,51.358L158.89,51.468L159.67,51.344L160.44,51.232L161.22,51.139L162,51.441L162.77,51.361L163.55,51.489L164.33,51.335L165.1,51.451L165.88,51.365L166.65,51.378L167.43,51.327L168.21,51.379L168.98,51.379L169.76,51.441L170.54,50.963L171.31,51.4L172.09,51.409L172.87,51.421L173.64,51.453L174.42,51.372L175.2,51.347L175.97,51.363L176.75,51.391L177.53,51.429L178.3,51.374L179.08,51.37L179.86,51.432L180.63,51.378L181.41,51.401L182.18,51.442L182.96,51.374L183.74,51.323L184.51,51.352L185.29,51.399L186.07,51.362L186.84,51.4L187.62,51.456L188.4,51.37L189.17,51.373L189.95,51.454L190.73,51.349L191.5,51.316L192.28,51.465L193.06,51.387L193.83,51.426L194.61,51.402L195.38,51.418L196.16,51.341L196.94,51.449L197.71,51.398L198.49,51.403L199.27,51.31L200.04,51.369L200.82,51.347L201.6,51.384L202.37,51.405L203.15,51.403L203.93,51.405L204.7,51.466L205.48,51.375L206.26,51.291L207.03,51.377L207.81,51.277L208.58,51.414L209.36,51.413L210.14,51.224L210.91,51.422L211.69,51.277L212.47,51.317L213.24,51.421L214.02,51.392L214.8,51.345L215.57,51.393L216.35,51.378L217.13,51.366L217.9,51.308L218.68,51.475L219.46,51.421L220.23,51.277L221.01,51.193L221.79,51.271L222.56,51.39L223.34,51.414L224.11,51.329L224.89,50.83L225.67,50.528L226.44,50.405L227.22,50.716L228,50.31L228.77,50.616L229.55,50.528L230.33,50.825L231.1,50.992L231.88,50.959L232.66,50.944L233.43,50.846L234.21,50.799L234.99,51.41L235.76,51.199L236.54,51.279L237.31,51.281L238.09,51.422L238.87,51.394L239.64,51.322L240.42,51.41L241.2,51.356L241.97,51.464L242.75,51.402L243.53,51.495L244.3,51.387L245.08,51.342L245.86,51.409L246.63,51.302L247.41,51.469L248.19,51.363L248.96,51.456L249.74,51.424L250.51,51.418L251.29,51.519L252.07,51.286L252.84,51.375L253.62,51.416L254.4,51.417L255.17,51.343L255.95,51.41L256.73,51.282L257.5,51.385L258.28,51.35L259.06,51.336L259.83,51.348L260.61,51.36L261.39,51.464L262.16,51.385L262.94,51.424L263.72,51.463L264.49,51.4L265.27,50.828L266.04,50.595L266.82,50.31L267.6,50.681L268.37,50.325L269.15,50.72L269.93,50.41L270.7,50.748L271.48,51.004L272.26,51.068L273.03,51.11L273.81,50.84L274.59,50.82L275.36,51.351L276.14,51.315L276.92,51.215L277.69,51.493L278.47,51.375L279.24,51.453L280.02,51.444L280.8,51.355L281.57,51.34L282.35,51.32L283.13,51.428L283.9,51.477L284.68,51.447L285.46,51.399L286.23,51.455L287.01,51.203L287.79,51.397L288.56,51.41L289.34,51.493L290.12,51.319L290.89,51.345L291.67,51.243L292.44,51.401L293.22,51.417L294,51.414L294.77,51.436L295.55,50.815L296.33,50.384L297.1,50.302L297.88,50.375L298.66,50.411L299.43,50.506L300.21,50.445L300.99,50.397L301.76,50.369L302.54,50.522L303.32,50.354L304.09,50.379L304.87,50.4L305.65,50.312L306.42,50.467L307.2,50.284L307.97,50.518L308.75,50.446L309.53,50.407L310.3,50.571L311.08,50.293L311.86,50.407L312.63,50.612L313.41,50.336L314.19,50.395L314.96,50.296L315.74,50.348L316.52,50.479L317.29,50.376L318.07,50.54L318.85,50.46L319.62,50.233L320.4,50.514L321.17,50.232L321.95,50.506L322.73,50.488L323.5,50.497L324.28,50.426L325.06,50.427L325.83,50.358L326.61,50.553L327.39,50.413L328.16,50.234L328.94,50.318L329.72,50.666L330.49,50.295L331.27,50.525L332.05,50.418L332.82,50.365L333.6,50.512L334.37,50.36L335.15,50.534L335.93,50.447L336.7,50.302L337.48,50.568L338.26,50.349L339.03,50.368L339.81,50.549L340.59,50.338L341.36,50.45L342.14,50.363L342.92,50.413L343.69,50.425L344.47,50.211L345.25,50.545L346.02,50.335L346.8,50.29L347.58,50.556L348.35,50.227L349.13,50.428L349.9,50.336L350.68,50.463L351.46,50.326L352.23,50.586L353.01,50.337L353.79,50.456L354.56,50.396L355.34,50.514L356.12,50.452L356.89,50.283L357.67,50.29L358.45,50.516L359.22,50.532L360,50.32L360.78,50.483L361.55,50.273L362.33,50.456L363.1,50.2L363.88,50.526L364.66,50.446L365.43,50.3L366.21,50.597L366.99,50.247L367.76,50.578L368.54,50.437L369.32,50.541L370.09,50.272L370.87,50.343L371.65,50.342L372.42,50.485L373.2,50.254L373.98,50.477L374.75,50.497L375.53,50.287L376.3,50.356L377.08,50.693L377.86,50.379L378.63,50.539L379.41,50.239L380.19,50.416L380.96,50.315L381.74,50.499L382.52,50.219L383.29,50.582L384.07,50.528L384.85,50.389L385.62,50.512L386.4,50.351L387.18,50.815L387.95,50.417L388.73,50.422L389.51,50.446L390.28,50.411L391.06,50.544L391.83,50.391L392.61,50.406L393.39,50.502L394.16,50.262L394.94,50.52L395.72,50.434L396.49,50.455L397.27,50.524L398.05,50.191L398.82,50.425L399.6,50.45L400.38,50.262L401.15,52.217L401.31,277.93" style="fill:none;stroke:#F15A60" />
<path d="M405.2,275.78L425.2,275.78" style="fill:none;stroke:#F15A60" />
<text x="313.58" y="-273.29" transform="scale(1, -1)"
	style="font-family:Liberation Serif;font-variant:normal;font-weight:normal;font-style:normal;font-size:12px">random-read-filter</text>
</g>
</svg>
