<?xml version="1.0"?>
<!-- Generated by SVGo and Plotinum VG -->
<svg width="425.2pt" height="283.46pt" viewBox="0 0 425.2 283.46"
	xmlns="http://www.w3.org/2000/svg"
	xmlns:xlink="http://www.w3.org/1999/xlink">
<g transform="scale(1, -1) translate(0, -283.46)">
<path d="M0,0L425.2,0L425.2,283.46L0,283.46Z" style="fill:#FFFFFF" />
<text x="207.46" y="-3.9023" transform="scale(1, -1)"
	style="font-family:Liberation Serif;font-variant:normal;font-weight:normal;font-style:normal;font-size:12px">database size</text>
<text x="60.689" y="-16.541" transform="scale(1, -1)"
	style="font-family:Liberation Serif;font-variant:normal;font-weight:normal;font-style:normal;font-size:10px">4.00 mb</text>
<text x="137.09" y="-16.541" transform="scale(1, -1)"
	style="font-family:Liberation Serif;font-variant:normal;font-weight:normal;font-style:normal;font-size:10px">260.00 mb</text>
<text x="218.5" y="-16.541" transform="scale(1, -1)"
	style="font-family:Liberation Serif;font-variant:normal;font-weight:normal;font-style:normal;font-size:10px">516.00 mb</text>
<text x="299.9" y="-16.541" transform="scale(1, -1)"
	style="font-family:Liberation Serif;font-variant:normal;font-weight:normal;font-style:normal;font-size:10px">772.00 mb</text>
<text x="377.42" y="-16.541" transform="scale(1, -1)"
	style="font-family:Liberation Serif;font-variant:normal;font-weight:normal;font-style:normal;font-size:10px">1023.64 mb</text>
<path d="M77.078,24.363L77.078,32.363" style="fill:none;stroke:#000000;stroke-width:0.5" />
<path d="M158.48,24.363L158.48,32.363" style="fill:none;stroke:#000000;stroke-width:0.5" />
<path d="M239.89,24.363L239.89,32.363" style="fill:none;stroke:#000000;stroke-width:0.5" />
<path d="M321.29,24.363L321.29,32.363" style="fill:none;stroke:#000000;stroke-width:0.5" />
<path d="M401.31,24.363L401.31,32.363" style="fill:none;stroke:#000000;stroke-width:0.5" />
<path d="M76.583,32.363L401.31,32.363" style="fill:none;stroke:#000000;stroke-width:0.5" />
<g transform="rotate(90)">
<text x="145.41" y="9.3867" transform="scale(1, -1)"
	style="font-family:Liberation Serif;font-variant:normal;font-weight:normal;font-style:normal;font-size:12px">speed</text>
</g>
<text x="20.885" y="-37.952" transform="scale(1, -1)"
	style="font-family:Liberation Serif;font-variant:normal;font-weight:normal;font-style:normal;font-size:10px">0.03 mb/s</text>
<text x="15.885" y="-142.56" transform="scale(1, -1)"
	style="font-family:Liberation Serif;font-variant:normal;font-weight:normal;font-style:normal;font-size:10px">32.03 mb/s</text>
<text x="15.885" y="-247.16" transform="scale(1, -1)"
	style="font-family:Liberation Serif;font-variant:normal;font-weight:normal;font-style:normal;font-size:10px">64.03 mb/s</text>
<text x="15.885" y="-275.64" transform="scale(1, -1)"
	style="font-family:Liberation Serif;font-variant:normal;font-weight:normal;font-style:normal;font-size:10px">72.74 mb/s</text>
<path d="M62.833,40.237L70.833,40.237" style="fill:none;stroke:#000000;stroke-width:0.5" />
<path d="M62.833,144.84L70.833,144.84" style="fill:none;stroke:#000000;stroke-width:0.5" />
<path d="M62.833,249.44L70.833,249.44" style="fill:none;stroke:#000000;stroke-width:0.5" />
<path d="M62.833,277.93L70.833,277.93" style="fill:none;stroke:#000000;stroke-width:0.5" />
<path d="M70.833,40.209L70.833,277.93" style="fill:none;stroke:#000000;stroke-width:0.5" />
<path d="M76.583,40.209L77.359,45.986L78.136,47.276L78.912,47.416L79.689,47.789L80.465,48.092L81.242,48.135L82.018,48.37L82.795,48.16L83.571,48.983L84.348,49.369L85.124,49.373L85.901,49.434L86.677,49.458L87.454,49.366L88.23,49.372L89.007,49.395L89.783,49.396L90.56,49.434L91.336,49.411L92.113,49.462L92.889,49.436L93.666,49.384L94.442,49.412L95.219,49.432L95.995,49.448L96.772,49.44L97.548,49.428L98.324,49.507L99.101,49.464L99.877,49.419L100.65,49.443L101.43,49.41L102.21,49.463L102.98,49.417L103.76,49.426L104.54,49.438L105.31,49.488L106.09,49.481L106.87,49.462L107.64,49.472L108.42,49.434L109.2,49.451L109.97,49.438L110.75,49.44L111.52,49.489L112.3,49.344L113.08,49.496L113.85,49.435L114.63,49.472L115.41,49.436L116.18,49.527L116.96,49.535L117.74,49.46L118.51,49.434L119.29,49.484L120.07,49.489L120.84,49.469L121.62,49.513L122.4,49.45L123.17,49.48L123.95,49.444L124.72,49.478L125.5,49.452L126.28,49.517L127.05,49.335L127.83,49.362L128.61,49.424L129.38,49.381L130.16,49.526L130.94,49.45L131.71,49.437L132.49,49.426L133.27,49.499L134.04,49.435L134.82,49.519L135.6,49.444L136.37,49.462L137.15,49.436L137.93,49.463L138.7,49.439L139.48,49.412L140.25,49.512L141.03,49.47L141.81,49.437L142.58,49.438L143.36,49.495L144.14,49.432L144.91,49.473L145.69,49.482L146.47,49.423L147.24,49.473L148.02,49.504L148.8,49.434L149.57,49.42L150.35,49.478L151.13,49.489L151.9,49.449L152.68,49.486L153.45,49.434L154.23,49.462L155.01,49.441L155.78,49.51L156.56,49.489L157.34,49.479L158.11,49.41L158.89,49.522L159.67,49.488L160.44,49.469L161.22,49.483L162,49.513L162.77,49.53L163.55,49.528L164.33,49.43L165.1,49.457L165.88,49.506L166.65,49.419L167.43,49.443L168.21,49.458L168.98,49.459L169.76,49.417L170.54,49.506L171.31,49.464L172.09,49.454L172.87,49.462L173.64,49.49L174.42,49.494L175.2,49.536L175.97,49.486L176.75,49.506L177.53,49.525L178.3,49.471L179.08,49.464L179.86,49.462L180.63,49.4L181.41,49.495L182.18,49.49L182.96,49.353L183.74,49.488L184.51,49.464L185.29,49.458L186.07,49.453L186.84,49.543L187.62,49.485L188.4,49.474L189.17,49.471L189.95,49.44L190.73,49.488L191.5,49.458L192.28,49.465L193.06,49.48L193.83,49.453L194.61,49.497L195.38,49.463L196.16,49.439L196.94,49.515L197.71,49.468L198.49,49.474L199.27,49.473L200.04,49.451L200.82,49.418L201.6,49.473L202.37,49.417L203.15,49.451L203.93,49.44L204.7,49.441L205.48,49.494L206.26,49.48L207.03,49.501L207.81,49.513L208.58,49.45L209.36,49.427L210.14,49.452L210.91,49.417L211.69,49.483L212.47,49.4L213.24,49.501L214.02,49.426L214.8,49.412L215.57,49.429L216.35,49.498L217.13,49.497L217.9,49.447L218.68,49.424L219.46,49.494L220.23,49.473L221.01,49.459L221.79,49.438L222.56,49.472L223.34,49.537L224.11,49.464L224.89,49.479L225.67,49.466L226.44,49.411L227.22,49.466L228,49.496L228.77,49.408L229.55,49.514L230.33,49.502L231.1,49.494L231.88,49.442L232.66,49.505L233.43,49.456L234.21,49.418L234.99,49.471L235.76,49.424L236.54,49.45L237.31,49.278L238.09,49.453L238.87,49.484L239.64,49.513L240.42,49.458L241.2,49.424L241.97,49.479L242.75,49.515L243.53,49.471L244.3,49.412L245.08,49.413L245.86,49.463L246.63,49.46L247.41,49.436L248.19,49.476L248.96,49.464L249.74,49.519L250.51,49.273L251.29,49.244L252.07,49.204L252.84,48.95L253.62,48.775L254.4,48.465L255.17,48.676L255.95,48.592L256.73,48.893L257.5,48.666L258.28,49.194L259.06,49.17L259.83,49.129L260.61,49.04L261.39,49.042L262.16,49.41L262.94,49.316L263.72,49.448L264.49,49.504L265.27,49.485L266.04,49.44L266.82,49.432L267.6,49.486L268.37,49.495L269.15,49.462L269.93,49.515L270.7,49.461L271.48,49.506L272.26,49.508L273.03,49.484L273.81,49.505L274.59,49.433L275.36,49.425L276.14,49.472L276.92,49.503L277.69,49.491L278.47,49.466L279.24,49.546L280.02,49.442L280.8,49.431L281.57,49.444L282.35,49.443L283.13,49.499L283.9,49.481L284.68,49.454L285.46,49.47L286.23,49.499L287.01,49.451L287.79,49.471L288.56,49.502L289.34,49.497L290.12,49.474L290.89,49.355L291.67,49.415L292.44,49.525L293.22,49.448L294,49.46L294.77,49.446L295.55,49.486L296.33,49.449L297.1,49.539L297.88,49.526L298.66,49.472L299.43,49.4L300.21,49.438L300.99,49.43L301.76,49.438L302.54,49.468L303.32,49.46L304.09,49.443L304.87,49.459L305.65,49.447L306.42,49.459L307.2,49.475L307.97,49.5L308.75,49.421L309.53,49.488L310.3,49.426L311.08,49.509L311.86,49.446L312.63,49.477L313.41,49.481L314.19,49.472L314.96,49.432L315.74,49.44L316.52,49.438L317.29,49.478L318.07,49.42L318.85,49.472L319.62,49.453L320.4,49.474L321.17,49.484L321.95,49.444L322.73,49.538L323.5,49.549L324.28,49.443L325.06,49.479L325.83,49.542L326.61,49.421L327.39,49.497L328.16,49.409L328.94,49.438L329.72,49.449L330.49,49.414L331.27,49.462L332.05,49.482L332.82,49.464L333.6,49.509L334.37,49.494L335.15,49.485L335.93,49.408L336.7,49.55L337.48,49.943L338.26,49.869L339.03,49.875L339.81,49.886L340.59,49.841L341.36,49.891L342.14,49.881L342.92,49.918L343.69,49.948L344.47,50.28L345.25,50.465L346.02,50.355L346.8,50.367L347.58,50.469L348.35,50.464L349.13,50.403L349.9,50.441L350.68,50.463L351.46,50.814L352.23,51.147L353.01,51.129L353.79,51.096L354.56,51.026L355.34,51.119L356.12,51.079L356.89,51.086L357.67,51.137L358.45,51.111L359.22,51.95L360,51.919L360.78,51.947L361.55,51.982L362.33,51.778L363.1,51.992L363.88,51.912L364.66,51.977L365.43,51.939L366.21,52.191L366.99,52.385L367.76,52.431L368.54,52.315L369.32,52.339L370.09,52.342L370.87,52.28L371.65,52.325L372.42,52.447L373.2,52.557L373.98,53.162L374.75,53.061L375.53,53.158L376.3,53.178L377.08,53.219L377.86,52.971L378.63,53.123L379.41,53.117L380.19,53.13L380.96,52.968L381.74,53.154L382.52,53.103L383.29,53.186L384.07,53.127L384.85,53.129L385.62,53.221L386.4,53.242L387.18,53.083L387.95,53.15L388.73,53.15L389.51,53.122L390.28,53.11L391.06,53.232L391.83,53.177L392.61,53.157L393.39,53.101L394.16,53.067L394.94,53.768L395.72,55.16L396.49,55.003L397.27,55.18L398.05,55.061L398.82,55.015L399.6,55.321L400.38,55.03L401.15,57.544L401.31,277.93" style="fill:none;stroke:#F15A60" />
<path d="M405.2,275.78L425.2,275.78" style="fill:none;stroke:#F15A60" />
<text x="313.58" y="-273.29" transform="scale(1, -1)"
	style="font-family:Liberation Serif;font-variant:normal;font-weight:normal;font-style:normal;font-size:12px">random-read-filter</text>
</g>
</svg>
