<?xml version="1.0"?>
<!-- Generated by SVGo and Plotinum VG -->
<svg width="425.2pt" height="283.46pt" viewBox="0 0 425.2 283.46"
	xmlns="http://www.w3.org/2000/svg"
	xmlns:xlink="http://www.w3.org/1999/xlink">
<g transform="scale(1, -1) translate(0, -283.46)">
<path d="M0,0L425.2,0L425.2,283.46L0,283.46Z" style="fill:#FFFFFF" />
<text x="207.46" y="-3.9023" transform="scale(1, -1)"
	style="font-family:Liberation Serif;font-variant:normal;font-weight:normal;font-style:normal;font-size:12px">database size</text>
<text x="60.689" y="-16.541" transform="scale(1, -1)"
	style="font-family:Liberation Serif;font-variant:normal;font-weight:normal;font-style:normal;font-size:10px">4.00 mb</text>
<text x="137.09" y="-16.541" transform="scale(1, -1)"
	style="font-family:Liberation Serif;font-variant:normal;font-weight:normal;font-style:normal;font-size:10px">260.00 mb</text>
<text x="218.5" y="-16.541" transform="scale(1, -1)"
	style="font-family:Liberation Serif;font-variant:normal;font-weight:normal;font-style:normal;font-size:10px">516.00 mb</text>
<text x="299.9" y="-16.541" transform="scale(1, -1)"
	style="font-family:Liberation Serif;font-variant:normal;font-weight:normal;font-style:normal;font-size:10px">772.00 mb</text>
<text x="377.42" y="-16.541" transform="scale(1, -1)"
	style="font-family:Liberation Serif;font-variant:normal;font-weight:normal;font-style:normal;font-size:10px">1023.64 mb</text>
<path d="M77.078,24.363L77.078,32.363" style="fill:none;stroke:#000000;stroke-width:0.5" />
<path d="M158.48,24.363L158.48,32.363" style="fill:none;stroke:#000000;stroke-width:0.5" />
<path d="M239.89,24.363L239.89,32.363" style="fill:none;stroke:#000000;stroke-width:0.5" />
<path d="M321.29,24.363L321.29,32.363" style="fill:none;stroke:#000000;stroke-width:0.5" />
<path d="M401.31,24.363L401.31,32.363" style="fill:none;stroke:#000000;stroke-width:0.5" />
<path d="M76.583,32.363L401.31,32.363" style="fill:none;stroke:#000000;stroke-width:0.5" />
<g transform="rotate(90)">
<text x="145.41" y="9.3867" transform="scale(1, -1)"
	style="font-family:Liberation Serif;font-variant:normal;font-weight:normal;font-style:normal;font-size:12px">speed</text>
</g>
<text x="20.885" y="-37.929" transform="scale(1, -1)"
	style="font-family:Liberation Serif;font-variant:normal;font-weight:normal;font-style:normal;font-size:10px">0.03 mb/s</text>
<text x="15.885" y="-115.55" transform="scale(1, -1)"
	style="font-family:Liberation Serif;font-variant:normal;font-weight:normal;font-style:normal;font-size:10px">32.03 mb/s</text>
<text x="15.885" y="-193.18" transform="scale(1, -1)"
	style="font-family:Liberation Serif;font-variant:normal;font-weight:normal;font-style:normal;font-size:10px">64.03 mb/s</text>
<text x="15.885" y="-270.81" transform="scale(1, -1)"
	style="font-family:Liberation Serif;font-variant:normal;font-weight:normal;font-style:normal;font-size:10px">96.03 mb/s</text>
<text x="15.885" y="-275.64" transform="scale(1, -1)"
	style="font-family:Liberation Serif;font-variant:normal;font-weight:normal;font-style:normal;font-size:10px">98.03 mb/s</text>
<path d="M62.833,40.214L70.833,40.214" style="fill:none;stroke:#000000;stroke-width:0.5" />
<path d="M62.833,117.84L70.833,117.84" style="fill:none;stroke:#000000;stroke-width:0.5" />
<path d="M62.833,195.46L70.833,195.46" style="fill:none;stroke:#000000;stroke-width:0.5" />
<path d="M62.833,273.09L70.833,273.09" style="fill:none;stroke:#000000;stroke-width:0.5" />
<path d="M62.833,277.93L70.833,277.93" style="fill:none;stroke:#000000;stroke-width:0.5" />
<path d="M70.833,40.209L70.833,277.93" style="fill:none;stroke:#000000;stroke-width:0.5" />
<path d="M76.583,40.209L77.359,45.889L78.136,46.021L78.912,46.419L79.689,46.507L80.465,46.588L81.242,46.636L82.018,46.997L82.795,47.632L83.571,48.228L84.348,48.626L85.124,49.589L85.901,51.633L86.677,51.806L87.454,51.571L88.23,51.657L89.007,52.469L89.783,52.39L90.56,51.884L91.336,51.882L92.113,51.7L92.889,51.876L93.666,52.635L94.442,52.221L95.219,51.948L95.995,51.626L96.772,51.627L97.548,51.895L98.324,52.121L99.101,52.268L99.877,51.889L100.65,51.882L101.43,52.102L102.21,51.9L102.98,52.268L103.76,51.507L104.54,51.718L105.31,51.884L106.09,51.9L106.87,52.966L107.64,51.805L108.42,52.26L109.2,52.491L109.97,52.292L110.75,52.061L111.52,52.196L112.3,52.092L113.08,52.373L113.85,52.428L114.63,52.014L115.41,52.004L116.18,52.885L116.96,51.675L117.74,52.016L118.51,52.535L119.29,51.999L120.07,52.203L120.84,52.014L121.62,52.265L122.4,52.505L123.17,52.181L123.95,51.961L124.72,51.893L125.5,52.019L126.28,52.926L127.05,52.207L127.83,52.142L128.61,52.002L129.38,52.354L130.16,52.049L130.94,52.353L131.71,52.146L132.49,51.908L133.27,51.903L134.04,51.993L134.82,51.988L135.6,52.331L136.37,52.002L137.15,51.811L137.93,52.03L138.7,52.12L139.48,52.247L140.25,52.357L141.03,52.193L141.81,51.995L142.58,52.093L143.36,52.353L144.14,51.93L144.91,52.268L145.69,52.279L146.47,52.139L147.24,52.394L148.02,52.633L148.8,52.1L149.57,52.433L150.35,52.04L151.13,51.97L151.9,52.249L152.68,52.223L153.45,51.66L154.23,52.561L155.01,53.005L155.78,52.356L156.56,52.399L157.34,51.955L158.11,51.824L158.89,51.75L159.67,52.116L160.44,52.792L161.22,52.311L162,52.109L162.77,52.091L163.55,51.718L164.33,52.198L165.1,52.433L165.88,52L166.65,52.078L167.43,51.946L168.21,52.264L168.98,53.012L169.76,51.887L170.54,52.398L171.31,52.946L172.09,52.777L172.87,52.135L173.64,52.235L174.42,52.564L175.2,52.755L175.97,51.876L176.75,52.235L177.53,52.228L178.3,52.317L179.08,52.731L179.86,52.554L180.63,52.025L181.41,52.182L182.18,52.453L182.96,52.13L183.74,52.49L184.51,52.413L185.29,52.209L186.07,52.314L186.84,52.94L187.62,52.769L188.4,52.218L189.17,52.261L189.95,52.991L190.73,51.809L191.5,52.918L192.28,52.035L193.06,52.043L193.83,52.061L194.61,52.402L195.38,52.122L196.16,52.722L196.94,52.093L197.71,52.164L198.49,52.304L199.27,52.648L200.04,52.099L200.82,52.697L201.6,52.348L202.37,52.475L203.15,52.424L203.93,52.595L204.7,52.486L205.48,52.511L206.26,52.203L207.03,52.975L207.81,52.029L208.58,52.904L209.36,52.407L210.14,52.178L210.91,52.426L211.69,52.394L212.47,52.531L213.24,52.501L214.02,52.872L214.8,52.594L215.57,52.677L216.35,52.536L217.13,52.756L217.9,52.389L218.68,52.358L219.46,52.642L220.23,52.522L221.01,52.969L221.79,52.012L222.56,52.483L223.34,52.902L224.11,52.413L224.89,52.687L225.67,52.673L226.44,52.522L227.22,52.992L228,52.803L228.77,53.309L229.55,52.89L230.33,52.793L231.1,53.268L231.88,53.079L232.66,52.847L233.43,52.866L234.21,53.671L234.99,53.231L235.76,53.111L236.54,53.378L237.31,53.655L238.09,53.329L238.87,53.209L239.64,53.061L240.42,53.304L241.2,53.111L241.97,53.523L242.75,52.883L243.53,53.074L244.3,53.498L245.08,53.336L245.86,52.954L246.63,53.047L247.41,53.454L248.19,53.502L248.96,52.914L249.74,53.134L250.51,53.566L251.29,53.153L252.07,53.209L252.84,52.985L253.62,53.47L254.4,53.286L255.17,52.782L255.95,53.152L256.73,53.233L257.5,53.447L258.28,53.14L259.06,52.935L259.83,53.297L260.61,53.554L261.39,52.804L262.16,52.908L262.94,53.293L263.72,53.314L264.49,54.05L265.27,52.972L266.04,53.29L266.82,53.328L267.6,52.878L268.37,53.078L269.15,53.129L269.93,53.908L270.7,53.517L271.48,52.99L272.26,53.948L273.03,53.34L273.81,52.944L274.59,53.126L275.36,53.934L276.14,53.446L276.92,53.076L277.69,53.225L278.47,53.51L279.24,53.128L280.02,53.146L280.8,53.446L281.57,53.636L282.35,53.833L283.13,53.246L283.9,53.638L284.68,53.649L285.46,53.75L286.23,53.394L287.01,53.483L287.79,53.731L288.56,53.476L289.34,53.338L290.12,53.621L290.89,54.257L291.67,53.452L292.44,53.554L293.22,54.003L294,53.607L294.77,53.561L295.55,53.305L296.33,54.479L297.1,53.354L297.88,53.507L298.66,54.164L299.43,53.865L300.21,53.401L300.99,53.637L301.76,54.297L302.54,53.921L303.32,53.476L304.09,53.615L304.87,53.687L305.65,53.895L306.42,54.508L307.2,53.684L307.97,53.832L308.75,54.069L309.53,54.071L310.3,54.506L311.08,54.611L311.86,55.096L312.63,53.82L313.41,54.368L314.19,54.717L314.96,54.346L315.74,54.885L316.52,54.461L317.29,54.666L318.07,54.847L318.85,55.507L319.62,54.445L320.4,55.586L321.17,54.632L321.95,54.42L322.73,55.647L323.5,54.45L324.28,55.32L325.06,55.054L325.83,54.834L326.61,54.947L327.39,55.611L328.16,54.933L328.94,55.071L329.72,56.043L330.49,54.749L331.27,55.141L332.05,55.633L332.82,54.595L333.6,55.928L334.37,55.581L335.15,55.411L335.93,56.564L336.7,55.298L337.48,55.409L338.26,56.32L339.03,55.618L339.81,56.087L340.59,55.26L341.36,55.681L342.14,57.051L342.92,55.831L343.69,55.844L344.47,57.192L345.25,56.144L346.02,56.728L346.8,56.502L347.58,55.739L348.35,57.047L349.13,56.05L349.9,57.042L350.68,56.9L351.46,56.608L352.23,57.533L353.01,56.554L353.79,57.085L354.56,57.311L355.34,57.585L356.12,57.399L356.89,56.259L357.67,58.198L358.45,56.944L359.22,58.742L360,57.826L360.78,58.01L361.55,57.939L362.33,57.633L363.1,57.077L363.88,57.956L364.66,60.072L365.43,60.705L366.21,61.662L366.99,61.013L367.76,61.171L368.54,60.45L369.32,61.016L370.09,61.453L370.87,61.006L371.65,61.065L372.42,60.688L373.2,60.966L373.98,61.281L374.75,62.411L375.53,62.299L376.3,62.834L377.08,62.797L377.86,62.962L378.63,62.656L379.41,62.67L380.19,62.401L380.96,62.287L381.74,62.252L382.52,63.679L383.29,64.19L384.07,64.492L384.85,64.058L385.62,63.9L386.4,63.47L387.18,63.065L387.95,64.403L388.73,64.426L389.51,64.086L390.28,64.516L391.06,64.158L391.83,65.477L392.61,65.072L393.39,65.37L394.16,65.507L394.94,64.96L395.72,65.607L396.49,65.595L397.27,65.386L398.05,66.029L398.82,74.185L399.6,78.613L400.38,83.881L401.15,115.5L401.31,277.93" style="fill:none;stroke:#F15A60" />
<path d="M405.2,275.78L425.2,275.78" style="fill:none;stroke:#F15A60" />
<text x="266.94" y="-273.29" transform="scale(1, -1)"
	style="font-family:Liberation Serif;font-variant:normal;font-weight:normal;font-style:normal;font-size:12px">random-read-bigcache-filter</text>
</g>
</svg>
