<?xml version="1.0"?>
<!-- Generated by SVGo and Plotinum VG -->
<svg width="425.2pt" height="283.46pt" viewBox="0 0 425.2 283.46"
	xmlns="http://www.w3.org/2000/svg"
	xmlns:xlink="http://www.w3.org/1999/xlink">
<g transform="scale(1, -1) translate(0, -283.46)">
<path d="M0,0L425.2,0L425.2,283.46L0,283.46Z" style="fill:#FFFFFF" />
<text x="207.46" y="-3.9023" transform="scale(1, -1)"
	style="font-family:Liberation Serif;font-variant:normal;font-weight:normal;font-style:normal;font-size:12px">database size</text>
<text x="60.689" y="-16.541" transform="scale(1, -1)"
	style="font-family:Liberation Serif;font-variant:normal;font-weight:normal;font-style:normal;font-size:10px">4.00 mb</text>
<text x="137.09" y="-16.541" transform="scale(1, -1)"
	style="font-family:Liberation Serif;font-variant:normal;font-weight:normal;font-style:normal;font-size:10px">260.00 mb</text>
<text x="218.5" y="-16.541" transform="scale(1, -1)"
	style="font-family:Liberation Serif;font-variant:normal;font-weight:normal;font-style:normal;font-size:10px">516.00 mb</text>
<text x="299.9" y="-16.541" transform="scale(1, -1)"
	style="font-family:Liberation Serif;font-variant:normal;font-weight:normal;font-style:normal;font-size:10px">772.00 mb</text>
<text x="377.42" y="-16.541" transform="scale(1, -1)"
	style="font-family:Liberation Serif;font-variant:normal;font-weight:normal;font-style:normal;font-size:10px">1023.64 mb</text>
<path d="M77.078,24.363L77.078,32.363" style="fill:none;stroke:#000000;stroke-width:0.5" />
<path d="M158.48,24.363L158.48,32.363" style="fill:none;stroke:#000000;stroke-width:0.5" />
<path d="M239.89,24.363L239.89,32.363" style="fill:none;stroke:#000000;stroke-width:0.5" />
<path d="M321.29,24.363L321.29,32.363" style="fill:none;stroke:#000000;stroke-width:0.5" />
<path d="M401.31,24.363L401.31,32.363" style="fill:none;stroke:#000000;stroke-width:0.5" />
<path d="M76.583,32.363L401.31,32.363" style="fill:none;stroke:#000000;stroke-width:0.5" />
<g transform="rotate(90)">
<text x="145.41" y="9.3867" transform="scale(1, -1)"
	style="font-family:Liberation Serif;font-variant:normal;font-weight:normal;font-style:normal;font-size:12px">speed</text>
</g>
<text x="20.885" y="-37.925" transform="scale(1, -1)"
	style="font-family:Liberation Serif;font-variant:normal;font-weight:normal;font-style:normal;font-size:10px">0.03 mb/s</text>
<text x="15.885" y="-114.12" transform="scale(1, -1)"
	style="font-family:Liberation Serif;font-variant:normal;font-weight:normal;font-style:normal;font-size:10px">32.03 mb/s</text>
<text x="15.885" y="-190.32" transform="scale(1, -1)"
	style="font-family:Liberation Serif;font-variant:normal;font-weight:normal;font-style:normal;font-size:10px">64.03 mb/s</text>
<text x="15.885" y="-266.52" transform="scale(1, -1)"
	style="font-family:Liberation Serif;font-variant:normal;font-weight:normal;font-style:normal;font-size:10px">96.03 mb/s</text>
<text x="15.885" y="-275.64" transform="scale(1, -1)"
	style="font-family:Liberation Serif;font-variant:normal;font-weight:normal;font-style:normal;font-size:10px">99.86 mb/s</text>
<path d="M62.833,40.211L70.833,40.211" style="fill:none;stroke:#000000;stroke-width:0.5" />
<path d="M62.833,116.41L70.833,116.41" style="fill:none;stroke:#000000;stroke-width:0.5" />
<path d="M62.833,192.61L70.833,192.61" style="fill:none;stroke:#000000;stroke-width:0.5" />
<path d="M62.833,268.81L70.833,268.81" style="fill:none;stroke:#000000;stroke-width:0.5" />
<path d="M62.833,277.93L70.833,277.93" style="fill:none;stroke:#000000;stroke-width:0.5" />
<path d="M70.833,40.209L70.833,277.93" style="fill:none;stroke:#000000;stroke-width:0.5" />
<path d="M76.583,40.209L77.359,44.713L78.136,45.263L78.912,47.946L79.689,48.466L80.465,49.114L81.242,49.932L82.018,50.127L82.795,50.172L83.571,50.255L84.348,50.166L85.124,49.961L85.901,50.566L86.677,50.576L87.454,51.988L88.23,54.119L89.007,53.848L89.783,53.78L90.56,53.672L91.336,53.625L92.113,53.7L92.889,53.896L93.666,54.09L94.442,54.103L95.219,53.999L95.995,54.15L96.772,53.898L97.548,54.16L98.324,54.225L99.101,54.047L99.877,54.042L100.65,54.006L101.43,53.931L102.21,53.944L102.98,53.928L103.76,53.858L104.54,53.598L105.31,53.772L106.09,53.926L106.87,53.937L107.64,54.129L108.42,54.21L109.2,54.11L109.97,54.256L110.75,54.292L111.52,54.06L112.3,54.133L113.08,53.901L113.85,53.946L114.63,53.9L115.41,53.795L116.18,53.99L116.96,53.831L117.74,53.85L118.51,53.935L119.29,53.865L120.07,54.279L120.84,53.974L121.62,53.86L122.4,53.955L123.17,53.91L123.95,53.873L124.72,53.886L125.5,54.026L126.28,54.105L127.05,53.991L127.83,53.934L128.61,53.845L129.38,53.948L130.16,54.163L130.94,54.228L131.71,53.904L132.49,53.801L133.27,54.146L134.04,54.01L134.82,54.019L135.6,53.868L136.37,53.835L137.15,53.86L137.93,54.154L138.7,54.332L139.48,54.198L140.25,54.151L141.03,54.213L141.81,54.08L142.58,54.069L143.36,53.91L144.14,54.178L144.91,54.282L145.69,54.15L146.47,54.067L147.24,54.057L148.02,53.89L148.8,54.182L149.57,54.272L150.35,53.852L151.13,53.795L151.9,53.899L152.68,53.98L153.45,54.068L154.23,53.854L155.01,53.898L155.78,53.991L156.56,54.223L157.34,54.373L158.11,54.078L158.89,54.296L159.67,54.354L160.44,54.233L161.22,54.298L162,54.209L162.77,54.085L163.55,54.153L164.33,54.067L165.1,54.263L165.88,54.115L166.65,53.922L167.43,53.999L168.21,54.012L168.98,53.905L169.76,54.325L170.54,53.675L171.31,53.976L172.09,53.741L172.87,54.007L173.64,54.013L174.42,54.104L175.2,54.249L175.97,54.365L176.75,54.022L177.53,54.048L178.3,54.065L179.08,54.021L179.86,54.02L180.63,54.297L181.41,54.456L182.18,54.466L182.96,54.32L183.74,54.372L184.51,54.232L185.29,53.947L186.07,54.018L186.84,54.049L187.62,54.491L188.4,54.478L189.17,54.064L189.95,54.104L190.73,54.231L191.5,54.21L192.28,54.185L193.06,54.165L193.83,54.237L194.61,54.132L195.38,54.264L196.16,54.007L196.94,54.415L197.71,54.575L198.49,54.475L199.27,54.549L200.04,54.605L200.82,54.605L201.6,54.633L202.37,54.633L203.15,54.583L203.93,54.582L204.7,54.49L205.48,54.31L206.26,54.246L207.03,54.218L207.81,54.589L208.58,54.622L209.36,54.539L210.14,54.738L210.91,54.723L211.69,54.689L212.47,54.614L213.24,54.455L214.02,54.761L214.8,54.816L215.57,54.493L216.35,54.715L217.13,54.592L217.9,54.64L218.68,54.782L219.46,54.528L220.23,54.641L221.01,54.529L221.79,54.635L222.56,54.773L223.34,54.576L224.11,54.643L224.89,54.716L225.67,54.48L226.44,54.726L227.22,54.566L228,54.822L228.77,55.035L229.55,55.189L230.33,55.406L231.1,55.278L231.88,54.877L232.66,55.011L233.43,54.97L234.21,55.138L234.99,55.148L235.76,55.053L236.54,55.217L237.31,55.051L238.09,55.234L238.87,55.294L239.64,55.067L240.42,55.14L241.2,55.095L241.97,55.176L242.75,55.42L243.53,55.266L244.3,55.133L245.08,55.034L245.86,55.011L246.63,55.515L247.41,55.46L248.19,55.031L248.96,55.025L249.74,54.929L250.51,55.087L251.29,54.943L252.07,54.927L252.84,55.001L253.62,55.011L254.4,55.086L255.17,55.126L255.95,55.076L256.73,55.177L257.5,55.158L258.28,54.949L259.06,54.97L259.83,54.989L260.61,55.112L261.39,55.033L262.16,55.057L262.94,55.247L263.72,55.207L264.49,55.221L265.27,55.139L266.04,55.128L266.82,55.216L267.6,55.185L268.37,55.166L269.15,55.149L269.93,55.185L270.7,55.423L271.48,55.463L272.26,55.338L273.03,55.386L273.81,55.485L274.59,55.458L275.36,55.549L276.14,55.546L276.92,55.086L277.69,55.169L278.47,55.186L279.24,55.569L280.02,55.535L280.8,55.371L281.57,55.407L282.35,55.283L283.13,55.659L283.9,55.689L284.68,55.653L285.46,55.798L286.23,55.579L287.01,54.626L287.79,55.306L288.56,55.369L289.34,55.751L290.12,55.754L290.89,55.79L291.67,55.999L292.44,55.841L293.22,55.758L294,56.045L294.77,55.679L295.55,55.609L296.33,55.579L297.1,55.896L297.88,56.362L298.66,56.218L299.43,56.016L300.21,56.26L300.99,56.133L301.76,56.328L302.54,56.301L303.32,56.236L304.09,56.312L304.87,56.114L305.65,56.363L306.42,56.4L307.2,56.237L307.97,56.252L308.75,56.427L309.53,56.044L310.3,56.139L311.08,55.993L311.86,56.148L312.63,56.655L313.41,56.449L314.19,56.899L314.96,57.026L315.74,56.897L316.52,57.004L317.29,56.797L318.07,56.483L318.85,56.45L319.62,56.474L320.4,56.473L321.17,56.539L321.95,57.185L322.73,57.173L323.5,57.093L324.28,57.043L325.06,56.963L325.83,56.882L326.61,57.243L327.39,57.035L328.16,57.251L328.94,57.468L329.72,57.425L330.49,57.417L331.27,57.667L332.05,57.813L332.82,57.519L333.6,57.642L334.37,57.717L335.15,57.703L335.93,56.54L336.7,55.838L337.48,56.221L338.26,55.34L339.03,56.05L339.81,55.372L340.59,56.179L341.36,55.577L342.14,55.81L342.92,56.027L343.69,55.444L344.47,55.581L345.25,56.062L346.02,55.529L346.8,56.596L347.58,55.888L348.35,56.552L349.13,56.465L349.9,56.17L350.68,56.876L351.46,56.273L352.23,56.489L353.01,56.805L353.79,56.397L354.56,57.996L355.34,56.625L356.12,57.854L356.89,57.11L357.67,57.298L358.45,56.992L359.22,56.682L360,58.005L360.78,56.368L361.55,56.732L362.33,59.354L363.1,60.547L363.88,60.735L364.66,60.689L365.43,60.613L366.21,59.974L366.99,60.179L367.76,60.619L368.54,60.397L369.32,60.613L370.09,60.937L370.87,61.809L371.65,62.222L372.42,62.033L373.2,62.212L373.98,61.968L374.75,61.814L375.53,62.123L376.3,62.076L377.08,61.518L377.86,61.716L378.63,62.404L379.41,63.137L380.19,63.644L380.96,63.435L381.74,63.403L382.52,63.214L383.29,63.295L384.07,63.057L384.85,63.146L385.62,63.567L386.4,63.787L387.18,64.22L387.95,64.752L388.73,64.376L389.51,64.816L390.28,64.973L391.06,63.74L391.83,64.236L392.61,64.307L393.39,64.718L394.16,64.474L394.94,67.55L395.72,69.448L396.49,69.837L397.27,69.393L398.05,69.647L398.82,68.83L399.6,68.957L400.38,73.32L401.15,118.12L401.31,277.93" style="fill:none;stroke:#F15A60" />
<path d="M405.2,275.78L425.2,275.78" style="fill:none;stroke:#F15A60" />
<text x="294.26" y="-273.29" transform="scale(1, -1)"
	style="font-family:Liberation Serif;font-variant:normal;font-weight:normal;font-style:normal;font-size:12px">random-read-bigcache</text>
</g>
</svg>
