<?xml version="1.0"?>
<!-- Generated by SVGo and Plotinum VG -->
<svg width="425.2pt" height="283.46pt" viewBox="0 0 425.2 283.46"
	xmlns="http://www.w3.org/2000/svg"
	xmlns:xlink="http://www.w3.org/1999/xlink">
<g transform="scale(1, -1) translate(0, -283.46)">
<path d="M0,0L425.2,0L425.2,283.46L0,283.46Z" style="fill:#FFFFFF" />
<text x="207.23" y="-3.8613" transform="scale(1, -1)"
	style="font-family:Times;font-weight:normal;font-style:normal;font-size:12px">database size</text>
<text x="60.221" y="-15.602" transform="scale(1, -1)"
	style="font-family:Times;font-weight:normal;font-style:normal;font-size:10px">4.00 mb</text>
<text x="136.74" y="-15.602" transform="scale(1, -1)"
	style="font-family:Times;font-weight:normal;font-style:normal;font-size:10px">260.00 mb</text>
<text x="218.26" y="-15.602" transform="scale(1, -1)"
	style="font-family:Times;font-weight:normal;font-style:normal;font-size:10px">516.00 mb</text>
<text x="299.79" y="-15.602" transform="scale(1, -1)"
	style="font-family:Times;font-weight:normal;font-style:normal;font-size:10px">772.00 mb</text>
<text x="377.42" y="-15.602" transform="scale(1, -1)"
	style="font-family:Times;font-weight:normal;font-style:normal;font-size:10px">1023.64 mb</text>
<path d="M76.61,25.23L76.61,33.23" style="fill:none;stroke:#000000;stroke-width:0.5" />
<path d="M158.13,25.23L158.13,33.23" style="fill:none;stroke:#000000;stroke-width:0.5" />
<path d="M239.65,25.23L239.65,33.23" style="fill:none;stroke:#000000;stroke-width:0.5" />
<path d="M321.18,25.23L321.18,33.23" style="fill:none;stroke:#000000;stroke-width:0.5" />
<path d="M401.31,25.23L401.31,33.23" style="fill:none;stroke:#000000;stroke-width:0.5" />
<path d="M76.114,33.23L401.31,33.23" style="fill:none;stroke:#000000;stroke-width:0.5" />
<g transform="rotate(90)">
<text x="144.86" y="11.555" transform="scale(1, -1)"
	style="font-family:Times;font-weight:normal;font-style:normal;font-size:12px">speed</text>
</g>
<text x="20.416" y="-33.762" transform="scale(1, -1)"
	style="font-family:Times;font-weight:normal;font-style:normal;font-size:10px">0.03 mb/s</text>
<text x="15.416" y="-113.76" transform="scale(1, -1)"
	style="font-family:Times;font-weight:normal;font-style:normal;font-size:10px">32.03 mb/s</text>
<text x="15.416" y="-193.75" transform="scale(1, -1)"
	style="font-family:Times;font-weight:normal;font-style:normal;font-size:10px">64.03 mb/s</text>
<text x="15.416" y="-273.75" transform="scale(1, -1)"
	style="font-family:Times;font-weight:normal;font-style:normal;font-size:10px">96.03 mb/s</text>
<text x="15.416" y="-273.84" transform="scale(1, -1)"
	style="font-family:Times;font-weight:normal;font-style:normal;font-size:10px">96.07 mb/s</text>
<path d="M62.364,38.483L70.364,38.483" style="fill:none;stroke:#000000;stroke-width:0.5" />
<path d="M62.364,118.48L70.364,118.48" style="fill:none;stroke:#000000;stroke-width:0.5" />
<path d="M62.364,198.47L70.364,198.47" style="fill:none;stroke:#000000;stroke-width:0.5" />
<path d="M62.364,278.47L70.364,278.47" style="fill:none;stroke:#000000;stroke-width:0.5" />
<path d="M62.364,278.56L70.364,278.56" style="fill:none;stroke:#000000;stroke-width:0.5" />
<path d="M70.364,38.48L70.364,278.56" style="fill:none;stroke:#000000;stroke-width:0.5" />
<path d="M76.114,38.48L76.892,42.55L77.669,42.662L78.447,42.698L79.225,43.266L80.002,45.727L80.78,45.906L81.557,46.052L82.335,46.246L83.113,48.687L83.89,48.786L84.668,48.748L85.445,48.815L86.223,48.502L87.001,48.639L87.778,48.799L88.556,48.685L89.334,48.704L90.111,48.644L90.889,48.66L91.666,48.67L92.444,48.706L93.222,48.615L93.999,48.506L94.777,48.664L95.554,48.693L96.332,48.703L97.11,48.823L97.887,48.803L98.665,48.666L99.442,48.735L100.22,48.603L101,48.857L101.78,48.733L102.55,48.778L103.33,48.509L104.11,48.659L104.89,48.868L105.66,48.707L106.44,48.632L107.22,48.601L108,48.631L108.77,48.594L109.55,48.835L110.33,48.722L111.11,48.674L111.88,48.582L112.66,48.583L113.44,48.545L114.22,48.797L114.99,48.659L115.77,48.527L116.55,48.663L117.33,48.651L118.1,48.735L118.88,48.642L119.66,48.8L120.44,48.578L121.22,48.674L121.99,48.799L122.77,48.634L123.55,48.665L124.33,48.67L125.1,48.804L125.88,48.799L126.66,48.67L127.44,48.709L128.21,48.798L128.99,48.766L129.77,48.82L130.55,48.787L131.32,48.671L132.1,48.717L132.88,48.849L133.66,48.652L134.43,48.691L135.21,48.705L135.99,48.66L136.77,48.84L137.54,48.854L138.32,48.534L139.1,48.675L139.88,48.647L140.66,48.739L141.43,48.756L142.21,48.716L142.99,48.779L143.77,48.669L144.54,48.724L145.32,48.69L146.1,48.818L146.88,48.698L147.65,48.729L148.43,48.749L149.21,48.681L149.99,48.771L150.76,48.795L151.54,48.796L152.32,48.618L153.1,48.664L153.87,48.686L154.65,48.554L155.43,48.637L156.21,48.733L156.98,48.832L157.76,48.885L158.54,48.751L159.32,48.832L160.1,48.81L160.87,48.856L161.65,48.722L162.43,48.661L163.21,48.863L163.98,48.676L164.76,48.562L165.54,48.793L166.32,48.746L167.09,48.717L167.87,48.626L168.65,48.655L169.43,48.852L170.2,48.692L170.98,48.738L171.76,48.853L172.54,48.72L173.31,48.801L174.09,48.907L174.87,48.838L175.65,48.847L176.43,48.792L177.2,48.7L177.98,48.591L178.76,48.651L179.54,48.813L180.31,49.02L181.09,48.875L181.87,48.884L182.65,48.587L183.42,48.679L184.2,48.869L184.98,48.965L185.76,48.952L186.53,48.999L187.31,48.986L188.09,49.008L188.87,48.959L189.64,48.732L190.42,48.643L191.2,48.22L191.98,48.601L192.75,48.785L193.53,49.052L194.31,48.955L195.09,48.932L195.87,48.823L196.64,48.729L197.42,48.758L198.2,48.238L198.98,48.296L199.75,48.738L200.53,48.856L201.31,48.847L202.09,48.855L202.86,48.912L203.64,48.95L204.42,48.759L205.2,48.735L205.97,49.016L206.75,48.831L207.53,48.987L208.31,48.883L209.08,48.971L209.86,48.898L210.64,48.904L211.42,49.052L212.19,48.693L212.97,48.994L213.75,49.11L214.53,49.016L215.31,49.255L216.08,49.335L216.86,49.141L217.64,49L218.42,49.13L219.19,49.049L219.97,49.163L220.75,49.33L221.53,49.148L222.3,49.137L223.08,49.166L223.86,49.348L224.64,49.45L225.41,49.298L226.19,49.196L226.97,49.342L227.75,49.297L228.52,49.333L229.3,49.404L230.08,49.036L230.86,49.076L231.63,49.065L232.41,49.047L233.19,49.204L233.97,49.342L234.75,49.303L235.52,49.179L236.3,49.262L237.08,49.352L237.86,49.268L238.63,49.164L239.41,49.214L240.19,49.31L240.97,49.438L241.74,49.581L242.52,49.605L243.3,49.631L244.08,49.532L244.85,49.638L245.63,49.337L246.41,49.596L247.19,49.395L247.96,49.31L248.74,49.217L249.52,49.259L250.3,49.312L251.07,49.244L251.85,49.292L252.63,49.559L253.41,49.418L254.19,49.305L254.96,49.393L255.74,49.329L256.52,49.355L257.3,49.309L258.07,49.281L258.85,49.407L259.63,49.404L260.41,49.187L261.18,49.657L261.96,49.601L262.74,49.586L263.52,49.541L264.29,49.512L265.07,49.562L265.85,49.58L266.63,49.552L267.4,49.583L268.18,49.531L268.96,49.765L269.74,49.681L270.51,49.632L271.29,49.697L272.07,49.642L272.85,49.652L273.63,49.399L274.4,49.453L275.18,49.563L275.96,49.71L276.74,49.633L277.51,49.618L278.29,49.659L279.07,49.72L279.85,49.812L280.62,49.922L281.4,49.963L282.18,49.555L282.96,49.681L283.73,49.834L284.51,49.753L285.29,49.848L286.07,50.005L286.84,49.996L287.62,49.774L288.4,49.987L289.18,49.74L289.95,49.835L290.73,49.958L291.51,49.934L292.29,49.732L293.07,49.997L293.84,50.176L294.62,50.052L295.4,50.099L296.18,50.038L296.95,49.924L297.73,50.143L298.51,50.003L299.29,50.087L300.06,50.296L300.84,50.228L301.62,50.275L302.4,50.371L303.17,49.933L303.95,50.086L304.73,50.259L305.51,50.308L306.28,50.185L307.06,50.098L307.84,50.253L308.62,50.549L309.4,50.513L310.17,50.501L310.95,50.623L311.73,50.514L312.51,50.414L313.28,50.643L314.06,50.649L314.84,50.512L315.62,50.414L316.39,50.884L317.17,51.199L317.95,51.25L318.73,51.227L319.5,51.024L320.28,51.153L321.06,51.005L321.84,51.009L322.61,51.083L323.39,51.01L324.17,51.181L324.95,51.235L325.72,51.456L326.5,51.626L327.28,51.4L328.06,51.244L328.84,51.536L329.61,51.39L330.39,51.388L331.17,51.379L331.95,51.423L332.72,51.88L333.5,51.971L334.28,51.955L335.06,52.017L335.83,52.007L336.61,51.809L337.39,51.585L338.17,51.573L338.94,51.852L339.72,51.712L340.5,52.128L341.28,52.727L342.05,52.612L342.83,52.732L343.61,52.767L344.39,52.939L345.16,52.755L345.94,52.658L346.72,52.809L347.5,52.524L348.28,52.587L349.05,53.338L349.83,53.404L350.61,53.432L351.39,53.446L352.16,53.353L352.94,53.101L353.72,53.109L354.5,53.359L355.27,53.46L356.05,53.541L356.83,53.326L357.61,53.925L358.38,53.918L359.16,54.159L359.94,54.071L360.72,54.128L361.49,53.993L362.27,54.356L363.05,54.238L363.83,54.234L364.6,54.023L365.38,54.732L366.16,55.405L366.94,55.018L367.72,55.129L368.49,54.998L369.27,54.969L370.05,55.216L370.83,54.814L371.6,55.06L372.38,55.157L373.16,55.059L373.94,56.081L374.71,56.036L375.49,56.118L376.27,56.257L377.05,56.437L377.82,56.16L378.6,56.058L379.38,56.019L380.16,56.173L380.93,56.414L381.71,57.404L382.49,57.569L383.27,57.602L384.04,57.605L384.82,57.814L385.6,57.625L386.38,57.734L387.16,57.733L387.93,57.822L388.71,58.23L389.49,58.743L390.27,59.559L391.04,59.5L391.82,59.332L392.6,59.425L393.38,59.574L394.15,60.021L394.93,59.465L395.71,59.295L396.49,59.764L397.26,59.893L398.04,65.396L398.82,67.583L399.6,67.156L400.37,70.107L401.15,98.849L401.31,278.56" style="fill:none;stroke:#F15A60" />
<path d="M405.2,277.58L425.2,277.58" style="fill:none;stroke:#F15A60" />
<text x="313.58" y="-271.91" transform="scale(1, -1)"
	style="font-family:Times;font-weight:normal;font-style:normal;font-size:12px">random-read-filter</text>
</g>
</svg>
