<?xml version="1.0"?>
<!-- Generated by SVGo and Plotinum VG -->
<svg width="425.2pt" height="283.46pt" viewBox="0 0 425.2 283.46"
	xmlns="http://www.w3.org/2000/svg"
	xmlns:xlink="http://www.w3.org/1999/xlink">
<g transform="scale(1, -1) translate(0, -283.46)">
<path d="M0,0L425.2,0L425.2,283.46L0,283.46Z" style="fill:#FFFFFF" />
<text x="207.23" y="-3.8613" transform="scale(1, -1)"
	style="font-family:Times;font-weight:normal;font-style:normal;font-size:12px">database size</text>
<text x="60.221" y="-15.602" transform="scale(1, -1)"
	style="font-family:Times;font-weight:normal;font-style:normal;font-size:10px">4.00 mb</text>
<text x="136.74" y="-15.602" transform="scale(1, -1)"
	style="font-family:Times;font-weight:normal;font-style:normal;font-size:10px">260.00 mb</text>
<text x="218.26" y="-15.602" transform="scale(1, -1)"
	style="font-family:Times;font-weight:normal;font-style:normal;font-size:10px">516.00 mb</text>
<text x="299.79" y="-15.602" transform="scale(1, -1)"
	style="font-family:Times;font-weight:normal;font-style:normal;font-size:10px">772.00 mb</text>
<text x="377.42" y="-15.602" transform="scale(1, -1)"
	style="font-family:Times;font-weight:normal;font-style:normal;font-size:10px">1023.64 mb</text>
<path d="M76.61,25.23L76.61,33.23" style="fill:none;stroke:#000000;stroke-width:0.5" />
<path d="M158.13,25.23L158.13,33.23" style="fill:none;stroke:#000000;stroke-width:0.5" />
<path d="M239.65,25.23L239.65,33.23" style="fill:none;stroke:#000000;stroke-width:0.5" />
<path d="M321.18,25.23L321.18,33.23" style="fill:none;stroke:#000000;stroke-width:0.5" />
<path d="M401.31,25.23L401.31,33.23" style="fill:none;stroke:#000000;stroke-width:0.5" />
<path d="M76.114,33.23L401.31,33.23" style="fill:none;stroke:#000000;stroke-width:0.5" />
<g transform="rotate(90)">
<text x="144.86" y="11.555" transform="scale(1, -1)"
	style="font-family:Times;font-weight:normal;font-style:normal;font-size:12px">speed</text>
</g>
<text x="20.416" y="-33.76" transform="scale(1, -1)"
	style="font-family:Times;font-weight:normal;font-style:normal;font-size:10px">0.00 mb/s</text>
<text x="20.416" y="-104.18" transform="scale(1, -1)"
	style="font-family:Times;font-weight:normal;font-style:normal;font-size:10px">8.00 mb/s</text>
<text x="15.416" y="-174.61" transform="scale(1, -1)"
	style="font-family:Times;font-weight:normal;font-style:normal;font-size:10px">16.00 mb/s</text>
<text x="15.416" y="-245.03" transform="scale(1, -1)"
	style="font-family:Times;font-weight:normal;font-style:normal;font-size:10px">24.00 mb/s</text>
<text x="15.416" y="-273.84" transform="scale(1, -1)"
	style="font-family:Times;font-weight:normal;font-style:normal;font-size:10px">27.27 mb/s</text>
<path d="M62.364,38.481L70.364,38.481" style="fill:none;stroke:#000000;stroke-width:0.5" />
<path d="M62.364,108.9L70.364,108.9" style="fill:none;stroke:#000000;stroke-width:0.5" />
<path d="M62.364,179.33L70.364,179.33" style="fill:none;stroke:#000000;stroke-width:0.5" />
<path d="M62.364,249.75L70.364,249.75" style="fill:none;stroke:#000000;stroke-width:0.5" />
<path d="M62.364,278.56L70.364,278.56" style="fill:none;stroke:#000000;stroke-width:0.5" />
<path d="M70.364,38.48L70.364,278.56" style="fill:none;stroke:#000000;stroke-width:0.5" />
<path d="M76.114,38.48L76.892,78.467L77.669,80.375L78.447,83.373L79.225,84.494L80.002,83.488L80.78,85.467L81.557,86.005L82.335,85.656L83.113,85.341L83.89,86.222L84.668,85.795L85.445,86.181L86.223,85.484L87.001,84.977L87.778,85.934L88.556,86.434L89.334,85.751L90.111,85.946L90.889,86.957L91.666,85.696L92.444,85.836L93.222,85.8L93.999,86.154L94.777,86.711L95.554,85.984L96.332,86.271L97.11,85.529L97.887,85.663L98.665,86.092L99.442,86.345L100.22,85.891L101,87.384L101.78,85.317L102.55,85.875L103.33,86.089L104.11,85.071L104.89,86.778L105.66,86.452L106.44,86.446L107.22,85.94L108,86.084L108.77,85.246L109.55,85.835L110.33,86.66L111.11,86.06L111.88,86.364L112.66,86.12L113.44,85.726L114.22,85.728L114.99,85.653L115.77,85.941L116.55,86.638L117.33,85.941L118.1,85.839L118.88,85.516L119.66,85.992L120.44,86.987L121.22,86.94L121.99,86.597L122.77,86.323L123.55,86.631L124.33,85.665L125.1,86.443L125.88,87.06L126.66,86.597L127.44,86.231L128.21,86.128L128.99,86.228L129.77,85.605L130.55,86.198L131.32,86.196L132.1,85.235L132.88,85.733L133.66,85.631L134.43,86.242L135.21,85.647L135.99,85.702L136.77,85.856L137.54,86.231L138.32,85.971L139.1,85.591L139.88,85.971L140.66,85.831L141.43,85.587L142.21,86.548L142.99,86.378L143.77,86.543L144.54,87.08L145.32,87.072L146.1,86.317L146.88,86.093L147.65,86.329L148.43,84.715L149.21,86.397L149.99,86.301L150.76,86.243L151.54,86.564L152.32,85.355L153.1,85.407L153.87,85.722L154.65,85.744L155.43,86.283L156.21,85.678L156.98,85.928L157.76,86.149L158.54,85.99L159.32,86.355L160.1,86.651L160.87,86.996L161.65,86.429L162.43,86.605L163.21,86.386L163.98,86.355L164.76,86.345L165.54,86.583L166.32,86L167.09,86.995L167.87,86.264L168.65,86.403L169.43,85.847L170.2,85.258L170.98,85.704L171.76,86.517L172.54,86.132L173.31,86.561L174.09,87.066L174.87,87.144L175.65,86.862L176.43,86.036L177.2,86.893L177.98,86.239L178.76,86.144L179.54,86.061L180.31,87.267L181.09,85.335L181.87,84.938L182.65,85.916L183.42,85.556L184.2,85.748L184.98,86.322L185.76,86.442L186.53,85.998L187.31,86.655L188.09,85.673L188.87,85.756L189.64,85.487L190.42,85.569L191.2,86.669L191.98,86.13L192.75,86.121L193.53,86.602L194.31,87.164L195.09,86.465L195.87,86.992L196.64,86.431L197.42,86.28L198.2,86.226L198.98,85.868L199.75,86.447L200.53,86.764L201.31,85.977L202.09,86.225L202.86,86.396L203.64,86.048L204.42,87.182L205.2,85.71L205.97,85.469L206.75,87.094L207.53,86.474L208.31,86.433L209.08,86.237L209.86,86.221L210.64,85.705L211.42,86.742L212.19,86.798L212.97,86.828L213.75,87.142L214.53,86.603L215.31,86.556L216.08,86.424L216.86,87.056L217.64,85.581L218.42,86.217L219.19,86.429L219.97,87.662L220.75,87.527L221.53,87.132L222.3,86.833L223.08,87.204L223.86,88.005L224.64,86.904L225.41,86.884L226.19,88.386L226.97,87.959L227.75,87.905L228.52,87.697L229.3,88.662L230.08,88.608L230.86,88.72L231.63,88.026L232.41,87.619L233.19,87.857L233.97,87.736L234.75,87.489L235.52,88.434L236.3,87.752L237.08,88.957L237.86,88.696L238.63,89.211L239.41,88.704L240.19,88.918L240.97,88.988L241.74,87.989L242.52,88.222L243.3,88.613L244.08,88.234L244.85,88.068L245.63,88.338L246.41,88.447L247.19,89.202L247.96,89.705L248.74,89.434L249.52,89.365L250.3,89.13L251.07,89.266L251.85,89.308L252.63,88.507L253.41,87.393L254.19,87.728L254.96,88.792L255.74,89.038L256.52,89.358L257.3,87.996L258.07,88.362L258.85,88.498L259.63,88.529L260.41,89.06L261.18,89.17L261.96,87.733L262.74,87.956L263.52,88.481L264.29,87.542L265.07,88.28L265.85,89.113L266.63,89.29L267.4,89.729L268.18,88.634L268.96,88.405L269.74,89.364L270.51,88.712L271.29,88.737L272.07,89.133L272.85,89.027L273.63,90.27L274.4,88.956L275.18,88.568L275.96,88.821L276.74,87.972L277.51,89.291L278.29,89.884L279.07,89.606L279.85,89.391L280.62,88.888L281.4,88.652L282.18,89.321L282.96,89.328L283.73,89.532L284.51,89.774L285.29,90.117L286.07,90.152L286.84,89.8L287.62,89.792L288.4,89.034L289.18,90.297L289.95,87.973L290.73,89.98L291.51,89.817L292.29,90.583L293.07,91.486L293.84,89.966L294.62,90.515L295.4,90.179L296.18,90.58L296.95,90.18L297.73,91.482L298.51,89.841L299.29,91.163L300.06,90.729L300.84,91.351L301.62,91.963L302.4,92.153L303.17,91.707L303.95,92.424L304.73,91.445L305.51,91.601L306.28,91.682L307.06,92.264L307.84,93.648L308.62,93.309L309.4,93.262L310.17,92.22L310.95,93.653L311.73,92.899L312.51,93.164L313.28,92.672L314.06,93.752L314.84,93.342L315.62,93.989L316.39,92.905L317.17,93.818L317.95,94.946L318.73,94.541L319.5,94.803L320.28,94.65L321.06,94.738L321.84,95.994L322.61,96.753L323.39,96.575L324.17,97.402L324.95,97.099L325.72,97.984L326.5,98.633L327.28,97.19L328.06,97.411L328.84,99.224L329.61,97.013L330.39,97.745L331.17,97.299L331.95,97.99L332.72,99.543L333.5,98.188L334.28,98.385L335.06,99.769L335.83,98.827L336.61,100.21L337.39,99.459L338.17,100.39L338.94,101.15L339.72,100.39L340.5,98.752L341.28,99.019L342.05,98.249L342.83,96.959L343.61,97.813L344.39,97.34L345.16,98.413L345.94,102.25L346.72,103.66L347.5,103.8L348.28,104.12L349.05,104.43L349.83,103.92L350.61,105.02L351.39,104.46L352.16,103.2L352.94,104.21L353.72,104.62L354.5,103.09L355.27,103.6L356.05,105.38L356.83,105.01L357.61,105.63L358.38,106.11L359.16,105.16L359.94,106.45L360.72,107.38L361.49,106.51L362.27,106.97L363.05,107.84L363.83,108.46L364.6,109.42L365.38,109.62L366.16,109.17L366.94,108.02L367.72,109.86L368.49,110.87L369.27,109.54L370.05,109.88L370.83,111.45L371.6,110.83L372.38,111.69L373.16,111.12L373.94,112.51L374.71,111.69L375.49,113.52L376.27,114.08L377.05,110.39L377.82,113.28L378.6,116.12L379.38,117.59L380.16,117.5L380.93,118.87L381.71,123.25L382.49,124.1L383.27,123.42L384.04,127.85L384.82,127.55L385.6,127.33L386.38,128.18L387.16,131.54L387.93,133.13L388.71,136.46L389.49,139.47L390.27,142.07L391.04,144.59L391.82,149.61L392.6,155.71L393.38,155.65L394.15,158.16L394.93,168.04L395.71,172.18L396.49,178.89L397.26,181.91L398.04,187.29L398.82,191.57L399.6,204.48L400.37,208.07L401.15,219.7L401.31,278.56" style="fill:none;stroke:#F15A60" />
<path d="M405.2,277.58L425.2,277.58" style="fill:none;stroke:#F15A60" />
<text x="294.26" y="-271.91" transform="scale(1, -1)"
	style="font-family:Times;font-weight:normal;font-style:normal;font-size:12px">random-read-bigcache</text>
</g>
</svg>
