<?xml version="1.0"?>
<!-- Generated by SVGo and Plotinum VG -->
<svg width="425.2pt" height="283.46pt" viewBox="0 0 425.2 283.46"
	xmlns="http://www.w3.org/2000/svg"
	xmlns:xlink="http://www.w3.org/1999/xlink">
<g transform="scale(1, -1) translate(0, -283.46)">
<path d="M0,0L425.2,0L425.2,283.46L0,283.46Z" style="fill:#FFFFFF" />
<text x="207.46" y="-3.9023" transform="scale(1, -1)"
	style="font-family:Liberation Serif;font-variant:normal;font-weight:normal;font-style:normal;font-size:12px">database size</text>
<text x="60.689" y="-16.541" transform="scale(1, -1)"
	style="font-family:Liberation Serif;font-variant:normal;font-weight:normal;font-style:normal;font-size:10px">4.00 mb</text>
<text x="137.09" y="-16.541" transform="scale(1, -1)"
	style="font-family:Liberation Serif;font-variant:normal;font-weight:normal;font-style:normal;font-size:10px">260.00 mb</text>
<text x="218.5" y="-16.541" transform="scale(1, -1)"
	style="font-family:Liberation Serif;font-variant:normal;font-weight:normal;font-style:normal;font-size:10px">516.00 mb</text>
<text x="299.9" y="-16.541" transform="scale(1, -1)"
	style="font-family:Liberation Serif;font-variant:normal;font-weight:normal;font-style:normal;font-size:10px">772.00 mb</text>
<text x="377.42" y="-16.541" transform="scale(1, -1)"
	style="font-family:Liberation Serif;font-variant:normal;font-weight:normal;font-style:normal;font-size:10px">1023.64 mb</text>
<path d="M77.078,24.363L77.078,32.363" style="fill:none;stroke:#000000;stroke-width:0.5" />
<path d="M158.48,24.363L158.48,32.363" style="fill:none;stroke:#000000;stroke-width:0.5" />
<path d="M239.89,24.363L239.89,32.363" style="fill:none;stroke:#000000;stroke-width:0.5" />
<path d="M321.29,24.363L321.29,32.363" style="fill:none;stroke:#000000;stroke-width:0.5" />
<path d="M401.31,24.363L401.31,32.363" style="fill:none;stroke:#000000;stroke-width:0.5" />
<path d="M76.583,32.363L401.31,32.363" style="fill:none;stroke:#000000;stroke-width:0.5" />
<g transform="rotate(90)">
<text x="145.41" y="9.3867" transform="scale(1, -1)"
	style="font-family:Liberation Serif;font-variant:normal;font-weight:normal;font-style:normal;font-size:12px">speed</text>
</g>
<text x="20.885" y="-37.951" transform="scale(1, -1)"
	style="font-family:Liberation Serif;font-variant:normal;font-weight:normal;font-style:normal;font-size:10px">0.03 mb/s</text>
<text x="15.885" y="-146.4" transform="scale(1, -1)"
	style="font-family:Liberation Serif;font-variant:normal;font-weight:normal;font-style:normal;font-size:10px">32.03 mb/s</text>
<text x="15.885" y="-254.85" transform="scale(1, -1)"
	style="font-family:Liberation Serif;font-variant:normal;font-weight:normal;font-style:normal;font-size:10px">64.03 mb/s</text>
<text x="15.885" y="-275.64" transform="scale(1, -1)"
	style="font-family:Liberation Serif;font-variant:normal;font-weight:normal;font-style:normal;font-size:10px">70.17 mb/s</text>
<path d="M62.833,40.236L70.833,40.236" style="fill:none;stroke:#000000;stroke-width:0.5" />
<path d="M62.833,148.69L70.833,148.69" style="fill:none;stroke:#000000;stroke-width:0.5" />
<path d="M62.833,257.13L70.833,257.13" style="fill:none;stroke:#000000;stroke-width:0.5" />
<path d="M62.833,277.93L70.833,277.93" style="fill:none;stroke:#000000;stroke-width:0.5" />
<path d="M70.833,40.209L70.833,277.93" style="fill:none;stroke:#000000;stroke-width:0.5" />
<path d="M76.583,40.209L77.359,47.577L78.136,48.285L78.912,49.165L79.689,53.565L80.465,54L81.242,53.699L82.018,54.353L82.795,54.732L83.571,54.857L84.348,55.449L85.124,55.068L85.901,55.95L86.677,55.599L87.454,56.09L88.23,55.525L89.007,56.928L89.783,57.326L90.56,57.158L91.336,58.006L92.113,57.641L92.889,58.88L93.666,58.784L94.442,58.394L95.219,59.191L95.995,60.455L96.772,62.235L97.548,62.393L98.324,63.554L99.101,61.523L99.877,62.644L100.65,62.174L101.43,61.538L102.21,62.867L102.98,62.077L103.76,62.251L104.54,63.841L105.31,61.613L106.09,62.851L106.87,61.793L107.64,61.804L108.42,63.341L109.2,63.027L109.97,61.938L110.75,62.838L111.52,62.942L112.3,62.211L113.08,63.577L113.85,62.328L114.63,62.825L115.41,62.867L116.18,62.028L116.96,63.222L117.74,62.452L118.51,62.237L119.29,63.174L120.07,61.962L120.84,63.476L121.62,62.418L122.4,62.622L123.17,63.139L123.95,62.398L124.72,62.313L125.5,62.879L126.28,61.769L127.05,63.613L127.83,61.734L128.61,62.862L129.38,62.604L130.16,62.326L130.94,63.434L131.71,62.74L132.49,62.665L133.27,63.731L134.04,61.97L134.82,63.284L135.6,62.037L136.37,64.058L137.15,61.982L137.93,61.621L138.7,62.453L139.48,62.803L140.25,62.01L141.03,63.324L141.81,61.768L142.58,62.045L143.36,63.303L144.14,61.089L144.91,63.14L145.69,62.3L146.47,62.252L147.24,63.807L148.02,62.003L148.8,61.932L149.57,63.213L150.35,61.656L151.13,63.237L151.9,62.776L152.68,62.749L153.45,63.461L154.23,61.852L155.01,62.999L155.78,62.77L156.56,62.028L157.34,63.681L158.11,62.11L158.89,62.987L159.67,62.129L160.44,61.974L161.22,64.162L162,62.172L162.77,61.691L163.55,63.566L164.33,61.988L165.1,63.144L165.88,62.534L166.65,62.313L167.43,63.003L168.21,62.436L168.98,62.739L169.76,63.065L170.54,61.59L171.31,62.439L172.09,63.684L172.87,62.925L173.64,61.722L174.42,63.577L175.2,62.897L175.97,62.532L176.75,63.426L177.53,62.398L178.3,62.484L179.08,63.201L179.86,61.799L180.63,63.606L181.41,62.347L182.18,63.129L182.96,63.151L183.74,62.296L184.51,63.213L185.29,62.425L186.07,62.929L186.84,63.062L187.62,62.061L188.4,61.807L189.17,64.17L189.95,63.849L190.73,63.195L191.5,62.704L192.28,61.952L193.06,63.511L193.83,64.013L194.61,63.495L195.38,63.65L196.16,63.646L196.94,64.588L197.71,63.99L198.49,64.215L199.27,62.754L200.04,62.339L200.82,62.037L201.6,63.358L202.37,61.735L203.15,62.753L203.93,62.858L204.7,63.693L205.48,62.376L206.26,61.749L207.03,62.316L207.81,63.216L208.58,62.136L209.36,63.092L210.14,62.844L210.91,62.649L211.69,63.63L212.47,62.055L213.24,62.533L214.02,62.564L214.8,62.264L215.57,64.004L216.35,61.794L217.13,63.121L217.9,62.348L218.68,62.021L219.46,62.24L220.23,63.029L221.01,61.862L221.79,63.338L222.56,61.982L223.34,63.261L224.11,62.218L224.89,62.243L225.67,62.758L226.44,62.862L227.22,62.819L228,63.234L228.77,62.025L229.55,63.898L230.33,61.643L231.1,62.218L231.88,62.653L232.66,61.999L233.43,62.985L234.21,62.351L234.99,62.48L235.76,62.836L236.54,62.179L237.31,63.588L238.09,62.102L238.87,61.953L239.64,63.718L240.42,62.36L241.2,62.323L241.97,62.585L242.75,61.933L243.53,63.359L244.3,61.833L245.08,61.42L245.86,63.52L246.63,61.834L247.41,62.494L248.19,62.753L248.96,61.874L249.74,63.203L250.51,61.816L251.29,62.126L252.07,63.256L252.84,61.971L253.62,62.848L254.4,62.599L255.17,61.995L255.95,64.328L256.73,61.961L257.5,62.59L258.28,63.339L259.06,62.375L259.83,63.636L260.61,61.619L261.39,62.628L262.16,63.673L262.94,62.434L263.72,62.06L264.49,62.14L265.27,63.405L266.04,61.969L266.82,62.578L267.6,63.123L268.37,62.298L269.15,64.135L269.93,61.811L270.7,62.444L271.48,63.163L272.26,62.587L273.03,62.361L273.81,62.367L274.59,63.059L275.36,64.236L276.14,62.7L276.92,62.287L277.69,63.088L278.47,62.844L279.24,62.187L280.02,62.964L280.8,62.557L281.57,62.249L282.35,63.72L283.13,62.07L283.9,63.669L284.68,62.302L285.46,62.318L286.23,63.519L287.01,62.271L287.79,63.043L288.56,63.024L289.34,61.76L290.12,63.556L290.89,61.985L291.67,62.241L292.44,62.849L293.22,61.817L294,63.636L294.77,62.142L295.55,62.601L296.33,63.247L297.1,62.216L297.88,62.276L298.66,62.964L299.43,61.86L300.21,63.675L300.99,61.933L301.76,63.292L302.54,62.869L303.32,62.167L304.09,62.391L304.87,63.168L305.65,63.212L306.42,62.427L307.2,61.87L307.97,63.162L308.75,62.27L309.53,62.368L310.3,62.921L311.08,61.649L311.86,62.623L312.63,62.239L313.41,61.731L314.19,63.304L314.96,62.151L315.74,62.533L316.52,62.812L317.29,61.732L318.07,62.464L318.85,62.537L319.62,62.103L320.4,63.063L321.17,61.373L321.95,63.319L322.73,64.315L323.5,62.637L324.28,63.151L325.06,62.604L325.83,63.652L326.61,62.36L327.39,62.819L328.16,63.362L328.94,62.741L329.72,63.44L330.49,62.25L331.27,63.679L332.05,62.772L332.82,62.843L333.6,63.127L334.37,62.414L335.15,64.073L335.93,61.591L336.7,61.547L337.48,63.642L338.26,62.121L339.03,62.978L339.81,62.189L340.59,62.277L341.36,64.342L342.14,61.95L342.92,63.784L343.69,62.237L344.47,62.365L345.25,63.557L346.02,62.647L346.8,61.975L347.58,63.779L348.35,62.138L349.13,63.259L349.9,62.475L350.68,61.948L351.46,62.906L352.23,62.425L353.01,62.364L353.79,63.029L354.56,62.114L355.34,63.106L356.12,62.451L356.89,62.49L357.67,63.08L358.45,61.768L359.22,62.524L360,62.793L360.78,62.52L361.55,62.725L362.33,62.088L363.1,62.476L363.88,63.412L364.66,61.864L365.43,63.451L366.21,61.852L366.99,63.13L367.76,62.685L368.54,61.978L369.32,63.355L370.09,62.471L370.87,61.87L371.65,62.713L372.42,62.271L373.2,63.24L373.98,62.235L374.75,61.716L375.53,63.587L376.3,62.222L377.08,62.806L377.86,62.638L378.63,62.584L379.41,63.47L380.19,62.014L380.96,61.721L381.74,62.841L382.52,61.824L383.29,64.268L384.07,62.58L384.85,62.769L385.62,62.328L386.4,63.339L387.18,62.27L387.95,62.466L388.73,62.596L389.51,62.317L390.28,62.886L391.06,62.122L391.83,63.138L392.61,62.546L393.39,62.184L394.16,62.983L394.94,62.021L395.72,63.114L396.49,63.263L397.27,62.207L398.05,63.766L398.82,62.483L399.6,62.42L400.38,63.349L401.15,65.409L401.31,277.93" style="fill:none;stroke:#F15A60" />
<path d="M405.2,275.78L425.2,275.78" style="fill:none;stroke:#F15A60" />
<text x="294.26" y="-273.29" transform="scale(1, -1)"
	style="font-family:Liberation Serif;font-variant:normal;font-weight:normal;font-style:normal;font-size:12px">random-read-bigcache</text>
</g>
</svg>
