<?xml version="1.0"?>
<!-- Generated by SVGo and Plotinum VG -->
<svg width="425.2pt" height="283.46pt" viewBox="0 0 425.2 283.46"
	xmlns="http://www.w3.org/2000/svg"
	xmlns:xlink="http://www.w3.org/1999/xlink">
<g transform="scale(1, -1) translate(0, -283.46)">
<path d="M0,0L425.2,0L425.2,283.46L0,283.46Z" style="fill:#FFFFFF" />
<text x="207.46" y="-3.9023" transform="scale(1, -1)"
	style="font-family:Liberation Serif;font-variant:normal;font-weight:normal;font-style:normal;font-size:12px">database size</text>
<text x="60.689" y="-16.541" transform="scale(1, -1)"
	style="font-family:Liberation Serif;font-variant:normal;font-weight:normal;font-style:normal;font-size:10px">4.00 mb</text>
<text x="137.09" y="-16.541" transform="scale(1, -1)"
	style="font-family:Liberation Serif;font-variant:normal;font-weight:normal;font-style:normal;font-size:10px">260.00 mb</text>
<text x="218.5" y="-16.541" transform="scale(1, -1)"
	style="font-family:Liberation Serif;font-variant:normal;font-weight:normal;font-style:normal;font-size:10px">516.00 mb</text>
<text x="299.9" y="-16.541" transform="scale(1, -1)"
	style="font-family:Liberation Serif;font-variant:normal;font-weight:normal;font-style:normal;font-size:10px">772.00 mb</text>
<text x="377.42" y="-16.541" transform="scale(1, -1)"
	style="font-family:Liberation Serif;font-variant:normal;font-weight:normal;font-style:normal;font-size:10px">1023.64 mb</text>
<path d="M77.078,24.363L77.078,32.363" style="fill:none;stroke:#000000;stroke-width:0.5" />
<path d="M158.48,24.363L158.48,32.363" style="fill:none;stroke:#000000;stroke-width:0.5" />
<path d="M239.89,24.363L239.89,32.363" style="fill:none;stroke:#000000;stroke-width:0.5" />
<path d="M321.29,24.363L321.29,32.363" style="fill:none;stroke:#000000;stroke-width:0.5" />
<path d="M401.31,24.363L401.31,32.363" style="fill:none;stroke:#000000;stroke-width:0.5" />
<path d="M76.583,32.363L401.31,32.363" style="fill:none;stroke:#000000;stroke-width:0.5" />
<g transform="rotate(90)">
<text x="145.41" y="9.3867" transform="scale(1, -1)"
	style="font-family:Liberation Serif;font-variant:normal;font-weight:normal;font-style:normal;font-size:12px">speed</text>
</g>
<text x="20.885" y="-37.928" transform="scale(1, -1)"
	style="font-family:Liberation Serif;font-variant:normal;font-weight:normal;font-style:normal;font-size:10px">0.03 mb/s</text>
<text x="15.885" y="-118.74" transform="scale(1, -1)"
	style="font-family:Liberation Serif;font-variant:normal;font-weight:normal;font-style:normal;font-size:10px">32.03 mb/s</text>
<text x="15.885" y="-199.56" transform="scale(1, -1)"
	style="font-family:Liberation Serif;font-variant:normal;font-weight:normal;font-style:normal;font-size:10px">64.03 mb/s</text>
<text x="15.885" y="-275.64" transform="scale(1, -1)"
	style="font-family:Liberation Serif;font-variant:normal;font-weight:normal;font-style:normal;font-size:10px">94.16 mb/s</text>
<path d="M62.833,40.213L70.833,40.213" style="fill:none;stroke:#000000;stroke-width:0.5" />
<path d="M62.833,121.03L70.833,121.03" style="fill:none;stroke:#000000;stroke-width:0.5" />
<path d="M62.833,201.84L70.833,201.84" style="fill:none;stroke:#000000;stroke-width:0.5" />
<path d="M62.833,277.93L70.833,277.93" style="fill:none;stroke:#000000;stroke-width:0.5" />
<path d="M70.833,40.209L70.833,277.93" style="fill:none;stroke:#000000;stroke-width:0.5" />
<path d="M76.583,40.209L77.359,44.457L78.136,46.186L78.912,47.875L79.689,48.067L80.465,48.62L81.242,48.964L82.018,48.716L82.795,48.997L83.571,49.669L84.348,49.391L85.124,49.409L85.901,49.766L86.677,50.761L87.454,52.285L88.23,52.313L89.007,52.273L89.783,52.603L90.56,52.295L91.336,52.885L92.113,53.329L92.889,51.722L93.666,51.745L94.442,52.734L95.219,52.375L95.995,53.04L96.772,52.28L97.548,52.564L98.324,52.861L99.101,52.845L99.877,52.671L100.65,52.719L101.43,52.436L102.21,53.345L102.98,52.1L103.76,52.927L104.54,52.433L105.31,52.397L106.09,52.279L106.87,52.394L107.64,52.963L108.42,53.092L109.2,52.535L109.97,52.427L110.75,52.442L111.52,52.904L112.3,53.095L113.08,52.807L113.85,52.498L114.63,52.276L115.41,52.175L116.18,52.417L116.96,52.905L117.74,52.853L118.51,52.407L119.29,52.376L120.07,52.409L120.84,52.716L121.62,52.907L122.4,52.71L123.17,52.466L123.95,52.607L124.72,52.262L125.5,52.665L126.28,52.649L127.05,52.557L127.83,52.482L128.61,52.389L129.38,53.165L130.16,53.076L130.94,53.065L131.71,52.439L132.49,52.632L133.27,52.748L134.04,52.514L134.82,52.286L135.6,52.441L136.37,52.4L137.15,52.405L137.93,52.609L138.7,52.702L139.48,52.585L140.25,52.724L141.03,52.812L141.81,52.432L142.58,52.68L143.36,52.748L144.14,52.564L144.91,53.578L145.69,52.305L146.47,53.187L147.24,53.22L148.02,52.273L148.8,53.22L149.57,53.026L150.35,52.518L151.13,52.679L151.9,52.585L152.68,52.495L153.45,52.992L154.23,52.72L155.01,52.583L155.78,52.604L156.56,52.75L157.34,52.474L158.11,52.388L158.89,52.524L159.67,52.362L160.44,52.422L161.22,52.893L162,52.666L162.77,52.986L163.55,52.831L164.33,52.586L165.1,53.835L165.88,52.438L166.65,52.369L167.43,52.675L168.21,52.289L168.98,52.651L169.76,52.776L170.54,53.338L171.31,52.793L172.09,52.73L172.87,52.53L173.64,52.751L174.42,52.625L175.2,53.401L175.97,52.644L176.75,52.642L177.53,52.923L178.3,52.677L179.08,52.548L179.86,53.232L180.63,52.684L181.41,52.522L182.18,53.246L182.96,52.319L183.74,53.186L184.51,52.241L185.29,52.85L186.07,52.769L186.84,52.546L187.62,52.614L188.4,53.179L189.17,52.6L189.95,52.392L190.73,52.482L191.5,52.575L192.28,52.67L193.06,53.256L193.83,52.529L194.61,52.932L195.38,52.595L196.16,52.083L196.94,52.488L197.71,53.305L198.49,52.697L199.27,52.944L200.04,52.809L200.82,53.139L201.6,52.836L202.37,53.348L203.15,52.757L203.93,52.654L204.7,52.896L205.48,53.114L206.26,52.614L207.03,53.091L207.81,52.807L208.58,53.025L209.36,53.692L210.14,52.899L210.91,53.213L211.69,53.517L212.47,52.783L213.24,53.187L214.02,52.718L214.8,53.261L215.57,52.823L216.35,53.007L217.13,53.571L217.9,53.443L218.68,53.127L219.46,53.016L220.23,52.738L221.01,53.3L221.79,53.072L222.56,52.775L223.34,52.646L224.11,52.762L224.89,53.247L225.67,53.364L226.44,53.019L227.22,53.11L228,53.519L228.77,53.03L229.55,53.806L230.33,53.044L231.1,53.367L231.88,54.001L232.66,54.029L233.43,53.421L234.21,53.296L234.99,53.873L235.76,53.762L236.54,53.299L237.31,54.43L238.09,53.351L238.87,53.824L239.64,53.1L240.42,53.253L241.2,53.672L241.97,54.62L242.75,53.466L243.53,53.909L244.3,53.476L245.08,54.306L245.86,53.567L246.63,53.278L247.41,53.743L248.19,53.738L248.96,53.613L249.74,53.487L250.51,53.845L251.29,53.421L252.07,54.114L252.84,53.515L253.62,53.696L254.4,54.378L255.17,53.743L255.95,53.493L256.73,53.492L257.5,54.709L258.28,53.616L259.06,53.297L259.83,53.475L260.61,53.929L261.39,53.76L262.16,53.734L262.94,54.086L263.72,53.839L264.49,54.057L265.27,53.328L266.04,53.662L266.82,53.402L267.6,54.294L268.37,53.772L269.15,53.595L269.93,53.98L270.7,53.917L271.48,53.387L272.26,53.422L273.03,54.156L273.81,53.287L274.59,53.667L275.36,53.729L276.14,53.843L276.92,53.425L277.69,53.86L278.47,53.674L279.24,53.631L280.02,53.57L280.8,53.771L281.57,54.047L282.35,53.878L283.13,55.104L283.9,53.415L284.68,54.374L285.46,53.62L286.23,53.998L287.01,54.585L287.79,53.669L288.56,53.928L289.34,53.957L290.12,54.239L290.89,54.091L291.67,54.068L292.44,53.555L293.22,54.831L294,54.643L294.77,54.515L295.55,54.775L296.33,53.986L297.1,54.343L297.88,54.953L298.66,54.586L299.43,54.43L300.21,54.297L300.99,55.008L301.76,54.071L302.54,54.157L303.32,55.085L304.09,54.345L304.87,54.744L305.65,55.051L306.42,55.369L307.2,54.561L307.97,55.145L308.75,55.213L309.53,54.163L310.3,55.006L311.08,54.996L311.86,54.77L312.63,54.748L313.41,55.764L314.19,55.018L314.96,54.834L315.74,55.833L316.52,55.068L317.29,54.842L318.07,55.197L318.85,55.507L319.62,54.479L320.4,54.731L321.17,55.738L321.95,54.908L322.73,55.025L323.5,56.459L324.28,55.478L325.06,55.115L325.83,56.234L326.61,54.953L327.39,55.636L328.16,55.877L328.94,55.869L329.72,55.908L330.49,56.734L331.27,55.447L332.05,56.501L332.82,55.977L333.6,55.63L334.37,55.854L335.15,55.488L335.93,56.752L336.7,56.814L337.48,55.837L338.26,57.385L339.03,56.231L339.81,56.798L340.59,57.171L341.36,56.066L342.14,57.005L342.92,56.003L343.69,56.502L344.47,57.461L345.25,56.365L346.02,57.279L346.8,57.594L347.58,56.564L348.35,58.187L349.13,56.48L349.9,57.927L350.68,57.168L351.46,57.866L352.23,56.813L353.01,57.41L353.79,58.51L354.56,58.309L355.34,58.104L356.12,58.826L356.89,58.345L357.67,58.79L358.45,57.464L359.22,57.948L360,58.376L360.78,58.225L361.55,58.784L362.33,59.062L363.1,59.791L363.88,58.45L364.66,60.244L365.43,58.668L366.21,59.571L366.99,58.882L367.76,59.311L368.54,58.744L369.32,59.51L370.09,59.678L370.87,60.309L371.65,60.314L372.42,60.835L373.2,59.903L373.98,60.584L374.75,59.924L375.53,60.013L376.3,60.64L377.08,60.616L377.86,61.504L378.63,61.042L379.41,61.482L380.19,62.229L380.96,60.801L381.74,61.45L382.52,61.866L383.29,61.804L384.07,60.858L384.85,61.861L385.62,61.167L386.4,62.844L387.18,63.742L387.95,64.36L388.73,62.11L389.51,62.588L390.28,64.032L391.06,61.4L391.83,63.669L392.61,62.571L393.39,63.3L394.16,66.103L394.94,63.655L395.72,67.485L396.49,65.809L397.27,67.145L398.05,67.57L398.82,65.76L399.6,68.768L400.38,71.848L401.15,140.1L401.31,277.93" style="fill:none;stroke:#F15A60" />
<path d="M405.2,275.78L425.2,275.78" style="fill:none;stroke:#F15A60" />
<text x="294.26" y="-273.29" transform="scale(1, -1)"
	style="font-family:Liberation Serif;font-variant:normal;font-weight:normal;font-style:normal;font-size:12px">random-read-bigcache</text>
</g>
</svg>
