<?xml version="1.0"?>
<!-- Generated by SVGo and Plotinum VG -->
<svg width="425.2pt" height="283.46pt" viewBox="0 0 425.2 283.46"
	xmlns="http://www.w3.org/2000/svg"
	xmlns:xlink="http://www.w3.org/1999/xlink">
<g transform="scale(1, -1) translate(0, -283.46)">
<path d="M0,0L425.2,0L425.2,283.46L0,283.46Z" style="fill:#FFFFFF" />
<text x="207.23" y="-3.8613" transform="scale(1, -1)"
	style="font-family:Times;font-weight:normal;font-style:normal;font-size:12px">database size</text>
<text x="60.221" y="-15.602" transform="scale(1, -1)"
	style="font-family:Times;font-weight:normal;font-style:normal;font-size:10px">4.00 mb</text>
<text x="136.74" y="-15.602" transform="scale(1, -1)"
	style="font-family:Times;font-weight:normal;font-style:normal;font-size:10px">260.00 mb</text>
<text x="218.26" y="-15.602" transform="scale(1, -1)"
	style="font-family:Times;font-weight:normal;font-style:normal;font-size:10px">516.00 mb</text>
<text x="299.79" y="-15.602" transform="scale(1, -1)"
	style="font-family:Times;font-weight:normal;font-style:normal;font-size:10px">772.00 mb</text>
<text x="377.42" y="-15.602" transform="scale(1, -1)"
	style="font-family:Times;font-weight:normal;font-style:normal;font-size:10px">1023.64 mb</text>
<path d="M76.61,25.23L76.61,33.23" style="fill:none;stroke:#000000;stroke-width:0.5" />
<path d="M158.13,25.23L158.13,33.23" style="fill:none;stroke:#000000;stroke-width:0.5" />
<path d="M239.65,25.23L239.65,33.23" style="fill:none;stroke:#000000;stroke-width:0.5" />
<path d="M321.18,25.23L321.18,33.23" style="fill:none;stroke:#000000;stroke-width:0.5" />
<path d="M401.31,25.23L401.31,33.23" style="fill:none;stroke:#000000;stroke-width:0.5" />
<path d="M76.114,33.23L401.31,33.23" style="fill:none;stroke:#000000;stroke-width:0.5" />
<g transform="rotate(90)">
<text x="144.86" y="11.555" transform="scale(1, -1)"
	style="font-family:Times;font-weight:normal;font-style:normal;font-size:12px">speed</text>
</g>
<text x="20.416" y="-33.76" transform="scale(1, -1)"
	style="font-family:Times;font-weight:normal;font-style:normal;font-size:10px">0.00 mb/s</text>
<text x="20.416" y="-99.409" transform="scale(1, -1)"
	style="font-family:Times;font-weight:normal;font-style:normal;font-size:10px">8.00 mb/s</text>
<text x="15.416" y="-165.06" transform="scale(1, -1)"
	style="font-family:Times;font-weight:normal;font-style:normal;font-size:10px">16.00 mb/s</text>
<text x="15.416" y="-230.71" transform="scale(1, -1)"
	style="font-family:Times;font-weight:normal;font-style:normal;font-size:10px">24.00 mb/s</text>
<text x="15.416" y="-273.84" transform="scale(1, -1)"
	style="font-family:Times;font-weight:normal;font-style:normal;font-size:10px">29.26 mb/s</text>
<path d="M62.364,38.481L70.364,38.481" style="fill:none;stroke:#000000;stroke-width:0.5" />
<path d="M62.364,104.13L70.364,104.13" style="fill:none;stroke:#000000;stroke-width:0.5" />
<path d="M62.364,169.78L70.364,169.78" style="fill:none;stroke:#000000;stroke-width:0.5" />
<path d="M62.364,235.43L70.364,235.43" style="fill:none;stroke:#000000;stroke-width:0.5" />
<path d="M62.364,278.56L70.364,278.56" style="fill:none;stroke:#000000;stroke-width:0.5" />
<path d="M70.364,38.48L70.364,278.56" style="fill:none;stroke:#000000;stroke-width:0.5" />
<path d="M76.114,38.48L76.892,77.93L77.669,80.77L78.447,84.585L79.225,86.118L80.002,85.573L80.78,84.659L81.557,85.338L82.335,84.282L83.113,84.641L83.89,85.017L84.668,84.789L85.445,85.567L86.223,84.723L87.001,86.268L87.778,85.734L88.556,83.726L89.334,84.007L90.111,84.671L90.889,86.926L91.666,85.312L92.444,85.683L93.222,85.738L93.999,85.389L94.777,85.505L95.554,85.966L96.332,86.282L97.11,86.888L97.887,86.14L98.665,86.408L99.442,86.033L100.22,85.403L101,85.714L101.78,85.787L102.55,85.977L103.33,86.639L104.11,86.264L104.89,85.353L105.66,85.464L106.44,85.567L107.22,85.315L108,85.475L108.77,85.533L109.55,86.309L110.33,85.508L111.11,85.365L111.88,85.689L112.66,85.768L113.44,86.972L114.22,86.259L114.99,86.188L115.77,86.209L116.55,85.24L117.33,85.692L118.1,85.907L118.88,86.21L119.66,86.217L120.44,86.123L121.22,86.745L121.99,86.793L122.77,86.688L123.55,86.433L124.33,85.765L125.1,84.262L125.88,85.657L126.66,85.644L127.44,85.775L128.21,85.918L128.99,85.725L129.77,86.562L130.55,85.433L131.32,86.603L132.1,86.927L132.88,86.644L133.66,85.528L134.43,85.384L135.21,83.321L135.99,83.741L136.77,83.292L137.54,84.392L138.32,83.414L139.1,83.716L139.88,83.709L140.66,84.431L141.43,83.67L142.21,83.469L142.99,85.541L143.77,83.912L144.54,85.081L145.32,83.794L146.1,83.468L146.88,84.981L147.65,84.568L148.43,85.732L149.21,84.572L149.99,84.493L150.76,85.569L151.54,84.844L152.32,85.695L153.1,84.703L153.87,82.97L154.65,84.691L155.43,85.18L156.21,85.285L156.98,84.182L157.76,83.014L158.54,85.368L159.32,85.332L160.1,86.576L160.87,86.448L161.65,84.567L162.43,83.002L163.21,85.435L163.98,84.573L164.76,84.297L165.54,85.092L166.32,84.488L167.09,84.183L167.87,85.717L168.65,84.712L169.43,84.89L170.2,86.236L170.98,83.597L171.76,84.881L172.54,84.419L173.31,84.672L174.09,85.425L174.87,84.243L175.65,84.87L176.43,85.622L177.2,86.354L177.98,84.619L178.76,84.672L179.54,85.178L180.31,85.621L181.09,85.222L181.87,84.509L182.65,85.173L183.42,84.657L184.2,85.12L184.98,85.694L185.76,85.648L186.53,85.886L187.31,86.571L188.09,85.28L188.87,87.162L189.64,86.681L190.42,85.076L191.2,87.038L191.98,86.345L192.75,85.442L193.53,86.236L194.31,86.19L195.09,86.007L195.87,86.335L196.64,84.982L197.42,86.904L198.2,86.227L198.98,84.934L199.75,87.209L200.53,86.425L201.31,84.346L202.09,85.385L202.86,86.751L203.64,86.953L204.42,86.859L205.2,85.186L205.97,86.662L206.75,86.601L207.53,85.263L208.31,87.39L209.08,84.743L209.86,86.48L210.64,86.17L211.42,86.187L212.19,86.279L212.97,86.005L213.75,85.553L214.53,85.177L215.31,85.537L216.08,86.772L216.86,86.301L217.64,84.78L218.42,87.112L219.19,85.573L219.97,86.404L220.75,85.711L221.53,86.432L222.3,87.748L223.08,85.994L223.86,87.177L224.64,87.382L225.41,86.128L226.19,87.444L226.97,88.311L227.75,87.243L228.52,86.863L229.3,86.668L230.08,84.851L230.86,87.42L231.63,89.178L232.41,88.531L233.19,87.444L233.97,86.547L234.75,87.655L235.52,87.422L236.3,86.472L237.08,88.589L237.86,88.245L238.63,86.26L239.41,88.062L240.19,89.082L240.97,86.686L241.74,88.55L242.52,88.716L243.3,86.095L244.08,87.551L244.85,88.245L245.63,86.791L246.41,87.792L247.19,88.238L247.96,86.411L248.74,88.281L249.52,88.637L250.3,89.215L251.07,89.052L251.85,89.029L252.63,87.143L253.41,89.19L254.19,89.638L254.96,88.549L255.74,87.264L256.52,87.835L257.3,88.14L258.07,86.953L258.85,87.792L259.63,88.395L260.41,87.07L261.18,88.43L261.96,89.598L262.74,86.51L263.52,88.416L264.29,87.735L265.07,85.576L265.85,88.172L266.63,88.297L267.4,88.389L268.18,88.342L268.96,87.429L269.74,86.651L270.51,88.11L271.29,89.454L272.07,88.818L272.85,89.534L273.63,86.709L274.4,87.269L275.18,88.498L275.96,87.806L276.74,88.348L277.51,88.161L278.29,87.87L279.07,88.42L279.85,89.516L280.62,88.262L281.4,88.467L282.18,89.567L282.96,88.975L283.73,88.79L284.51,90.113L285.29,89.301L286.07,90.61L286.84,90.115L287.62,88.916L288.4,88.397L289.18,90.039L289.95,91.553L290.73,91.06L291.51,91.126L292.29,91.18L293.07,89.959L293.84,91.348L294.62,90.318L295.4,89.859L296.18,91.265L296.95,90.887L297.73,90.026L298.51,92.584L299.29,92.023L300.06,89.944L300.84,92.24L301.62,93.222L302.4,91.732L303.17,91.278L303.95,93.166L304.73,94.005L305.51,92.011L306.28,91.607L307.06,91.764L307.84,90.607L308.62,94.522L309.4,94.091L310.17,94.554L310.95,92.944L311.73,93.67L312.51,94.864L313.28,94.453L314.06,92.842L314.84,95.385L315.62,95.563L316.39,96.098L317.17,93.686L317.95,94.022L318.73,96.056L319.5,97.831L320.28,95.405L321.06,95.619L321.84,96.006L322.61,96.241L323.39,96.858L324.17,97.122L324.95,99.404L325.72,97.6L326.5,98.108L327.28,99.165L328.06,98.291L328.84,99.2L329.61,97.946L330.39,98.969L331.17,98.984L331.95,99.149L332.72,99.047L333.5,100.56L334.28,101.66L335.06,100.84L335.83,101L336.61,101.04L337.39,101.14L338.17,102.08L338.94,101.86L339.72,101.93L340.5,101.69L341.28,103.27L342.05,101.55L342.83,102.84L343.61,102.58L344.39,102.19L345.16,104.95L345.94,104.93L346.72,105.95L347.5,105.53L348.28,106.02L349.05,105.52L349.83,104.09L350.61,106.25L351.39,105.97L352.16,105.12L352.94,106.08L353.72,108.18L354.5,106.8L355.27,106.37L356.05,108.39L356.83,108.62L357.61,107.73L358.38,107.61L359.16,109.9L359.94,108.94L360.72,107.76L361.49,108.71L362.27,109.22L363.05,107.85L363.83,108.73L364.6,108.84L365.38,110.36L366.16,111.36L366.94,111.53L367.72,112.26L368.49,109.93L369.27,112.03L370.05,112.15L370.83,114.22L371.6,111.96L372.38,111.8L373.16,115.32L373.94,116.72L374.71,117.55L375.49,118.78L376.27,116.34L377.05,118.42L377.82,120.4L378.6,122.12L379.38,127.01L380.16,121.92L380.93,123.85L381.71,131.09L382.49,131.75L383.27,134.41L384.04,133.59L384.82,136.42L385.6,136.17L386.38,139.04L387.16,140.84L387.93,141.39L388.71,144.65L389.49,148.87L390.27,150.08L391.04,157.16L391.82,158.1L392.6,160.05L393.38,166.99L394.15,179.25L394.93,182.59L395.71,192.88L396.49,202.91L397.26,214.06L398.04,223.15L398.82,234.66L399.6,245.72L400.37,258.32L401.15,276.82L401.31,278.56" style="fill:none;stroke:#F15A60" />
<path d="M405.2,277.58L425.2,277.58" style="fill:none;stroke:#F15A60" />
<text x="266.94" y="-271.91" transform="scale(1, -1)"
	style="font-family:Times;font-weight:normal;font-style:normal;font-size:12px">random-read-bigcache-filter</text>
</g>
</svg>
