<?xml version="1.0"?>
<!-- Generated by SVGo and Plotinum VG -->
<svg width="425.2pt" height="283.46pt" viewBox="0 0 425.2 283.46"
	xmlns="http://www.w3.org/2000/svg"
	xmlns:xlink="http://www.w3.org/1999/xlink">
<g transform="scale(1, -1) translate(0, -283.46)">
<path d="M0,0L425.2,0L425.2,283.46L0,283.46Z" style="fill:#FFFFFF" />
<text x="207.23" y="-3.8613" transform="scale(1, -1)"
	style="font-family:Times;font-weight:normal;font-style:normal;font-size:12px">database size</text>
<text x="60.221" y="-15.602" transform="scale(1, -1)"
	style="font-family:Times;font-weight:normal;font-style:normal;font-size:10px">4.00 mb</text>
<text x="136.74" y="-15.602" transform="scale(1, -1)"
	style="font-family:Times;font-weight:normal;font-style:normal;font-size:10px">260.00 mb</text>
<text x="218.26" y="-15.602" transform="scale(1, -1)"
	style="font-family:Times;font-weight:normal;font-style:normal;font-size:10px">516.00 mb</text>
<text x="299.79" y="-15.602" transform="scale(1, -1)"
	style="font-family:Times;font-weight:normal;font-style:normal;font-size:10px">772.00 mb</text>
<text x="377.42" y="-15.602" transform="scale(1, -1)"
	style="font-family:Times;font-weight:normal;font-style:normal;font-size:10px">1023.64 mb</text>
<path d="M76.61,25.23L76.61,33.23" style="fill:none;stroke:#000000;stroke-width:0.5" />
<path d="M158.13,25.23L158.13,33.23" style="fill:none;stroke:#000000;stroke-width:0.5" />
<path d="M239.65,25.23L239.65,33.23" style="fill:none;stroke:#000000;stroke-width:0.5" />
<path d="M321.18,25.23L321.18,33.23" style="fill:none;stroke:#000000;stroke-width:0.5" />
<path d="M401.31,25.23L401.31,33.23" style="fill:none;stroke:#000000;stroke-width:0.5" />
<path d="M76.114,33.23L401.31,33.23" style="fill:none;stroke:#000000;stroke-width:0.5" />
<g transform="rotate(90)">
<text x="144.86" y="11.555" transform="scale(1, -1)"
	style="font-family:Times;font-weight:normal;font-style:normal;font-size:12px">speed</text>
</g>
<text x="20.416" y="-33.785" transform="scale(1, -1)"
	style="font-family:Times;font-weight:normal;font-style:normal;font-size:10px">0.03 mb/s</text>
<text x="15.416" y="-137.61" transform="scale(1, -1)"
	style="font-family:Times;font-weight:normal;font-style:normal;font-size:10px">32.03 mb/s</text>
<text x="15.416" y="-241.43" transform="scale(1, -1)"
	style="font-family:Times;font-weight:normal;font-style:normal;font-size:10px">64.03 mb/s</text>
<text x="15.416" y="-273.84" transform="scale(1, -1)"
	style="font-family:Times;font-weight:normal;font-style:normal;font-size:10px">74.02 mb/s</text>
<path d="M62.364,38.507L70.364,38.507" style="fill:none;stroke:#000000;stroke-width:0.5" />
<path d="M62.364,142.33L70.364,142.33" style="fill:none;stroke:#000000;stroke-width:0.5" />
<path d="M62.364,246.15L70.364,246.15" style="fill:none;stroke:#000000;stroke-width:0.5" />
<path d="M62.364,278.56L70.364,278.56" style="fill:none;stroke:#000000;stroke-width:0.5" />
<path d="M70.364,38.48L70.364,278.56" style="fill:none;stroke:#000000;stroke-width:0.5" />
<path d="M76.114,38.48L76.892,48.278L77.669,48.235L78.447,48.335L79.225,48.517L80.002,48.741L80.78,49.254L81.557,52.924L82.335,53.079L83.113,53.166L83.89,53.124L84.668,53.795L85.445,53.935L86.223,54.418L87.001,54.793L87.778,54.938L88.556,55.603L89.334,54.568L90.111,54.985L90.889,56.171L91.666,56.059L92.444,55.421L93.222,56.378L93.999,57.719L94.777,57.702L95.554,58.587L96.332,58.531L97.11,58.717L97.887,59.202L98.665,60.802L99.442,62.053L100.22,61.774L101,62.494L101.78,62.77L102.55,62.362L103.33,62.616L104.11,62.187L104.89,62.71L105.66,61.906L106.44,62.469L107.22,61.629L108,62.462L108.77,62.725L109.55,63.257L110.33,62.996L111.11,63.425L111.88,62.526L112.66,63.223L113.44,62.596L114.22,63.284L114.99,63.099L115.77,63.281L116.55,62.665L117.33,63.052L118.1,62.951L118.88,63.021L119.66,63.199L120.44,63.173L121.22,63.033L121.99,62.62L122.77,63.174L123.55,63.17L124.33,63.625L125.1,63.006L125.88,63.243L126.66,63.092L127.44,63.66L128.21,62.928L128.99,63.045L129.77,63.101L130.55,63.214L131.32,62.781L132.1,62.691L132.88,62.634L133.66,62.775L134.43,62.483L135.21,63.611L135.99,63.012L136.77,63.563L137.54,63.015L138.32,62.845L139.1,62.86L139.88,63.018L140.66,62.963L141.43,62.34L142.21,63.263L142.99,63.254L143.77,63.698L144.54,63.392L145.32,63.35L146.1,62.861L146.88,63.607L147.65,63.398L148.43,63.542L149.21,62.92L149.99,63.519L150.76,63.194L151.54,63.665L152.32,62.882L153.1,62.783L153.87,62.573L154.65,63.499L155.43,62.618L156.21,62.668L156.98,62.818L157.76,63.464L158.54,63.337L159.32,62.972L160.1,62.687L160.87,63.427L161.65,63.301L162.43,62.258L163.21,63.022L163.98,62.5L164.76,63.072L165.54,62.88L166.32,62.996L167.09,62.486L167.87,62.907L168.65,62.613L169.43,63.026L170.2,61.981L170.98,62.596L171.76,62.8L172.54,63.049L173.31,62.614L174.09,62.988L174.87,62.726L175.65,63.47L176.43,62.961L177.2,63.015L177.98,62.518L178.76,63.268L179.54,63.103L180.31,62.987L181.09,63.093L181.87,62.857L182.65,63.123L183.42,63.134L184.2,63.166L184.98,63.143L185.76,63.281L186.53,62.735L187.31,63.314L188.09,62.858L188.87,63.319L189.64,62.745L190.42,62.906L191.2,62.326L191.98,62.822L192.75,62.767L193.53,63.12L194.31,62.457L195.09,63.042L195.87,62.65L196.64,62.805L197.42,62.631L198.2,63.096L198.98,62.572L199.75,62.908L200.53,62.463L201.31,63.128L202.09,62.789L202.86,62.315L203.64,61.634L204.42,62.553L205.2,62.727L205.97,62.914L206.75,62.937L207.53,62.954L208.31,63.047L209.08,62.537L209.86,62.867L210.64,62.674L211.42,63.206L212.19,62.888L212.97,63.298L213.75,62.877L214.53,63.135L215.31,62.357L216.08,62.982L216.86,62.713L217.64,62.847L218.42,62.343L219.19,62.725L219.97,62.616L220.75,63.082L221.53,62.777L222.3,62.911L223.08,62.664L223.86,62.814L224.64,62.818L225.41,62.556L226.19,62.952L226.97,62.09L227.75,62.118L228.52,61.4L229.3,62.902L230.08,62.713L230.86,63.159L231.63,62.68L232.41,62.514L233.19,62.684L233.97,62.971L234.75,62.286L235.52,62.596L236.3,62.803L237.08,62.881L237.86,62.747L238.63,63.197L239.41,62.828L240.19,63.307L240.97,62.9L241.74,62.746L242.52,62.193L243.3,62.512L244.08,62.482L244.85,62.916L245.63,63.287L246.41,63.237L247.19,63.357L247.96,62.814L248.74,62.96L249.52,62.917L250.3,63.047L251.07,62.433L251.85,62.47L252.63,62.345L253.41,62.843L254.19,62.855L254.96,63.441L255.74,63.106L256.52,63.397L257.3,63.061L258.07,62.675L258.85,62.815L259.63,62.965L260.41,62.881L261.18,63.305L261.96,63.162L262.74,63.283L263.52,63.158L264.29,62.777L265.07,62.939L265.85,62.635L266.63,63.451L267.4,63.168L268.18,63.333L268.96,62.939L269.74,62.981L270.51,63.129L271.29,63.725L272.07,63.191L272.85,63.626L273.63,62.729L274.4,62.918L275.18,62.987L275.96,63.515L276.74,62.239L277.51,62.976L278.29,62.78L279.07,63.011L279.85,62.988L280.62,62.653L281.4,62.946L282.18,62.626L282.96,62.796L283.73,63.56L284.51,63.3L285.29,63.502L286.07,63.685L286.84,63.001L287.62,63.465L288.4,63.279L289.18,63.156L289.95,62.573L290.73,63.191L291.51,62.647L292.29,63.078L293.07,63.091L293.84,63.524L294.62,63.197L295.4,63.614L296.18,63.262L296.95,63.526L297.73,62.83L298.51,63.141L299.29,61.856L300.06,63.145L300.84,62.635L301.62,62.606L302.4,62.755L303.17,63.456L303.95,63.085L304.73,62.526L305.51,63.059L306.28,62.322L307.06,62.965L307.84,63.145L308.62,63.499L309.4,63.308L310.17,63.789L310.95,63.14L311.73,63.496L312.51,63.021L313.28,63.148L314.06,62.23L314.84,62.861L315.62,62.583L316.39,63.201L317.17,63.097L317.95,63.459L318.73,62.699L319.5,63.568L320.28,63.122L321.06,63.379L321.84,62.993L322.61,63.141L323.39,62.834L324.17,63.186L324.95,62.54L325.72,63.356L326.5,63.078L327.28,63.344L328.06,62.963L328.84,62.301L329.61,63.087L330.39,62.681L331.17,63.494L331.95,62.93L332.72,63.012L333.5,62.9L334.28,63.638L335.06,62.981L335.83,62.947L336.61,62.942L337.39,63.471L338.17,62.372L338.94,62.68L339.72,63.034L340.5,63.313L341.28,63.112L342.05,63.158L342.83,62.626L343.61,63.532L344.39,63.293L345.16,62.941L345.94,62.774L346.72,62.883L347.5,62.637L348.28,62.504L349.05,62.536L349.83,63.113L350.61,63.561L351.39,62.794L352.16,63.023L352.94,62.462L353.72,63.008L354.5,62.331L355.27,62.968L356.05,62.762L356.83,63.228L357.61,63.074L358.38,63.73L359.16,63.319L359.94,63.263L360.72,63.037L361.49,63.06L362.27,62.412L363.05,62.814L363.83,62.622L364.6,62.9L365.38,62.83L366.16,63.636L366.94,63.073L367.72,63.024L368.49,63.023L369.27,62.689L370.05,62.876L370.83,63.254L371.6,63.697L372.38,62.574L373.16,62.624L373.94,62.726L374.71,63.107L375.49,63.192L376.27,63.285L377.05,62.591L377.82,63.5L378.6,62.493L379.38,62.722L380.16,62.353L380.93,63.573L381.71,62.946L382.49,63.113L383.27,62.964L384.04,63.436L384.82,63.26L385.6,63.094L386.38,62.443L387.16,63.103L387.93,63.362L388.71,62.57L389.49,63.3L390.27,63.309L391.04,63.298L391.82,62.948L392.6,63.472L393.38,63.258L394.15,63.456L394.93,61.85L395.71,61.704L396.49,62.363L397.26,62.395L398.04,62.802L398.82,63.05L399.6,62.988L400.37,63.09L401.15,65.795L401.31,278.56" style="fill:none;stroke:#F15A60" />
<path d="M405.2,277.58L425.2,277.58" style="fill:none;stroke:#F15A60" />
<text x="294.26" y="-271.91" transform="scale(1, -1)"
	style="font-family:Times;font-weight:normal;font-style:normal;font-size:12px">random-read-bigcache</text>
</g>
</svg>
