<?xml version="1.0"?>
<!-- Generated by SVGo and Plotinum VG -->
<svg width="425.2pt" height="283.46pt" viewBox="0 0 425.2 283.46"
	xmlns="http://www.w3.org/2000/svg"
	xmlns:xlink="http://www.w3.org/1999/xlink">
<g transform="scale(1, -1) translate(0, -283.46)">
<path d="M0,0L425.2,0L425.2,283.46L0,283.46Z" style="fill:#FFFFFF" />
<text x="207.46" y="-3.9023" transform="scale(1, -1)"
	style="font-family:Liberation Serif;font-variant:normal;font-weight:normal;font-style:normal;font-size:12px">database size</text>
<text x="60.689" y="-16.541" transform="scale(1, -1)"
	style="font-family:Liberation Serif;font-variant:normal;font-weight:normal;font-style:normal;font-size:10px">4.00 mb</text>
<text x="137.09" y="-16.541" transform="scale(1, -1)"
	style="font-family:Liberation Serif;font-variant:normal;font-weight:normal;font-style:normal;font-size:10px">260.00 mb</text>
<text x="218.5" y="-16.541" transform="scale(1, -1)"
	style="font-family:Liberation Serif;font-variant:normal;font-weight:normal;font-style:normal;font-size:10px">516.00 mb</text>
<text x="299.9" y="-16.541" transform="scale(1, -1)"
	style="font-family:Liberation Serif;font-variant:normal;font-weight:normal;font-style:normal;font-size:10px">772.00 mb</text>
<text x="377.42" y="-16.541" transform="scale(1, -1)"
	style="font-family:Liberation Serif;font-variant:normal;font-weight:normal;font-style:normal;font-size:10px">1023.64 mb</text>
<path d="M77.078,24.363L77.078,32.363" style="fill:none;stroke:#000000;stroke-width:0.5" />
<path d="M158.48,24.363L158.48,32.363" style="fill:none;stroke:#000000;stroke-width:0.5" />
<path d="M239.89,24.363L239.89,32.363" style="fill:none;stroke:#000000;stroke-width:0.5" />
<path d="M321.29,24.363L321.29,32.363" style="fill:none;stroke:#000000;stroke-width:0.5" />
<path d="M401.31,24.363L401.31,32.363" style="fill:none;stroke:#000000;stroke-width:0.5" />
<path d="M76.583,32.363L401.31,32.363" style="fill:none;stroke:#000000;stroke-width:0.5" />
<g transform="rotate(90)">
<text x="145.41" y="9.3867" transform="scale(1, -1)"
	style="font-family:Liberation Serif;font-variant:normal;font-weight:normal;font-style:normal;font-size:12px">speed</text>
</g>
<text x="20.885" y="-37.948" transform="scale(1, -1)"
	style="font-family:Liberation Serif;font-variant:normal;font-weight:normal;font-style:normal;font-size:10px">0.03 mb/s</text>
<text x="15.885" y="-141.53" transform="scale(1, -1)"
	style="font-family:Liberation Serif;font-variant:normal;font-weight:normal;font-style:normal;font-size:10px">32.03 mb/s</text>
<text x="15.885" y="-245.11" transform="scale(1, -1)"
	style="font-family:Liberation Serif;font-variant:normal;font-weight:normal;font-style:normal;font-size:10px">64.03 mb/s</text>
<text x="15.885" y="-275.64" transform="scale(1, -1)"
	style="font-family:Liberation Serif;font-variant:normal;font-weight:normal;font-style:normal;font-size:10px">73.46 mb/s</text>
<path d="M62.833,40.234L70.833,40.234" style="fill:none;stroke:#000000;stroke-width:0.5" />
<path d="M62.833,143.82L70.833,143.82" style="fill:none;stroke:#000000;stroke-width:0.5" />
<path d="M62.833,247.4L70.833,247.4" style="fill:none;stroke:#000000;stroke-width:0.5" />
<path d="M62.833,277.93L70.833,277.93" style="fill:none;stroke:#000000;stroke-width:0.5" />
<path d="M70.833,40.209L70.833,277.93" style="fill:none;stroke:#000000;stroke-width:0.5" />
<path d="M76.583,40.209L77.359,44.865L78.136,46.931L78.912,49.446L79.689,49.714L80.465,50.094L81.242,50.266L82.018,50.304L82.795,50.984L83.571,51.326L84.348,51.395L85.124,51.786L85.901,51.334L86.677,52.654L87.454,52.334L88.23,52.946L89.007,52.464L89.783,53.268L90.56,53.646L91.336,53.949L92.113,54.292L92.889,54.078L93.666,53.951L94.442,54.764L95.219,54.345L95.995,54.393L96.772,54.519L97.548,55.056L98.324,55.175L99.101,55.001L99.877,55.096L100.65,54.865L101.43,54.931L102.21,54.35L102.98,55.679L103.76,55.672L104.54,55.292L105.31,55.534L106.09,55.724L106.87,55.916L107.64,55.573L108.42,55.343L109.2,55.762L109.97,55.92L110.75,55.83L111.52,55.915L112.3,55.691L113.08,55.788L113.85,55.922L114.63,55.942L115.41,55.734L116.18,55.56L116.96,55.954L117.74,56.131L118.51,55.751L119.29,55.971L120.07,55.803L120.84,56.041L121.62,55.898L122.4,55.975L123.17,55.941L123.95,55.68L124.72,55.697L125.5,55.945L126.28,55.948L127.05,55.971L127.83,55.805L128.61,56.1L129.38,55.889L130.16,56.033L130.94,55.84L131.71,55.594L132.49,55.918L133.27,55.708L134.04,55.669L134.82,55.967L135.6,55.898L136.37,55.91L137.15,55.76L137.93,56.035L138.7,55.942L139.48,55.664L140.25,55.899L141.03,56.061L141.81,55.885L142.58,55.907L143.36,55.923L144.14,56.026L144.91,55.975L145.69,55.911L146.47,55.937L147.24,55.559L148.02,56.007L148.8,55.896L149.57,55.769L150.35,55.902L151.13,55.997L151.9,55.998L152.68,55.782L153.45,55.877L154.23,55.933L155.01,55.654L155.78,55.849L156.56,55.807L157.34,55.925L158.11,55.852L158.89,56.08L159.67,55.941L160.44,55.785L161.22,55.944L162,55.977L162.77,55.612L163.55,55.823L164.33,55.5L165.1,55.316L165.88,54.736L166.65,54.284L167.43,54.367L168.21,54.257L168.98,54.719L169.76,54.044L170.54,54.23L171.31,54.681L172.09,54.751L172.87,54.22L173.64,54.542L174.42,55.381L175.2,55.269L175.97,55.399L176.75,55.325L177.53,55.111L178.3,54.971L179.08,54.824L179.86,55.246L180.63,55.8L181.41,55.67L182.18,55.664L182.96,55.832L183.74,55.842L184.51,55.546L185.29,55.904L186.07,55.892L186.84,55.887L187.62,55.967L188.4,55.859L189.17,55.737L189.95,55.857L190.73,55.956L191.5,55.831L192.28,55.571L193.06,55.882L193.83,56.057L194.61,55.952L195.38,55.855L196.16,55.865L196.94,55.912L197.71,55.902L198.49,56.045L199.27,55.755L200.04,55.553L200.82,56.031L201.6,56.074L202.37,55.849L203.15,55.962L203.93,55.859L204.7,55.979L205.48,55.867L206.26,55.788L207.03,55.989L207.81,55.662L208.58,55.818L209.36,55.962L210.14,55.921L210.91,55.919L211.69,55.746L212.47,55.943L213.24,55.924L214.02,55.977L214.8,55.765L215.57,55.581L216.35,56.024L217.13,55.972L217.9,55.808L218.68,55.932L219.46,56.069L220.23,55.813L221.01,55.763L221.79,56.027L222.56,56.049L223.34,55.629L224.11,55.856L224.89,55.626L225.67,55.972L226.44,55.963L227.22,55.828L228,55.915L228.77,55.827L229.55,56.032L230.33,55.77L231.1,55.707L231.88,55.944L232.66,55.985L233.43,55.963L234.21,56.048L234.99,55.891L235.76,55.935L236.54,55.846L237.31,55.893L238.09,55.953L238.87,55.671L239.64,55.813L240.42,56.055L241.2,56.095L241.97,56.058L242.75,55.85L243.53,55.896L244.3,55.941L245.08,55.151L245.86,55.883L246.63,55.557L247.41,55.836L248.19,55.802L248.96,55.762L249.74,55.991L250.51,55.609L251.29,56.004L252.07,55.804L252.84,55.97L253.62,55.776L254.4,55.649L255.17,55.771L255.95,55.883L256.73,55.841L257.5,55.964L258.28,55.71L259.06,55.957L259.83,55.952L260.61,55.981L261.39,55.787L262.16,55.559L262.94,56.016L263.72,55.917L264.49,56.022L265.27,55.857L266.04,55.881L266.82,55.965L267.6,55.776L268.37,55.98L269.15,55.945L269.93,55.609L270.7,55.761L271.48,55.974L272.26,56.048L273.03,55.981L273.81,55.932L274.59,55.875L275.36,56.017L276.14,55.925L276.92,55.84L277.69,55.818L278.47,56.009L279.24,55.909L280.02,55.937L280.8,55.983L281.57,56.054L282.35,55.895L283.13,55.883L283.9,55.942L284.68,55.981L285.46,55.685L286.23,56.047L287.01,55.858L287.79,56.03L288.56,56.045L289.34,55.959L290.12,55.88L290.89,55.811L291.67,55.812L292.44,55.867L293.22,55.565L294,55.672L294.77,55.927L295.55,56.021L296.33,55.793L297.1,55.897L297.88,56.01L298.66,55.925L299.43,55.871L300.21,55.373L300.99,55.591L301.76,56.032L302.54,55.926L303.32,56.043L304.09,56.025L304.87,55.921L305.65,55.968L306.42,55.966L307.2,55.928L307.97,55.953L308.75,55.599L309.53,55.86L310.3,55.917L311.08,55.99L311.86,55.72L312.63,56.021L313.41,55.889L314.19,55.937L314.96,55.726L315.74,55.921L316.52,55.445L317.29,56.017L318.07,56.022L318.85,55.982L319.62,56.016L320.4,55.887L321.17,55.841L321.95,55.885L322.73,55.794L323.5,56.02L324.28,55.56L325.06,55.98L325.83,56.09L326.61,55.649L327.39,55.915L328.16,55.907L328.94,55.97L329.72,56.003L330.49,55.814L331.27,55.961L332.05,55.65L332.82,55.97L333.6,55.764L334.37,55.848L335.15,56.064L335.93,55.989L336.7,55.863L337.48,55.897L338.26,55.853L339.03,55.745L339.81,55.651L340.59,55.875L341.36,55.814L342.14,55.885L342.92,55.858L343.69,55.876L344.47,55.964L345.25,55.97L346.02,55.828L346.8,55.728L347.58,55.715L348.35,55.866L349.13,55.793L349.9,55.923L350.68,56.078L351.46,55.96L352.23,55.812L353.01,55.84L353.79,54.5L354.56,55.518L355.34,55.798L356.12,55.917L356.89,55.968L357.67,55.487L358.45,55.918L359.22,55.928L360,56.004L360.78,56.008L361.55,55.756L362.33,55.3L363.1,55.832L363.88,56.034L364.66,55.987L365.43,55.977L366.21,55.846L366.99,55.881L367.76,55.966L368.54,55.964L369.32,55.932L370.09,55.664L370.87,55.841L371.65,56.045L372.42,55.997L373.2,56.028L373.98,55.842L374.75,55.886L375.53,55.944L376.3,55.918L377.08,55.898L377.86,55.567L378.63,55.963L379.41,55.796L380.19,55.083L380.96,55.797L381.74,55.896L382.52,55.966L383.29,55.903L384.07,55.973L384.85,55.801L385.62,55.692L386.4,55.829L387.18,55.789L387.95,55.846L388.73,55.94L389.51,56.031L390.28,55.937L391.06,55.845L391.83,55.847L392.61,55.929L393.39,55.646L394.16,55.88L394.94,55.949L395.72,56.036L396.49,55.94L397.27,55.943L398.05,55.884L398.82,55.612L399.6,55.727L400.38,55.949L401.15,57.954L401.31,277.93" style="fill:none;stroke:#F15A60" />
<path d="M405.2,275.78L425.2,275.78" style="fill:none;stroke:#F15A60" />
<text x="340.9" y="-273.29" transform="scale(1, -1)"
	style="font-family:Liberation Serif;font-variant:normal;font-weight:normal;font-style:normal;font-size:12px">random-read</text>
</g>
</svg>
