<?xml version="1.0"?>
<!-- Generated by SVGo and Plotinum VG -->
<svg width="425.2pt" height="283.46pt" viewBox="0 0 425.2 283.46"
	xmlns="http://www.w3.org/2000/svg"
	xmlns:xlink="http://www.w3.org/1999/xlink">
<g transform="scale(1, -1) translate(0, -283.46)">
<path d="M0,0L425.2,0L425.2,283.46L0,283.46Z" style="fill:#FFFFFF" />
<text x="207.46" y="-3.9023" transform="scale(1, -1)"
	style="font-family:Liberation Serif;font-variant:normal;font-weight:normal;font-style:normal;font-size:12px">database size</text>
<text x="60.689" y="-16.541" transform="scale(1, -1)"
	style="font-family:Liberation Serif;font-variant:normal;font-weight:normal;font-style:normal;font-size:10px">4.00 mb</text>
<text x="137.09" y="-16.541" transform="scale(1, -1)"
	style="font-family:Liberation Serif;font-variant:normal;font-weight:normal;font-style:normal;font-size:10px">260.00 mb</text>
<text x="218.5" y="-16.541" transform="scale(1, -1)"
	style="font-family:Liberation Serif;font-variant:normal;font-weight:normal;font-style:normal;font-size:10px">516.00 mb</text>
<text x="299.9" y="-16.541" transform="scale(1, -1)"
	style="font-family:Liberation Serif;font-variant:normal;font-weight:normal;font-style:normal;font-size:10px">772.00 mb</text>
<text x="377.42" y="-16.541" transform="scale(1, -1)"
	style="font-family:Liberation Serif;font-variant:normal;font-weight:normal;font-style:normal;font-size:10px">1023.64 mb</text>
<path d="M77.078,24.363L77.078,32.363" style="fill:none;stroke:#000000;stroke-width:0.5" />
<path d="M158.48,24.363L158.48,32.363" style="fill:none;stroke:#000000;stroke-width:0.5" />
<path d="M239.89,24.363L239.89,32.363" style="fill:none;stroke:#000000;stroke-width:0.5" />
<path d="M321.29,24.363L321.29,32.363" style="fill:none;stroke:#000000;stroke-width:0.5" />
<path d="M401.31,24.363L401.31,32.363" style="fill:none;stroke:#000000;stroke-width:0.5" />
<path d="M76.583,32.363L401.31,32.363" style="fill:none;stroke:#000000;stroke-width:0.5" />
<g transform="rotate(90)">
<text x="145.41" y="9.3867" transform="scale(1, -1)"
	style="font-family:Liberation Serif;font-variant:normal;font-weight:normal;font-style:normal;font-size:12px">speed</text>
</g>
<text x="20.885" y="-37.926" transform="scale(1, -1)"
	style="font-family:Liberation Serif;font-variant:normal;font-weight:normal;font-style:normal;font-size:10px">0.03 mb/s</text>
<text x="15.885" y="-116.35" transform="scale(1, -1)"
	style="font-family:Liberation Serif;font-variant:normal;font-weight:normal;font-style:normal;font-size:10px">32.03 mb/s</text>
<text x="15.885" y="-194.78" transform="scale(1, -1)"
	style="font-family:Liberation Serif;font-variant:normal;font-weight:normal;font-style:normal;font-size:10px">64.03 mb/s</text>
<text x="15.885" y="-273.21" transform="scale(1, -1)"
	style="font-family:Liberation Serif;font-variant:normal;font-weight:normal;font-style:normal;font-size:10px">96.03 mb/s</text>
<text x="15.885" y="-275.64" transform="scale(1, -1)"
	style="font-family:Liberation Serif;font-variant:normal;font-weight:normal;font-style:normal;font-size:10px">97.03 mb/s</text>
<path d="M62.833,40.211L70.833,40.211" style="fill:none;stroke:#000000;stroke-width:0.5" />
<path d="M62.833,118.64L70.833,118.64" style="fill:none;stroke:#000000;stroke-width:0.5" />
<path d="M62.833,197.06L70.833,197.06" style="fill:none;stroke:#000000;stroke-width:0.5" />
<path d="M62.833,275.49L70.833,275.49" style="fill:none;stroke:#000000;stroke-width:0.5" />
<path d="M62.833,277.93L70.833,277.93" style="fill:none;stroke:#000000;stroke-width:0.5" />
<path d="M70.833,40.209L70.833,277.93" style="fill:none;stroke:#000000;stroke-width:0.5" />
<path d="M76.583,40.209L77.359,43.223L78.136,46.023L78.912,47.462L79.689,47.841L80.465,47.962L81.242,47.82L82.018,48.109L82.795,47.965L83.571,48.469L84.348,49.778L85.124,50.123L85.901,50.095L86.677,50.016L87.454,50.082L88.23,50.078L89.007,50.058L89.783,50.115L90.56,50.056L91.336,50.146L92.113,50.12L92.889,50.201L93.666,50.316L94.442,50.273L95.219,50.246L95.995,50.279L96.772,50.293L97.548,50.276L98.324,50.32L99.101,50.12L99.877,50.107L100.65,50.089L101.43,50.123L102.21,50.123L102.98,50.055L103.76,50.135L104.54,50.163L105.31,50.158L106.09,50.123L106.87,50.021L107.64,50.099L108.42,50.211L109.2,50.06L109.97,50.096L110.75,50.204L111.52,50.367L112.3,50.351L113.08,50.257L113.85,50.274L114.63,50.167L115.41,50.081L116.18,50.135L116.96,50.09L117.74,50.242L118.51,50.187L119.29,50.144L120.07,50.204L120.84,50.143L121.62,50.274L122.4,50.273L123.17,50.212L123.95,50.155L124.72,50.196L125.5,50.129L126.28,50.162L127.05,50.163L127.83,50.342L128.61,50.342L129.38,50.206L130.16,50.212L130.94,50.233L131.71,50.281L132.49,50.311L133.27,50.266L134.04,50.192L134.82,50.178L135.6,50.139L136.37,50.228L137.15,50.196L137.93,50.185L138.7,50.221L139.48,50.168L140.25,50.343L141.03,50.325L141.81,50.269L142.58,50.365L143.36,50.265L144.14,50.373L144.91,50.373L145.69,50.256L146.47,50.262L147.24,50.165L148.02,50.136L148.8,50.118L149.57,50.188L150.35,50.316L151.13,50.246L151.9,50.285L152.68,50.226L153.45,50.282L154.23,50.198L155.01,50.187L155.78,50.172L156.56,50.257L157.34,50.275L158.11,50.259L158.89,50.269L159.67,50.186L160.44,50.131L161.22,50.137L162,50.186L162.77,50.227L163.55,50.175L164.33,50.271L165.1,50.272L165.88,50.189L166.65,50.179L167.43,50.174L168.21,50.383L168.98,50.393L169.76,50.33L170.54,50.374L171.31,50.366L172.09,50.17L172.87,50.192L173.64,50.161L174.42,50.376L175.2,50.343L175.97,50.333L176.75,50.332L177.53,50.311L178.3,50.213L179.08,50.21L179.86,50.229L180.63,50.207L181.41,50.299L182.18,50.5L182.96,50.549L183.74,50.524L184.51,50.394L185.29,50.459L186.07,50.417L186.84,50.043L187.62,50.247L188.4,50.114L189.17,50.141L189.95,50.324L190.73,50.528L191.5,50.489L192.28,50.401L193.06,50.438L193.83,50.365L194.61,50.339L195.38,50.343L196.16,50.322L196.94,50.363L197.71,50.341L198.49,50.329L199.27,50.378L200.04,50.407L200.82,50.4L201.6,50.438L202.37,50.465L203.15,50.503L203.93,50.573L204.7,50.396L205.48,50.418L206.26,50.469L207.03,50.404L207.81,50.449L208.58,50.441L209.36,50.484L210.14,50.497L210.91,50.677L211.69,50.682L212.47,50.519L213.24,50.468L214.02,50.5L214.8,50.555L215.57,50.573L216.35,50.588L217.13,50.764L217.9,50.729L218.68,50.578L219.46,50.591L220.23,50.567L221.01,50.866L221.79,50.824L222.56,50.766L223.34,50.638L224.11,50.575L224.89,50.555L225.67,50.647L226.44,50.573L227.22,50.657L228,50.679L228.77,50.663L229.55,50.779L230.33,50.817L231.1,50.922L231.88,50.961L232.66,50.913L233.43,51.106L234.21,51.052L234.99,50.978L235.76,50.949L236.54,50.894L237.31,50.996L238.09,51.017L238.87,50.999L239.64,50.97L240.42,50.967L241.2,51.086L241.97,51.104L242.75,51.068L243.53,51.037L244.3,51.065L245.08,50.873L245.86,50.799L246.63,50.906L247.41,51.161L248.19,51.144L248.96,51.105L249.74,51.109L250.51,51.137L251.29,50.937L252.07,51.002L252.84,50.879L253.62,50.879L254.4,50.936L255.17,50.989L255.95,51.134L256.73,51.105L257.5,51.004L258.28,51.008L259.06,51.019L259.83,51.19L260.61,51.129L261.39,50.891L262.16,50.936L262.94,50.887L263.72,50.957L264.49,50.965L265.27,50.946L266.04,51.077L266.82,51.136L267.6,50.912L268.37,50.969L269.15,50.926L269.93,50.936L270.7,50.922L271.48,50.685L272.26,50.931L273.03,51.063L273.81,51.212L274.59,50.826L275.36,50.747L276.14,50.703L276.92,50.69L277.69,50.849L278.47,50.93L279.24,50.786L280.02,50.842L280.8,50.784L281.57,50.619L282.35,50.765L283.13,50.803L283.9,50.928L284.68,51.474L285.46,51.313L286.23,51.235L287.01,51.248L287.79,51.271L288.56,51.241L289.34,51.388L290.12,51.763L290.89,51.759L291.67,51.544L292.44,51.547L293.22,51.525L294,51.595L294.77,51.541L295.55,51.544L296.33,51.579L297.1,51.628L297.88,51.754L298.66,51.841L299.43,51.788L300.21,51.775L300.99,51.838L301.76,51.788L302.54,52.067L303.32,52.035L304.09,51.194L304.87,51.052L305.65,50.391L306.42,50.808L307.2,50.826L307.97,50.82L308.75,50.727L309.53,50.634L310.3,50.518L311.08,50.501L311.86,50.701L312.63,50.968L313.41,50.893L314.19,50.974L314.96,51.058L315.74,51.126L316.52,51.169L317.29,51.265L318.07,51.497L318.85,51.182L319.62,51.47L320.4,50.727L321.17,52.369L321.95,52.851L322.73,53.035L323.5,52.917L324.28,52.872L325.06,53.084L325.83,52.988L326.61,53.128L327.39,53.141L328.16,53.1L328.94,53.164L329.72,53.159L330.49,53.124L331.27,53.383L332.05,53.38L332.82,53.438L333.6,53.445L334.37,53.557L335.15,53.685L335.93,53.626L336.7,53.7L337.48,53.4L338.26,53.812L339.03,54.349L339.81,54.32L340.59,54.052L341.36,54.218L342.14,54.107L342.92,54.302L343.69,54.25L344.47,54.052L345.25,54.009L346.02,53.966L346.8,54.843L347.58,55.055L348.35,54.769L349.13,54.828L349.9,54.787L350.68,54.583L351.46,54.65L352.23,54.672L353.01,55.031L353.79,55.007L354.56,55.128L355.34,55.576L356.12,55.601L356.89,55.477L357.67,55.538L358.45,55.459L359.22,55.581L360,55.538L360.78,55.352L361.55,55.455L362.33,55.316L363.1,55.784L363.88,56.398L364.66,56.547L365.43,56.771L366.21,56.744L366.99,56.636L367.76,56.592L368.54,56.336L369.32,56.715L370.09,56.625L370.87,56.787L371.65,57.243L372.42,57.254L373.2,56.847L373.98,56.897L374.75,56.995L375.53,57.168L376.3,57.173L377.08,57.121L377.86,57.09L378.63,57.07L379.41,58.477L380.19,58.711L380.96,58.502L381.74,58.777L382.52,58.758L383.29,58.427L384.07,58.645L384.85,58.469L385.62,58.46L386.4,58.356L387.18,58.562L387.95,59.327L388.73,59.782L389.51,60.161L390.28,60.051L391.06,59.915L391.83,60.062L392.61,60.158L393.39,59.925L394.16,59.966L394.94,59.945L395.72,63.943L396.49,64.585L397.27,64.409L398.05,64.496L398.82,64.647L399.6,64.343L400.38,67.562L401.15,108.75L401.31,277.93" style="fill:none;stroke:#F15A60" />
<path d="M405.2,275.78L425.2,275.78" style="fill:none;stroke:#F15A60" />
<text x="313.58" y="-273.29" transform="scale(1, -1)"
	style="font-family:Liberation Serif;font-variant:normal;font-weight:normal;font-style:normal;font-size:12px">random-read-filter</text>
</g>
</svg>
