<?xml version="1.0"?>
<!-- Generated by SVGo and Plotinum VG -->
<svg width="425.2pt" height="283.46pt" viewBox="0 0 425.2 283.46"
	xmlns="http://www.w3.org/2000/svg"
	xmlns:xlink="http://www.w3.org/1999/xlink">
<g transform="scale(1, -1) translate(0, -283.46)">
<path d="M0,0L425.2,0L425.2,283.46L0,283.46Z" style="fill:#FFFFFF" />
<text x="207.23" y="-3.8613" transform="scale(1, -1)"
	style="font-family:Times;font-weight:normal;font-style:normal;font-size:12px">database size</text>
<text x="60.221" y="-15.602" transform="scale(1, -1)"
	style="font-family:Times;font-weight:normal;font-style:normal;font-size:10px">4.00 mb</text>
<text x="136.74" y="-15.602" transform="scale(1, -1)"
	style="font-family:Times;font-weight:normal;font-style:normal;font-size:10px">260.00 mb</text>
<text x="218.26" y="-15.602" transform="scale(1, -1)"
	style="font-family:Times;font-weight:normal;font-style:normal;font-size:10px">516.00 mb</text>
<text x="299.79" y="-15.602" transform="scale(1, -1)"
	style="font-family:Times;font-weight:normal;font-style:normal;font-size:10px">772.00 mb</text>
<text x="377.42" y="-15.602" transform="scale(1, -1)"
	style="font-family:Times;font-weight:normal;font-style:normal;font-size:10px">1023.64 mb</text>
<path d="M76.61,25.23L76.61,33.23" style="fill:none;stroke:#000000;stroke-width:0.5" />
<path d="M158.13,25.23L158.13,33.23" style="fill:none;stroke:#000000;stroke-width:0.5" />
<path d="M239.65,25.23L239.65,33.23" style="fill:none;stroke:#000000;stroke-width:0.5" />
<path d="M321.18,25.23L321.18,33.23" style="fill:none;stroke:#000000;stroke-width:0.5" />
<path d="M401.31,25.23L401.31,33.23" style="fill:none;stroke:#000000;stroke-width:0.5" />
<path d="M76.114,33.23L401.31,33.23" style="fill:none;stroke:#000000;stroke-width:0.5" />
<g transform="rotate(90)">
<text x="144.86" y="11.555" transform="scale(1, -1)"
	style="font-family:Times;font-weight:normal;font-style:normal;font-size:12px">speed</text>
</g>
<text x="20.416" y="-33.788" transform="scale(1, -1)"
	style="font-family:Times;font-weight:normal;font-style:normal;font-size:10px">0.03 mb/s</text>
<text x="15.416" y="-150.28" transform="scale(1, -1)"
	style="font-family:Times;font-weight:normal;font-style:normal;font-size:10px">32.03 mb/s</text>
<text x="15.416" y="-266.78" transform="scale(1, -1)"
	style="font-family:Times;font-weight:normal;font-style:normal;font-size:10px">64.03 mb/s</text>
<text x="15.416" y="-273.84" transform="scale(1, -1)"
	style="font-family:Times;font-weight:normal;font-style:normal;font-size:10px">65.97 mb/s</text>
<path d="M62.364,38.51L70.364,38.51" style="fill:none;stroke:#000000;stroke-width:0.5" />
<path d="M62.364,155L70.364,155" style="fill:none;stroke:#000000;stroke-width:0.5" />
<path d="M62.364,271.5L70.364,271.5" style="fill:none;stroke:#000000;stroke-width:0.5" />
<path d="M62.364,278.56L70.364,278.56" style="fill:none;stroke:#000000;stroke-width:0.5" />
<path d="M70.364,38.48L70.364,278.56" style="fill:none;stroke:#000000;stroke-width:0.5" />
<path d="M76.114,38.48L76.892,43.642L77.669,45.917L78.447,48.42L79.225,48.859L80.002,49.126L80.78,49.553L81.557,49.704L82.335,50.137L83.113,50.364L83.89,50.775L84.668,50.576L85.445,51.286L86.223,51.817L87.001,51.925L87.778,52.037L88.556,52.724L89.334,54.425L90.111,54.506L90.889,54.762L91.666,54.657L92.444,54.635L93.222,54.264L93.999,54.878L94.777,54.635L95.554,54.885L96.332,54.815L97.11,54.686L97.887,54.728L98.665,54.782L99.442,54.841L100.22,54.849L101,54.908L101.78,54.846L102.55,54.626L103.33,54.626L104.11,54.857L104.89,54.967L105.66,54.971L106.44,54.774L107.22,54.662L108,54.815L108.77,54.848L109.55,54.771L110.33,54.889L111.11,54.808L111.88,54.725L112.66,54.821L113.44,54.909L114.22,54.783L114.99,54.8L115.77,54.954L116.55,54.922L117.33,54.867L118.1,54.844L118.88,54.982L119.66,55.028L120.44,55.02L121.22,55.021L121.99,54.722L122.77,54.891L123.55,55.213L124.33,54.828L125.1,54.804L125.88,54.88L126.66,54.894L127.44,55.059L128.21,54.977L128.99,54.841L129.77,55.053L130.55,55.019L131.32,54.686L132.1,54.247L132.88,55.046L133.66,54.951L134.43,54.909L135.21,54.775L135.99,54.77L136.77,54.782L137.54,54.938L138.32,54.982L139.1,54.913L139.88,54.94L140.66,54.82L141.43,54.934L142.21,54.942L142.99,54.921L143.77,54.896L144.54,54.933L145.32,54.947L146.1,54.929L146.88,54.822L147.65,54.875L148.43,55.009L149.21,54.841L149.99,54.797L150.76,54.735L151.54,54.851L152.32,54.977L153.1,54.991L153.87,54.813L154.65,54.968L155.43,54.876L156.21,54.98L156.98,54.976L157.76,54.843L158.54,54.955L159.32,54.959L160.1,54.919L160.87,54.762L161.65,54.685L162.43,55.015L163.21,55.03L163.98,54.662L164.76,54.83L165.54,54.854L166.32,54.964L167.09,54.926L167.87,54.949L168.65,54.87L169.43,54.899L170.2,54.943L170.98,55.016L171.76,54.991L172.54,54.91L173.31,54.959L174.09,54.881L174.87,55.045L175.65,54.969L176.43,54.627L177.2,54.866L177.98,54.972L178.76,54.891L179.54,54.804L180.31,54.605L181.09,55.098L181.87,54.822L182.65,55.02L183.42,54.673L184.2,54.772L184.98,54.967L185.76,54.823L186.53,54.943L187.31,54.883L188.09,55.004L188.87,54.815L189.64,54.519L190.42,54.681L191.2,54.879L191.98,54.924L192.75,54.854L193.53,54.873L194.31,54.717L195.09,54.995L195.87,54.94L196.64,54.936L197.42,54.8L198.2,54.757L198.98,54.934L199.75,54.863L200.53,54.845L201.31,54.916L202.09,54.789L202.86,54.918L203.64,54.988L204.42,54.892L205.2,54.806L205.97,54.913L206.75,55.008L207.53,54.919L208.31,55.006L209.08,54.753L209.86,55.056L210.64,55.036L211.42,54.83L212.19,54.895L212.97,54.62L213.75,54.858L214.53,54.676L215.31,54.92L216.08,54.898L216.86,54.914L217.64,54.963L218.42,54.277L219.19,54.943L219.97,54.929L220.75,54.946L221.53,54.803L222.3,55.053L223.08,54.617L223.86,54.944L224.64,54.712L225.41,54.855L226.19,54.527L226.97,54.731L227.75,54.302L228.52,54.469L229.3,54.629L230.08,54.701L230.86,54.547L231.63,54.87L232.41,54.549L233.19,54.729L233.97,54.485L234.75,54.804L235.52,54.588L236.3,54.818L237.08,54.452L237.86,54.638L238.63,54.748L239.41,54.687L240.19,54.712L240.97,54.711L241.74,54.495L242.52,54.733L243.3,54.803L244.08,54.98L244.85,54.669L245.63,55.027L246.41,54.948L247.19,54.374L247.96,54.658L248.74,55.011L249.52,54.863L250.3,54.758L251.07,54.977L251.85,54.881L252.63,54.95L253.41,54.939L254.19,55.008L254.96,54.875L255.74,54.836L256.52,54.849L257.3,54.882L258.07,55.017L258.85,54.857L259.63,54.965L260.41,54.949L261.18,54.959L261.96,54.992L262.74,54.934L263.52,54.902L264.29,55.048L265.07,54.717L265.85,54.898L266.63,54.568L267.4,54.994L268.18,54.866L268.96,54.89L269.74,55L270.51,54.826L271.29,55.013L272.07,54.787L272.85,54.97L273.63,54.969L274.4,54.916L275.18,54.958L275.96,54.967L276.74,54.721L277.51,54.737L278.29,54.557L279.07,54.47L279.85,54.143L280.62,54.494L281.4,54.602L282.18,54.647L282.96,54.793L283.73,54.543L284.51,54.467L285.29,54.634L286.07,54.64L286.84,54.539L287.62,54.638L288.4,54.637L289.18,54.73L289.95,54.644L290.73,54.688L291.51,54.557L292.29,54.691L293.07,54.748L293.84,54.622L294.62,54.654L295.4,54.279L296.18,55.104L296.95,54.989L297.73,55.041L298.51,54.97L299.29,54.897L300.06,55.041L300.84,54.872L301.62,54.9L302.4,54.96L303.17,54.791L303.95,55.006L304.73,54.425L305.51,54.688L306.28,54.886L307.06,54.961L307.84,54.827L308.62,54.694L309.4,54.832L310.17,54.693L310.95,54.964L311.73,54.918L312.51,54.921L313.28,54.825L314.06,54.995L314.84,54.846L315.62,55.006L316.39,54.797L317.17,54.911L317.95,54.967L318.73,55.002L319.5,54.868L320.28,54.779L321.06,55.044L321.84,54.785L322.61,54.924L323.39,54.69L324.17,54.879L324.95,55.011L325.72,55.017L326.5,54.85L327.28,54.911L328.06,54.743L328.84,54.939L329.61,55.02L330.39,54.898L331.17,54.909L331.95,54.72L332.72,54.983L333.5,54.81L334.28,54.927L335.06,55.008L335.83,54.934L336.61,54.676L337.39,54.788L338.17,54.78L338.94,54.919L339.72,55.091L340.5,55.111L341.28,54.901L342.05,54.748L342.83,54.965L343.61,54.768L344.39,54.932L345.16,54.911L345.94,54.801L346.72,54.978L347.5,55.001L348.28,54.789L349.05,54.887L349.83,54.961L350.61,54.881L351.39,54.88L352.16,54.887L352.94,54.942L353.72,54.677L354.5,54.925L355.27,54.867L356.05,55.08L356.83,54.907L357.61,54.803L358.38,54.914L359.16,54.842L359.94,55.054L360.72,54.827L361.49,54.936L362.27,54.427L363.05,54.822L363.83,54.855L364.6,55.096L365.38,54.808L366.16,54.773L366.94,54.788L367.72,54.929L368.49,55.036L369.27,55.035L370.05,54.89L370.83,54.794L371.6,54.893L372.38,54.97L373.16,54.912L373.94,54.917L374.71,54.842L375.49,54.692L376.27,54.676L377.05,54.855L377.82,54.928L378.6,55.002L379.38,54.893L380.16,54.792L380.93,54.874L381.71,54.733L382.49,54.831L383.27,55.045L384.04,54.886L384.82,54.937L385.6,54.923L386.38,54.986L387.16,54.865L387.93,55.042L388.71,54.923L389.49,54.724L390.27,54.692L391.04,54.859L391.82,54.669L392.6,54.886L393.38,54.939L394.15,54.791L394.93,55.019L395.71,54.876L396.49,54.967L397.26,54.815L398.04,54.98L398.82,54.851L399.6,54.801L400.37,55.069L401.15,57.515L401.31,278.56" style="fill:none;stroke:#F15A60" />
<path d="M405.2,277.58L425.2,277.58" style="fill:none;stroke:#F15A60" />
<text x="340.9" y="-271.91" transform="scale(1, -1)"
	style="font-family:Times;font-weight:normal;font-style:normal;font-size:12px">random-read</text>
</g>
</svg>
