<?xml version="1.0"?>
<!-- Generated by SVGo and Plotinum VG -->
<svg width="425.2pt" height="283.46pt" viewBox="0 0 425.2 283.46"
	xmlns="http://www.w3.org/2000/svg"
	xmlns:xlink="http://www.w3.org/1999/xlink">
<g transform="scale(1, -1) translate(0, -283.46)">
<path d="M0,0L425.2,0L425.2,283.46L0,283.46Z" style="fill:#FFFFFF" />
<text x="209.96" y="-3.9023" transform="scale(1, -1)"
	style="font-family:Liberation Serif;font-variant:normal;font-weight:normal;font-style:normal;font-size:12px">database size</text>
<text x="65.682" y="-16.541" transform="scale(1, -1)"
	style="font-family:Liberation Serif;font-variant:normal;font-weight:normal;font-style:normal;font-size:10px">4.00 mb</text>
<text x="140.83" y="-16.541" transform="scale(1, -1)"
	style="font-family:Liberation Serif;font-variant:normal;font-weight:normal;font-style:normal;font-size:10px">260.00 mb</text>
<text x="220.98" y="-16.541" transform="scale(1, -1)"
	style="font-family:Liberation Serif;font-variant:normal;font-weight:normal;font-style:normal;font-size:10px">516.00 mb</text>
<text x="301.13" y="-16.541" transform="scale(1, -1)"
	style="font-family:Liberation Serif;font-variant:normal;font-weight:normal;font-style:normal;font-size:10px">772.00 mb</text>
<text x="377.42" y="-16.541" transform="scale(1, -1)"
	style="font-family:Liberation Serif;font-variant:normal;font-weight:normal;font-style:normal;font-size:10px">1023.64 mb</text>
<path d="M82.071,24.363L82.071,32.363" style="fill:none;stroke:#000000;stroke-width:0.5" />
<path d="M162.22,24.363L162.22,32.363" style="fill:none;stroke:#000000;stroke-width:0.5" />
<path d="M242.37,24.363L242.37,32.363" style="fill:none;stroke:#000000;stroke-width:0.5" />
<path d="M322.52,24.363L322.52,32.363" style="fill:none;stroke:#000000;stroke-width:0.5" />
<path d="M401.31,24.363L401.31,32.363" style="fill:none;stroke:#000000;stroke-width:0.5" />
<path d="M81.583,32.363L401.31,32.363" style="fill:none;stroke:#000000;stroke-width:0.5" />
<g transform="rotate(90)">
<text x="145.41" y="9.3867" transform="scale(1, -1)"
	style="font-family:Liberation Serif;font-variant:normal;font-weight:normal;font-style:normal;font-size:12px">speed</text>
</g>
<text x="25.885" y="-37.924" transform="scale(1, -1)"
	style="font-family:Liberation Serif;font-variant:normal;font-weight:normal;font-style:normal;font-size:10px">0.03 mb/s</text>
<text x="20.885" y="-112.12" transform="scale(1, -1)"
	style="font-family:Liberation Serif;font-variant:normal;font-weight:normal;font-style:normal;font-size:10px">32.03 mb/s</text>
<text x="20.885" y="-186.32" transform="scale(1, -1)"
	style="font-family:Liberation Serif;font-variant:normal;font-weight:normal;font-style:normal;font-size:10px">64.03 mb/s</text>
<text x="20.885" y="-260.52" transform="scale(1, -1)"
	style="font-family:Liberation Serif;font-variant:normal;font-weight:normal;font-style:normal;font-size:10px">96.03 mb/s</text>
<text x="15.885" y="-275.64" transform="scale(1, -1)"
	style="font-family:Liberation Serif;font-variant:normal;font-weight:normal;font-style:normal;font-size:10px">102.55 mb/s</text>
<path d="M67.833,40.209L75.833,40.209" style="fill:none;stroke:#000000;stroke-width:0.5" />
<path d="M67.833,114.41L75.833,114.41" style="fill:none;stroke:#000000;stroke-width:0.5" />
<path d="M67.833,188.61L75.833,188.61" style="fill:none;stroke:#000000;stroke-width:0.5" />
<path d="M67.833,262.81L75.833,262.81" style="fill:none;stroke:#000000;stroke-width:0.5" />
<path d="M67.833,277.93L75.833,277.93" style="fill:none;stroke:#000000;stroke-width:0.5" />
<path d="M75.833,40.209L75.833,277.93" style="fill:none;stroke:#000000;stroke-width:0.5" />
<path d="M81.583,40.209L82.348,43.822L83.112,47.002L83.877,46.978L84.641,47.29L85.406,47.331L86.17,47.407L86.935,47.56L87.699,47.651L88.464,47.937L89.228,48.017L89.993,49.763L90.757,49.725L91.522,49.825L92.286,49.785L93.051,49.675L93.815,49.797L94.58,49.854L95.344,49.814L96.109,49.762L96.874,49.856L97.638,49.802L98.403,49.716L99.167,49.617L99.932,49.633L100.7,49.104L101.46,48.908L102.23,48.877L102.99,48.806L103.75,48.917L104.52,49.303L105.28,49.339L106.05,49.276L106.81,49.177L107.58,49.062L108.34,49.219L109.11,49.169L109.87,49.308L110.63,49.158L111.4,49.24L112.16,49.197L112.93,48.756L113.69,49.324L114.46,49.168L115.22,49.228L115.99,48.748L116.75,49.416L117.52,49.299L118.28,48.808L119.04,48.85L119.81,48.944L120.57,48.699L121.34,49.093L122.1,48.846L122.87,48.943L123.63,48.999L124.4,49.258L125.16,49.289L125.93,49.191L126.69,49.244L127.45,49.379L128.22,49.384L128.98,49.259L129.75,49.049L130.51,49.25L131.28,49.341L132.04,49.364L132.81,49.147L133.57,49.163L134.34,49.167L135.1,49.163L135.86,48.683L136.63,48.722L137.39,49.133L138.16,49.159L138.92,49.333L139.69,49.09L140.45,49.234L141.22,49.267L141.98,49.206L142.75,49.047L143.51,49.245L144.27,49.207L145.04,49.27L145.8,49.352L146.57,49.391L147.33,49.54L148.1,49.302L148.86,49.113L149.63,48.983L150.39,48.819L151.15,49.303L151.92,49.073L152.68,48.917L153.45,49.309L154.21,49.301L154.98,49.267L155.74,49.331L156.51,49.283L157.27,49.462L158.04,49.286L158.8,49.397L159.56,49.34L160.33,49.063L161.09,49.451L161.86,49.32L162.62,48.9L163.39,49.209L164.15,49.318L164.92,49.255L165.68,49.54L166.45,49.096L167.21,49.146L167.97,48.768L168.74,48.851L169.5,48.918L170.27,49.172L171.03,48.957L171.8,48.872L172.56,49.095L173.33,49.28L174.09,49.39L174.86,49.226L175.62,49.516L176.38,49.38L177.15,49.439L177.91,49.363L178.68,49.217L179.44,49.46L180.21,49.201L180.97,49.482L181.74,49.426L182.5,49.203L183.26,49.844L184.03,49.709L184.79,49.502L185.56,49.861L186.32,49.9L187.09,50.028L187.85,49.989L188.62,50.031L189.38,50.05L190.15,49.958L190.91,49.919L191.67,49.93L192.44,50.103L193.2,50.113L193.97,50.209L194.73,49.934L195.5,49.912L196.26,49.886L197.03,49.999L197.79,50.044L198.56,49.901L199.32,50.182L200.08,50.11L200.85,50.037L201.61,49.983L202.38,50.055L203.14,50.167L203.91,50.118L204.67,50.001L205.44,50.025L206.2,50.028L206.97,50.033L207.73,50.137L208.49,50.074L209.26,50.039L210.02,50.124L210.79,50.241L211.55,50.106L212.32,50.15L213.08,49.854L213.85,50.223L214.61,50.074L215.38,50.176L216.14,50.18L216.9,50.451L217.67,50.383L218.43,50.113L219.2,50.309L219.96,50.405L220.73,50.04L221.49,50.115L222.26,50.13L223.02,50.27L223.78,50.403L224.55,50.321L225.31,50.18L226.08,50.271L226.84,50.319L227.61,50.293L228.37,50.316L229.14,50.534L229.9,50.487L230.67,50.306L231.43,50.308L232.19,50.358L232.96,50.754L233.72,50.638L234.49,50.565L235.25,50.765L236.02,50.783L236.78,50.467L237.55,50.412L238.31,50.572L239.08,50.645L239.84,50.606L240.6,50.69L241.37,50.629L242.13,50.619L242.9,50.688L243.66,50.516L244.43,50.722L245.19,50.695L245.96,50.641L246.72,50.387L247.49,50.35L248.25,50.208L249.01,50.185L249.78,50.209L250.54,50.147L251.31,50.169L252.07,50.043L252.84,49.715L253.6,49.64L254.37,49.48L255.13,49.306L255.89,49.23L256.66,49.737L257.42,50.122L258.19,50.093L258.95,50.005L259.72,50.061L260.48,50.223L261.25,50.199L262.01,50L262.78,50.107L263.54,50.145L264.3,50.164L265.07,50.203L265.83,49.613L266.6,50.066L267.36,49.675L268.13,50.23L268.89,49.838L269.66,49.996L270.42,50.277L271.19,50.054L271.95,49.899L272.71,49.717L273.48,50L274.24,49.66L275.01,49.769L275.77,49.884L276.54,50.057L277.3,49.724L278.07,50.377L278.83,50.378L279.6,50.259L280.36,50.165L281.12,50.155L281.89,50.251L282.65,50.366L283.42,50.442L284.18,50.661L284.95,50.437L285.71,50.517L286.48,50.307L287.24,50.312L288,50.412L288.77,50.53L289.53,50.558L290.3,50.341L291.06,50.186L291.83,50.101L292.59,50.232L293.36,50.554L294.12,50.488L294.89,50.394L295.65,50.692L296.41,50.611L297.18,50.556L297.94,50.583L298.71,50.471L299.47,50.65L300.24,50.536L301,50.875L301.77,50.562L302.53,50.765L303.3,50.856L304.06,50.935L304.82,50.312L305.59,50.861L306.35,50.669L307.12,50.597L307.88,50.518L308.65,50.665L309.41,50.642L310.18,50.476L310.94,50.586L311.71,51.093L312.47,51.032L313.23,50.986L314,51.091L314.76,51.223L315.53,51.42L316.29,51.344L317.06,51.486L317.82,51.569L318.59,51.391L319.35,51.42L320.12,51.412L320.88,51.314L321.64,51.366L322.41,51.556L323.17,51.121L323.94,51.841L324.7,51.781L325.47,51.801L326.23,51.792L327,51.642L327.76,51.632L328.52,51.402L329.29,51.563L330.05,51.494L330.82,51.477L331.58,51.593L332.35,51.609L333.11,52.035L333.88,51.875L334.64,51.493L335.41,51.558L336.17,52.152L336.93,51.982L337.7,52.2L338.46,52.407L339.23,52.619L339.99,52.514L340.76,52.681L341.52,52.901L342.29,53.001L343.05,52.807L343.82,52.921L344.58,52.507L345.34,52.682L346.11,52.94L346.87,53.248L347.64,53.415L348.4,53.437L349.17,53.049L349.93,53.926L350.7,53.877L351.46,53.568L352.23,53.411L352.99,53.748L353.75,54.026L354.52,54.257L355.28,54.546L356.05,54.687L356.81,54.551L357.58,54.59L358.34,54.47L359.11,54.409L359.87,54.579L360.63,54.617L361.4,54.824L362.16,55.225L362.93,55.202L363.69,55.286L364.46,55.195L365.22,54.947L365.99,55.124L366.75,55.349L367.52,55.661L368.28,55.713L369.04,55.261L369.81,55.461L370.57,55.696L371.34,56.066L372.1,56.268L372.87,56.355L373.63,56.637L374.4,56.514L375.16,56.562L375.93,56.054L376.69,56.372L377.45,56.39L378.22,57.186L378.98,57.587L379.75,57.647L380.51,57.421L381.28,57.538L382.04,57.464L382.81,57.343L383.57,57.458L384.34,57.446L385.1,57.55L385.86,58.087L386.63,58.831L387.39,59.453L388.16,59.01L388.92,59.303L389.69,59.37L390.45,59.28L391.22,59.218L391.98,59.254L392.75,59.23L393.51,59.5L394.27,60.516L395.04,61.948L395.8,62.352L396.57,62.393L397.33,62.52L398.1,62.337L398.86,62.259L399.63,62.592L400.39,66.384L401.15,120.7L401.31,277.93" style="fill:none;stroke:#F15A60" />
<path d="M405.2,275.78L425.2,275.78" style="fill:none;stroke:#F15A60" />
<text x="313.58" y="-273.29" transform="scale(1, -1)"
	style="font-family:Liberation Serif;font-variant:normal;font-weight:normal;font-style:normal;font-size:12px">random-read-filter</text>
</g>
</svg>
