<?xml version="1.0"?>
<!-- Generated by SVGo and Plotinum VG -->
<svg width="425.2pt" height="283.46pt" viewBox="0 0 425.2 283.46"
	xmlns="http://www.w3.org/2000/svg"
	xmlns:xlink="http://www.w3.org/1999/xlink">
<g transform="scale(1, -1) translate(0, -283.46)">
<path d="M0,0L425.2,0L425.2,283.46L0,283.46Z" style="fill:#FFFFFF" />
<text x="207.23" y="-3.8613" transform="scale(1, -1)"
	style="font-family:Times;font-weight:normal;font-style:normal;font-size:12px">database size</text>
<text x="60.221" y="-15.602" transform="scale(1, -1)"
	style="font-family:Times;font-weight:normal;font-style:normal;font-size:10px">4.00 mb</text>
<text x="136.74" y="-15.602" transform="scale(1, -1)"
	style="font-family:Times;font-weight:normal;font-style:normal;font-size:10px">260.00 mb</text>
<text x="218.26" y="-15.602" transform="scale(1, -1)"
	style="font-family:Times;font-weight:normal;font-style:normal;font-size:10px">516.00 mb</text>
<text x="299.79" y="-15.602" transform="scale(1, -1)"
	style="font-family:Times;font-weight:normal;font-style:normal;font-size:10px">772.00 mb</text>
<text x="377.42" y="-15.602" transform="scale(1, -1)"
	style="font-family:Times;font-weight:normal;font-style:normal;font-size:10px">1023.64 mb</text>
<path d="M76.61,25.23L76.61,33.23" style="fill:none;stroke:#000000;stroke-width:0.5" />
<path d="M158.13,25.23L158.13,33.23" style="fill:none;stroke:#000000;stroke-width:0.5" />
<path d="M239.65,25.23L239.65,33.23" style="fill:none;stroke:#000000;stroke-width:0.5" />
<path d="M321.18,25.23L321.18,33.23" style="fill:none;stroke:#000000;stroke-width:0.5" />
<path d="M401.31,25.23L401.31,33.23" style="fill:none;stroke:#000000;stroke-width:0.5" />
<path d="M76.114,33.23L401.31,33.23" style="fill:none;stroke:#000000;stroke-width:0.5" />
<g transform="rotate(90)">
<text x="144.86" y="11.555" transform="scale(1, -1)"
	style="font-family:Times;font-weight:normal;font-style:normal;font-size:12px">speed</text>
</g>
<text x="20.416" y="-33.762" transform="scale(1, -1)"
	style="font-family:Times;font-weight:normal;font-style:normal;font-size:10px">0.03 mb/s</text>
<text x="15.416" y="-115.61" transform="scale(1, -1)"
	style="font-family:Times;font-weight:normal;font-style:normal;font-size:10px">32.03 mb/s</text>
<text x="15.416" y="-197.45" transform="scale(1, -1)"
	style="font-family:Times;font-weight:normal;font-style:normal;font-size:10px">64.03 mb/s</text>
<text x="15.416" y="-273.84" transform="scale(1, -1)"
	style="font-family:Times;font-weight:normal;font-style:normal;font-size:10px">93.90 mb/s</text>
<path d="M62.364,38.483L70.364,38.483" style="fill:none;stroke:#000000;stroke-width:0.5" />
<path d="M62.364,120.33L70.364,120.33" style="fill:none;stroke:#000000;stroke-width:0.5" />
<path d="M62.364,202.17L70.364,202.17" style="fill:none;stroke:#000000;stroke-width:0.5" />
<path d="M62.364,278.56L70.364,278.56" style="fill:none;stroke:#000000;stroke-width:0.5" />
<path d="M70.364,38.48L70.364,278.56" style="fill:none;stroke:#000000;stroke-width:0.5" />
<path d="M76.114,38.48L76.892,43.089L77.669,44.926L78.447,47.178L79.225,47.387L80.002,48.279L80.78,48.315L81.557,48.758L82.335,48.721L83.113,48.504L83.89,49.007L84.668,48.87L85.445,49.44L86.223,49.424L87.001,49.293L87.778,52.342L88.556,52.277L89.334,51.947L90.111,52.369L90.889,52.602L91.666,52.498L92.444,52.344L93.222,52.381L93.999,52.186L94.777,52.612L95.554,52.581L96.332,52.937L97.11,52.497L97.887,52.759L98.665,52.544L99.442,52.417L100.22,52.579L101,52.654L101.78,52.525L102.55,52.597L103.33,53.035L104.11,52.782L104.89,52.712L105.66,52.596L106.44,52.615L107.22,52.72L108,52.791L108.77,52.933L109.55,52.608L110.33,52.377L111.11,52.555L111.88,52.379L112.66,52.801L113.44,52.863L114.22,52.652L114.99,52.591L115.77,52.663L116.55,52.424L117.33,52.466L118.1,52.663L118.88,52.296L119.66,52.791L120.44,52.567L121.22,52.746L121.99,53.021L122.77,52.751L123.55,52.466L124.33,52.704L125.1,52.626L125.88,52.739L126.66,52.916L127.44,52.868L128.21,52.401L128.99,52.668L129.77,52.723L130.55,53.04L131.32,52.954L132.1,52.872L132.88,52.629L133.66,52.695L134.43,52.823L135.21,52.623L135.99,52.897L136.77,52.668L137.54,52.775L138.32,52.96L139.1,52.711L139.88,52.711L140.66,52.641L141.43,52.585L142.21,52.783L142.99,52.743L143.77,52.84L144.54,52.688L145.32,52.755L146.1,52.497L146.88,52.864L147.65,52.761L148.43,52.637L149.21,53.053L149.99,52.732L150.76,52.405L151.54,52.905L152.32,52.504L153.1,52.321L153.87,52.896L154.65,52.608L155.43,52.803L156.21,52.571L156.98,52.488L157.76,52.674L158.54,52.767L159.32,52.662L160.1,52.303L160.87,52.44L161.65,52.699L162.43,53.054L163.21,52.863L163.98,52.456L164.76,52.565L165.54,52.885L166.32,52.927L167.09,52.773L167.87,52.85L168.65,52.789L169.43,52.441L170.2,52.55L170.98,52.622L171.76,52.909L172.54,52.948L173.31,52.859L174.09,52.814L174.87,53L175.65,52.827L176.43,52.905L177.2,52.31L177.98,52.733L178.76,52.744L179.54,52.717L180.31,52.832L181.09,53.006L181.87,52.569L182.65,52.521L183.42,52.612L184.2,52.79L184.98,53.209L185.76,53.059L186.53,53.017L187.31,53.069L188.09,52.824L188.87,52.808L189.64,52.808L190.42,52.864L191.2,53.179L191.98,52.968L192.75,52.969L193.53,52.736L194.31,52.822L195.09,52.783L195.87,52.74L196.64,52.67L197.42,53.032L198.2,52.852L198.98,53.054L199.75,53.02L200.53,52.771L201.31,52.636L202.09,53.172L202.86,53.011L203.64,53.133L204.42,52.881L205.2,53.055L205.97,53.041L206.75,52.867L207.53,53.094L208.31,53.158L209.08,53.106L209.86,53.329L210.64,53.228L211.42,53.243L212.19,53.354L212.97,53.152L213.75,53.098L214.53,53.152L215.31,53.031L216.08,53.268L216.86,53.183L217.64,52.992L218.42,53.11L219.19,52.876L219.97,52.905L220.75,53.237L221.53,53.31L222.3,53.354L223.08,53.244L223.86,53.251L224.64,53.139L225.41,53.167L226.19,53.437L226.97,53.222L227.75,53.437L228.52,53.496L229.3,53.645L230.08,53.188L230.86,53.63L231.63,53.608L232.41,52.894L233.19,53.589L233.97,53.575L234.75,53.812L235.52,53.864L236.3,53.685L237.08,53.885L237.86,53.769L238.63,53.836L239.41,53.83L240.19,53.971L240.97,54.008L241.74,53.974L242.52,53.853L243.3,53.42L244.08,53.136L244.85,53.469L245.63,53.303L246.41,53.471L247.19,53.871L247.96,53.995L248.74,54.016L249.52,53.825L250.3,53.97L251.07,53.798L251.85,53.882L252.63,53.655L253.41,54.07L254.19,53.855L254.96,53.857L255.74,53.616L256.52,54.02L257.3,53.674L258.07,53.625L258.85,53.585L259.63,54.048L260.41,53.686L261.18,53.417L261.96,54.122L262.74,53.729L263.52,53.623L264.29,54.164L265.07,53.855L265.85,54.189L266.63,53.843L267.4,53.72L268.18,54.067L268.96,53.644L269.74,54.2L270.51,53.549L271.29,53.813L272.07,54.061L272.85,53.72L273.63,53.855L274.4,53.968L275.18,53.605L275.96,53.735L276.74,53.887L277.51,54.215L278.29,54.257L279.07,53.823L279.85,54.078L280.62,54.172L281.4,54.181L282.18,54.252L282.96,54.24L283.73,54.328L284.51,54.152L285.29,54.042L286.07,54.038L286.84,54.071L287.62,54.037L288.4,54.341L289.18,54.476L289.95,54.763L290.73,54.272L291.51,54.337L292.29,54.708L293.07,54.815L293.84,54.669L294.62,54.303L295.4,54.548L296.18,54.402L296.95,53.819L297.73,53.982L298.51,55.011L299.29,54.835L300.06,54.971L300.84,54.895L301.62,54.23L302.4,53.988L303.17,54.599L303.95,54.826L304.73,55.397L305.51,55.229L306.28,55.072L307.06,55.344L307.84,55.113L308.62,55.166L309.4,55.119L310.17,54.822L310.95,54.459L311.73,54.703L312.51,55.645L313.28,55.674L314.06,55.713L314.84,55.449L315.62,55.545L316.39,55.637L317.17,55.428L317.95,55.593L318.73,55.754L319.5,55.685L320.28,55.633L321.06,55.677L321.84,55.483L322.61,55.692L323.39,55.474L324.17,55.792L324.95,55.922L325.72,55.784L326.5,56.012L327.28,55.835L328.06,55.729L328.84,56.354L329.61,56.478L330.39,56.73L331.17,56.791L331.95,56.512L332.72,56.769L333.5,56.314L334.28,56.821L335.06,56.39L335.83,56.517L336.61,56.798L337.39,56.905L338.17,57.15L338.94,56.766L339.72,57.07L340.5,57.32L341.28,57.156L342.05,57.474L342.83,57.383L343.61,57.121L344.39,57.48L345.16,57.598L345.94,57.824L346.72,57.615L347.5,57.911L348.28,58.071L349.05,57.952L349.83,58.273L350.61,57.934L351.39,57.898L352.16,58.439L352.94,57.969L353.72,58.333L354.5,58.498L355.27,58.61L356.05,58.548L356.83,58.074L357.61,58.696L358.38,58.552L359.16,58.813L359.94,58.764L360.72,58.577L361.49,58.942L362.27,59.282L363.05,58.912L363.83,59.631L364.6,59.642L365.38,59.685L366.16,59.847L366.94,59.651L367.72,59.481L368.49,59.566L369.27,59.847L370.05,60.552L370.83,60.465L371.6,60.385L372.38,60.68L373.16,61.002L373.94,60.963L374.71,61.065L375.49,61.11L376.27,61.369L377.05,61.105L377.82,61.425L378.6,62.542L379.38,62.791L380.16,63.111L380.93,62.276L381.71,62.328L382.49,62.992L383.27,62.978L384.04,62.753L384.82,62.036L385.6,63.321L386.38,63.884L387.16,63.606L387.93,64.088L388.71,63.813L389.49,63.451L390.27,63.633L391.04,64.49L391.82,63.566L392.6,63.386L393.38,63.26L394.15,65.579L394.93,67.303L395.71,67.595L396.49,68.648L397.26,68.034L398.04,68.354L398.82,68.361L399.6,68.442L400.37,72.102L401.15,121.55L401.31,278.56" style="fill:none;stroke:#F15A60" />
<path d="M405.2,277.58L425.2,277.58" style="fill:none;stroke:#F15A60" />
<text x="294.26" y="-271.91" transform="scale(1, -1)"
	style="font-family:Times;font-weight:normal;font-style:normal;font-size:12px">random-read-bigcache</text>
</g>
</svg>
