<?xml version="1.0"?>
<!-- Generated by SVGo and Plotinum VG -->
<svg width="425.2pt" height="283.46pt" viewBox="0 0 425.2 283.46"
	xmlns="http://www.w3.org/2000/svg"
	xmlns:xlink="http://www.w3.org/1999/xlink">
<g transform="scale(1, -1) translate(0, -283.46)">
<path d="M0,0L425.2,0L425.2,283.46L0,283.46Z" style="fill:#FFFFFF" />
<text x="209.96" y="-3.9023" transform="scale(1, -1)"
	style="font-family:Liberation Serif;font-variant:normal;font-weight:normal;font-style:normal;font-size:12px">database size</text>
<text x="65.682" y="-16.541" transform="scale(1, -1)"
	style="font-family:Liberation Serif;font-variant:normal;font-weight:normal;font-style:normal;font-size:10px">4.00 mb</text>
<text x="140.83" y="-16.541" transform="scale(1, -1)"
	style="font-family:Liberation Serif;font-variant:normal;font-weight:normal;font-style:normal;font-size:10px">260.00 mb</text>
<text x="220.98" y="-16.541" transform="scale(1, -1)"
	style="font-family:Liberation Serif;font-variant:normal;font-weight:normal;font-style:normal;font-size:10px">516.00 mb</text>
<text x="301.13" y="-16.541" transform="scale(1, -1)"
	style="font-family:Liberation Serif;font-variant:normal;font-weight:normal;font-style:normal;font-size:10px">772.00 mb</text>
<text x="377.42" y="-16.541" transform="scale(1, -1)"
	style="font-family:Liberation Serif;font-variant:normal;font-weight:normal;font-style:normal;font-size:10px">1023.64 mb</text>
<path d="M82.071,24.363L82.071,32.363" style="fill:none;stroke:#000000;stroke-width:0.5" />
<path d="M162.22,24.363L162.22,32.363" style="fill:none;stroke:#000000;stroke-width:0.5" />
<path d="M242.37,24.363L242.37,32.363" style="fill:none;stroke:#000000;stroke-width:0.5" />
<path d="M322.52,24.363L322.52,32.363" style="fill:none;stroke:#000000;stroke-width:0.5" />
<path d="M401.31,24.363L401.31,32.363" style="fill:none;stroke:#000000;stroke-width:0.5" />
<path d="M81.583,32.363L401.31,32.363" style="fill:none;stroke:#000000;stroke-width:0.5" />
<g transform="rotate(90)">
<text x="145.41" y="9.3867" transform="scale(1, -1)"
	style="font-family:Liberation Serif;font-variant:normal;font-weight:normal;font-style:normal;font-size:12px">speed</text>
</g>
<text x="25.885" y="-37.926" transform="scale(1, -1)"
	style="font-family:Liberation Serif;font-variant:normal;font-weight:normal;font-style:normal;font-size:10px">0.03 mb/s</text>
<text x="20.885" y="-111.65" transform="scale(1, -1)"
	style="font-family:Liberation Serif;font-variant:normal;font-weight:normal;font-style:normal;font-size:10px">32.03 mb/s</text>
<text x="20.885" y="-185.38" transform="scale(1, -1)"
	style="font-family:Liberation Serif;font-variant:normal;font-weight:normal;font-style:normal;font-size:10px">64.03 mb/s</text>
<text x="20.885" y="-259.11" transform="scale(1, -1)"
	style="font-family:Liberation Serif;font-variant:normal;font-weight:normal;font-style:normal;font-size:10px">96.03 mb/s</text>
<text x="15.885" y="-275.64" transform="scale(1, -1)"
	style="font-family:Liberation Serif;font-variant:normal;font-weight:normal;font-style:normal;font-size:10px">103.21 mb/s</text>
<path d="M67.833,40.211L75.833,40.211" style="fill:none;stroke:#000000;stroke-width:0.5" />
<path d="M67.833,113.94L75.833,113.94" style="fill:none;stroke:#000000;stroke-width:0.5" />
<path d="M67.833,187.67L75.833,187.67" style="fill:none;stroke:#000000;stroke-width:0.5" />
<path d="M67.833,261.4L75.833,261.4" style="fill:none;stroke:#000000;stroke-width:0.5" />
<path d="M67.833,277.93L75.833,277.93" style="fill:none;stroke:#000000;stroke-width:0.5" />
<path d="M75.833,40.209L75.833,277.93" style="fill:none;stroke:#000000;stroke-width:0.5" />
<path d="M81.583,40.209L82.348,43.076L83.112,44.649L83.877,46.992L84.641,47.457L85.406,47.44L86.17,47.527L86.935,47.583L87.699,47.747L88.464,47.84L89.228,48.541L89.993,49.424L90.757,49.613L91.522,49.604L92.286,49.559L93.051,49.483L93.815,49.47L94.58,49.49L95.344,49.515L96.109,49.535L96.874,49.678L97.638,49.713L98.403,49.725L99.167,49.772L99.932,49.761L100.7,49.675L101.46,49.608L102.23,49.604L102.99,49.785L103.75,49.805L104.52,49.652L105.28,49.625L106.05,49.602L106.81,49.72L107.58,49.784L108.34,49.765L109.11,49.747L109.87,49.747L110.63,49.615L111.4,49.621L112.16,49.603L112.93,49.588L113.69,49.546L114.46,49.646L115.22,49.82L115.99,49.842L116.75,49.799L117.52,49.832L118.28,49.747L119.04,49.763L119.81,49.642L120.57,49.569L121.34,49.548L122.1,49.519L122.87,49.709L123.63,49.774L124.4,49.74L125.16,49.623L125.93,49.612L126.69,49.647L127.45,49.747L128.22,49.771L128.98,49.608L129.75,49.836L130.51,49.742L131.28,49.696L132.04,49.606L132.81,49.702L133.57,49.77L134.34,49.706L135.1,49.516L135.86,49.572L136.63,49.657L137.39,49.803L138.16,49.831L138.92,49.603L139.69,49.757L140.45,49.782L141.22,49.786L141.98,49.793L142.75,49.757L143.51,49.792L144.27,49.758L145.04,49.754L145.8,49.719L146.57,49.653L147.33,49.742L148.1,49.765L148.86,49.466L149.63,49.44L150.39,49.562L151.15,49.845L151.92,49.856L152.68,49.712L153.45,49.716L154.21,49.744L154.98,49.741L155.74,49.809L156.51,49.679L157.27,49.575L158.04,49.578L158.8,49.622L159.56,49.774L160.33,49.817L161.09,49.739L161.86,49.747L162.62,49.652L163.39,49.604L164.15,49.584L164.92,49.721L165.68,49.761L166.45,49.719L167.21,49.693L167.97,49.696L168.74,49.738L169.5,49.876L170.27,49.887L171.03,49.714L171.8,49.715L172.56,49.671L173.33,49.63L174.09,49.626L174.86,49.575L175.62,49.667L176.38,49.687L177.15,49.63L177.91,49.719L178.68,49.698L179.44,49.844L180.21,49.842L180.97,49.678L181.74,49.711L182.5,49.679L183.26,49.845L184.03,49.886L184.79,49.871L185.56,49.893L186.32,49.855L187.09,49.865L187.85,49.889L188.62,49.818L189.38,49.711L190.15,49.709L190.91,49.686L191.67,49.593L192.44,49.709L193.2,49.848L193.97,49.979L194.73,49.964L195.5,49.94L196.26,49.952L197.03,49.946L197.79,49.999L198.56,49.999L199.32,49.9L200.08,49.859L200.85,49.938L201.61,50.015L202.38,50.023L203.14,50.034L203.91,50.058L204.67,49.99L205.44,49.876L206.2,49.884L206.97,49.846L207.73,49.912L208.49,49.974L209.26,50.028L210.02,50.108L210.79,50L211.55,50.054L212.32,50.113L213.08,50.091L213.85,50.127L214.61,50.181L215.38,50.158L216.14,50.15L216.9,50.118L217.67,50.069L218.43,49.522L219.2,49.502L219.96,49.167L220.73,49.113L221.49,49.19L222.26,49.213L223.02,48.96L223.78,49.401L224.55,49.203L225.31,49.124L226.08,49.273L226.84,49.653L227.61,49.527L228.37,49.51L229.14,49.436L229.9,49.665L230.67,49.22L231.43,50.191L232.19,50.329L232.96,50.169L233.72,50.527L234.49,50.229L235.25,50.46L236.02,50.438L236.78,50.434L237.55,50.621L238.31,50.579L239.08,50.536L239.84,50.591L240.6,50.555L241.37,50.511L242.13,50.636L242.9,50.558L243.66,50.419L244.43,50.406L245.19,50.474L245.96,50.652L246.72,50.607L247.49,50.657L248.25,50.656L249.01,50.594L249.78,50.545L250.54,50.503L251.31,50.417L252.07,50.412L252.84,50.431L253.6,50.388L254.37,50.407L255.13,50.398L255.89,50.471L256.66,50.365L257.42,50.312L258.19,50.319L258.95,50.288L259.72,50.538L260.48,50.561L261.25,50.524L262.01,50.568L262.78,50.539L263.54,50.456L264.3,50.453L265.07,50.458L265.83,50.487L266.6,50.485L267.36,50.572L268.13,50.677L268.89,50.66L269.66,50.461L270.42,50.449L271.19,50.5L271.95,50.59L272.71,50.604L273.48,50.595L274.24,50.648L275.01,50.646L275.77,50.713L276.54,50.64L277.3,50.716L278.07,50.759L278.83,50.839L279.6,50.82L280.36,50.911L281.12,50.775L281.89,50.796L282.65,50.789L283.42,50.778L284.18,50.827L284.95,50.893L285.71,50.935L286.48,50.92L287.24,50.851L288,50.776L288.77,50.705L289.53,50.813L290.3,50.804L291.06,50.819L291.83,50.997L292.59,51.038L293.36,50.981L294.12,50.959L294.89,50.962L295.65,50.975L296.41,50.985L297.18,50.953L297.94,50.886L298.71,50.912L299.47,51.124L300.24,51.336L301,51.324L301.77,51.088L302.53,51.135L303.3,51.134L304.06,51.223L304.82,51.219L305.59,51.149L306.35,51.069L307.12,51.197L307.88,51.511L308.65,51.591L309.41,51.508L310.18,51.52L310.94,51.557L311.71,51.573L312.47,51.556L313.23,51.315L314,51.431L314.76,51.511L315.53,51.771L316.29,51.908L317.06,51.972L317.82,51.825L318.59,52.018L319.35,51.833L320.12,51.894L320.88,51.841L321.64,51.777L322.41,51.8L323.17,52.123L323.94,52.043L324.7,52.045L325.47,52.094L326.23,52.247L327,52.253L327.76,52.025L328.52,52.126L329.29,52.067L330.05,52.236L330.82,52.162L331.58,52.507L332.35,52.744L333.11,52.696L333.88,52.663L334.64,52.653L335.41,52.615L336.17,52.624L336.93,52.73L337.7,52.514L338.46,52.505L339.23,52.553L339.99,52.832L340.76,52.952L341.52,52.945L342.29,53.22L343.05,53.132L343.82,53.003L344.58,52.926L345.34,53.02L346.11,53.061L346.87,53.165L347.64,53.486L348.4,53.786L349.17,53.25L349.93,52.418L350.7,52.898L351.46,52.273L352.23,52.43L352.99,52.167L353.75,52.62L354.52,52.523L355.28,52.541L356.05,52.422L356.81,52.97L357.58,53.345L358.34,53.032L359.11,52.981L359.87,53.02L360.63,53.918L361.4,53.673L362.16,53.726L362.93,53.782L363.69,54.384L364.46,54.527L365.22,54.202L365.99,54.462L366.75,54.031L367.52,54.649L368.28,55.412L369.04,55.442L369.81,55.022L370.57,55.024L371.34,55.705L372.1,56.19L372.87,56.44L373.63,56.3L374.4,56.107L375.16,56.268L375.93,56.078L376.69,56.23L377.45,56.155L378.22,56.456L378.98,56.65L379.75,56.913L380.51,57.257L381.28,57.399L382.04,57.431L382.81,57.485L383.57,57.394L384.34,57.628L385.1,57.517L385.86,57.218L386.63,57.209L387.39,57.855L388.16,58.719L388.92,59.231L389.69,58.963L390.45,59.077L391.22,59.06L391.98,59.163L392.75,59.132L393.51,58.995L394.27,58.832L395.04,58.978L395.8,61.744L396.57,63.884L397.33,64.059L398.1,63.601L398.86,63.485L399.63,63.594L400.39,66.989L401.15,108.16L401.31,277.93" style="fill:none;stroke:#F15A60" />
<path d="M405.2,275.78L425.2,275.78" style="fill:none;stroke:#F15A60" />
<text x="340.9" y="-273.29" transform="scale(1, -1)"
	style="font-family:Liberation Serif;font-variant:normal;font-weight:normal;font-style:normal;font-size:12px">random-read</text>
</g>
</svg>
