<?xml version="1.0"?>
<!-- Generated by SVGo and Plotinum VG -->
<svg width="425.2pt" height="283.46pt" viewBox="0 0 425.2 283.46"
	xmlns="http://www.w3.org/2000/svg"
	xmlns:xlink="http://www.w3.org/1999/xlink">
<g transform="scale(1, -1) translate(0, -283.46)">
<path d="M0,0L425.2,0L425.2,283.46L0,283.46Z" style="fill:#FFFFFF" />
<text x="207.46" y="-3.9023" transform="scale(1, -1)"
	style="font-family:Liberation Serif;font-variant:normal;font-weight:normal;font-style:normal;font-size:12px">database size</text>
<text x="60.689" y="-16.541" transform="scale(1, -1)"
	style="font-family:Liberation Serif;font-variant:normal;font-weight:normal;font-style:normal;font-size:10px">4.00 mb</text>
<text x="137.09" y="-16.541" transform="scale(1, -1)"
	style="font-family:Liberation Serif;font-variant:normal;font-weight:normal;font-style:normal;font-size:10px">260.00 mb</text>
<text x="218.5" y="-16.541" transform="scale(1, -1)"
	style="font-family:Liberation Serif;font-variant:normal;font-weight:normal;font-style:normal;font-size:10px">516.00 mb</text>
<text x="299.9" y="-16.541" transform="scale(1, -1)"
	style="font-family:Liberation Serif;font-variant:normal;font-weight:normal;font-style:normal;font-size:10px">772.00 mb</text>
<text x="377.42" y="-16.541" transform="scale(1, -1)"
	style="font-family:Liberation Serif;font-variant:normal;font-weight:normal;font-style:normal;font-size:10px">1023.64 mb</text>
<path d="M77.078,24.363L77.078,32.363" style="fill:none;stroke:#000000;stroke-width:0.5" />
<path d="M158.48,24.363L158.48,32.363" style="fill:none;stroke:#000000;stroke-width:0.5" />
<path d="M239.89,24.363L239.89,32.363" style="fill:none;stroke:#000000;stroke-width:0.5" />
<path d="M321.29,24.363L321.29,32.363" style="fill:none;stroke:#000000;stroke-width:0.5" />
<path d="M401.31,24.363L401.31,32.363" style="fill:none;stroke:#000000;stroke-width:0.5" />
<path d="M76.583,32.363L401.31,32.363" style="fill:none;stroke:#000000;stroke-width:0.5" />
<g transform="rotate(90)">
<text x="145.41" y="9.3867" transform="scale(1, -1)"
	style="font-family:Liberation Serif;font-variant:normal;font-weight:normal;font-style:normal;font-size:12px">speed</text>
</g>
<text x="20.885" y="-37.924" transform="scale(1, -1)"
	style="font-family:Liberation Serif;font-variant:normal;font-weight:normal;font-style:normal;font-size:10px">0.03 mb/s</text>
<text x="15.885" y="-114.08" transform="scale(1, -1)"
	style="font-family:Liberation Serif;font-variant:normal;font-weight:normal;font-style:normal;font-size:10px">32.03 mb/s</text>
<text x="15.885" y="-190.24" transform="scale(1, -1)"
	style="font-family:Liberation Serif;font-variant:normal;font-weight:normal;font-style:normal;font-size:10px">64.03 mb/s</text>
<text x="15.885" y="-266.4" transform="scale(1, -1)"
	style="font-family:Liberation Serif;font-variant:normal;font-weight:normal;font-style:normal;font-size:10px">96.03 mb/s</text>
<text x="15.885" y="-275.64" transform="scale(1, -1)"
	style="font-family:Liberation Serif;font-variant:normal;font-weight:normal;font-style:normal;font-size:10px">99.92 mb/s</text>
<path d="M62.833,40.209L70.833,40.209" style="fill:none;stroke:#000000;stroke-width:0.5" />
<path d="M62.833,116.37L70.833,116.37" style="fill:none;stroke:#000000;stroke-width:0.5" />
<path d="M62.833,192.53L70.833,192.53" style="fill:none;stroke:#000000;stroke-width:0.5" />
<path d="M62.833,268.68L70.833,268.68" style="fill:none;stroke:#000000;stroke-width:0.5" />
<path d="M62.833,277.93L70.833,277.93" style="fill:none;stroke:#000000;stroke-width:0.5" />
<path d="M70.833,40.209L70.833,277.93" style="fill:none;stroke:#000000;stroke-width:0.5" />
<path d="M76.583,40.209L77.359,45.242L78.136,45.346L78.912,45.488L79.689,45.439L80.465,45.505L81.242,45.622L82.018,46.558L82.795,48.12L83.571,49.159L84.348,49.176L85.124,49.178L85.901,49.22L86.677,49.085L87.454,49.091L88.23,49.237L89.007,49.349L89.783,49.302L90.56,49.385L91.336,49.227L92.113,49.322L92.889,49.37L93.666,49.368L94.442,49.279L95.219,49.317L95.995,49.304L96.772,49.212L97.548,49.121L98.324,49.271L99.101,49.29L99.877,49.161L100.65,49.266L101.43,49.259L102.21,49.304L102.98,49.34L103.76,49.258L104.54,49.294L105.31,49.424L106.09,49.196L106.87,49.398L107.64,49.466L108.42,49.277L109.2,49.079L109.97,49.277L110.75,49.334L111.52,49.348L112.3,48.605L113.08,49.242L113.85,49.207L114.63,49.245L115.41,49.141L116.18,49.191L116.96,49.238L117.74,49.267L118.51,49.413L119.29,49.359L120.07,49.317L120.84,49.204L121.62,49.077L122.4,49.219L123.17,49.201L123.95,49.194L124.72,49.42L125.5,49.374L126.28,49.303L127.05,49.374L127.83,49.23L128.61,49.339L129.38,49.309L130.16,49.281L130.94,49.269L131.71,49.167L132.49,49.188L133.27,49.173L134.04,49.057L134.82,49.28L135.6,49.228L136.37,49.298L137.15,49.41L137.93,49.398L138.7,49.208L139.48,49.402L140.25,49.289L141.03,49.482L141.81,49.325L142.58,49.37L143.36,49.406L144.14,49.352L144.91,49.391L145.69,49.312L146.47,49.283L147.24,49.422L148.02,49.303L148.8,49.257L149.57,49.316L150.35,49.273L151.13,49.21L151.9,49.086L152.68,49.168L153.45,49.108L154.23,49.313L155.01,49.427L155.78,49.39L156.56,49.227L157.34,49.279L158.11,49.122L158.89,49.21L159.67,49.215L160.44,49.376L161.22,49.323L162,49.338L162.77,49.309L163.55,49.3L164.33,49.163L165.1,49.351L165.88,49.106L166.65,49.293L167.43,49.298L168.21,49.207L168.98,49.162L169.76,49.207L170.54,49.219L171.31,49.263L172.09,49.258L172.87,49.251L173.64,49.199L174.42,49.316L175.2,49.296L175.97,49.333L176.75,49.312L177.53,49.247L178.3,49.251L179.08,49.298L179.86,49.377L180.63,49.47L181.41,49.442L182.18,49.487L182.96,49.398L183.74,49.404L184.51,49.449L185.29,49.436L186.07,49.036L186.84,49.226L187.62,49.348L188.4,49.254L189.17,49.197L189.95,49.292L190.73,49.238L191.5,49.298L192.28,49.473L193.06,49.448L193.83,49.331L194.61,49.281L195.38,49.262L196.16,49.259L196.94,49.332L197.71,49.38L198.49,49.302L199.27,49.339L200.04,49.511L200.82,49.392L201.6,49.044L202.37,48.653L203.15,48.458L203.93,48.296L204.7,48.492L205.48,48.153L206.26,48.719L207.03,48.798L207.81,48.454L208.58,48.698L209.36,49.097L210.14,48.97L210.91,49.057L211.69,48.957L212.47,48.759L213.24,49.166L214.02,49.484L214.8,49.238L215.57,49.43L216.35,49.653L217.13,49.59L217.9,49.582L218.68,49.549L219.46,49.496L220.23,49.424L221.01,49.458L221.79,49.469L222.56,49.506L223.34,49.615L224.11,49.691L224.89,49.583L225.67,49.728L226.44,49.723L227.22,49.677L228,49.671L228.77,49.764L229.55,49.766L230.33,49.907L231.1,50.013L231.88,50.016L232.66,50.095L233.43,50.008L234.21,49.907L234.99,49.89L235.76,49.911L236.54,50.097L237.31,50.018L238.09,49.88L238.87,50.022L239.64,50.053L240.42,50.097L241.2,50.081L241.97,49.921L242.75,49.927L243.53,49.881L244.3,49.973L245.08,50.035L245.86,50.038L246.63,50.052L247.41,50.073L248.19,50.078L248.96,50.045L249.74,49.947L250.51,50.023L251.29,49.844L252.07,49.922L252.84,50.056L253.62,50.053L254.4,50.084L255.17,50.039L255.95,50.002L256.73,50.088L257.5,49.861L258.28,49.54L259.06,49.888L259.83,49.84L260.61,49.919L261.39,49.903L262.16,50.024L262.94,50.001L263.72,49.996L264.49,49.833L265.27,50.073L266.04,50.101L266.82,50.095L267.6,50.059L268.37,50.04L269.15,50.072L269.93,49.957L270.7,49.844L271.48,49.984L272.26,49.952L273.03,50.003L273.81,50.158L274.59,50.247L275.36,50.249L276.14,50.247L276.92,50.297L277.69,50.046L278.47,50.147L279.24,50.329L280.02,50.35L280.8,50.424L281.57,50.181L282.35,50.223L283.13,50.153L283.9,50.165L284.68,50.019L285.46,50.151L286.23,50.231L287.01,50.193L287.79,50.356L288.56,50.339L289.34,50.27L290.12,50.446L290.89,50.347L291.67,50.389L292.44,50.32L293.22,50.419L294,50.557L294.77,50.736L295.55,50.657L296.33,50.514L297.1,50.477L297.88,50.337L298.66,50.608L299.43,50.593L300.21,50.78L300.99,50.66L301.76,50.825L302.54,50.851L303.32,50.753L304.09,50.811L304.87,50.72L305.65,50.718L306.42,50.643L307.2,50.758L307.97,50.721L308.75,50.795L309.53,50.954L310.3,51.188L311.08,51.172L311.86,51.272L312.63,51.097L313.41,51.247L314.19,51.053L314.96,51.075L315.74,51.174L316.52,51.351L317.29,51.346L318.07,51.258L318.85,51.271L319.62,51.144L320.4,51.284L321.17,51.226L321.95,51.267L322.73,51.27L323.5,51.359L324.28,51.475L325.06,51.555L325.83,51.725L326.61,51.896L327.39,51.629L328.16,51.856L328.94,51.781L329.72,51.825L330.49,51.742L331.27,51.839L332.05,51.987L332.82,51.934L333.6,51.703L334.37,52.055L335.15,51.968L335.93,52.09L336.7,52.019L337.48,52.021L338.26,52.233L339.03,52.28L339.81,52.141L340.59,52.072L341.36,52.253L342.14,52.532L342.92,52.584L343.69,52.719L344.47,52.929L345.25,52.782L346.02,51.624L346.8,51.423L347.58,50.77L348.35,51.235L349.13,51.234L349.9,51.319L350.68,51.626L351.46,51.533L352.23,51.364L353.01,51.246L353.79,51.34L354.56,52.081L355.34,52.02L356.12,51.79L356.89,51.736L357.67,51.741L358.45,52.031L359.22,52.782L360,52.573L360.78,52.286L361.55,52.41L362.33,52.513L363.1,53.034L363.88,52.226L364.66,53.517L365.43,54.191L366.21,53.996L366.99,54.019L367.76,54.36L368.54,54.803L369.32,54.824L370.09,54.541L370.87,54.71L371.65,54.75L372.42,54.806L373.2,54.81L373.98,54.714L374.75,55.447L375.53,55.903L376.3,56.027L377.08,55.68L377.86,55.997L378.63,56.039L379.41,55.958L380.19,55.996L380.96,55.94L381.74,55.791L382.52,55.826L383.29,56.851L384.07,56.942L384.85,56.985L385.62,56.947L386.4,57.065L387.18,56.851L387.95,56.561L388.73,57.191L389.51,57.085L390.28,57.414L391.06,58.011L391.83,58.093L392.61,58.385L393.39,57.947L394.16,58.22L394.94,58.191L395.72,58.299L396.49,58.406L397.27,58.551L398.05,58.334L398.82,59.478L399.6,67.55L400.38,71.268L401.15,117.66L401.31,277.93" style="fill:none;stroke:#F15A60" />
<path d="M405.2,275.78L425.2,275.78" style="fill:none;stroke:#F15A60" />
<text x="340.9" y="-273.29" transform="scale(1, -1)"
	style="font-family:Liberation Serif;font-variant:normal;font-weight:normal;font-style:normal;font-size:12px">random-read</text>
</g>
</svg>
