<?xml version="1.0"?>
<!-- Generated by SVGo and Plotinum VG -->
<svg width="425.2pt" height="283.46pt" viewBox="0 0 425.2 283.46"
	xmlns="http://www.w3.org/2000/svg"
	xmlns:xlink="http://www.w3.org/1999/xlink">
<g transform="scale(1, -1) translate(0, -283.46)">
<path d="M0,0L425.2,0L425.2,283.46L0,283.46Z" style="fill:#FFFFFF" />
<text x="207.23" y="-3.8613" transform="scale(1, -1)"
	style="font-family:Times;font-weight:normal;font-style:normal;font-size:12px">database size</text>
<text x="60.221" y="-15.602" transform="scale(1, -1)"
	style="font-family:Times;font-weight:normal;font-style:normal;font-size:10px">4.00 mb</text>
<text x="136.74" y="-15.602" transform="scale(1, -1)"
	style="font-family:Times;font-weight:normal;font-style:normal;font-size:10px">260.00 mb</text>
<text x="218.26" y="-15.602" transform="scale(1, -1)"
	style="font-family:Times;font-weight:normal;font-style:normal;font-size:10px">516.00 mb</text>
<text x="299.79" y="-15.602" transform="scale(1, -1)"
	style="font-family:Times;font-weight:normal;font-style:normal;font-size:10px">772.00 mb</text>
<text x="377.42" y="-15.602" transform="scale(1, -1)"
	style="font-family:Times;font-weight:normal;font-style:normal;font-size:10px">1023.64 mb</text>
<path d="M76.61,25.23L76.61,33.23" style="fill:none;stroke:#000000;stroke-width:0.5" />
<path d="M158.13,25.23L158.13,33.23" style="fill:none;stroke:#000000;stroke-width:0.5" />
<path d="M239.65,25.23L239.65,33.23" style="fill:none;stroke:#000000;stroke-width:0.5" />
<path d="M321.18,25.23L321.18,33.23" style="fill:none;stroke:#000000;stroke-width:0.5" />
<path d="M401.31,25.23L401.31,33.23" style="fill:none;stroke:#000000;stroke-width:0.5" />
<path d="M76.114,33.23L401.31,33.23" style="fill:none;stroke:#000000;stroke-width:0.5" />
<g transform="rotate(90)">
<text x="144.86" y="11.555" transform="scale(1, -1)"
	style="font-family:Times;font-weight:normal;font-style:normal;font-size:12px">speed</text>
</g>
<text x="20.416" y="-33.781" transform="scale(1, -1)"
	style="font-family:Times;font-weight:normal;font-style:normal;font-size:10px">0.03 mb/s</text>
<text x="15.416" y="-127.48" transform="scale(1, -1)"
	style="font-family:Times;font-weight:normal;font-style:normal;font-size:10px">32.03 mb/s</text>
<text x="15.416" y="-221.18" transform="scale(1, -1)"
	style="font-family:Times;font-weight:normal;font-style:normal;font-size:10px">64.03 mb/s</text>
<text x="15.416" y="-273.84" transform="scale(1, -1)"
	style="font-family:Times;font-weight:normal;font-style:normal;font-size:10px">82.01 mb/s</text>
<path d="M62.364,38.503L70.364,38.503" style="fill:none;stroke:#000000;stroke-width:0.5" />
<path d="M62.364,132.2L70.364,132.2" style="fill:none;stroke:#000000;stroke-width:0.5" />
<path d="M62.364,225.9L70.364,225.9" style="fill:none;stroke:#000000;stroke-width:0.5" />
<path d="M62.364,278.56L70.364,278.56" style="fill:none;stroke:#000000;stroke-width:0.5" />
<path d="M70.364,38.48L70.364,278.56" style="fill:none;stroke:#000000;stroke-width:0.5" />
<path d="M76.114,38.48L76.892,47.155L77.669,47.686L78.447,47.386L79.225,48.165L80.002,48.531L80.78,49.043L81.557,51.383L82.335,51.991L83.113,52.197L83.89,52.838L84.668,52.683L85.445,53.505L86.223,52.993L87.001,53.472L87.778,53.945L88.556,53.832L89.334,54.165L90.111,54.595L90.889,55.837L91.666,56.01L92.444,55.499L93.222,55.979L93.999,56.446L94.777,56.287L95.554,56.017L96.332,56.177L97.11,55.905L97.887,56.376L98.665,55.948L99.442,55.761L100.22,56.563L101,55.887L101.78,55.942L102.55,56.098L103.33,55.969L104.11,56.449L104.89,55.958L105.66,55.729L106.44,56.114L107.22,56.269L108,56.167L108.77,56.088L109.55,56.056L110.33,56.222L111.11,56.237L111.88,55.997L112.66,56.287L113.44,56.812L114.22,56.692L114.99,56.536L115.77,56.501L116.55,56.592L117.33,56.771L118.1,56.146L118.88,56.018L119.66,56.493L120.44,56.336L121.22,56.331L121.99,56.559L122.77,56.594L123.55,56.935L124.33,57.023L125.1,56.239L125.88,56.445L126.66,56.429L127.44,56.709L128.21,56.82L128.99,56.264L129.77,56.881L130.55,56.816L131.32,56.374L132.1,56.708L132.88,56.497L133.66,56.497L134.43,56.539L135.21,56.48L135.99,56.464L136.77,56.955L137.54,56.517L138.32,56.382L139.1,56.328L139.88,56.729L140.66,56.65L141.43,56.521L142.21,56.656L142.99,56.754L143.77,56.633L144.54,56.481L145.32,56.463L146.1,56.495L146.88,56.323L147.65,56.464L148.43,56.397L149.21,56.542L149.99,56.937L150.76,56.134L151.54,56.495L152.32,56.691L153.1,56.448L153.87,56.863L154.65,56.606L155.43,56.469L156.21,56.6L156.98,56.599L157.76,56.741L158.54,56.108L159.32,56.617L160.1,56.763L160.87,56.962L161.65,56.537L162.43,56.39L163.21,56.602L163.98,56.5L164.76,56.916L165.54,56.66L166.32,56.081L167.09,56.639L167.87,56.747L168.65,56.754L169.43,56.754L170.2,56.61L170.98,56.667L171.76,56.818L172.54,56.3L173.31,56.461L174.09,56.778L174.87,56.53L175.65,56.86L176.43,56.532L177.2,56.723L177.98,56.528L178.76,56.12L179.54,56.45L180.31,56.389L181.09,56.636L181.87,56.647L182.65,56.808L183.42,56.367L184.2,56.448L184.98,56.233L185.76,56.393L186.53,56.696L187.31,56.121L188.09,56.37L188.87,56.579L189.64,56.361L190.42,56.277L191.2,56.933L191.98,56.418L192.75,56.522L193.53,56.504L194.31,56.418L195.09,56.951L195.87,56.458L196.64,56.696L197.42,57.017L198.2,56.063L198.98,56.392L199.75,56.553L200.53,56.319L201.31,56.492L202.09,56.491L202.86,56.503L203.64,56.583L204.42,56.672L205.2,56.735L205.97,56.646L206.75,56.098L207.53,56.639L208.31,56.973L209.08,56.68L209.86,56.455L210.64,56.58L211.42,56.317L212.19,56.772L212.97,56.641L213.75,56.368L214.53,56.906L215.31,56.418L216.08,56.336L216.86,56.457L217.64,56.355L218.42,56.352L219.19,56.626L219.97,56.357L220.75,56.478L221.53,56.848L222.3,56.362L223.08,56.597L223.86,56.152L224.64,56.306L225.41,56.6L226.19,56.323L226.97,56.565L227.75,56.667L228.52,56.244L229.3,56.233L230.08,56.387L230.86,56.249L231.63,56.618L232.41,56.48L233.19,56.703L233.97,56.859L234.75,56.277L235.52,56.363L236.3,56.863L237.08,56.567L237.86,56.64L238.63,56.875L239.41,56.406L240.19,56.461L240.97,56.948L241.74,56.552L242.52,56.593L243.3,56.3L244.08,55.695L244.85,55.935L245.63,56.192L246.41,56.45L247.19,56.614L247.96,56.333L248.74,56.559L249.52,56.347L250.3,56.521L251.07,56.543L251.85,56.866L252.63,56.441L253.41,56.538L254.19,55.845L254.96,56.508L255.74,56.899L256.52,56.58L257.3,56.428L258.07,56.607L258.85,56.192L259.63,56.49L260.41,56.945L261.18,56.736L261.96,56.911L262.74,56.377L263.52,56.316L264.29,56.585L265.07,56.416L265.85,56.205L266.63,56.854L267.4,56.691L268.18,56.604L268.96,56.537L269.74,56.342L270.51,56.223L271.29,56.827L272.07,56.546L272.85,56.49L273.63,56.389L274.4,56.363L275.18,56.492L275.96,56.512L276.74,56.425L277.51,56.3L278.29,56.387L279.07,56.424L279.85,57.019L280.62,56.561L281.4,56.633L282.18,56.698L282.96,56.601L283.73,56.595L284.51,56.184L285.29,56.287L286.07,56.864L286.84,56.328L287.62,56.424L288.4,56.282L289.18,56.451L289.95,56.62L290.73,56.706L291.51,56.437L292.29,56.542L293.07,56.621L293.84,56.608L294.62,56.531L295.4,56.337L296.18,56.136L296.95,56.473L297.73,56.653L298.51,56.686L299.29,56.614L300.06,56.304L300.84,56.551L301.62,56.566L302.4,55.829L303.17,56.084L303.95,55.796L304.73,55.835L305.51,56.071L306.28,55.952L307.06,55.91L307.84,55.974L308.62,55.779L309.4,55.817L310.17,55.975L310.95,55.812L311.73,56.368L312.51,56.084L313.28,56.017L314.06,56.126L314.84,56.058L315.62,55.85L316.39,56.111L317.17,55.934L317.95,56.354L318.73,56.526L319.5,56.246L320.28,56.232L321.06,56.468L321.84,56.4L322.61,56.686L323.39,55.703L324.17,56.255L324.95,56.831L325.72,56.217L326.5,56.378L327.28,56.634L328.06,56.636L328.84,56.566L329.61,56.71L330.39,56.423L331.17,56.404L331.95,56.143L332.72,56.504L333.5,56.755L334.28,56.72L335.06,56.283L335.83,56.396L336.61,56.298L337.39,56.61L338.17,56.618L338.94,56.634L339.72,56.826L340.5,57.378L341.28,57.72L342.05,57.784L342.83,57.873L343.61,57.77L344.39,57.363L345.16,57.674L345.94,57.895L346.72,57.695L347.5,57.806L348.28,59.001L349.05,58.691L349.83,59.392L350.61,59.282L351.39,59.242L352.16,58.896L352.94,58.899L353.72,59.474L354.5,59.148L355.27,60.901L356.05,60.836L356.83,60.803L357.61,61.003L358.38,61.046L359.16,61.031L359.94,60.956L360.72,61.424L361.49,61.039L362.27,62.096L363.05,61.854L363.83,62.022L364.6,61.894L365.38,62.776L366.16,61.785L366.94,62.123L367.72,61.771L368.49,62.07L369.27,62.397L370.05,62.398L370.83,61.658L371.6,61.774L372.38,61.966L373.16,61.909L373.94,61.889L374.71,62.057L375.49,62.878L376.27,62.369L377.05,62.343L377.82,61.62L378.6,62.607L379.38,61.964L380.16,62.639L380.93,62.368L381.71,62.798L382.49,61.538L383.27,62.298L384.04,62.409L384.82,63.18L385.6,63.039L386.38,63.549L387.16,62.994L387.93,62.956L388.71,63.232L389.49,63.032L390.27,63.276L391.04,63.055L391.82,64.905L392.6,64.971L393.38,65.715L394.15,65.1L394.93,64.714L395.71,65.449L396.49,64.837L397.26,65.158L398.04,64.569L398.82,68.389L399.6,71.532L400.37,72.837L401.15,78.163L401.31,278.56" style="fill:none;stroke:#F15A60" />
<path d="M405.2,277.58L425.2,277.58" style="fill:none;stroke:#F15A60" />
<text x="294.26" y="-271.91" transform="scale(1, -1)"
	style="font-family:Times;font-weight:normal;font-style:normal;font-size:12px">random-read-bigcache</text>
</g>
</svg>
