<?xml version="1.0"?>
<!-- Generated by SVGo and Plotinum VG -->
<svg width="425.2pt" height="283.46pt" viewBox="0 0 425.2 283.46"
	xmlns="http://www.w3.org/2000/svg"
	xmlns:xlink="http://www.w3.org/1999/xlink">
<g transform="scale(1, -1) translate(0, -283.46)">
<path d="M0,0L425.2,0L425.2,283.46L0,283.46Z" style="fill:#FFFFFF" />
<text x="207.46" y="-3.9023" transform="scale(1, -1)"
	style="font-family:Liberation Serif;font-variant:normal;font-weight:normal;font-style:normal;font-size:12px">database size</text>
<text x="60.689" y="-16.541" transform="scale(1, -1)"
	style="font-family:Liberation Serif;font-variant:normal;font-weight:normal;font-style:normal;font-size:10px">4.00 mb</text>
<text x="137.09" y="-16.541" transform="scale(1, -1)"
	style="font-family:Liberation Serif;font-variant:normal;font-weight:normal;font-style:normal;font-size:10px">260.00 mb</text>
<text x="218.5" y="-16.541" transform="scale(1, -1)"
	style="font-family:Liberation Serif;font-variant:normal;font-weight:normal;font-style:normal;font-size:10px">516.00 mb</text>
<text x="299.9" y="-16.541" transform="scale(1, -1)"
	style="font-family:Liberation Serif;font-variant:normal;font-weight:normal;font-style:normal;font-size:10px">772.00 mb</text>
<text x="377.42" y="-16.541" transform="scale(1, -1)"
	style="font-family:Liberation Serif;font-variant:normal;font-weight:normal;font-style:normal;font-size:10px">1023.64 mb</text>
<path d="M77.078,24.363L77.078,32.363" style="fill:none;stroke:#000000;stroke-width:0.5" />
<path d="M158.48,24.363L158.48,32.363" style="fill:none;stroke:#000000;stroke-width:0.5" />
<path d="M239.89,24.363L239.89,32.363" style="fill:none;stroke:#000000;stroke-width:0.5" />
<path d="M321.29,24.363L321.29,32.363" style="fill:none;stroke:#000000;stroke-width:0.5" />
<path d="M401.31,24.363L401.31,32.363" style="fill:none;stroke:#000000;stroke-width:0.5" />
<path d="M76.583,32.363L401.31,32.363" style="fill:none;stroke:#000000;stroke-width:0.5" />
<g transform="rotate(90)">
<text x="145.41" y="9.3867" transform="scale(1, -1)"
	style="font-family:Liberation Serif;font-variant:normal;font-weight:normal;font-style:normal;font-size:12px">speed</text>
</g>
<text x="20.885" y="-37.949" transform="scale(1, -1)"
	style="font-family:Liberation Serif;font-variant:normal;font-weight:normal;font-style:normal;font-size:10px">0.03 mb/s</text>
<text x="15.885" y="-131.65" transform="scale(1, -1)"
	style="font-family:Liberation Serif;font-variant:normal;font-weight:normal;font-style:normal;font-size:10px">32.03 mb/s</text>
<text x="15.885" y="-225.34" transform="scale(1, -1)"
	style="font-family:Liberation Serif;font-variant:normal;font-weight:normal;font-style:normal;font-size:10px">64.03 mb/s</text>
<text x="15.885" y="-275.64" transform="scale(1, -1)"
	style="font-family:Liberation Serif;font-variant:normal;font-weight:normal;font-style:normal;font-size:10px">81.21 mb/s</text>
<path d="M62.833,40.234L70.833,40.234" style="fill:none;stroke:#000000;stroke-width:0.5" />
<path d="M62.833,133.93L70.833,133.93" style="fill:none;stroke:#000000;stroke-width:0.5" />
<path d="M62.833,227.63L70.833,227.63" style="fill:none;stroke:#000000;stroke-width:0.5" />
<path d="M62.833,277.93L70.833,277.93" style="fill:none;stroke:#000000;stroke-width:0.5" />
<path d="M70.833,40.209L70.833,277.93" style="fill:none;stroke:#000000;stroke-width:0.5" />
<path d="M76.583,40.209L77.359,49.597L78.136,50.242L78.912,50.402L79.689,50.184L80.465,50.677L81.242,54.213L82.018,54.561L82.795,54.208L83.571,56.026L84.348,56.451L85.124,56.934L85.901,56.573L86.677,56.698L87.454,56.449L88.23,56.86L89.007,56.709L89.783,56.115L90.56,56.516L91.336,56.914L92.113,56.785L92.889,56.795L93.666,57.036L94.442,56.952L95.219,56.669L95.995,56.789L96.772,56.846L97.548,56.542L98.324,56.414L99.101,56.69L99.877,56.108L100.65,55.989L101.43,55.891L102.21,55.943L102.98,56.127L103.76,56.836L104.54,56.849L105.31,56.721L106.09,57.21L106.87,56.855L107.64,56.833L108.42,56.906L109.2,56.891L109.97,56.872L110.75,56.564L111.52,56.763L112.3,56.659L113.08,56.63L113.85,56.585L114.63,56.207L115.41,56.289L116.18,56.309L116.96,56.96L117.74,57.101L118.51,56.825L119.29,56.693L120.07,56.533L120.84,56.302L121.62,56.074L122.4,55.741L123.17,56.632L123.95,56.478L124.72,56.22L125.5,55.372L126.28,56.418L127.05,56.835L127.83,56.698L128.61,56.599L129.38,56.701L130.16,57.341L130.94,56.392L131.71,56.433L132.49,56.57L133.27,56.885L134.04,56.458L134.82,56.372L135.6,56.616L136.37,56.831L137.15,56.687L137.93,56.713L138.7,56.914L139.48,56.627L140.25,55.961L141.03,56.341L141.81,57.064L142.58,56.527L143.36,56.604L144.14,56.962L144.91,57.031L145.69,56.599L146.47,56.362L147.24,56.788L148.02,56.166L148.8,55.714L149.57,56.889L150.35,55.71L151.13,57.424L151.9,56.104L152.68,56.319L153.45,55.803L154.23,55.455L155.01,56.654L155.78,56.316L156.56,56.559L157.34,56.723L158.11,56.734L158.89,56.592L159.67,56.907L160.44,56.896L161.22,56.676L162,56.417L162.77,56.673L163.55,56.881L164.33,56.634L165.1,56.717L165.88,56.793L166.65,57.187L167.43,56.721L168.21,56.71L168.98,55.944L169.76,57.59L170.54,57.417L171.31,57.342L172.09,57.285L172.87,57.552L173.64,57.74L174.42,57.547L175.2,58.123L175.97,57.783L176.75,58.025L177.53,57.831L178.3,58.083L179.08,57.784L179.86,58.003L180.63,57.61L181.41,57.676L182.18,58.077L182.96,57.775L183.74,57.758L184.51,57.634L185.29,58.046L186.07,57.622L186.84,57.686L187.62,57.62L188.4,57.748L189.17,58.067L189.95,57.852L190.73,58.046L191.5,57.929L192.28,58.058L193.06,57.584L193.83,57.693L194.61,57.619L195.38,57.778L196.16,58.034L196.94,57.854L197.71,57.951L198.49,57.78L199.27,57.68L200.04,57.587L200.82,57.996L201.6,57.509L202.37,57.659L203.15,57.824L203.93,57.897L204.7,57.722L205.48,57.701L206.26,58.01L207.03,57.706L207.81,57.769L208.58,57.154L209.36,57.6L210.14,57.68L210.91,57.787L211.69,57.48L212.47,57.527L213.24,57.922L214.02,57.594L214.8,57.522L215.57,57.524L216.35,57.992L217.13,57.905L217.9,58.045L218.68,57.567L219.46,57.646L220.23,58.077L221.01,57.978L221.79,58.109L222.56,57.595L223.34,57.65L224.11,57.745L224.89,58.101L225.67,57.734L226.44,58.104L227.22,57.888L228,57.918L228.77,57.646L229.55,57.744L230.33,57.938L231.1,57.608L231.88,57.842L232.66,57.822L233.43,58.069L234.21,57.925L234.99,57.945L235.76,57.673L236.54,57.717L237.31,58.071L238.09,57.789L238.87,57.734L239.64,57.83L240.42,58.071L241.2,57.563L241.97,57.692L242.75,57.665L243.53,57.907L244.3,57.919L245.08,57.92L245.86,58.071L246.63,57.612L247.41,58.1L248.19,57.641L248.96,57.786L249.74,57.598L250.51,57.784L251.29,57.978L252.07,57.528L252.84,57.661L253.62,57.618L254.4,57.903L255.17,58.005L255.95,58.116L256.73,57.858L257.5,58.095L258.28,57.751L259.06,58.046L259.83,58.055L260.61,57.924L261.39,58.041L262.16,57.739L262.94,57.563L263.72,57.598L264.49,58.118L265.27,57.539L266.04,57.683L266.82,57.935L267.6,57.939L268.37,58.008L269.15,57.828L269.93,57.566L270.7,57.742L271.48,57.886L272.26,57.65L273.03,57.845L273.81,57.686L274.59,57.762L275.36,57.663L276.14,57.658L276.92,58.058L277.69,57.83L278.47,57.903L279.24,57.699L280.02,58.064L280.8,58.025L281.57,58.093L282.35,57.623L283.13,57.621L283.9,57.983L284.68,57.703L285.46,57.635L286.23,57.625L287.01,57.703L287.79,57.719L288.56,57.705L289.34,57.748L290.12,58.213L290.89,57.534L291.67,57.693L292.44,57.982L293.22,57.845L294,57.706L294.77,57.601L295.55,57.665L296.33,57.451L297.1,57.743L297.88,57.643L298.66,57.754L299.43,57.885L300.21,57.855L300.99,57.739L301.76,57.682L302.54,57.622L303.32,57.743L304.09,58.019L304.87,57.43L305.65,57.637L306.42,57.886L307.2,58.038L307.97,57.712L308.75,57.666L309.53,57.704L310.3,57.738L311.08,57.972L311.86,57.84L312.63,58.039L313.41,57.565L314.19,57.533L314.96,57.755L315.74,57.895L316.52,58.042L317.29,57.846L318.07,57.719L318.85,57.586L319.62,57.533L320.4,57.679L321.17,58.182L321.95,57.852L322.73,58.038L323.5,57.344L324.28,57.544L325.06,57.606L325.83,57.495L326.61,57.983L327.39,57.946L328.16,57.985L328.94,57.639L329.72,57.744L330.49,57.547L331.27,57.6L332.05,57.984L332.82,57.952L333.6,58.06L334.37,57.917L335.15,58.095L335.93,58.028L336.7,58.063L337.48,57.661L338.26,57.755L339.03,58.476L339.81,58.797L340.59,58.761L341.36,58.812L342.14,59.319L342.92,59.017L343.69,59.214L344.47,58.919L345.25,58.97L346.02,59.212L346.8,59.717L347.58,59.845L348.35,59.785L349.13,60.329L349.9,60.181L350.68,60.454L351.46,59.81L352.23,59.921L353.01,60.07L353.79,61.734L354.56,61.01L355.34,61.231L356.12,61.092L356.89,61.348L357.67,61.578L358.45,61.593L359.22,61.83L360,61.531L360.78,63.089L361.55,63.2L362.33,63.464L363.1,63.252L363.88,63.357L364.66,63.073L365.43,63.253L366.21,63.225L366.99,63.397L367.76,63.885L368.54,65.337L369.32,65.162L370.09,65.853L370.87,65.823L371.65,65.392L372.42,65.83L373.2,65.085L373.98,65.262L374.75,64.973L375.53,67.405L376.3,67.015L377.08,67.575L377.86,67.312L378.63,68.21L379.41,67.67L380.19,67.291L380.96,67.53L381.74,67.152L382.52,68.198L383.29,67.966L384.07,68.56L384.85,68.378L385.62,69.098L386.4,69.266L387.18,68.708L387.95,69.39L388.73,68.699L389.51,69.608L390.28,70.683L391.06,70.302L391.83,70.899L392.61,69.891L393.39,70.84L394.16,70.586L394.94,69.991L395.72,70.625L396.49,70.214L397.27,77.854L398.05,80.477L398.82,79.832L399.6,79.647L400.38,80.08L401.15,84.824L401.31,277.93" style="fill:none;stroke:#F15A60" />
<path d="M405.2,275.78L425.2,275.78" style="fill:none;stroke:#F15A60" />
<text x="266.94" y="-273.29" transform="scale(1, -1)"
	style="font-family:Liberation Serif;font-variant:normal;font-weight:normal;font-style:normal;font-size:12px">random-read-bigcache-filter</text>
</g>
</svg>
