<?xml version="1.0"?>
<!-- Generated by SVGo and Plotinum VG -->
<svg width="425.2pt" height="283.46pt" viewBox="0 0 425.2 283.46"
	xmlns="http://www.w3.org/2000/svg"
	xmlns:xlink="http://www.w3.org/1999/xlink">
<g transform="scale(1, -1) translate(0, -283.46)">
<path d="M0,0L425.2,0L425.2,283.46L0,283.46Z" style="fill:#FFFFFF" />
<text x="207.46" y="-3.9023" transform="scale(1, -1)"
	style="font-family:Liberation Serif;font-variant:normal;font-weight:normal;font-style:normal;font-size:12px">database size</text>
<text x="60.689" y="-16.541" transform="scale(1, -1)"
	style="font-family:Liberation Serif;font-variant:normal;font-weight:normal;font-style:normal;font-size:10px">4.00 mb</text>
<text x="137.09" y="-16.541" transform="scale(1, -1)"
	style="font-family:Liberation Serif;font-variant:normal;font-weight:normal;font-style:normal;font-size:10px">260.00 mb</text>
<text x="218.5" y="-16.541" transform="scale(1, -1)"
	style="font-family:Liberation Serif;font-variant:normal;font-weight:normal;font-style:normal;font-size:10px">516.00 mb</text>
<text x="299.9" y="-16.541" transform="scale(1, -1)"
	style="font-family:Liberation Serif;font-variant:normal;font-weight:normal;font-style:normal;font-size:10px">772.00 mb</text>
<text x="377.42" y="-16.541" transform="scale(1, -1)"
	style="font-family:Liberation Serif;font-variant:normal;font-weight:normal;font-style:normal;font-size:10px">1023.64 mb</text>
<path d="M77.078,24.363L77.078,32.363" style="fill:none;stroke:#000000;stroke-width:0.5" />
<path d="M158.48,24.363L158.48,32.363" style="fill:none;stroke:#000000;stroke-width:0.5" />
<path d="M239.89,24.363L239.89,32.363" style="fill:none;stroke:#000000;stroke-width:0.5" />
<path d="M321.29,24.363L321.29,32.363" style="fill:none;stroke:#000000;stroke-width:0.5" />
<path d="M401.31,24.363L401.31,32.363" style="fill:none;stroke:#000000;stroke-width:0.5" />
<path d="M76.583,32.363L401.31,32.363" style="fill:none;stroke:#000000;stroke-width:0.5" />
<g transform="rotate(90)">
<text x="145.41" y="9.3867" transform="scale(1, -1)"
	style="font-family:Liberation Serif;font-variant:normal;font-weight:normal;font-style:normal;font-size:12px">speed</text>
</g>
<text x="20.885" y="-37.95" transform="scale(1, -1)"
	style="font-family:Liberation Serif;font-variant:normal;font-weight:normal;font-style:normal;font-size:10px">0.03 mb/s</text>
<text x="15.885" y="-148.29" transform="scale(1, -1)"
	style="font-family:Liberation Serif;font-variant:normal;font-weight:normal;font-style:normal;font-size:10px">32.03 mb/s</text>
<text x="15.885" y="-258.63" transform="scale(1, -1)"
	style="font-family:Liberation Serif;font-variant:normal;font-weight:normal;font-style:normal;font-size:10px">64.03 mb/s</text>
<text x="15.885" y="-275.64" transform="scale(1, -1)"
	style="font-family:Liberation Serif;font-variant:normal;font-weight:normal;font-style:normal;font-size:10px">68.97 mb/s</text>
<path d="M62.833,40.235L70.833,40.235" style="fill:none;stroke:#000000;stroke-width:0.5" />
<path d="M62.833,150.57L70.833,150.57" style="fill:none;stroke:#000000;stroke-width:0.5" />
<path d="M62.833,260.91L70.833,260.91" style="fill:none;stroke:#000000;stroke-width:0.5" />
<path d="M62.833,277.93L70.833,277.93" style="fill:none;stroke:#000000;stroke-width:0.5" />
<path d="M70.833,40.209L70.833,277.93" style="fill:none;stroke:#000000;stroke-width:0.5" />
<path d="M76.583,40.209L77.359,45.63L78.136,45.827L78.912,46.402L79.689,49.051L80.465,49.565L81.242,49.667L82.018,50.107L82.795,50.329L83.571,50.77L84.348,50.288L85.124,50.598L85.901,52.523L86.677,53.089L87.454,53.284L88.23,53.922L89.007,54.233L89.783,54.756L90.56,56.578L91.336,56.63L92.113,56.667L92.889,56.671L93.666,56.471L94.442,56.462L95.219,56.573L95.995,56.554L96.772,56.76L97.548,56.537L98.324,56.753L99.101,56.551L99.877,56.71L100.65,56.723L101.43,56.744L102.21,56.633L102.98,56.732L103.76,56.612L104.54,56.866L105.31,56.713L106.09,56.75L106.87,56.767L107.64,56.769L108.42,56.807L109.2,56.829L109.97,56.727L110.75,56.795L111.52,56.781L112.3,56.701L113.08,56.848L113.85,56.331L114.63,56.617L115.41,56.721L116.18,56.686L116.96,56.799L117.74,56.81L118.51,56.9L119.29,56.75L120.07,56.764L120.84,56.907L121.62,56.795L122.4,56.952L123.17,56.665L123.95,56.729L124.72,56.659L125.5,56.683L126.28,56.872L127.05,56.783L127.83,56.751L128.61,56.705L129.38,56.813L130.16,56.835L130.94,56.849L131.71,56.614L132.49,56.693L133.27,56.95L134.04,56.704L134.82,56.724L135.6,56.812L136.37,56.812L137.15,56.957L137.93,56.788L138.7,56.703L139.48,56.725L140.25,56.785L141.03,56.866L141.81,56.859L142.58,56.801L143.36,56.788L144.14,56.769L144.91,56.679L145.69,56.719L146.47,56.787L147.24,56.731L148.02,56.89L148.8,56.716L149.57,56.784L150.35,56.688L151.13,56.765L151.9,56.826L152.68,56.705L153.45,56.668L154.23,56.915L155.01,56.768L155.78,56.855L156.56,56.715L157.34,56.904L158.11,56.737L158.89,56.856L159.67,56.59L160.44,56.873L161.22,56.851L162,56.773L162.77,56.764L163.55,56.813L164.33,56.753L165.1,56.764L165.88,56.729L166.65,56.829L167.43,56.803L168.21,56.55L168.98,56.436L169.76,56.397L170.54,56.84L171.31,56.907L172.09,56.832L172.87,56.885L173.64,56.893L174.42,56.823L175.2,56.771L175.97,56.833L176.75,56.82L177.53,56.815L178.3,56.618L179.08,56.775L179.86,56.693L180.63,56.732L181.41,56.889L182.18,56.839L182.96,56.894L183.74,56.731L184.51,56.687L185.29,56.886L186.07,56.784L186.84,56.984L187.62,56.934L188.4,56.798L189.17,56.741L189.95,56.729L190.73,56.699L191.5,56.966L192.28,56.835L193.06,56.79L193.83,56.98L194.61,56.819L195.38,56.652L196.16,56.817L196.94,56.783L197.71,56.728L198.49,56.77L199.27,56.823L200.04,56.786L200.82,56.748L201.6,56.76L202.37,56.877L203.15,56.715L203.93,56.927L204.7,56.703L205.48,56.691L206.26,56.462L207.03,56.784L207.81,56.736L208.58,56.788L209.36,56.667L210.14,56.847L210.91,56.78L211.69,56.669L212.47,56.739L213.24,56.865L214.02,56.762L214.8,56.824L215.57,56.689L216.35,56.862L217.13,56.754L217.9,56.785L218.68,56.692L219.46,56.856L220.23,56.813L221.01,56.856L221.79,56.789L222.56,56.91L223.34,56.816L224.11,56.945L224.89,56.578L225.67,56.751L226.44,56.826L227.22,56.903L228,56.79L228.77,56.722L229.55,56.905L230.33,56.833L231.1,56.805L231.88,56.856L232.66,56.813L233.43,56.724L234.21,56.638L234.99,56.831L235.76,56.827L236.54,56.819L237.31,56.739L238.09,56.852L238.87,56.965L239.64,56.925L240.42,56.836L241.2,56.736L241.97,56.711L242.75,56.758L243.53,56.673L244.3,56.855L245.08,56.731L245.86,56.862L246.63,56.895L247.41,56.717L248.19,56.675L248.96,56.912L249.74,56.811L250.51,56.8L251.29,56.788L252.07,56.769L252.84,56.77L253.62,56.827L254.4,56.837L255.17,56.852L255.95,56.724L256.73,56.629L257.5,56.844L258.28,56.752L259.06,56.786L259.83,56.822L260.61,56.75L261.39,56.983L262.16,56.779L262.94,56.794L263.72,56.817L264.49,56.918L265.27,56.901L266.04,56.801L266.82,56.77L267.6,56.818L268.37,56.748L269.15,56.965L269.93,56.594L270.7,56.869L271.48,56.867L272.26,56.782L273.03,56.79L273.81,56.732L274.59,56.751L275.36,56.774L276.14,56.808L276.92,56.802L277.69,56.657L278.47,56.768L279.24,56.892L280.02,56.846L280.8,56.863L281.57,56.868L282.35,56.684L283.13,56.79L283.9,56.741L284.68,56.841L285.46,56.947L286.23,56.74L287.01,56.796L287.79,56.952L288.56,56.618L289.34,56.754L290.12,56.774L290.89,56.753L291.67,56.605L292.44,56.743L293.22,56.746L294,56.612L294.77,56.833L295.55,56.75L296.33,56.727L297.1,56.873L297.88,56.611L298.66,56.673L299.43,56.801L300.21,56.733L300.99,56.759L301.76,56.901L302.54,56.806L303.32,56.83L304.09,56.829L304.87,56.797L305.65,56.866L306.42,56.754L307.2,56.815L307.97,56.928L308.75,56.679L309.53,56.725L310.3,56.949L311.08,56.803L311.86,56.861L312.63,56.602L313.41,56.812L314.19,56.825L314.96,56.731L315.74,56.915L316.52,56.638L317.29,56.764L318.07,56.832L318.85,56.762L319.62,56.782L320.4,56.857L321.17,56.923L321.95,56.817L322.73,56.898L323.5,56.932L324.28,56.828L325.06,56.775L325.83,56.946L326.61,56.755L327.39,57.002L328.16,56.678L328.94,56.729L329.72,56.739L330.49,56.763L331.27,56.73L332.05,56.86L332.82,56.809L333.6,56.894L334.37,56.806L335.15,56.734L335.93,56.775L336.7,56.713L337.48,56.677L338.26,56.911L339.03,56.767L339.81,56.876L340.59,56.841L341.36,56.654L342.14,56.231L342.92,55.807L343.69,54.557L344.47,54.807L345.25,54.961L346.02,55.017L346.8,55.415L347.58,54.972L348.35,55.038L349.13,55.089L349.9,55.392L350.68,55.188L351.46,55.102L352.23,54.956L353.01,55.141L353.79,54.993L354.56,55.07L355.34,55.06L356.12,55.222L356.89,54.806L357.67,55.12L358.45,55.067L359.22,55.381L360,55.334L360.78,55.026L361.55,55.17L362.33,55.144L363.1,55.221L363.88,55.085L364.66,55.118L365.43,55.18L366.21,55.179L366.99,55.043L367.76,55.147L368.54,55.151L369.32,54.983L370.09,55.017L370.87,55.079L371.65,55.105L372.42,55.337L373.2,54.909L373.98,55.335L374.75,55.177L375.53,55.378L376.3,54.931L377.08,55.132L377.86,55.045L378.63,55.23L379.41,54.854L380.19,55.158L380.96,55.091L381.74,54.973L382.52,55.078L383.29,55.252L384.07,55.204L384.85,55.319L385.62,55.144L386.4,55.197L387.18,54.982L387.95,55.189L388.73,55.025L389.51,55.161L390.28,55.055L391.06,55.098L391.83,55.184L392.61,55.387L393.39,55.516L394.16,55.099L394.94,55.095L395.72,55.142L396.49,55.077L397.27,55.078L398.05,55.077L398.82,55.089L399.6,55.313L400.38,55.225L401.15,57.46L401.31,277.93" style="fill:none;stroke:#F15A60" />
<path d="M405.2,275.78L425.2,275.78" style="fill:none;stroke:#F15A60" />
<text x="340.9" y="-273.29" transform="scale(1, -1)"
	style="font-family:Liberation Serif;font-variant:normal;font-weight:normal;font-style:normal;font-size:12px">random-read</text>
</g>
</svg>
