<?xml version="1.0"?>
<!-- Generated by SVGo and Plotinum VG -->
<svg width="425.2pt" height="283.46pt" viewBox="0 0 425.2 283.46"
	xmlns="http://www.w3.org/2000/svg"
	xmlns:xlink="http://www.w3.org/1999/xlink">
<g transform="scale(1, -1) translate(0, -283.46)">
<path d="M0,0L425.2,0L425.2,283.46L0,283.46Z" style="fill:#FFFFFF" />
<text x="207.46" y="-3.9023" transform="scale(1, -1)"
	style="font-family:Liberation Serif;font-variant:normal;font-weight:normal;font-style:normal;font-size:12px">database size</text>
<text x="60.689" y="-16.541" transform="scale(1, -1)"
	style="font-family:Liberation Serif;font-variant:normal;font-weight:normal;font-style:normal;font-size:10px">4.00 mb</text>
<text x="137.09" y="-16.541" transform="scale(1, -1)"
	style="font-family:Liberation Serif;font-variant:normal;font-weight:normal;font-style:normal;font-size:10px">260.00 mb</text>
<text x="218.5" y="-16.541" transform="scale(1, -1)"
	style="font-family:Liberation Serif;font-variant:normal;font-weight:normal;font-style:normal;font-size:10px">516.00 mb</text>
<text x="299.9" y="-16.541" transform="scale(1, -1)"
	style="font-family:Liberation Serif;font-variant:normal;font-weight:normal;font-style:normal;font-size:10px">772.00 mb</text>
<text x="377.42" y="-16.541" transform="scale(1, -1)"
	style="font-family:Liberation Serif;font-variant:normal;font-weight:normal;font-style:normal;font-size:10px">1023.64 mb</text>
<path d="M77.078,24.363L77.078,32.363" style="fill:none;stroke:#000000;stroke-width:0.5" />
<path d="M158.48,24.363L158.48,32.363" style="fill:none;stroke:#000000;stroke-width:0.5" />
<path d="M239.89,24.363L239.89,32.363" style="fill:none;stroke:#000000;stroke-width:0.5" />
<path d="M321.29,24.363L321.29,32.363" style="fill:none;stroke:#000000;stroke-width:0.5" />
<path d="M401.31,24.363L401.31,32.363" style="fill:none;stroke:#000000;stroke-width:0.5" />
<path d="M76.583,32.363L401.31,32.363" style="fill:none;stroke:#000000;stroke-width:0.5" />
<g transform="rotate(90)">
<text x="145.41" y="9.3867" transform="scale(1, -1)"
	style="font-family:Liberation Serif;font-variant:normal;font-weight:normal;font-style:normal;font-size:12px">speed</text>
</g>
<text x="20.885" y="-37.927" transform="scale(1, -1)"
	style="font-family:Liberation Serif;font-variant:normal;font-weight:normal;font-style:normal;font-size:10px">0.03 mb/s</text>
<text x="15.885" y="-114.74" transform="scale(1, -1)"
	style="font-family:Liberation Serif;font-variant:normal;font-weight:normal;font-style:normal;font-size:10px">32.03 mb/s</text>
<text x="15.885" y="-191.55" transform="scale(1, -1)"
	style="font-family:Liberation Serif;font-variant:normal;font-weight:normal;font-style:normal;font-size:10px">64.03 mb/s</text>
<text x="15.885" y="-268.36" transform="scale(1, -1)"
	style="font-family:Liberation Serif;font-variant:normal;font-weight:normal;font-style:normal;font-size:10px">96.03 mb/s</text>
<text x="15.885" y="-275.64" transform="scale(1, -1)"
	style="font-family:Liberation Serif;font-variant:normal;font-weight:normal;font-style:normal;font-size:10px">99.07 mb/s</text>
<path d="M62.833,40.212L70.833,40.212" style="fill:none;stroke:#000000;stroke-width:0.5" />
<path d="M62.833,117.02L70.833,117.02" style="fill:none;stroke:#000000;stroke-width:0.5" />
<path d="M62.833,193.83L70.833,193.83" style="fill:none;stroke:#000000;stroke-width:0.5" />
<path d="M62.833,270.64L70.833,270.64" style="fill:none;stroke:#000000;stroke-width:0.5" />
<path d="M62.833,277.93L70.833,277.93" style="fill:none;stroke:#000000;stroke-width:0.5" />
<path d="M70.833,40.209L70.833,277.93" style="fill:none;stroke:#000000;stroke-width:0.5" />
<path d="M76.583,40.209L77.359,47.791L78.136,47.986L78.912,48.468L79.689,48.926L80.465,49.021L81.242,49.151L82.018,49.188L82.795,49.21L83.571,49.381L84.348,49.28L85.124,49.564L85.901,49.603L86.677,50.402L87.454,53.447L88.23,53.713L89.007,53.818L89.783,53.756L90.56,53.525L91.336,53.732L92.113,53.893L92.889,53.894L93.666,54.202L94.442,54.17L95.219,53.787L95.995,53.955L96.772,53.816L97.548,53.971L98.324,53.901L99.101,53.904L99.877,53.859L100.65,53.882L101.43,53.825L102.21,53.791L102.98,53.798L103.76,53.814L104.54,53.919L105.31,53.777L106.09,53.912L106.87,53.945L107.64,54.181L108.42,54.223L109.2,53.916L109.97,53.989L110.75,53.958L111.52,54.084L112.3,54.181L113.08,53.881L113.85,54.07L114.63,53.799L115.41,53.997L116.18,54.031L116.96,54.066L117.74,54.217L118.51,54.328L119.29,53.91L120.07,54.051L120.84,53.97L121.62,54.129L122.4,53.919L123.17,54.054L123.95,54.07L124.72,53.994L125.5,53.951L126.28,53.94L127.05,53.78L127.83,53.732L128.61,53.839L129.38,54.033L130.16,54.173L130.94,54.123L131.71,54.124L132.49,54.231L133.27,54.014L134.04,53.992L134.82,53.948L135.6,54.223L136.37,54.369L137.15,54.033L137.93,54.065L138.7,53.927L139.48,54.096L140.25,54.173L141.03,53.949L141.81,54.24L142.58,53.912L143.36,53.725L144.14,53.977L144.91,53.856L145.69,53.989L146.47,53.939L147.24,54.068L148.02,54.153L148.8,53.337L149.57,53.862L150.35,53.876L151.13,53.947L151.9,53.552L152.68,53.886L153.45,53.763L154.23,54.08L155.01,54.223L155.78,54.206L156.56,54.091L157.34,54.059L158.11,54.127L158.89,54.152L159.67,54.11L160.44,54.376L161.22,54.186L162,54.158L162.77,53.99L163.55,53.88L164.33,53.888L165.1,53.824L165.88,54.118L166.65,54.043L167.43,53.966L168.21,54.086L168.98,53.985L169.76,54.296L170.54,54.237L171.31,54.257L172.09,54.299L172.87,54.201L173.64,54.259L174.42,54.099L175.2,54.188L175.97,54.303L176.75,54.264L177.53,54.337L178.3,54.26L179.08,54.28L179.86,54.375L180.63,54.417L181.41,54.328L182.18,54.372L182.96,54.348L183.74,54.146L184.51,54.085L185.29,54.053L186.07,54.399L186.84,54.4L187.62,54.054L188.4,54.235L189.17,54.103L189.95,54.09L190.73,54.115L191.5,54.221L192.28,54.381L193.06,54.155L193.83,54.177L194.61,54.216L195.38,54.158L196.16,54.48L196.94,54.216L197.71,54.494L198.49,54.525L199.27,54.221L200.04,54.376L200.82,54.201L201.6,54.189L202.37,54.277L203.15,54.238L203.93,54.355L204.7,54.193L205.48,54.47L206.26,54.53L207.03,54.294L207.81,54.399L208.58,54.309L209.36,54.225L210.14,54.274L210.91,54.251L211.69,54.177L212.47,54.221L213.24,54.308L214.02,54.349L214.8,54.376L215.57,54.503L216.35,54.614L217.13,54.478L217.9,54.314L218.68,54.532L219.46,54.559L220.23,54.693L221.01,54.709L221.79,54.271L222.56,54.399L223.34,54.32L224.11,54.589L224.89,54.642L225.67,54.622L226.44,54.798L227.22,54.411L228,54.502L228.77,54.91L229.55,54.829L230.33,55.042L231.1,54.909L231.88,54.876L232.66,54.972L233.43,55.06L234.21,55.269L234.99,55.177L235.76,55.12L236.54,55.215L237.31,54.802L238.09,54.831L238.87,54.908L239.64,54.982L240.42,55.209L241.2,54.897L241.97,54.837L242.75,54.982L243.53,54.805L244.3,54.844L245.08,54.826L245.86,55.057L246.63,55.196L247.41,55.01L248.19,55.249L248.96,55.146L249.74,54.783L250.51,54.895L251.29,54.749L252.07,54.94L252.84,55.048L253.62,54.832L254.4,55.244L255.17,55.01L255.95,55.205L256.73,55.153L257.5,54.946L258.28,55.007L259.06,54.914L259.83,54.851L260.61,54.997L261.39,54.887L262.16,54.571L262.94,55.096L263.72,54.913L264.49,55.074L265.27,54.888L266.04,55.322L266.82,55.262L267.6,54.802L268.37,55.025L269.15,54.861L269.93,54.981L270.7,54.937L271.48,54.859L272.26,55.227L273.03,55.069L273.81,55.579L274.59,55.312L275.36,55.372L276.14,55.544L276.92,55.334L277.69,55.24L278.47,55.528L279.24,55.362L280.02,55.399L280.8,55.302L281.57,55.152L282.35,55.192L283.13,55.173L283.9,55.277L284.68,55.342L285.46,55.222L286.23,55.523L287.01,55.545L287.79,55.64L288.56,55.379L289.34,55.288L290.12,55.467L290.89,55.468L291.67,55.354L292.44,55.443L293.22,55.376L294,55.671L294.77,55.697L295.55,55.723L296.33,55.967L297.1,55.86L297.88,55.948L298.66,56.075L299.43,55.898L300.21,55.972L300.99,56.153L301.76,56.069L302.54,56.282L303.32,56.16L304.09,56.031L304.87,56.246L305.65,56.206L306.42,56.268L307.2,56.328L307.97,56.364L308.75,56.434L309.53,56.268L310.3,56.356L311.08,56.428L311.86,56.421L312.63,56.3L313.41,56.116L314.19,56.142L314.96,56.108L315.74,56.614L316.52,56.753L317.29,56.589L318.07,56.515L318.85,56.911L319.62,57.132L320.4,57.365L321.17,57.218L321.95,57.37L322.73,57.372L323.5,57.175L324.28,57.308L325.06,57.056L325.83,57.216L326.61,57.606L327.39,57.661L328.16,57.566L328.94,57.23L329.72,56.588L330.49,57.417L331.27,57.638L332.05,57.895L332.82,57.878L333.6,57.789L334.37,57.885L335.15,58.554L335.93,58.204L336.7,58.292L337.48,58.214L338.26,58.464L339.03,58.404L339.81,58.412L340.59,58.591L341.36,58.505L342.14,58.713L342.92,58.902L343.69,59.109L344.47,59.363L345.25,58.899L346.02,59.267L346.8,59.224L347.58,59.06L348.35,59.477L349.13,59.504L349.9,58.88L350.68,59.211L351.46,59.793L352.23,59.671L353.01,59.711L353.79,59.496L354.56,59.608L355.34,59.548L356.12,59.448L356.89,59.587L357.67,59.396L358.45,59.723L359.22,60.137L360,60.532L360.78,60.314L361.55,60.553L362.33,61.053L363.1,60.971L363.88,60.718L364.66,61.011L365.43,60.688L366.21,60.597L366.99,60.787L367.76,61.701L368.54,62.122L369.32,61.861L370.09,61.771L370.87,61.295L371.65,61.351L372.42,62.059L373.2,62.051L373.98,61.633L374.75,61.959L375.53,62.462L376.3,63.34L377.08,63.219L377.86,62.789L378.63,62.856L379.41,62.787L380.19,63.077L380.96,63.277L381.74,62.944L382.52,63.285L383.29,63.393L384.07,65.134L384.85,65.41L385.62,65.173L386.4,64.762L387.18,64.861L387.95,65.237L388.73,65.62L389.51,65.048L390.28,65.208L391.06,65.359L391.83,66.234L392.61,67.071L393.39,67.232L394.16,66.852L394.94,67.324L395.72,67.153L396.49,67.98L397.27,68.043L398.05,68.121L398.82,67.827L399.6,69.336L400.38,85.025L401.15,121.7L401.31,277.93" style="fill:none;stroke:#F15A60" />
<path d="M405.2,275.78L425.2,275.78" style="fill:none;stroke:#F15A60" />
<text x="266.94" y="-273.29" transform="scale(1, -1)"
	style="font-family:Liberation Serif;font-variant:normal;font-weight:normal;font-style:normal;font-size:12px">random-read-bigcache-filter</text>
</g>
</svg>
