<?xml version="1.0"?>
<!-- Generated by SVGo and Plotinum VG -->
<svg width="425.2pt" height="283.46pt" viewBox="0 0 425.2 283.46"
	xmlns="http://www.w3.org/2000/svg"
	xmlns:xlink="http://www.w3.org/1999/xlink">
<g transform="scale(1, -1) translate(0, -283.46)">
<path d="M0,0L425.2,0L425.2,283.46L0,283.46Z" style="fill:#FFFFFF" />
<text x="207.23" y="-3.8613" transform="scale(1, -1)"
	style="font-family:Times;font-weight:normal;font-style:normal;font-size:12px">database size</text>
<text x="60.221" y="-15.602" transform="scale(1, -1)"
	style="font-family:Times;font-weight:normal;font-style:normal;font-size:10px">4.00 mb</text>
<text x="136.74" y="-15.602" transform="scale(1, -1)"
	style="font-family:Times;font-weight:normal;font-style:normal;font-size:10px">260.00 mb</text>
<text x="218.26" y="-15.602" transform="scale(1, -1)"
	style="font-family:Times;font-weight:normal;font-style:normal;font-size:10px">516.00 mb</text>
<text x="299.79" y="-15.602" transform="scale(1, -1)"
	style="font-family:Times;font-weight:normal;font-style:normal;font-size:10px">772.00 mb</text>
<text x="377.42" y="-15.602" transform="scale(1, -1)"
	style="font-family:Times;font-weight:normal;font-style:normal;font-size:10px">1023.64 mb</text>
<path d="M76.61,25.23L76.61,33.23" style="fill:none;stroke:#000000;stroke-width:0.5" />
<path d="M158.13,25.23L158.13,33.23" style="fill:none;stroke:#000000;stroke-width:0.5" />
<path d="M239.65,25.23L239.65,33.23" style="fill:none;stroke:#000000;stroke-width:0.5" />
<path d="M321.18,25.23L321.18,33.23" style="fill:none;stroke:#000000;stroke-width:0.5" />
<path d="M401.31,25.23L401.31,33.23" style="fill:none;stroke:#000000;stroke-width:0.5" />
<path d="M76.114,33.23L401.31,33.23" style="fill:none;stroke:#000000;stroke-width:0.5" />
<g transform="rotate(90)">
<text x="144.86" y="11.555" transform="scale(1, -1)"
	style="font-family:Times;font-weight:normal;font-style:normal;font-size:12px">speed</text>
</g>
<text x="20.416" y="-33.79" transform="scale(1, -1)"
	style="font-family:Times;font-weight:normal;font-style:normal;font-size:10px">0.03 mb/s</text>
<text x="15.416" y="-145.23" transform="scale(1, -1)"
	style="font-family:Times;font-weight:normal;font-style:normal;font-size:10px">32.03 mb/s</text>
<text x="15.416" y="-256.68" transform="scale(1, -1)"
	style="font-family:Times;font-weight:normal;font-style:normal;font-size:10px">64.03 mb/s</text>
<text x="15.416" y="-273.84" transform="scale(1, -1)"
	style="font-family:Times;font-weight:normal;font-style:normal;font-size:10px">68.96 mb/s</text>
<path d="M62.364,38.511L70.364,38.511" style="fill:none;stroke:#000000;stroke-width:0.5" />
<path d="M62.364,149.96L70.364,149.96" style="fill:none;stroke:#000000;stroke-width:0.5" />
<path d="M62.364,261.4L70.364,261.4" style="fill:none;stroke:#000000;stroke-width:0.5" />
<path d="M62.364,278.56L70.364,278.56" style="fill:none;stroke:#000000;stroke-width:0.5" />
<path d="M70.364,38.48L70.364,278.56" style="fill:none;stroke:#000000;stroke-width:0.5" />
<path d="M76.114,38.48L76.892,51.52L77.669,51.975L78.447,52.147L79.225,52.104L80.002,52.428L80.78,53.054L81.557,52.397L82.335,56.144L83.113,56.184L83.89,57.144L84.668,57.16L85.445,56.682L86.223,57.684L87.001,56.933L87.778,57.295L88.556,57.574L89.334,57.451L90.111,57.783L90.889,58.206L91.666,57.963L92.444,58.258L93.222,58.293L93.999,57.733L94.777,58.695L95.554,58.751L96.332,58.563L97.11,59.249L97.887,59.478L98.665,59.014L99.442,57.981L100.22,59.517L101,59.709L101.78,59.844L102.55,61.303L103.33,61.81L104.11,62.404L104.89,62.223L105.66,62.245L106.44,62.043L107.22,62.303L108,62.262L108.77,63.057L109.55,62.633L110.33,62.362L111.11,62.366L111.88,61.45L112.66,62.001L113.44,62.662L114.22,62.213L114.99,62.612L115.77,62.523L116.55,62.538L117.33,62.924L118.1,62.155L118.88,62.167L119.66,62.525L120.44,62.22L121.22,62.758L121.99,62.65L122.77,62.492L123.55,62.461L124.33,62.862L125.1,62.218L125.88,62.466L126.66,62.521L127.44,62.76L128.21,63.165L128.99,62.881L129.77,63.058L130.55,62.793L131.32,62.944L132.1,62.817L132.88,63.294L133.66,62.44L134.43,62.558L135.21,61.996L135.99,62.767L136.77,62.714L137.54,62.875L138.32,62.538L139.1,62.592L139.88,62.399L140.66,62.405L141.43,62.658L142.21,62.961L142.99,62.604L143.77,62.357L144.54,62.395L145.32,62.715L146.1,62.186L146.88,62.774L147.65,62.089L148.43,63.17L149.21,62.715L149.99,63.21L150.76,63.157L151.54,63.104L152.32,62.673L153.1,63.252L153.87,62.521L154.65,62.982L155.43,62.296L156.21,62.223L156.98,62.146L157.76,63.075L158.54,63.156L159.32,62.537L160.1,62.552L160.87,62.58L161.65,62.645L162.43,62.925L163.21,62.895L163.98,62.537L164.76,62.585L165.54,63.295L166.32,63.165L167.09,62.931L167.87,62.39L168.65,62.894L169.43,62.373L170.2,62.723L170.98,63.144L171.76,62.858L172.54,63.063L173.31,62.608L174.09,62.558L174.87,62.817L175.65,63.367L176.43,62.214L177.2,62.353L177.98,62.768L178.76,62.976L179.54,62.788L180.31,63.33L181.09,62.519L181.87,62.698L182.65,62.798L183.42,62.791L184.2,62.745L184.98,62.476L185.76,62.224L186.53,62.666L187.31,62.478L188.09,63.01L188.87,62.77L189.64,63.025L190.42,62.498L191.2,62.658L191.98,62.077L192.75,63.405L193.53,62.765L194.31,63.036L195.09,63.015L195.87,63.138L196.64,62.456L197.42,63.156L198.2,62.718L198.98,62.537L199.75,62.535L200.53,61.686L201.31,62.23L202.09,62.313L202.86,62.433L203.64,63.291L204.42,62.88L205.2,62.629L205.97,62.542L206.75,62.235L207.53,62.321L208.31,63.021L209.08,62.785L209.86,62.561L210.64,62.264L211.42,62.219L212.19,61.646L212.97,61.599L213.75,61.563L214.53,61.149L215.31,61.562L216.08,60.997L216.86,61.866L217.64,61.912L218.42,62.024L219.19,61.942L219.97,62.466L220.75,62.064L221.53,62.239L222.3,62.141L223.08,61.425L223.86,61.573L224.64,62.349L225.41,61.844L226.19,61.794L226.97,62.303L227.75,62.948L228.52,61.6L229.3,62.325L230.08,61.533L230.86,62.261L231.63,62.425L232.41,63.223L233.19,62.794L233.97,61.645L234.75,62.222L235.52,62.707L236.3,62.6L237.08,62.328L237.86,62.141L238.63,61.769L239.41,61.856L240.19,63.102L240.97,62.711L241.74,62.68L242.52,62.293L243.3,62.23L244.08,61.287L244.85,62.314L245.63,62.351L246.41,61.671L247.19,62.248L247.96,62.55L248.74,61.726L249.52,62.123L250.3,62.424L251.07,62.489L251.85,62.344L252.63,62.59L253.41,62.67L254.19,61.605L254.96,62.004L255.74,62.783L256.52,62.724L257.3,62.133L258.07,62.161L258.85,62.075L259.63,62.15L260.41,62.226L261.18,62.802L261.96,61.877L262.74,63.04L263.52,61.982L264.29,61.773L265.07,62.199L265.85,63.461L266.63,61.958L267.4,62.098L268.18,62.703L268.96,62.744L269.74,61.724L270.51,63.044L271.29,62.328L272.07,61.863L272.85,62.417L273.63,62.92L274.4,62.384L275.18,61.334L275.96,61.892L276.74,62.953L277.51,62.725L278.29,62.994L279.07,62.458L279.85,62.02L280.62,62.28L281.4,62.595L282.18,61.656L282.96,62.509L283.73,62.745L284.51,62.381L285.29,61.4L286.07,62.586L286.84,62.269L287.62,61.448L288.4,62.028L289.18,62.17L289.95,61.837L290.73,62.232L291.51,62.348L292.29,61.912L293.07,61.677L293.84,62.616L294.62,62.583L295.4,61.719L296.18,62.21L296.95,62.085L297.73,62.3L298.51,62.821L299.29,61.91L300.06,62.098L300.84,61.776L301.62,61.415L302.4,62.065L303.17,62.185L303.95,62.002L304.73,61.16L305.51,62.208L306.28,62.199L307.06,62.57L307.84,62.426L308.62,62.96L309.4,62.289L310.17,62.586L310.95,61.369L311.73,61.909L312.51,62.65L313.28,62.228L314.06,61.716L314.84,62.301L315.62,61.161L316.39,62.016L317.17,62.16L317.95,62.36L318.73,61.739L319.5,63.172L320.28,62.618L321.06,61.857L321.84,62.337L322.61,62.917L323.39,61.984L324.17,62.13L324.95,62.423L325.72,62.569L326.5,62.185L327.28,62.433L328.06,62.217L328.84,61.592L329.61,61.867L330.39,63.098L331.17,62.526L331.95,62.368L332.72,62.129L333.5,62.31L334.28,61.692L335.06,62.507L335.83,62.313L336.61,61.682L337.39,61.931L338.17,62.3L338.94,62.151L339.72,62.107L340.5,63.171L341.28,62.084L342.05,61.805L342.83,62.326L343.61,62.593L344.39,61.378L345.16,62.428L345.94,62.477L346.72,62.384L347.5,62.89L348.28,63.106L349.05,62.123L349.83,62.292L350.61,62.537L351.39,62.896L352.16,62.776L352.94,62.957L353.72,62.842L354.5,62.024L355.27,62.114L356.05,62.98L356.83,62.255L357.61,61.682L358.38,62.017L359.16,62.252L359.94,61.243L360.72,62.212L361.49,62.176L362.27,61.869L363.05,62.129L363.83,63.242L364.6,62.347L365.38,61.68L366.16,61.746L366.94,62.898L367.72,62.621L368.49,62.532L369.27,61.525L370.05,62.309L370.83,61.362L371.6,62.377L372.38,62.797L373.16,63.098L373.94,62.515L374.71,61.997L375.49,60.992L376.27,62.618L377.05,62.921L377.82,62.412L378.6,62.371L379.38,62.172L380.16,61.901L380.93,61.502L381.71,62.573L382.49,62.527L383.27,62.144L384.04,62.118L384.82,62.61L385.6,62.388L386.38,62.465L387.16,62.378L387.93,62.319L388.71,61.338L389.49,62.905L390.27,62.566L391.04,61.598L391.82,62.134L392.6,63.195L393.38,62.422L394.15,62.611L394.93,62.146L395.71,62.773L396.49,61.825L397.26,62.895L398.04,62.159L398.82,61.901L399.6,61.871L400.37,62.702L401.15,65.42L401.31,278.56" style="fill:none;stroke:#F15A60" />
<path d="M405.2,277.58L425.2,277.58" style="fill:none;stroke:#F15A60" />
<text x="266.94" y="-271.91" transform="scale(1, -1)"
	style="font-family:Times;font-weight:normal;font-style:normal;font-size:12px">random-read-bigcache-filter</text>
</g>
</svg>
