<?xml version="1.0"?>
<!-- Generated by SVGo and Plotinum VG -->
<svg width="425.2pt" height="283.46pt" viewBox="0 0 425.2 283.46"
	xmlns="http://www.w3.org/2000/svg"
	xmlns:xlink="http://www.w3.org/1999/xlink">
<g transform="scale(1, -1) translate(0, -283.46)">
<path d="M0,0L425.2,0L425.2,283.46L0,283.46Z" style="fill:#FFFFFF" />
<text x="207.23" y="-3.8613" transform="scale(1, -1)"
	style="font-family:Times;font-weight:normal;font-style:normal;font-size:12px">database size</text>
<text x="60.221" y="-15.602" transform="scale(1, -1)"
	style="font-family:Times;font-weight:normal;font-style:normal;font-size:10px">4.00 mb</text>
<text x="136.74" y="-15.602" transform="scale(1, -1)"
	style="font-family:Times;font-weight:normal;font-style:normal;font-size:10px">260.00 mb</text>
<text x="218.26" y="-15.602" transform="scale(1, -1)"
	style="font-family:Times;font-weight:normal;font-style:normal;font-size:10px">516.00 mb</text>
<text x="299.79" y="-15.602" transform="scale(1, -1)"
	style="font-family:Times;font-weight:normal;font-style:normal;font-size:10px">772.00 mb</text>
<text x="377.42" y="-15.602" transform="scale(1, -1)"
	style="font-family:Times;font-weight:normal;font-style:normal;font-size:10px">1023.64 mb</text>
<path d="M76.61,25.23L76.61,33.23" style="fill:none;stroke:#000000;stroke-width:0.5" />
<path d="M158.13,25.23L158.13,33.23" style="fill:none;stroke:#000000;stroke-width:0.5" />
<path d="M239.65,25.23L239.65,33.23" style="fill:none;stroke:#000000;stroke-width:0.5" />
<path d="M321.18,25.23L321.18,33.23" style="fill:none;stroke:#000000;stroke-width:0.5" />
<path d="M401.31,25.23L401.31,33.23" style="fill:none;stroke:#000000;stroke-width:0.5" />
<path d="M76.114,33.23L401.31,33.23" style="fill:none;stroke:#000000;stroke-width:0.5" />
<g transform="rotate(90)">
<text x="144.86" y="11.555" transform="scale(1, -1)"
	style="font-family:Times;font-weight:normal;font-style:normal;font-size:12px">speed</text>
</g>
<text x="20.416" y="-33.788" transform="scale(1, -1)"
	style="font-family:Times;font-weight:normal;font-style:normal;font-size:10px">0.03 mb/s</text>
<text x="15.416" y="-139.55" transform="scale(1, -1)"
	style="font-family:Times;font-weight:normal;font-style:normal;font-size:10px">32.03 mb/s</text>
<text x="15.416" y="-245.3" transform="scale(1, -1)"
	style="font-family:Times;font-weight:normal;font-style:normal;font-size:10px">64.03 mb/s</text>
<text x="15.416" y="-273.84" transform="scale(1, -1)"
	style="font-family:Times;font-weight:normal;font-style:normal;font-size:10px">72.66 mb/s</text>
<path d="M62.364,38.51L70.364,38.51" style="fill:none;stroke:#000000;stroke-width:0.5" />
<path d="M62.364,144.27L70.364,144.27" style="fill:none;stroke:#000000;stroke-width:0.5" />
<path d="M62.364,250.02L70.364,250.02" style="fill:none;stroke:#000000;stroke-width:0.5" />
<path d="M62.364,278.56L70.364,278.56" style="fill:none;stroke:#000000;stroke-width:0.5" />
<path d="M70.364,38.48L70.364,278.56" style="fill:none;stroke:#000000;stroke-width:0.5" />
<path d="M76.114,38.48L76.892,44.235L77.669,44.812L78.447,45.582L79.225,46.085L80.002,46.48L80.78,46.524L81.557,46.523L82.335,46.771L83.113,47.3L83.89,47.76L84.668,47.603L85.445,47.635L86.223,47.779L87.001,47.658L87.778,47.773L88.556,47.733L89.334,47.661L90.111,47.684L90.889,47.661L91.666,47.634L92.444,47.743L93.222,47.72L93.999,47.734L94.777,47.806L95.554,47.741L96.332,47.683L97.11,47.717L97.887,47.478L98.665,47.727L99.442,47.669L100.22,47.688L101,47.751L101.78,47.807L102.55,47.474L103.33,47.347L104.11,47.359L104.89,47.387L105.66,47.567L106.44,47.621L107.22,47.494L108,47.552L108.77,47.503L109.55,47.53L110.33,47.636L111.11,47.526L111.88,47.558L112.66,47.577L113.44,47.559L114.22,47.629L114.99,47.577L115.77,47.589L116.55,47.719L117.33,47.594L118.1,47.549L118.88,47.651L119.66,47.61L120.44,47.554L121.22,47.595L121.99,47.655L122.77,47.517L123.55,47.56L124.33,47.525L125.1,47.505L125.88,47.598L126.66,47.465L127.44,47.499L128.21,47.627L128.99,47.633L129.77,47.58L130.55,47.586L131.32,47.553L132.1,47.683L132.88,47.46L133.66,47.522L134.43,47.684L135.21,47.704L135.99,47.555L136.77,47.568L137.54,47.707L138.32,47.657L139.1,47.583L139.88,47.622L140.66,47.611L141.43,47.652L142.21,47.515L142.99,47.555L143.77,47.508L144.54,47.636L145.32,47.587L146.1,47.6L146.88,47.633L147.65,47.637L148.43,47.659L149.21,47.573L149.99,47.603L150.76,47.61L151.54,47.501L152.32,47.624L153.1,47.641L153.87,47.578L154.65,47.452L155.43,47.617L156.21,47.676L156.98,47.569L157.76,47.571L158.54,47.651L159.32,47.655L160.1,47.535L160.87,47.617L161.65,47.618L162.43,47.626L163.21,47.619L163.98,47.496L164.76,47.606L165.54,47.669L166.32,47.604L167.09,47.503L167.87,47.622L168.65,47.466L169.43,47.661L170.2,47.612L170.98,47.645L171.76,47.599L172.54,47.491L173.31,47.564L174.09,47.63L174.87,47.612L175.65,47.593L176.43,47.541L177.2,47.674L177.98,47.619L178.76,47.55L179.54,47.487L180.31,47.549L181.09,47.603L181.87,47.554L182.65,47.572L183.42,47.684L184.2,47.629L184.98,47.633L185.76,47.618L186.53,47.648L187.31,47.624L188.09,47.618L188.87,47.589L189.64,47.696L190.42,47.595L191.2,47.557L191.98,47.674L192.75,47.759L193.53,47.657L194.31,47.5L195.09,47.76L195.87,47.634L196.64,47.568L197.42,47.65L198.2,47.705L198.98,47.715L199.75,47.633L200.53,47.641L201.31,47.734L202.09,47.626L202.86,47.732L203.64,47.557L204.42,47.65L205.2,47.789L205.97,47.756L206.75,47.761L207.53,47.763L208.31,47.807L209.08,47.795L209.86,47.779L210.64,47.754L211.42,47.865L212.19,47.754L212.97,47.802L213.75,47.73L214.53,47.788L215.31,47.73L216.08,47.783L216.86,47.83L217.64,47.786L218.42,47.711L219.19,47.811L219.97,47.773L220.75,47.758L221.53,47.802L222.3,47.74L223.08,47.795L223.86,47.581L224.64,47.587L225.41,47.55L226.19,47.533L226.97,47.514L227.75,47.511L228.52,47.598L229.3,47.57L230.08,47.654L230.86,47.623L231.63,47.762L232.41,47.813L233.19,47.789L233.97,47.794L234.75,47.693L235.52,47.796L236.3,47.711L237.08,47.811L237.86,47.833L238.63,47.757L239.41,47.815L240.19,47.691L240.97,47.817L241.74,47.784L242.52,47.758L243.3,47.742L244.08,47.806L244.85,47.784L245.63,47.78L246.41,47.835L247.19,47.84L247.96,47.733L248.74,47.806L249.52,47.751L250.3,47.786L251.07,47.783L251.85,47.78L252.63,47.86L253.41,47.801L254.19,47.767L254.96,47.753L255.74,47.82L256.52,47.804L257.3,47.705L258.07,47.816L258.85,47.772L259.63,47.694L260.41,47.755L261.18,47.795L261.96,47.69L262.74,47.769L263.52,47.794L264.29,47.816L265.07,47.836L265.85,47.784L266.63,47.821L267.4,47.808L268.18,47.782L268.96,47.778L269.74,47.732L270.51,47.764L271.29,47.794L272.07,47.824L272.85,47.77L273.63,47.799L274.4,47.732L275.18,47.72L275.96,47.715L276.74,47.744L277.51,47.792L278.29,47.723L279.07,47.715L279.85,47.78L280.62,47.868L281.4,47.747L282.18,47.765L282.96,47.823L283.73,47.778L284.51,47.814L285.29,47.773L286.07,47.805L286.84,47.744L287.62,47.745L288.4,47.79L289.18,47.781L289.95,47.78L290.73,47.737L291.51,47.749L292.29,47.797L293.07,47.827L293.84,47.77L294.62,47.716L295.4,47.768L296.18,47.714L296.95,47.779L297.73,47.844L298.51,47.814L299.29,47.751L300.06,47.853L300.84,47.748L301.62,47.786L302.4,47.808L303.17,47.871L303.95,47.785L304.73,47.782L305.51,47.726L306.28,47.797L307.06,47.774L307.84,47.811L308.62,47.735L309.4,47.809L310.17,47.735L310.95,47.796L311.73,47.798L312.51,47.67L313.28,47.835L314.06,47.73L314.84,47.711L315.62,47.779L316.39,47.78L317.17,47.867L317.95,47.752L318.73,47.784L319.5,47.796L320.28,47.73L321.06,47.821L321.84,47.77L322.61,47.819L323.39,47.81L324.17,47.651L324.95,47.804L325.72,47.823L326.5,47.738L327.28,47.853L328.06,47.837L328.84,47.743L329.61,47.728L330.39,47.739L331.17,47.8L331.95,47.804L332.72,47.731L333.5,47.785L334.28,47.872L335.06,47.803L335.83,47.74L336.61,47.765L337.39,47.859L338.17,47.697L338.94,48.035L339.72,47.985L340.5,47.982L341.28,47.981L342.05,47.928L342.83,47.94L343.61,47.998L344.39,48.032L345.16,47.952L345.94,48.358L346.72,48.651L347.5,48.714L348.28,48.64L349.05,48.51L349.83,48.762L350.61,48.701L351.39,48.638L352.16,48.672L352.94,48.752L353.72,49.388L354.5,49.353L355.27,49.339L356.05,49.419L356.83,49.384L357.61,49.396L358.38,49.343L359.16,49.331L359.94,49.427L360.72,49.886L361.49,50.043L362.27,49.933L363.05,50.011L363.83,49.979L364.6,50.142L365.38,49.972L366.16,50.013L366.94,50.114L367.72,50.306L368.49,50.691L369.27,50.348L370.05,50.671L370.83,50.643L371.6,50.603L372.38,50.602L373.16,50.599L373.94,50.576L374.71,50.598L375.49,50.84L376.27,50.618L377.05,50.705L377.82,50.605L378.6,50.871L379.38,50.706L380.16,50.78L380.93,50.51L381.71,50.966L382.49,51.152L383.27,51.527L384.04,51.489L384.82,51.411L385.6,51.503L386.38,51.57L387.16,51.312L387.93,51.529L388.71,51.539L389.49,51.778L390.27,52.529L391.04,52.566L391.82,51.938L392.6,52.086L393.38,52.325L394.15,52.414L394.93,52.022L395.71,52.101L396.49,52.563L397.26,54.648L398.04,54.761L398.82,54.911L399.6,55.126L400.37,55.098L401.15,57.303L401.31,278.56" style="fill:none;stroke:#F15A60" />
<path d="M405.2,277.58L425.2,277.58" style="fill:none;stroke:#F15A60" />
<text x="313.58" y="-271.91" transform="scale(1, -1)"
	style="font-family:Times;font-weight:normal;font-style:normal;font-size:12px">random-read-filter</text>
</g>
</svg>
