<?xml version="1.0"?>
<!-- Generated by SVGo and Plotinum VG -->
<svg width="425.2pt" height="283.46pt" viewBox="0 0 425.2 283.46"
	xmlns="http://www.w3.org/2000/svg"
	xmlns:xlink="http://www.w3.org/1999/xlink">
<g transform="scale(1, -1) translate(0, -283.46)">
<path d="M0,0L425.2,0L425.2,283.46L0,283.46Z" style="fill:#FFFFFF" />
<text x="207.23" y="-3.8613" transform="scale(1, -1)"
	style="font-family:Times;font-weight:normal;font-style:normal;font-size:12px">database size</text>
<text x="60.221" y="-15.602" transform="scale(1, -1)"
	style="font-family:Times;font-weight:normal;font-style:normal;font-size:10px">4.00 mb</text>
<text x="136.74" y="-15.602" transform="scale(1, -1)"
	style="font-family:Times;font-weight:normal;font-style:normal;font-size:10px">260.00 mb</text>
<text x="218.26" y="-15.602" transform="scale(1, -1)"
	style="font-family:Times;font-weight:normal;font-style:normal;font-size:10px">516.00 mb</text>
<text x="299.79" y="-15.602" transform="scale(1, -1)"
	style="font-family:Times;font-weight:normal;font-style:normal;font-size:10px">772.00 mb</text>
<text x="377.42" y="-15.602" transform="scale(1, -1)"
	style="font-family:Times;font-weight:normal;font-style:normal;font-size:10px">1023.64 mb</text>
<path d="M76.61,25.23L76.61,33.23" style="fill:none;stroke:#000000;stroke-width:0.5" />
<path d="M158.13,25.23L158.13,33.23" style="fill:none;stroke:#000000;stroke-width:0.5" />
<path d="M239.65,25.23L239.65,33.23" style="fill:none;stroke:#000000;stroke-width:0.5" />
<path d="M321.18,25.23L321.18,33.23" style="fill:none;stroke:#000000;stroke-width:0.5" />
<path d="M401.31,25.23L401.31,33.23" style="fill:none;stroke:#000000;stroke-width:0.5" />
<path d="M76.114,33.23L401.31,33.23" style="fill:none;stroke:#000000;stroke-width:0.5" />
<g transform="rotate(90)">
<text x="144.86" y="11.555" transform="scale(1, -1)"
	style="font-family:Times;font-weight:normal;font-style:normal;font-size:12px">speed</text>
</g>
<text x="20.416" y="-33.76" transform="scale(1, -1)"
	style="font-family:Times;font-weight:normal;font-style:normal;font-size:10px">0.00 mb/s</text>
<text x="20.416" y="-134.23" transform="scale(1, -1)"
	style="font-family:Times;font-weight:normal;font-style:normal;font-size:10px">8.00 mb/s</text>
<text x="15.416" y="-234.7" transform="scale(1, -1)"
	style="font-family:Times;font-weight:normal;font-style:normal;font-size:10px">16.00 mb/s</text>
<text x="15.416" y="-273.84" transform="scale(1, -1)"
	style="font-family:Times;font-weight:normal;font-style:normal;font-size:10px">19.12 mb/s</text>
<path d="M62.364,38.482L70.364,38.482" style="fill:none;stroke:#000000;stroke-width:0.5" />
<path d="M62.364,138.95L70.364,138.95" style="fill:none;stroke:#000000;stroke-width:0.5" />
<path d="M62.364,239.42L70.364,239.42" style="fill:none;stroke:#000000;stroke-width:0.5" />
<path d="M62.364,278.56L70.364,278.56" style="fill:none;stroke:#000000;stroke-width:0.5" />
<path d="M70.364,38.48L70.364,278.56" style="fill:none;stroke:#000000;stroke-width:0.5" />
<path d="M76.114,38.48L76.892,100.16L77.669,100.14L78.447,101.7L79.225,100.39L80.002,100.74L80.78,101.3L81.557,101.31L82.335,100.74L83.113,101.1L83.89,101.21L84.668,101.79L85.445,100.62L86.223,101.07L87.001,99.668L87.778,99.543L88.556,100.89L89.334,100.31L90.111,99.756L90.889,100.43L91.666,100.5L92.444,101.33L93.222,100.95L93.999,100.74L94.777,101.44L95.554,101.84L96.332,101.28L97.11,101.53L97.887,102.12L98.665,100.56L99.442,101.06L100.22,102.35L101,101.87L101.78,100.97L102.55,100.92L103.33,100.76L104.11,99.146L104.89,100.09L105.66,99.996L106.44,99.545L107.22,101.16L108,101.03L108.77,101.15L109.55,100.52L110.33,101.11L111.11,101.05L111.88,101.45L112.66,100.36L113.44,100.39L114.22,99.582L114.99,100.05L115.77,98.313L116.55,98.329L117.33,99.279L118.1,99.782L118.88,99.99L119.66,100.12L120.44,99.841L121.22,99.221L121.99,99.184L122.77,101.59L123.55,99.16L124.33,100.73L125.1,97.728L125.88,100.64L126.66,100.83L127.44,100.13L128.21,100.17L128.99,98.422L129.77,99.06L130.55,98.728L131.32,100.34L132.1,98.83L132.88,99.469L133.66,99.909L134.43,99.404L135.21,101.51L135.99,98.661L136.77,99.5L137.54,101.07L138.32,101.65L139.1,100.32L139.88,100.56L140.66,99.613L141.43,100.94L142.21,101.99L142.99,99.78L143.77,100.39L144.54,99.835L145.32,99.762L146.1,99.923L146.88,100.2L147.65,100.9L148.43,99.726L149.21,100.18L149.99,99.919L150.76,99.553L151.54,100.97L152.32,100.67L153.1,100.79L153.87,98.927L154.65,100.09L155.43,98.7L156.21,99.625L156.98,99.503L157.76,100.31L158.54,99.329L159.32,99.529L160.1,100.16L160.87,98.704L161.65,99.835L162.43,99.22L163.21,100.38L163.98,98.78L164.76,99.384L165.54,100.22L166.32,100.5L167.09,101.4L167.87,99.454L168.65,100.56L169.43,98.193L170.2,100.54L170.98,100.2L171.76,99.117L172.54,101.54L173.31,100.44L174.09,101.17L174.87,99.52L175.65,101.04L176.43,100.06L177.2,99.689L177.98,100.08L178.76,98.968L179.54,100.11L180.31,101.11L181.09,100.28L181.87,99.447L182.65,100.78L183.42,100.62L184.2,101.56L184.98,100.28L185.76,99.544L186.53,100.8L187.31,97.586L188.09,99.327L188.87,100.41L189.64,100.16L190.42,101.02L191.2,98.735L191.98,100.3L192.75,98.342L193.53,99.596L194.31,100.58L195.09,101.01L195.87,101.07L196.64,98.252L197.42,99.792L198.2,97.405L198.98,99.19L199.75,100.34L200.53,98.754L201.31,100.63L202.09,98.584L202.86,99.894L203.64,97.413L204.42,96.871L205.2,97.399L205.97,98.612L206.75,99.951L207.53,100.83L208.31,100.51L209.08,99.429L209.86,98.765L210.64,98.219L211.42,98.39L212.19,99.671L212.97,101.24L213.75,100.82L214.53,99.858L215.31,100.04L216.08,99.143L216.86,98.878L217.64,99.948L218.42,100.28L219.19,101.73L219.97,99.72L220.75,99.67L221.53,100.3L222.3,100.88L223.08,102.16L223.86,101.45L224.64,101.7L225.41,101.28L226.19,99.722L226.97,101.5L227.75,101.19L228.52,102.21L229.3,103.24L230.08,102.67L230.86,102.08L231.63,103.24L232.41,100.97L233.19,100.84L233.97,102.66L234.75,104.56L235.52,104.5L236.3,102.31L237.08,102.05L237.86,102.49L238.63,105.03L239.41,103.61L240.19,102.66L240.97,103.42L241.74,103.87L242.52,99.961L243.3,101.72L244.08,103.14L244.85,102.76L245.63,103.42L246.41,103.66L247.19,104.57L247.96,102.54L248.74,101.22L249.52,102.41L250.3,102.31L251.07,103.31L251.85,104.4L252.63,100.67L253.41,104L254.19,103.34L254.96,103.46L255.74,101.44L256.52,101.22L257.3,102.36L258.07,102.83L258.85,100.98L259.63,102.42L260.41,102.24L261.18,103.71L261.96,101.99L262.74,102.19L263.52,103.38L264.29,102.05L265.07,103.37L265.85,102.23L266.63,102.44L267.4,102.46L268.18,105.01L268.96,101.64L269.74,103.16L270.51,102.41L271.29,103.7L272.07,102.85L272.85,100.64L273.63,102.97L274.4,104.48L275.18,101.12L275.96,102.58L276.74,102.63L277.51,102.24L278.29,104.73L279.07,103.79L279.85,104.85L280.62,104.3L281.4,103.13L282.18,102.75L282.96,103.6L283.73,104.29L284.51,105.02L285.29,102.86L286.07,106.13L286.84,106.09L287.62,107.2L288.4,106.07L289.18,105.3L289.95,105.79L290.73,107.11L291.51,105.77L292.29,107.43L293.07,108.59L293.84,106.48L294.62,106.91L295.4,104.4L296.18,106.17L296.95,107.85L297.73,108.21L298.51,108.79L299.29,108.88L300.06,108.66L300.84,108.98L301.62,108.98L302.4,111.07L303.17,110.28L303.95,112.28L304.73,110.92L305.51,111.87L306.28,112.18L307.06,112.43L307.84,112.85L308.62,113.66L309.4,114.12L310.17,113.02L310.95,113.56L311.73,114.97L312.51,114.31L313.28,114.7L314.06,115.45L314.84,115.64L315.62,116.8L316.39,116.02L317.17,116.01L317.95,115.95L318.73,117.54L319.5,117.23L320.28,117.18L321.06,117.69L321.84,117.9L322.61,118.31L323.39,118.56L324.17,119.47L324.95,119.45L325.72,119.05L326.5,119.8L327.28,120.12L328.06,120.31L328.84,120.78L329.61,122.09L330.39,122.91L331.17,122.99L331.95,122.64L332.72,121.9L333.5,124.1L334.28,118.98L335.06,121.47L335.83,124.44L336.61,125.47L337.39,124.71L338.17,124.52L338.94,124.56L339.72,124.63L340.5,123.52L341.28,123.99L342.05,125.13L342.83,125.66L343.61,125.99L344.39,126.09L345.16,126.02L345.94,128.84L346.72,127.52L347.5,126.26L348.28,129.04L349.05,130.07L349.83,128.61L350.61,128.55L351.39,128.88L352.16,129.09L352.94,130.73L353.72,130.25L354.5,131.01L355.27,130.54L356.05,131.07L356.83,130.85L357.61,129.96L358.38,132.28L359.16,132.73L359.94,134.75L360.72,133.91L361.49,132.6L362.27,133.93L363.05,133.82L363.83,138.19L364.6,137.8L365.38,137.82L366.16,138.88L366.94,140.37L367.72,140.09L368.49,140.76L369.27,139.31L370.05,142.15L370.83,143.82L371.6,143.3L372.38,145.8L373.16,146.23L373.94,147.49L374.71,148.91L375.49,151.42L376.27,150.33L377.05,151.89L377.82,151.19L378.6,153.27L379.38,153.84L380.16,155.86L380.93,156.36L381.71,157.19L382.49,161.2L383.27,160.98L384.04,161.69L384.82,162.4L385.6,168.31L386.38,170.71L387.16,174.7L387.93,173.93L388.71,176.12L389.49,181.42L390.27,184.54L391.04,190.73L391.82,197.38L392.6,193.68L393.38,201.42L394.15,210.26L394.93,212.27L395.71,217.58L396.49,225.34L397.26,233.33L398.04,238.47L398.82,244.61L399.6,253.33L400.37,260.06L401.15,270.83L401.31,278.56" style="fill:none;stroke:#F15A60" />
<path d="M405.2,277.58L425.2,277.58" style="fill:none;stroke:#F15A60" />
<text x="313.58" y="-271.91" transform="scale(1, -1)"
	style="font-family:Times;font-weight:normal;font-style:normal;font-size:12px">random-read-filter</text>
</g>
</svg>
