<?xml version="1.0"?>
<!-- Generated by SVGo and Plotinum VG -->
<svg width="425.2pt" height="283.46pt" viewBox="0 0 425.2 283.46"
	xmlns="http://www.w3.org/2000/svg"
	xmlns:xlink="http://www.w3.org/1999/xlink">
<g transform="scale(1, -1) translate(0, -283.46)">
<path d="M0,0L425.2,0L425.2,283.46L0,283.46Z" style="fill:#FFFFFF" />
<text x="207.23" y="-3.8613" transform="scale(1, -1)"
	style="font-family:Times;font-weight:normal;font-style:normal;font-size:12px">database size</text>
<text x="60.221" y="-15.602" transform="scale(1, -1)"
	style="font-family:Times;font-weight:normal;font-style:normal;font-size:10px">4.00 mb</text>
<text x="136.74" y="-15.602" transform="scale(1, -1)"
	style="font-family:Times;font-weight:normal;font-style:normal;font-size:10px">260.00 mb</text>
<text x="218.26" y="-15.602" transform="scale(1, -1)"
	style="font-family:Times;font-weight:normal;font-style:normal;font-size:10px">516.00 mb</text>
<text x="299.79" y="-15.602" transform="scale(1, -1)"
	style="font-family:Times;font-weight:normal;font-style:normal;font-size:10px">772.00 mb</text>
<text x="377.42" y="-15.602" transform="scale(1, -1)"
	style="font-family:Times;font-weight:normal;font-style:normal;font-size:10px">1023.64 mb</text>
<path d="M76.61,25.23L76.61,33.23" style="fill:none;stroke:#000000;stroke-width:0.5" />
<path d="M158.13,25.23L158.13,33.23" style="fill:none;stroke:#000000;stroke-width:0.5" />
<path d="M239.65,25.23L239.65,33.23" style="fill:none;stroke:#000000;stroke-width:0.5" />
<path d="M321.18,25.23L321.18,33.23" style="fill:none;stroke:#000000;stroke-width:0.5" />
<path d="M401.31,25.23L401.31,33.23" style="fill:none;stroke:#000000;stroke-width:0.5" />
<path d="M76.114,33.23L401.31,33.23" style="fill:none;stroke:#000000;stroke-width:0.5" />
<g transform="rotate(90)">
<text x="144.86" y="11.555" transform="scale(1, -1)"
	style="font-family:Times;font-weight:normal;font-style:normal;font-size:12px">speed</text>
</g>
<text x="20.416" y="-33.785" transform="scale(1, -1)"
	style="font-family:Times;font-weight:normal;font-style:normal;font-size:10px">0.03 mb/s</text>
<text x="15.416" y="-137.98" transform="scale(1, -1)"
	style="font-family:Times;font-weight:normal;font-style:normal;font-size:10px">32.03 mb/s</text>
<text x="15.416" y="-242.17" transform="scale(1, -1)"
	style="font-family:Times;font-weight:normal;font-style:normal;font-size:10px">64.03 mb/s</text>
<text x="15.416" y="-273.84" transform="scale(1, -1)"
	style="font-family:Times;font-weight:normal;font-style:normal;font-size:10px">73.76 mb/s</text>
<path d="M62.364,38.507L70.364,38.507" style="fill:none;stroke:#000000;stroke-width:0.5" />
<path d="M62.364,142.7L70.364,142.7" style="fill:none;stroke:#000000;stroke-width:0.5" />
<path d="M62.364,246.89L70.364,246.89" style="fill:none;stroke:#000000;stroke-width:0.5" />
<path d="M62.364,278.56L70.364,278.56" style="fill:none;stroke:#000000;stroke-width:0.5" />
<path d="M70.364,38.48L70.364,278.56" style="fill:none;stroke:#000000;stroke-width:0.5" />
<path d="M76.114,38.48L76.892,43.486L77.669,47.456L78.447,47.926L79.225,48.497L80.002,48.533L80.78,48.463L81.557,49.081L82.335,49.211L83.113,49.236L83.89,49.433L84.668,50.317L85.445,50.764L86.223,51.002L87.001,51.145L87.778,51.414L88.556,52.075L89.334,51.912L90.111,53.806L90.889,54.179L91.666,54.069L92.444,54.108L93.222,53.992L93.999,53.948L94.777,53.883L95.554,54.25L96.332,54.15L97.11,54.028L97.887,54.066L98.665,54.023L99.442,54.051L100.22,54.194L101,53.898L101.78,54.224L102.55,54.025L103.33,54.198L104.11,54.245L104.89,53.706L105.66,54.007L106.44,54.273L107.22,54.3L108,54.204L108.77,54.263L109.55,54.069L110.33,54.182L111.11,54.299L111.88,54.157L112.66,54.08L113.44,54.135L114.22,54.043L114.99,54.203L115.77,54.203L116.55,54.202L117.33,54.36L118.1,54.184L118.88,54.28L119.66,54.142L120.44,54.26L121.22,54.102L121.99,54.201L122.77,54.24L123.55,54.107L124.33,54.28L125.1,54.102L125.88,54.257L126.66,54.433L127.44,54.288L128.21,54.375L128.99,54.324L129.77,54.248L130.55,54.262L131.32,54.164L132.1,54.255L132.88,54.342L133.66,54.045L134.43,54.29L135.21,54.137L135.99,54.138L136.77,54.092L137.54,54.051L138.32,54.307L139.1,54.088L139.88,54.309L140.66,54.138L141.43,54.25L142.21,54.142L142.99,54.44L143.77,54.321L144.54,54.381L145.32,53.895L146.1,54.366L146.88,54.209L147.65,54.3L148.43,54.081L149.21,54.221L149.99,54.192L150.76,54.334L151.54,54.316L152.32,53.983L153.1,54.102L153.87,54.313L154.65,54.119L155.43,54.296L156.21,54.325L156.98,54.279L157.76,54.343L158.54,54.348L159.32,54.294L160.1,54.273L160.87,54.142L161.65,54.221L162.43,54.41L163.21,54.339L163.98,54.127L164.76,54.299L165.54,53.717L166.32,54.25L167.09,53.78L167.87,54.044L168.65,54.09L169.43,54.284L170.2,53.96L170.98,54.054L171.76,54.145L172.54,54.238L173.31,54.234L174.09,54.028L174.87,53.643L175.65,53.829L176.43,53.601L177.2,53.862L177.98,53.943L178.76,53.78L179.54,53.76L180.31,53.998L181.09,53.896L181.87,54.008L182.65,53.836L183.42,53.899L184.2,53.693L184.98,54.018L185.76,53.919L186.53,53.838L187.31,53.954L188.09,53.82L188.87,54.054L189.64,54.203L190.42,53.777L191.2,53.858L191.98,54.104L192.75,54.165L193.53,54.079L194.31,54.032L195.09,54.121L195.87,54.245L196.64,54.304L197.42,54.133L198.2,54.152L198.98,54.16L199.75,54.04L200.53,54.129L201.31,54.293L202.09,54.105L202.86,54.332L203.64,54.413L204.42,54.185L205.2,54.324L205.97,54.13L206.75,53.91L207.53,54.279L208.31,54.034L209.08,54.298L209.86,54.175L210.64,54.151L211.42,54.179L212.19,54.159L212.97,54.179L213.75,54.121L214.53,54.187L215.31,54.107L216.08,54.138L216.86,54.008L217.64,54.117L218.42,54.254L219.19,54.335L219.97,54.235L220.75,54.228L221.53,54.199L222.3,54.194L223.08,54.322L223.86,54.058L224.64,54.361L225.41,54.129L226.19,54.327L226.97,54.298L227.75,54.05L228.52,53.738L229.3,54.297L230.08,53.104L230.86,53.667L231.63,53.339L232.41,53.422L233.19,53.711L233.97,53.386L234.75,53.399L235.52,53.524L236.3,53.678L237.08,53.461L237.86,53.819L238.63,53.994L239.41,53.429L240.19,53.312L240.97,53.496L241.74,53.857L242.52,53.583L243.3,54.184L244.08,53.656L244.85,53.661L245.63,54.075L246.41,53.648L247.19,53.967L247.96,53.516L248.74,54.195L249.52,53.884L250.3,53.87L251.07,53.862L251.85,53.883L252.63,54.011L253.41,54.025L254.19,54.096L254.96,54.359L255.74,54.219L256.52,54.263L257.3,53.96L258.07,53.977L258.85,54.206L259.63,54.227L260.41,54.429L261.18,54.264L261.96,54.165L262.74,53.972L263.52,54.205L264.29,54.516L265.07,53.982L265.85,54.261L266.63,54.336L267.4,54.217L268.18,54.117L268.96,54.288L269.74,54.171L270.51,54.065L271.29,54.168L272.07,54.291L272.85,54.41L273.63,54.23L274.4,54.12L275.18,54.347L275.96,54.337L276.74,54.12L277.51,54.375L278.29,54.029L279.07,54.311L279.85,54.286L280.62,54.481L281.4,54.29L282.18,54.402L282.96,54.04L283.73,54.198L284.51,54.226L285.29,54.252L286.07,54.029L286.84,54.129L287.62,54.325L288.4,54.334L289.18,53.727L289.95,54.221L290.73,54.197L291.51,54.16L292.29,54.219L293.07,54.254L293.84,54.007L294.62,54.227L295.4,54.156L296.18,54.306L296.95,54.147L297.73,54.336L298.51,54.078L299.29,54.297L300.06,54.305L300.84,54.162L301.62,54.12L302.4,54.201L303.17,54.213L303.95,54.297L304.73,54.267L305.51,54.199L306.28,54.287L307.06,54.23L307.84,54.239L308.62,54.245L309.4,53.754L310.17,53.771L310.95,54.054L311.73,54.372L312.51,54.091L313.28,54.285L314.06,54.132L314.84,54.283L315.62,54.316L316.39,54.259L317.17,54.139L317.95,54.087L318.73,54.304L319.5,54.361L320.28,54.163L321.06,54.216L321.84,54.285L322.61,54.227L323.39,54.234L324.17,54.244L324.95,54.238L325.72,54.22L326.5,54.236L327.28,54.305L328.06,54.317L328.84,54.113L329.61,54.006L330.39,54.311L331.17,54.343L331.95,54.248L332.72,53.994L333.5,54.069L334.28,54.298L335.06,54.257L335.83,54.216L336.61,54.018L337.39,54.106L338.17,54.25L338.94,54.037L339.72,54.148L340.5,54.115L341.28,54.175L342.05,54.456L342.83,54.288L343.61,54.22L344.39,54.285L345.16,54.194L345.94,54.192L346.72,54.112L347.5,54.364L348.28,54.221L349.05,54.014L349.83,54.239L350.61,54.032L351.39,53.823L352.16,54.28L352.94,54.176L353.72,54.301L354.5,54.095L355.27,54.15L356.05,54.023L356.83,54.172L357.61,54.069L358.38,54.172L359.16,54.208L359.94,54.228L360.72,54.171L361.49,54.317L362.27,54.293L363.05,54.173L363.83,54.166L364.6,54.103L365.38,54.2L366.16,54.252L366.94,54.218L367.72,54.26L368.49,54.191L369.27,54.28L370.05,54.11L370.83,54.105L371.6,54.341L372.38,54.258L373.16,54.271L373.94,54.296L374.71,54.323L375.49,54.193L376.27,54.123L377.05,54.288L377.82,54.276L378.6,54.34L379.38,53.797L380.16,54.133L380.93,54.179L381.71,54.304L382.49,54.232L383.27,54.216L384.04,54.28L384.82,54.196L385.6,54.243L386.38,54.169L387.16,54.286L387.93,54.37L388.71,54.154L389.49,54.12L390.27,54.238L391.04,54.123L391.82,54.281L392.6,54.321L393.38,54.359L394.15,54.18L394.93,54.288L395.71,54.302L396.49,54.209L397.26,54.223L398.04,54.196L398.82,54.334L399.6,54.244L400.37,54.113L401.15,56.861L401.31,278.56" style="fill:none;stroke:#F15A60" />
<path d="M405.2,277.58L425.2,277.58" style="fill:none;stroke:#F15A60" />
<text x="340.9" y="-271.91" transform="scale(1, -1)"
	style="font-family:Times;font-weight:normal;font-style:normal;font-size:12px">random-read</text>
</g>
</svg>
