<?xml version="1.0"?>
<!-- Generated by SVGo and Plotinum VG -->
<svg width="425.2pt" height="283.46pt" viewBox="0 0 425.2 283.46"
	xmlns="http://www.w3.org/2000/svg"
	xmlns:xlink="http://www.w3.org/1999/xlink">
<g transform="scale(1, -1) translate(0, -283.46)">
<path d="M0,0L425.2,0L425.2,283.46L0,283.46Z" style="fill:#FFFFFF" />
<text x="209.73" y="-3.8613" transform="scale(1, -1)"
	style="font-family:Times;font-weight:normal;font-style:normal;font-size:12px">database size</text>
<text x="65.244" y="-15.602" transform="scale(1, -1)"
	style="font-family:Times;font-weight:normal;font-style:normal;font-size:10px">4.00 mb</text>
<text x="140.51" y="-15.602" transform="scale(1, -1)"
	style="font-family:Times;font-weight:normal;font-style:normal;font-size:10px">260.00 mb</text>
<text x="220.77" y="-15.602" transform="scale(1, -1)"
	style="font-family:Times;font-weight:normal;font-style:normal;font-size:10px">516.00 mb</text>
<text x="301.03" y="-15.602" transform="scale(1, -1)"
	style="font-family:Times;font-weight:normal;font-style:normal;font-size:10px">772.00 mb</text>
<text x="377.42" y="-15.602" transform="scale(1, -1)"
	style="font-family:Times;font-weight:normal;font-style:normal;font-size:10px">1023.63 mb</text>
<path d="M81.634,25.23L81.634,33.23" style="fill:none;stroke:#000000;stroke-width:0.5" />
<path d="M161.89,25.23L161.89,33.23" style="fill:none;stroke:#000000;stroke-width:0.5" />
<path d="M242.16,25.23L242.16,33.23" style="fill:none;stroke:#000000;stroke-width:0.5" />
<path d="M322.42,25.23L322.42,33.23" style="fill:none;stroke:#000000;stroke-width:0.5" />
<path d="M401.31,25.23L401.31,33.23" style="fill:none;stroke:#000000;stroke-width:0.5" />
<path d="M81.114,33.23L401.31,33.23" style="fill:none;stroke:#000000;stroke-width:0.5" />
<g transform="rotate(90)">
<text x="144.86" y="11.555" transform="scale(1, -1)"
	style="font-family:Times;font-weight:normal;font-style:normal;font-size:12px">speed</text>
</g>
<text x="15.416" y="-94.248" transform="scale(1, -1)"
	style="font-family:Times;font-weight:normal;font-style:normal;font-size:10px">256.00 mb/s</text>
<text x="15.416" y="-173.88" transform="scale(1, -1)"
	style="font-family:Times;font-weight:normal;font-style:normal;font-size:10px">288.00 mb/s</text>
<text x="15.416" y="-253.52" transform="scale(1, -1)"
	style="font-family:Times;font-weight:normal;font-style:normal;font-size:10px">320.00 mb/s</text>
<text x="15.416" y="-273.84" transform="scale(1, -1)"
	style="font-family:Times;font-weight:normal;font-style:normal;font-size:10px">328.16 mb/s</text>
<path d="M67.364,98.969L75.364,98.969" style="fill:none;stroke:#000000;stroke-width:0.5" />
<path d="M67.364,178.61L75.364,178.61" style="fill:none;stroke:#000000;stroke-width:0.5" />
<path d="M67.364,258.24L75.364,258.24" style="fill:none;stroke:#000000;stroke-width:0.5" />
<path d="M67.364,278.56L75.364,278.56" style="fill:none;stroke:#000000;stroke-width:0.5" />
<path d="M75.364,38.48L75.364,278.56" style="fill:none;stroke:#000000;stroke-width:0.5" />
<path d="M81.114,38.48L81.849,227.66L82.584,239.7L83.319,261.61L84.053,243.5L84.788,229.12L85.523,244.12L86.258,240.78L86.993,242.17L87.728,235.97L88.462,231.08L89.197,258.3L89.932,225.08L90.667,238.2L91.402,239.51L92.136,239.55L92.871,234.77L93.606,243.34L94.341,247.16L95.076,249.72L95.81,263.99L96.545,251.23L97.28,231.72L98.015,252.61L98.75,239.78L99.485,244.22L100.22,228.5L100.95,253.51L101.69,275.33L102.42,232.76L103.16,225.66L103.89,221.24L104.63,245.21L105.36,245.2L106.1,227.84L106.83,245.88L107.57,262.68L108.3,218.5L109.04,242.64L109.77,236.33L110.51,247.41L111.24,250.2L111.98,253.09L112.71,250.09L113.45,278.56L114.18,254.58L114.92,256.56L115.65,250.9L116.39,255.91L117.12,236.69L117.85,236.3L118.59,234.95L119.32,250.57L120.06,243.78L120.79,243.03L121.53,243.44L122.26,228.2L123,233.61L123.73,255.24L124.47,253.97L125.2,255.09L125.94,271.25L126.67,250.05L127.41,248.41L128.14,230.68L128.88,234.41L129.61,251.78L130.35,243.93L131.08,226.57L131.82,247.79L132.55,230.94L133.29,225.96L134.02,235.14L134.76,227.57L135.49,238.82L136.23,246.99L136.96,234.62L137.69,250.18L138.43,244.11L139.16,236.91L139.9,241.26L140.63,239.07L141.37,225.77L142.1,246.96L142.84,248.61L143.57,268.81L144.31,252.14L145.04,234.45L145.78,237.08L146.51,242.91L147.25,249.8L147.98,247.06L148.72,248.65L149.45,234.57L150.19,261.9L150.92,233.63L151.66,223.56L152.39,245.41L153.13,239.64L153.86,231.6L154.6,252.52L155.33,253.96L156.06,277.83L156.8,235.49L157.53,241.93L158.27,242.36L159,248.56L159.74,233.78L160.47,250.99L161.21,241.12L161.94,255.71L162.68,247.56L163.41,255.75L164.15,253.22L164.88,256.04L165.62,248.07L166.35,238.65L167.09,234.58L167.82,269.78L168.56,249.19L169.29,239.6L170.03,242.56L170.76,239.49L171.5,226.88L172.23,243.23L172.97,222.42L173.7,218.86L174.44,261.53L175.17,246.45L175.9,238.35L176.64,243.81L177.37,229.6L178.11,244.68L178.84,239.43L179.58,237.51L180.31,253.87L181.05,248.17L181.78,253.29L182.52,253.04L183.25,253.07L183.99,232.59L184.72,219.18L185.46,250.3L186.19,252.28L186.93,243.8L187.66,248.91L188.4,241.91L189.13,224.6L189.87,242.31L190.6,241.47L191.34,250.65L192.07,271.21L192.81,251.24L193.54,222.66L194.27,224.26L195.01,246.28L195.74,244.61L196.48,231.93L197.21,240.14L197.95,268.9L198.68,235.61L199.42,242.15L200.15,249.28L200.89,250.04L201.62,253.35L202.36,251.05L203.09,244.5L203.83,276.03L204.56,256.36L205.3,247.23L206.03,242.83L206.77,246.68L207.5,230.34L208.24,239.16L208.97,251.88L209.71,239.57L210.44,270.53L211.18,229.31L211.91,226.5L212.65,250.97L213.38,235.12L214.11,237.04L214.85,228.94L215.58,218.69L216.32,273.05L217.05,255.25L217.79,244.42L218.52,243.85L219.26,244.83L219.99,245.47L220.73,247.58L221.46,247.61L222.2,271.96L222.93,250.28L223.67,244.15L224.4,239.91L225.14,237.78L225.87,247.38L226.61,252.78L227.34,252.7L228.08,275.02L228.81,240.2L229.55,228.88L230.28,243.57L231.02,249.55L231.75,248.35L232.49,241.88L233.22,235.34L233.95,272.32L234.69,238.2L235.42,243.61L236.16,243.24L236.89,244.97L237.63,238.83L238.36,240.04L239.1,244.38L239.83,271.68L240.57,247.11L241.3,245.67L242.04,243.12L242.77,242.91L243.51,225.17L244.24,241.25L244.98,242.76L245.71,248.21L246.45,255.02L247.18,191.03L247.92,236.18L248.65,238.82L249.39,246.29L250.12,226.08L250.86,245.54L251.59,245.12L252.32,270.64L253.06,236.76L253.79,247.27L254.53,229.7L255.26,239.76L256,247.18L256.73,248.33L257.47,229.31L258.2,260.42L258.94,220.65L259.67,247.22L260.41,251.19L261.14,256.99L261.88,232.35L262.61,246.76L263.35,241.93L264.08,262.49L264.82,238.96L265.55,242.72L266.29,221.82L267.02,246.19L267.76,246.38L268.49,250.65L269.23,230.83L269.96,274.77L270.7,238.81L271.43,234.34L272.16,242.48L272.9,227.73L273.63,222.36L274.37,246.01L275.1,229.96L275.84,241.91L276.57,266.25L277.31,252.55L278.04,231.56L278.78,251.06L279.51,243.69L280.25,245L280.98,232.11L281.72,253.98L282.45,273.4L283.19,224.37L283.92,255.85L284.66,231.76L285.39,223.51L286.13,241.28L286.86,248.71L287.6,237.31L288.33,273.18L289.07,227.06L289.8,248.08L290.54,236.82L291.27,244.89L292,242.23L292.74,225.76L293.47,252.94L294.21,242.98L294.94,278.14L295.68,231.19L296.41,216.87L297.15,241.42L297.88,245.36L298.62,230.84L299.35,200.34L300.09,232.77L300.82,270.73L301.56,249.93L302.29,242.7L303.03,226.17L303.76,244.55L304.5,230.87L305.23,220.36L305.97,246.98L306.7,258.43L307.44,255.66L308.17,239.16L308.91,236.42L309.64,241.62L310.37,249.63L311.11,254.71L311.84,239.58L312.58,270.68L313.31,248.52L314.05,243.35L314.78,246.18L315.52,247.08L316.25,246.66L316.99,247.45L317.72,230.54L318.46,273.94L319.19,247.6L319.93,242.66L320.66,224.72L321.4,236.2L322.13,248.37L322.87,245.76L323.6,241.97L324.34,239.85L325.07,257.89L325.81,248.21L326.54,253.88L327.28,255.1L328.01,244.79L328.75,243.3L329.48,248.43L330.21,250.78L330.95,252.31L331.68,245L332.42,247.88L333.15,236.13L333.89,247.24L334.62,230.1L335.36,233.81L336.09,209.71L336.83,267.05L337.56,235.11L338.3,252.37L339.03,244.14L339.77,250.24L340.5,235.08L341.24,235.12L341.97,242.4L342.71,222.97L343.44,272.37L344.18,241.91L344.91,230.72L345.65,251.07L346.38,252.75L347.12,242.73L347.85,244.42L348.59,248.2L349.32,274.55L350.05,241.99L350.79,227.46L351.52,248.98L352.26,250.8L352.99,240.35L353.73,232.46L354.46,249.87L355.2,270.66L355.93,247.48L356.67,239.43L357.4,246.68L358.14,238.73L358.87,251.56L359.61,252.1L360.34,234.56L361.08,255.2L361.81,235.1L362.55,217.24L363.28,224.24L364.02,245.4L364.75,232.6L365.49,248.28L366.22,241.03L366.96,258.37L367.69,245.19L368.42,224.67L369.16,247.27L369.89,236.04L370.63,228.29L371.36,209.98L372.1,238.35L372.83,239.25L373.57,252.48L374.3,231.59L375.04,234.73L375.77,244.45L376.51,246.83L377.24,251.51L377.98,246.49L378.71,250.54L379.45,266.21L380.18,224.37L380.92,249.64L381.65,230.18L382.39,248.07L383.12,244.45L383.86,248.1L384.59,225.35L385.33,256.77L386.06,236.72L386.8,245.11L387.53,237.58L388.26,252.99L389,231.81L389.73,255.66L390.47,234.76L391.2,268.26L391.94,214.74L392.67,233.76L393.41,251.06L394.14,247.84L394.88,250.06L395.61,233.37L396.35,243.13L397.08,251.43L397.82,261.02L398.55,232.4L399.29,240.17L400.02,244.68L400.76,242.88L401.31,261.99" style="fill:none;stroke:#F15A60" />
<path d="M405.2,277.58L425.2,277.58" style="fill:none;stroke:#F15A60" />
<text x="232.93" y="-271.91" transform="scale(1, -1)"
	style="font-family:Times;font-weight:normal;font-style:normal;font-size:12px">batch-100kb-wb-512mb-cache-1gb</text>
</g>
</svg>
