<?xml version="1.0"?>
<!-- Generated by SVGo and Plotinum VG -->
<svg width="425.2pt" height="283.46pt" viewBox="0 0 425.2 283.46"
	xmlns="http://www.w3.org/2000/svg"
	xmlns:xlink="http://www.w3.org/1999/xlink">
<g transform="scale(1, -1) translate(0, -283.46)">
<path d="M0,0L425.2,0L425.2,283.46L0,283.46Z" style="fill:#FFFFFF" />
<text x="207.23" y="-3.8613" transform="scale(1, -1)"
	style="font-family:Times;font-weight:normal;font-style:normal;font-size:12px">database size</text>
<text x="60.361" y="-15.602" transform="scale(1, -1)"
	style="font-family:Times;font-weight:normal;font-style:normal;font-size:10px">4.00 mb</text>
<text x="136.82" y="-15.602" transform="scale(1, -1)"
	style="font-family:Times;font-weight:normal;font-style:normal;font-size:10px">260.00 mb</text>
<text x="218.28" y="-15.602" transform="scale(1, -1)"
	style="font-family:Times;font-weight:normal;font-style:normal;font-size:10px">516.00 mb</text>
<text x="299.73" y="-15.602" transform="scale(1, -1)"
	style="font-family:Times;font-weight:normal;font-style:normal;font-size:10px">772.00 mb</text>
<text x="377.42" y="-15.602" transform="scale(1, -1)"
	style="font-family:Times;font-weight:normal;font-style:normal;font-size:10px">1024.00 mb</text>
<path d="M76.751,25.23L76.751,33.23" style="fill:none;stroke:#000000;stroke-width:0.5" />
<path d="M158.21,25.23L158.21,33.23" style="fill:none;stroke:#000000;stroke-width:0.5" />
<path d="M239.67,25.23L239.67,33.23" style="fill:none;stroke:#000000;stroke-width:0.5" />
<path d="M321.12,25.23L321.12,33.23" style="fill:none;stroke:#000000;stroke-width:0.5" />
<path d="M401.31,25.23L401.31,33.23" style="fill:none;stroke:#000000;stroke-width:0.5" />
<path d="M76.114,33.23L401.31,33.23" style="fill:none;stroke:#000000;stroke-width:0.5" />
<g transform="rotate(90)">
<text x="144.86" y="11.555" transform="scale(1, -1)"
	style="font-family:Times;font-weight:normal;font-style:normal;font-size:12px">speed</text>
</g>
<text x="20.416" y="-34.873" transform="scale(1, -1)"
	style="font-family:Times;font-weight:normal;font-style:normal;font-size:10px">1.00 mb/s</text>
<text x="15.416" y="-119.54" transform="scale(1, -1)"
	style="font-family:Times;font-weight:normal;font-style:normal;font-size:10px">33.00 mb/s</text>
<text x="15.416" y="-204.22" transform="scale(1, -1)"
	style="font-family:Times;font-weight:normal;font-style:normal;font-size:10px">65.00 mb/s</text>
<text x="15.416" y="-273.84" transform="scale(1, -1)"
	style="font-family:Times;font-weight:normal;font-style:normal;font-size:10px">91.31 mb/s</text>
<path d="M62.364,39.595L70.364,39.595" style="fill:none;stroke:#000000;stroke-width:0.5" />
<path d="M62.364,124.27L70.364,124.27" style="fill:none;stroke:#000000;stroke-width:0.5" />
<path d="M62.364,208.94L70.364,208.94" style="fill:none;stroke:#000000;stroke-width:0.5" />
<path d="M62.364,278.56L70.364,278.56" style="fill:none;stroke:#000000;stroke-width:0.5" />
<path d="M70.364,38.48L70.364,278.56" style="fill:none;stroke:#000000;stroke-width:0.5" />
<path d="M76.114,218.7L76.751,235.9L77.387,201.79L78.023,255.81L78.66,265.03L79.296,270.58L79.933,278.56L80.569,217.59L81.205,164.05L81.842,187.45L82.478,145.66L83.115,220.19L83.751,163.44L84.387,209.21L85.024,155.16L85.66,217.45L86.297,163.31L86.933,198.13L87.569,128.04L88.206,203.05L88.842,165.69L89.479,185.5L90.115,58.046L90.751,214.6L91.388,171.71L92.024,208.66L92.661,136.76L93.297,214.21L93.933,131.55L94.57,201.83L95.206,60.034L95.843,186.5L96.479,137.48L97.115,186.12L97.752,47.107L98.388,186.69L99.025,169.35L99.661,206.5L100.3,136.46L100.93,218L101.57,135.74L102.21,196.76L102.84,48.666L103.48,191.42L104.12,151.92L104.75,172.94L105.39,43.981L106.03,247.48L106.66,257.92L107.3,234.21L107.93,137.86L108.57,214.98L109.21,137.79L109.84,221.45L110.48,44.575L111.12,200.21L111.75,145.24L112.39,187.29L113.03,147.81L113.66,42.857L114.3,267.87L114.93,240.09L115.57,209.2L116.21,199.87L116.84,133.29L117.48,191.14L118.12,42.248L118.75,218.04L119.39,144.61L120.03,180.07L120.66,134.03L121.3,197.99L121.94,41.461L122.57,172.99L123.21,158.84L123.84,245.01L124.48,222.27L125.12,142.37L125.75,216.25L126.39,153.52L127.03,41.107L127.66,256.74L128.3,275.04L128.94,240.77L129.57,139.25L130.21,182.93L130.84,153.22L131.48,209.4L132.12,40.362L132.75,231.45L133.39,171.78L134.03,119.49L134.66,170.47L135.3,199.56L135.94,132.93L136.57,199.16L137.21,165.94L137.85,188.62L138.48,40.556L139.12,252.16L139.75,268.58L140.39,237.91L141.03,251.84L141.66,247.82L142.3,207.17L142.94,142.28L143.57,40.423L144.21,242.8L144.85,255.1L145.48,252.41L146.12,148.41L146.75,245.06L147.39,246L148.03,240.34L148.66,223.65L149.3,40.453L149.94,233.43L150.57,168.64L151.21,223.22L151.85,144.63L152.48,226.44L153.12,243.81L153.76,40.223L154.39,265.84L155.03,268.96L155.66,250.25L156.3,166.29L156.94,210.67L157.57,129.37L158.21,249.22L158.85,249.16L159.48,216.92L160.12,39.886L160.76,230.09L161.39,168.73L162.03,217.49L162.66,140.91L163.3,227.3L163.94,154.83L164.57,233.09L165.21,244.78L165.85,39.583L166.48,272.83L167.12,268L167.76,245.96L168.39,167.74L169.03,220.56L169.67,158.9L170.3,237.37L170.94,229.19L171.57,234.77L172.21,245.89L172.85,39.576L173.48,256.04L174.12,267.98L174.76,207.82L175.39,160.28L176.03,253.71L176.67,271.99L177.3,235.61L177.94,222.64L178.57,244.33L179.21,254.18L179.85,193.33L180.48,39.773L181.12,226.24L181.76,164.59L182.39,251.7L183.03,270.73L183.67,207.28L184.3,215.82L184.94,249.54L185.58,252.47L186.21,222.22L186.85,39.885L187.48,219.26L188.12,162.25L188.76,266.4L189.39,266.44L190.03,238.45L190.67,249.11L191.3,240.69L191.94,244.69L192.58,230.57L193.21,39.933L193.85,225.06L194.48,178.67L195.12,212.54L195.76,143.05L196.39,217.07L197.03,157.51L197.67,245.83L198.3,255.63L198.94,200.13L199.58,39.746L200.21,219.86L200.85,142.26L201.49,214.45L202.12,146.52L202.76,236.95L203.39,152.78L204.03,240.11L204.67,209.16L205.3,227.03L205.94,39.666L206.58,240.33L207.21,216.26L207.85,224.03L208.49,268.55L209.12,241.41L209.76,253.02L210.39,205.41L211.03,153.19L211.67,202.99L212.3,40.045L212.94,223.84L213.58,161.53L214.21,262.64L214.85,232.52L215.49,238.37L216.12,245.37L216.76,249.39L217.4,39.821L218.03,253.31L218.67,264.19L219.3,230.84L219.94,160.12L220.58,263.79L221.21,234.97L221.85,230.88L222.49,245.8L223.12,209.45L223.76,167.81L224.4,39.906L225.03,225.19L225.67,141.73L226.3,221.61L226.94,165.79L227.58,205.88L228.21,158.47L228.85,246.92L229.49,255.6L230.12,212.11L230.76,39.592L231.4,216.27L232.03,146.83L232.67,214.13L233.31,144.64L233.94,241.3L234.58,230.95L235.21,125.92L235.85,181.63L236.49,151.81L237.12,39.358L237.76,264.31L238.4,274.86L239.03,241.01L239.67,165.89L240.31,207.61L240.94,166.82L241.58,206.24L242.21,153.97L242.85,246.15L243.49,39.193L244.12,211.81L244.76,140.41L245.4,207.89L246.03,125.62L246.67,230.89L247.31,135.86L247.94,180.2L248.58,128.92L249.22,219.85L249.85,230.04L250.49,251.17L251.12,39.011L251.76,256.8L252.4,266.56L253.03,236.03L253.67,187.15L254.31,163.5L254.94,267.74L255.58,256.61L256.22,238.72L256.85,223.2L257.49,138.93L258.12,226.28L258.76,153.89L259.4,38.933L260.03,265.21L260.67,266.44L261.31,223.73L261.94,160.73L262.58,212.11L263.22,168.46L263.85,235.03L264.49,142.09L265.13,206.07L265.76,165.91L266.4,221.84L267.03,162.5L267.67,38.66L268.31,216.85L268.94,137.76L269.58,267.57L270.22,250.9L270.85,240.93L271.49,172.6L272.13,216.02L272.76,159.15L273.4,208.15L274.03,214.14L274.67,249.37L275.31,38.6L275.94,232.71L276.58,137.88L277.22,194.97L277.85,150.29L278.49,228.27L279.13,240.62L279.76,163.18L280.4,226.73L281.04,166.86L281.67,213.21L282.31,135.75L282.94,38.803L283.58,181.86L284.22,167.13L284.85,226.32L285.49,160.45L286.13,203.05L286.76,139.15L287.4,274.32L288.04,243.78L288.67,212.46L289.31,136.92L289.94,250.03L290.58,38.853L291.22,223.01L291.85,138.86L292.49,244.62L293.13,173.74L293.76,223.79L294.4,145.32L295.04,224.09L295.67,166.99L296.31,210.36L296.95,139.88L297.58,214.19L298.22,38.749L298.85,220.59L299.49,162.73L300.13,234.32L300.76,165.84L301.4,203.35L302.04,156.88L302.67,219.12L303.31,158.77L303.95,208.53L304.58,133.31L305.22,245.6L305.85,38.723L306.49,214.38L307.13,140.26L307.76,213.1L308.4,139.44L309.04,223.58L309.67,201.52L310.31,259.22L310.95,153.9L311.58,224.46L312.22,161.69L312.86,203.18L313.49,164.43L314.13,38.921L314.76,224.91L315.4,139.49L316.04,194.1L316.67,134.46L317.31,257.03L317.95,265.05L318.58,213.12L319.22,127.49L319.86,240.8L320.49,257.54L321.13,248.09L321.77,38.558L322.4,261.03L323.04,272.12L323.67,237.28L324.31,162.82L324.95,226.39L325.58,151.79L326.22,233.27L326.86,162.93L327.49,203.51L328.13,130.39L328.77,204.38L329.4,38.788L330.04,209.68L330.67,153.1L331.31,263.63L331.95,275.61L332.58,220.07L333.22,174.26L333.86,163.53L334.49,135.06L335.13,211.62L335.77,240.58L336.4,231.48L337.04,134.89L337.68,38.91L338.31,177.83L338.95,125.52L339.58,208.81L340.22,162.91L340.86,260.27L341.49,275.35L342.13,254.38L342.77,148.54L343.4,209.36L344.04,163.21L344.68,188.3L345.31,133.63L345.95,38.679L346.58,230.16L347.22,169.2L347.86,171.57L348.49,130.88L349.13,230.77L349.77,168.77L350.4,172.54L351.04,160.02L351.68,206.85L352.31,124.82L352.95,192.62L353.59,155.71L354.22,38.566L354.86,257.24L355.49,258.16L356.13,238.46L356.77,139.83L357.4,190.61L358.04,159.54L358.68,216.81L359.31,130.28L359.95,235.11L360.59,222.89L361.22,211.31L361.86,245.09L362.49,38.487L363.13,225.52L363.77,140.88L364.4,230.3L365.04,130.58L365.68,263.16L366.31,267.73L366.95,232.8L367.59,164.08L368.22,232.23L368.86,150.4L369.5,196.28L370.13,38.731L370.77,188.09L371.4,138.52L372.04,217.3L372.68,140.16L373.31,220.33L373.95,160.78L374.59,212.14L375.22,146.27L375.86,202.1L376.5,141.05L377.13,201.67L377.77,38.713L378.4,225.1L379.04,169.81L379.68,197.63L380.31,140.61L380.95,204.14L381.59,146.14L382.22,189.95L382.86,139.26L383.5,202.49L384.13,134.61L384.77,203.69L385.41,38.731L386.04,207.87L386.68,160.7L387.31,219.17L387.95,170.31L388.59,201.32L389.22,160.53L389.86,196.58L390.5,132.88L391.13,247.93L391.77,206.36L392.41,145.06L393.04,38.86L393.68,230.44L394.31,159.26L394.95,185.24L395.59,169.07L396.22,195.29L396.86,171.87L397.5,174.59L398.13,169.94L398.77,203.39L399.41,129.92L400.04,251.9L400.68,38.48L401.31,233.92" style="fill:none;stroke:#F15A60" />
<path d="M405.2,277.58L425.2,277.58" style="fill:none;stroke:#F15A60" />
<text x="350.88" y="-271.91" transform="scale(1, -1)"
	style="font-family:Times;font-weight:normal;font-style:normal;font-size:12px">batch-1mb</text>
</g>
</svg>
