<?xml version="1.0"?>
<!-- Generated by SVGo and Plotinum VG -->
<svg width="425.2pt" height="283.46pt" viewBox="0 0 425.2 283.46"
	xmlns="http://www.w3.org/2000/svg"
	xmlns:xlink="http://www.w3.org/1999/xlink">
<g transform="scale(1, -1) translate(0, -283.46)">
<path d="M0,0L425.2,0L425.2,283.46L0,283.46Z" style="fill:#FFFFFF" />
<text x="207.23" y="-3.8613" transform="scale(1, -1)"
	style="font-family:Times;font-weight:normal;font-style:normal;font-size:12px">database size</text>
<text x="60.252" y="-15.602" transform="scale(1, -1)"
	style="font-family:Times;font-weight:normal;font-style:normal;font-size:10px">4.00 mb</text>
<text x="136.77" y="-15.602" transform="scale(1, -1)"
	style="font-family:Times;font-weight:normal;font-style:normal;font-size:10px">260.00 mb</text>
<text x="218.28" y="-15.602" transform="scale(1, -1)"
	style="font-family:Times;font-weight:normal;font-style:normal;font-size:10px">516.00 mb</text>
<text x="299.79" y="-15.602" transform="scale(1, -1)"
	style="font-family:Times;font-weight:normal;font-style:normal;font-size:10px">772.00 mb</text>
<text x="377.42" y="-15.602" transform="scale(1, -1)"
	style="font-family:Times;font-weight:normal;font-style:normal;font-size:10px">1023.63 mb</text>
<path d="M76.642,25.23L76.642,33.23" style="fill:none;stroke:#000000;stroke-width:0.5" />
<path d="M158.16,25.23L158.16,33.23" style="fill:none;stroke:#000000;stroke-width:0.5" />
<path d="M239.67,25.23L239.67,33.23" style="fill:none;stroke:#000000;stroke-width:0.5" />
<path d="M321.18,25.23L321.18,33.23" style="fill:none;stroke:#000000;stroke-width:0.5" />
<path d="M401.31,25.23L401.31,33.23" style="fill:none;stroke:#000000;stroke-width:0.5" />
<path d="M76.114,33.23L401.31,33.23" style="fill:none;stroke:#000000;stroke-width:0.5" />
<g transform="rotate(90)">
<text x="144.86" y="11.555" transform="scale(1, -1)"
	style="font-family:Times;font-weight:normal;font-style:normal;font-size:12px">speed</text>
</g>
<text x="15.416" y="-58.448" transform="scale(1, -1)"
	style="font-family:Times;font-weight:normal;font-style:normal;font-size:10px">16.00 mb/s</text>
<text x="15.416" y="-128.87" transform="scale(1, -1)"
	style="font-family:Times;font-weight:normal;font-style:normal;font-size:10px">32.00 mb/s</text>
<text x="15.416" y="-199.29" transform="scale(1, -1)"
	style="font-family:Times;font-weight:normal;font-style:normal;font-size:10px">48.00 mb/s</text>
<text x="15.416" y="-269.71" transform="scale(1, -1)"
	style="font-family:Times;font-weight:normal;font-style:normal;font-size:10px">64.00 mb/s</text>
<text x="15.416" y="-273.84" transform="scale(1, -1)"
	style="font-family:Times;font-weight:normal;font-style:normal;font-size:10px">64.94 mb/s</text>
<path d="M62.364,63.169L70.364,63.169" style="fill:none;stroke:#000000;stroke-width:0.5" />
<path d="M62.364,133.59L70.364,133.59" style="fill:none;stroke:#000000;stroke-width:0.5" />
<path d="M62.364,204.01L70.364,204.01" style="fill:none;stroke:#000000;stroke-width:0.5" />
<path d="M62.364,274.43L70.364,274.43" style="fill:none;stroke:#000000;stroke-width:0.5" />
<path d="M62.364,278.56L70.364,278.56" style="fill:none;stroke:#000000;stroke-width:0.5" />
<path d="M70.364,38.48L70.364,278.56" style="fill:none;stroke:#000000;stroke-width:0.5" />
<path d="M76.114,278.56L76.861,219.83L77.607,205.82L78.353,199.2L79.099,194.17L79.846,185.54L80.592,175.73L81.338,187.31L82.085,165.42L82.831,188.79L83.577,154.98L84.323,169.12L85.07,168.1L85.816,134.97L86.562,156.86L87.309,161.02L88.055,138.07L88.801,152.44L89.547,162.91L90.294,160.99L91.04,153.84L91.786,116.98L92.533,147.71L93.279,154.36L94.025,153.08L94.771,149.23L95.518,110.47L96.264,158.91L97.01,157.96L97.757,148.47L98.503,144.57L99.249,150.27L99.995,153.65L100.74,118.44L101.49,142.01L102.23,141.58L102.98,142.08L103.73,136.47L104.47,135.77L105.22,136.24L105.97,138.58L106.71,96.983L107.46,141.77L108.2,141.2L108.95,140.91L109.7,137.16L110.44,139.26L111.19,138.39L111.94,141.05L112.68,138.37L113.43,137.34L114.17,90.674L114.92,133.18L115.67,128.85L116.41,130.29L117.16,134.73L117.91,136.53L118.65,132.58L119.4,132.96L120.15,135.84L120.89,131.1L121.64,127.62L122.38,128.25L123.13,132.38L123.88,78.631L124.62,124.19L125.37,126.6L126.12,117.9L126.86,119.53L127.61,119.1L128.35,124.47L129.1,129.47L129.85,126.82L130.59,124.32L131.34,117.67L132.09,121.32L132.83,120.71L133.58,123.79L134.32,123.92L135.07,122.72L135.82,88.551L136.56,107.87L137.31,109.81L138.06,111.2L138.8,113.7L139.55,110.36L140.29,114.3L141.04,109.28L141.79,106.82L142.53,110.07L143.28,112.34L144.03,112.51L144.77,111.91L145.52,105.56L146.26,108.95L147.01,107.76L147.76,109.82L148.5,109.58L149.25,112.29L150,109.7L150.74,106.13L151.49,60.487L152.24,115.8L152.98,114.02L153.73,113.65L154.47,114.95L155.22,114.33L155.97,113.64L156.71,109.82L157.46,110.63L158.21,114.7L158.95,115.06L159.7,109.41L160.44,109.22L161.19,97.475L161.94,101.02L162.68,102.19L163.43,104.8L164.18,109.96L164.92,109.86L165.67,108.82L166.41,106.78L167.16,108.58L167.91,106.93L168.65,114.36L169.4,116.82L170.15,69.343L170.89,102.65L171.64,106.72L172.38,105.25L173.13,104.61L173.88,105.55L174.62,102.67L175.37,99.395L176.12,98.731L176.86,102.79L177.61,100.32L178.36,104.86L179.1,105.84L179.85,103.95L180.59,104.5L181.34,104.38L182.09,106.49L182.83,106.46L183.58,100.85L184.33,99.418L185.07,102.14L185.82,97.678L186.56,102.15L187.31,103.72L188.06,104.7L188.8,103.83L189.55,100.07L190.3,103.5L191.04,105.65L191.79,106.2L192.53,249.25L193.28,250.53L194.03,239.11L194.77,220.57L195.52,203.37L196.27,191.46L197.01,188.81L197.76,201.34L198.5,187.05L199.25,184.43L200,170.21L200.74,179.03L201.49,183.51L202.24,161.45L202.98,173.49L203.73,172.13L204.48,144.94L205.22,151.68L205.97,158.66L206.71,154.57L207.46,159.02L208.21,137.54L208.95,151.39L209.7,152.75L210.45,146.49L211.19,146.33L211.94,127.31L212.68,152.26L213.43,149.94L214.18,146.24L214.92,143.72L215.67,140.5L216.42,135.74L217.16,110.84L217.91,136.2L218.65,141.53L219.4,134.35L220.15,139.06L220.89,132.01L221.64,133.32L222.39,129.84L223.13,102.99L223.88,129.21L224.62,128.5L225.37,129.36L226.12,131.64L226.86,130.18L227.61,126L228.36,62.123L229.1,119.01L229.85,122.95L230.6,84.329L231.34,126.95L232.09,124.7L232.83,118.24L233.58,119.01L234.33,121.55L235.07,123.61L235.82,125.31L236.57,126.3L237.31,121.32L238.06,121.57L238.8,120.97L239.55,120.01L240.3,76.412L241.04,119.76L241.79,123.02L242.54,121L243.28,115.04L244.03,115.55L244.77,120.67L245.52,122.53L246.27,119.62L247.01,120.72L247.76,120.28L248.51,118.31L249.25,117.73L250,118.88L250.74,120.89L251.49,118.02L252.24,70.483L252.98,115.84L253.73,115.75L254.48,113.77L255.22,116.74L255.97,116.3L256.72,115.88L257.46,118.46L258.21,117.33L258.95,113.15L259.7,115.31L260.45,117.98L261.19,117.03L261.94,116.44L262.69,117.97L263.43,114.59L264.18,110.63L264.92,114.72L265.67,115.48L266.42,116.8L267.16,117.15L267.91,79.56L268.66,112.47L269.4,112.48L270.15,115.49L270.89,115.93L271.64,109.68L272.39,111.88L273.13,115.87L273.88,112.83L274.63,111.3L275.37,114.63L276.12,115.91L276.86,116.41L277.61,116.19L278.36,113.79L279.1,111.67L279.85,110.55L280.6,114.6L281.34,114.2L282.09,115.64L282.84,112.3L283.58,112.67L284.33,110.4L285.07,111.05L285.82,113.27L286.57,72.004L287.31,112.51L288.06,112.91L288.81,108.04L289.55,106.49L290.3,110.94L291.04,112.79L291.79,111.39L292.54,109.8L293.28,111.99L294.03,108.24L294.78,106.65L295.52,109.85L296.27,110.63L297.01,107.65L297.76,109.29L298.51,107.21L299.25,102.83L300,101.98L300.75,106.71L301.49,109.33L302.24,109.95L302.98,110.23L303.73,103.61L304.48,100.51L305.22,99.997L305.97,98.791L306.72,107.85L307.46,108.05L308.21,103.82L308.95,58.39L309.7,247.16L310.45,219.4L311.19,213.37L311.94,199.57L312.69,188.99L313.43,185.47L314.18,182.53L314.93,169.16L315.67,179.21L316.42,163.89L317.16,172.23L317.91,178.93L318.66,156.52L319.4,167.92L320.15,166.92L320.9,148.9L321.64,157.2L322.39,157.1L323.13,150.96L323.88,150.23L324.63,132.7L325.37,155.19L326.12,148.45L326.87,144.97L327.61,150.7L328.36,122.44L329.1,139.64L329.85,142.22L330.6,140.49L331.34,142.57L332.09,136.37L332.84,126.07L333.58,97.5L334.33,118.33L335.07,117.75L335.82,117.37L336.57,124.44L337.31,124.99L338.06,123.55L338.81,121.62L339.55,100.29L340.3,116.49L341.05,117.53L341.79,64.649L342.54,121.83L343.28,122.58L344.03,121.77L344.78,118.14L345.52,116.18L346.27,118.65L347.02,95.948L347.76,118.23L348.51,120.23L349.25,111.67L350,109.99L350.75,115.32L351.49,118.43L352.24,117.42L352.99,115.5L353.73,115.79L354.48,115.23L355.22,112.22L355.97,111.2L356.72,89.452L357.46,121.47L358.21,121.91L358.96,122.87L359.7,117.21L360.45,116.43L361.19,118.97L361.94,121.04L362.69,120.82L363.43,116.17L364.18,114.51L364.93,117.5L365.67,116.82L366.42,116.89L367.17,118.37L367.91,119.17L368.66,85.764L369.4,114.43L370.15,112.98L370.9,111.7L371.64,115.24L372.39,115.47L373.14,113.85L373.88,116.05L374.63,115.93L375.37,112.34L376.12,110.3L376.87,112.1L377.61,112.31L378.36,113.06L379.11,112.92L379.85,113.25L380.6,111.11L381.34,106.02L382.09,106.31L382.84,107.78L383.58,107.98L384.33,38.48L385.08,98.473L385.82,99.724L386.57,98.381L387.31,99.837L388.06,99.398L388.81,97.423L389.55,95.519L390.3,98.398L391.05,98.202L391.79,98.007L392.54,95.254L393.29,96.143L394.03,95.691L394.78,95.778L395.52,97.597L396.27,96.252L397.02,97.513L397.76,95.352L398.51,92.522L399.26,94.708L400,94.475L400.75,96.87L401.31,96.017" style="fill:none;stroke:#F15A60" />
<path d="M405.2,277.58L425.2,277.58" style="fill:none;stroke:#F15A60" />
<text x="168.95" y="-271.91" transform="scale(1, -1)"
	style="font-family:Times;font-weight:normal;font-style:normal;font-size:12px">batch-100kb-ctable-64mb-wb-512mb-cache-1gb</text>
</g>
</svg>
