<?xml version="1.0"?>
<!-- Generated by SVGo and Plotinum VG -->
<svg width="425.2pt" height="283.46pt" viewBox="0 0 425.2 283.46"
	xmlns="http://www.w3.org/2000/svg"
	xmlns:xlink="http://www.w3.org/1999/xlink">
<g transform="scale(1, -1) translate(0, -283.46)">
<path d="M0,0L425.2,0L425.2,283.46L0,283.46Z" style="fill:#FFFFFF" />
<text x="207.23" y="-3.8613" transform="scale(1, -1)"
	style="font-family:Times;font-weight:normal;font-style:normal;font-size:12px">database size</text>
<text x="60.252" y="-15.602" transform="scale(1, -1)"
	style="font-family:Times;font-weight:normal;font-style:normal;font-size:10px">4.00 mb</text>
<text x="136.77" y="-15.602" transform="scale(1, -1)"
	style="font-family:Times;font-weight:normal;font-style:normal;font-size:10px">260.00 mb</text>
<text x="218.28" y="-15.602" transform="scale(1, -1)"
	style="font-family:Times;font-weight:normal;font-style:normal;font-size:10px">516.00 mb</text>
<text x="299.79" y="-15.602" transform="scale(1, -1)"
	style="font-family:Times;font-weight:normal;font-style:normal;font-size:10px">772.00 mb</text>
<text x="377.42" y="-15.602" transform="scale(1, -1)"
	style="font-family:Times;font-weight:normal;font-style:normal;font-size:10px">1023.63 mb</text>
<path d="M76.642,25.23L76.642,33.23" style="fill:none;stroke:#000000;stroke-width:0.5" />
<path d="M158.16,25.23L158.16,33.23" style="fill:none;stroke:#000000;stroke-width:0.5" />
<path d="M239.67,25.23L239.67,33.23" style="fill:none;stroke:#000000;stroke-width:0.5" />
<path d="M321.18,25.23L321.18,33.23" style="fill:none;stroke:#000000;stroke-width:0.5" />
<path d="M401.31,25.23L401.31,33.23" style="fill:none;stroke:#000000;stroke-width:0.5" />
<path d="M76.114,33.23L401.31,33.23" style="fill:none;stroke:#000000;stroke-width:0.5" />
<g transform="rotate(90)">
<text x="144.86" y="11.555" transform="scale(1, -1)"
	style="font-family:Times;font-weight:normal;font-style:normal;font-size:12px">speed</text>
</g>
<text x="20.416" y="-34.556" transform="scale(1, -1)"
	style="font-family:Times;font-weight:normal;font-style:normal;font-size:10px">1.00 mb/s</text>
<text x="15.416" y="-128.58" transform="scale(1, -1)"
	style="font-family:Times;font-weight:normal;font-style:normal;font-size:10px">33.00 mb/s</text>
<text x="15.416" y="-222.6" transform="scale(1, -1)"
	style="font-family:Times;font-weight:normal;font-style:normal;font-size:10px">65.00 mb/s</text>
<text x="15.416" y="-273.84" transform="scale(1, -1)"
	style="font-family:Times;font-weight:normal;font-style:normal;font-size:10px">82.44 mb/s</text>
<path d="M62.364,39.277L70.364,39.277" style="fill:none;stroke:#000000;stroke-width:0.5" />
<path d="M62.364,133.3L70.364,133.3" style="fill:none;stroke:#000000;stroke-width:0.5" />
<path d="M62.364,227.32L70.364,227.32" style="fill:none;stroke:#000000;stroke-width:0.5" />
<path d="M62.364,278.56L70.364,278.56" style="fill:none;stroke:#000000;stroke-width:0.5" />
<path d="M70.364,38.48L70.364,278.56" style="fill:none;stroke:#000000;stroke-width:0.5" />
<path d="M76.114,252.52L76.861,238.35L77.607,241.2L78.353,241.73L79.099,245.65L79.846,243.46L80.592,225.99L81.338,243.84L82.085,264.6L82.831,265.7L83.577,223.11L84.323,169.18L85.07,270.85L85.816,263.1L86.562,256.39L87.309,186.88L88.055,148.8L88.801,134.86L89.547,140.13L90.294,149.85L91.04,198.69L91.786,178.61L92.533,148.18L93.279,149.21L94.025,155.64L94.771,143.4L95.518,64.138L96.264,187.67L97.01,178.73L97.757,265.5L98.503,161.33L99.249,154.23L99.995,151.69L100.74,145.71L101.49,150.14L102.23,57.919L102.98,155.46L103.73,154.21L104.47,153.99L105.22,150.88L105.97,148.86L106.71,48.168L107.46,261.32L108.2,263.81L108.95,184.41L109.7,148.11L110.44,149.96L111.19,154.1L111.94,150.52L112.68,47.184L113.43,159.2L114.17,139.99L114.92,143.94L115.67,150.01L116.41,141.04L117.16,44.071L117.91,236.01L118.65,243.29L119.4,269.48L120.15,155.71L120.89,151.98L121.64,152.89L122.38,145.21L123.13,138.5L123.88,43.766L124.62,254.33L125.37,159.84L126.12,151.99L126.86,151.73L127.61,147.97L128.35,152.45L129.1,41.482L129.85,249.29L130.59,243.37L131.34,254.54L132.09,250.91L132.83,233.56L133.58,153.64L134.32,152.67L135.07,150.17L135.82,137.06L136.56,144.98L137.31,41.445L138.06,259.04L138.8,265.1L139.55,260.73L140.29,227.97L141.04,152.1L141.79,150.99L142.53,153.73L143.28,146.91L144.03,40.543L144.77,244.06L145.52,265.35L146.26,265.28L147.01,262.48L147.76,230.94L148.5,178.78L149.25,136.96L150,145.86L150.74,150.14L151.49,152.22L152.24,40.076L152.98,233.99L153.73,252.75L154.47,254.67L155.22,275.41L155.97,259.03L156.71,260.92L157.46,196.57L158.21,139.45L158.95,150.54L159.7,154.54L160.44,141.34L161.19,40.751L161.94,232.3L162.68,255.01L163.43,261.87L164.18,250.52L164.92,253.63L165.67,177.52L166.41,150.52L167.16,146.61L167.91,152.64L168.65,143.22L169.4,40.485L170.15,219.31L170.89,250.09L171.64,270.33L172.38,186.66L173.13,219.41L173.88,177.39L174.62,148.69L175.37,153.04L176.12,144.5L176.86,148.69L177.61,40.26L178.36,250.94L179.1,246.73L179.85,272.59L180.59,252.22L181.34,195.13L182.09,159.86L182.83,151.1L183.58,136.52L184.33,150.86L185.07,151.33L185.82,40.518L186.56,249.46L187.31,258.59L188.06,260.31L188.8,266.77L189.55,262.06L190.3,156L191.04,150.92L191.79,142.14L192.53,140.17L193.28,156.64L194.03,40.054L194.77,257.16L195.52,216.03L196.27,233.03L197.01,222.38L197.76,262.36L198.5,273.94L199.25,162.47L200,148.73L200.74,147.84L201.49,141.64L202.24,143.91L202.98,40.421L203.73,226.11L204.48,232.13L205.22,247.87L205.97,274.71L206.71,274.16L207.46,170.96L208.21,151.9L208.95,149.21L209.7,147.7L210.45,154.52L211.19,40.386L211.94,250.33L212.68,205.87L213.43,259.71L214.18,249.7L214.92,251.41L215.67,156.11L216.42,140.11L217.16,151.98L217.91,146.95L218.65,142.53L219.4,40.395L220.15,251.19L220.89,259.63L221.64,237.76L222.39,254.79L223.13,218.41L223.88,146.08L224.62,146.91L225.37,153.58L226.12,151.06L226.86,146.87L227.61,40.643L228.36,259.82L229.1,240.62L229.85,254.27L230.6,237.53L231.34,214.16L232.09,152.58L232.83,144.72L233.58,149.68L234.33,149.41L235.07,39.908L235.82,232.4L236.57,217.39L237.31,262.43L238.06,260.16L238.8,219.33L239.55,248.8L240.3,254.73L241.04,149.99L241.79,151.39L242.54,151.01L243.28,150.86L244.03,39.453L244.77,240.34L245.52,265.32L246.27,261.43L247.01,274.52L247.76,271.28L248.51,256.95L249.25,267.59L250,264.33L250.74,174.74L251.49,153.62L252.24,148.59L252.98,145.12L253.73,140.8L254.48,39.01L255.22,259.64L255.97,255.11L256.72,243.81L257.46,233.45L258.21,220.32L258.95,266.49L259.7,271.14L260.45,250.23L261.19,217.03L261.94,148.01L262.69,137.26L263.43,150.14L264.18,151.71L264.92,38.608L265.67,245.83L266.42,254.01L267.16,271.56L267.91,261.45L268.66,266.73L269.4,268.81L270.15,244.59L270.89,266.11L271.64,240.92L272.39,159.52L273.13,149.78L273.88,151.77L274.63,150.77L275.37,153.26L276.12,38.596L276.86,248.47L277.61,137.37L278.36,250.57L279.1,263.07L279.85,278.56L280.6,262.6L281.34,254.39L282.09,249.77L282.84,207.01L283.58,154.74L284.33,145.34L285.07,150.7L285.82,138.56L286.57,38.511L287.31,239.77L288.06,252.04L288.81,225.85L289.55,261.45L290.3,249.84L291.04,259.61L291.79,247.67L292.54,210.37L293.28,240.15L294.03,149.18L294.78,150.4L295.52,147.54L296.27,143.67L297.01,142.46L297.76,38.603L298.51,259.7L299.25,251.13L300,251.62L300.75,247.5L301.49,234.72L302.24,217.42L302.98,244.08L303.73,261.28L304.48,200.79L305.22,129.36L305.97,128.22L306.72,131.91L307.46,131.32L308.21,38.604L308.95,240.48L309.7,252.37L310.45,259.87L311.19,260.86L311.94,251.06L312.69,244.51L313.43,234.63L314.18,242.92L314.93,260.4L315.67,148.15L316.42,128.69L317.16,131.6L317.91,133.07L318.66,132.59L319.4,38.69L320.15,245.25L320.9,247.1L321.64,244.86L322.39,252.33L323.13,210.63L323.88,196.36L324.63,257.64L325.37,253.84L326.12,162.69L326.87,148.99L327.61,136.71L328.36,147.35L329.1,145.07L329.85,38.516L330.6,225.38L331.34,263.05L332.09,215.77L332.84,208.32L333.58,247.26L334.33,246.44L335.07,236.26L335.82,267.81L336.57,247.51L337.31,158.51L338.06,143.27L338.81,147.68L339.55,136.74L340.3,152.41L341.05,38.502L341.79,256.79L342.54,245.59L343.28,245.08L344.03,241.47L344.78,261.99L345.52,263.5L346.27,253.78L347.02,236.2L347.76,191.85L348.51,146.81L349.25,149.59L350,133.48L350.75,150.69L351.49,38.512L352.24,234.71L352.99,255.49L353.73,262.24L354.48,250.68L355.22,238.1L355.97,245.38L356.72,236.59L357.46,242.8L358.21,268.56L358.96,149.62L359.7,138.29L360.45,142.27L361.19,143.32L361.94,150.94L362.69,38.517L363.43,178.23L364.18,155.24L364.93,123.4L365.67,237.35L366.42,180.84L367.17,144.74L367.91,258.47L368.66,238.46L369.4,184.89L370.15,148.81L370.9,147.25L371.64,146.33L372.39,140.89L373.14,38.481L373.88,240.38L374.63,261.9L375.37,232.1L376.12,209.94L376.87,240.49L377.61,248.4L378.36,243.49L379.11,251.99L379.85,255.55L380.6,147.86L381.34,139.97L382.09,140.54L382.84,143.15L383.58,146.03L384.33,38.489L385.08,246.82L385.82,237.51L386.57,236.48L387.31,237.92L388.06,248.72L388.81,262.64L389.55,237.14L390.3,234.13L391.05,177.02L391.79,142.67L392.54,142.74L393.29,148.88L394.03,151.22L394.78,38.48L395.52,213.87L396.27,244.25L397.02,256.58L397.76,250.46L398.51,255.56L399.26,236.14L400,246.12L400.75,253.91L401.31,265.96" style="fill:none;stroke:#F15A60" />
<path d="M405.2,277.58L425.2,277.58" style="fill:none;stroke:#F15A60" />
<text x="342.21" y="-271.91" transform="scale(1, -1)"
	style="font-family:Times;font-weight:normal;font-style:normal;font-size:12px">batch-100kb</text>
</g>
</svg>
