<?xml version="1.0"?>
<!-- Generated by SVGo and Plotinum VG -->
<svg width="425.2pt" height="283.46pt" viewBox="0 0 425.2 283.46"
	xmlns="http://www.w3.org/2000/svg"
	xmlns:xlink="http://www.w3.org/1999/xlink">
<g transform="scale(1, -1) translate(0, -283.46)">
<path d="M0,0L425.2,0L425.2,283.46L0,283.46Z" style="fill:#FFFFFF" />
<text x="209.73" y="-3.8613" transform="scale(1, -1)"
	style="font-family:Times;font-weight:normal;font-style:normal;font-size:12px">database size</text>
<text x="65.668" y="-15.602" transform="scale(1, -1)"
	style="font-family:Times;font-weight:normal;font-style:normal;font-size:10px">8.00 mb</text>
<text x="141.11" y="-15.602" transform="scale(1, -1)"
	style="font-family:Times;font-weight:normal;font-style:normal;font-size:10px">264.00 mb</text>
<text x="221.55" y="-15.602" transform="scale(1, -1)"
	style="font-family:Times;font-weight:normal;font-style:normal;font-size:10px">520.00 mb</text>
<text x="301.99" y="-15.602" transform="scale(1, -1)"
	style="font-family:Times;font-weight:normal;font-style:normal;font-size:10px">776.00 mb</text>
<text x="377.42" y="-15.602" transform="scale(1, -1)"
	style="font-family:Times;font-weight:normal;font-style:normal;font-size:10px">1024.00 mb</text>
<path d="M82.057,25.23L82.057,33.23" style="fill:none;stroke:#000000;stroke-width:0.5" />
<path d="M162.5,25.23L162.5,33.23" style="fill:none;stroke:#000000;stroke-width:0.5" />
<path d="M242.94,25.23L242.94,33.23" style="fill:none;stroke:#000000;stroke-width:0.5" />
<path d="M323.38,25.23L323.38,33.23" style="fill:none;stroke:#000000;stroke-width:0.5" />
<path d="M401.31,25.23L401.31,33.23" style="fill:none;stroke:#000000;stroke-width:0.5" />
<path d="M81.114,33.23L401.31,33.23" style="fill:none;stroke:#000000;stroke-width:0.5" />
<g transform="rotate(90)">
<text x="144.86" y="11.555" transform="scale(1, -1)"
	style="font-family:Times;font-weight:normal;font-style:normal;font-size:12px">speed</text>
</g>
<text x="15.416" y="-273.84" transform="scale(1, -1)"
	style="font-family:Times;font-weight:normal;font-style:normal;font-size:10px">238.23 mb/s</text>
<path d="M67.364,278.56L75.364,278.56" style="fill:none;stroke:#000000;stroke-width:0.5" />
<path d="M75.364,38.48L75.364,278.56" style="fill:none;stroke:#000000;stroke-width:0.5" />
<path d="M81.114,38.48L82.685,132.86L84.257,244.75L85.828,265.05L87.399,250.28L88.97,261.96L90.541,255.93L92.112,247.41L93.683,263.14L95.254,252.07L96.825,251.51L98.397,243.98L99.968,262.45L101.54,257.73L103.11,258.41L104.68,258.1L106.25,200.4L107.82,253.62L109.39,258.85L110.97,260.15L112.54,249.69L114.11,262.55L115.68,266.25L117.25,258.41L118.82,270.29L120.39,269.12L121.96,265.21L123.53,264.58L125.11,264.62L126.68,262.15L128.25,261.67L129.82,263.08L131.39,266.42L132.96,263.68L134.53,239.63L136.1,262.29L137.67,264.01L139.25,260.14L140.82,257.38L142.39,254.25L143.96,243.06L145.53,262.42L147.1,257.03L148.67,261.86L150.24,245.32L151.81,252.33L153.39,226.49L154.96,253.41L156.53,260.24L158.1,232.16L159.67,260.89L161.24,267.28L162.81,255.35L164.38,242.52L165.95,257.79L167.53,267.08L169.1,259.64L170.67,261.98L172.24,264.49L173.81,270.5L175.38,258.69L176.95,261.78L178.52,256.87L180.09,256.25L181.67,242.01L183.24,257.5L184.81,244.33L186.38,254.3L187.95,262.87L189.52,260.33L191.09,250.35L192.66,249.6L194.24,255.39L195.81,255.58L197.38,262.74L198.95,260.82L200.52,261.36L202.09,228.6L203.66,266.25L205.23,196.84L206.8,249.83L208.38,257.7L209.95,256.38L211.52,266.44L213.09,262.31L214.66,264.18L216.23,263.31L217.8,248.12L219.37,266.07L220.94,258.91L222.52,261.52L224.09,258.69L225.66,253.25L227.23,256.16L228.8,250.57L230.37,246.23L231.94,227.92L233.51,241.46L235.08,234.15L236.66,226.21L238.23,248.41L239.8,247.99L241.37,248.11L242.94,253.45L244.51,253.04L246.08,251.25L247.65,252.57L249.22,253.47L250.8,256.76L252.37,259.85L253.94,256.97L255.51,265.19L257.08,255.1L258.65,254.08L260.22,260.86L261.79,266.58L263.36,264.48L264.94,260.57L266.51,259.41L268.08,245.03L269.65,233.11L271.22,243.04L272.79,249.94L274.36,257.76L275.93,259.99L277.5,264.03L279.08,261.08L280.65,263.93L282.22,267.26L283.79,269.46L285.36,233.79L286.93,229.83L288.5,261.71L290.07,267.98L291.64,260.32L293.22,259.91L294.79,266.86L296.36,266.92L297.93,248.37L299.5,269.51L301.07,266.42L302.64,248.85L304.21,263.5L305.78,258.8L307.36,256.7L308.93,259.06L310.5,264.67L312.07,261.44L313.64,255.57L315.21,260.38L316.78,239.97L318.35,257.75L319.92,251.2L321.5,255.23L323.07,237.01L324.64,258.66L326.21,261.4L327.78,265.74L329.35,268.97L330.92,261.37L332.49,261.25L334.06,249.16L335.64,249.64L337.21,266.64L338.78,259.91L340.35,249.47L341.92,237.32L343.49,251.57L345.06,268.53L346.63,239.31L348.2,220.95L349.78,244.12L351.35,263.37L352.92,261.43L354.49,261.27L356.06,261.19L357.63,263.72L359.2,239.45L360.77,245.24L362.35,266.29L363.92,258.77L365.49,205.6L367.06,201.72L368.63,258.36L370.2,262.96L371.77,263.73L373.34,269.94L374.91,262.94L376.49,245.56L378.06,226.25L379.63,249.14L381.2,249.26L382.77,267.82L384.34,263.11L385.91,249.83L387.48,269.63L389.05,278.56L390.63,248.25L392.2,262.51L393.77,252.12L395.34,257.78L396.91,254.3L398.48,258.59L400.05,254.01L401.31,222.16" style="fill:none;stroke:#F15A60" />
<path d="M405.2,277.58L425.2,277.58" style="fill:none;stroke:#F15A60" />
<text x="325.55" y="-271.91" transform="scale(1, -1)"
	style="font-family:Times;font-weight:normal;font-style:normal;font-size:12px">batch-5mb-notx</text>
</g>
</svg>
