<?xml version="1.0"?>
<!-- Generated by SVGo and Plotinum VG -->
<svg width="425.2pt" height="283.46pt" viewBox="0 0 425.2 283.46"
	xmlns="http://www.w3.org/2000/svg"
	xmlns:xlink="http://www.w3.org/1999/xlink">
<g transform="scale(1, -1) translate(0, -283.46)">
<path d="M0,0L425.2,0L425.2,283.46L0,283.46Z" style="fill:#FFFFFF" />
<text x="209.73" y="-3.8613" transform="scale(1, -1)"
	style="font-family:Times;font-weight:normal;font-style:normal;font-size:12px">database size</text>
<text x="65.244" y="-15.602" transform="scale(1, -1)"
	style="font-family:Times;font-weight:normal;font-style:normal;font-size:10px">4.00 mb</text>
<text x="140.51" y="-15.602" transform="scale(1, -1)"
	style="font-family:Times;font-weight:normal;font-style:normal;font-size:10px">260.00 mb</text>
<text x="220.77" y="-15.602" transform="scale(1, -1)"
	style="font-family:Times;font-weight:normal;font-style:normal;font-size:10px">516.00 mb</text>
<text x="301.03" y="-15.602" transform="scale(1, -1)"
	style="font-family:Times;font-weight:normal;font-style:normal;font-size:10px">772.00 mb</text>
<text x="377.42" y="-15.602" transform="scale(1, -1)"
	style="font-family:Times;font-weight:normal;font-style:normal;font-size:10px">1023.63 mb</text>
<path d="M81.634,25.23L81.634,33.23" style="fill:none;stroke:#000000;stroke-width:0.5" />
<path d="M161.89,25.23L161.89,33.23" style="fill:none;stroke:#000000;stroke-width:0.5" />
<path d="M242.16,25.23L242.16,33.23" style="fill:none;stroke:#000000;stroke-width:0.5" />
<path d="M322.42,25.23L322.42,33.23" style="fill:none;stroke:#000000;stroke-width:0.5" />
<path d="M401.31,25.23L401.31,33.23" style="fill:none;stroke:#000000;stroke-width:0.5" />
<path d="M81.114,33.23L401.31,33.23" style="fill:none;stroke:#000000;stroke-width:0.5" />
<g transform="rotate(90)">
<text x="144.86" y="11.555" transform="scale(1, -1)"
	style="font-family:Times;font-weight:normal;font-style:normal;font-size:12px">speed</text>
</g>
<text x="15.416" y="-101.18" transform="scale(1, -1)"
	style="font-family:Times;font-weight:normal;font-style:normal;font-size:10px">256.00 mb/s</text>
<text x="15.416" y="-176.8" transform="scale(1, -1)"
	style="font-family:Times;font-weight:normal;font-style:normal;font-size:10px">288.00 mb/s</text>
<text x="15.416" y="-252.42" transform="scale(1, -1)"
	style="font-family:Times;font-weight:normal;font-style:normal;font-size:10px">320.00 mb/s</text>
<text x="15.416" y="-273.84" transform="scale(1, -1)"
	style="font-family:Times;font-weight:normal;font-style:normal;font-size:10px">329.06 mb/s</text>
<path d="M67.364,105.91L75.364,105.91" style="fill:none;stroke:#000000;stroke-width:0.5" />
<path d="M67.364,181.52L75.364,181.52" style="fill:none;stroke:#000000;stroke-width:0.5" />
<path d="M67.364,257.14L75.364,257.14" style="fill:none;stroke:#000000;stroke-width:0.5" />
<path d="M67.364,278.56L75.364,278.56" style="fill:none;stroke:#000000;stroke-width:0.5" />
<path d="M75.364,38.48L75.364,278.56" style="fill:none;stroke:#000000;stroke-width:0.5" />
<path d="M81.114,38.48L81.849,216.29L82.584,246.67L83.319,271.4L84.053,218.15L84.788,242.01L85.523,224.04L86.258,229.14L86.993,215.06L87.728,227.01L88.462,229.46L89.197,269.25L89.932,235.53L90.667,223.57L91.402,242.57L92.136,223.82L92.871,236.12L93.606,231.58L94.341,229.33L95.076,254.54L95.81,252.67L96.545,243.22L97.28,249.25L98.015,230.18L98.75,245.02L99.485,221.63L100.22,240.65L100.95,266.64L101.69,234.95L102.42,235.82L103.16,248.27L103.89,241.38L104.63,228.68L105.36,224.29L106.1,218.48L106.83,239.18L107.57,264.65L108.3,243.96L109.04,221.11L109.77,240.24L110.51,235.88L111.24,251.13L111.98,249.21L112.71,241.47L113.45,267.17L114.18,247.98L114.92,231.46L115.65,252.07L116.39,234.81L117.12,242.84L117.85,243.14L118.59,231.04L119.32,267.31L120.06,235.16L120.79,252.33L121.53,250.56L122.26,230.18L123,238.36L123.73,232.84L124.47,235.31L125.2,253.52L125.94,248.64L126.67,256.48L127.41,233.37L128.14,242.35L128.88,246.67L129.61,231.1L130.35,246.58L131.08,250.22L131.82,256.9L132.55,245.67L133.29,245.77L134.02,225.18L134.76,239.03L135.49,237.8L136.23,248.29L136.96,251.24L137.69,274.48L138.43,241.86L139.16,237.62L139.9,247.15L140.63,243.6L141.37,245.86L142.1,245.39L142.84,237.34L143.57,270.11L144.31,236.11L145.04,237.28L145.78,254.8L146.51,252.8L147.25,253.3L147.98,252.74L148.72,250.35L149.45,274.76L150.19,254.76L150.92,245.78L151.66,246.97L152.39,254.71L153.13,244.24L153.86,242.51L154.6,250.61L155.33,250.62L156.06,266.13L156.8,229.29L157.53,229.89L158.27,239.28L159,226.72L159.74,249.26L160.47,252.18L161.21,248.42L161.94,278.56L162.68,242.5L163.41,239.76L164.15,230.89L164.88,250.92L165.62,244.76L166.35,233.74L167.09,251.16L167.82,267.15L168.56,242.4L169.29,256.35L170.03,236.31L170.76,248.06L171.5,241.4L172.23,250.01L172.97,255.46L173.7,270.11L174.44,230.19L175.17,239.73L175.9,235.46L176.64,240.28L177.37,248.32L178.11,251.87L178.84,237.53L179.58,269.28L180.31,239.98L181.05,244.19L181.78,210.46L182.52,246.19L183.25,227.27L183.99,236.22L184.72,247.22L185.46,249.28L186.19,252.14L186.93,242.32L187.66,225.92L188.4,246.83L189.13,230.2L189.87,237.49L190.6,248.01L191.34,236.5L192.07,254.98L192.81,234.03L193.54,217.56L194.27,245.21L195.01,234.76L195.74,242.55L196.48,217.1L197.21,240.57L197.95,271.03L198.68,240.17L199.42,246.5L200.15,228.26L200.89,246.06L201.62,243.61L202.36,239.27L203.09,240.64L203.83,268.72L204.56,240.07L205.3,241.89L206.03,225.53L206.77,246.53L207.5,252.31L208.24,231.27L208.97,240.11L209.71,250.96L210.44,242.34L211.18,237.32L211.91,256.32L212.65,237.35L213.38,245.5L214.11,249.37L214.85,248.8L215.58,265.89L216.32,251.9L217.05,234.09L217.79,243.7L218.52,241.1L219.26,220.94L219.99,235.55L220.73,251.58L221.46,239.33L222.2,271.36L222.93,232.69L223.67,244.83L224.4,243.5L225.14,234.19L225.87,246.78L226.61,246.26L227.34,244.4L228.08,264.27L228.81,219.9L229.55,226.92L230.28,245.81L231.02,248.1L231.75,243.3L232.49,251.9L233.22,251.23L233.95,275.1L234.69,237.79L235.42,247.34L236.16,247.39L236.89,228.78L237.63,251.17L238.36,239.14L239.1,230.32L239.83,251.29L240.57,233.26L241.3,243.57L242.04,253.76L242.77,250.49L243.51,248.02L244.24,254.18L244.98,240.79L245.71,235.38L246.45,261.82L247.18,238.95L247.92,230.29L248.65,231.78L249.39,200.54L250.12,230.16L250.86,221.82L251.59,228.26L252.32,259.5L253.06,240.99L253.79,225.45L254.53,247.29L255.26,228.55L256,236.38L256.73,246.05L257.47,227.69L258.2,269.73L258.94,239.49L259.67,242.03L260.41,231.1L261.14,246.45L261.88,245.56L262.61,248.01L263.35,247.2L264.08,247.62L264.82,267.8L265.55,234.57L266.29,245.7L267.02,239.94L267.76,243.3L268.49,245.49L269.23,248.18L269.96,247.49L270.7,263.59L271.43,234.39L272.16,223.72L272.9,226.2L273.63,247.14L274.37,228.75L275.1,243.49L275.84,243.23L276.57,269.07L277.31,231.91L278.04,236.63L278.78,242.95L279.51,248.49L280.25,225.6L280.98,241.24L281.72,251.45L282.45,253.41L283.19,241.52L283.92,213.25L284.66,236.16L285.39,234.43L286.13,232.62L286.86,240.59L287.6,230.29L288.33,243.67L289.07,253.78L289.8,240.89L290.54,249.82L291.27,248.77L292,247.92L292.74,243.27L293.47,249.2L294.21,246.78L294.94,268.04L295.68,245.76L296.41,249.47L297.15,251.45L297.88,236.08L298.62,243.27L299.35,251.88L300.09,242.25L300.82,274.44L301.56,244.4L302.29,246.94L303.03,251.84L303.76,243.4L304.5,230.78L305.23,246.15L305.97,250.52L306.7,273.07L307.44,253.89L308.17,224.86L308.91,247.76L309.64,250.36L310.37,243.28L311.11,243.76L311.84,235.84L312.58,237.28L313.31,273.99L314.05,249.18L314.78,222.42L315.52,240.27L316.25,241.86L316.99,249.59L317.72,244.04L318.46,229.09L319.19,272.59L319.93,250.86L320.66,234.37L321.4,217.01L322.13,232.05L322.87,248.28L323.6,247.79L324.34,249.38L325.07,267.9L325.81,227.1L326.54,242.31L327.28,244.46L328.01,228.35L328.75,244.54L329.48,246.42L330.21,252.09L330.95,278.08L331.68,234.12L332.42,247.6L333.15,250.73L333.89,252.4L334.62,250.77L335.36,226.07L336.09,253.03L336.83,249.8L337.56,269.42L338.3,223.47L339.03,245.89L339.77,235.38L340.5,231.68L341.24,251.38L341.97,236.23L342.71,242.66L343.44,270.32L344.18,249.81L344.91,225.92L345.65,251.74L346.38,238.08L347.12,249.35L347.85,251.11L348.59,229.9L349.32,265.03L350.05,249.17L350.79,237.1L351.52,227.08L352.26,246.11L352.99,249.41L353.73,240.96L354.46,226.39L355.2,267.31L355.93,243.84L356.67,235.56L357.4,249.11L358.14,213.37L358.87,231.96L359.61,246.31L360.34,238.21L361.08,275.54L361.81,235.36L362.55,242.43L363.28,230.2L364.02,247.54L364.75,252.53L365.49,250.66L366.22,245.19L366.96,239.14L367.69,252.34L368.42,246.9L369.16,245.8L369.89,240.68L370.63,220.37L371.36,222.89L372.1,224.97L372.83,237.43L373.57,267.07L374.3,246.87L375.04,235.37L375.77,217.97L376.51,232.16L377.24,229.96L377.98,236.81L378.71,235.82L379.45,257.59L380.18,246.11L380.92,249.08L381.65,238.72L382.39,233.08L383.12,240.4L383.86,242.45L384.59,246.2L385.33,242.16L386.06,255.62L386.8,247.06L387.53,243.39L388.26,247.26L389,241.16L389.73,245.76L390.47,228.12L391.2,239.51L391.94,270.41L392.67,236.71L393.41,243.78L394.14,247.47L394.88,244.94L395.61,244.89L396.35,251.17L397.08,231.87L397.82,253.64L398.55,243.95L399.29,241.58L400.02,238.08L400.76,240.19L401.31,256.18" style="fill:none;stroke:#F15A60" />
<path d="M405.2,277.58L425.2,277.58" style="fill:none;stroke:#F15A60" />
<text x="304.22" y="-271.91" transform="scale(1, -1)"
	style="font-family:Times;font-weight:normal;font-style:normal;font-size:12px">batch-100kb-nosync</text>
</g>
</svg>
