<?xml version="1.0"?>
<!-- Generated by SVGo and Plotinum VG -->
<svg width="425.2pt" height="283.46pt" viewBox="0 0 425.2 283.46"
	xmlns="http://www.w3.org/2000/svg"
	xmlns:xlink="http://www.w3.org/1999/xlink">
<g transform="scale(1, -1) translate(0, -283.46)">
<path d="M0,0L425.2,0L425.2,283.46L0,283.46Z" style="fill:#FFFFFF" />
<text x="209.73" y="-3.8613" transform="scale(1, -1)"
	style="font-family:Times;font-weight:normal;font-style:normal;font-size:12px">database size</text>
<text x="65.244" y="-15.602" transform="scale(1, -1)"
	style="font-family:Times;font-weight:normal;font-style:normal;font-size:10px">4.00 mb</text>
<text x="140.51" y="-15.602" transform="scale(1, -1)"
	style="font-family:Times;font-weight:normal;font-style:normal;font-size:10px">260.00 mb</text>
<text x="220.77" y="-15.602" transform="scale(1, -1)"
	style="font-family:Times;font-weight:normal;font-style:normal;font-size:10px">516.00 mb</text>
<text x="301.03" y="-15.602" transform="scale(1, -1)"
	style="font-family:Times;font-weight:normal;font-style:normal;font-size:10px">772.00 mb</text>
<text x="377.42" y="-15.602" transform="scale(1, -1)"
	style="font-family:Times;font-weight:normal;font-style:normal;font-size:10px">1023.63 mb</text>
<path d="M81.634,25.23L81.634,33.23" style="fill:none;stroke:#000000;stroke-width:0.5" />
<path d="M161.89,25.23L161.89,33.23" style="fill:none;stroke:#000000;stroke-width:0.5" />
<path d="M242.16,25.23L242.16,33.23" style="fill:none;stroke:#000000;stroke-width:0.5" />
<path d="M322.42,25.23L322.42,33.23" style="fill:none;stroke:#000000;stroke-width:0.5" />
<path d="M401.31,25.23L401.31,33.23" style="fill:none;stroke:#000000;stroke-width:0.5" />
<path d="M81.114,33.23L401.31,33.23" style="fill:none;stroke:#000000;stroke-width:0.5" />
<g transform="rotate(90)">
<text x="144.86" y="11.555" transform="scale(1, -1)"
	style="font-family:Times;font-weight:normal;font-style:normal;font-size:12px">speed</text>
</g>
<text x="15.416" y="-95.389" transform="scale(1, -1)"
	style="font-family:Times;font-weight:normal;font-style:normal;font-size:10px">256.00 mb/s</text>
<text x="15.416" y="-174.27" transform="scale(1, -1)"
	style="font-family:Times;font-weight:normal;font-style:normal;font-size:10px">288.00 mb/s</text>
<text x="15.416" y="-253.15" transform="scale(1, -1)"
	style="font-family:Times;font-weight:normal;font-style:normal;font-size:10px">320.00 mb/s</text>
<text x="15.416" y="-273.84" transform="scale(1, -1)"
	style="font-family:Times;font-weight:normal;font-style:normal;font-size:10px">328.39 mb/s</text>
<path d="M67.364,100.11L75.364,100.11" style="fill:none;stroke:#000000;stroke-width:0.5" />
<path d="M67.364,178.99L75.364,178.99" style="fill:none;stroke:#000000;stroke-width:0.5" />
<path d="M67.364,257.87L75.364,257.87" style="fill:none;stroke:#000000;stroke-width:0.5" />
<path d="M67.364,278.56L75.364,278.56" style="fill:none;stroke:#000000;stroke-width:0.5" />
<path d="M75.364,38.48L75.364,278.56" style="fill:none;stroke:#000000;stroke-width:0.5" />
<path d="M81.114,38.48L81.849,219.54L82.584,240.44L83.319,264.47L84.053,220.34L84.788,231.52L85.523,244.34L86.258,250.24L86.993,223.64L87.728,246.15L88.462,242.68L89.197,246.26L89.932,278.24L90.667,243.86L91.402,243.87L92.136,245.44L92.871,244.4L93.606,249.96L94.341,249.8L95.076,251.02L95.81,262.75L96.545,236.31L97.28,240.77L98.015,224.35L98.75,229.08L99.485,214.3L100.22,250.99L100.95,250.69L101.69,237.62L102.42,268.17L103.16,254.83L103.89,258.41L104.63,248.28L105.36,244.96L106.1,228.56L106.83,248.54L107.57,237.9L108.3,274.37L109.04,228.54L109.77,242.5L110.51,252.41L111.24,254.86L111.98,250.02L112.71,242.23L113.45,250.47L114.18,278.56L114.92,244.07L115.65,219.19L116.39,245.16L117.12,253.18L117.85,251.19L118.59,245L119.32,249.37L120.06,266.31L120.79,252.85L121.53,234.04L122.26,231.3L123,245.88L123.73,253.22L124.47,238.27L125.2,250.91L125.94,269.16L126.67,250.61L127.41,253.81L128.14,238.9L128.88,250.12L129.61,243.68L130.35,238.75L131.08,246.93L131.82,255.24L132.55,272.5L133.29,250.39L134.02,245.45L134.76,245.65L135.49,251.22L136.23,242.39L136.96,252.62L137.69,224.33L138.43,274.86L139.16,235.31L139.9,252.06L140.63,249.55L141.37,240.11L142.1,245.88L142.84,213.94L143.57,247.28L144.31,255.15L145.04,248.95L145.78,240.87L146.51,254.53L147.25,254.34L147.98,248.21L148.72,250.87L149.45,233.88L150.19,237.66L150.92,253L151.66,248.25L152.39,253.76L153.13,239.07L153.86,248.8L154.6,233.73L155.33,254.3L156.06,250.3L156.8,275.07L157.53,250.24L158.27,237.3L159,231.87L159.74,244.75L160.47,242.21L161.21,237.64L161.94,227.93L162.68,270.23L163.41,234.55L164.15,240.48L164.88,247.99L165.62,244.52L166.35,241.94L167.09,228.14L167.82,225.34L168.56,264.08L169.29,244.76L170.03,244.77L170.76,245.33L171.5,244.39L172.23,238.96L172.97,242.51L173.7,248.95L174.44,272.62L175.17,250.16L175.9,248.55L176.64,248.78L177.37,245.39L178.11,242.73L178.84,237.83L179.58,244.84L180.31,255.05L181.05,258.77L181.78,251.39L182.52,251.21L183.25,253.64L183.99,238.87L184.72,244.64L185.46,241.38L186.19,239.85L186.93,262.36L187.66,251.66L188.4,233.2L189.13,247.12L189.87,248.35L190.6,239.53L191.34,225.87L192.07,249.26L192.81,261.49L193.54,244.13L194.27,243.77L195.01,244.93L195.74,227.99L196.48,251.13L197.21,243.62L197.95,230.71L198.68,259.59L199.42,240.18L200.15,229.56L200.89,251.2L201.62,247.6L202.36,224.9L203.09,243.42L203.83,248.83L204.56,266.23L205.3,249.53L206.03,242.44L206.77,247.7L207.5,250.59L208.24,252.94L208.97,254.83L209.71,247.36L210.44,227.49L211.18,268.68L211.91,247.29L212.65,232.6L213.38,243.19L214.11,233.48L214.85,234.9L215.58,232.27L216.32,244.59L217.05,275.71L217.79,251.3L218.52,235.34L219.26,237.62L219.99,219.43L220.73,251.28L221.46,247.62L222.2,252.33L222.93,277.69L223.67,251.47L224.4,241.72L225.14,251.94L225.87,259.08L226.61,242.17L227.34,246.58L228.08,247.8L228.81,268.7L229.55,245.81L230.28,244.36L231.02,248.6L231.75,224.98L232.49,249.79L233.22,233.83L233.95,247.6L234.69,243.39L235.42,248.52L236.16,236.22L236.89,252.92L237.63,254.75L238.36,243.83L239.1,240.1L239.83,248.82L240.57,245.8L241.3,275.37L242.04,242.8L242.77,234.29L243.51,236.06L244.24,254.98L244.98,227.39L245.71,230.16L246.45,235.87L247.18,259.95L247.92,246.01L248.65,249.03L249.39,245.5L250.12,248.67L250.86,248.91L251.59,246.86L252.32,242.34L253.06,268.21L253.79,244.99L254.53,236.8L255.26,245.9L256,244.57L256.73,232.89L257.47,224.17L258.2,248.13L258.94,257.09L259.67,245.65L260.41,226.88L261.14,248.29L261.88,244.95L262.61,230.63L263.35,248.86L264.08,222.52L264.82,264.52L265.55,246.82L266.29,248.85L267.02,243.5L267.76,239.62L268.49,244.71L269.23,249.84L269.96,244.86L270.7,240.07L271.43,265.91L272.16,248.37L272.9,232.81L273.63,217.89L274.37,229.72L275.1,247.19L275.84,230.78L276.57,228.39L277.31,261.47L278.04,240.22L278.78,244.21L279.51,242.23L280.25,231.92L280.98,247.86L281.72,235.68L282.45,247.95L283.19,269.36L283.92,246.43L284.66,249.44L285.39,251.47L286.13,233.47L286.86,232.29L287.6,245.93L288.33,245.38L289.07,273.31L289.8,239L290.54,249.63L291.27,248.64L292,248.53L292.74,245.65L293.47,253.86L294.21,253.51L294.94,256.25L295.68,266.99L296.41,251.25L297.15,233.99L297.88,246.31L298.62,244.43L299.35,251.1L300.09,253.9L300.82,237.88L301.56,273.8L302.29,227.51L303.03,242.95L303.76,235.07L304.5,253.66L305.23,253L305.97,239.42L306.7,243.58L307.44,251.11L308.17,270.77L308.91,244.56L309.64,243.09L310.37,236.24L311.11,252.68L311.84,247.56L312.58,244.48L313.31,244.02L314.05,272.94L314.78,247.5L315.52,242.23L316.25,252.73L316.99,249.82L317.72,245.91L318.46,230.61L319.19,240.51L319.93,234.79L320.66,266.4L321.4,240.82L322.13,242.1L322.87,232.35L323.6,250.3L324.34,228.73L325.07,247.49L325.81,233.79L326.54,269.24L327.28,244.33L328.01,248.01L328.75,248.91L329.48,230.4L330.21,249L330.95,245.35L331.68,223.73L332.42,244.59L333.15,270.24L333.89,251.75L334.62,234.4L335.36,246.07L336.09,243.15L336.83,245.07L337.56,250.18L338.3,244.55L339.03,226.71L339.77,270.49L340.5,238.17L341.24,239.34L341.97,232.92L342.71,251.11L343.44,237.71L344.18,237.61L344.91,240.32L345.65,274.26L346.38,245.3L347.12,245.01L347.85,247.46L348.59,244.62L349.32,246.25L350.05,250.6L350.79,245.11L351.52,277.04L352.26,250.74L352.99,250.64L353.73,232.54L354.46,246.16L355.2,231.61L355.93,247.34L356.67,228.36L357.4,250.4L358.14,276.64L358.87,245.86L359.61,221.38L360.34,232.88L361.08,232.24L361.81,253.39L362.55,254L363.28,244.81L364.02,226.68L364.75,271.79L365.49,257.1L366.22,237.29L366.96,240.87L367.69,238.08L368.42,241.04L369.16,229.31L369.89,235.01L370.63,274.42L371.36,254.3L372.1,231.81L372.83,248.14L373.57,244.07L374.3,250.34L375.04,226.54L375.77,253.65L376.51,237.67L377.24,270.64L377.98,254.16L378.71,248.62L379.45,237.26L380.18,248L380.92,246.93L381.65,242.49L382.39,240.29L383.12,269.18L383.86,247.59L384.59,251.28L385.33,252.29L386.06,240.89L386.8,224.09L387.53,238.55L388.26,244.54L389,245.99L389.73,270.58L390.47,252.93L391.2,252.36L391.94,241.04L392.67,241.42L393.41,246.74L394.14,250.82L394.88,245.99L395.61,260.77L396.35,248.75L397.08,251.91L397.82,250.17L398.55,244.91L399.29,248.91L400.02,249.48L400.76,252.54L401.31,248.86" style="fill:none;stroke:#F15A60" />
<path d="M405.2,277.58L425.2,277.58" style="fill:none;stroke:#F15A60" />
<text x="194.93" y="-271.91" transform="scale(1, -1)"
	style="font-family:Times;font-weight:normal;font-style:normal;font-size:12px">batch-100kb-wb-512mb-cache-1gb-nosync</text>
</g>
</svg>
