<?xml version="1.0"?>
<!-- Generated by SVGo and Plotinum VG -->
<svg width="425.2pt" height="283.46pt" viewBox="0 0 425.2 283.46"
	xmlns="http://www.w3.org/2000/svg"
	xmlns:xlink="http://www.w3.org/1999/xlink">
<g transform="scale(1, -1) translate(0, -283.46)">
<path d="M0,0L425.2,0L425.2,283.46L0,283.46Z" style="fill:#FFFFFF" />
<text x="209.73" y="-3.8613" transform="scale(1, -1)"
	style="font-family:Times;font-weight:normal;font-style:normal;font-size:12px">database size</text>
<text x="65.352" y="-15.602" transform="scale(1, -1)"
	style="font-family:Times;font-weight:normal;font-style:normal;font-size:10px">4.00 mb</text>
<text x="140.56" y="-15.602" transform="scale(1, -1)"
	style="font-family:Times;font-weight:normal;font-style:normal;font-size:10px">260.00 mb</text>
<text x="220.76" y="-15.602" transform="scale(1, -1)"
	style="font-family:Times;font-weight:normal;font-style:normal;font-size:10px">516.00 mb</text>
<text x="300.97" y="-15.602" transform="scale(1, -1)"
	style="font-family:Times;font-weight:normal;font-style:normal;font-size:10px">772.00 mb</text>
<text x="377.42" y="-15.602" transform="scale(1, -1)"
	style="font-family:Times;font-weight:normal;font-style:normal;font-size:10px">1024.00 mb</text>
<path d="M81.741,25.23L81.741,33.23" style="fill:none;stroke:#000000;stroke-width:0.5" />
<path d="M161.95,25.23L161.95,33.23" style="fill:none;stroke:#000000;stroke-width:0.5" />
<path d="M242.15,25.23L242.15,33.23" style="fill:none;stroke:#000000;stroke-width:0.5" />
<path d="M322.36,25.23L322.36,33.23" style="fill:none;stroke:#000000;stroke-width:0.5" />
<path d="M401.31,25.23L401.31,33.23" style="fill:none;stroke:#000000;stroke-width:0.5" />
<path d="M81.114,33.23L401.31,33.23" style="fill:none;stroke:#000000;stroke-width:0.5" />
<g transform="rotate(90)">
<text x="144.86" y="11.555" transform="scale(1, -1)"
	style="font-family:Times;font-weight:normal;font-style:normal;font-size:12px">speed</text>
</g>
<text x="15.416" y="-273.84" transform="scale(1, -1)"
	style="font-family:Times;font-weight:normal;font-style:normal;font-size:10px">244.44 mb/s</text>
<path d="M67.364,278.56L75.364,278.56" style="fill:none;stroke:#000000;stroke-width:0.5" />
<path d="M75.364,38.48L75.364,278.56" style="fill:none;stroke:#000000;stroke-width:0.5" />
<path d="M81.114,38.48L81.741,219.56L82.367,243.36L82.994,247L83.621,256.38L84.247,259.99L84.874,251.55L85.501,259.09L86.127,253.75L86.754,248.97L87.38,255.07L88.007,264.93L88.634,270.48L89.26,255.12L89.887,255.74L90.513,248.74L91.14,250.03L91.767,265.62L92.393,269.08L93.02,172.97L93.647,240.14L94.273,255.25L94.9,263.16L95.526,265.74L96.153,259.11L96.78,263.09L97.406,247.28L98.033,257.9L98.66,263.81L99.286,257.3L99.913,249.82L100.54,266.6L101.17,257.4L101.79,262.95L102.42,248.14L103.05,238.03L103.67,239.96L104.3,264.26L104.93,255.73L105.55,250.72L106.18,247.94L106.81,241.8L107.43,247.51L108.06,259.27L108.69,266.1L109.31,252.18L109.94,249.13L110.57,249.11L111.19,247.62L111.82,221.31L112.45,238.29L113.07,254.71L113.7,256.07L114.32,241.65L114.95,249.7L115.58,254.41L116.2,251.48L116.83,252.12L117.46,261.45L118.08,255.45L118.71,253.37L119.34,258.02L119.96,250.85L120.59,248.01L121.22,249.59L121.84,263.38L122.47,242.25L123.1,259.95L123.72,272.36L124.35,250L124.98,278.07L125.6,265.38L126.23,234.87L126.86,266.3L127.48,246.44L128.11,252.88L128.74,264.46L129.36,267.7L129.99,263.74L130.62,274.87L131.24,252.82L131.87,257.05L132.5,236.26L133.12,261.52L133.75,248.59L134.38,244.76L135,274.23L135.63,257.87L136.26,256.67L136.88,255.51L137.51,255.53L138.14,265.84L138.76,261.31L139.39,258.01L140.02,270.16L140.64,271.76L141.27,262.79L141.9,265.59L142.52,253.11L143.15,270.02L143.78,249.18L144.4,265.64L145.03,271.41L145.66,270.02L146.28,267.21L146.91,234.08L147.54,262.19L148.16,230.46L148.79,241.01L149.42,255.94L150.04,256.68L150.67,263.01L151.3,253.55L151.92,251.17L152.55,245.45L153.18,258.17L153.8,253.07L154.43,252.78L155.05,239.4L155.68,243.58L156.31,242.77L156.93,260.19L157.56,245.33L158.19,244.47L158.81,249.43L159.44,260.09L160.07,253.53L160.69,253.1L161.32,257.01L161.95,250.13L162.57,248.13L163.2,255.83L163.83,262.77L164.45,246.48L165.08,256.48L165.71,255.83L166.33,253.95L166.96,254.55L167.59,260.76L168.21,251.15L168.84,253.73L169.47,265.4L170.09,219.91L170.72,260.85L171.35,268.76L171.97,266.53L172.6,266.53L173.23,162.47L173.85,238.77L174.48,251.97L175.11,239.08L175.73,251.15L176.36,254.65L176.99,252.44L177.61,256.37L178.24,263.58L178.87,254.64L179.49,266.56L180.12,261.8L180.75,236.21L181.37,261.16L182,260.09L182.63,274.23L183.25,256.7L183.88,266.92L184.51,265.84L185.13,261.75L185.76,263.33L186.39,244.95L187.01,241.29L187.64,258.61L188.27,263.25L188.89,257.57L189.52,247.29L190.15,241.13L190.77,247.71L191.4,257.28L192.03,271.86L192.65,258.62L193.28,265.23L193.91,250.42L194.53,245.61L195.16,248.98L195.78,263.1L196.41,243.94L197.04,259.49L197.66,215.19L198.29,217.78L198.92,248.14L199.54,214.8L200.17,118.94L200.8,218.2L201.42,261.51L202.05,248.98L202.68,234.48L203.3,253.98L203.93,256.17L204.56,255.51L205.18,241.02L205.81,252L206.44,248.56L207.06,259.04L207.69,257.93L208.32,257.95L208.94,241.42L209.57,250.28L210.2,250.76L210.82,251.55L211.45,262.54L212.08,259.61L212.7,258.38L213.33,265.93L213.96,242.37L214.58,262.21L215.21,249.87L215.84,266.29L216.46,248.99L217.09,256.4L217.72,251.03L218.34,245.99L218.97,252.62L219.6,259.36L220.22,246.57L220.85,253.32L221.48,204.84L222.1,246.99L222.73,258.62L223.36,254.77L223.98,261.96L224.61,256.35L225.24,251.84L225.86,246.02L226.49,261.16L227.12,267.83L227.74,262.21L228.37,262.92L229,258.76L229.62,264.34L230.25,276.64L230.88,236.45L231.5,244.92L232.13,248.44L232.76,254.77L233.38,255.77L234.01,261.02L234.64,262.82L235.26,252.72L235.89,250.59L236.52,237.02L237.14,247.7L237.77,259.05L238.39,248.56L239.02,263.59L239.65,254.4L240.27,252.67L240.9,240.56L241.53,268.49L242.15,269L242.78,263.76L243.41,254.64L244.03,241.3L244.66,237.83L245.29,239.84L245.91,277.49L246.54,238.41L247.17,265.07L247.79,251.13L248.42,263.88L249.05,257.39L249.67,258.62L250.3,261.31L250.93,252.45L251.55,261.75L252.18,254.19L252.81,273.27L253.43,267.24L254.06,235.67L254.69,257.29L255.31,262.19L255.94,213.35L256.57,261.73L257.19,264.01L257.82,247.52L258.45,256.91L259.07,252.8L259.7,221.36L260.33,248.57L260.95,260.41L261.58,254.48L262.21,250.86L262.83,252.89L263.46,247.9L264.09,250.1L264.71,260.7L265.34,243.08L265.97,260.39L266.59,251.72L267.22,253.32L267.85,260.39L268.47,249.71L269.1,264.16L269.73,246.42L270.35,258.93L270.98,262.8L271.61,257.11L272.23,259.66L272.86,263.11L273.49,268.71L274.11,268.07L274.74,259.04L275.37,211.76L275.99,250.17L276.62,258.75L277.25,251.7L277.87,267.7L278.5,257.93L279.12,265.65L279.75,270.92L280.38,234.87L281,251.12L281.63,250.19L282.26,250.4L282.88,239.43L283.51,224.14L284.14,262.53L284.76,261.74L285.39,264.62L286.02,273.3L286.64,258.44L287.27,257.31L287.9,256.96L288.52,247.55L289.15,247.9L289.78,251.86L290.4,262.79L291.03,268.8L291.66,252.77L292.28,215.39L292.91,244.32L293.54,179.15L294.16,245.01L294.79,255.51L295.42,257.15L296.04,255.89L296.67,258.32L297.3,261.18L297.92,247.39L298.55,256.28L299.18,222.06L299.8,238.91L300.43,246.22L301.06,261.46L301.68,249.29L302.31,263.24L302.94,266.81L303.56,263.53L304.19,255.07L304.82,263.56L305.44,250.45L306.07,246.29L306.7,259.93L307.32,264.48L307.95,249L308.58,266.62L309.2,251.45L309.83,255.32L310.46,257.06L311.08,214.63L311.71,251.15L312.34,251.58L312.96,255.96L313.59,245.99L314.22,245.92L314.84,270.58L315.47,244.23L316.1,263.7L316.72,235.28L317.35,253.96L317.98,261.07L318.6,261.73L319.23,247.32L319.85,226.95L320.48,271.88L321.11,248.43L321.73,248.28L322.36,259.95L322.99,248.56L323.61,257.11L324.24,242.2L324.87,265.14L325.49,262.55L326.12,256.95L326.75,267.92L327.37,274.96L328,257.14L328.63,261.26L329.25,256.56L329.88,257.72L330.51,264.49L331.13,247.91L331.76,267.72L332.39,261.51L333.01,270.96L333.64,270.92L334.27,264.94L334.89,268.15L335.52,255.37L336.15,268.31L336.77,256.1L337.4,263.7L338.03,255.87L338.65,274.81L339.28,266.16L339.91,243.62L340.53,249L341.16,255.87L341.79,265.52L342.41,268.08L343.04,255.64L343.67,260.87L344.29,230.48L344.92,251.14L345.55,257.45L346.17,260.22L346.8,267.68L347.43,264.95L348.05,248.13L348.68,224.99L349.31,242.44L349.93,246.11L350.56,249.14L351.19,256.6L351.81,235.46L352.44,251.58L353.07,253.34L353.69,255.94L354.32,245.18L354.95,266.29L355.57,259.96L356.2,255.94L356.83,243.37L357.45,243.21L358.08,250.81L358.71,256.49L359.33,261.99L359.96,255.34L360.58,257.75L361.21,256.4L361.84,253.9L362.46,262.03L363.09,249.14L363.72,262.21L364.34,245.6L364.97,265.39L365.6,275.16L366.22,269.56L366.85,251.16L367.48,251.18L368.1,179.4L368.73,261.4L369.36,258.87L369.98,244.5L370.61,252.89L371.24,263.96L371.86,254.68L372.49,260.56L373.12,246.58L373.74,255.63L374.37,252.02L375,262.93L375.62,262.83L376.25,256.83L376.88,270.51L377.5,243.77L378.13,265.54L378.76,253.3L379.38,258.48L380.01,275.36L380.64,270.07L381.26,248.94L381.89,269.87L382.52,254.09L383.14,273.89L383.77,263.93L384.4,263.03L385.02,272.19L385.65,278.56L386.28,154.31L386.9,237.26L387.53,245.56L388.16,248.2L388.78,231.41L389.41,237.14L390.04,230.08L390.66,234.45L391.29,252.46L391.92,260.71L392.54,236.29L393.17,231.78L393.8,248.57L394.42,226.74L395.05,247.31L395.68,239.35L396.3,244.61L396.93,254.78L397.56,244.19L398.18,207.44L398.81,235.52L399.44,250.29L400.06,244.76L400.69,189.56L401.31,84.062" style="fill:none;stroke:#F15A60" />
<path d="M405.2,277.58L425.2,277.58" style="fill:none;stroke:#F15A60" />
<text x="350.88" y="-271.91" transform="scale(1, -1)"
	style="font-family:Times;font-weight:normal;font-style:normal;font-size:12px">batch-1mb</text>
</g>
</svg>
