<?xml version="1.0"?>
<!-- Generated by SVGo and Plotinum VG -->
<svg width="425.2pt" height="283.46pt" viewBox="0 0 425.2 283.46"
	xmlns="http://www.w3.org/2000/svg"
	xmlns:xlink="http://www.w3.org/1999/xlink">
<g transform="scale(1, -1) translate(0, -283.46)">
<path d="M0,0L425.2,0L425.2,283.46L0,283.46Z" style="fill:#FFFFFF" />
<text x="207.23" y="-3.8613" transform="scale(1, -1)"
	style="font-family:Times;font-weight:normal;font-style:normal;font-size:12px">database size</text>
<text x="60.252" y="-15.602" transform="scale(1, -1)"
	style="font-family:Times;font-weight:normal;font-style:normal;font-size:10px">4.00 mb</text>
<text x="136.77" y="-15.602" transform="scale(1, -1)"
	style="font-family:Times;font-weight:normal;font-style:normal;font-size:10px">260.00 mb</text>
<text x="218.28" y="-15.602" transform="scale(1, -1)"
	style="font-family:Times;font-weight:normal;font-style:normal;font-size:10px">516.00 mb</text>
<text x="299.79" y="-15.602" transform="scale(1, -1)"
	style="font-family:Times;font-weight:normal;font-style:normal;font-size:10px">772.00 mb</text>
<text x="377.42" y="-15.602" transform="scale(1, -1)"
	style="font-family:Times;font-weight:normal;font-style:normal;font-size:10px">1023.63 mb</text>
<path d="M76.642,25.23L76.642,33.23" style="fill:none;stroke:#000000;stroke-width:0.5" />
<path d="M158.16,25.23L158.16,33.23" style="fill:none;stroke:#000000;stroke-width:0.5" />
<path d="M239.67,25.23L239.67,33.23" style="fill:none;stroke:#000000;stroke-width:0.5" />
<path d="M321.18,25.23L321.18,33.23" style="fill:none;stroke:#000000;stroke-width:0.5" />
<path d="M401.31,25.23L401.31,33.23" style="fill:none;stroke:#000000;stroke-width:0.5" />
<path d="M76.114,33.23L401.31,33.23" style="fill:none;stroke:#000000;stroke-width:0.5" />
<g transform="rotate(90)">
<text x="144.86" y="11.555" transform="scale(1, -1)"
	style="font-family:Times;font-weight:normal;font-style:normal;font-size:12px">speed</text>
</g>
<text x="15.416" y="-43.354" transform="scale(1, -1)"
	style="font-family:Times;font-weight:normal;font-style:normal;font-size:10px">16.00 mb/s</text>
<text x="15.416" y="-113.54" transform="scale(1, -1)"
	style="font-family:Times;font-weight:normal;font-style:normal;font-size:10px">32.00 mb/s</text>
<text x="15.416" y="-183.73" transform="scale(1, -1)"
	style="font-family:Times;font-weight:normal;font-style:normal;font-size:10px">48.00 mb/s</text>
<text x="15.416" y="-253.92" transform="scale(1, -1)"
	style="font-family:Times;font-weight:normal;font-style:normal;font-size:10px">64.00 mb/s</text>
<text x="15.416" y="-273.84" transform="scale(1, -1)"
	style="font-family:Times;font-weight:normal;font-style:normal;font-size:10px">68.54 mb/s</text>
<path d="M62.364,48.075L70.364,48.075" style="fill:none;stroke:#000000;stroke-width:0.5" />
<path d="M62.364,118.27L70.364,118.27" style="fill:none;stroke:#000000;stroke-width:0.5" />
<path d="M62.364,188.46L70.364,188.46" style="fill:none;stroke:#000000;stroke-width:0.5" />
<path d="M62.364,258.65L70.364,258.65" style="fill:none;stroke:#000000;stroke-width:0.5" />
<path d="M62.364,278.56L70.364,278.56" style="fill:none;stroke:#000000;stroke-width:0.5" />
<path d="M70.364,38.48L70.364,278.56" style="fill:none;stroke:#000000;stroke-width:0.5" />
<path d="M76.114,278.56L76.861,211.07L77.607,199.09L78.353,198.78L79.099,188.54L79.846,181.68L80.592,174.67L81.338,185.32L82.085,160.4L82.831,169.81L83.577,146.06L84.323,168.4L85.07,167.44L85.816,131.01L86.562,147.82L87.309,151.04L88.055,128.69L88.801,144.48L89.547,154.45L90.294,155.12L91.04,150.18L91.786,110.44L92.533,147.56L93.279,142.89L94.025,142.52L94.771,140.36L95.518,96.718L96.264,134.44L97.01,138.54L97.757,135.78L98.503,131.88L99.249,133.84L99.995,132.14L100.74,91.267L101.49,129.21L102.23,125.21L102.98,130.17L103.73,125.33L104.47,119.53L105.22,123.47L105.97,125.03L106.71,82.183L107.46,129.37L108.2,130.77L108.95,128.24L109.7,130.21L110.44,128.09L111.19,122.41L111.94,111.55L112.68,116.47L113.43,123.66L114.17,92.222L114.92,115.58L115.67,116.94L116.41,117.35L117.16,116.86L117.91,117.01L118.65,114.32L119.4,111.68L120.15,107.02L120.89,111.39L121.64,115.65L122.38,113.66L123.13,115.38L123.88,81.774L124.62,111.14L125.37,113.86L126.12,112.3L126.86,110.68L127.61,105.57L128.35,106.59L129.1,108.99L129.85,110.48L130.59,109.28L131.34,109.21L132.09,108.76L132.83,106.41L133.58,106.34L134.32,100.47L135.07,100.48L135.82,55.498L136.56,110.21L137.31,112.83L138.06,108.02L138.8,104.65L139.55,101.89L140.29,98.161L141.04,100.2L141.79,99.339L142.53,103.42L143.28,106.45L144.03,107.41L144.77,107.22L145.52,106.16L146.26,106.34L147.01,104.96L147.76,97.325L148.5,93.87L149.25,92.156L150,102.46L150.74,107.87L151.49,63.154L152.24,94.945L152.98,98.315L153.73,99.178L154.47,100.16L155.22,94.98L155.97,92.671L156.71,96.676L157.46,97.547L158.21,93.203L158.95,97.77L159.7,97.468L160.44,95.734L161.19,96.287L161.94,90.664L162.68,89.099L163.43,93.096L164.18,93.546L164.92,95.525L165.67,93.505L166.41,91.24L167.16,95.08L167.91,94.765L168.65,93.165L169.4,90.193L170.15,38.48L170.89,99.614L171.64,95.856L172.38,99.409L173.13,100.3L173.88,97.411L174.62,92.766L175.37,94.275L176.12,99.003L176.86,98.443L177.61,99.525L178.36,100.21L179.1,100.23L179.85,100.33L180.59,98.318L181.34,95.86L182.09,94.2L182.83,97.989L183.58,100.34L184.33,91.425L185.07,98.813L185.82,92.605L186.56,96.493L187.31,98.399L188.06,96.49L188.8,92.988L189.55,95.583L190.3,99.533L191.04,98.083L191.79,98.707L192.53,192.72L193.28,246.32L194.03,229.53L194.77,215.05L195.52,200.58L196.27,191.06L197.01,192.63L197.76,171.4L198.5,158.51L199.25,172.45L200,159.04L200.74,173.17L201.49,172.1L202.24,144.35L202.98,157.41L203.73,155.18L204.48,126.03L205.22,145.52L205.97,150.85L206.71,146.3L207.46,136.79L208.21,115.29L208.95,140.67L209.7,141.91L210.45,141.44L211.19,137.39L211.94,112.26L212.68,134.6L213.43,131.21L214.18,123.29L214.92,128.81L215.67,125.18L216.42,116.67L217.16,95.38L217.91,54.344L218.65,125.82L219.4,125.17L220.15,124.44L220.89,124.48L221.64,122.68L222.39,122.41L223.13,93.53L223.88,111L224.62,116.79L225.37,116.45L226.12,120.07L226.86,119.15L227.61,121.05L228.36,120.77L229.1,115.76L229.85,117.16L230.6,90.295L231.34,113.23L232.09,118.02L232.83,120.78L233.58,115.61L234.33,119.14L235.07,120.13L235.82,119.32L236.57,120.1L237.31,119.37L238.06,120.44L238.8,117.86L239.55,110.66L240.3,63.086L241.04,110.19L241.79,111.69L242.54,109.71L243.28,109.91L244.03,109.21L244.77,109.78L245.52,109.11L246.27,107.34L247.01,103.99L247.76,105.12L248.51,103.3L249.25,105.25L250,107.97L250.74,108.37L251.49,106.82L252.24,56.251L252.98,99.079L253.73,99.666L254.48,103.73L255.22,105.12L255.97,104.82L256.72,102.14L257.46,104.05L258.21,102.79L258.95,100.57L259.7,103.45L260.45,99.285L261.19,99.064L261.94,103.15L262.69,99.532L263.43,101.61L264.18,104.32L264.92,104.93L265.67,103.85L266.42,102.94L267.16,102.64L267.91,47.031L268.66,102.22L269.4,105.49L270.15,105.47L270.89,106.28L271.64,104.23L272.39,104.96L273.13,105.35L273.88,103.43L274.63,92.628L275.37,95.824L276.12,100.94L276.86,102.73L277.61,104.51L278.36,99.371L279.1,99.968L279.85,101.24L280.6,100.15L281.34,96.987L282.09,98.229L282.84,100.51L283.58,102L284.33,100.5L285.07,100.75L285.82,101.75L286.57,58.217L287.31,97.125L288.06,94.471L288.81,94.902L289.55,99.515L290.3,100.22L291.04,100.17L291.79,100.56L292.54,98.346L293.28,97.335L294.03,99.072L294.78,93.06L295.52,93.707L296.27,96.879L297.01,92.064L297.76,95.276L298.51,97.88L299.25,97L300,97.945L300.75,95.65L301.49,89.527L302.24,95.22L302.98,97.594L303.73,96.696L304.48,96.425L305.22,97.213L305.97,95.612L306.72,95.639L307.46,95.91L308.21,93.91L308.95,190.27L309.7,244.88L310.45,220.36L311.19,212.73L311.94,204.35L312.69,191.85L313.43,190.58L314.18,186.86L314.93,171.51L315.67,183.31L316.42,160.66L317.16,169.12L317.91,172.65L318.66,140.74L319.4,153.72L320.15,151.07L320.9,136.88L321.64,150.14L322.39,156.31L323.13,149.97L323.88,142.08L324.63,112.7L325.37,129.99L326.12,133.86L326.87,132.13L327.61,129.83L328.36,101.59L329.1,120.99L329.85,124.25L330.6,115.27L331.34,121.05L332.09,55.679L332.84,125.94L333.58,99.999L334.33,125.61L335.07,125.54L335.82,117.9L336.57,118.77L337.31,123.26L338.06,112.82L338.81,111.16L339.55,93.294L340.3,120.63L341.05,120.05L341.79,120.2L342.54,119.5L343.28,106.88L344.03,107.95L344.78,113.26L345.52,114.55L346.27,114.88L347.02,86.842L347.76,110.58L348.51,113.73L349.25,112.54L350,111.02L350.75,106.71L351.49,106.05L352.24,109.96L352.99,112.34L353.73,108.8L354.48,102.13L355.22,105.94L355.97,109.73L356.72,66.799L357.46,103.05L358.21,98.999L358.96,105.02L359.7,108.33L360.45,108.11L361.19,108.96L361.94,107.89L362.69,104.31L363.43,104.76L364.18,102.02L364.93,93.176L365.67,100.33L366.42,101.83L367.17,102.62L367.91,100.22L368.66,46.958L369.4,96.994L370.15,97.256L370.9,93.401L371.64,93.743L372.39,77.327L373.14,93.185L373.88,95.086L374.63,95.305L375.37,95.767L376.12,94.561L376.87,94.749L377.61,88.453L378.36,93.453L379.11,95.431L379.85,95.431L380.6,95.23L381.34,87.029L382.09,88.68L382.84,88.673L383.58,88.653L384.33,63.245L385.08,97.589L385.82,99.568L386.57,102.64L387.31,88.657L388.06,100.08L388.81,101.84L389.55,101.55L390.3,98.438L391.05,94.181L391.79,83.651L392.54,92.52L393.29,99.198L394.03,100.64L394.78,97.577L395.52,98.266L396.27,99.244L397.02,100.52L397.76,98.276L398.51,95.838L399.26,95.947L400,98.239L400.75,100.26L401.31,98.632" style="fill:none;stroke:#F15A60" />
<path d="M405.2,277.58L425.2,277.58" style="fill:none;stroke:#F15A60" />
<text x="194.93" y="-271.91" transform="scale(1, -1)"
	style="font-family:Times;font-weight:normal;font-style:normal;font-size:12px">batch-100kb-wb-512mb-cache-1gb-nosync</text>
</g>
</svg>
