<?xml version="1.0"?>
<!-- Generated by SVGo and Plotinum VG -->
<svg width="425.2pt" height="283.46pt" viewBox="0 0 425.2 283.46"
	xmlns="http://www.w3.org/2000/svg"
	xmlns:xlink="http://www.w3.org/1999/xlink">
<g transform="scale(1, -1) translate(0, -283.46)">
<path d="M0,0L425.2,0L425.2,283.46L0,283.46Z" style="fill:#FFFFFF" />
<text x="207.23" y="-3.8613" transform="scale(1, -1)"
	style="font-family:Times;font-weight:normal;font-style:normal;font-size:12px">database size</text>
<text x="60.682" y="-15.602" transform="scale(1, -1)"
	style="font-family:Times;font-weight:normal;font-style:normal;font-size:10px">8.00 mb</text>
<text x="137.38" y="-15.602" transform="scale(1, -1)"
	style="font-family:Times;font-weight:normal;font-style:normal;font-size:10px">264.00 mb</text>
<text x="219.08" y="-15.602" transform="scale(1, -1)"
	style="font-family:Times;font-weight:normal;font-style:normal;font-size:10px">520.00 mb</text>
<text x="300.77" y="-15.602" transform="scale(1, -1)"
	style="font-family:Times;font-weight:normal;font-style:normal;font-size:10px">776.00 mb</text>
<text x="377.42" y="-15.602" transform="scale(1, -1)"
	style="font-family:Times;font-weight:normal;font-style:normal;font-size:10px">1024.00 mb</text>
<path d="M77.072,25.23L77.072,33.23" style="fill:none;stroke:#000000;stroke-width:0.5" />
<path d="M158.77,25.23L158.77,33.23" style="fill:none;stroke:#000000;stroke-width:0.5" />
<path d="M240.47,25.23L240.47,33.23" style="fill:none;stroke:#000000;stroke-width:0.5" />
<path d="M322.16,25.23L322.16,33.23" style="fill:none;stroke:#000000;stroke-width:0.5" />
<path d="M401.31,25.23L401.31,33.23" style="fill:none;stroke:#000000;stroke-width:0.5" />
<path d="M76.114,33.23L401.31,33.23" style="fill:none;stroke:#000000;stroke-width:0.5" />
<g transform="rotate(90)">
<text x="144.86" y="11.555" transform="scale(1, -1)"
	style="font-family:Times;font-weight:normal;font-style:normal;font-size:12px">speed</text>
</g>
<text x="20.416" y="-36.847" transform="scale(1, -1)"
	style="font-family:Times;font-weight:normal;font-style:normal;font-size:10px">2.00 mb/s</text>
<text x="15.416" y="-98.057" transform="scale(1, -1)"
	style="font-family:Times;font-weight:normal;font-style:normal;font-size:10px">18.00 mb/s</text>
<text x="15.416" y="-159.27" transform="scale(1, -1)"
	style="font-family:Times;font-weight:normal;font-style:normal;font-size:10px">34.00 mb/s</text>
<text x="15.416" y="-220.48" transform="scale(1, -1)"
	style="font-family:Times;font-weight:normal;font-style:normal;font-size:10px">50.00 mb/s</text>
<text x="15.416" y="-273.84" transform="scale(1, -1)"
	style="font-family:Times;font-weight:normal;font-style:normal;font-size:10px">63.95 mb/s</text>
<path d="M62.364,41.568L70.364,41.568" style="fill:none;stroke:#000000;stroke-width:0.5" />
<path d="M62.364,102.78L70.364,102.78" style="fill:none;stroke:#000000;stroke-width:0.5" />
<path d="M62.364,163.99L70.364,163.99" style="fill:none;stroke:#000000;stroke-width:0.5" />
<path d="M62.364,225.2L70.364,225.2" style="fill:none;stroke:#000000;stroke-width:0.5" />
<path d="M62.364,278.56L70.364,278.56" style="fill:none;stroke:#000000;stroke-width:0.5" />
<path d="M70.364,38.48L70.364,278.56" style="fill:none;stroke:#000000;stroke-width:0.5" />
<path d="M76.114,187.71L77.71,259.45L79.306,264.83L80.901,250.07L82.497,263.74L84.093,257.29L85.688,255.79L87.284,268.87L88.88,263.26L90.475,263.47L92.071,264.06L93.666,244L95.262,237.35L96.858,242.99L98.453,248.56L100.05,262.35L101.64,238.14L103.24,249.64L104.84,255.26L106.43,263.49L108.03,243.63L109.62,67.63L111.22,247.78L112.81,256.3L114.41,254.65L116.01,257.62L117.6,257.52L119.2,259.64L120.79,59.491L122.39,258.13L123.98,256.03L125.58,256.98L127.18,240.9L128.77,259.61L130.37,50.245L131.96,253.22L133.56,229.98L135.15,232.48L136.75,256.63L138.34,234.82L139.94,257L141.54,51.65L143.13,256.87L144.73,251.26L146.32,257.66L147.92,249.01L149.51,244.86L151.11,47.452L152.71,250.87L154.3,269.52L155.9,247.34L157.49,242.19L159.09,246.8L160.68,256.62L162.28,46.645L163.88,247.35L165.47,257.31L167.07,261.45L168.66,258.17L170.26,259.37L171.85,253.44L173.45,47.098L175.04,237.8L176.64,260.33L178.24,260.44L179.83,261.52L181.43,231.57L183.02,244.03L184.62,48.155L186.21,210.55L187.81,222.68L189.41,232.25L191,247.64L192.6,239.47L194.19,248.94L195.79,49.84L197.38,261.24L198.98,244.93L200.58,256.52L202.17,240.12L203.77,256.62L205.36,263.3L206.96,47.808L208.55,260.46L210.15,254.27L211.75,262.51L213.34,243.67L214.94,248.36L216.53,258.56L218.13,44.361L219.72,214.03L221.32,263.43L222.91,254.61L224.51,253.87L226.11,250.31L227.7,234.75L229.3,250.05L230.89,228.87L232.49,42.45L234.08,248.74L235.68,263.72L237.28,261.66L238.87,261.14L240.47,264.61L242.06,246.67L243.66,251.42L245.25,257.1L246.85,256.51L248.45,40.633L250.04,260.29L251.64,262.19L253.23,261.02L254.83,230.96L256.42,261.47L258.02,257.45L259.61,255.32L261.21,253.02L262.81,250.89L264.4,253.06L266,257.39L267.59,39.366L269.19,238.97L270.78,232.26L272.38,262.74L273.98,240.79L275.57,239.92L277.17,258.15L278.76,263.72L280.36,260.68L281.95,258.68L283.55,254.67L285.15,258.96L286.74,256.77L288.34,38.661L289.93,250.91L291.53,262.09L293.12,259.41L294.72,260.25L296.31,258.62L297.91,260.23L299.51,258.32L301.1,252.94L302.7,257.14L304.29,256.05L305.89,251.93L307.48,256.9L309.08,38.578L310.68,251.35L312.27,236.46L313.87,260.4L315.46,259.79L317.06,265.01L318.65,260.33L320.25,259.05L321.85,261.3L323.44,249.48L325.04,257L326.63,246.4L328.23,258.06L329.82,38.693L331.42,250.07L333.01,253.44L334.61,257.11L336.21,240.58L337.8,240.11L339.4,254.14L340.99,216.66L342.59,244.31L344.18,248.41L345.78,249.55L347.38,246.45L348.97,257.5L350.57,38.526L352.16,250.97L353.76,263.07L355.35,258.54L356.95,267.38L358.55,260.79L360.14,239.26L361.74,246.09L363.33,253.85L364.93,240.6L366.52,262.67L368.12,237.61L369.71,239.79L371.31,38.683L372.91,246.12L374.5,241.86L376.1,241.94L377.69,258.69L379.29,263.38L380.88,256.54L382.48,263.66L384.08,260.33L385.67,245.11L387.27,253.42L388.86,255.21L390.46,258.26L392.05,38.48L393.65,254.85L395.25,263.13L396.84,260.28L398.44,244.1L400.03,256.5L401.31,278.56" style="fill:none;stroke:#F15A60" />
<path d="M405.2,277.58L425.2,277.58" style="fill:none;stroke:#F15A60" />
<text x="325.55" y="-271.91" transform="scale(1, -1)"
	style="font-family:Times;font-weight:normal;font-style:normal;font-size:12px">batch-5mb-notx</text>
</g>
</svg>
