<?xml version="1.0"?>
<!-- Generated by SVGo and Plotinum VG -->
<svg width="425.2pt" height="283.46pt" viewBox="0 0 425.2 283.46"
	xmlns="http://www.w3.org/2000/svg"
	xmlns:xlink="http://www.w3.org/1999/xlink">
<g transform="scale(1, -1) translate(0, -283.46)">
<path d="M0,0L425.2,0L425.2,283.46L0,283.46Z" style="fill:#FFFFFF" />
<text x="207.23" y="-3.8613" transform="scale(1, -1)"
	style="font-family:Times;font-weight:normal;font-style:normal;font-size:12px">database size</text>
<text x="60.252" y="-15.602" transform="scale(1, -1)"
	style="font-family:Times;font-weight:normal;font-style:normal;font-size:10px">4.00 mb</text>
<text x="136.77" y="-15.602" transform="scale(1, -1)"
	style="font-family:Times;font-weight:normal;font-style:normal;font-size:10px">260.00 mb</text>
<text x="218.28" y="-15.602" transform="scale(1, -1)"
	style="font-family:Times;font-weight:normal;font-style:normal;font-size:10px">516.00 mb</text>
<text x="299.79" y="-15.602" transform="scale(1, -1)"
	style="font-family:Times;font-weight:normal;font-style:normal;font-size:10px">772.00 mb</text>
<text x="377.42" y="-15.602" transform="scale(1, -1)"
	style="font-family:Times;font-weight:normal;font-style:normal;font-size:10px">1023.63 mb</text>
<path d="M76.642,25.23L76.642,33.23" style="fill:none;stroke:#000000;stroke-width:0.5" />
<path d="M158.16,25.23L158.16,33.23" style="fill:none;stroke:#000000;stroke-width:0.5" />
<path d="M239.67,25.23L239.67,33.23" style="fill:none;stroke:#000000;stroke-width:0.5" />
<path d="M321.18,25.23L321.18,33.23" style="fill:none;stroke:#000000;stroke-width:0.5" />
<path d="M401.31,25.23L401.31,33.23" style="fill:none;stroke:#000000;stroke-width:0.5" />
<path d="M76.114,33.23L401.31,33.23" style="fill:none;stroke:#000000;stroke-width:0.5" />
<g transform="rotate(90)">
<text x="144.86" y="11.555" transform="scale(1, -1)"
	style="font-family:Times;font-weight:normal;font-style:normal;font-size:12px">speed</text>
</g>
<text x="15.416" y="-63.064" transform="scale(1, -1)"
	style="font-family:Times;font-weight:normal;font-style:normal;font-size:10px">16.00 mb/s</text>
<text x="15.416" y="-128.32" transform="scale(1, -1)"
	style="font-family:Times;font-weight:normal;font-style:normal;font-size:10px">32.00 mb/s</text>
<text x="15.416" y="-193.57" transform="scale(1, -1)"
	style="font-family:Times;font-weight:normal;font-style:normal;font-size:10px">48.00 mb/s</text>
<text x="15.416" y="-258.83" transform="scale(1, -1)"
	style="font-family:Times;font-weight:normal;font-style:normal;font-size:10px">64.00 mb/s</text>
<text x="15.416" y="-273.84" transform="scale(1, -1)"
	style="font-family:Times;font-weight:normal;font-style:normal;font-size:10px">67.68 mb/s</text>
<path d="M62.364,67.785L70.364,67.785" style="fill:none;stroke:#000000;stroke-width:0.5" />
<path d="M62.364,133.04L70.364,133.04" style="fill:none;stroke:#000000;stroke-width:0.5" />
<path d="M62.364,198.3L70.364,198.3" style="fill:none;stroke:#000000;stroke-width:0.5" />
<path d="M62.364,263.55L70.364,263.55" style="fill:none;stroke:#000000;stroke-width:0.5" />
<path d="M62.364,278.56L70.364,278.56" style="fill:none;stroke:#000000;stroke-width:0.5" />
<path d="M70.364,38.48L70.364,278.56" style="fill:none;stroke:#000000;stroke-width:0.5" />
<path d="M76.114,278.56L76.861,220.61L77.607,195.58L78.353,191.66L79.099,181.63L79.846,166.27L80.592,159.54L81.338,182.26L82.085,149.21L82.831,175.99L83.577,141.46L84.323,168.54L85.07,169.95L85.816,129.58L86.562,159.58L87.309,159.62L88.055,116.96L88.801,148.3L89.547,157.46L90.294,153.73L91.04,149.77L91.786,103.79L92.533,148.22L93.279,145.13L94.025,147.68L94.771,144.73L95.518,92.26L96.264,152.9L97.01,149.46L97.757,149.73L98.503,146.59L99.249,144.24L99.995,146.83L100.74,112.62L101.49,133.49L102.23,136.3L102.98,134.19L103.73,133.25L104.47,136.7L105.22,132.39L105.97,132.77L106.71,109.28L107.46,123.37L108.2,127.29L108.95,126.82L109.7,129.71L110.44,131.62L111.19,125.83L111.94,123.84L112.68,127.48L113.43,124.68L114.17,67.838L114.92,126.6L115.67,127.95L116.41,131.9L117.16,120.42L117.91,122.21L118.65,124.96L119.4,122.62L120.15,124L120.89,125.07L121.64,121.9L122.38,120.57L123.13,121.53L123.88,60.328L124.62,121.91L125.37,124.07L126.12,123.09L126.86,123.69L127.61,122.45L128.35,121.44L129.1,122.21L129.85,120.27L130.59,122.53L131.34,123.99L132.09,121.46L132.83,120.11L133.58,121.31L134.32,118.68L135.07,119.29L135.82,55.342L136.56,116.61L137.31,119.77L138.06,115.51L138.8,117.05L139.55,120.9L140.29,117.64L141.04,119.12L141.79,119.61L142.53,116.45L143.28,114.51L144.03,117.21L144.77,116.39L145.52,118.29L146.26,112.79L147.01,114.15L147.76,115.58L148.5,113.47L149.25,113.41L150,116.49L150.74,114.08L151.49,48.124L152.24,113.71L152.98,111.37L153.73,111.9L154.47,116.82L155.22,110.59L155.97,111.64L156.71,112.87L157.46,111.9L158.21,114.28L158.95,112.69L159.7,109.13L160.44,114.83L161.19,113.48L161.94,112.05L162.68,113.85L163.43,111.32L164.18,114.9L164.92,111.65L165.67,108.59L166.41,112.92L167.16,108.99L167.91,106.22L168.65,110.81L169.4,111.16L170.15,38.48L170.89,111.19L171.64,109.35L172.38,109.31L173.13,113.94L173.88,107.61L174.62,110.95L175.37,106.88L176.12,108.51L176.86,110.82L177.61,109.6L178.36,76.331L179.1,111.78L179.85,109.92L180.59,108.15L181.34,109.47L182.09,109.19L182.83,111.42L183.58,103.67L184.33,109.27L185.07,107.3L185.82,104.97L186.56,108.38L187.31,110.86L188.06,112.47L188.8,109.18L189.55,107.55L190.3,108.09L191.04,105.66L191.79,108.81L192.53,234.63L193.28,224.77L194.03,213.86L194.77,205.5L195.52,184.4L196.27,172.38L197.01,165.26L197.76,179.19L198.5,162.64L199.25,169.66L200,152.43L200.74,146.41L201.49,149.77L202.24,138.76L202.98,153.93L203.73,149.77L204.48,133.08L205.22,143.28L205.97,146.59L206.71,146.74L207.46,145.24L208.21,121.75L208.95,135.54L209.7,133.39L210.45,130.85L211.19,105.35L211.94,115.57L212.68,138.51L213.43,133.52L214.18,132.56L214.92,127.61L215.67,130.7L216.42,125.94L217.16,107.82L217.91,122.23L218.65,124.35L219.4,126.22L220.15,122.89L220.89,124.3L221.64,123.08L222.39,121.49L223.13,96.727L223.88,66.956L224.62,120.97L225.37,126.36L226.12,124.85L226.86,121.97L227.61,126.15L228.36,124.02L229.1,124.64L229.85,125.25L230.6,94.571L231.34,112.08L232.09,116.31L232.83,111.5L233.58,120.77L234.33,121.84L235.07,116.77L235.82,121.79L236.57,118.85L237.31,116.82L238.06,119.29L238.8,119.15L239.55,118.43L240.3,57.61L241.04,110.13L241.79,113.02L242.54,113.96L243.28,113.22L244.03,104.55L244.77,109.43L245.52,110.28L246.27,110.08L247.01,107.71L247.76,108.55L248.51,109.77L249.25,108.64L250,110.26L250.74,111.76L251.49,108.57L252.24,48.38L252.98,106.94L253.73,109.08L254.48,111.27L255.22,107.42L255.97,106.69L256.72,108.49L257.46,107.5L258.21,109.53L258.95,109.59L259.7,105.65L260.45,107.48L261.19,104.06L261.94,107.59L262.69,107.49L263.43,108.61L264.18,107.52L264.92,104.86L265.67,106.28L266.42,111.19L267.16,107.22L267.91,78.854L268.66,109.75L269.4,107.3L270.15,108.11L270.89,107.54L271.64,107.92L272.39,106.12L273.13,105L273.88,98.272L274.63,98.846L275.37,106.63L276.12,107.28L276.86,105.59L277.61,106.96L278.36,106.81L279.1,102.73L279.85,103.21L280.6,104.61L281.34,104.1L282.09,106.12L282.84,105.21L283.58,105.66L284.33,103.76L285.07,104.26L285.82,106.03L286.57,72.157L287.31,100.89L288.06,100.22L288.81,87.319L289.55,102.68L290.3,103.01L291.04,100.69L291.79,98.261L292.54,100.25L293.28,100.88L294.03,102.09L294.78,101.95L295.52,103.19L296.27,102.51L297.01,101.8L297.76,102.84L298.51,100.7L299.25,100.48L300,103.87L300.75,103.09L301.49,100.55L302.24,99.129L302.98,97.053L303.73,89.394L304.48,102.27L305.22,98.672L305.97,98.372L306.72,101.29L307.46,100.97L308.21,101.13L308.95,50.364L309.7,238.9L310.45,218.17L311.19,211.9L311.94,199.33L312.69,191.11L313.43,163.95L314.18,185.25L314.93,170.55L315.67,180.6L316.42,167.44L317.16,175.57L317.91,177.58L318.66,154.62L319.4,168.46L320.15,167.79L320.9,149.2L321.64,155.63L322.39,160.23L323.13,157.57L323.88,156.16L324.63,134.75L325.37,153.62L326.12,150.35L326.87,148.47L327.61,145.89L328.36,125.5L329.1,141.09L329.85,145.34L330.6,142.79L331.34,139.43L332.09,139.39L332.84,139.23L333.58,110.91L334.33,132.7L335.07,136.44L335.82,135.57L336.57,135.04L337.31,136.17L338.06,133.26L338.81,133.18L339.55,109.47L340.3,132.55L341.05,130.8L341.79,131.94L342.54,127.75L343.28,130.59L344.03,128.91L344.78,69.158L345.52,126.47L346.27,127.55L347.02,102.83L347.76,126.21L348.51,127.09L349.25,126.29L350,125.98L350.75,126.43L351.49,127.19L352.24,127.42L352.99,126.92L353.73,125.99L354.48,124.23L355.22,123.05L355.97,123.57L356.72,96.679L357.46,125.55L358.21,126.39L358.96,126.2L359.7,124.07L360.45,123.63L361.19,123.49L361.94,122.58L362.69,123.68L363.43,124.23L364.18,122.83L364.93,117.67L365.67,120.09L366.42,119.75L367.17,120.13L367.91,121.18L368.66,50.093L369.4,116.29L370.15,116.47L370.9,120.6L371.64,120.5L372.39,121.1L373.14,120.26L373.88,114.72L374.63,112.53L375.37,111.82L376.12,111.33L376.87,111.33L377.61,98.587L378.36,110.8L379.11,111.23L379.85,112.37L380.6,103.21L381.34,108.42L382.09,108.48L382.84,114.05L383.58,113.4L384.33,46.011L385.08,104.51L385.82,104.64L386.57,107.09L387.31,107.84L388.06,107.4L388.81,105.47L389.55,105.36L390.3,106.81L391.05,105.19L391.79,106.81L392.54,106.42L393.29,105.54L394.03,103.37L394.78,103.1L395.52,103.95L396.27,105.24L397.02,104.33L397.76,103.76L398.51,102.63L399.26,102.17L400,102.54L400.75,99.164L401.31,102.02" style="fill:none;stroke:#F15A60" />
<path d="M405.2,277.58L425.2,277.58" style="fill:none;stroke:#F15A60" />
<text x="232.93" y="-271.91" transform="scale(1, -1)"
	style="font-family:Times;font-weight:normal;font-style:normal;font-size:12px">batch-100kb-wb-512mb-cache-1gb</text>
</g>
</svg>
