<?xml version="1.0"?>
<!-- Generated by SVGo and Plotinum VG -->
<svg width="425.2pt" height="283.46pt" viewBox="0 0 425.2 283.46"
	xmlns="http://www.w3.org/2000/svg"
	xmlns:xlink="http://www.w3.org/1999/xlink">
<g transform="scale(1, -1) translate(0, -283.46)">
<path d="M0,0L425.2,0L425.2,283.46L0,283.46Z" style="fill:#FFFFFF" />
<text x="204.73" y="-3.8613" transform="scale(1, -1)"
	style="font-family:Times;font-weight:normal;font-style:normal;font-size:12px">database size</text>
<text x="55.229" y="-15.602" transform="scale(1, -1)"
	style="font-family:Times;font-weight:normal;font-style:normal;font-size:10px">4.00 mb</text>
<text x="133" y="-15.602" transform="scale(1, -1)"
	style="font-family:Times;font-weight:normal;font-style:normal;font-size:10px">260.00 mb</text>
<text x="215.78" y="-15.602" transform="scale(1, -1)"
	style="font-family:Times;font-weight:normal;font-style:normal;font-size:10px">516.00 mb</text>
<text x="298.55" y="-15.602" transform="scale(1, -1)"
	style="font-family:Times;font-weight:normal;font-style:normal;font-size:10px">772.00 mb</text>
<text x="377.42" y="-15.602" transform="scale(1, -1)"
	style="font-family:Times;font-weight:normal;font-style:normal;font-size:10px">1023.64 mb</text>
<path d="M71.618,25.23L71.618,33.23" style="fill:none;stroke:#000000;stroke-width:0.5" />
<path d="M154.39,25.23L154.39,33.23" style="fill:none;stroke:#000000;stroke-width:0.5" />
<path d="M237.17,25.23L237.17,33.23" style="fill:none;stroke:#000000;stroke-width:0.5" />
<path d="M319.94,25.23L319.94,33.23" style="fill:none;stroke:#000000;stroke-width:0.5" />
<path d="M401.31,25.23L401.31,33.23" style="fill:none;stroke:#000000;stroke-width:0.5" />
<path d="M71.114,33.23L401.31,33.23" style="fill:none;stroke:#000000;stroke-width:0.5" />
<g transform="rotate(90)">
<text x="144.86" y="11.555" transform="scale(1, -1)"
	style="font-family:Times;font-weight:normal;font-style:normal;font-size:12px">speed</text>
</g>
<text x="15.416" y="-84.493" transform="scale(1, -1)"
	style="font-family:Times;font-weight:normal;font-style:normal;font-size:10px">0.50 mb/s</text>
<text x="15.416" y="-187.53" transform="scale(1, -1)"
	style="font-family:Times;font-weight:normal;font-style:normal;font-size:10px">0.62 mb/s</text>
<text x="15.416" y="-273.84" transform="scale(1, -1)"
	style="font-family:Times;font-weight:normal;font-style:normal;font-size:10px">0.73 mb/s</text>
<path d="M57.364,89.215L65.364,89.215" style="fill:none;stroke:#000000;stroke-width:0.5" />
<path d="M57.364,192.25L65.364,192.25" style="fill:none;stroke:#000000;stroke-width:0.5" />
<path d="M57.364,278.56L65.364,278.56" style="fill:none;stroke:#000000;stroke-width:0.5" />
<path d="M65.364,38.48L65.364,278.56" style="fill:none;stroke:#000000;stroke-width:0.5" />
<path d="M71.114,38.48L71.904,224.5L72.693,243.5L73.483,228.95L74.272,200.97L75.062,200.24L75.852,198.69L76.641,165L77.431,178.15L78.22,198.07L79.01,173.92L79.799,196.17L80.589,199.21L81.379,167.03L82.168,151.38L82.958,161.02L83.747,182.22L84.537,186.38L85.326,167.27L86.116,167.42L86.905,212.8L87.695,191.77L88.485,187.36L89.274,212.47L90.064,201.04L90.853,214.64L91.643,197.37L92.432,192.04L93.222,205.07L94.011,202.21L94.801,172.27L95.591,210.28L96.38,193.66L97.17,173.16L97.959,188.45L98.749,211.05L99.538,202.86L100.33,180.78L101.12,166.55L101.91,196.11L102.7,194.79L103.49,186.71L104.28,193.13L105.07,172.37L105.85,185.63L106.64,167.95L107.43,173.37L108.22,227.37L109.01,225.55L109.8,216.93L110.59,208.92L111.38,237.41L112.17,230.15L112.96,193.23L113.75,196.48L114.54,203.75L115.33,200.01L116.12,209.9L116.91,204.73L117.7,213.2L118.49,208.97L119.28,190.4L120.07,196.95L120.86,196.96L121.65,192.87L122.44,183.6L123.23,178.63L124.01,176.9L124.8,170.24L125.59,166.03L126.38,196.52L127.17,88.629L127.96,178.4L128.75,178.99L129.54,147.32L130.33,156.9L131.12,143.38L131.91,179.22L132.7,176.87L133.49,184.51L134.28,193.99L135.07,170.52L135.86,143.6L136.65,123.58L137.44,141.32L138.23,162.77L139.02,178.83L139.81,183.61L140.6,192.61L141.38,177.22L142.17,110.56L142.96,163.87L143.75,172.96L144.54,162.06L145.33,170.17L146.12,166.57L146.91,169.33L147.7,165.21L148.49,160.86L149.28,165.57L150.07,184.45L150.86,187.35L151.65,182.25L152.44,173.61L153.23,162.8L154.02,186.34L154.81,189.94L155.6,186.93L156.39,203.43L157.18,195.14L157.97,198.19L158.76,206.18L159.54,174.69L160.33,135.93L161.12,163.31L161.91,194.23L162.7,179.32L163.49,174.41L164.28,172.64L165.07,182.03L165.86,171.35L166.65,175.18L167.44,170.04L168.23,199.93L169.02,205.45L169.81,206.6L170.6,230.79L171.39,140.8L172.18,148.47L172.97,195.69L173.76,189L174.55,175.33L175.34,163.59L176.13,177.9L176.92,119.12L177.7,158.42L178.49,161.2L179.28,187.72L180.07,177.58L180.86,173.62L181.65,183.44L182.44,181.62L183.23,142.21L184.02,149.64L184.81,144.84L185.6,187.52L186.39,178.25L187.18,195.38L187.97,213.18L188.76,165.77L189.55,157.4L190.34,158.23L191.13,141.71L191.92,199.31L192.71,163.13L193.5,168.16L194.29,137.91L195.07,136.51L195.86,161.51L196.65,164.01L197.44,147.97L198.23,169L199.02,165.68L199.81,152.92L200.6,146.25L201.39,171.77L202.18,170.82L202.97,155.73L203.76,174.55L204.55,172.59L205.34,144.55L206.13,152.94L206.92,165.36L207.71,171.03L208.5,170.04L209.29,161.46L210.08,171.38L210.87,169.68L211.66,164.35L212.45,208.47L213.23,192.92L214.02,207.94L214.81,167.05L215.6,174.54L216.39,169.91L217.18,176.64L217.97,140.3L218.76,165.73L219.55,179.02L220.34,172.03L221.13,175.94L221.92,159.81L222.71,165.7L223.5,129L224.29,185.82L225.08,154.13L225.87,187.33L226.66,219.55L227.45,192.93L228.24,206.8L229.03,179.65L229.82,161.43L230.61,179.79L231.39,229.84L232.18,278.56L232.97,256.85L233.76,254.06L234.55,254.08L235.34,150.82L236.13,226.76L236.92,247.29L237.71,236.38L238.5,219.3L239.29,208.66L240.08,222.49L240.87,217.83L241.66,209.65L242.45,173.47L243.24,225.33L244.03,243.33L244.82,238.94L245.61,225.12L246.4,211.34L247.19,178.5L247.98,162.61L248.76,139.83L249.55,190.26L250.34,181.39L251.13,195.74L251.92,193.9L252.71,176.03L253.5,145.23L254.29,115.57L255.08,164.56L255.87,194.03L256.66,206.13L257.45,172.28L258.24,189.88L259.03,196.9L259.82,162.67L260.61,163.49L261.4,202.96L262.19,180.54L262.98,192.61L263.77,171.22L264.56,172.25L265.35,168.18L266.14,157.91L266.92,182.7L267.71,181.82L268.5,174.81L269.29,159.51L270.08,173.54L270.87,174.27L271.66,165.96L272.45,187.41L273.24,198.28L274.03,180.07L274.82,176.04L275.61,187.21L276.4,193.87L277.19,155.42L277.98,122.08L278.77,164.83L279.56,187.73L280.35,152.42L281.14,166.81L281.93,177.39L282.72,176.7L283.51,135.04L284.3,174.55L285.08,162.59L285.87,166.03L286.66,178.75L287.45,216.42L288.24,217.3L289.03,185.11L289.82,165.71L290.61,215.08L291.4,200.83L292.19,195.66L292.98,197.55L293.77,183.03L294.56,149.85L295.35,135.05L296.14,218.52L296.93,195.66L297.72,197.34L298.51,186.92L299.3,174.3L300.09,209.18L300.88,183.93L301.67,174.36L302.45,192.3L303.24,210.33L304.03,219.59L304.82,208.45L305.61,204.21L306.4,191.56L307.19,171.23L307.98,185.89L308.77,190.18L309.56,198.08L310.35,190.92L311.14,174.63L311.93,178.1L312.72,169.92L313.51,157.36L314.3,167.22L315.09,189.28L315.88,184.59L316.67,175.18L317.46,178.14L318.25,187.72L319.04,162.96L319.83,162.07L320.61,184.8L321.4,173.33L322.19,174.84L322.98,160.99L323.77,167.86L324.56,173.89L325.35,163.27L326.14,197.78L326.93,167.75L327.72,194.75L328.51,180.4L329.3,168.37L330.09,171.72L330.88,152.14L331.67,190.3L332.46,189.27L333.25,188.32L334.04,177.61L334.83,163.24L335.62,188.48L336.41,184.25L337.2,155.4L337.99,186.74L338.77,177.69L339.56,171.9L340.35,170.54L341.14,165.96L341.93,160.05L342.72,148.88L343.51,202.16L344.3,184.92L345.09,163.09L345.88,196.96L346.67,182.62L347.46,188.87L348.25,188.53L349.04,164.31L349.83,208.54L350.62,198.7L351.41,180.44L352.2,197.4L352.99,191.8L353.78,175.68L354.57,95.071L355.36,198.57L356.14,164.29L356.93,141.66L357.72,176.38L358.51,155.6L359.3,168.01L360.09,146.72L360.88,155.48L361.67,177.47L362.46,170.2L363.25,171.71L364.04,188.53L364.83,188.17L365.62,168.85L366.41,175.78L367.2,182.66L367.99,171.22L368.78,180.34L369.57,179.48L370.36,194.94L371.15,206L371.94,176.66L372.73,180.57L373.52,185.64L374.3,175.39L375.09,169.07L375.88,178.46L376.67,175.01L377.46,158.33L378.25,183.78L379.04,171.25L379.83,165.88L380.62,161.96L381.41,178.66L382.2,146.57L382.99,138.45L383.78,145.01L384.57,162.88L385.36,174.64L386.15,179.33L386.94,172.62L387.73,176.79L388.52,171.7L389.31,128.53L390.1,179.98L390.89,184.53L391.68,186.98L392.46,202.61L393.25,191.64L394.04,174.81L394.83,159.79L395.62,165.2L396.41,178.54L397.2,180.83L397.99,182.12L398.78,197.63L399.57,179.26L400.36,170.09L401.15,152.19L401.31,201.71" style="fill:none;stroke:#F15A60" />
<path d="M405.2,277.58L425.2,277.58" style="fill:none;stroke:#F15A60" />
<text x="350.89" y="-271.91" transform="scale(1, -1)"
	style="font-family:Times;font-weight:normal;font-style:normal;font-size:12px">concurrent</text>
</g>
</svg>
