<?xml version="1.0"?>
<!-- Generated by SVGo and Plotinum VG -->
<svg width="425.2pt" height="283.46pt" viewBox="0 0 425.2 283.46"
	xmlns="http://www.w3.org/2000/svg"
	xmlns:xlink="http://www.w3.org/1999/xlink">
<g transform="scale(1, -1) translate(0, -283.46)">
<path d="M0,0L425.2,0L425.2,283.46L0,283.46Z" style="fill:#FFFFFF" />
<text x="207.23" y="-3.8613" transform="scale(1, -1)"
	style="font-family:Times;font-weight:normal;font-style:normal;font-size:12px">database size</text>
<text x="60.221" y="-15.602" transform="scale(1, -1)"
	style="font-family:Times;font-weight:normal;font-style:normal;font-size:10px">4.00 mb</text>
<text x="136.74" y="-15.602" transform="scale(1, -1)"
	style="font-family:Times;font-weight:normal;font-style:normal;font-size:10px">260.00 mb</text>
<text x="218.26" y="-15.602" transform="scale(1, -1)"
	style="font-family:Times;font-weight:normal;font-style:normal;font-size:10px">516.00 mb</text>
<text x="299.79" y="-15.602" transform="scale(1, -1)"
	style="font-family:Times;font-weight:normal;font-style:normal;font-size:10px">772.00 mb</text>
<text x="377.42" y="-15.602" transform="scale(1, -1)"
	style="font-family:Times;font-weight:normal;font-style:normal;font-size:10px">1023.64 mb</text>
<path d="M76.61,25.23L76.61,33.23" style="fill:none;stroke:#000000;stroke-width:0.5" />
<path d="M158.13,25.23L158.13,33.23" style="fill:none;stroke:#000000;stroke-width:0.5" />
<path d="M239.65,25.23L239.65,33.23" style="fill:none;stroke:#000000;stroke-width:0.5" />
<path d="M321.18,25.23L321.18,33.23" style="fill:none;stroke:#000000;stroke-width:0.5" />
<path d="M401.31,25.23L401.31,33.23" style="fill:none;stroke:#000000;stroke-width:0.5" />
<path d="M76.114,33.23L401.31,33.23" style="fill:none;stroke:#000000;stroke-width:0.5" />
<g transform="rotate(90)">
<text x="144.86" y="11.555" transform="scale(1, -1)"
	style="font-family:Times;font-weight:normal;font-style:normal;font-size:12px">speed</text>
</g>
<text x="20.416" y="-42.111" transform="scale(1, -1)"
	style="font-family:Times;font-weight:normal;font-style:normal;font-size:10px">2.00 mb/s</text>
<text x="15.416" y="-129.66" transform="scale(1, -1)"
	style="font-family:Times;font-weight:normal;font-style:normal;font-size:10px">10.00 mb/s</text>
<text x="15.416" y="-217.2" transform="scale(1, -1)"
	style="font-family:Times;font-weight:normal;font-style:normal;font-size:10px">18.00 mb/s</text>
<text x="15.416" y="-273.84" transform="scale(1, -1)"
	style="font-family:Times;font-weight:normal;font-style:normal;font-size:10px">23.18 mb/s</text>
<path d="M62.364,46.833L70.364,46.833" style="fill:none;stroke:#000000;stroke-width:0.5" />
<path d="M62.364,134.38L70.364,134.38" style="fill:none;stroke:#000000;stroke-width:0.5" />
<path d="M62.364,221.93L70.364,221.93" style="fill:none;stroke:#000000;stroke-width:0.5" />
<path d="M62.364,278.56L70.364,278.56" style="fill:none;stroke:#000000;stroke-width:0.5" />
<path d="M70.364,38.48L70.364,278.56" style="fill:none;stroke:#000000;stroke-width:0.5" />
<path d="M76.114,267.45L76.892,264.17L77.669,267.53L78.447,270.56L79.225,270.22L80.002,243.64L80.78,271.71L81.557,278.56L82.335,273.87L83.113,262.14L83.89,253.13L84.668,244.65L85.445,258.14L86.223,269.83L87.001,258.7L87.778,250.97L88.556,253.92L89.334,242.06L90.111,275.4L90.889,255.22L91.666,244.79L92.444,250.74L93.222,250.52L93.999,232.36L94.777,250.71L95.554,252.92L96.332,252.32L97.11,244.55L97.887,139.28L98.665,248.07L99.442,252.13L100.22,250.07L101,252.64L101.78,101.21L102.55,248.8L103.33,252.57L104.11,250.46L104.89,85.39L105.66,251.04L106.44,250.09L107.22,250.81L108,252.69L108.77,82.921L109.55,251.71L110.33,251.48L111.11,250.87L111.88,248.08L112.66,77.316L113.44,245.49L114.22,260.3L114.99,254.48L115.77,69.221L116.55,238.4L117.33,246.36L118.1,244.46L118.88,250.94L119.66,248.02L120.44,86.963L121.22,231.45L121.99,251.71L122.77,245.61L123.55,246.65L124.33,74.55L125.1,255.42L125.88,248.05L126.66,249.59L127.44,95.676L128.21,126.36L128.99,244.88L129.77,242.04L130.55,250.05L131.32,80.828L132.1,240.61L132.88,254.46L133.66,241.67L134.43,251.84L135.21,61.542L135.99,257.78L136.77,217.33L137.54,250.61L138.32,245.59L139.1,251.35L139.88,65.325L140.66,227.95L141.43,249.47L142.21,251.65L142.99,248.19L143.77,247.76L144.54,79.881L145.32,249.67L146.1,254.04L146.88,254.8L147.65,63.827L148.43,242.54L149.21,224.17L149.99,243.28L150.76,252.99L151.54,245.94L152.32,65.985L153.1,242.56L153.87,241.57L154.65,249.94L155.43,250.65L156.21,251.45L156.98,59.77L157.76,239.39L158.54,240.5L159.32,252.42L160.1,251.41L160.87,245.25L161.65,59.368L162.43,244.71L163.21,246.68L163.98,242.35L164.76,250.18L165.54,257.73L166.32,52.662L167.09,246.95L167.87,238.19L168.65,260.75L169.43,241.79L170.2,248.18L170.98,257.3L171.76,51.239L172.54,241.49L173.31,232.29L174.09,244.91L174.87,240.35L175.65,243.39L176.43,245.21L177.2,49.466L177.98,250.45L178.76,239.16L179.54,248.73L180.31,232.55L181.09,247.49L181.87,249.15L182.65,47.223L183.42,245.64L184.2,242.07L184.98,239.84L185.76,233.64L186.53,258.54L187.31,249.3L188.09,45.233L188.87,249.44L189.64,237.51L190.42,239.32L191.2,237.47L191.98,227.86L192.75,234.05L193.53,240.79L194.31,48.03L195.09,239.72L195.87,242.72L196.64,235.8L197.42,233.46L198.2,240.9L198.98,248.74L199.75,49.149L200.53,237.48L201.31,244.31L202.09,238.18L202.86,235.91L203.64,244.08L204.42,246.37L205.2,48.905L205.97,241.88L206.75,237.19L207.53,235.72L208.31,231.88L209.08,233.06L209.86,246.62L210.64,47.822L211.42,237.3L212.19,235.84L212.97,236.7L213.75,230.73L214.53,248.4L215.31,248.03L216.08,47.876L216.86,239.92L217.64,238.79L218.42,243.49L219.19,233.88L219.97,236.9L220.75,249.07L221.53,47.603L222.3,245.94L223.08,242.25L223.86,237.16L224.64,235.01L225.41,237.86L226.19,240.94L226.97,46.194L227.75,242.43L228.52,241.1L229.3,235.27L230.08,235.42L230.86,234.58L231.63,246.09L232.41,243.6L233.19,45.447L233.97,238.36L234.75,245.27L235.52,235.22L236.3,234.61L237.08,238.23L237.86,240.96L238.63,243.15L239.41,74.015L240.19,60.752L240.97,233.24L241.74,237.22L242.52,241.68L243.3,248.63L244.08,244.99L244.85,71.011L245.63,62.619L246.41,230.84L247.19,245.64L247.96,242.26L248.74,252.08L249.52,243.51L250.3,70.301L251.07,56.183L251.85,234L252.63,247.09L253.41,241.91L254.19,245.55L254.96,241.3L255.74,241.65L256.52,249.52L257.3,45.235L258.07,233.28L258.85,238.36L259.63,243.39L260.41,247.16L261.18,240.1L261.96,235.48L262.74,234.01L263.52,44.297L264.29,241.17L265.07,244.45L265.85,243.03L266.63,236.74L267.4,242.47L268.18,236.64L268.96,250.1L269.74,44.624L270.51,244.51L271.29,237.62L272.07,237.8L272.85,245.67L273.63,239.69L274.4,243.91L275.18,249.4L275.96,44.8L276.74,239.3L277.51,224.87L278.29,240.33L279.07,235.33L279.85,245.5L280.62,242.29L281.4,244.44L282.18,65.724L282.96,58.663L283.73,243.06L284.51,233.23L285.29,245.55L286.07,237.93L286.84,238.76L287.62,241.05L288.4,253.85L289.18,44.144L289.95,236.88L290.73,246.53L291.51,244.63L292.29,235.9L293.07,235.09L293.84,243.62L294.62,248.02L295.4,43.744L296.18,243.08L296.95,236.07L297.73,241.18L298.51,248.06L299.29,237.87L300.06,242.54L300.84,240.42L301.62,41.887L302.4,238.67L303.17,239.17L303.95,240.5L304.73,242.46L305.51,235.79L306.28,241.14L307.06,251.6L307.84,249.84L308.62,72.885L309.4,49.852L310.17,235.59L310.95,236.51L311.73,243.18L312.51,246.97L313.28,235.59L314.06,245.36L314.84,214.06L315.62,41.574L316.39,241.27L317.17,241.17L317.95,245.89L318.73,244.8L319.5,239.69L320.28,238.32L321.06,230.78L321.84,240.61L322.61,41.161L323.39,241.37L324.17,240.81L324.95,247.96L325.72,245.03L326.5,229.11L327.28,239.3L328.06,241.7L328.84,241.35L329.61,51.235L330.39,61.828L331.17,248.07L331.95,240.46L332.72,236.68L333.5,243.89L334.28,242.29L335.06,241.89L335.83,241.68L336.61,244.82L337.39,41.101L338.17,255.2L338.94,239.53L339.72,237.71L340.5,243.65L341.28,233.38L342.05,248.41L342.83,234.57L343.61,244.21L344.39,40.647L345.16,243.33L345.94,243.58L346.72,235.08L347.5,240.69L348.28,233.62L349.05,250.07L349.83,239.56L350.61,241.55L351.39,65.882L352.16,47.469L352.94,243.6L353.72,232.19L354.5,245.32L355.27,242.84L356.05,241.93L356.83,245.55L357.61,237.64L358.38,243.23L359.16,39.666L359.94,238.76L360.72,233.54L361.49,240.58L362.27,225.86L363.05,244.83L363.83,234.83L364.6,235.15L365.38,240.28L366.16,40.123L366.94,249.08L367.72,232.72L368.49,239.23L369.27,232.96L370.05,230.77L370.83,243.66L371.6,239.79L372.38,247.75L373.16,102.82L373.94,41.952L374.71,241.77L375.49,235.68L376.27,242.44L377.05,239.71L377.82,249.7L378.6,241.65L379.38,243.05L380.16,233.81L380.93,39.412L381.71,242.77L382.49,238.24L383.27,238.58L384.04,238.64L384.82,241.79L385.6,239.34L386.38,239.39L387.16,241.11L387.93,44.472L388.71,66.211L389.49,238.1L390.27,238.28L391.04,241.53L391.82,241.77L392.6,243L393.38,238.33L394.15,239.33L394.93,241.55L395.71,38.48L396.49,240.42L397.26,237.41L398.04,246.95L398.82,237.91L399.6,246.45L400.37,238.22L401.15,238.5L401.31,227.75" style="fill:none;stroke:#F15A60" />
<path d="M405.2,277.58L425.2,277.58" style="fill:none;stroke:#F15A60" />
<text x="350.89" y="-271.91" transform="scale(1, -1)"
	style="font-family:Times;font-weight:normal;font-style:normal;font-size:12px">concurrent</text>
</g>
</svg>
