<?xml version="1.0"?>
<!-- Generated by SVGo and Plotinum VG -->
<svg width="425.2pt" height="283.46pt" viewBox="0 0 425.2 283.46"
	xmlns="http://www.w3.org/2000/svg"
	xmlns:xlink="http://www.w3.org/1999/xlink">
<g transform="scale(1, -1) translate(0, -283.46)">
<path d="M0,0L425.2,0L425.2,283.46L0,283.46Z" style="fill:#FFFFFF" />
<text x="207.23" y="-3.8613" transform="scale(1, -1)"
	style="font-family:Times;font-weight:normal;font-style:normal;font-size:12px">database size</text>
<text x="60.221" y="-15.602" transform="scale(1, -1)"
	style="font-family:Times;font-weight:normal;font-style:normal;font-size:10px">4.00 mb</text>
<text x="136.74" y="-15.602" transform="scale(1, -1)"
	style="font-family:Times;font-weight:normal;font-style:normal;font-size:10px">260.00 mb</text>
<text x="218.26" y="-15.602" transform="scale(1, -1)"
	style="font-family:Times;font-weight:normal;font-style:normal;font-size:10px">516.00 mb</text>
<text x="299.79" y="-15.602" transform="scale(1, -1)"
	style="font-family:Times;font-weight:normal;font-style:normal;font-size:10px">772.00 mb</text>
<text x="377.42" y="-15.602" transform="scale(1, -1)"
	style="font-family:Times;font-weight:normal;font-style:normal;font-size:10px">1023.64 mb</text>
<path d="M76.61,25.23L76.61,33.23" style="fill:none;stroke:#000000;stroke-width:0.5" />
<path d="M158.13,25.23L158.13,33.23" style="fill:none;stroke:#000000;stroke-width:0.5" />
<path d="M239.65,25.23L239.65,33.23" style="fill:none;stroke:#000000;stroke-width:0.5" />
<path d="M321.18,25.23L321.18,33.23" style="fill:none;stroke:#000000;stroke-width:0.5" />
<path d="M401.31,25.23L401.31,33.23" style="fill:none;stroke:#000000;stroke-width:0.5" />
<path d="M76.114,33.23L401.31,33.23" style="fill:none;stroke:#000000;stroke-width:0.5" />
<g transform="rotate(90)">
<text x="144.86" y="11.555" transform="scale(1, -1)"
	style="font-family:Times;font-weight:normal;font-style:normal;font-size:12px">speed</text>
</g>
<text x="20.416" y="-42.282" transform="scale(1, -1)"
	style="font-family:Times;font-weight:normal;font-style:normal;font-size:10px">2.00 mb/s</text>
<text x="15.416" y="-116.89" transform="scale(1, -1)"
	style="font-family:Times;font-weight:normal;font-style:normal;font-size:10px">10.00 mb/s</text>
<text x="15.416" y="-191.5" transform="scale(1, -1)"
	style="font-family:Times;font-weight:normal;font-style:normal;font-size:10px">18.00 mb/s</text>
<text x="15.416" y="-266.11" transform="scale(1, -1)"
	style="font-family:Times;font-weight:normal;font-style:normal;font-size:10px">26.00 mb/s</text>
<text x="15.416" y="-273.84" transform="scale(1, -1)"
	style="font-family:Times;font-weight:normal;font-style:normal;font-size:10px">26.83 mb/s</text>
<path d="M62.364,47.004L70.364,47.004" style="fill:none;stroke:#000000;stroke-width:0.5" />
<path d="M62.364,121.61L70.364,121.61" style="fill:none;stroke:#000000;stroke-width:0.5" />
<path d="M62.364,196.22L70.364,196.22" style="fill:none;stroke:#000000;stroke-width:0.5" />
<path d="M62.364,270.83L70.364,270.83" style="fill:none;stroke:#000000;stroke-width:0.5" />
<path d="M62.364,278.56L70.364,278.56" style="fill:none;stroke:#000000;stroke-width:0.5" />
<path d="M70.364,38.48L70.364,278.56" style="fill:none;stroke:#000000;stroke-width:0.5" />
<path d="M76.114,278.56L76.892,234.87L77.669,242.15L78.447,163.6L79.225,162.94L80.002,156.18L80.78,100.01L81.557,125.87L82.335,102.1L83.113,99.176L83.89,87.351L84.668,73.173L85.445,87.935L86.223,101.31L87.001,69.859L87.778,80.066L88.556,103.25L89.334,63.989L90.111,60.971L90.889,173.89L91.666,63.075L92.444,247.28L93.222,244.96L93.999,195.58L94.777,185.11L95.554,120.61L96.332,139.49L97.11,137.04L97.887,78.972L98.665,88.394L99.442,181.91L100.22,80.121L101,77.963L101.78,91.036L102.55,111.91L103.33,69.191L104.11,78.088L104.89,84.422L105.66,64.743L106.44,55.166L107.22,69.583L108,58.589L108.77,61.313L109.55,55.417L110.33,62.953L111.11,58.075L111.88,56.807L112.66,50.527L113.44,55.791L114.22,47.22L114.99,60.263L115.77,53.282L116.55,79.521L117.33,49.592L118.1,58.639L118.88,58.701L119.66,47.489L120.44,48.796L121.22,51.837L121.99,49.358L122.77,51.935L123.55,54.597L124.33,57.872L125.1,46.006L125.88,56.303L126.66,56.53L127.44,41.207L128.21,158.66L128.99,55.383L129.77,57.922L130.55,45.221L131.32,51.427L132.1,47.324L132.88,138.85L133.66,45.256L134.43,56.244L135.21,50.244L135.99,46.712L136.77,56.964L137.54,59.778L138.32,55.493L139.1,47.044L139.88,50.534L140.66,42.463L141.43,51.451L142.21,54.741L142.99,54.446L143.77,43.47L144.54,55.848L145.32,55.634L146.1,48.043L146.88,45.873L147.65,55.172L148.43,55.137L149.21,45.352L149.99,53.482L150.76,55.654L151.54,42.784L152.32,56.447L153.1,50.058L153.87,48.024L154.65,54.066L155.43,53.516L156.21,54.321L156.98,52.668L157.76,52.562L158.54,43.264L159.32,55.073L160.1,53.463L160.87,55.008L161.65,43.112L162.43,54.742L163.21,54.751L163.98,39.842L164.76,77.762L165.54,40.969L166.32,52.945L167.09,52.304L167.87,53.17L168.65,53.595L169.43,40.002L170.2,54.638L170.98,49.9L171.76,52.197L172.54,52.75L173.31,52.225L174.09,53.165L174.87,51.663L175.65,52.485L176.43,41.56L177.2,133.77L177.98,42.806L178.76,52.091L179.54,52.772L180.31,53.36L181.09,54.455L181.87,39.944L182.65,44.139L183.42,52.344L184.2,52.035L184.98,52.471L185.76,52.875L186.53,41.717L187.31,151.95L188.09,38.48L188.87,71.953L189.64,45.938L190.42,52.362L191.2,52.992L191.98,53.8L192.75,42.398L193.53,52.351L194.31,48.463L195.09,43.724L195.87,44.854L196.64,51.518L197.42,52.21L198.2,50.598L198.98,50.771L199.75,51.02L200.53,49.928L201.31,52.741L202.09,50.97L202.86,52.185L203.64,50.538L204.42,51.405L205.2,51.859L205.97,52.246L206.75,52.2L207.53,52.929L208.31,54.313L209.08,48.526L209.86,49.477L210.64,42.799L211.42,51.984L212.19,53.243L212.97,52.306L213.75,53.043L214.53,51.815L215.31,40.91L216.08,151.2L216.86,41.137L217.64,52.637L218.42,51.839L219.19,50.824L219.97,51.82L220.75,49.017L221.53,50.585L222.3,50.623L223.08,50.899L223.86,50.872L224.64,51.456L225.41,51.497L226.19,51.329L226.97,51.114L227.75,52.452L228.52,51.983L229.3,50.861L230.08,41.018L230.86,50.657L231.63,51.181L232.41,50.954L233.19,50.463L233.97,235.69L234.75,256.67L235.52,213.04L236.3,193.31L237.08,173.5L237.86,124.53L238.63,137.21L239.41,86.375L240.19,100.68L240.97,86.851L241.74,202.22L242.52,81.936L243.3,77.728L244.08,180.02L244.85,73.947L245.63,69.474L246.41,78.659L247.19,108.18L247.96,63.907L248.74,65.821L249.52,149.35L250.3,64.126L251.07,62.956L251.85,126.65L252.63,46.509L253.41,141.65L254.19,48.644L254.96,56.167L255.74,65.284L256.52,59.735L257.3,42.071L258.07,151.97L258.85,44.2L259.63,98.661L260.41,53.78L261.18,50.808L261.96,69.418L262.74,59.083L263.52,51.567L264.29,50.849L265.07,52.54L265.85,39.603L266.63,109.24L267.4,54.072L268.18,43.423L268.96,55.963L269.74,47.5L270.51,57.101L271.29,50.583L272.07,54.396L272.85,44.317L273.63,58.096L274.4,48.788L275.18,51.065L275.96,47.785L276.74,49.771L277.51,48.195L278.29,52.793L279.07,53.853L279.85,42.813L280.62,46.097L281.4,144.98L282.18,41.347L282.96,49.058L283.73,53.955L284.51,49.229L285.29,46.477L286.07,72.839L286.84,42.319L287.62,45.134L288.4,45.54L289.18,52.305L289.95,44.326L290.73,52.449L291.51,41.033L292.29,49.672L293.07,51.73L293.84,41.179L294.62,42L295.4,49.603L296.18,50.884L296.95,50.603L297.73,39.688L298.51,50.874L299.29,49.709L300.06,44.037L300.84,41.623L301.62,46.2L302.4,41.342L303.17,46.219L303.95,48.53L304.73,48.386L305.51,47.78L306.28,49.177L307.06,48.704L307.84,48.099L308.62,48.936L309.4,46.986L310.17,48.848L310.95,48.08L311.73,47.956L312.51,47.604L313.28,47.935L314.06,48.36L314.84,47.854L315.62,48.489L316.39,47.927L317.17,47.827L317.95,155.94L318.73,47.598L319.5,47.213L320.28,47.887L321.06,47.263L321.84,48.536L322.61,46.874L323.39,48.102L324.17,48.289L324.95,47.82L325.72,47.97L326.5,47.595L327.28,48.24L328.06,47.653L328.84,48.12L329.61,48.286L330.39,47.754L331.17,48.126L331.95,48.317L332.72,47.652L333.5,48.338L334.28,47.637L335.06,48.596L335.83,47.45L336.61,47.011L337.39,156.51L338.17,47.564L338.94,47.171L339.72,47.302L340.5,46.725L341.28,46.386L342.05,46.185L342.83,47.227L343.61,48.117L344.39,47.302L345.16,150.32L345.94,47.431L346.72,47.726L347.5,48.001L348.28,47.675L349.05,47.984L349.83,47.245L350.61,48.001L351.39,46.167L352.16,47.496L352.94,47.249L353.72,46.753L354.5,47.205L355.27,46.452L356.05,47.147L356.83,47.245L357.61,47.092L358.38,150.53L359.16,46.669L359.94,45.988L360.72,47.967L361.49,46.146L362.27,47.468L363.05,47.406L363.83,47.764L364.6,47.97L365.38,46.938L366.16,47.492L366.94,47.571L367.72,47.278L368.49,47.082L369.27,46.869L370.05,47.814L370.83,47.191L371.6,47.601L372.38,47.672L373.16,46.753L373.94,158.03L374.71,46.577L375.49,47.534L376.27,47.405L377.05,46.851L377.82,47.109L378.6,46.687L379.38,47.621L380.16,46.983L380.93,46.504L381.71,47.044L382.49,46.669L383.27,46.458L384.04,46.806L384.82,47.186L385.6,47.138L386.38,46.49L387.16,46.802L387.93,46.999L388.71,46.474L389.49,141.28L390.27,46.261L391.04,46.641L391.82,46.305L392.6,46.756L393.38,46.928L394.15,46.373L394.93,46.977L395.71,46.287L396.49,47.207L397.26,46.59L398.04,46.465L398.82,46.779L399.6,45.111L400.37,46.22L401.15,46.477L401.31,130.85" style="fill:none;stroke:#F15A60" />
<path d="M405.2,277.58L425.2,277.58" style="fill:none;stroke:#F15A60" />
<text x="326.22" y="-271.91" transform="scale(1, -1)"
	style="font-family:Times;font-weight:normal;font-style:normal;font-size:12px">nobatch-nosync</text>
</g>
</svg>
