<?xml version="1.0"?>
<!-- Generated by SVGo and Plotinum VG -->
<svg width="425.2pt" height="283.46pt" viewBox="0 0 425.2 283.46"
	xmlns="http://www.w3.org/2000/svg"
	xmlns:xlink="http://www.w3.org/1999/xlink">
<g transform="scale(1, -1) translate(0, -283.46)">
<path d="M0,0L425.2,0L425.2,283.46L0,283.46Z" style="fill:#FFFFFF" />
<text x="207.23" y="-3.8613" transform="scale(1, -1)"
	style="font-family:Times;font-weight:normal;font-style:normal;font-size:12px">database size</text>
<text x="60.221" y="-15.602" transform="scale(1, -1)"
	style="font-family:Times;font-weight:normal;font-style:normal;font-size:10px">4.00 mb</text>
<text x="136.74" y="-15.602" transform="scale(1, -1)"
	style="font-family:Times;font-weight:normal;font-style:normal;font-size:10px">260.00 mb</text>
<text x="218.26" y="-15.602" transform="scale(1, -1)"
	style="font-family:Times;font-weight:normal;font-style:normal;font-size:10px">516.00 mb</text>
<text x="299.79" y="-15.602" transform="scale(1, -1)"
	style="font-family:Times;font-weight:normal;font-style:normal;font-size:10px">772.00 mb</text>
<text x="377.42" y="-15.602" transform="scale(1, -1)"
	style="font-family:Times;font-weight:normal;font-style:normal;font-size:10px">1023.64 mb</text>
<path d="M76.61,25.23L76.61,33.23" style="fill:none;stroke:#000000;stroke-width:0.5" />
<path d="M158.13,25.23L158.13,33.23" style="fill:none;stroke:#000000;stroke-width:0.5" />
<path d="M239.65,25.23L239.65,33.23" style="fill:none;stroke:#000000;stroke-width:0.5" />
<path d="M321.18,25.23L321.18,33.23" style="fill:none;stroke:#000000;stroke-width:0.5" />
<path d="M401.31,25.23L401.31,33.23" style="fill:none;stroke:#000000;stroke-width:0.5" />
<path d="M76.114,33.23L401.31,33.23" style="fill:none;stroke:#000000;stroke-width:0.5" />
<g transform="rotate(90)">
<text x="144.86" y="11.555" transform="scale(1, -1)"
	style="font-family:Times;font-weight:normal;font-style:normal;font-size:12px">speed</text>
</g>
<text x="20.416" y="-43.063" transform="scale(1, -1)"
	style="font-family:Times;font-weight:normal;font-style:normal;font-size:10px">4.00 mb/s</text>
<text x="15.416" y="-123.17" transform="scale(1, -1)"
	style="font-family:Times;font-weight:normal;font-style:normal;font-size:10px">12.00 mb/s</text>
<text x="15.416" y="-203.28" transform="scale(1, -1)"
	style="font-family:Times;font-weight:normal;font-style:normal;font-size:10px">20.00 mb/s</text>
<text x="15.416" y="-273.84" transform="scale(1, -1)"
	style="font-family:Times;font-weight:normal;font-style:normal;font-size:10px">27.05 mb/s</text>
<path d="M62.364,47.784L70.364,47.784" style="fill:none;stroke:#000000;stroke-width:0.5" />
<path d="M62.364,127.89L70.364,127.89" style="fill:none;stroke:#000000;stroke-width:0.5" />
<path d="M62.364,208L70.364,208" style="fill:none;stroke:#000000;stroke-width:0.5" />
<path d="M62.364,278.56L70.364,278.56" style="fill:none;stroke:#000000;stroke-width:0.5" />
<path d="M70.364,38.48L70.364,278.56" style="fill:none;stroke:#000000;stroke-width:0.5" />
<path d="M76.114,270.9L76.892,247.14L77.669,246.55L78.447,273.28L79.225,270.25L80.002,263.91L80.78,271.7L81.557,278.56L82.335,277L83.113,270.28L83.89,266.71L84.668,259.43L85.445,275.41L86.223,272.1L87.001,229.89L87.778,267.61L88.556,250.57L89.334,274.01L90.111,271.03L90.889,265.29L91.666,259.32L92.444,241.56L93.222,273.91L93.999,268.93L94.777,265.47L95.554,235.18L96.332,241.81L97.11,237.92L97.887,268.65L98.665,264.25L99.442,266.11L100.22,260.61L101,228.1L101.78,263.57L102.55,240.84L103.33,264.96L104.11,264.71L104.89,150.35L105.66,239.04L106.44,257.78L107.22,239.04L108,264.69L108.77,133.65L109.55,264.14L110.33,262.59L111.11,263.79L111.88,261.58L112.66,124.31L113.44,264.47L114.22,266.73L114.99,266.05L115.77,112.77L116.55,234.87L117.33,259.38L118.1,259.49L118.88,266.62L119.66,111.7L120.44,250.6L121.22,261.25L121.99,262.21L122.77,120.47L123.55,213.26L124.33,256.65L125.1,238.97L125.88,236.21L126.66,139.34L127.44,253.54L128.21,259.98L128.99,251.87L129.77,242.43L130.55,106.53L131.32,239.49L132.1,265.41L132.88,261.69L133.66,259.93L134.43,108.28L135.21,263.48L135.99,260.08L136.77,266.32L137.54,118.43L138.32,241.76L139.1,241.6L139.88,256.5L140.66,241.09L141.43,123.43L142.21,242.1L142.99,258.54L143.77,251.89L144.54,261.02L145.32,131.87L146.1,265.98L146.88,262.31L147.65,264.98L148.43,100.3L149.21,246.54L149.99,256.9L150.76,230.77L151.54,243.57L152.32,79.151L153.1,232.14L153.87,240.79L154.65,237.01L155.43,262.61L156.21,262.51L156.98,77.031L157.76,252.65L158.54,227.68L159.32,257.06L160.1,260.49L160.87,257.02L161.65,76.306L162.43,252.82L163.21,258.07L163.98,261.39L164.76,260.68L165.54,94.134L166.32,136.07L167.09,234.67L167.87,236.61L168.65,239.8L169.43,262.86L170.2,74.169L170.98,245.02L171.76,224.67L172.54,258.57L173.31,233.97L174.09,241.26L174.87,72.536L175.65,212.86L176.43,246.38L177.2,232.86L177.98,264.27L178.76,240.65L179.54,68.727L180.31,253.22L181.09,249.64L181.87,235.58L182.65,237.4L183.42,255.78L184.2,69.711L184.98,246.93L185.76,252.41L186.53,228.37L187.31,258.46L188.09,256.03L188.87,71.724L189.64,247.13L190.42,250.98L191.2,260.38L191.98,238.91L192.75,256.01L193.53,67.554L194.31,220.83L195.09,251.86L195.87,262.34L196.64,262.84L197.42,65.17L198.2,247.42L198.98,249.6L199.75,256.22L200.53,263.36L201.31,243.45L202.09,68.096L202.86,224.24L203.64,218.01L204.42,260.17L205.2,235.49L205.97,259.84L206.75,67.265L207.53,240.17L208.31,238.37L209.08,253.03L209.86,263.5L210.64,259.96L211.42,64.907L212.19,245.85L212.97,248.09L213.75,252.17L214.53,232.72L215.31,264.96L216.08,59.543L216.86,242.66L217.64,236.19L218.42,199.1L219.19,245.35L219.97,241.23L220.75,55.198L221.53,251.13L222.3,242.42L223.08,252.75L223.86,248.61L224.64,258.61L225.41,58.95L226.19,209.79L226.97,222.22L227.75,230.03L228.52,262.44L229.3,56.719L230.08,228.13L230.86,243.99L231.63,228.75L232.41,258.82L233.19,239.01L233.97,55.665L234.75,238.52L235.52,224.09L236.3,228.45L237.08,242.2L237.86,262.6L238.63,56.962L239.41,228.87L240.19,248.55L240.97,210.8L241.74,234.25L242.52,261.48L243.3,49.851L244.08,217.08L244.85,245.76L245.63,226.73L246.41,227.22L247.19,266.09L247.96,242.67L248.74,58.718L249.52,247.79L250.3,247.29L251.07,231L251.85,250.82L252.63,240.11L253.41,50.393L254.19,249.08L254.96,255.08L255.74,236.21L256.52,241.91L257.3,232.37L258.07,260.55L258.85,58.549L259.63,228.86L260.41,224.21L261.18,230.98L261.96,254.42L262.74,236.45L263.52,49.439L264.29,254.54L265.07,207.46L265.85,220.71L266.63,230.76L267.4,263.21L268.18,257.06L268.96,58.891L269.74,222.34L270.51,224.22L271.29,233.73L272.07,253.57L272.85,257.35L273.63,48.009L274.4,250.07L275.18,251.07L275.96,226.27L276.74,241.27L277.51,230.89L278.29,229.37L279.07,49.685L279.85,251.01L280.62,227.97L281.4,235.59L282.18,247.98L282.96,236.07L283.73,255.76L284.51,49.887L285.29,250.13L286.07,229.8L286.84,230L287.62,248.81L288.4,233.32L289.18,235.91L289.95,48.62L290.73,229.22L291.51,248.94L292.29,229.64L293.07,216.31L293.84,243.93L294.62,221.98L295.4,49.549L296.18,240.01L296.95,231.81L297.73,248.89L298.51,230.63L299.29,253.09L300.06,250.61L300.84,50.007L301.62,243.29L302.4,225.41L303.17,245.59L303.95,249.29L304.73,258.49L305.51,256.47L306.28,48.829L307.06,254.12L307.84,251.21L308.62,249.68L309.4,253.36L310.17,231.13L310.95,255.51L311.73,49.559L312.51,228.61L313.28,251.21L314.06,228.84L314.84,236.23L315.62,249.79L316.39,256.13L317.17,49.221L317.95,253.5L318.73,225.74L319.5,235.57L320.28,222.5L321.06,231.43L321.84,249.04L322.61,47.463L323.39,218.91L324.17,228.12L324.95,256.03L325.72,249.85L326.5,248.15L327.28,240.16L328.06,46.977L328.84,247.61L329.61,226.61L330.39,219.9L331.17,244.85L331.95,233.09L332.72,260.17L333.5,46.823L334.28,249.1L335.06,227.96L335.83,228.69L336.61,245.29L337.39,255.79L338.17,261.4L338.94,47.198L339.72,251.15L340.5,251.4L341.28,248.51L342.05,224.3L342.83,230.58L343.61,264.89L344.39,45.572L345.16,227.85L345.94,223.67L346.72,249L347.5,227.34L348.28,237.18L349.05,262.8L349.83,44.362L350.61,247.26L351.39,251.83L352.16,237.65L352.94,250.87L353.72,251.15L354.5,255.11L355.27,43.366L356.05,246.72L356.83,244.94L357.61,238.66L358.38,257.84L359.16,237.02L359.94,253.65L360.72,40.026L361.49,247.18L362.27,251.1L363.05,251.86L363.83,218.81L364.6,242.04L365.38,255.44L366.16,44.436L366.94,234.06L367.72,240.95L368.49,226.41L369.27,246.56L370.05,223.64L370.83,260.44L371.6,38.48L372.38,244.42L373.16,245.9L373.94,247.23L374.71,242.29L375.49,231.66L376.27,225.18L377.05,256.68L377.82,41.926L378.6,241.07L379.38,249.01L380.16,245.94L380.93,247.99L381.71,248.26L382.49,254.73L383.27,42.056L384.04,213.42L384.82,199.47L385.6,246.33L386.38,237.84L387.16,233.23L387.93,254.48L388.71,41.294L389.49,226.45L390.27,231.59L391.04,233.21L391.82,253.96L392.6,232.63L393.38,231.65L394.15,41.149L394.93,239.65L395.71,242.97L396.49,216.73L397.26,237.66L398.04,219.86L398.82,215.33L399.6,40.593L400.37,234.49L401.15,248.7L401.31,269.54" style="fill:none;stroke:#F15A60" />
<path d="M405.2,277.58L425.2,277.58" style="fill:none;stroke:#F15A60" />
<text x="326.22" y="-271.91" transform="scale(1, -1)"
	style="font-family:Times;font-weight:normal;font-style:normal;font-size:12px">nobatch-nosync</text>
</g>
</svg>
