<?xml version="1.0"?>
<!-- Generated by SVGo and Plotinum VG -->
<svg width="425.2pt" height="283.46pt" viewBox="0 0 425.2 283.46"
	xmlns="http://www.w3.org/2000/svg"
	xmlns:xlink="http://www.w3.org/1999/xlink">
<g transform="scale(1, -1) translate(0, -283.46)">
<path d="M0,0L425.2,0L425.2,283.46L0,283.46Z" style="fill:#FFFFFF" />
<text x="207.23" y="-3.8613" transform="scale(1, -1)"
	style="font-family:Times;font-weight:normal;font-style:normal;font-size:12px">database size</text>
<text x="60.221" y="-15.602" transform="scale(1, -1)"
	style="font-family:Times;font-weight:normal;font-style:normal;font-size:10px">4.00 mb</text>
<text x="136.74" y="-15.602" transform="scale(1, -1)"
	style="font-family:Times;font-weight:normal;font-style:normal;font-size:10px">260.00 mb</text>
<text x="218.26" y="-15.602" transform="scale(1, -1)"
	style="font-family:Times;font-weight:normal;font-style:normal;font-size:10px">516.00 mb</text>
<text x="299.79" y="-15.602" transform="scale(1, -1)"
	style="font-family:Times;font-weight:normal;font-style:normal;font-size:10px">772.00 mb</text>
<text x="377.42" y="-15.602" transform="scale(1, -1)"
	style="font-family:Times;font-weight:normal;font-style:normal;font-size:10px">1023.64 mb</text>
<path d="M76.61,25.23L76.61,33.23" style="fill:none;stroke:#000000;stroke-width:0.5" />
<path d="M158.13,25.23L158.13,33.23" style="fill:none;stroke:#000000;stroke-width:0.5" />
<path d="M239.65,25.23L239.65,33.23" style="fill:none;stroke:#000000;stroke-width:0.5" />
<path d="M321.18,25.23L321.18,33.23" style="fill:none;stroke:#000000;stroke-width:0.5" />
<path d="M401.31,25.23L401.31,33.23" style="fill:none;stroke:#000000;stroke-width:0.5" />
<path d="M76.114,33.23L401.31,33.23" style="fill:none;stroke:#000000;stroke-width:0.5" />
<g transform="rotate(90)">
<text x="144.86" y="11.555" transform="scale(1, -1)"
	style="font-family:Times;font-weight:normal;font-style:normal;font-size:12px">speed</text>
</g>
<text x="20.416" y="-41.421" transform="scale(1, -1)"
	style="font-family:Times;font-weight:normal;font-style:normal;font-size:10px">4.00 mb/s</text>
<text x="15.416" y="-121.86" transform="scale(1, -1)"
	style="font-family:Times;font-weight:normal;font-style:normal;font-size:10px">12.00 mb/s</text>
<text x="15.416" y="-202.3" transform="scale(1, -1)"
	style="font-family:Times;font-weight:normal;font-style:normal;font-size:10px">20.00 mb/s</text>
<text x="15.787" y="-273.84" transform="scale(1, -1)"
	style="font-family:Times;font-weight:normal;font-style:normal;font-size:10px">27.11 mb/s</text>
<path d="M62.364,46.143L70.364,46.143" style="fill:none;stroke:#000000;stroke-width:0.5" />
<path d="M62.364,126.58L70.364,126.58" style="fill:none;stroke:#000000;stroke-width:0.5" />
<path d="M62.364,207.02L70.364,207.02" style="fill:none;stroke:#000000;stroke-width:0.5" />
<path d="M62.364,278.56L70.364,278.56" style="fill:none;stroke:#000000;stroke-width:0.5" />
<path d="M70.364,38.48L70.364,278.56" style="fill:none;stroke:#000000;stroke-width:0.5" />
<path d="M76.114,270.65L76.892,245.74L77.669,264.95L78.447,260L79.225,271.74L80.002,241.6L80.78,275.14L81.557,278.56L82.335,275.44L83.113,269.13L83.89,260.44L84.668,261.56L85.445,276.27L86.223,276.31L87.001,266.93L87.778,266.71L88.556,241.52L89.334,273.72L90.111,272.64L90.889,267.07L91.666,259.97L92.444,241.31L93.222,277.11L93.999,268.45L94.777,263.43L95.554,261.2L96.332,262.59L97.11,238.85L97.887,265.07L98.665,268.9L99.442,268.67L100.22,266.63L101,219.28L101.78,262.07L102.55,222.32L103.33,266.28L104.11,264.98L104.89,148.87L105.66,264.92L106.44,245.76L107.22,236.29L108,267.71L108.77,136.02L109.55,264.01L110.33,242.29L111.11,242.97L111.88,125.32L112.66,232.52L113.44,266.79L114.22,267.05L114.99,270.71L115.77,113.92L116.55,260.09L117.33,261.6L118.1,257.91L118.88,262.05L119.66,116.94L120.44,268.09L121.22,266.26L121.99,264.92L122.77,257.12L123.55,126.83L124.33,244.3L125.1,266.38L125.88,262.54L126.66,140.03L127.44,256.58L128.21,262.53L128.99,259.83L129.77,262.39L130.55,105.59L131.32,241.47L132.1,263.35L132.88,244.36L133.66,240.75L134.43,107.66L135.21,265.77L135.99,265.07L136.77,241.04L137.54,110.99L138.32,259.34L139.1,262.31L139.88,258.02L140.66,265.48L141.43,122.45L142.21,264.1L142.99,262.96L143.77,261.57L144.54,263.12L145.32,137.37L146.1,264.65L146.88,253.92L147.65,266.63L148.43,98.906L149.21,248.6L149.99,259.72L150.76,239.07L151.54,263.59L152.32,75.913L153.1,249.73L153.87,234.76L154.65,261.79L155.43,258.55L156.21,230.61L156.98,72.515L157.76,244.96L158.54,253.27L159.32,258.6L160.1,256.72L160.87,253.92L161.65,72.895L162.43,243.13L163.21,248.03L163.98,264.66L164.76,234.99L165.54,261.6L166.32,69.685L167.09,252.86L167.87,257.16L168.65,263.54L169.43,265.48L170.2,71.914L170.98,237.67L171.76,246.83L172.54,253.46L173.31,246.58L174.09,261.28L174.87,70.227L175.65,248.45L176.43,242.19L177.2,229.79L177.98,248.54L178.76,257.02L179.54,71.214L180.31,240.68L181.09,243.04L181.87,264.5L182.65,257.23L183.42,266.87L184.2,66.337L184.98,220.16L185.76,231.8L186.53,252.57L187.31,260.53L188.09,253.14L188.87,65.969L189.64,227.45L190.42,220.92L191.2,252.97L191.98,242.65L192.75,236.15L193.53,59.051L194.31,229.43L195.09,225.48L195.87,260.86L196.64,247.54L197.42,261.96L198.2,59.779L198.98,248.31L199.75,231.51L200.53,263.5L201.31,260.99L202.09,62.622L202.86,247.43L203.64,246.24L204.42,262.41L205.2,266.7L205.97,268.61L206.75,59.081L207.53,217.55L208.31,223.36L209.08,252.71L209.86,267.32L210.64,261.77L211.42,60.972L212.19,227.68L212.97,227.38L213.75,250.11L214.53,236.46L215.31,225.02L216.08,49.472L216.86,232.07L217.64,247.29L218.42,250.82L219.19,237.23L219.97,257.29L220.75,261.93L221.53,65.083L222.3,225.83L223.08,249.63L223.86,253.54L224.64,233.15L225.41,258.04L226.19,57.235L226.97,234.98L227.75,254.48L228.52,217.29L229.3,258.42L230.08,262.04L230.86,48.462L231.63,205.65L232.41,237.97L233.19,253.58L233.97,241.15L234.75,261L235.52,241.01L236.3,61.522L237.08,210.61L237.86,232.01L238.63,254.74L239.41,262.6L240.19,55.094L240.97,221.95L241.74,240.69L242.52,228.78L243.3,234.99L244.08,255.39L244.85,49.293L245.63,203.2L246.41,216.97L247.19,232.64L247.96,220.52L248.74,255.28L249.52,239.41L250.3,57.039L251.07,244.28L251.85,245.91L252.63,244.58L253.41,238.71L254.19,257.32L254.96,48.904L255.74,244.66L256.52,251.48L257.3,226.88L258.07,249.27L258.85,263.12L259.63,252.79L260.41,57.196L261.18,247.07L261.96,225.54L262.74,245.07L263.52,243.63L264.29,248.51L265.07,48.92L265.85,217.5L266.63,250.9L267.4,248.07L268.18,225.79L268.96,234.08L269.74,261.65L270.51,49.985L271.29,244.75L272.07,229.61L272.85,248.69L273.63,224.86L274.4,262.68L275.18,235.69L275.96,56.123L276.74,227.45L277.51,242.58L278.29,225.07L279.07,225.71L279.85,257.39L280.62,48.287L281.4,240.94L282.18,215.66L282.96,249.68L283.73,248.17L284.51,255.1L285.29,258.73L286.07,48.987L286.84,245.61L287.62,223.18L288.4,232.85L289.18,244.05L289.95,252.37L290.73,254.92L291.51,48.633L292.29,221.45L293.07,245.21L293.84,244.84L294.62,235.51L295.4,240.38L296.18,259.55L296.95,48.372L297.73,221.49L298.51,251.17L299.29,223.77L300.06,245.88L300.84,232.9L301.62,258.04L302.4,48.988L303.17,228.14L303.95,246.01L304.73,246.13L305.51,246.03L306.28,241.16L307.06,257.03L307.84,47.937L308.62,226.66L309.4,243.79L310.17,219.38L310.95,247.1L311.73,259.61L312.51,241.5L313.28,48.171L314.06,228.06L314.84,251.31L315.62,248.28L316.39,248.97L317.17,233.3L317.95,237.35L318.73,47.778L319.5,227.91L320.28,239.69L321.06,245.24L321.84,213.19L322.61,237.95L323.39,258.38L324.17,45.056L324.95,230.45L325.72,252.47L326.5,224.92L327.28,228.39L328.06,234.92L328.84,222.1L329.61,45.361L330.39,228.82L331.17,239.15L331.95,227.89L332.72,211.27L333.5,235.37L334.28,240.48L335.06,45.001L335.83,219.49L336.61,248.17L337.39,244.71L338.17,251.52L338.94,255.51L339.72,262.04L340.5,44.675L341.28,233.88L342.05,241.96L342.83,243.35L343.61,231.95L344.39,255.85L345.16,260.67L345.94,43.989L346.72,248.2L347.5,251.22L348.28,222.8L349.05,213.71L349.83,231.39L350.61,258.69L351.39,43.673L352.16,211.14L352.94,220.76L353.72,237.82L354.5,238.49L355.27,256.73L356.05,260.71L356.83,42.439L357.61,242.08L358.38,231.87L359.16,249.1L359.94,237.34L360.72,250.07L361.49,259.19L362.27,40.359L363.05,229.78L363.83,228.69L364.6,222.28L365.38,230.25L366.16,244.35L366.94,250.67L367.72,41.466L368.49,251.88L369.27,249.53L370.05,251.99L370.83,251.8L371.6,257.75L372.38,259.84L373.16,38.844L373.94,250.47L374.71,248.17L375.49,231.48L376.27,229.68L377.05,247.62L377.82,245.11L378.6,38.896L379.38,228.95L380.16,250.15L380.93,249.53L381.71,226.4L382.49,227.47L383.27,236.25L384.04,39.061L384.82,234.57L385.6,247.74L386.38,225.92L387.16,236.33L387.93,233.16L388.71,251.77L389.49,38.48L390.27,213.13L391.04,220.73L391.82,233.22L392.6,249.87L393.38,236.3L394.15,252.95L394.93,38.723L395.71,239.71L396.49,242.06L397.26,253.86L398.04,213.4L398.82,254.16L399.6,235.08L400.37,38.585L401.15,251.29L401.31,246.45" style="fill:none;stroke:#F15A60" />
<path d="M405.2,277.58L425.2,277.58" style="fill:none;stroke:#F15A60" />
<text x="326.22" y="-271.91" transform="scale(1, -1)"
	style="font-family:Times;font-weight:normal;font-style:normal;font-size:12px">nobatch-nosync</text>
</g>
</svg>
