<?xml version="1.0"?>
<!-- Generated by SVGo and Plotinum VG -->
<svg width="425.2pt" height="283.46pt" viewBox="0 0 425.2 283.46"
	xmlns="http://www.w3.org/2000/svg"
	xmlns:xlink="http://www.w3.org/1999/xlink">
<g transform="scale(1, -1) translate(0, -283.46)">
<path d="M0,0L425.2,0L425.2,283.46L0,283.46Z" style="fill:#FFFFFF" />
<text x="207.23" y="-3.8613" transform="scale(1, -1)"
	style="font-family:Times;font-weight:normal;font-style:normal;font-size:12px">database size</text>
<text x="60.252" y="-15.602" transform="scale(1, -1)"
	style="font-family:Times;font-weight:normal;font-style:normal;font-size:10px">4.00 mb</text>
<text x="136.77" y="-15.602" transform="scale(1, -1)"
	style="font-family:Times;font-weight:normal;font-style:normal;font-size:10px">260.00 mb</text>
<text x="218.28" y="-15.602" transform="scale(1, -1)"
	style="font-family:Times;font-weight:normal;font-style:normal;font-size:10px">516.00 mb</text>
<text x="299.79" y="-15.602" transform="scale(1, -1)"
	style="font-family:Times;font-weight:normal;font-style:normal;font-size:10px">772.00 mb</text>
<text x="377.42" y="-15.602" transform="scale(1, -1)"
	style="font-family:Times;font-weight:normal;font-style:normal;font-size:10px">1023.63 mb</text>
<path d="M76.642,25.23L76.642,33.23" style="fill:none;stroke:#000000;stroke-width:0.5" />
<path d="M158.16,25.23L158.16,33.23" style="fill:none;stroke:#000000;stroke-width:0.5" />
<path d="M239.67,25.23L239.67,33.23" style="fill:none;stroke:#000000;stroke-width:0.5" />
<path d="M321.18,25.23L321.18,33.23" style="fill:none;stroke:#000000;stroke-width:0.5" />
<path d="M401.31,25.23L401.31,33.23" style="fill:none;stroke:#000000;stroke-width:0.5" />
<path d="M76.114,33.23L401.31,33.23" style="fill:none;stroke:#000000;stroke-width:0.5" />
<g transform="rotate(90)">
<text x="144.86" y="11.555" transform="scale(1, -1)"
	style="font-family:Times;font-weight:normal;font-style:normal;font-size:12px">speed</text>
</g>
<text x="20.416" y="-34.637" transform="scale(1, -1)"
	style="font-family:Times;font-weight:normal;font-style:normal;font-size:10px">1.00 mb/s</text>
<text x="15.416" y="-126.58" transform="scale(1, -1)"
	style="font-family:Times;font-weight:normal;font-style:normal;font-size:10px">33.00 mb/s</text>
<text x="15.416" y="-218.52" transform="scale(1, -1)"
	style="font-family:Times;font-weight:normal;font-style:normal;font-size:10px">65.00 mb/s</text>
<text x="15.416" y="-273.84" transform="scale(1, -1)"
	style="font-family:Times;font-weight:normal;font-style:normal;font-size:10px">84.25 mb/s</text>
<path d="M62.364,39.358L70.364,39.358" style="fill:none;stroke:#000000;stroke-width:0.5" />
<path d="M62.364,131.3L70.364,131.3" style="fill:none;stroke:#000000;stroke-width:0.5" />
<path d="M62.364,223.24L70.364,223.24" style="fill:none;stroke:#000000;stroke-width:0.5" />
<path d="M62.364,278.56L70.364,278.56" style="fill:none;stroke:#000000;stroke-width:0.5" />
<path d="M70.364,38.48L70.364,278.56" style="fill:none;stroke:#000000;stroke-width:0.5" />
<path d="M76.114,256.3L76.861,243.66L77.607,250.33L78.353,250.72L79.099,247.28L79.846,258.47L80.592,264.95L81.338,261.28L82.085,261.49L82.831,245.6L83.577,175.56L84.323,175.54L85.07,262.51L85.816,199.8L86.562,218.07L87.309,165.64L88.055,147.85L88.801,152.66L89.547,152.87L90.294,142.8L91.04,204.52L91.786,203.08L92.533,147.72L93.279,150.06L94.025,151.85L94.771,144.58L95.518,62.428L96.264,235.8L97.01,237.36L97.757,245.22L98.503,149.82L99.249,151.33L99.995,140.25L100.74,141.23L101.49,142.39L102.23,56.507L102.98,147.68L103.73,150.33L104.47,151.94L105.22,148.46L105.97,146.02L106.71,48.103L107.46,261.72L108.2,254.29L108.95,163.73L109.7,149.98L110.44,148.56L111.19,153.95L111.94,148.65L112.68,46.626L113.43,161.78L114.17,148.36L114.92,149.98L115.67,153.03L116.41,142.99L117.16,43.573L117.91,216.31L118.65,231.7L119.4,278.56L120.15,161.5L120.89,153.8L121.64,149.87L122.38,144.47L123.13,149.43L123.88,42.253L124.62,233.39L125.37,264L126.12,191.92L126.86,150.03L127.61,150.63L128.35,154.87L129.1,152.87L129.85,41.408L130.59,243.74L131.34,246.71L132.09,252.51L132.83,261.6L133.58,251.34L134.32,184.36L135.07,148.83L135.82,139.84L136.56,148.62L137.31,152.2L138.06,40.909L138.8,245.94L139.55,237L140.29,245.74L141.04,257.01L141.79,263.06L142.53,156.9L143.28,154.17L144.03,141.03L144.77,138.43L145.52,147.06L146.26,40.858L147.01,242.66L147.76,244.94L148.5,247.8L149.25,229.98L150,277.94L150.74,153.14L151.49,148.95L152.24,150.55L152.98,141.09L153.73,143.86L154.47,40.577L155.22,232.99L155.97,212.21L156.71,193.72L157.46,197.25L158.21,231.34L158.95,140.49L159.7,149.3L160.44,152.38L161.19,152.03L161.94,149.63L162.68,40.376L163.43,252.15L164.18,261.53L164.92,264.88L165.67,261.6L166.41,198.22L167.16,154.13L167.91,154.16L168.65,155.25L169.4,150.69L170.15,40.374L170.89,203.06L171.64,223.09L172.38,268.91L173.13,256.03L173.88,259L174.62,192.26L175.37,155.6L176.12,153.23L176.86,151.8L177.61,154.02L178.36,40.564L179.1,230.77L179.85,244.53L180.59,253.91L181.34,254.13L182.09,227.53L182.83,164.33L183.58,144.05L184.33,155.38L185.07,152.1L185.82,151.79L186.56,40.845L187.31,225.26L188.06,247.73L188.8,258.01L189.55,254.75L190.3,253.73L191.04,170.47L191.79,149.46L192.53,150.56L193.28,151.91L194.03,151.81L194.77,40.462L195.52,254.5L196.27,252.3L197.01,263.33L197.76,277.11L198.5,223.04L199.25,173.38L200,146.54L200.74,148.87L201.49,140.85L202.24,150.47L202.98,40.148L203.73,238.75L204.48,195.81L205.22,198.35L205.97,272.11L206.71,265.49L207.46,269.66L208.21,173.29L208.95,142.73L209.7,132.29L210.45,149.34L211.19,148.16L211.94,39.984L212.68,227.31L213.43,240.15L214.18,241.07L214.92,209.35L215.67,233.55L216.42,237.51L217.16,148.37L217.91,132.15L218.65,147.34L219.4,142.62L220.15,145.86L220.89,40.446L221.64,230.51L222.39,218.93L223.13,227.89L223.88,257.81L224.62,263.92L225.37,174.75L226.12,148.59L226.86,135.19L227.61,131.06L228.36,119.22L229.1,91.586L229.85,39.785L230.6,239.25L231.34,200.93L232.09,251.5L232.83,257.96L233.58,253.33L234.33,169.11L235.07,133.66L235.82,142.08L236.57,154.15L237.31,145.88L238.06,39.975L238.8,247.71L239.55,186.87L240.3,202.1L241.04,258.3L241.79,208.84L242.54,200.56L243.28,167.89L244.03,135.52L244.77,147.94L245.52,153.16L246.27,152.21L247.01,39.458L247.76,209.52L248.51,184.83L249.25,238.04L250,262.29L250.74,266.41L251.49,252.71L252.24,256.82L252.98,209.33L253.73,141.25L254.48,143.16L255.22,150.48L255.97,136.97L256.72,39.137L257.46,232.68L258.21,251.02L258.95,268.68L259.7,254.71L260.45,236.5L261.19,206.63L261.94,254.51L262.69,258.89L263.43,259.25L264.18,174.66L264.92,153.36L265.67,133.59L266.42,148.57L267.16,151.69L267.91,38.752L268.66,260.95L269.4,264.2L270.15,250.19L270.89,166.38L271.64,264.53L272.39,262.71L273.13,264.88L273.88,245.04L274.63,244.54L275.37,155.23L276.12,151.11L276.86,148.43L277.61,137.19L278.36,38.733L279.1,248.78L279.85,262.07L280.6,267.74L281.34,265.13L282.09,251.9L282.84,220.74L283.58,205.27L284.33,247.44L285.07,254.81L285.82,168.66L286.57,145.25L287.31,144.38L288.06,136.62L288.81,135.58L289.55,38.691L290.3,237.87L291.04,193.56L291.79,194.42L292.54,257.37L293.28,257.63L294.03,266.02L294.78,258.31L295.52,251.74L296.27,200.43L297.01,152.03L297.76,144.57L298.51,150.27L299.25,150.81L300,38.722L300.75,248.85L301.49,207.18L302.24,246.76L302.98,260.5L303.73,216.86L304.48,218.28L305.22,245.32L305.97,257.4L306.72,272.86L307.46,180.85L308.21,149.22L308.95,145.88L309.7,142.77L310.45,150.27L311.19,38.698L311.94,236.15L312.69,255.55L313.43,245.79L314.18,260.31L314.93,261.31L315.67,263.35L316.42,251.93L317.16,198.05L317.91,211.61L318.66,131.81L319.4,130L320.15,131.47L320.9,129.89L321.64,38.665L322.39,226.52L323.13,256.05L323.88,260.39L324.63,257.23L325.37,256.09L326.12,242.42L326.87,246.16L327.61,203.06L328.36,237.91L329.1,187.33L329.85,146.94L330.6,144.91L331.34,152.23L332.09,144.9L332.84,38.608L333.58,250.81L334.33,260.62L335.07,243.42L335.82,260.9L336.57,263.27L337.31,256.38L338.06,258.81L338.81,200.1L339.55,177.81L340.3,141.12L341.05,152.83L341.79,151.22L342.54,150.49L343.28,38.65L344.03,233.03L344.78,253.54L345.52,245.29L346.27,236.38L347.02,261.22L347.76,256.84L348.51,263.47L349.25,270.97L350,252.79L350.75,189.54L351.49,148.26L352.24,141.09L352.99,145.68L353.73,146.77L354.48,38.63L355.22,240.82L355.97,259.61L356.72,238.32L357.46,260.71L358.21,265.73L358.96,266.04L359.7,254.61L360.45,252.05L361.19,216.27L361.94,146L362.69,134.43L363.43,142.19L364.18,147.59L364.93,38.631L365.67,234.06L366.42,250.56L367.17,254.6L367.91,214.33L368.66,201.49L369.4,237.54L370.15,249.21L370.9,192.61L371.64,197.63L372.39,154.22L373.14,140.92L373.88,135.96L374.63,147.15L375.37,145.17L376.12,38.623L376.87,213.26L377.61,247.19L378.36,251.17L379.11,265.03L379.85,262.02L380.6,261.78L381.34,262.66L382.09,228.25L382.84,200.39L383.58,147.06L384.33,150.18L385.08,149.86L385.82,149.72L386.57,38.642L387.31,242.74L388.06,234.65L388.81,266.86L389.55,258.49L390.3,254.94L391.05,227.13L391.79,203.47L392.54,248.1L393.29,228.07L394.03,136.98L394.78,144.88L395.52,139.23L396.27,151.01L397.02,151.18L397.76,38.48L398.51,227.36L399.26,240.99L400,248.5L400.75,213.4L401.31,275.43" style="fill:none;stroke:#F15A60" />
<path d="M405.2,277.58L425.2,277.58" style="fill:none;stroke:#F15A60" />
<text x="342.21" y="-271.91" transform="scale(1, -1)"
	style="font-family:Times;font-weight:normal;font-style:normal;font-size:12px">batch-100kb</text>
</g>
</svg>
