<?xml version="1.0"?>
<!-- Generated by SVGo and Plotinum VG -->
<svg width="425.2pt" height="283.46pt" viewBox="0 0 425.2 283.46"
	xmlns="http://www.w3.org/2000/svg"
	xmlns:xlink="http://www.w3.org/1999/xlink">
<g transform="scale(1, -1) translate(0, -283.46)">
<path d="M0,0L425.2,0L425.2,283.46L0,283.46Z" style="fill:#FFFFFF" />
<text x="207.23" y="-3.8613" transform="scale(1, -1)"
	style="font-family:Times;font-weight:normal;font-style:normal;font-size:12px">database size</text>
<text x="60.252" y="-15.602" transform="scale(1, -1)"
	style="font-family:Times;font-weight:normal;font-style:normal;font-size:10px">4.00 mb</text>
<text x="136.77" y="-15.602" transform="scale(1, -1)"
	style="font-family:Times;font-weight:normal;font-style:normal;font-size:10px">260.00 mb</text>
<text x="218.28" y="-15.602" transform="scale(1, -1)"
	style="font-family:Times;font-weight:normal;font-style:normal;font-size:10px">516.00 mb</text>
<text x="299.79" y="-15.602" transform="scale(1, -1)"
	style="font-family:Times;font-weight:normal;font-style:normal;font-size:10px">772.00 mb</text>
<text x="377.42" y="-15.602" transform="scale(1, -1)"
	style="font-family:Times;font-weight:normal;font-style:normal;font-size:10px">1023.63 mb</text>
<path d="M76.642,25.23L76.642,33.23" style="fill:none;stroke:#000000;stroke-width:0.5" />
<path d="M158.16,25.23L158.16,33.23" style="fill:none;stroke:#000000;stroke-width:0.5" />
<path d="M239.67,25.23L239.67,33.23" style="fill:none;stroke:#000000;stroke-width:0.5" />
<path d="M321.18,25.23L321.18,33.23" style="fill:none;stroke:#000000;stroke-width:0.5" />
<path d="M401.31,25.23L401.31,33.23" style="fill:none;stroke:#000000;stroke-width:0.5" />
<path d="M76.114,33.23L401.31,33.23" style="fill:none;stroke:#000000;stroke-width:0.5" />
<g transform="rotate(90)">
<text x="144.86" y="11.555" transform="scale(1, -1)"
	style="font-family:Times;font-weight:normal;font-style:normal;font-size:12px">speed</text>
</g>
<text x="15.416" y="-42.587" transform="scale(1, -1)"
	style="font-family:Times;font-weight:normal;font-style:normal;font-size:10px">16.00 mb/s</text>
<text x="15.416" y="-114.45" transform="scale(1, -1)"
	style="font-family:Times;font-weight:normal;font-style:normal;font-size:10px">32.00 mb/s</text>
<text x="15.416" y="-186.3" transform="scale(1, -1)"
	style="font-family:Times;font-weight:normal;font-style:normal;font-size:10px">48.00 mb/s</text>
<text x="15.416" y="-258.16" transform="scale(1, -1)"
	style="font-family:Times;font-weight:normal;font-style:normal;font-size:10px">64.00 mb/s</text>
<text x="15.416" y="-273.84" transform="scale(1, -1)"
	style="font-family:Times;font-weight:normal;font-style:normal;font-size:10px">67.49 mb/s</text>
<path d="M62.364,47.309L70.364,47.309" style="fill:none;stroke:#000000;stroke-width:0.5" />
<path d="M62.364,119.17L70.364,119.17" style="fill:none;stroke:#000000;stroke-width:0.5" />
<path d="M62.364,191.03L70.364,191.03" style="fill:none;stroke:#000000;stroke-width:0.5" />
<path d="M62.364,262.88L70.364,262.88" style="fill:none;stroke:#000000;stroke-width:0.5" />
<path d="M62.364,278.56L70.364,278.56" style="fill:none;stroke:#000000;stroke-width:0.5" />
<path d="M70.364,38.48L70.364,278.56" style="fill:none;stroke:#000000;stroke-width:0.5" />
<path d="M76.114,278.56L76.861,210.24L77.607,198.16L78.353,206.87L79.099,196.22L79.846,187.91L80.592,179.58L81.338,193.4L82.085,165.25L82.831,183.3L83.577,151.75L84.323,169.67L85.07,171.25L85.816,131.85L86.562,159.92L87.309,159.93L88.055,134.62L88.801,151.66L89.547,160.03L90.294,157.23L91.04,154.4L91.786,112.83L92.533,150.46L93.279,152.42L94.025,153.34L94.771,145.5L95.518,103.07L96.264,142.44L97.01,144.19L97.757,144.08L98.503,140.77L99.249,139.24L99.995,137.28L100.74,90.533L101.49,132.66L102.23,133.65L102.98,133.99L103.73,133.07L104.47,134.28L105.22,130.53L105.97,116.4L106.71,78.738L107.46,130.21L108.2,136.15L108.95,136.07L109.7,134.02L110.44,131.87L111.19,121.25L111.94,120.8L112.68,118.59L113.43,118.73L114.17,90.174L114.92,110.7L115.67,115.13L116.41,115.1L117.16,112.17L117.91,113.08L118.65,117.56L119.4,113.55L120.15,110.51L120.89,112.69L121.64,105.42L122.38,105.44L123.13,112.46L123.88,80.702L124.62,108.66L125.37,108.28L126.12,109.43L126.86,107.54L127.61,108.44L128.35,105.5L129.1,110.74L129.85,108.51L130.59,105.96L131.34,98.898L132.09,106.18L132.83,109.17L133.58,102.98L134.32,105.41L135.07,105.24L135.82,54.013L136.56,105.24L137.31,108.83L138.06,112.96L138.8,113.7L139.55,107.78L140.29,104.8L141.04,108.02L141.79,109.25L142.53,108.31L143.28,102.68L144.03,105.59L144.77,105.22L145.52,106.85L146.26,98.694L147.01,97.882L147.76,100.8L148.5,110.09L149.25,109.63L150,111.11L150.74,96.475L151.49,62.821L152.24,102.29L152.98,103.44L153.73,102.68L154.47,104.55L155.22,103.21L155.97,104.04L156.71,101.87L157.46,102.09L158.21,96.947L158.95,92.858L159.7,93.715L160.44,94.098L161.19,91.702L161.94,90.709L162.68,92.638L163.43,97.012L164.18,98.31L164.92,97.534L165.67,97.494L166.41,97.203L167.16,97.427L167.91,98.273L168.65,99.862L169.4,99.351L170.15,38.48L170.89,104.92L171.64,105.86L172.38,105.61L173.13,106.65L173.88,103.95L174.62,99.493L175.37,99.847L176.12,103.41L176.86,105.01L177.61,104.71L178.36,102.33L179.1,104.57L179.85,103.34L180.59,101.84L181.34,95.966L182.09,95L182.83,99.28L183.58,99.165L184.33,97.011L185.07,100.8L185.82,102.12L186.56,101.73L187.31,102L188.06,102.37L188.8,101.74L189.55,102.83L190.3,101.31L191.04,100.75L191.79,103.97L192.53,248.34L193.28,250.11L194.03,227.2L194.77,219.41L195.52,204.28L196.27,189.02L197.01,195.35L197.76,188L198.5,172.2L199.25,183.2L200,163.43L200.74,174.59L201.49,171.04L202.24,144.93L202.98,158.51L203.73,161.57L204.48,143.81L205.22,153.79L205.97,159.93L206.71,157.87L207.46,150.89L208.21,125.48L208.95,154.27L209.7,147.43L210.45,149.33L211.19,148.54L211.94,116.19L212.68,138.37L213.43,136.09L214.18,132.84L214.92,133.36L215.67,131.36L216.42,130.47L217.16,94.943L217.91,111.07L218.65,118.58L219.4,122.49L220.15,124.3L220.89,123.14L221.64,123.51L222.39,124.34L223.13,99.052L223.88,130.61L224.62,130.35L225.37,130.81L226.12,131.59L226.86,130.22L227.61,130.59L228.36,54.705L229.1,127.55L229.85,129.93L230.6,95.297L231.34,124.57L232.09,127.06L232.83,127.83L233.58,128.59L234.33,125.9L235.07,125.41L235.82,126.78L236.57,124.87L237.31,122.89L238.06,114.78L238.8,120.17L239.55,120.85L240.3,63.187L241.04,111.51L241.79,113.7L242.54,114.15L243.28,114.45L244.03,113.47L244.77,113.78L245.52,113.19L246.27,109.87L247.01,111.91L247.76,111.74L248.51,110.33L249.25,108.49L250,105.61L250.74,110.65L251.49,109.17L252.24,55.664L252.98,104.49L253.73,109.42L254.48,109.65L255.22,99.815L255.97,97.504L256.72,108.29L257.46,108.33L258.21,107.81L258.95,105.06L259.7,100.93L260.45,102.83L261.19,106.51L261.94,105.63L262.69,107.58L263.43,107.39L264.18,107.69L264.92,107.28L265.67,105.76L266.42,103.68L267.16,105.19L267.91,45.964L268.66,113L269.4,113.26L270.15,114.16L270.89,112.39L271.64,112.96L272.39,112.25L273.13,114.1L273.88,111.74L274.63,107.57L275.37,106.11L276.12,110.62L276.86,110.57L277.61,111.92L278.36,109.88L279.1,110.67L279.85,110.62L280.6,109.9L281.34,105.16L282.09,105.67L282.84,109.78L283.58,110.02L284.33,106.36L285.07,102.51L285.82,107.46L286.57,60.488L287.31,105.52L288.06,108.46L288.81,108L289.55,107.43L290.3,108.04L291.04,107.58L291.79,106.45L292.54,105.82L293.28,106.74L294.03,107.94L294.78,106.32L295.52,96.521L296.27,101.34L297.01,103.99L297.76,106.21L298.51,106.01L299.25,104.51L300,106.3L300.75,105.17L301.49,105.13L302.24,101.7L302.98,100L303.73,101.52L304.48,98.122L305.22,100.25L305.97,102.7L306.72,101.92L307.46,99.014L308.21,99.096L308.95,184.55L309.7,255.85L310.45,237.96L311.19,227.03L311.94,207.02L312.69,194.27L313.43,182.96L314.18,193.98L314.93,181L315.67,190.2L316.42,171.98L317.16,175.81L317.91,182.2L318.66,153.66L319.4,169.91L320.15,170.16L320.9,151.5L321.64,155.61L322.39,160.79L323.13,162.08L323.88,153.89L324.63,121.74L325.37,144.31L326.12,140.46L326.87,139.9L327.61,137.05L328.36,115.14L329.1,139.11L329.85,140.61L330.6,138.76L331.34,139.27L332.09,136.62L332.84,134.51L333.58,108.69L334.33,139.02L335.07,140.11L335.82,137.37L336.57,140.09L337.31,137.36L338.06,134.73L338.81,133.68L339.55,100.44L340.3,125.44L341.05,130.37L341.79,132.31L342.54,131.02L343.28,129.31L344.03,131.42L344.78,128.72L345.52,56.366L346.27,124.69L347.02,93.574L347.76,120.5L348.51,122.74L349.25,125.34L350,120.57L350.75,116.65L351.49,122.28L352.24,123.24L352.99,122.91L353.73,123.98L354.48,122.4L355.22,121.22L355.97,123.02L356.72,85.021L357.46,114.24L358.21,119.5L358.96,118.31L359.7,118.77L360.45,114.7L361.19,109.83L361.94,107.25L362.69,114.37L363.43,112.75L364.18,109.73L364.93,109.64L365.67,109.19L366.42,109.93L367.17,109.22L367.91,106.84L368.66,49.218L369.4,103.89L370.15,107.21L370.9,110.75L371.64,108.51L372.39,108.7L373.14,105.94L373.88,107.36L374.63,107.45L375.37,93.412L376.12,86.874L376.87,89.56L377.61,100.66L378.36,96.666L379.11,93.178L379.85,91.171L380.6,82.909L381.34,93.201L382.09,72.989L382.84,100.52L383.58,97.941L384.33,66.364L385.08,107.46L385.82,105.54L386.57,106.48L387.31,104.59L388.06,111.72L388.81,111.49L389.55,113.37L390.3,112.46L391.05,111.02L391.79,111.48L392.54,109.69L393.29,112.21L394.03,111.72L394.78,108.97L395.52,111.32L396.27,111.17L397.02,108.55L397.76,109.76L398.51,110.09L399.26,109.92L400,110.34L400.75,109.4L401.31,109.47" style="fill:none;stroke:#F15A60" />
<path d="M405.2,277.58L425.2,277.58" style="fill:none;stroke:#F15A60" />
<text x="168.95" y="-271.91" transform="scale(1, -1)"
	style="font-family:Times;font-weight:normal;font-style:normal;font-size:12px">batch-100kb-ctable-64mb-wb-512mb-cache-1gb</text>
</g>
</svg>
