<?xml version="1.0"?>
<!-- Generated by SVGo and Plotinum VG -->
<svg width="425.2pt" height="283.46pt" viewBox="0 0 425.2 283.46"
	xmlns="http://www.w3.org/2000/svg"
	xmlns:xlink="http://www.w3.org/1999/xlink">
<g transform="scale(1, -1) translate(0, -283.46)">
<path d="M0,0L425.2,0L425.2,283.46L0,283.46Z" style="fill:#FFFFFF" />
<text x="209.73" y="-3.8613" transform="scale(1, -1)"
	style="font-family:Times;font-weight:normal;font-style:normal;font-size:12px">database size</text>
<text x="65.244" y="-15.602" transform="scale(1, -1)"
	style="font-family:Times;font-weight:normal;font-style:normal;font-size:10px">4.00 mb</text>
<text x="140.51" y="-15.602" transform="scale(1, -1)"
	style="font-family:Times;font-weight:normal;font-style:normal;font-size:10px">260.00 mb</text>
<text x="220.77" y="-15.602" transform="scale(1, -1)"
	style="font-family:Times;font-weight:normal;font-style:normal;font-size:10px">516.00 mb</text>
<text x="301.03" y="-15.602" transform="scale(1, -1)"
	style="font-family:Times;font-weight:normal;font-style:normal;font-size:10px">772.00 mb</text>
<text x="377.42" y="-15.602" transform="scale(1, -1)"
	style="font-family:Times;font-weight:normal;font-style:normal;font-size:10px">1023.63 mb</text>
<path d="M81.634,25.23L81.634,33.23" style="fill:none;stroke:#000000;stroke-width:0.5" />
<path d="M161.89,25.23L161.89,33.23" style="fill:none;stroke:#000000;stroke-width:0.5" />
<path d="M242.16,25.23L242.16,33.23" style="fill:none;stroke:#000000;stroke-width:0.5" />
<path d="M322.42,25.23L322.42,33.23" style="fill:none;stroke:#000000;stroke-width:0.5" />
<path d="M401.31,25.23L401.31,33.23" style="fill:none;stroke:#000000;stroke-width:0.5" />
<path d="M81.114,33.23L401.31,33.23" style="fill:none;stroke:#000000;stroke-width:0.5" />
<g transform="rotate(90)">
<text x="144.86" y="11.555" transform="scale(1, -1)"
	style="font-family:Times;font-weight:normal;font-style:normal;font-size:12px">speed</text>
</g>
<text x="15.416" y="-91.37" transform="scale(1, -1)"
	style="font-family:Times;font-weight:normal;font-style:normal;font-size:10px">256.00 mb/s</text>
<text x="15.416" y="-168.89" transform="scale(1, -1)"
	style="font-family:Times;font-weight:normal;font-style:normal;font-size:10px">288.00 mb/s</text>
<text x="15.416" y="-246.41" transform="scale(1, -1)"
	style="font-family:Times;font-weight:normal;font-style:normal;font-size:10px">320.00 mb/s</text>
<text x="15.416" y="-273.84" transform="scale(1, -1)"
	style="font-family:Times;font-weight:normal;font-style:normal;font-size:10px">331.32 mb/s</text>
<path d="M67.364,96.092L75.364,96.092" style="fill:none;stroke:#000000;stroke-width:0.5" />
<path d="M67.364,173.61L75.364,173.61" style="fill:none;stroke:#000000;stroke-width:0.5" />
<path d="M67.364,251.13L75.364,251.13" style="fill:none;stroke:#000000;stroke-width:0.5" />
<path d="M67.364,278.56L75.364,278.56" style="fill:none;stroke:#000000;stroke-width:0.5" />
<path d="M75.364,38.48L75.364,278.56" style="fill:none;stroke:#000000;stroke-width:0.5" />
<path d="M81.114,38.48L81.849,171L82.584,239.53L83.319,246.53L84.053,263.5L84.788,228.11L85.523,247.91L86.258,246.18L86.993,247.09L87.728,250.44L88.462,251L89.197,232.59L89.932,239.99L90.667,266.17L91.402,246.22L92.136,235.06L92.871,244.74L93.606,233.23L94.341,239.68L95.076,250.29L95.81,231.52L96.545,248.51L97.28,268.57L98.015,248.23L98.75,248.76L99.485,239.8L100.22,248.54L100.95,234.39L101.69,256.61L102.42,236.26L103.16,242.49L103.89,253.47L104.63,243.62L105.36,249.24L106.1,238.62L106.83,246.69L107.57,257.67L108.3,256.86L109.04,255.99L109.77,229.14L110.51,272.13L111.24,239.19L111.98,227.91L112.71,245.94L113.45,246.16L114.18,254.57L114.92,250.16L115.65,246.06L116.39,246.79L117.12,274.18L117.85,243.45L118.59,240.22L119.32,253.52L120.06,235.11L120.79,250L121.53,238.77L122.26,219.88L123,243.51L123.73,259.33L124.47,258.43L125.2,252.73L125.94,234.97L126.67,247.88L127.41,244.34L128.14,251.97L128.88,250L129.61,250.32L130.35,244.98L131.08,270.83L131.82,238.2L132.55,244.65L133.29,251.26L134.02,247.92L134.76,254.24L135.49,241.52L136.23,248.38L136.96,247.93L137.69,276.04L138.43,219.43L139.16,246.48L139.9,251.02L140.63,237.23L141.37,251.89L142.1,255.56L142.84,245.7L143.57,245.84L144.31,269.33L145.04,243.07L145.78,253.71L146.51,239.92L147.25,235.95L147.98,250.35L148.72,240.52L149.45,227.19L150.19,227.03L150.92,267.33L151.66,231.42L152.39,241.73L153.13,215.72L153.86,240.55L154.6,242.64L155.33,237.63L156.06,245.15L156.8,245.2L157.53,256.82L158.27,232.72L159,229.78L159.74,252.02L160.47,224.07L161.21,242.43L161.94,252.21L162.68,250.99L163.41,247.14L164.15,250.22L164.88,262.98L165.62,248.4L166.35,240.1L167.09,239.36L167.82,237.55L168.56,244.35L169.29,242.33L170.03,250.69L170.76,232.2L171.5,255.03L172.23,249.25L172.97,245.57L173.7,224.01L174.44,220.76L175.17,251.68L175.9,248.11L176.64,250.5L177.37,245.56L178.11,257.25L178.84,255.23L179.58,233.86L180.31,229.07L181.05,241.01L181.78,255.13L182.52,244.79L183.25,246.14L183.99,236.27L184.72,259.5L185.46,238.69L186.19,244.35L186.93,231.89L187.66,221.93L188.4,217.85L189.13,247.01L189.87,228.7L190.6,236.86L191.34,264.43L192.07,236.56L192.81,249.16L193.54,248L194.27,245.16L195.01,244.33L195.74,254.14L196.48,241.47L197.21,230L197.95,251.68L198.68,233.28L199.42,236.8L200.15,245.34L200.89,241.2L201.62,242.6L202.36,241.83L203.09,236.36L203.83,240L204.56,260.57L205.3,250.69L206.03,249.85L206.77,226.9L207.5,230.93L208.24,249.23L208.97,250.16L209.71,243.2L210.44,247L211.18,257.2L211.91,244.75L212.65,232.07L213.38,238.95L214.11,236.86L214.85,231.83L215.58,246.74L216.32,227.09L217.05,239.18L217.79,266.14L218.52,229.93L219.26,243.9L219.99,224.41L220.73,239.38L221.46,245.41L222.2,247.71L222.93,248.16L223.67,249.49L224.4,269.97L225.14,239.87L225.87,228.14L226.61,225.3L227.34,248.16L228.08,250.47L228.81,230.67L229.55,245.5L230.28,234.12L231.02,276.54L231.75,208.65L232.49,250.49L233.22,242.09L233.95,230.98L234.69,228.6L235.42,219.2L236.16,239.15L236.89,251.97L237.63,245.95L238.36,250.57L239.1,230.51L239.83,250.3L240.57,240.16L241.3,250.71L242.04,243.25L242.77,214.43L243.51,246.38L244.24,247.47L244.98,260.42L245.71,249.93L246.45,245.37L247.18,195.3L247.92,240.86L248.65,249.92L249.39,247.93L250.12,248.89L250.86,248.83L251.59,272.47L252.32,237.77L253.06,244.98L253.79,231.8L254.53,232.45L255.26,253.44L256,239.54L256.73,252.45L257.47,249.69L258.2,274.47L258.94,233.75L259.67,245.04L260.41,249.88L261.14,242.97L261.88,246.99L262.61,246.49L263.35,242.5L264.08,233.66L264.82,278.56L265.55,224L266.29,251.39L267.02,222.94L267.76,237.45L268.49,243.4L269.23,239.25L269.96,251.76L270.7,249.53L271.43,267.09L272.16,253.89L272.9,238.83L273.63,241.14L274.37,239.69L275.1,256.88L275.84,251.96L276.57,242.9L277.31,234.87L278.04,269.35L278.78,251.08L279.51,247.62L280.25,245.02L280.98,237.45L281.72,241.18L282.45,222.13L283.19,237.37L283.92,246.45L284.66,262.01L285.39,240.44L286.13,252.93L286.86,251.56L287.6,249.44L288.33,248.1L289.07,230.68L289.8,240.57L290.54,232.88L291.27,274.65L292,253.63L292.74,234.35L293.47,257.61L294.21,247.8L294.94,230.34L295.68,209.52L296.41,253.4L297.15,230.49L297.88,255.63L298.62,256.17L299.35,248.68L300.09,251.85L300.82,254.48L301.56,231.23L302.29,239.83L303.03,235.22L303.76,245.42L304.5,268.12L305.23,249.86L305.97,240.95L306.7,250.8L307.44,259.12L308.17,257.09L308.91,255.35L309.64,254.39L310.37,250.36L311.11,257.88L311.84,273.08L312.58,250.17L313.31,255.89L314.05,231.88L314.78,228.31L315.52,253.31L316.25,255.36L316.99,255.45L317.72,252.42L318.46,265.11L319.19,231.08L319.93,228.76L320.66,251.99L321.4,250.69L322.13,250.43L322.87,232.01L323.6,238.71L324.34,240.57L325.07,255.55L325.81,246.99L326.54,252.89L327.28,235.44L328.01,218.53L328.75,248.59L329.48,249.54L330.21,246.37L330.95,250.15L331.68,268L332.42,246.23L333.15,247.77L333.89,245.96L334.62,253.63L335.36,250.4L336.09,233.27L336.83,249.31L337.56,247.54L338.3,263.57L339.03,252.37L339.77,226.43L340.5,239.55L341.24,229.63L341.97,237.39L342.71,246.66L343.44,229.03L344.18,235.3L344.91,274.37L345.65,244.53L346.38,251.03L347.12,248.7L347.85,250.43L348.59,247.62L349.32,254.42L350.05,244.01L350.79,240.8L351.52,271.53L352.26,254.17L352.99,238.49L353.73,246.63L354.46,240.64L355.2,252.13L355.93,231.83L356.67,229.61L357.4,250.19L358.14,273.7L358.87,233.75L359.61,243.91L360.34,245.53L361.08,250.02L361.81,233.62L362.55,234.5L363.28,220.77L364.02,242.17L364.75,269.27L365.49,226.85L366.22,229.99L366.96,244.6L367.69,247.03L368.42,244.54L369.16,234.26L369.89,238.97L370.63,243.28L371.36,268.81L372.1,233.8L372.83,246.9L373.57,218.92L374.3,245.11L375.04,241.76L375.77,223.94L376.51,245.99L377.24,232.26L377.98,268.38L378.71,244.24L379.45,250.86L380.18,242.14L380.92,238.06L381.65,239.32L382.39,242.61L383.12,249.4L383.86,244.83L384.59,270.89L385.33,247L386.06,238L386.8,238.78L387.53,242.4L388.26,225.6L389,216.76L389.73,234.37L390.47,225.5L391.2,232.23L391.94,265.3L392.67,224.57L393.41,236.52L394.14,232.3L394.88,248.86L395.61,240.84L396.35,242.16L397.08,244.53L397.82,249.33L398.55,257.5L399.29,243.68L400.02,217.45L400.76,241.39L401.31,246.94" style="fill:none;stroke:#F15A60" />
<path d="M405.2,277.58L425.2,277.58" style="fill:none;stroke:#F15A60" />
<text x="194.93" y="-271.91" transform="scale(1, -1)"
	style="font-family:Times;font-weight:normal;font-style:normal;font-size:12px">batch-100kb-wb-512mb-cache-1gb-nosync</text>
</g>
</svg>
