<?xml version="1.0"?>
<!-- Generated by SVGo and Plotinum VG -->
<svg width="425.2pt" height="283.46pt" viewBox="0 0 425.2 283.46"
	xmlns="http://www.w3.org/2000/svg"
	xmlns:xlink="http://www.w3.org/1999/xlink">
<g transform="scale(1, -1) translate(0, -283.46)">
<path d="M0,0L425.2,0L425.2,283.46L0,283.46Z" style="fill:#FFFFFF" />
<text x="209.73" y="-3.8613" transform="scale(1, -1)"
	style="font-family:Times;font-weight:normal;font-style:normal;font-size:12px">database size</text>
<text x="65.244" y="-15.602" transform="scale(1, -1)"
	style="font-family:Times;font-weight:normal;font-style:normal;font-size:10px">4.00 mb</text>
<text x="140.51" y="-15.602" transform="scale(1, -1)"
	style="font-family:Times;font-weight:normal;font-style:normal;font-size:10px">260.00 mb</text>
<text x="220.77" y="-15.602" transform="scale(1, -1)"
	style="font-family:Times;font-weight:normal;font-style:normal;font-size:10px">516.00 mb</text>
<text x="301.03" y="-15.602" transform="scale(1, -1)"
	style="font-family:Times;font-weight:normal;font-style:normal;font-size:10px">772.00 mb</text>
<text x="377.42" y="-15.602" transform="scale(1, -1)"
	style="font-family:Times;font-weight:normal;font-style:normal;font-size:10px">1023.63 mb</text>
<path d="M81.634,25.23L81.634,33.23" style="fill:none;stroke:#000000;stroke-width:0.5" />
<path d="M161.89,25.23L161.89,33.23" style="fill:none;stroke:#000000;stroke-width:0.5" />
<path d="M242.16,25.23L242.16,33.23" style="fill:none;stroke:#000000;stroke-width:0.5" />
<path d="M322.42,25.23L322.42,33.23" style="fill:none;stroke:#000000;stroke-width:0.5" />
<path d="M401.31,25.23L401.31,33.23" style="fill:none;stroke:#000000;stroke-width:0.5" />
<path d="M81.114,33.23L401.31,33.23" style="fill:none;stroke:#000000;stroke-width:0.5" />
<g transform="rotate(90)">
<text x="144.86" y="11.555" transform="scale(1, -1)"
	style="font-family:Times;font-weight:normal;font-style:normal;font-size:12px">speed</text>
</g>
<text x="15.416" y="-107.59" transform="scale(1, -1)"
	style="font-family:Times;font-weight:normal;font-style:normal;font-size:10px">256.00 mb/s</text>
<text x="15.416" y="-182.45" transform="scale(1, -1)"
	style="font-family:Times;font-weight:normal;font-style:normal;font-size:10px">288.00 mb/s</text>
<text x="15.416" y="-257.31" transform="scale(1, -1)"
	style="font-family:Times;font-weight:normal;font-style:normal;font-size:10px">320.00 mb/s</text>
<text x="15.416" y="-273.84" transform="scale(1, -1)"
	style="font-family:Times;font-weight:normal;font-style:normal;font-size:10px">327.06 mb/s</text>
<path d="M67.364,112.31L75.364,112.31" style="fill:none;stroke:#000000;stroke-width:0.5" />
<path d="M67.364,187.17L75.364,187.17" style="fill:none;stroke:#000000;stroke-width:0.5" />
<path d="M67.364,262.03L75.364,262.03" style="fill:none;stroke:#000000;stroke-width:0.5" />
<path d="M67.364,278.56L75.364,278.56" style="fill:none;stroke:#000000;stroke-width:0.5" />
<path d="M75.364,38.48L75.364,278.56" style="fill:none;stroke:#000000;stroke-width:0.5" />
<path d="M81.114,38.48L81.849,196.19L82.584,236.87L83.319,246.63L84.053,262.69L84.788,224.43L85.523,250.55L86.258,246.62L86.993,244.18L87.728,248.88L88.462,251.18L89.197,254.87L89.932,255.8L90.667,278.56L91.402,258.24L92.136,241.57L92.871,253.12L93.606,239.44L94.341,259.44L95.076,245.6L95.81,255.08L96.545,266.29L97.28,248.12L98.015,248.41L98.75,239.54L99.485,244.47L100.22,240.92L100.95,240.21L101.69,253.83L102.42,225.58L103.16,266L103.89,252.66L104.63,237.4L105.36,247.93L106.1,251.06L106.83,250.02L107.57,258.63L108.3,239.58L109.04,228.72L109.77,260.32L110.51,235.24L111.24,254.22L111.98,243.12L112.71,237.58L113.45,258.09L114.18,241.13L114.92,251.67L115.65,245.43L116.39,256.72L117.12,251.22L117.85,254.25L118.59,252.77L119.32,238.73L120.06,237.08L120.79,254.09L121.53,253.89L122.26,230L123,252.74L123.73,244.45L124.47,251.4L125.2,247.75L125.94,250.21L126.67,247.86L127.41,244.22L128.14,248.06L128.88,247.11L129.61,272.86L130.35,255.31L131.08,248.32L131.82,243.78L132.55,247.6L133.29,245.73L134.02,247.25L134.76,248.88L135.49,242.45L136.23,270.57L136.96,253.38L137.69,246.74L138.43,249.89L139.16,253.47L139.9,256.93L140.63,252.25L141.37,250.96L142.1,228.99L142.84,269.65L143.57,233.63L144.31,242.16L145.04,233.84L145.78,254.19L146.51,243.43L147.25,245.68L147.98,246.78L148.72,236.55L149.45,273.07L150.19,253.22L150.92,245.64L151.66,253.41L152.39,253.78L153.13,235.48L153.86,249.71L154.6,247.85L155.33,249.19L156.06,268.86L156.8,247.23L157.53,239.51L158.27,241.46L159,243.85L159.74,253.4L160.47,254.56L161.21,244.6L161.94,253.01L162.68,268.71L163.41,250.65L164.15,250.72L164.88,250.97L165.62,254.88L166.35,249.79L167.09,253.18L167.82,245.83L168.56,250.3L169.29,258.32L170.03,251L170.76,243.71L171.5,239.22L172.23,253.32L172.97,258.44L173.7,246.92L174.44,242.01L175.17,248.71L175.9,269.6L176.64,248.1L177.37,244.11L178.11,241.39L178.84,249.93L179.58,247.74L180.31,258.23L181.05,248.19L181.78,249.03L182.52,271.57L183.25,253.02L183.99,235.89L184.72,251.44L185.46,247.86L186.19,238.75L186.93,250.72L187.66,246.78L188.4,245.61L189.13,275.88L189.87,245.09L190.6,240.35L191.34,239.36L192.07,237.08L192.81,244.61L193.54,248.09L194.27,253.31L195.01,257.69L195.74,276.2L196.48,248.83L197.21,253.25L197.95,251.81L198.68,251.97L199.42,248.64L200.15,239.11L200.89,245.79L201.62,256.91L202.36,274.26L203.09,249.45L203.83,246.43L204.56,246.22L205.3,246.3L206.03,237.97L206.77,252.6L207.5,238.18L208.24,252.95L208.97,274.63L209.71,253.17L210.44,238.26L211.18,231.69L211.91,253.01L212.65,249.85L213.38,243.97L214.11,250.35L214.85,241.18L215.58,272.09L216.32,255.74L217.05,257.61L217.79,252.53L218.52,255.99L219.26,254.31L219.99,249.06L220.73,239.98L221.46,228.24L222.2,274.51L222.93,254.66L223.67,248.65L224.4,255.79L225.14,245.44L225.87,240.49L226.61,254.21L227.34,254.24L228.08,243.81L228.81,275.1L229.55,255.9L230.28,252.38L231.02,244.85L231.75,252.38L232.49,258.23L233.22,243.72L233.95,245.28L234.69,243.15L235.42,271.67L236.16,247.82L236.89,249.74L237.63,246.88L238.36,251.69L239.1,254.35L239.83,248.04L240.57,227.03L241.3,254.43L242.04,270.49L242.77,244.97L243.51,255.04L244.24,244.29L244.98,260.56L245.71,249.25L246.45,242.69L247.18,223.58L247.92,248.7L248.65,254.87L249.39,267.23L250.12,249.7L250.86,242.95L251.59,241.34L252.32,249.21L253.06,247.32L253.79,234L254.53,227.6L255.26,278.3L256,260.73L256.73,250.04L257.47,255.26L258.2,236.91L258.94,240.59L259.67,244.47L260.41,248.28L261.14,256.17L261.88,248.74L262.61,275.81L263.35,251.28L264.08,239.02L264.82,251.26L265.55,216.68L266.29,233.06L267.02,245.56L267.76,242.78L268.49,243.74L269.23,260.16L269.96,257.24L270.7,255.22L271.43,244.87L272.16,239.79L272.9,258.93L273.63,239.82L274.37,246.58L275.1,234.06L275.84,270.6L276.57,248.3L277.31,249.59L278.04,245.45L278.78,247.95L279.51,252.17L280.25,245.23L280.98,240.95L281.72,239.73L282.45,263.65L283.19,231.92L283.92,235.81L284.66,253.18L285.39,249.56L286.13,249.36L286.86,255.05L287.6,240.5L288.33,250.43L289.07,275.89L289.8,255.88L290.54,248.84L291.27,251.36L292,255.51L292.74,251.52L293.47,250.72L294.21,246.84L294.94,253.89L295.68,259.96L296.41,255.98L297.15,250.11L297.88,254.28L298.62,235.1L299.35,250.91L300.09,241.46L300.82,247.65L301.56,255.94L302.29,275.45L303.03,239.53L303.76,250.34L304.5,243.44L305.23,255.56L305.97,248.03L306.7,248.64L307.44,255.03L308.17,250.96L308.91,247.04L309.64,268.89L310.37,248.39L311.11,244.03L311.84,243.76L312.58,252.52L313.31,254L314.05,255.22L314.78,253.57L315.52,232.42L316.25,256.61L316.99,252.45L317.72,242.89L318.46,243.94L319.19,235.55L319.93,251.43L320.66,252.04L321.4,252.67L322.13,235.87L322.87,266.64L323.6,242.14L324.34,226.94L325.07,250.31L325.81,247.93L326.54,255.63L327.28,256.46L328.01,253.24L328.75,259.18L329.48,276.35L330.21,247.62L330.95,256.45L331.68,242.3L332.42,244.04L333.15,240.61L333.89,244.99L334.62,231.53L335.36,238.86L336.09,269.11L336.83,237.34L337.56,232.14L338.3,254.16L339.03,253.41L339.77,252.77L340.5,251.15L341.24,241.26L341.97,242.78L342.71,257.25L343.44,250.31L344.18,252.49L344.91,252.47L345.65,253.76L346.38,254L347.12,251.29L347.85,254.19L348.59,259.28L349.32,269.04L350.05,261.7L350.79,241.6L351.52,258.52L352.26,256.24L352.99,240.38L353.73,247.58L354.46,247.41L355.2,254.73L355.93,274.63L356.67,247.98L357.4,239.6L358.14,246.13L358.87,243.61L359.61,221.9L360.34,236.91L361.08,250.29L361.81,245.83L362.55,263.51L363.28,250.28L364.02,248.45L364.75,255.65L365.49,249.55L366.22,240.51L366.96,240.09L367.69,254.78L368.42,246.53L369.16,254.25L369.89,274.61L370.63,252.96L371.36,255.08L372.1,247.88L372.83,251.44L373.57,238.74L374.3,249.3L375.04,239.23L375.77,244.78L376.51,262.8L377.24,249.54L377.98,246.47L378.71,236.09L379.45,253.88L380.18,242.42L380.92,255.2L381.65,250.02L382.39,249.08L383.12,275.05L383.86,245.64L384.59,248.39L385.33,251.72L386.06,240.96L386.8,234.85L387.53,252.45L388.26,240.53L389,249.53L389.73,273.58L390.47,242.49L391.2,233.17L391.94,247.05L392.67,245.5L393.41,257.19L394.14,253.41L394.88,247.03L395.61,243.99L396.35,267.06L397.08,249.22L397.82,250.47L398.55,239.42L399.29,246.96L400.02,249.5L400.76,248.86L401.31,266.68" style="fill:none;stroke:#F15A60" />
<path d="M405.2,277.58L425.2,277.58" style="fill:none;stroke:#F15A60" />
<text x="342.21" y="-271.91" transform="scale(1, -1)"
	style="font-family:Times;font-weight:normal;font-style:normal;font-size:12px">batch-100kb</text>
</g>
</svg>
