<?xml version="1.0"?>
<!-- Generated by SVGo and Plotinum VG -->
<svg width="425.2pt" height="283.46pt" viewBox="0 0 425.2 283.46"
	xmlns="http://www.w3.org/2000/svg"
	xmlns:xlink="http://www.w3.org/1999/xlink">
<g transform="scale(1, -1) translate(0, -283.46)">
<path d="M0,0L425.2,0L425.2,283.46L0,283.46Z" style="fill:#FFFFFF" />
<text x="209.73" y="-3.8613" transform="scale(1, -1)"
	style="font-family:Times;font-weight:normal;font-style:normal;font-size:12px">database size</text>
<text x="65.244" y="-15.602" transform="scale(1, -1)"
	style="font-family:Times;font-weight:normal;font-style:normal;font-size:10px">4.00 mb</text>
<text x="140.51" y="-15.602" transform="scale(1, -1)"
	style="font-family:Times;font-weight:normal;font-style:normal;font-size:10px">260.00 mb</text>
<text x="220.77" y="-15.602" transform="scale(1, -1)"
	style="font-family:Times;font-weight:normal;font-style:normal;font-size:10px">516.00 mb</text>
<text x="301.03" y="-15.602" transform="scale(1, -1)"
	style="font-family:Times;font-weight:normal;font-style:normal;font-size:10px">772.00 mb</text>
<text x="377.42" y="-15.602" transform="scale(1, -1)"
	style="font-family:Times;font-weight:normal;font-style:normal;font-size:10px">1023.63 mb</text>
<path d="M81.634,25.23L81.634,33.23" style="fill:none;stroke:#000000;stroke-width:0.5" />
<path d="M161.89,25.23L161.89,33.23" style="fill:none;stroke:#000000;stroke-width:0.5" />
<path d="M242.16,25.23L242.16,33.23" style="fill:none;stroke:#000000;stroke-width:0.5" />
<path d="M322.42,25.23L322.42,33.23" style="fill:none;stroke:#000000;stroke-width:0.5" />
<path d="M401.31,25.23L401.31,33.23" style="fill:none;stroke:#000000;stroke-width:0.5" />
<path d="M81.114,33.23L401.31,33.23" style="fill:none;stroke:#000000;stroke-width:0.5" />
<g transform="rotate(90)">
<text x="144.86" y="11.555" transform="scale(1, -1)"
	style="font-family:Times;font-weight:normal;font-style:normal;font-size:12px">speed</text>
</g>
<text x="15.416" y="-124.69" transform="scale(1, -1)"
	style="font-family:Times;font-weight:normal;font-style:normal;font-size:10px">256.00 mb/s</text>
<text x="15.416" y="-190.09" transform="scale(1, -1)"
	style="font-family:Times;font-weight:normal;font-style:normal;font-size:10px">288.00 mb/s</text>
<text x="15.416" y="-255.5" transform="scale(1, -1)"
	style="font-family:Times;font-weight:normal;font-style:normal;font-size:10px">320.00 mb/s</text>
<text x="15.416" y="-273.84" transform="scale(1, -1)"
	style="font-family:Times;font-weight:normal;font-style:normal;font-size:10px">328.97 mb/s</text>
<path d="M67.364,129.41L75.364,129.41" style="fill:none;stroke:#000000;stroke-width:0.5" />
<path d="M67.364,194.82L75.364,194.82" style="fill:none;stroke:#000000;stroke-width:0.5" />
<path d="M67.364,260.22L75.364,260.22" style="fill:none;stroke:#000000;stroke-width:0.5" />
<path d="M67.364,278.56L75.364,278.56" style="fill:none;stroke:#000000;stroke-width:0.5" />
<path d="M75.364,38.48L75.364,278.56" style="fill:none;stroke:#000000;stroke-width:0.5" />
<path d="M81.114,38.48L81.849,242.63L82.584,240.66L83.319,256.43L84.053,257.8L84.788,251.32L85.523,248.24L86.258,247.87L86.993,251.86L87.728,245.11L88.462,227.17L89.197,251.44L89.932,268.24L90.667,243.2L91.402,237.18L92.136,237.69L92.871,241.99L93.606,247.5L94.341,247.99L95.076,247.04L95.81,250.88L96.545,270.22L97.28,240.29L98.015,251L98.75,254.42L99.485,255L100.22,252.74L100.95,224.24L101.69,236.81L102.42,268.91L103.16,234.75L103.89,233.8L104.63,247.4L105.36,254.93L106.1,260.48L106.83,255.52L107.57,255.97L108.3,259.9L109.04,277.28L109.77,250.04L110.51,254.44L111.24,252.51L111.98,254.1L112.71,231.11L113.45,238.69L114.18,254.17L114.92,257.95L115.65,275.29L116.39,251.66L117.12,255.49L117.85,253.56L118.59,243.13L119.32,236.83L120.06,251.56L120.79,257.64L121.53,273.74L122.26,244.08L123,249.09L123.73,247.67L124.47,248.36L125.2,242.46L125.94,248.83L126.67,254.21L127.41,241.35L128.14,275.86L128.88,238.43L129.61,235.69L130.35,239.19L131.08,253.84L131.82,254.5L132.55,235.18L133.29,237.82L134.02,252.53L134.76,268.98L135.49,246.62L136.23,247.93L136.96,241.14L137.69,236.35L138.43,244.8L139.16,248.27L139.9,234.38L140.63,269.24L141.37,248.43L142.1,233.87L142.84,252.98L143.57,243.53L144.31,258.49L145.04,241.4L145.78,252.17L146.51,254.09L147.25,263.97L147.98,254.67L148.72,239.47L149.45,249.2L150.19,250.15L150.92,250.09L151.66,239.17L152.39,238.52L153.13,245.6L153.86,273.19L154.6,246.1L155.33,256.27L156.06,242.67L156.8,242.81L157.53,246.79L158.27,243.27L159,254.6L159.74,251.69L160.47,262.64L161.21,248.08L161.94,252.5L162.68,255.95L163.41,255.3L164.15,253.12L164.88,249.58L165.62,252.11L166.35,246.86L167.09,269.39L167.82,247.71L168.56,242.4L169.29,242.42L170.03,246.71L170.76,247.96L171.5,238.94L172.23,249.31L172.97,253.92L173.7,270.56L174.44,252.38L175.17,253.71L175.9,240.24L176.64,237.32L177.37,241.56L178.11,251.05L178.84,237.38L179.58,260.83L180.31,245.3L181.05,244.92L181.78,240.27L182.52,251.65L183.25,250.8L183.99,247.86L184.72,236.41L185.46,247.9L186.19,267.15L186.93,249.16L187.66,249.01L188.4,242.81L189.13,249.01L189.87,255.18L190.6,248.81L191.34,254.81L192.07,254.78L192.81,274.89L193.54,254.8L194.27,250.25L195.01,258.36L195.74,240.46L196.48,253.74L197.21,257.43L197.95,256.97L198.68,252.54L199.42,268.21L200.15,246.24L200.89,238.29L201.62,243.54L202.36,250.33L203.09,235.77L203.83,242.2L204.56,238.76L205.3,237.46L206.03,256.2L206.77,250.25L207.5,254.47L208.24,253.15L208.97,241.99L209.71,253.32L210.44,254.61L211.18,251.83L211.91,257.6L212.65,273.67L213.38,246.79L214.11,233.45L214.85,250.79L215.58,254.08L216.32,258.95L217.05,254.27L217.79,254.2L218.52,245.62L219.26,271.44L219.99,252.57L220.73,252.34L221.46,213.77L222.2,246.49L222.93,255.62L223.67,239.87L224.4,252.67L225.14,239.68L225.87,274L226.61,229.28L227.34,241.28L228.08,233.54L228.81,247.31L229.55,250.22L230.28,244.89L231.02,239.54L231.75,246.98L232.49,261.82L233.22,236.97L233.95,253.36L234.69,247.6L235.42,252.86L236.16,254.3L236.89,250.74L237.63,255.57L238.36,240.73L239.1,245.41L239.83,250.46L240.57,246.77L241.3,239.16L242.04,249.69L242.77,235.42L243.51,249.58L244.24,240.93L244.98,249.08L245.71,276.31L246.45,253.76L247.18,249.09L247.92,243.38L248.65,242.58L249.39,256.99L250.12,251.54L250.86,255.85L251.59,273.49L252.32,249.8L253.06,243.9L253.79,239.73L254.53,250.8L255.26,253.12L256,253.22L256.73,251.58L257.47,238.46L258.2,275.45L258.94,251.71L259.67,252.31L260.41,251.1L261.14,241.74L261.88,254.96L262.61,254.1L263.35,253.79L264.08,255.05L264.82,278.56L265.55,261.15L266.29,257.61L267.02,244.41L267.76,246.79L268.49,254.79L269.23,245.49L269.96,219.79L270.7,240.35L271.43,273.68L272.16,252.5L272.9,250.6L273.63,251.69L274.37,253.46L275.1,242.84L275.84,254.47L276.57,245.74L277.31,245.56L278.04,265.88L278.78,255.66L279.51,255.68L280.25,237.11L280.98,237.88L281.72,259.31L282.45,254.62L283.19,248.65L283.92,251.17L284.66,270.78L285.39,242.31L286.13,239.82L286.86,248.19L287.6,240.12L288.33,255.41L289.07,255.4L289.8,241.06L290.54,233.94L291.27,266.83L292,250.96L292.74,244.27L293.47,257.59L294.21,250.57L294.94,242.37L295.68,246.1L296.41,255.43L297.15,254.34L297.88,273.72L298.62,253.3L299.35,241.09L300.09,251.66L300.82,250.23L301.56,256.68L302.29,240.35L303.03,240.03L303.76,245.3L304.5,266.21L305.23,247.95L305.97,242.16L306.7,252.37L307.44,255.05L308.17,247.83L308.91,240.82L309.64,254.94L310.37,256.66L311.11,269.35L311.84,205.33L312.58,254.56L313.31,251.41L314.05,252.15L314.78,255.67L315.52,242.01L316.25,241.13L316.99,254.56L317.72,272.39L318.46,251.12L319.19,254.9L319.93,243.64L320.66,233.6L321.4,251.28L322.13,247.58L322.87,249.19L323.6,252.87L324.34,261.58L325.07,241.72L325.81,241.68L326.54,245.71L327.28,234.67L328.01,244.76L328.75,252.55L329.48,255.42L330.21,256.57L330.95,273.69L331.68,252.06L332.42,241.61L333.15,244.89L333.89,235.29L334.62,240L335.36,254.97L336.09,242.33L336.83,256.11L337.56,266.93L338.3,257.28L339.03,254.6L339.77,242.21L340.5,251.01L341.24,250.59L341.97,243.33L342.71,257.4L343.44,247.22L344.18,272.44L344.91,253.19L345.65,251.74L346.38,240.03L347.12,254.42L347.85,253.1L348.59,248.5L349.32,250.47L350.05,255.23L350.79,264.83L351.52,259.72L352.26,244.07L352.99,253.25L353.73,249.64L354.46,256.87L355.2,254.31L355.93,246.24L356.67,247.22L357.4,271.71L358.14,255.76L358.87,258.66L359.61,257.83L360.34,249.04L361.08,239.99L361.81,257.28L362.55,252.52L363.28,250.68L364.02,264.54L364.75,251.26L365.49,250.22L366.22,250.81L366.96,246.17L367.69,251.19L368.42,252.45L369.16,251.44L369.89,255.17L370.63,270.09L371.36,236.77L372.1,242.55L372.83,252.16L373.57,248.02L374.3,251.42L375.04,246.43L375.77,246.57L376.51,253.13L377.24,276.26L377.98,253.46L378.71,244.07L379.45,247.5L380.18,248.23L380.92,233.65L381.65,237.64L382.39,248.97L383.12,237.5L383.86,270.43L384.59,249.51L385.33,253.28L386.06,251.11L386.8,252.05L387.53,251.92L388.26,251.69L389,248.65L389.73,248.85L390.47,273.47L391.2,248.95L391.94,245.7L392.67,245.71L393.41,253.77L394.14,256.22L394.88,256.01L395.61,243.11L396.35,256.69L397.08,271.06L397.82,245.95L398.55,236.71L399.29,253.56L400.02,260.65L400.76,251.78L401.31,263.31" style="fill:none;stroke:#F15A60" />
<path d="M405.2,277.58L425.2,277.58" style="fill:none;stroke:#F15A60" />
<text x="316.88" y="-271.91" transform="scale(1, -1)"
	style="font-family:Times;font-weight:normal;font-style:normal;font-size:12px">batch-100kb-notx</text>
</g>
</svg>
