<?xml version="1.0"?>
<!-- Generated by SVGo and Plotinum VG -->
<svg width="425.2pt" height="283.46pt" viewBox="0 0 425.2 283.46"
	xmlns="http://www.w3.org/2000/svg"
	xmlns:xlink="http://www.w3.org/1999/xlink">
<g transform="scale(1, -1) translate(0, -283.46)">
<path d="M0,0L425.2,0L425.2,283.46L0,283.46Z" style="fill:#FFFFFF" />
<text x="209.73" y="-3.8613" transform="scale(1, -1)"
	style="font-family:Times;font-weight:normal;font-style:normal;font-size:12px">database size</text>
<text x="65.352" y="-15.602" transform="scale(1, -1)"
	style="font-family:Times;font-weight:normal;font-style:normal;font-size:10px">4.00 mb</text>
<text x="140.56" y="-15.602" transform="scale(1, -1)"
	style="font-family:Times;font-weight:normal;font-style:normal;font-size:10px">260.00 mb</text>
<text x="220.76" y="-15.602" transform="scale(1, -1)"
	style="font-family:Times;font-weight:normal;font-style:normal;font-size:10px">516.00 mb</text>
<text x="300.97" y="-15.602" transform="scale(1, -1)"
	style="font-family:Times;font-weight:normal;font-style:normal;font-size:10px">772.00 mb</text>
<text x="377.42" y="-15.602" transform="scale(1, -1)"
	style="font-family:Times;font-weight:normal;font-style:normal;font-size:10px">1024.00 mb</text>
<path d="M81.741,25.23L81.741,33.23" style="fill:none;stroke:#000000;stroke-width:0.5" />
<path d="M161.95,25.23L161.95,33.23" style="fill:none;stroke:#000000;stroke-width:0.5" />
<path d="M242.15,25.23L242.15,33.23" style="fill:none;stroke:#000000;stroke-width:0.5" />
<path d="M322.36,25.23L322.36,33.23" style="fill:none;stroke:#000000;stroke-width:0.5" />
<path d="M401.31,25.23L401.31,33.23" style="fill:none;stroke:#000000;stroke-width:0.5" />
<path d="M81.114,33.23L401.31,33.23" style="fill:none;stroke:#000000;stroke-width:0.5" />
<g transform="rotate(90)">
<text x="144.86" y="11.555" transform="scale(1, -1)"
	style="font-family:Times;font-weight:normal;font-style:normal;font-size:12px">speed</text>
</g>
<text x="15.416" y="-273.84" transform="scale(1, -1)"
	style="font-family:Times;font-weight:normal;font-style:normal;font-size:10px">253.24 mb/s</text>
<path d="M67.364,278.56L75.364,278.56" style="fill:none;stroke:#000000;stroke-width:0.5" />
<path d="M75.364,38.48L75.364,278.56" style="fill:none;stroke:#000000;stroke-width:0.5" />
<path d="M81.114,38.48L81.741,226.32L82.367,194.62L82.994,209.79L83.621,250.2L84.247,250.95L84.874,249.24L85.501,257.06L86.127,254.18L86.754,258.11L87.38,252.54L88.007,257.3L88.634,256.25L89.26,262.53L89.887,270.2L90.513,263.54L91.14,261.99L91.767,249.01L92.393,228.68L93.02,251.76L93.647,254.04L94.273,249.63L94.9,256.62L95.526,228.94L96.153,241.08L96.78,259.59L97.406,266.4L98.033,250.46L98.66,256.07L99.286,244.03L99.913,262.64L100.54,258.44L101.17,253.23L101.79,241.5L102.42,266.53L103.05,258.43L103.67,251.09L104.3,247.81L104.93,247.06L105.55,240.61L106.18,266.9L106.81,246.57L107.43,250.55L108.06,249.11L108.69,210.51L109.31,247.85L109.94,255.01L110.57,234.43L111.19,257.68L111.82,272.42L112.45,254.12L113.07,255.15L113.7,265.17L114.32,222.52L114.95,267.21L115.58,258.5L116.2,257.62L116.83,245.66L117.46,265.71L118.08,256.98L118.71,255.38L119.34,252.76L119.96,265.37L120.59,264.85L121.22,255.9L121.84,182.01L122.47,217.35L123.1,248.8L123.72,259.82L124.35,255.84L124.98,265.89L125.6,259.84L126.23,256.15L126.86,251.17L127.48,266.2L128.11,258.12L128.74,245.43L129.36,263.07L129.99,260.05L130.62,255.44L131.24,252.71L131.87,267.31L132.5,265.25L133.12,265.88L133.75,255.1L134.38,255.2L135,256.46L135.63,260.37L136.26,256.73L136.88,120.96L137.51,89.375L138.14,267.7L138.76,251.99L139.39,245.3L140.02,266.38L140.64,260.34L141.27,260.8L141.9,256.1L142.52,251.39L143.15,267.31L143.78,255.29L144.4,258.59L145.03,246.83L145.66,249.67L146.28,245.92L146.91,251.84L147.54,259.94L148.16,257.79L148.79,217.41L149.42,258.02L150.04,262.23L150.67,267.76L151.3,263.23L151.92,271.45L152.55,262.5L153.18,252.53L153.8,264.01L154.43,249.12L155.05,242.41L155.68,248.14L156.31,254.48L156.93,257.79L157.56,240.94L158.19,255.52L158.81,262.18L159.44,251.81L160.07,232.05L160.69,239.22L161.32,239.56L161.95,257.03L162.57,253.97L163.2,259.69L163.83,253.74L164.45,232.73L165.08,263.92L165.71,265.47L166.33,204.71L166.96,244.31L167.59,248.36L168.21,249.74L168.84,253.63L169.47,262.92L170.09,256.27L170.72,238.39L171.35,241.36L171.97,246.22L172.6,253.22L173.23,242.66L173.85,254.63L174.48,269.91L175.11,255.06L175.73,273.87L176.36,255.16L176.99,262.15L177.61,252.49L178.24,262.38L178.87,252.18L179.49,260.05L180.12,263.02L180.75,261.72L181.37,271.45L182,248.45L182.63,253.57L183.25,272.02L183.88,255.16L184.51,262.34L185.13,264.38L185.76,275.55L186.39,245.77L187.01,240.78L187.64,251.72L188.27,262.75L188.89,255.05L189.52,260.38L190.15,267.71L190.77,252.6L191.4,255.05L192.03,255.65L192.65,244.52L193.28,253.95L193.91,254.19L194.53,256.89L195.16,264.9L195.78,235.57L196.41,238.61L197.04,244.88L197.66,258.5L198.29,258.55L198.92,237.88L199.54,256.04L200.17,251.39L200.8,256.34L201.42,256.27L202.05,251.99L202.68,251.38L203.3,254.37L203.93,265.85L204.56,265.29L205.18,251.68L205.81,263.19L206.44,263L207.06,258.53L207.69,278.56L208.32,256.07L208.94,258.54L209.57,251.02L210.2,223.54L210.82,249.74L211.45,266.26L212.08,256.95L212.7,258.85L213.33,245.01L213.96,222.82L214.58,254.74L215.21,265.27L215.84,250.07L216.46,262.18L217.09,263.27L217.72,210.8L218.34,244.72L218.97,253.52L219.6,247.26L220.22,244.6L220.85,238.32L221.48,266.34L222.1,243.99L222.73,254.49L223.36,241.93L223.98,244.88L224.61,252.71L225.24,262.17L225.86,256.72L226.49,249.63L227.12,262.63L227.74,244.48L228.37,262.34L229,204.66L229.62,260.67L230.25,263.59L230.88,249.12L231.5,257.7L232.13,260.69L232.76,249.9L233.38,268.99L234.01,255.37L234.64,266.98L235.26,229.32L235.89,258.12L236.52,232.16L237.14,211.63L237.77,254.53L238.39,259.39L239.02,251.15L239.65,250.75L240.27,260.82L240.9,247.48L241.53,259.46L242.15,255.79L242.78,214.25L243.41,238.95L244.03,258.37L244.66,241.29L245.29,258.92L245.91,257.31L246.54,267.61L247.17,248.63L247.79,237.37L248.42,250.82L249.05,240.45L249.67,254.33L250.3,257.26L250.93,238.49L251.55,250.62L252.18,261.64L252.81,253.55L253.43,248.97L254.06,242.36L254.69,258.23L255.31,255.83L255.94,251.82L256.57,259.39L257.19,256.72L257.82,245.99L258.45,222.39L259.07,249.09L259.7,252.93L260.33,242.67L260.95,234.15L261.58,245.23L262.21,254.27L262.83,246.11L263.46,253.63L264.09,253.13L264.71,257.46L265.34,260.84L265.97,256.39L266.59,255.83L267.22,267.13L267.85,226.3L268.47,214.03L269.1,232.48L269.73,214.26L270.35,217.17L270.98,228.67L271.61,216.78L272.23,206.86L272.86,227.55L273.49,213.49L274.11,155.01L274.74,229.59L275.37,236.93L275.99,239.07L276.62,256.17L277.25,255.58L277.87,252.81L278.5,241.4L279.12,241.08L279.75,253.82L280.38,260.79L281,261.43L281.63,261.26L282.26,253.21L282.88,259.09L283.51,251.67L284.14,252.37L284.76,258.18L285.39,249.51L286.02,258.07L286.64,256.19L287.27,252.91L287.9,262.97L288.52,262.73L289.15,261.25L289.78,260.7L290.4,246.7L291.03,258.55L291.66,220.88L292.28,242.77L292.91,265.42L293.54,266.65L294.16,253.14L294.79,223.7L295.42,263.39L296.04,243.92L296.67,250.2L297.3,266.33L297.92,272.52L298.55,271.9L299.18,266.92L299.8,252.01L300.43,261.07L301.06,264.22L301.68,257.43L302.31,238.15L302.94,250.65L303.56,270.82L304.19,270.25L304.82,263.27L305.44,256.53L306.07,263.55L306.7,254.07L307.32,250.93L307.95,252.89L308.58,262.4L309.2,267.68L309.83,250.8L310.46,233.44L311.08,261.49L311.71,255.19L312.34,263.56L312.96,268.69L313.59,264.38L314.22,263.85L314.84,264.74L315.47,259.44L316.1,262.17L316.72,252.46L317.35,255.99L317.98,257.18L318.6,254.13L319.23,255.43L319.85,257.92L320.48,231.21L321.11,254.55L321.73,254.42L322.36,232.01L322.99,254.42L323.61,269.35L324.24,257.18L324.87,249.69L325.49,266.19L326.12,265.42L326.75,262.94L327.37,221.98L328,266.7L328.63,264.62L329.25,263.43L329.88,247.03L330.51,255.48L331.13,262.17L331.76,253.34L332.39,262.72L333.01,261.6L333.64,257.21L334.27,264.75L334.89,247.47L335.52,217.85L336.15,256.12L336.77,255.59L337.4,244.82L338.03,244.05L338.65,268.36L339.28,261.14L339.91,240.66L340.53,255.63L341.16,257.47L341.79,197.26L342.41,196.15L343.04,187.18L343.67,195.87L344.29,211.69L344.92,177.78L345.55,209.98L346.17,198.4L346.8,185.74L347.43,199.95L348.05,248.76L348.68,241.61L349.31,261.24L349.93,254.93L350.56,261.6L351.19,253.75L351.81,260.49L352.44,268.32L353.07,257.82L353.69,254.78L354.32,266.85L354.95,271.67L355.57,219.6L356.2,245.99L356.83,264.03L357.45,264.94L358.08,251.39L358.71,265.41L359.33,245.32L359.96,267.78L360.58,253.47L361.21,260.45L361.84,258.03L362.46,264.91L363.09,263.19L363.72,250.96L364.34,256.46L364.97,252.97L365.6,236.49L366.22,264.04L366.85,248.31L367.48,253.98L368.1,264.48L368.73,262.86L369.36,255.16L369.98,243.71L370.61,247.04L371.24,256.8L371.86,257.55L372.49,249.65L373.12,261.25L373.74,236.12L374.37,236.89L375,252.75L375.62,241.64L376.25,224.31L376.88,241.5L377.5,258.52L378.13,259.78L378.76,265.99L379.38,274.43L380.01,251.02L380.64,258.94L381.26,262.34L381.89,243.86L382.52,270.58L383.14,266.34L383.77,258.43L384.4,266.92L385.02,245.93L385.65,262.79L386.28,245.74L386.9,190.53L387.53,231.5L388.16,243.91L388.78,238.62L389.41,253.93L390.04,256.33L390.66,253.53L391.29,265.59L391.92,265.17L392.54,259.91L393.17,251.89L393.8,256.28L394.42,245.75L395.05,250.24L395.68,251.33L396.3,239.84L396.93,270.16L397.56,262.17L398.18,260.94L398.81,261.06L399.44,271.13L400.06,256.57L400.69,261.78L401.31,257.23" style="fill:none;stroke:#F15A60" />
<path d="M405.2,277.58L425.2,277.58" style="fill:none;stroke:#F15A60" />
<text x="350.88" y="-271.91" transform="scale(1, -1)"
	style="font-family:Times;font-weight:normal;font-style:normal;font-size:12px">batch-1mb</text>
</g>
</svg>
