<?xml version="1.0"?>
<!-- Generated by SVGo and Plotinum VG -->
<svg width="425.2pt" height="283.46pt" viewBox="0 0 425.2 283.46"
	xmlns="http://www.w3.org/2000/svg"
	xmlns:xlink="http://www.w3.org/1999/xlink">
<g transform="scale(1, -1) translate(0, -283.46)">
<path d="M0,0L425.2,0L425.2,283.46L0,283.46Z" style="fill:#FFFFFF" />
<text x="209.73" y="-3.8613" transform="scale(1, -1)"
	style="font-family:Times;font-weight:normal;font-style:normal;font-size:12px">database size</text>
<text x="65.244" y="-15.602" transform="scale(1, -1)"
	style="font-family:Times;font-weight:normal;font-style:normal;font-size:10px">4.00 mb</text>
<text x="140.51" y="-15.602" transform="scale(1, -1)"
	style="font-family:Times;font-weight:normal;font-style:normal;font-size:10px">260.00 mb</text>
<text x="220.77" y="-15.602" transform="scale(1, -1)"
	style="font-family:Times;font-weight:normal;font-style:normal;font-size:10px">516.00 mb</text>
<text x="301.03" y="-15.602" transform="scale(1, -1)"
	style="font-family:Times;font-weight:normal;font-style:normal;font-size:10px">772.00 mb</text>
<text x="377.42" y="-15.602" transform="scale(1, -1)"
	style="font-family:Times;font-weight:normal;font-style:normal;font-size:10px">1023.63 mb</text>
<path d="M81.634,25.23L81.634,33.23" style="fill:none;stroke:#000000;stroke-width:0.5" />
<path d="M161.89,25.23L161.89,33.23" style="fill:none;stroke:#000000;stroke-width:0.5" />
<path d="M242.16,25.23L242.16,33.23" style="fill:none;stroke:#000000;stroke-width:0.5" />
<path d="M322.42,25.23L322.42,33.23" style="fill:none;stroke:#000000;stroke-width:0.5" />
<path d="M401.31,25.23L401.31,33.23" style="fill:none;stroke:#000000;stroke-width:0.5" />
<path d="M81.114,33.23L401.31,33.23" style="fill:none;stroke:#000000;stroke-width:0.5" />
<g transform="rotate(90)">
<text x="144.86" y="11.555" transform="scale(1, -1)"
	style="font-family:Times;font-weight:normal;font-style:normal;font-size:12px">speed</text>
</g>
<text x="15.416" y="-106.21" transform="scale(1, -1)"
	style="font-family:Times;font-weight:normal;font-style:normal;font-size:10px">256.00 mb/s</text>
<text x="15.416" y="-181.35" transform="scale(1, -1)"
	style="font-family:Times;font-weight:normal;font-style:normal;font-size:10px">288.00 mb/s</text>
<text x="15.416" y="-256.49" transform="scale(1, -1)"
	style="font-family:Times;font-weight:normal;font-style:normal;font-size:10px">320.00 mb/s</text>
<text x="15.416" y="-273.84" transform="scale(1, -1)"
	style="font-family:Times;font-weight:normal;font-style:normal;font-size:10px">327.39 mb/s</text>
<path d="M67.364,110.93L75.364,110.93" style="fill:none;stroke:#000000;stroke-width:0.5" />
<path d="M67.364,186.07L75.364,186.07" style="fill:none;stroke:#000000;stroke-width:0.5" />
<path d="M67.364,261.21L75.364,261.21" style="fill:none;stroke:#000000;stroke-width:0.5" />
<path d="M67.364,278.56L75.364,278.56" style="fill:none;stroke:#000000;stroke-width:0.5" />
<path d="M75.364,38.48L75.364,278.56" style="fill:none;stroke:#000000;stroke-width:0.5" />
<path d="M81.114,38.48L81.849,213.56L82.584,238.87L83.319,238.94L84.053,249.12L84.788,245.56L85.523,233.59L86.258,242.23L86.993,248.67L87.728,252.3L88.462,238.36L89.197,219.55L89.932,254.33L90.667,256.98L91.402,250.78L92.136,256.5L92.871,239.42L93.606,243.6L94.341,239.63L95.076,236.71L95.81,251.29L96.545,273.89L97.28,246.8L98.015,256.09L98.75,248.12L99.485,257.16L100.22,236.55L100.95,233.59L101.69,256.98L102.42,241.98L103.16,275L103.89,248.04L104.63,248.69L105.36,252L106.1,253.9L106.83,247.34L107.57,253.47L108.3,250.39L109.04,250.16L109.77,268.18L110.51,228.39L111.24,252.04L111.98,246.04L112.71,246.87L113.45,252.65L114.18,253.18L114.92,239.69L115.65,236.6L116.39,262.02L117.12,245.71L117.85,237.02L118.59,252.56L119.32,237.99L120.06,250.84L120.79,249.8L121.53,234.46L122.26,234.49L123,267.61L123.73,252.79L124.47,251.26L125.2,250.17L125.94,249.87L126.67,251.13L127.41,259.09L128.14,251.68L128.88,254.31L129.61,249.26L130.35,249.26L131.08,242.93L131.82,251.4L132.55,253.91L133.29,239.54L134.02,247.52L134.76,241.06L135.49,246.23L136.23,264.82L136.96,246.19L137.69,250.61L138.43,239.79L139.16,244.74L139.9,246.92L140.63,257.66L141.37,247.3L142.1,231.25L142.84,259.31L143.57,249.28L144.31,251.45L145.04,255.75L145.78,239.69L146.51,251.8L147.25,254.39L147.98,232.34L148.72,250.59L149.45,274.9L150.19,248.48L150.92,252.92L151.66,255.35L152.39,253.63L153.13,248.2L153.86,234.22L154.6,247.82L155.33,241.37L156.06,278.29L156.8,245.24L157.53,245.33L158.27,239.53L159,249.86L159.74,236.52L160.47,256.82L161.21,252.6L161.94,256.74L162.68,269.8L163.41,232.04L164.15,248.07L164.88,237.1L165.62,252.02L166.35,227.58L167.09,254.09L167.82,248.04L168.56,247.09L169.29,273.82L170.03,251.81L170.76,236.64L171.5,251.6L172.23,250.32L172.97,249.52L173.7,256.69L174.44,242.24L175.17,251.48L175.9,276.16L176.64,248.69L177.37,240.5L178.11,242.07L178.84,238.12L179.58,244.1L180.31,243.69L181.05,257.04L181.78,243.06L182.52,264.77L183.25,237.06L183.99,237.15L184.72,235.52L185.46,235.47L186.19,259.48L186.93,244.54L187.66,255.38L188.4,246.83L189.13,255.82L189.87,268.07L190.6,255.75L191.34,255.46L192.07,229.47L192.81,241.06L193.54,249.17L194.27,251.7L195.01,233.05L195.74,259.08L196.48,235.55L197.21,252.95L197.95,252.63L198.68,231.15L199.42,248.89L200.15,235.16L200.89,246.22L201.62,251.06L202.36,267.84L203.09,249.31L203.83,233.86L204.56,253.91L205.3,250.26L206.03,241.72L206.77,254.2L207.5,251.91L208.24,254.79L208.97,278.34L209.71,237.41L210.44,249.39L211.18,235.04L211.91,251.62L212.65,246.62L213.38,254.85L214.11,246.22L214.85,247.24L215.58,272.25L216.32,254.24L217.05,252.93L217.79,249.46L218.52,244.63L219.26,237.03L219.99,253.13L220.73,251.09L221.46,256.94L222.2,271.44L222.93,254.31L223.67,253.91L224.4,243.44L225.14,256.31L225.87,256.38L226.61,251.44L227.34,253.81L228.08,237.39L228.81,250.4L229.55,275.18L230.28,251.42L231.02,252.27L231.75,247.06L232.49,254.45L233.22,252.09L233.95,259.79L234.69,255.56L235.42,272.21L236.16,250.57L236.89,250.43L237.63,235.2L238.36,248.36L239.1,254.79L239.83,250.87L240.57,251.87L241.3,248.74L242.04,250.84L242.77,268.35L243.51,241.44L244.24,238.2L244.98,251.06L245.71,252.96L246.45,247.44L247.18,251.98L247.92,248.97L248.65,244.89L249.39,275.42L250.12,255.36L250.86,252.04L251.59,254.63L252.32,253.48L253.06,259.99L253.79,257.01L254.53,242.57L255.26,246.72L256,276.42L256.73,249.04L257.47,254.25L258.2,243.8L258.94,241.13L259.67,251.62L260.41,257.58L261.14,249.55L261.88,241.58L262.61,270.11L263.35,238.7L264.08,252.15L264.82,232.68L265.55,248L266.29,249.77L267.02,246.21L267.76,235.42L268.49,252.43L269.23,272.2L269.96,251.66L270.7,252.32L271.43,251.32L272.16,239.12L272.9,252.25L273.63,239.43L274.37,238.53L275.1,254.47L275.84,275.15L276.57,246.53L277.31,248.99L278.04,246.63L278.78,248.34L279.51,252.98L280.25,250.34L280.98,241.97L281.72,249.27L282.45,276.05L283.19,245.22L283.92,251.67L284.66,257.38L285.39,245.74L286.13,239.02L286.86,253.35L287.6,245.16L288.33,238.09L289.07,278.17L289.8,255.99L290.54,257.55L291.27,254.78L292,233.91L292.74,233.03L293.47,248.38L294.21,228L294.94,244.35L295.68,265.88L296.41,254.59L297.15,251.66L297.88,250.84L298.62,251.85L299.35,243.32L300.09,251.59L300.82,240.55L301.56,259.08L302.29,275.36L303.03,243.08L303.76,245.78L304.5,236.74L305.23,251.58L305.97,250.39L306.7,254.62L307.44,243.61L308.17,271.64L308.91,240.85L309.64,254.92L310.37,254.97L311.11,257.35L311.84,244.08L312.58,245.27L313.31,236.5L314.05,251.94L314.78,278.56L315.52,249.85L316.25,240.53L316.99,240.96L317.72,251.32L318.46,235.94L319.19,238.37L319.93,238.4L320.66,242.34L321.4,246.67L322.13,252.15L322.87,251.37L323.6,246.83L324.34,247.46L325.07,251.66L325.81,233.21L326.54,249.59L327.28,247.74L328.01,269.31L328.75,239.15L329.48,249.68L330.21,254.52L330.95,253.75L331.68,236.43L332.42,236.61L333.15,232.48L333.89,250.14L334.62,272.18L335.36,230.45L336.09,251.73L336.83,247.2L337.56,246.03L338.3,242.2L339.03,254.88L339.77,252.63L340.5,248.67L341.24,274.36L341.97,250.7L342.71,242.36L343.44,253.36L344.18,252.42L344.91,245.84L345.65,245.63L346.38,250.96L347.12,251.43L347.85,275.93L348.59,245.48L349.32,253.53L350.05,232.65L350.79,245.99L351.52,254.43L352.26,241.88L352.99,251.38L353.73,251.84L354.46,265.62L355.2,251.64L355.93,256.22L356.67,237.2L357.4,239.54L358.14,250.94L358.87,250.22L359.61,243.05L360.34,254.77L361.08,277.69L361.81,250.76L362.55,250.44L363.28,245.29L364.02,253.58L364.75,227.09L365.49,251.9L366.22,233.93L366.96,244.03L367.69,257.23L368.42,236.77L369.16,246.7L369.89,250.67L370.63,255.32L371.36,245.21L372.1,248.87L372.83,251.5L373.57,239.46L374.3,259.41L375.04,256.8L375.77,234.59L376.51,245.11L377.24,229.42L377.98,240.35L378.71,237.87L379.45,244.22L380.18,244.37L380.92,275.25L381.65,237.58L382.39,247.41L383.12,253.56L383.86,250.98L384.59,260.61L385.33,256.46L386.06,250.94L386.8,253.41L387.53,274.03L388.26,250.13L389,250.17L389.73,252.42L390.47,237.11L391.2,252.01L391.94,248.57L392.67,247.14L393.41,246.21L394.14,273.81L394.88,253.88L395.61,241.63L396.35,236.73L397.08,253.23L397.82,251.96L398.55,247.54L399.29,254.89L400.02,234.18L400.76,254.83L401.31,265.77" style="fill:none;stroke:#F15A60" />
<path d="M405.2,277.58L425.2,277.58" style="fill:none;stroke:#F15A60" />
<text x="278.24" y="-271.91" transform="scale(1, -1)"
	style="font-family:Times;font-weight:normal;font-style:normal;font-size:12px">batch-100kb-ctable-64mb</text>
</g>
</svg>
