<?xml version="1.0"?>
<!-- Generated by SVGo and Plotinum VG -->
<svg width="425.2pt" height="283.46pt" viewBox="0 0 425.2 283.46"
	xmlns="http://www.w3.org/2000/svg"
	xmlns:xlink="http://www.w3.org/1999/xlink">
<g transform="scale(1, -1) translate(0, -283.46)">
<path d="M0,0L425.2,0L425.2,283.46L0,283.46Z" style="fill:#FFFFFF" />
<text x="209.73" y="-3.8613" transform="scale(1, -1)"
	style="font-family:Times;font-weight:normal;font-style:normal;font-size:12px">database size</text>
<text x="65.668" y="-15.602" transform="scale(1, -1)"
	style="font-family:Times;font-weight:normal;font-style:normal;font-size:10px">8.00 mb</text>
<text x="141.11" y="-15.602" transform="scale(1, -1)"
	style="font-family:Times;font-weight:normal;font-style:normal;font-size:10px">264.00 mb</text>
<text x="221.55" y="-15.602" transform="scale(1, -1)"
	style="font-family:Times;font-weight:normal;font-style:normal;font-size:10px">520.00 mb</text>
<text x="301.99" y="-15.602" transform="scale(1, -1)"
	style="font-family:Times;font-weight:normal;font-style:normal;font-size:10px">776.00 mb</text>
<text x="377.42" y="-15.602" transform="scale(1, -1)"
	style="font-family:Times;font-weight:normal;font-style:normal;font-size:10px">1024.00 mb</text>
<path d="M82.057,25.23L82.057,33.23" style="fill:none;stroke:#000000;stroke-width:0.5" />
<path d="M162.5,25.23L162.5,33.23" style="fill:none;stroke:#000000;stroke-width:0.5" />
<path d="M242.94,25.23L242.94,33.23" style="fill:none;stroke:#000000;stroke-width:0.5" />
<path d="M323.38,25.23L323.38,33.23" style="fill:none;stroke:#000000;stroke-width:0.5" />
<path d="M401.31,25.23L401.31,33.23" style="fill:none;stroke:#000000;stroke-width:0.5" />
<path d="M81.114,33.23L401.31,33.23" style="fill:none;stroke:#000000;stroke-width:0.5" />
<g transform="rotate(90)">
<text x="144.86" y="11.555" transform="scale(1, -1)"
	style="font-family:Times;font-weight:normal;font-style:normal;font-size:12px">speed</text>
</g>
<text x="15.416" y="-273.84" transform="scale(1, -1)"
	style="font-family:Times;font-weight:normal;font-style:normal;font-size:10px">243.84 mb/s</text>
<path d="M67.364,278.56L75.364,278.56" style="fill:none;stroke:#000000;stroke-width:0.5" />
<path d="M75.364,38.48L75.364,278.56" style="fill:none;stroke:#000000;stroke-width:0.5" />
<path d="M81.114,38.48L82.685,151.54L84.257,210.98L85.828,251.09L87.399,243.99L88.97,262.42L90.541,266.73L92.112,267.65L93.683,262.3L95.254,252.55L96.825,262.35L98.397,251.16L99.968,265.44L101.54,263.51L103.11,269.34L104.68,239.3L106.25,256.03L107.82,266.74L109.39,273.98L110.97,260.54L112.54,270.05L114.11,265.27L115.68,267.96L117.25,254.25L118.82,255.3L120.39,263.51L121.96,260.99L123.53,262.69L125.11,265.99L126.68,257.16L128.25,269.22L129.82,262.15L131.39,255.41L132.96,264.58L134.53,250.5L136.1,261.14L137.67,254.85L139.25,261.38L140.82,266.96L142.39,267.65L143.96,272.93L145.53,256.2L147.1,269.22L148.67,270.45L150.24,254.17L151.81,266.75L153.39,272.7L154.96,261.67L156.53,248.96L158.1,272.58L159.67,272.57L161.24,250.15L162.81,245.92L164.38,246L165.95,259.25L167.53,236.71L169.1,236.78L170.67,231L172.24,255.52L173.81,253.59L175.38,260.61L176.95,267.35L178.52,269.08L180.09,267.89L181.67,249.78L183.24,272.4L184.81,254.87L186.38,254.53L187.95,270.16L189.52,244.2L191.09,278.56L192.66,268.59L194.24,248.48L195.81,260.35L197.38,261.41L198.95,263.78L200.52,261.72L202.09,267.49L203.66,264.65L205.23,260.76L206.8,268.02L208.38,253.14L209.95,265.7L211.52,269.61L213.09,253.7L214.66,263.17L216.23,265.91L217.8,262.93L219.37,271.15L220.94,262.13L222.52,255.93L224.09,260.54L225.66,271.74L227.23,262.36L228.8,260.49L230.37,256.77L231.94,249.62L233.51,264.42L235.08,263.62L236.66,263.04L238.23,266.95L239.8,263.16L241.37,256.15L242.94,243.77L244.51,267.25L246.08,266.9L247.65,267.07L249.22,249.08L250.8,271.47L252.37,267.57L253.94,243.56L255.51,275.48L257.08,267.82L258.65,263.96L260.22,265.69L261.79,263.84L263.36,269.4L264.94,259.86L266.51,247.02L268.08,249.72L269.65,271.86L271.22,260.38L272.79,254.19L274.36,231.58L275.93,254.14L277.5,267.19L279.08,265.68L280.65,261.07L282.22,274.51L283.79,269.62L285.36,270.57L286.93,264.53L288.5,256.03L290.07,260.21L291.64,264.97L293.22,263.73L294.79,270.93L296.36,262.93L297.93,270.69L299.5,267.43L301.07,267.88L302.64,259.51L304.21,259.41L305.78,244.1L307.36,270.33L308.93,270.21L310.5,245.93L312.07,253.37L313.64,264.66L315.21,267.87L316.78,252.92L318.35,261.9L319.92,262.13L321.5,245.71L323.07,240.42L324.64,266.32L326.21,272.08L327.78,266.04L329.35,263.5L330.92,262.47L332.49,240.25L334.06,264.54L335.64,266.49L337.21,264.66L338.78,262.71L340.35,262.35L341.92,272.68L343.49,268.47L345.06,267.54L346.63,246.68L348.2,265.06L349.78,271.09L351.35,267.53L352.92,249.84L354.49,249.41L356.06,253.48L357.63,255.14L359.2,252.7L360.77,266.84L362.35,262.25L363.92,259.69L365.49,254.08L367.06,265.11L368.63,261.91L370.2,270.1L371.77,267.61L373.34,263.02L374.91,267.19L376.49,262.59L378.06,270.62L379.63,267.88L381.2,263.34L382.77,266.43L384.34,266.04L385.91,268.64L387.48,260.54L389.05,270.45L390.63,263.04L392.2,261.61L393.77,223.72L395.34,269.44L396.91,267.04L398.48,268.04L400.05,262.81L401.31,242.81" style="fill:none;stroke:#F15A60" />
<path d="M405.2,277.58L425.2,277.58" style="fill:none;stroke:#F15A60" />
<text x="325.55" y="-271.91" transform="scale(1, -1)"
	style="font-family:Times;font-weight:normal;font-style:normal;font-size:12px">batch-5mb-notx</text>
</g>
</svg>
