<?xml version="1.0"?>
<!-- Generated by SVGo and Plotinum VG -->
<svg width="425.2pt" height="283.46pt" viewBox="0 0 425.2 283.46"
	xmlns="http://www.w3.org/2000/svg"
	xmlns:xlink="http://www.w3.org/1999/xlink">
<g transform="scale(1, -1) translate(0, -283.46)">
<path d="M0,0L425.2,0L425.2,283.46L0,283.46Z" style="fill:#FFFFFF" />
<text x="209.73" y="-3.8613" transform="scale(1, -1)"
	style="font-family:Times;font-weight:normal;font-style:normal;font-size:12px">database size</text>
<text x="65.244" y="-15.602" transform="scale(1, -1)"
	style="font-family:Times;font-weight:normal;font-style:normal;font-size:10px">4.00 mb</text>
<text x="140.51" y="-15.602" transform="scale(1, -1)"
	style="font-family:Times;font-weight:normal;font-style:normal;font-size:10px">260.00 mb</text>
<text x="220.77" y="-15.602" transform="scale(1, -1)"
	style="font-family:Times;font-weight:normal;font-style:normal;font-size:10px">516.00 mb</text>
<text x="301.03" y="-15.602" transform="scale(1, -1)"
	style="font-family:Times;font-weight:normal;font-style:normal;font-size:10px">772.00 mb</text>
<text x="377.42" y="-15.602" transform="scale(1, -1)"
	style="font-family:Times;font-weight:normal;font-style:normal;font-size:10px">1023.63 mb</text>
<path d="M81.634,25.23L81.634,33.23" style="fill:none;stroke:#000000;stroke-width:0.5" />
<path d="M161.89,25.23L161.89,33.23" style="fill:none;stroke:#000000;stroke-width:0.5" />
<path d="M242.16,25.23L242.16,33.23" style="fill:none;stroke:#000000;stroke-width:0.5" />
<path d="M322.42,25.23L322.42,33.23" style="fill:none;stroke:#000000;stroke-width:0.5" />
<path d="M401.31,25.23L401.31,33.23" style="fill:none;stroke:#000000;stroke-width:0.5" />
<path d="M81.114,33.23L401.31,33.23" style="fill:none;stroke:#000000;stroke-width:0.5" />
<g transform="rotate(90)">
<text x="144.86" y="11.555" transform="scale(1, -1)"
	style="font-family:Times;font-weight:normal;font-style:normal;font-size:12px">speed</text>
</g>
<text x="15.416" y="-91.824" transform="scale(1, -1)"
	style="font-family:Times;font-weight:normal;font-style:normal;font-size:10px">256.00 mb/s</text>
<text x="15.416" y="-170.33" transform="scale(1, -1)"
	style="font-family:Times;font-weight:normal;font-style:normal;font-size:10px">288.00 mb/s</text>
<text x="15.416" y="-248.83" transform="scale(1, -1)"
	style="font-family:Times;font-weight:normal;font-style:normal;font-size:10px">320.00 mb/s</text>
<text x="15.416" y="-273.84" transform="scale(1, -1)"
	style="font-family:Times;font-weight:normal;font-style:normal;font-size:10px">330.19 mb/s</text>
<path d="M67.364,96.546L75.364,96.546" style="fill:none;stroke:#000000;stroke-width:0.5" />
<path d="M67.364,175.05L75.364,175.05" style="fill:none;stroke:#000000;stroke-width:0.5" />
<path d="M67.364,253.55L75.364,253.55" style="fill:none;stroke:#000000;stroke-width:0.5" />
<path d="M67.364,278.56L75.364,278.56" style="fill:none;stroke:#000000;stroke-width:0.5" />
<path d="M75.364,38.48L75.364,278.56" style="fill:none;stroke:#000000;stroke-width:0.5" />
<path d="M81.114,38.48L81.849,168.84L82.584,248.52L83.319,245.2L84.053,271.1L84.788,251.6L85.523,239.94L86.258,249.82L86.993,254.84L87.728,250.04L88.462,254.96L89.197,247.66L89.932,250.45L90.667,267.8L91.402,236.29L92.136,250.87L92.871,251.92L93.606,242.74L94.341,254.12L95.076,261.2L95.81,245.83L96.545,257.11L97.28,276.39L98.015,251.36L98.75,237.62L99.485,254.95L100.22,253.77L100.95,251.42L101.69,232.1L102.42,256.56L103.16,250L103.89,260.1L104.63,248.37L105.36,247.94L106.1,244.27L106.83,246.73L107.57,251.34L108.3,240.54L109.04,252.9L109.77,271.58L110.51,255.69L111.24,246.85L111.98,249.88L112.71,247.26L113.45,249.28L114.18,233.56L114.92,250.87L115.65,242.02L116.39,257.61L117.12,243.61L117.85,250.67L118.59,236.61L119.32,245.55L120.06,251.95L120.79,240.08L121.53,256.18L122.26,229.63L123,270.15L123.73,258.75L124.47,251.54L125.2,248.53L125.94,239.94L126.67,246.17L127.41,250.38L128.14,255.1L128.88,228.29L129.61,276.68L130.35,255.44L131.08,244.43L131.82,243.83L132.55,249.78L133.29,239.67L134.02,252.45L134.76,252.75L135.49,240.16L136.23,276.13L136.96,250.41L137.69,247.45L138.43,228.8L139.16,253.58L139.9,254.87L140.63,233.79L141.37,262.47L142.1,241.41L142.84,255.07L143.57,248.77L144.31,218.75L145.04,252.39L145.78,251.59L146.51,249.6L147.25,256.75L147.98,250.09L148.72,244.88L149.45,269.22L150.19,251.72L150.92,251.29L151.66,244.49L152.39,246.05L153.13,242.62L153.86,247.59L154.6,240.32L155.33,251.64L156.06,266L156.8,237.17L157.53,247.86L158.27,247.41L159,244.5L159.74,256.82L160.47,232.26L161.21,254.91L161.94,249.79L162.68,265.78L163.41,252.76L164.15,246.44L164.88,260.92L165.62,242.12L166.35,244.03L167.09,248.03L167.82,246.34L168.56,252.13L169.29,269.14L170.03,241.25L170.76,245.35L171.5,254.18L172.23,236.01L172.97,254.11L173.7,234.08L174.44,243.53L175.17,232.92L175.9,259.57L176.64,233.51L177.37,244.29L178.11,234.22L178.84,236.21L179.58,238.3L180.31,230.14L181.05,234.56L181.78,237.52L182.52,263.97L183.25,246.84L183.99,223.78L184.72,247.86L185.46,248.19L186.19,252.68L186.93,233.29L187.66,250.13L188.4,249.61L189.13,275.06L189.87,245.66L190.6,248.31L191.34,255.98L192.07,253.75L192.81,220.75L193.54,247L194.27,241.69L195.01,242.9L195.74,275.39L196.48,243.03L197.21,249.3L197.95,253.3L198.68,252.4L199.42,242.06L200.15,252.48L200.89,246.91L201.62,248.16L202.36,262.69L203.09,254.9L203.83,246L204.56,246.64L205.3,227.29L206.03,226.2L206.77,249.83L207.5,246.36L208.24,252.71L208.97,278.05L209.71,232.64L210.44,245.03L211.18,237.25L211.91,237.06L212.65,249.52L213.38,236.17L214.11,236.58L214.85,221.45L215.58,272.57L216.32,235.27L217.05,249.37L217.79,242.03L218.52,259.76L219.26,251.32L219.99,253.83L220.73,248.03L221.46,238.69L222.2,266.67L222.93,253.23L223.67,253.63L224.4,251.22L225.14,252.15L225.87,257.26L226.61,250.63L227.34,235.32L228.08,249.79L228.81,277.15L229.55,250.4L230.28,218.98L231.02,224.9L231.75,243.68L232.49,257.33L233.22,254.36L233.95,237.34L234.69,246.4L235.42,265.79L236.16,230.94L236.89,235.01L237.63,252.65L238.36,233.23L239.1,251.54L239.83,236.38L240.57,233.42L241.3,243.1L242.04,274.01L242.77,257.6L243.51,237.18L244.24,247.08L244.98,248.52L245.71,247.68L246.45,233.08L247.18,242.93L247.92,250.05L248.65,266.78L249.39,252.62L250.12,249.25L250.86,245.19L251.59,251.73L252.32,257.94L253.06,237.38L253.79,251.06L254.53,231.32L255.26,246.55L256,260.59L256.73,235.83L257.47,249.38L258.2,231.81L258.94,242.39L259.67,244.87L260.41,250.49L261.14,237.85L261.88,234.49L262.61,274.55L263.35,246.29L264.08,245.25L264.82,245.93L265.55,242L266.29,245.51L267.02,239.34L267.76,249.43L268.49,242.01L269.23,273.62L269.96,245.86L270.7,243.07L271.43,257.73L272.16,217.81L272.9,246.41L273.63,241.52L274.37,235.74L275.1,51.933L275.84,220.85L276.57,235.93L277.31,266.86L278.04,232.9L278.78,237.79L279.51,244.77L280.25,231.91L280.98,252.63L281.72,253.68L282.45,252.24L283.19,231.92L283.92,246.25L284.66,276.93L285.39,235.55L286.13,253.31L286.86,249.29L287.6,243.84L288.33,248.11L289.07,254.56L289.8,250.77L290.54,277.7L291.27,246.81L292,247.69L292.74,239.87L293.47,248.83L294.21,248.26L294.94,248.56L295.68,237.27L296.41,246.12L297.15,269.12L297.88,254.89L298.62,248.04L299.35,240.03L300.09,247.44L300.82,250.34L301.56,253.62L302.29,251.16L303.03,246.56L303.76,273.73L304.5,249.12L305.23,246.34L305.97,231.26L306.7,232.6L307.44,250.97L308.17,241.51L308.91,237.08L309.64,245.06L310.37,244.88L311.11,261.53L311.84,197.11L312.58,249.34L313.31,231.56L314.05,235.84L314.78,246.02L315.52,242.67L316.25,228.78L316.99,237.5L317.72,257L318.46,238.42L319.19,254.53L319.93,241.03L320.66,234.81L321.4,247.49L322.13,233.1L322.87,222.29L323.6,243.82L324.34,274.56L325.07,247.56L325.81,245.57L326.54,253.6L327.28,237.74L328.01,247.16L328.75,250.13L329.48,238.55L330.21,234.95L330.95,264.07L331.68,239.95L332.42,248.05L333.15,249.78L333.89,244.7L334.62,224.01L335.36,244.3L336.09,241.94L336.83,264.1L337.56,244.14L338.3,250.21L339.03,248.76L339.77,243.88L340.5,250.61L341.24,244.1L341.97,247.32L342.71,251.97L343.44,275.06L344.18,244.54L344.91,247.98L345.65,245.15L346.38,240.33L347.12,244.46L347.85,249.12L348.59,246L349.32,232.39L350.05,242.42L350.79,269.2L351.52,248.79L352.26,252.56L352.99,238.5L353.73,255.7L354.46,259.43L355.2,260.09L355.93,249.31L356.67,235.11L357.4,278.56L358.14,255.95L358.87,254.94L359.61,238.69L360.34,237.4L361.08,252.52L361.81,255.51L362.55,251.78L363.28,250.35L364.02,272.02L364.75,249.65L365.49,251.24L366.22,245.97L366.96,247.96L367.69,237.05L368.42,247.28L369.16,253.06L369.89,230.79L370.63,262.06L371.36,252.92L372.1,250.85L372.83,233.36L373.57,235.86L374.3,245.87L375.04,251.44L375.77,239.07L376.51,215.82L377.24,270.7L377.98,249.16L378.71,241.65L379.45,253.31L380.18,235.98L380.92,257.75L381.65,247.53L382.39,247.69L383.12,254.61L383.86,265.48L384.59,254.55L385.33,256.13L386.06,226.74L386.8,238.93L387.53,250.8L388.26,250.61L389,243.37L389.73,230.12L390.47,273.5L391.2,249.29L391.94,247.62L392.67,249.03L393.41,231.04L394.14,241.49L394.88,252.33L395.61,250.74L396.35,218.06L397.08,270.08L397.82,255.83L398.55,251.73L399.29,249.17L400.02,237.85L400.76,244.48L401.31,261.97" style="fill:none;stroke:#F15A60" />
<path d="M405.2,277.58L425.2,277.58" style="fill:none;stroke:#F15A60" />
<text x="342.21" y="-271.91" transform="scale(1, -1)"
	style="font-family:Times;font-weight:normal;font-style:normal;font-size:12px">batch-100kb</text>
</g>
</svg>
