<?xml version="1.0"?>
<!-- Generated by SVGo and Plotinum VG -->
<svg width="425.2pt" height="283.46pt" viewBox="0 0 425.2 283.46"
	xmlns="http://www.w3.org/2000/svg"
	xmlns:xlink="http://www.w3.org/1999/xlink">
<g transform="scale(1, -1) translate(0, -283.46)">
<path d="M0,0L425.2,0L425.2,283.46L0,283.46Z" style="fill:#FFFFFF" />
<text x="209.73" y="-3.8613" transform="scale(1, -1)"
	style="font-family:Times;font-weight:normal;font-style:normal;font-size:12px">database size</text>
<text x="65.352" y="-15.602" transform="scale(1, -1)"
	style="font-family:Times;font-weight:normal;font-style:normal;font-size:10px">4.00 mb</text>
<text x="140.56" y="-15.602" transform="scale(1, -1)"
	style="font-family:Times;font-weight:normal;font-style:normal;font-size:10px">260.00 mb</text>
<text x="220.76" y="-15.602" transform="scale(1, -1)"
	style="font-family:Times;font-weight:normal;font-style:normal;font-size:10px">516.00 mb</text>
<text x="300.97" y="-15.602" transform="scale(1, -1)"
	style="font-family:Times;font-weight:normal;font-style:normal;font-size:10px">772.00 mb</text>
<text x="377.42" y="-15.602" transform="scale(1, -1)"
	style="font-family:Times;font-weight:normal;font-style:normal;font-size:10px">1024.00 mb</text>
<path d="M81.741,25.23L81.741,33.23" style="fill:none;stroke:#000000;stroke-width:0.5" />
<path d="M161.95,25.23L161.95,33.23" style="fill:none;stroke:#000000;stroke-width:0.5" />
<path d="M242.15,25.23L242.15,33.23" style="fill:none;stroke:#000000;stroke-width:0.5" />
<path d="M322.36,25.23L322.36,33.23" style="fill:none;stroke:#000000;stroke-width:0.5" />
<path d="M401.31,25.23L401.31,33.23" style="fill:none;stroke:#000000;stroke-width:0.5" />
<path d="M81.114,33.23L401.31,33.23" style="fill:none;stroke:#000000;stroke-width:0.5" />
<g transform="rotate(90)">
<text x="144.86" y="11.555" transform="scale(1, -1)"
	style="font-family:Times;font-weight:normal;font-style:normal;font-size:12px">speed</text>
</g>
<text x="15.416" y="-273.84" transform="scale(1, -1)"
	style="font-family:Times;font-weight:normal;font-style:normal;font-size:10px">253.07 mb/s</text>
<path d="M67.364,278.56L75.364,278.56" style="fill:none;stroke:#000000;stroke-width:0.5" />
<path d="M75.364,38.48L75.364,278.56" style="fill:none;stroke:#000000;stroke-width:0.5" />
<path d="M81.114,38.48L81.741,161.18L82.367,229.6L82.994,232.81L83.621,251.93L84.247,252.21L84.874,247.18L85.501,267.19L86.127,255.75L86.754,257.66L87.38,251.59L88.007,249.53L88.634,271.82L89.26,264.13L89.887,262.38L90.513,254.31L91.14,257.04L91.767,252.01L92.393,259.2L93.02,266.37L93.647,235.57L94.273,254.4L94.9,272.2L95.526,274.67L96.153,261.15L96.78,242.62L97.406,265.35L98.033,258.89L98.66,267.36L99.286,261.59L99.913,250.4L100.54,227.39L101.17,256.11L101.79,253.47L102.42,262.96L103.05,258.36L103.67,260.28L104.3,260.21L104.93,239.86L105.55,240.19L106.18,260.15L106.81,254.72L107.43,261.85L108.06,272.83L108.69,258.28L109.31,255.83L109.94,243.29L110.57,261.3L111.19,247L111.82,257.9L112.45,246.02L113.07,272.8L113.7,242.06L114.32,252.07L114.95,247.89L115.58,251.02L116.2,263.05L116.83,266.19L117.46,254.24L118.08,255.09L118.71,243.2L119.34,251.95L119.96,240.78L120.59,261.75L121.22,256.86L121.84,254.31L122.47,259.28L123.1,261.49L123.72,243.01L124.35,249.85L124.98,229.72L125.6,240.08L126.23,251.63L126.86,261.47L127.48,243.94L128.11,248.29L128.74,244.98L129.36,250.48L129.99,275.77L130.62,276.08L131.24,258.82L131.87,258.71L132.5,266.71L133.12,266.71L133.75,263.51L134.38,256.86L135,258.32L135.63,253.42L136.26,258.21L136.88,250.48L137.51,254.21L138.14,265.95L138.76,257.61L139.39,262.57L140.02,251.29L140.64,251.22L141.27,245.07L141.9,248.82L142.52,257.01L143.15,255.12L143.78,267.72L144.4,253.43L145.03,263.57L145.66,268.15L146.28,258.63L146.91,215.69L147.54,234.88L148.16,251.21L148.79,273.19L149.42,262.02L150.04,263.59L150.67,253.75L151.3,269.68L151.92,250.55L152.55,259.39L153.18,267.83L153.8,258.82L154.43,250.58L155.05,256.03L155.68,269.12L156.31,247.59L156.93,261.62L157.56,259.29L158.19,238.17L158.81,224.39L159.44,253.12L160.07,246.63L160.69,264.03L161.32,251.38L161.95,246.23L162.57,261.83L163.2,262.83L163.83,266.85L164.45,259.76L165.08,261L165.71,255.58L166.33,264.62L166.96,261.54L167.59,255.21L168.21,256.4L168.84,247.55L169.47,265.89L170.09,252.39L170.72,253.3L171.35,245.24L171.97,262.57L172.6,251.43L173.23,252.13L173.85,258.43L174.48,251.73L175.11,252.73L175.73,259.51L176.36,277.52L176.99,247.9L177.61,258.17L178.24,258.75L178.87,226.04L179.49,251.53L180.12,265.22L180.75,232.42L181.37,237.99L182,245.1L182.63,269.89L183.25,252.67L183.88,211.45L184.51,239.61L185.13,262.09L185.76,266.06L186.39,262.33L187.01,259.25L187.64,260.8L188.27,252.59L188.89,238.1L189.52,256.04L190.15,251.8L190.77,261.29L191.4,253.29L192.03,246.91L192.65,247.69L193.28,260.29L193.91,260.94L194.53,270.24L195.16,253.3L195.78,237.45L196.41,254.21L197.04,252.26L197.66,196.02L198.29,233.23L198.92,254.58L199.54,252.05L200.17,255.92L200.8,254.62L201.42,261.67L202.05,252.91L202.68,258.36L203.3,260.21L203.93,249.89L204.56,268.08L205.18,236.86L205.81,259.93L206.44,257.43L207.06,263.03L207.69,254.11L208.32,267.92L208.94,265.78L209.57,240.14L210.2,248.77L210.82,276.66L211.45,239.59L212.08,252.85L212.7,243.38L213.33,266.96L213.96,250.12L214.58,260.55L215.21,253.43L215.84,259.63L216.46,245.79L217.09,261.49L217.72,249.73L218.34,256.11L218.97,264.29L219.6,249.86L220.22,251.48L220.85,260.07L221.48,250.47L222.1,241.98L222.73,258.85L223.36,249.47L223.98,264.09L224.61,244.01L225.24,252.73L225.86,249.35L226.49,266.85L227.12,254.11L227.74,258.26L228.37,273.88L229,264.32L229.62,248.02L230.25,252.74L230.88,256.04L231.5,247.57L232.13,274.66L232.76,272.21L233.38,261.62L234.01,270.63L234.64,230.82L235.26,258.17L235.89,261.19L236.52,258.5L237.14,253.23L237.77,274.73L238.39,249.09L239.02,267.78L239.65,250.31L240.27,255.47L240.9,261.56L241.53,274.36L242.15,238.73L242.78,267.35L243.41,269.25L244.03,240.46L244.66,257L245.29,256.01L245.91,252.83L246.54,248.25L247.17,266.48L247.79,264.84L248.42,249.33L249.05,275.17L249.67,256.96L250.3,236.05L250.93,237.58L251.55,246.83L252.18,223.56L252.81,248.61L253.43,246.63L254.06,240.01L254.69,251.59L255.31,258.35L255.94,259.28L256.57,259.96L257.19,253.04L257.82,258.86L258.45,234.91L259.07,257.31L259.7,266.02L260.33,256.05L260.95,254.66L261.58,253.04L262.21,259.07L262.83,271.7L263.46,256.41L264.09,255.68L264.71,255.58L265.34,231.4L265.97,269.95L266.59,251.8L267.22,258.41L267.85,263.47L268.47,255.7L269.1,262.43L269.73,258.49L270.35,252.84L270.98,260.21L271.61,254.21L272.23,260.06L272.86,252.5L273.49,244.29L274.11,252.04L274.74,233.51L275.37,246.12L275.99,248.49L276.62,254.2L277.25,242.57L277.87,235.73L278.5,248.25L279.12,248.96L279.75,244.35L280.38,230.74L281,253.35L281.63,251.87L282.26,248.09L282.88,261.89L283.51,223.01L284.14,249.53L284.76,255.14L285.39,214.87L286.02,256.96L286.64,256.96L287.27,254.55L287.9,260.14L288.52,251.67L289.15,257.89L289.78,263.03L290.4,246.57L291.03,264.93L291.66,268.78L292.28,244.71L292.91,250.22L293.54,278.56L294.16,275.09L294.79,233.17L295.42,262.61L296.04,254.79L296.67,261.55L297.3,265.11L297.92,242.61L298.55,237.45L299.18,249.5L299.8,262.76L300.43,249.88L301.06,258.61L301.68,224.61L302.31,249.95L302.94,254.23L303.56,265.59L304.19,268.79L304.82,246.06L305.44,244.86L306.07,247L306.7,260.5L307.32,254.85L307.95,256.95L308.58,265.42L309.2,230.73L309.83,257.24L310.46,258.53L311.08,271.04L311.71,258.05L312.34,257.43L312.96,261.15L313.59,256.03L314.22,247.73L314.84,266.3L315.47,252.9L316.1,254.77L316.72,260.32L317.35,275.04L317.98,274.62L318.6,263.14L319.23,230.55L319.85,242.68L320.48,255.76L321.11,248.34L321.73,223.66L322.36,226.42L322.99,251.9L323.61,241.19L324.24,244.05L324.87,236.02L325.49,219.62L326.12,238.04L326.75,240.25L327.37,248.78L328,257.25L328.63,259.94L329.25,252.38L329.88,256.4L330.51,257.87L331.13,244.03L331.76,256.39L332.39,257.34L333.01,257.61L333.64,248.34L334.27,255.47L334.89,253.61L335.52,180.15L336.15,244.75L336.77,237.87L337.4,246.56L338.03,255.72L338.65,254.37L339.28,249.83L339.91,245.14L340.53,240.88L341.16,231.56L341.79,245.16L342.41,252.02L343.04,265.33L343.67,249.42L344.29,266.25L344.92,255.08L345.55,256.67L346.17,260.09L346.8,252.85L347.43,235.74L348.05,257.54L348.68,248.24L349.31,261.74L349.93,258.69L350.56,243.95L351.19,263.6L351.81,263.99L352.44,262.79L353.07,258.13L353.69,251.03L354.32,254.67L354.95,243.39L355.57,251.13L356.2,237.02L356.83,238.3L357.45,264.38L358.08,255.19L358.71,260.54L359.33,260.17L359.96,271.42L360.58,276.54L361.21,275.3L361.84,262.56L362.46,264.94L363.09,260.5L363.72,256.04L364.34,258.07L364.97,248.33L365.6,227.1L366.22,245.18L366.85,252.84L367.48,253.65L368.1,247.1L368.73,245.24L369.36,235.94L369.98,257.43L370.61,258.45L371.24,263.66L371.86,249.59L372.49,267.81L373.12,262.24L373.74,257.29L374.37,264.08L375,253.3L375.62,266.2L376.25,254.27L376.88,249.33L377.5,264.28L378.13,255.76L378.76,250.43L379.38,254.17L380.01,258.38L380.64,252.53L381.26,261.15L381.89,263.52L382.52,253.29L383.14,261.62L383.77,261.15L384.4,252.76L385.02,164.23L385.65,268.78L386.28,246.56L386.9,257.77L387.53,255.61L388.16,265.5L388.78,246.96L389.41,249.94L390.04,247.96L390.66,246.5L391.29,223.93L391.92,231.66L392.54,254.06L393.17,243.55L393.8,260.3L394.42,263.99L395.05,259.76L395.68,254.56L396.3,266.77L396.93,259L397.56,261.66L398.18,263.48L398.81,253.11L399.44,245.42L400.06,265.42L400.69,268.63L401.31,251.84" style="fill:none;stroke:#F15A60" />
<path d="M405.2,277.58L425.2,277.58" style="fill:none;stroke:#F15A60" />
<text x="325.55" y="-271.91" transform="scale(1, -1)"
	style="font-family:Times;font-weight:normal;font-style:normal;font-size:12px">batch-1mb-notx</text>
</g>
</svg>
