<?xml version="1.0"?>
<!-- Generated by SVGo and Plotinum VG -->
<svg width="425.2pt" height="283.46pt" viewBox="0 0 425.2 283.46"
	xmlns="http://www.w3.org/2000/svg"
	xmlns:xlink="http://www.w3.org/1999/xlink">
<g transform="scale(1, -1) translate(0, -283.46)">
<path d="M0,0L425.2,0L425.2,283.46L0,283.46Z" style="fill:#FFFFFF" />
<text x="209.73" y="-3.8613" transform="scale(1, -1)"
	style="font-family:Times;font-weight:normal;font-style:normal;font-size:12px">database size</text>
<text x="65.244" y="-15.602" transform="scale(1, -1)"
	style="font-family:Times;font-weight:normal;font-style:normal;font-size:10px">4.00 mb</text>
<text x="140.51" y="-15.602" transform="scale(1, -1)"
	style="font-family:Times;font-weight:normal;font-style:normal;font-size:10px">260.00 mb</text>
<text x="220.77" y="-15.602" transform="scale(1, -1)"
	style="font-family:Times;font-weight:normal;font-style:normal;font-size:10px">516.00 mb</text>
<text x="301.03" y="-15.602" transform="scale(1, -1)"
	style="font-family:Times;font-weight:normal;font-style:normal;font-size:10px">772.00 mb</text>
<text x="377.42" y="-15.602" transform="scale(1, -1)"
	style="font-family:Times;font-weight:normal;font-style:normal;font-size:10px">1023.63 mb</text>
<path d="M81.634,25.23L81.634,33.23" style="fill:none;stroke:#000000;stroke-width:0.5" />
<path d="M161.89,25.23L161.89,33.23" style="fill:none;stroke:#000000;stroke-width:0.5" />
<path d="M242.16,25.23L242.16,33.23" style="fill:none;stroke:#000000;stroke-width:0.5" />
<path d="M322.42,25.23L322.42,33.23" style="fill:none;stroke:#000000;stroke-width:0.5" />
<path d="M401.31,25.23L401.31,33.23" style="fill:none;stroke:#000000;stroke-width:0.5" />
<path d="M81.114,33.23L401.31,33.23" style="fill:none;stroke:#000000;stroke-width:0.5" />
<g transform="rotate(90)">
<text x="144.86" y="11.555" transform="scale(1, -1)"
	style="font-family:Times;font-weight:normal;font-style:normal;font-size:12px">speed</text>
</g>
<text x="15.416" y="-92.242" transform="scale(1, -1)"
	style="font-family:Times;font-weight:normal;font-style:normal;font-size:10px">256.00 mb/s</text>
<text x="15.416" y="-169.37" transform="scale(1, -1)"
	style="font-family:Times;font-weight:normal;font-style:normal;font-size:10px">288.00 mb/s</text>
<text x="15.416" y="-246.49" transform="scale(1, -1)"
	style="font-family:Times;font-weight:normal;font-style:normal;font-size:10px">320.00 mb/s</text>
<text x="15.416" y="-273.84" transform="scale(1, -1)"
	style="font-family:Times;font-weight:normal;font-style:normal;font-size:10px">331.34 mb/s</text>
<path d="M67.364,96.964L75.364,96.964" style="fill:none;stroke:#000000;stroke-width:0.5" />
<path d="M67.364,174.09L75.364,174.09" style="fill:none;stroke:#000000;stroke-width:0.5" />
<path d="M67.364,251.22L75.364,251.22" style="fill:none;stroke:#000000;stroke-width:0.5" />
<path d="M67.364,278.56L75.364,278.56" style="fill:none;stroke:#000000;stroke-width:0.5" />
<path d="M75.364,38.48L75.364,278.56" style="fill:none;stroke:#000000;stroke-width:0.5" />
<path d="M81.114,38.48L81.849,221.12L82.584,239.67L83.319,249.41L84.053,261.4L84.788,238.47L85.523,244.43L86.258,243.73L86.993,230.19L87.728,225.38L88.462,230.62L89.197,249.02L89.932,252.75L90.667,261.21L91.402,246.5L92.136,238.4L92.871,251.51L93.606,233.66L94.341,237.83L95.076,243.58L95.81,235.92L96.545,239.35L97.28,253.11L98.015,249.11L98.75,247.81L99.485,247.56L100.22,244.63L100.95,237.6L101.69,246L102.42,243.73L103.16,231.57L103.89,237.17L104.63,238.7L105.36,236.13L106.1,240.74L106.83,250.18L107.57,234.78L108.3,234.13L109.04,233.52L109.77,243.31L110.51,250.72L111.24,225.83L111.98,243.1L112.71,228.85L113.45,240.42L114.18,246.04L114.92,231.64L115.65,212.99L116.39,221.48L117.12,243.2L117.85,239.88L118.59,216.79L119.32,235.33L120.06,230.33L120.79,230.51L121.53,225.22L122.26,227.39L123,231.82L123.73,268.23L124.47,234.62L125.2,241.95L125.94,243.68L126.67,242.96L127.41,234.15L128.14,247.65L128.88,244.22L129.61,233.47L130.35,265.78L131.08,227.77L131.82,243.29L132.55,244.53L133.29,245.11L134.02,255.98L134.76,227.37L135.49,233.96L136.23,229.15L136.96,263.24L137.69,249.25L138.43,241.75L139.16,236.92L139.9,243.55L140.63,248.56L141.37,245.05L142.1,242.44L142.84,227.58L143.57,270.51L144.31,243.58L145.04,233.67L145.78,230.42L146.51,230.65L147.25,239.67L147.98,249.83L148.72,241.54L149.45,250.56L150.19,270.89L150.92,247.49L151.66,238.19L152.39,244.87L153.13,231.91L153.86,217.51L154.6,219.4L155.33,229.25L156.06,247.07L156.8,271.92L157.53,226.73L158.27,236.1L159,216.59L159.74,231.97L160.47,235.99L161.21,232.09L161.94,248.86L162.68,247.52L163.41,268.12L164.15,246.74L164.88,245.29L165.62,248.84L166.35,230.55L167.09,231.5L167.82,235.77L168.56,242.35L169.29,243.06L170.03,274.8L170.76,233.31L171.5,239.8L172.23,248.51L172.97,249.35L173.7,235.24L174.44,237.07L175.17,243.51L175.9,231.87L176.64,270.39L177.37,238.88L178.11,225.73L178.84,249.22L179.58,252.26L180.31,238.75L181.05,235.06L181.78,232.22L182.52,238.23L183.25,270.76L183.99,242.5L184.72,252.34L185.46,248.73L186.19,236.07L186.93,242.67L187.66,246.67L188.4,249.19L189.13,250.64L189.87,268.77L190.6,247.48L191.34,252.87L192.07,247.74L192.81,233.74L193.54,218.29L194.27,208.72L195.01,232.93L195.74,241.62L196.48,262.22L197.21,246.28L197.95,229.92L198.68,231.17L199.42,242.36L200.15,232.52L200.89,245.33L201.62,251.21L202.36,247.06L203.09,268.43L203.83,251.75L204.56,219.98L205.3,246.39L206.03,227.23L206.77,243.97L207.5,244.55L208.24,251.21L208.97,247.59L209.71,248.82L210.44,273.44L211.18,245.75L211.91,246.86L212.65,235.09L213.38,244.53L214.11,243.47L214.85,248.37L215.58,233.61L216.32,235.08L217.05,259.24L217.79,244.15L218.52,246.7L219.26,232.86L219.99,237.88L220.73,248L221.46,251.52L222.2,228.56L222.93,234.98L223.67,265.68L224.4,231.67L225.14,238.66L225.87,250.2L226.61,231.98L227.34,241.4L228.08,240.3L228.81,220.25L229.55,228.49L230.28,269.13L231.02,249.71L231.75,235.73L232.49,232.17L233.22,249.48L233.95,253.35L234.69,238.71L235.42,253.21L236.16,232.91L236.89,261.59L237.63,248.47L238.36,251.39L239.1,249.19L239.83,245.79L240.57,244.47L241.3,228.9L242.04,230.19L242.77,240.33L243.51,267.65L244.24,248.45L244.98,240.76L245.71,244.83L246.45,244.91L247.18,244.44L247.92,241.47L248.65,244.48L249.39,244.84L250.12,251.02L250.86,266.68L251.59,245.06L252.32,234.01L253.06,235.43L253.79,228.39L254.53,245.41L255.26,234.76L256,242.92L256.73,240.65L257.47,258.74L258.2,238.98L258.94,230.38L259.67,232.55L260.41,231.89L261.14,245.18L261.88,233.99L262.61,243.38L263.35,244.88L264.08,267.59L264.82,244.61L265.55,244.41L266.29,247.53L267.02,244.33L267.76,245.14L268.49,243.13L269.23,248.97L269.96,234.64L270.7,274.72L271.43,225.11L272.16,246.62L272.9,238.26L273.63,241.76L274.37,249.8L275.1,234.76L275.84,241.72L276.57,230.74L277.31,273.15L278.04,230.54L278.78,242.98L279.51,247.49L280.25,246.13L280.98,242.69L281.72,230.22L282.45,249.16L283.19,246.4L283.92,260.96L284.66,239.33L285.39,234.2L286.13,245.22L286.86,244.63L287.6,242.19L288.33,224.95L289.07,239.72L289.8,230.1L290.54,262.33L291.27,246.53L292,227.22L292.74,240.74L293.47,235.55L294.21,240.96L294.94,228.24L295.68,247.28L296.41,231.95L297.15,271.51L297.88,234.21L298.62,226.9L299.35,240.59L300.09,233.38L300.82,230.72L301.56,232.69L302.29,240.05L303.03,239.71L303.76,237.83L304.5,263.62L305.23,254.79L305.97,221.38L306.7,244.56L307.44,224.63L308.17,236.83L308.91,235.46L309.64,247.45L310.37,247.79L311.11,265.96L311.84,230.7L312.58,246.38L313.31,249.43L314.05,247.73L314.78,237.44L315.52,251.66L316.25,245.48L316.99,244.53L317.72,271.38L318.46,228.2L319.19,241.59L319.93,230.63L320.66,232.69L321.4,245.81L322.13,240.86L322.87,239.37L323.6,244.8L324.34,264.81L325.07,231.43L325.81,232.2L326.54,228.93L327.28,236.79L328.01,238.71L328.75,245.35L329.48,221.5L330.21,243.87L330.95,278.56L331.68,229.67L332.42,245.37L333.15,249.64L333.89,233.53L334.62,240.17L335.36,230.91L336.09,223.22L336.83,240.07L337.56,271.59L338.3,251.65L339.03,250.38L339.77,249.39L340.5,248.16L341.24,230.87L341.97,253.39L342.71,243.93L343.44,227.9L344.18,252.42L344.91,267.41L345.65,239.97L346.38,244.98L347.12,244.39L347.85,236.75L348.59,249.81L349.32,247.78L350.05,243.28L350.79,242.84L351.52,268.32L352.26,233.62L352.99,241.23L353.73,240.37L354.46,250.88L355.2,249.17L355.93,243.49L356.67,243.39L357.4,251.55L358.14,270.97L358.87,228.32L359.61,245.6L360.34,239.25L361.08,247.41L361.81,222.08L362.55,252.16L363.28,233.28L364.02,248.4L364.75,259.95L365.49,236.19L366.22,239.57L366.96,234.17L367.69,236.47L368.42,246.54L369.16,234.54L369.89,248.1L370.63,246.67L371.36,262.7L372.1,241.59L372.83,240.28L373.57,246.71L374.3,240.53L375.04,235.86L375.77,240.22L376.51,238.99L377.24,241.76L377.98,238.23L378.71,253.71L379.45,230.6L380.18,239.89L380.92,210.91L381.65,253.45L382.39,241.26L383.12,254.1L383.86,252.67L384.59,250.21L385.33,269.93L386.06,226.24L386.8,253.12L387.53,242.43L388.26,246.45L389,244.47L389.73,246.28L390.47,248.55L391.2,233.22L391.94,261L392.67,234.58L393.41,217.91L394.14,220.61L394.88,240.41L395.61,237L396.35,239.73L397.08,232.44L397.82,230.68L398.55,237.56L399.29,235.55L400.02,231.09L400.76,222.03L401.31,201.59" style="fill:none;stroke:#F15A60" />
<path d="M405.2,277.58L425.2,277.58" style="fill:none;stroke:#F15A60" />
<text x="278.24" y="-271.91" transform="scale(1, -1)"
	style="font-family:Times;font-weight:normal;font-style:normal;font-size:12px">batch-100kb-ctable-64mb</text>
</g>
</svg>
