<?xml version="1.0"?>
<!-- Generated by SVGo and Plotinum VG -->
<svg width="425.2pt" height="283.46pt" viewBox="0 0 425.2 283.46"
	xmlns="http://www.w3.org/2000/svg"
	xmlns:xlink="http://www.w3.org/1999/xlink">
<g transform="scale(1, -1) translate(0, -283.46)">
<path d="M0,0L425.2,0L425.2,283.46L0,283.46Z" style="fill:#FFFFFF" />
<text x="207.23" y="-3.8613" transform="scale(1, -1)"
	style="font-family:Times;font-weight:normal;font-style:normal;font-size:12px">database size</text>
<text x="60.252" y="-15.602" transform="scale(1, -1)"
	style="font-family:Times;font-weight:normal;font-style:normal;font-size:10px">4.00 mb</text>
<text x="136.77" y="-15.602" transform="scale(1, -1)"
	style="font-family:Times;font-weight:normal;font-style:normal;font-size:10px">260.00 mb</text>
<text x="218.28" y="-15.602" transform="scale(1, -1)"
	style="font-family:Times;font-weight:normal;font-style:normal;font-size:10px">516.00 mb</text>
<text x="299.79" y="-15.602" transform="scale(1, -1)"
	style="font-family:Times;font-weight:normal;font-style:normal;font-size:10px">772.00 mb</text>
<text x="377.42" y="-15.602" transform="scale(1, -1)"
	style="font-family:Times;font-weight:normal;font-style:normal;font-size:10px">1023.63 mb</text>
<path d="M76.642,25.23L76.642,33.23" style="fill:none;stroke:#000000;stroke-width:0.5" />
<path d="M158.16,25.23L158.16,33.23" style="fill:none;stroke:#000000;stroke-width:0.5" />
<path d="M239.67,25.23L239.67,33.23" style="fill:none;stroke:#000000;stroke-width:0.5" />
<path d="M321.18,25.23L321.18,33.23" style="fill:none;stroke:#000000;stroke-width:0.5" />
<path d="M401.31,25.23L401.31,33.23" style="fill:none;stroke:#000000;stroke-width:0.5" />
<path d="M76.114,33.23L401.31,33.23" style="fill:none;stroke:#000000;stroke-width:0.5" />
<g transform="rotate(90)">
<text x="144.86" y="11.555" transform="scale(1, -1)"
	style="font-family:Times;font-weight:normal;font-style:normal;font-size:12px">speed</text>
</g>
<text x="20.416" y="-34.237" transform="scale(1, -1)"
	style="font-family:Times;font-weight:normal;font-style:normal;font-size:10px">8.00 mb/s</text>
<text x="15.416" y="-97.32" transform="scale(1, -1)"
	style="font-family:Times;font-weight:normal;font-style:normal;font-size:10px">24.00 mb/s</text>
<text x="15.416" y="-160.4" transform="scale(1, -1)"
	style="font-family:Times;font-weight:normal;font-style:normal;font-size:10px">40.00 mb/s</text>
<text x="15.416" y="-223.49" transform="scale(1, -1)"
	style="font-family:Times;font-weight:normal;font-style:normal;font-size:10px">56.00 mb/s</text>
<text x="15.416" y="-273.84" transform="scale(1, -1)"
	style="font-family:Times;font-weight:normal;font-style:normal;font-size:10px">68.77 mb/s</text>
<path d="M62.364,38.959L70.364,38.959" style="fill:none;stroke:#000000;stroke-width:0.5" />
<path d="M62.364,102.04L70.364,102.04" style="fill:none;stroke:#000000;stroke-width:0.5" />
<path d="M62.364,165.12L70.364,165.12" style="fill:none;stroke:#000000;stroke-width:0.5" />
<path d="M62.364,228.21L70.364,228.21" style="fill:none;stroke:#000000;stroke-width:0.5" />
<path d="M62.364,278.56L70.364,278.56" style="fill:none;stroke:#000000;stroke-width:0.5" />
<path d="M70.364,38.48L70.364,278.56" style="fill:none;stroke:#000000;stroke-width:0.5" />
<path d="M76.114,278.56L76.861,220.95L77.607,212.26L78.353,204.47L79.099,203.34L79.846,192.36L80.592,184.87L81.338,196.55L82.085,168.45L82.831,192.77L83.577,160.86L84.323,180.67L85.07,184.41L85.816,150.55L86.562,178.29L87.309,177.12L88.055,148.52L88.801,164.14L89.547,172.82L90.294,170.52L91.04,164.06L91.786,122.21L92.533,156.56L93.279,161.9L94.025,156.73L94.771,156.74L95.518,120.88L96.264,167.34L97.01,167.14L97.757,165.42L98.503,166.56L99.249,161.22L99.995,161.18L100.74,125.44L101.49,151.16L102.23,150L102.98,146.69L103.73,149.65L104.47,150.84L105.22,148.58L105.97,147.54L106.71,118.75L107.46,143.75L108.2,146.5L108.95,145.54L109.7,144.61L110.44,135.65L111.19,138.03L111.94,141.23L112.68,142.45L113.43,141.09L114.17,95.863L114.92,142.34L115.67,144.69L116.41,144.89L117.16,134.58L117.91,128.36L118.65,137.22L119.4,136.91L120.15,135.95L120.89,134.4L121.64,135.23L122.38,135.15L123.13,136.17L123.88,86.936L124.62,137.43L125.37,141.11L126.12,140.39L126.86,137.51L127.61,137.1L128.35,137.92L129.1,138.86L129.85,132.29L130.59,134.57L131.34,138.13L132.09,138.35L132.83,138.2L133.58,136.27L134.32,135.58L135.07,135.3L135.82,100.53L136.56,124.87L137.31,126.95L138.06,125.39L138.8,126.45L139.55,129.45L140.29,122.02L141.04,122.58L141.79,124.51L142.53,124.02L143.28,120.45L144.03,121.54L144.77,125.52L145.52,124.17L146.26,125.53L147.01,122.86L147.76,123.23L148.5,124.2L149.25,117.99L150,119.68L150.74,124.82L151.49,65.51L152.24,124.79L152.98,122.17L153.73,123.16L154.47,124.31L155.22,123.31L155.97,123.36L156.71,125.54L157.46,121.79L158.21,123.28L158.95,118.32L159.7,120.79L160.44,121L161.19,119.62L161.94,119.19L162.68,119.3L163.43,117.86L164.18,116.44L164.92,116.4L165.67,116.35L166.41,118.72L167.16,115.33L167.91,106.47L168.65,118.22L169.4,117.06L170.15,44.833L170.89,112.76L171.64,113.15L172.38,111.74L173.13,112.62L173.88,107.27L174.62,106.14L175.37,108.04L176.12,109.36L176.86,110.8L177.61,105.7L178.36,109.59L179.1,111.04L179.85,109L180.59,103.4L181.34,103.85L182.09,108.3L182.83,109.14L183.58,110.56L184.33,106.74L185.07,107.83L185.82,101.62L186.56,107.58L187.31,107.12L188.06,107.35L188.8,94.665L189.55,103.16L190.3,104.87L191.04,109.74L191.79,111.37L192.53,216.46L193.28,238.52L194.03,216.12L194.77,210.95L195.52,196.98L196.27,183.37L197.01,186.34L197.76,173.89L198.5,168.53L199.25,181.91L200,158.35L200.74,156L201.49,164.3L202.24,145.69L202.98,149.06L203.73,141.22L204.48,137.7L205.22,149.73L205.97,153.74L206.71,150.64L207.46,147.48L208.21,126.86L208.95,141.39L209.7,140.51L210.45,136.69L211.19,131.56L211.94,119.13L212.68,139.42L213.43,138.34L214.18,134.72L214.92,135.54L215.67,134.88L216.42,134.43L217.16,109.7L217.91,115.46L218.65,127.62L219.4,127.05L220.15,127.74L220.89,126.76L221.64,125.74L222.39,126.94L223.13,107.85L223.88,130.74L224.62,131.87L225.37,126.32L226.12,131.39L226.86,129.56L227.61,75.529L228.36,134.42L229.1,134.36L229.85,133.66L230.6,105.29L231.34,125.3L232.09,128.14L232.83,122.92L233.58,121.17L234.33,120.95L235.07,124.05L235.82,120.3L236.57,123.12L237.31,123.6L238.06,119.54L238.8,120.96L239.55,121.6L240.3,59.283L241.04,112.89L241.79,116.45L242.54,116.17L243.28,116.39L244.03,98.877L244.77,115.12L245.52,118.97L246.27,116.37L247.01,117.42L247.76,116.17L248.51,115.1L249.25,105.14L250,118.58L250.74,117.34L251.49,120.05L252.24,60.752L252.98,106.28L253.73,108.47L254.48,108.07L255.22,93.678L255.97,100.86L256.72,102.03L257.46,99.412L258.21,105.54L258.95,104.9L259.7,95.185L260.45,100.06L261.19,90.764L261.94,103.15L262.69,99.739L263.43,101.11L264.18,97.487L264.92,94.315L265.67,96.372L266.42,103.52L267.16,103.34L267.91,84.695L268.66,118.79L269.4,98.466L270.15,116.97L270.89,116.34L271.64,117.26L272.39,115.43L273.13,111.57L273.88,109.46L274.63,107.9L275.37,97.795L276.12,115.97L276.86,114.97L277.61,115.73L278.36,109.4L279.1,108.32L279.85,113.96L280.6,110.91L281.34,114.13L282.09,110.68L282.84,113.51L283.58,100.54L284.33,107.41L285.07,110.17L285.82,110.49L286.57,77.475L287.31,107.24L288.06,99.454L288.81,103.11L289.55,110.96L290.3,108.78L291.04,108.59L291.79,107.8L292.54,110.2L293.28,110.33L294.03,97.465L294.78,108.15L295.52,92.955L296.27,108.21L297.01,109.91L297.76,109.68L298.51,109.7L299.25,108.32L300,108.97L300.75,107.79L301.49,107.2L302.24,105.14L302.98,99.071L303.73,103.43L304.48,92.05L305.22,106.52L305.97,107.82L306.72,107.7L307.46,100.9L308.21,105.71L308.95,38.48L309.7,247.26L310.45,232.7L311.19,226.66L311.94,216.09L312.69,204.14L313.43,206.26L314.18,202.24L314.93,188.76L315.67,200.77L316.42,180.54L317.16,187.38L317.91,192.53L318.66,167.91L319.4,181.45L320.15,178L320.9,162.16L321.64,163.99L322.39,168.66L323.13,168.22L323.88,165.66L324.63,138.14L325.37,156.23L326.12,160.14L326.87,162.35L327.61,163.12L328.36,135.95L329.1,155.77L329.85,153.81L330.6,154.45L331.34,152.83L332.09,152.77L332.84,151.45L333.58,119.41L334.33,142.21L335.07,131.42L335.82,137.61L336.57,143.46L337.31,143.12L338.06,145.15L338.81,146.52L339.55,117.31L340.3,145.04L341.05,145.89L341.79,146.91L342.54,145.87L343.28,143.79L344.03,143.32L344.78,142.22L345.52,141.82L346.27,139.14L347.02,71.373L347.76,135.88L348.51,141.29L349.25,141.9L350,142.17L350.75,141.21L351.49,140.73L352.24,139.95L352.99,138.1L353.73,139.71L354.48,139.7L355.22,138.75L355.97,137.69L356.72,59.397L357.46,133.24L358.21,134.94L358.96,130.38L359.7,129.47L360.45,126.41L361.19,127.49L361.94,124.35L362.69,124.58L363.43,125.72L364.18,117.71L364.93,108.29L365.67,109.42L366.42,118.14L367.17,113.78L367.91,121.78L368.66,58.325L369.4,116.16L370.15,118.53L370.9,120.28L371.64,119.81L372.39,118.52L373.14,119.17L373.88,117.27L374.63,118.19L375.37,118.4L376.12,118.5L376.87,116.47L377.61,117.06L378.36,117.53L379.11,117.22L379.85,117.05L380.6,116.57L381.34,116.25L382.09,113.97L382.84,108.58L383.58,111.75L384.33,53.619L385.08,112.9L385.82,114.55L386.57,114.38L387.31,112.66L388.06,109.08L388.81,111.05L389.55,110.43L390.3,109.76L391.05,111.08L391.79,112.2L392.54,111.69L393.29,111.79L394.03,111.83L394.78,110.95L395.52,110.87L396.27,110.62L397.02,110.58L397.76,109.36L398.51,108.66L399.26,108.85L400,108.91L400.75,109.12L401.31,109.13" style="fill:none;stroke:#F15A60" />
<path d="M405.2,277.58L425.2,277.58" style="fill:none;stroke:#F15A60" />
<text x="232.93" y="-271.91" transform="scale(1, -1)"
	style="font-family:Times;font-weight:normal;font-style:normal;font-size:12px">batch-100kb-wb-512mb-cache-1gb</text>
</g>
</svg>
