<?xml version="1.0"?>
<!-- Generated by SVGo and Plotinum VG -->
<svg width="425.2pt" height="283.46pt" viewBox="0 0 425.2 283.46"
	xmlns="http://www.w3.org/2000/svg"
	xmlns:xlink="http://www.w3.org/1999/xlink">
<g transform="scale(1, -1) translate(0, -283.46)">
<path d="M0,0L425.2,0L425.2,283.46L0,283.46Z" style="fill:#FFFFFF" />
<text x="207.23" y="-3.8613" transform="scale(1, -1)"
	style="font-family:Times;font-weight:normal;font-style:normal;font-size:12px">database size</text>
<text x="60.252" y="-15.602" transform="scale(1, -1)"
	style="font-family:Times;font-weight:normal;font-style:normal;font-size:10px">4.00 mb</text>
<text x="136.77" y="-15.602" transform="scale(1, -1)"
	style="font-family:Times;font-weight:normal;font-style:normal;font-size:10px">260.00 mb</text>
<text x="218.28" y="-15.602" transform="scale(1, -1)"
	style="font-family:Times;font-weight:normal;font-style:normal;font-size:10px">516.00 mb</text>
<text x="299.79" y="-15.602" transform="scale(1, -1)"
	style="font-family:Times;font-weight:normal;font-style:normal;font-size:10px">772.00 mb</text>
<text x="377.42" y="-15.602" transform="scale(1, -1)"
	style="font-family:Times;font-weight:normal;font-style:normal;font-size:10px">1023.63 mb</text>
<path d="M76.642,25.23L76.642,33.23" style="fill:none;stroke:#000000;stroke-width:0.5" />
<path d="M158.16,25.23L158.16,33.23" style="fill:none;stroke:#000000;stroke-width:0.5" />
<path d="M239.67,25.23L239.67,33.23" style="fill:none;stroke:#000000;stroke-width:0.5" />
<path d="M321.18,25.23L321.18,33.23" style="fill:none;stroke:#000000;stroke-width:0.5" />
<path d="M401.31,25.23L401.31,33.23" style="fill:none;stroke:#000000;stroke-width:0.5" />
<path d="M76.114,33.23L401.31,33.23" style="fill:none;stroke:#000000;stroke-width:0.5" />
<g transform="rotate(90)">
<text x="144.86" y="11.555" transform="scale(1, -1)"
	style="font-family:Times;font-weight:normal;font-style:normal;font-size:12px">speed</text>
</g>
<text x="20.416" y="-34.604" transform="scale(1, -1)"
	style="font-family:Times;font-weight:normal;font-style:normal;font-size:10px">1.00 mb/s</text>
<text x="15.416" y="-124.04" transform="scale(1, -1)"
	style="font-family:Times;font-weight:normal;font-style:normal;font-size:10px">33.00 mb/s</text>
<text x="15.416" y="-213.47" transform="scale(1, -1)"
	style="font-family:Times;font-weight:normal;font-style:normal;font-size:10px">65.00 mb/s</text>
<text x="15.416" y="-273.84" transform="scale(1, -1)"
	style="font-family:Times;font-weight:normal;font-style:normal;font-size:10px">86.60 mb/s</text>
<path d="M62.364,39.325L70.364,39.325" style="fill:none;stroke:#000000;stroke-width:0.5" />
<path d="M62.364,128.76L70.364,128.76" style="fill:none;stroke:#000000;stroke-width:0.5" />
<path d="M62.364,218.19L70.364,218.19" style="fill:none;stroke:#000000;stroke-width:0.5" />
<path d="M62.364,278.56L70.364,278.56" style="fill:none;stroke:#000000;stroke-width:0.5" />
<path d="M70.364,38.48L70.364,278.56" style="fill:none;stroke:#000000;stroke-width:0.5" />
<path d="M76.114,239.2L76.861,234.83L77.607,245.48L78.353,240.92L79.099,254.57L79.846,249.73L80.592,256.66L81.338,258.51L82.085,250.78L82.831,249.28L83.577,217.68L84.323,146.53L85.07,233.23L85.816,256.68L86.562,252.53L87.309,177.07L88.055,135.98L88.801,145.57L89.547,146.15L90.294,149.31L91.04,205.23L91.786,195.21L92.533,145.65L93.279,145.31L94.025,148.72L94.771,135.51L95.518,61.376L96.264,209.85L97.01,229.37L97.757,278.56L98.503,152.11L99.249,146.54L99.995,147.83L100.74,139.19L101.49,137.45L102.23,55.034L102.98,148.8L103.73,149.13L104.47,148.05L105.22,144.27L105.97,141.47L106.71,47.462L107.46,244.51L108.2,253.36L108.95,191.73L109.7,132.79L110.44,138.42L111.19,140.82L111.94,148.13L112.68,46.064L113.43,156.87L114.17,146.55L114.92,147.12L115.67,148.74L116.41,146.76L117.16,43.415L117.91,229.96L118.65,223.41L119.4,219.71L120.15,142.47L120.89,134.46L121.64,149.32L122.38,145.34L123.13,143.06L123.88,42.238L124.62,246.03L125.37,240.78L126.12,184.8L126.86,138.56L127.61,135.33L128.35,138.64L129.1,139.78L129.85,41.075L130.59,195.16L131.34,222.16L132.09,236.32L132.83,242.02L133.58,239.27L134.32,159.64L135.07,144.72L135.82,142.81L136.56,145.89L137.31,146.94L138.06,40.979L138.8,188.64L139.55,180.47L140.29,189.5L141.04,205.44L141.79,150.05L142.53,146.76L143.28,146.95L144.03,141.18L144.77,142.62L145.52,40.777L146.26,191.93L147.01,220.56L147.76,250.39L148.5,246.12L149.25,223.39L150,152.21L150.74,136.45L151.49,139.69L152.24,143.17L152.98,40.324L153.73,235.08L154.47,249.83L155.22,254.91L155.97,251.77L156.71,225.34L157.46,176.5L158.21,133.92L158.95,141.19L159.7,148.88L160.44,149.71L161.19,40.473L161.94,216.44L162.68,242.96L163.43,260.05L164.18,244.49L164.92,224.96L165.67,165.85L166.41,147.14L167.16,150.2L167.91,150L168.65,148.44L169.4,40.446L170.15,193.23L170.89,199.14L171.64,228.56L172.38,252.38L173.13,253.86L173.88,157.17L174.62,134.7L175.37,146.87L176.12,145.31L176.86,139.39L177.61,40.806L178.36,234.53L179.1,246.19L179.85,256.32L180.59,202L181.34,205.95L182.09,156.13L182.83,143.93L183.58,141.44L184.33,149.24L185.07,149.17L185.82,40.238L186.56,230.5L187.31,237.8L188.06,252.12L188.8,259.14L189.55,253.84L190.3,153.98L191.04,149.4L191.79,146.3L192.53,134.97L193.28,135.42L194.03,40.241L194.77,240.55L195.52,245.25L196.27,253.67L197.01,268.37L197.76,253.03L198.5,271.8L199.25,160.13L200,147.91L200.74,144.72L201.49,147.81L202.24,146.27L202.98,40.273L203.73,243.76L204.48,252.46L205.22,244.48L205.97,269.36L206.71,260.08L207.46,168.99L208.21,150.93L208.95,145.77L209.7,136.26L210.45,137.3L211.19,40.385L211.94,226.46L212.68,220.73L213.43,192.8L214.18,189.68L214.92,213.37L215.67,127.22L216.42,141.91L217.16,149.73L217.91,142.58L218.65,149.41L219.4,40.346L220.15,250.95L220.89,247.27L221.64,236.28L222.39,232.62L223.13,200.64L223.88,151.09L224.62,146.35L225.37,139.25L226.12,144L226.86,142.96L227.61,40.104L228.36,203.15L229.1,196.68L229.85,199.72L230.6,224.94L231.34,243.83L232.09,151.99L232.83,150.87L233.58,139.78L234.33,136.3L235.07,39.409L235.82,221.48L236.57,249.2L237.31,213.9L238.06,194.9L238.8,247.33L239.55,213.89L240.3,186.48L241.04,149.71L241.79,147.11L242.54,145.8L243.28,134.53L244.03,39.367L244.77,215.04L245.52,247.78L246.27,239.72L247.01,255.31L247.76,249.1L248.51,232.32L249.25,162.06L250,256.68L250.74,167.96L251.49,144.78L252.24,143.84L252.98,136.74L253.73,148.02L254.48,39.084L255.22,245.3L255.97,248.97L256.72,236.25L257.46,207.23L258.21,196.86L258.95,229.63L259.7,228.67L260.45,250.8L261.19,198.42L261.94,142.98L262.69,129.72L263.43,140.8L264.18,145.66L264.92,38.695L265.67,231.31L266.42,249.3L267.16,259.46L267.91,245.72L268.66,250.91L269.4,252.03L270.15,234.72L270.89,246.61L271.64,248.13L272.39,154.32L273.13,145.52L273.88,140.07L274.63,139.23L275.37,138.75L276.12,38.625L276.86,233.15L277.61,246.31L278.36,238.01L279.1,253.82L279.85,265.05L280.6,236.43L281.34,249.19L282.09,240.48L282.84,203.97L283.58,141.45L284.33,133.42L285.07,137.57L285.82,145.43L286.57,38.589L287.31,225.34L288.06,241.71L288.81,260.44L289.55,235.1L290.3,216.87L291.04,215.93L291.79,228.91L292.54,254.48L293.28,255.6L294.03,150.88L294.78,133.66L295.52,139.82L296.27,133.25L297.01,146.19L297.76,38.67L298.51,246.82L299.25,220.98L300,230.27L300.75,254.72L301.49,266.14L302.24,262.98L302.98,255.79L303.73,261.71L304.48,196.05L305.22,141.44L305.97,147.21L306.72,142.56L307.46,146.91L308.21,38.592L308.95,198.51L309.7,237.76L310.45,258L311.19,246.66L311.94,250.55L312.69,252.96L313.43,231.55L314.18,196.89L314.93,233.56L315.67,141.4L316.42,130.84L317.16,125.18L317.91,138.37L318.66,129.87L319.4,38.48L320.15,241.24L320.9,259.47L321.64,259.47L322.39,256.8L323.13,274.99L323.88,233.03L324.63,139.53L325.37,239.55L326.12,154.78L326.87,151L327.61,131.01L328.36,144.88L329.1,142.11L329.85,38.492L330.6,221.59L331.34,231.13L332.09,217.26L332.84,262.08L333.58,247.68L334.33,232.04L335.07,235.44L335.82,259.65L336.57,254.25L337.31,159.2L338.06,144.32L338.81,140.61L339.55,145.48L340.3,140.11L341.05,38.6L341.79,217.56L342.54,205.88L343.28,251.94L344.03,252.68L344.78,260.36L345.52,253.02L346.27,249.55L347.02,237.21L347.76,170.16L348.51,144.52L349.25,144.1L350,148.66L350.75,143.23L351.49,38.591L352.24,190.17L352.99,203.56L353.73,254.98L354.48,251.13L355.22,249.17L355.97,245.25L356.72,233.93L357.46,275.42L358.21,243.36L358.96,156.22L359.7,149.28L360.45,145.71L361.19,146.21L361.94,150.03L362.69,38.554L363.43,239.55L364.18,239.54L364.93,239.74L365.67,250.25L366.42,265.16L367.17,244.51L367.91,263.56L368.66,252L369.4,204.16L370.15,140.85L370.9,145.41L371.64,147.84L372.39,136.22L373.14,38.59L373.88,228.47L374.63,245.92L375.37,141.43L376.12,249.11L376.87,252.08L377.61,218.11L378.36,179.56L379.11,247.2L379.85,253.34L380.6,155.26L381.34,149.69L382.09,147.5L382.84,146.37L383.58,145.88L384.33,38.542L385.08,239.84L385.82,221.94L386.57,237.65L387.31,243.06L388.06,262.27L388.81,246L389.55,236.6L390.3,250.05L391.05,204.66L391.79,148.15L392.54,148.25L393.29,150.22L394.03,148.5L394.78,38.52L395.52,214.38L396.27,235.74L397.02,250.49L397.76,238.04L398.51,247.64L399.26,253.75L400,234.62L400.75,262.36L401.31,246.51" style="fill:none;stroke:#F15A60" />
<path d="M405.2,277.58L425.2,277.58" style="fill:none;stroke:#F15A60" />
<text x="342.21" y="-271.91" transform="scale(1, -1)"
	style="font-family:Times;font-weight:normal;font-style:normal;font-size:12px">batch-100kb</text>
</g>
</svg>
