<?xml version="1.0"?>
<!-- Generated by SVGo and Plotinum VG -->
<svg width="425.2pt" height="283.46pt" viewBox="0 0 425.2 283.46"
	xmlns="http://www.w3.org/2000/svg"
	xmlns:xlink="http://www.w3.org/1999/xlink">
<g transform="scale(1, -1) translate(0, -283.46)">
<path d="M0,0L425.2,0L425.2,283.46L0,283.46Z" style="fill:#FFFFFF" />
<text x="209.73" y="-3.8613" transform="scale(1, -1)"
	style="font-family:Times;font-weight:normal;font-style:normal;font-size:12px">database size</text>
<text x="65.244" y="-15.602" transform="scale(1, -1)"
	style="font-family:Times;font-weight:normal;font-style:normal;font-size:10px">4.00 mb</text>
<text x="140.51" y="-15.602" transform="scale(1, -1)"
	style="font-family:Times;font-weight:normal;font-style:normal;font-size:10px">260.00 mb</text>
<text x="220.77" y="-15.602" transform="scale(1, -1)"
	style="font-family:Times;font-weight:normal;font-style:normal;font-size:10px">516.00 mb</text>
<text x="301.03" y="-15.602" transform="scale(1, -1)"
	style="font-family:Times;font-weight:normal;font-style:normal;font-size:10px">772.00 mb</text>
<text x="377.42" y="-15.602" transform="scale(1, -1)"
	style="font-family:Times;font-weight:normal;font-style:normal;font-size:10px">1023.63 mb</text>
<path d="M81.634,25.23L81.634,33.23" style="fill:none;stroke:#000000;stroke-width:0.5" />
<path d="M161.89,25.23L161.89,33.23" style="fill:none;stroke:#000000;stroke-width:0.5" />
<path d="M242.16,25.23L242.16,33.23" style="fill:none;stroke:#000000;stroke-width:0.5" />
<path d="M322.42,25.23L322.42,33.23" style="fill:none;stroke:#000000;stroke-width:0.5" />
<path d="M401.31,25.23L401.31,33.23" style="fill:none;stroke:#000000;stroke-width:0.5" />
<path d="M81.114,33.23L401.31,33.23" style="fill:none;stroke:#000000;stroke-width:0.5" />
<g transform="rotate(90)">
<text x="144.86" y="11.555" transform="scale(1, -1)"
	style="font-family:Times;font-weight:normal;font-style:normal;font-size:12px">speed</text>
</g>
<text x="15.416" y="-93.945" transform="scale(1, -1)"
	style="font-family:Times;font-weight:normal;font-style:normal;font-size:10px">256.00 mb/s</text>
<text x="15.416" y="-170.5" transform="scale(1, -1)"
	style="font-family:Times;font-weight:normal;font-style:normal;font-size:10px">288.00 mb/s</text>
<text x="15.416" y="-247.06" transform="scale(1, -1)"
	style="font-family:Times;font-weight:normal;font-style:normal;font-size:10px">320.00 mb/s</text>
<text x="15.416" y="-273.84" transform="scale(1, -1)"
	style="font-family:Times;font-weight:normal;font-style:normal;font-size:10px">331.19 mb/s</text>
<path d="M67.364,98.667L75.364,98.667" style="fill:none;stroke:#000000;stroke-width:0.5" />
<path d="M67.364,175.22L75.364,175.22" style="fill:none;stroke:#000000;stroke-width:0.5" />
<path d="M67.364,251.78L75.364,251.78" style="fill:none;stroke:#000000;stroke-width:0.5" />
<path d="M67.364,278.56L75.364,278.56" style="fill:none;stroke:#000000;stroke-width:0.5" />
<path d="M75.364,38.48L75.364,278.56" style="fill:none;stroke:#000000;stroke-width:0.5" />
<path d="M81.114,38.48L81.849,214.82L82.584,233.68L83.319,235.49L84.053,266.77L84.788,242.36L85.523,236.9L86.258,248.52L86.993,226.38L87.728,235.06L88.462,232.8L89.197,239.51L89.932,241.69L90.667,254.52L91.402,224.04L92.136,231.25L92.871,245L93.606,230.61L94.341,240.53L95.076,251.38L95.81,238.81L96.545,236.75L97.28,254.99L98.015,252.59L98.75,256.08L99.485,255.74L100.22,249.85L100.95,249.11L101.69,236.03L102.42,253.49L103.16,247.18L103.89,263.88L104.63,245.19L105.36,249.7L106.1,248.85L106.83,243.88L107.57,252.48L108.3,255.95L109.04,244.13L109.77,245.27L110.51,274.17L111.24,253.78L111.98,234.58L112.71,230.31L113.45,253.52L114.18,231.94L114.92,253.26L115.65,252.71L116.39,253.48L117.12,275.13L117.85,232.39L118.59,249.67L119.32,251L120.06,244.41L120.79,235.26L121.53,250.35L122.26,238.6L123,247.23L123.73,264.36L124.47,244.93L125.2,239.57L125.94,240.03L126.67,231.54L127.41,241.15L128.14,241.55L128.88,246.28L129.61,243.62L130.35,243.38L131.08,266.55L131.82,230.72L132.55,237.65L133.29,230.66L134.02,249.65L134.76,250.53L135.49,237.17L136.23,239.46L136.96,263.4L137.69,238.35L138.43,249.73L139.16,237.54L139.9,243.93L140.63,245.22L141.37,235.41L142.1,224.37L142.84,239.37L143.57,250.79L144.31,257.69L145.04,222.67L145.78,249.08L146.51,243.03L147.25,234.84L147.98,237.86L148.72,238.81L149.45,243.21L150.19,249.26L150.92,270.31L151.66,245.16L152.39,249.9L153.13,245.06L153.86,232.96L154.6,240.98L155.33,234.91L156.06,230.58L156.8,246.36L157.53,273.5L158.27,229.78L159,222.67L159.74,246.52L160.47,242.89L161.21,234.48L161.94,250.53L162.68,233.29L163.41,230.11L164.15,256.09L164.88,245.75L165.62,228.62L166.35,228.71L167.09,248.7L167.82,234.43L168.56,242.44L169.29,243.84L170.03,236.47L170.76,270.9L171.5,211.38L172.23,246.32L172.97,238.9L173.7,243.87L174.44,246.68L175.17,223.68L175.9,238.53L176.64,244.52L177.37,235.12L178.11,266.74L178.84,240.32L179.58,251.95L180.31,238.13L181.05,254.99L181.78,239.98L182.52,244.82L183.25,248.97L183.99,244.66L184.72,273.21L185.46,232.64L186.19,247.49L186.93,247.78L187.66,250.98L188.4,249.76L189.13,249.38L189.87,245.92L190.6,247.5L191.34,277.94L192.07,252.45L192.81,245.03L193.54,241.79L194.27,250.21L195.01,241.62L195.74,233.41L196.48,220.47L197.21,242.93L197.95,265.35L198.68,243.77L199.42,248.13L200.15,245.8L200.89,226.48L201.62,248.73L202.36,245.65L203.09,223.7L203.83,246.86L204.56,270.35L205.3,247.29L206.03,241.18L206.77,241.9L207.5,250.06L208.24,232.7L208.97,231.71L209.71,246.9L210.44,251.16L211.18,278.56L211.91,237.07L212.65,236.86L213.38,247.29L214.11,236.89L214.85,232.4L215.58,249.64L216.32,248.93L217.05,242.42L217.79,253.02L218.52,238.73L219.26,236.49L219.99,241.97L220.73,244.49L221.46,241.53L222.2,240.1L222.93,247L223.67,243.22L224.4,251.02L225.14,251.48L225.87,236.37L226.61,249.68L227.34,250.9L228.08,247.56L228.81,232.11L229.55,250.41L230.28,248.14L231.02,244.1L231.75,252.77L232.49,245.51L233.22,249.24L233.95,241.73L234.69,243.56L235.42,249.46L236.16,237.1L236.89,225.52L237.63,250.07L238.36,262.77L239.1,246.22L239.83,246.91L240.57,241.88L241.3,229.23L242.04,232.62L242.77,244.07L243.51,243.77L244.24,236.23L244.98,258L245.71,240.57L246.45,231.75L247.18,240.7L247.92,233.8L248.65,249.78L249.39,247.12L250.12,222.28L250.86,244.05L251.59,244.31L252.32,262.44L253.06,240.14L253.79,234.57L254.53,246.62L255.26,252.06L256,247.04L256.73,245.77L257.47,235.11L258.2,244.44L258.94,249.64L259.67,238.23L260.41,237.22L261.14,241.2L261.88,247.91L262.61,239.66L263.35,240.63L264.08,217.74L264.82,266.41L265.55,227.1L266.29,248.33L267.02,242.11L267.76,247.73L268.49,231.69L269.23,235.18L269.96,238.53L270.7,230.92L271.43,259.28L272.16,244.61L272.9,247.24L273.63,252.59L274.37,255.61L275.1,240.02L275.84,228.28L276.57,242.14L277.31,244.48L278.04,244.25L278.78,277.5L279.51,256.49L280.25,249.11L280.98,236.81L281.72,254.49L282.45,234.77L283.19,239.8L283.92,243.56L284.66,222.32L285.39,268.27L286.13,230L286.86,252.06L287.6,237.46L288.33,250.88L289.07,243.98L289.8,233.61L290.54,242.43L291.27,237.57L292,269.71L292.74,247.46L293.47,248.01L294.21,243.06L294.94,250.75L295.68,242.34L296.41,243.41L297.15,222.64L297.88,222.01L298.62,270.63L299.35,232.86L300.09,240.11L300.82,243.51L301.56,223.3L302.29,241.96L303.03,248.19L303.76,231.89L304.5,234.91L305.23,276.58L305.97,245.77L306.7,223.7L307.44,230.72L308.17,222.65L308.91,237.05L309.64,247.56L310.37,235.77L311.11,231.89L311.84,235.64L312.58,256.73L313.31,248.88L314.05,244.57L314.78,240.98L315.52,229.58L316.25,234.9L316.99,233.66L317.72,245.82L318.46,239.32L319.19,256.03L319.93,237.05L320.66,253.15L321.4,243.36L322.13,219.11L322.87,248.46L323.6,229.4L324.34,231.14L325.07,236.5L325.81,272.61L326.54,224.87L327.28,248.23L328.01,240.23L328.75,246.92L329.48,237.33L330.21,245.15L330.95,246.2L331.68,226.16L332.42,270.85L333.15,253.81L333.89,255.77L334.62,223.67L335.36,252.01L336.09,253.65L336.83,250.45L337.56,239.62L338.3,245.78L339.03,269.85L339.77,248.26L340.5,257L341.24,228.21L341.97,242.98L342.71,239.45L343.44,252.03L344.18,222.43L344.91,248.37L345.65,264.5L346.38,239.78L347.12,225.26L347.85,247.34L348.59,246.43L349.32,236.86L350.05,247.78L350.79,211L351.52,251.36L352.26,273.7L352.99,252.21L353.73,236.49L354.46,250.46L355.2,248.22L355.93,239.57L356.67,245.26L357.4,244.23L358.14,241.01L358.87,242.07L359.61,276.64L360.34,229.71L361.08,224L361.81,233.92L362.55,231.12L363.28,224.72L364.02,249.43L364.75,246.02L365.49,245.48L366.22,268.98L366.96,240.94L367.69,236.97L368.42,240.9L369.16,236.43L369.89,230.05L370.63,222.52L371.36,231.09L372.1,240.04L372.83,253.45L373.57,236.6L374.3,248.93L375.04,249.41L375.77,243.47L376.51,223.59L377.24,230.49L377.98,244.28L378.71,244.17L379.45,268.86L380.18,244.95L380.92,247.49L381.65,209.68L382.39,243.82L383.12,242.05L383.86,239.41L384.59,212.75L385.33,249.2L386.06,263.15L386.8,238.84L387.53,236.21L388.26,248.24L389,246.45L389.73,236.22L390.47,237.48L391.2,248.71L391.94,231.15L392.67,217.63L393.41,241.94L394.14,214.78L394.88,225.7L395.61,239.8L396.35,249.09L397.08,254.82L397.82,232.12L398.55,246.28L399.29,240.5L400.02,263.08L400.76,246.13L401.31,232.99" style="fill:none;stroke:#F15A60" />
<path d="M405.2,277.58L425.2,277.58" style="fill:none;stroke:#F15A60" />
<text x="232.93" y="-271.91" transform="scale(1, -1)"
	style="font-family:Times;font-weight:normal;font-style:normal;font-size:12px">batch-100kb-wb-512mb-cache-1gb</text>
</g>
</svg>
