<?xml version="1.0"?>
<!-- Generated by SVGo and Plotinum VG -->
<svg width="425.2pt" height="283.46pt" viewBox="0 0 425.2 283.46"
	xmlns="http://www.w3.org/2000/svg"
	xmlns:xlink="http://www.w3.org/1999/xlink">
<g transform="scale(1, -1) translate(0, -283.46)">
<path d="M0,0L425.2,0L425.2,283.46L0,283.46Z" style="fill:#FFFFFF" />
<text x="209.73" y="-3.8613" transform="scale(1, -1)"
	style="font-family:Times;font-weight:normal;font-style:normal;font-size:12px">database size</text>
<text x="65.244" y="-15.602" transform="scale(1, -1)"
	style="font-family:Times;font-weight:normal;font-style:normal;font-size:10px">4.00 mb</text>
<text x="140.51" y="-15.602" transform="scale(1, -1)"
	style="font-family:Times;font-weight:normal;font-style:normal;font-size:10px">260.00 mb</text>
<text x="220.77" y="-15.602" transform="scale(1, -1)"
	style="font-family:Times;font-weight:normal;font-style:normal;font-size:10px">516.00 mb</text>
<text x="301.03" y="-15.602" transform="scale(1, -1)"
	style="font-family:Times;font-weight:normal;font-style:normal;font-size:10px">772.00 mb</text>
<text x="377.42" y="-15.602" transform="scale(1, -1)"
	style="font-family:Times;font-weight:normal;font-style:normal;font-size:10px">1023.63 mb</text>
<path d="M81.634,25.23L81.634,33.23" style="fill:none;stroke:#000000;stroke-width:0.5" />
<path d="M161.89,25.23L161.89,33.23" style="fill:none;stroke:#000000;stroke-width:0.5" />
<path d="M242.16,25.23L242.16,33.23" style="fill:none;stroke:#000000;stroke-width:0.5" />
<path d="M322.42,25.23L322.42,33.23" style="fill:none;stroke:#000000;stroke-width:0.5" />
<path d="M401.31,25.23L401.31,33.23" style="fill:none;stroke:#000000;stroke-width:0.5" />
<path d="M81.114,33.23L401.31,33.23" style="fill:none;stroke:#000000;stroke-width:0.5" />
<g transform="rotate(90)">
<text x="144.86" y="11.555" transform="scale(1, -1)"
	style="font-family:Times;font-weight:normal;font-style:normal;font-size:12px">speed</text>
</g>
<text x="15.416" y="-96.483" transform="scale(1, -1)"
	style="font-family:Times;font-weight:normal;font-style:normal;font-size:10px">256.00 mb/s</text>
<text x="15.416" y="-173.42" transform="scale(1, -1)"
	style="font-family:Times;font-weight:normal;font-style:normal;font-size:10px">288.00 mb/s</text>
<text x="15.416" y="-250.36" transform="scale(1, -1)"
	style="font-family:Times;font-weight:normal;font-style:normal;font-size:10px">320.00 mb/s</text>
<text x="15.416" y="-273.84" transform="scale(1, -1)"
	style="font-family:Times;font-weight:normal;font-style:normal;font-size:10px">329.76 mb/s</text>
<path d="M67.364,101.2L75.364,101.2" style="fill:none;stroke:#000000;stroke-width:0.5" />
<path d="M67.364,178.14L75.364,178.14" style="fill:none;stroke:#000000;stroke-width:0.5" />
<path d="M67.364,255.08L75.364,255.08" style="fill:none;stroke:#000000;stroke-width:0.5" />
<path d="M67.364,278.56L75.364,278.56" style="fill:none;stroke:#000000;stroke-width:0.5" />
<path d="M75.364,38.48L75.364,278.56" style="fill:none;stroke:#000000;stroke-width:0.5" />
<path d="M81.114,38.48L81.849,224.43L82.584,242.55L83.319,260.18L84.053,248.21L84.788,237.09L85.523,251.3L86.258,249.69L86.993,226.88L87.728,244.31L88.462,244.49L89.197,240.23L89.932,266.69L90.667,214.47L91.402,247.68L92.136,225.73L92.871,247.77L93.606,246.14L94.341,232.42L95.076,245.96L95.81,252.65L96.545,275.99L97.28,251.63L98.015,236.42L98.75,233.67L99.485,232.01L100.22,241.2L100.95,229.15L101.69,241.06L102.42,249.01L103.16,232.89L103.89,261.79L104.63,239.62L105.36,248.15L106.1,246.55L106.83,248.86L107.57,231.4L108.3,251.16L109.04,235.96L109.77,268.78L110.51,243.96L111.24,229.27L111.98,227.66L112.71,231.87L113.45,250.54L114.18,251.61L114.92,250.55L115.65,226.36L116.39,275.22L117.12,233.66L117.85,249.72L118.59,248.14L119.32,248.51L120.06,234.8L120.79,241.03L121.53,241.62L122.26,246.29L123,265.04L123.73,248.93L124.47,235.07L125.2,232.66L125.94,244.45L126.67,240.26L127.41,233.61L128.14,250.89L128.88,214.74L129.61,265.04L130.35,245.36L131.08,228.46L131.82,250.14L132.55,244.01L133.29,251.57L134.02,250.53L134.76,251.29L135.49,252.15L136.23,261.25L136.96,237.64L137.69,241.6L138.43,243.14L139.16,234.06L139.9,239.94L140.63,232.09L141.37,231.88L142.1,225.51L142.84,267.78L143.57,232.65L144.31,247L145.04,244.33L145.78,244.17L146.51,249.87L147.25,245.32L147.98,233.55L148.72,239.72L149.45,272.51L150.19,248.24L150.92,257.52L151.66,232.01L152.39,236.13L153.13,255.04L153.86,244.58L154.6,252.97L155.33,239.39L156.06,268.85L156.8,246.94L157.53,243.86L158.27,240.93L159,243.55L159.74,238.22L160.47,231.44L161.21,247.27L161.94,248.8L162.68,270.65L163.41,247.59L164.15,239L164.88,250.39L165.62,252.78L166.35,250.95L167.09,239.12L167.82,247.96L168.56,238.15L169.29,271.41L170.03,247.89L170.76,244.63L171.5,247.83L172.23,253.92L172.97,237.01L173.7,240.53L174.44,248.24L175.17,247.04L175.9,263.82L176.64,252.63L177.37,234.93L178.11,243.98L178.84,252.27L179.58,252.79L180.31,241.27L181.05,251.81L181.78,232.16L182.52,272.79L183.25,248.86L183.99,243.48L184.72,250.35L185.46,240.06L186.19,254.98L186.93,239.93L187.66,250.12L188.4,237.98L189.13,275.97L189.87,244.97L190.6,247.08L191.34,238.44L192.07,251.24L192.81,245.6L193.54,229.23L194.27,248.02L195.01,234.48L195.74,239.3L196.48,255.69L197.21,236.8L197.95,240.51L198.68,255.77L199.42,251.71L200.15,248.82L200.89,249.12L201.62,235.04L202.36,256.84L203.09,272.52L203.83,240.76L204.56,242.25L205.3,228.32L206.03,242.58L206.77,222.05L207.5,239.92L208.24,233.74L208.97,242.66L209.71,250.08L210.44,249.74L211.18,247.61L211.91,246.98L212.65,238.73L213.38,229.55L214.11,248.79L214.85,243.64L215.58,222.87L216.32,268.07L217.05,239.87L217.79,255.05L218.52,246.6L219.26,245.82L219.99,221.87L220.73,238.64L221.46,246.99L222.2,228.01L222.93,267.12L223.67,252.09L224.4,233.16L225.14,248.15L225.87,248.88L226.61,250.83L227.34,258.16L228.08,254.39L228.81,227.96L229.55,271.3L230.28,250.99L231.02,233.79L231.75,239.92L232.49,230.73L233.22,251.64L233.95,249.8L234.69,247.97L235.42,248.51L236.16,274.2L236.89,250.34L237.63,238.31L238.36,249.39L239.1,241.06L239.83,243.35L240.57,244.77L241.3,236.62L242.04,219.11L242.77,263.88L243.51,219.29L244.24,248.62L244.98,229.76L245.71,250.64L246.45,253.55L247.18,236.82L247.92,244.82L248.65,255.21L249.39,270.43L250.12,240.68L250.86,247.5L251.59,232.74L252.32,251.12L253.06,245.18L253.79,228.32L254.53,215.57L255.26,222L256,277L256.73,245.67L257.47,241.22L258.2,243.7L258.94,243.87L259.67,246.85L260.41,244.9L261.14,250.84L261.88,237.91L262.61,258.81L263.35,225.79L264.08,241.72L264.82,235.11L265.55,223.18L266.29,240.87L267.02,225.38L267.76,249.71L268.49,251.48L269.23,272.11L269.96,259.37L270.7,253.26L271.43,232.92L272.16,245.9L272.9,245.12L273.63,251.39L274.37,257.32L275.1,256.33L275.84,278.56L276.57,244.18L277.31,249.26L278.04,251.56L278.78,240.24L279.51,242.34L280.25,250.42L280.98,235.4L281.72,247.16L282.45,257.89L283.19,241.93L283.92,256.58L284.66,248.86L285.39,247.45L286.13,238.19L286.86,219.34L287.6,237.66L288.33,245.66L289.07,249.74L289.8,269.46L290.54,240.71L291.27,248.86L292,234.2L292.74,246.24L293.47,254.85L294.21,231.63L294.94,243.37L295.68,244.61L296.41,265.22L297.15,250.3L297.88,250.2L298.62,243.83L299.35,236.55L300.09,252.14L300.82,249.29L301.56,243.75L302.29,246.79L303.03,271.68L303.76,236.83L304.5,243.86L305.23,238.18L305.97,242.05L306.7,247.49L307.44,246.46L308.17,229.27L308.91,225.09L309.64,266.2L310.37,248.25L311.11,253.93L311.84,246.62L312.58,252.44L313.31,235.56L314.05,249.72L314.78,211.81L315.52,222.29L316.25,269.91L316.99,249.37L317.72,250.55L318.46,230.89L319.19,251.86L319.93,241.08L320.66,242.38L321.4,253.69L322.13,238.91L322.87,270.63L323.6,247.95L324.34,246.88L325.07,237.69L325.81,251.89L326.54,238.57L327.28,239.38L328.01,241.39L328.75,237.65L329.48,274.52L330.21,240.75L330.95,246.9L331.68,247.47L332.42,240.17L333.15,240.43L333.89,234.44L334.62,239.58L335.36,247.04L336.09,247.78L336.83,257.77L337.56,235.34L338.3,238.99L339.03,232.44L339.77,249.89L340.5,231.01L341.24,250.81L341.97,242.07L342.71,248.79L343.44,273.42L344.18,248.57L344.91,234.12L345.65,248.44L346.38,251.2L347.12,245.22L347.85,244.52L348.59,234.91L349.32,242.11L350.05,260.52L350.79,232.54L351.52,239.9L352.26,220.16L352.99,240.05L353.73,228.33L354.46,243.61L355.2,240.08L355.93,255.23L356.67,266.31L357.4,247.3L358.14,229.16L358.87,236.74L359.61,229.65L360.34,233.86L361.08,237.49L361.81,248.69L362.55,242.82L363.28,272.46L364.02,244.58L364.75,248.39L365.49,251.61L366.22,249.53L366.96,244.42L367.69,244.2L368.42,238.02L369.16,247.03L369.89,264.31L370.63,239.81L371.36,243.64L372.1,234.17L372.83,239.86L373.57,248.47L374.3,229.19L375.04,252.49L375.77,251.75L376.51,266.77L377.24,240L377.98,246.21L378.71,244.04L379.45,235.07L380.18,233.74L380.92,238.41L381.65,244.29L382.39,229.16L383.12,252.2L383.86,242.21L384.59,250.2L385.33,249.84L386.06,243.71L386.8,244.84L387.53,245.91L388.26,244.91L389,248.56L389.73,256.2L390.47,235.38L391.2,248.89L391.94,253.49L392.67,240.95L393.41,234.87L394.14,247.63L394.88,239.37L395.61,244.33L396.35,249.33L397.08,271.7L397.82,249.22L398.55,245.04L399.29,242.65L400.02,250.72L400.76,253.45L401.31,258.78" style="fill:none;stroke:#F15A60" />
<path d="M405.2,277.58L425.2,277.58" style="fill:none;stroke:#F15A60" />
<text x="240.25" y="-271.91" transform="scale(1, -1)"
	style="font-family:Times;font-weight:normal;font-style:normal;font-size:12px">batch-100kb-ctable-64mb-nosync</text>
</g>
</svg>
