<?xml version="1.0"?>
<!-- Generated by SVGo and Plotinum VG -->
<svg width="425.2pt" height="283.46pt" viewBox="0 0 425.2 283.46"
	xmlns="http://www.w3.org/2000/svg"
	xmlns:xlink="http://www.w3.org/1999/xlink">
<g transform="scale(1, -1) translate(0, -283.46)">
<path d="M0,0L425.2,0L425.2,283.46L0,283.46Z" style="fill:#FFFFFF" />
<text x="207.23" y="-3.8613" transform="scale(1, -1)"
	style="font-family:Times;font-weight:normal;font-style:normal;font-size:12px">database size</text>
<text x="60.252" y="-15.602" transform="scale(1, -1)"
	style="font-family:Times;font-weight:normal;font-style:normal;font-size:10px">4.00 mb</text>
<text x="136.77" y="-15.602" transform="scale(1, -1)"
	style="font-family:Times;font-weight:normal;font-style:normal;font-size:10px">260.00 mb</text>
<text x="218.28" y="-15.602" transform="scale(1, -1)"
	style="font-family:Times;font-weight:normal;font-style:normal;font-size:10px">516.00 mb</text>
<text x="299.79" y="-15.602" transform="scale(1, -1)"
	style="font-family:Times;font-weight:normal;font-style:normal;font-size:10px">772.00 mb</text>
<text x="377.42" y="-15.602" transform="scale(1, -1)"
	style="font-family:Times;font-weight:normal;font-style:normal;font-size:10px">1023.63 mb</text>
<path d="M76.642,25.23L76.642,33.23" style="fill:none;stroke:#000000;stroke-width:0.5" />
<path d="M158.16,25.23L158.16,33.23" style="fill:none;stroke:#000000;stroke-width:0.5" />
<path d="M239.67,25.23L239.67,33.23" style="fill:none;stroke:#000000;stroke-width:0.5" />
<path d="M321.18,25.23L321.18,33.23" style="fill:none;stroke:#000000;stroke-width:0.5" />
<path d="M401.31,25.23L401.31,33.23" style="fill:none;stroke:#000000;stroke-width:0.5" />
<path d="M76.114,33.23L401.31,33.23" style="fill:none;stroke:#000000;stroke-width:0.5" />
<g transform="rotate(90)">
<text x="144.86" y="11.555" transform="scale(1, -1)"
	style="font-family:Times;font-weight:normal;font-style:normal;font-size:12px">speed</text>
</g>
<text x="20.416" y="-35.062" transform="scale(1, -1)"
	style="font-family:Times;font-weight:normal;font-style:normal;font-size:10px">2.00 mb/s</text>
<text x="15.416" y="-126.84" transform="scale(1, -1)"
	style="font-family:Times;font-weight:normal;font-style:normal;font-size:10px">34.00 mb/s</text>
<text x="15.416" y="-218.62" transform="scale(1, -1)"
	style="font-family:Times;font-weight:normal;font-style:normal;font-size:10px">66.00 mb/s</text>
<text x="15.416" y="-273.84" transform="scale(1, -1)"
	style="font-family:Times;font-weight:normal;font-style:normal;font-size:10px">85.25 mb/s</text>
<path d="M62.364,39.784L70.364,39.784" style="fill:none;stroke:#000000;stroke-width:0.5" />
<path d="M62.364,131.56L70.364,131.56" style="fill:none;stroke:#000000;stroke-width:0.5" />
<path d="M62.364,223.34L70.364,223.34" style="fill:none;stroke:#000000;stroke-width:0.5" />
<path d="M62.364,278.56L70.364,278.56" style="fill:none;stroke:#000000;stroke-width:0.5" />
<path d="M70.364,38.48L70.364,278.56" style="fill:none;stroke:#000000;stroke-width:0.5" />
<path d="M76.114,253.51L76.861,239.52L77.607,213.78L78.353,248.12L79.099,249.41L79.846,248.22L80.592,258.19L81.338,120.11L82.085,168.1L82.831,260.69L83.577,264.39L84.323,261.19L85.07,74.931L85.816,166.98L86.562,224.84L87.309,217.82L88.055,61.896L88.801,277.2L89.547,165.13L90.294,269.02L91.04,265.5L91.786,56.174L92.533,149.27L93.279,262.79L94.025,265.64L94.771,223.8L95.518,55.867L96.264,95.659L97.01,250.36L97.757,266.33L98.503,270.57L99.249,55.747L99.995,70.231L100.74,251.24L101.49,244.98L102.23,275.92L102.98,55.813L103.73,59.41L104.47,257.59L105.22,253.26L105.97,262.45L106.71,54.936L107.46,165.18L108.2,264.53L108.95,270.77L109.7,55.727L110.44,266.48L111.19,96.972L111.94,227.4L112.68,197.57L113.43,54.83L114.17,69.987L114.92,232.8L115.67,249.72L116.41,269.64L117.16,51.97L117.91,59.631L118.65,245.7L119.4,272.67L120.15,57.398L120.89,55.102L121.64,258.9L122.38,55.238L123.13,214.82L123.88,164.4L124.62,212.61L125.37,55.285L126.12,85.713L126.86,256.37L127.61,215.98L128.35,239.09L129.1,55.245L129.85,65.024L130.59,262.92L131.34,56.756L132.09,278.56L132.83,55.729L133.58,55.656L134.32,53.519L135.07,242.46L135.82,254.64L136.56,272.85L137.31,270.62L138.06,55.779L138.8,105.59L139.55,258.21L140.29,250.34L141.04,272.88L141.79,55.641L142.53,74.264L143.28,267.54L144.03,252.27L144.77,211.51L145.52,54.683L146.26,60.967L147.01,249.72L147.76,58.053L148.5,56.618L149.25,225.68L150,56.573L150.74,54.28L151.49,153.22L152.24,55.251L152.98,112.15L153.73,229.02L154.47,266.66L155.22,55.936L155.97,78.627L156.71,161.71L157.46,234.82L158.21,253.89L158.95,55.461L159.7,63.597L160.44,273.68L161.19,56.928L161.94,261.34L162.68,56.593L163.43,56.58L164.18,56.897L164.92,53.582L165.67,53.097L166.41,141.23L167.16,186.61L167.91,159.12L168.65,268.36L169.4,55.734L170.15,78.078L170.89,260.2L171.64,260.12L172.38,266.22L173.13,55.397L173.88,63.527L174.62,248.18L175.37,264.17L176.12,56.84L176.86,56.687L177.61,55.919L178.36,55.897L179.1,56.762L179.85,155.43L180.59,52.352L181.34,151.3L182.09,56.139L182.83,103.71L183.58,243.16L184.33,266.62L185.07,55.39L185.82,73.346L186.56,227.13L187.31,196.17L188.06,254.61L188.8,56.181L189.55,60.136L190.3,234.5L191.04,57.025L191.79,56.724L192.53,267.26L193.28,56.128L194.03,56.843L194.77,55.994L195.52,57.446L196.27,53.349L197.01,131.58L197.76,52.221L198.5,87.076L199.25,169.93L200,247.91L200.74,55.525L201.49,265.19L202.24,65.801L202.98,261.16L203.73,57.914L204.48,56.644L205.22,210.48L205.97,56.212L206.71,56.707L207.46,55.116L208.21,57.038L208.95,57.467L209.7,135.83L210.45,53.706L211.19,48.367L211.94,219.81L212.68,239.41L213.43,259.2L214.18,200.26L214.92,55.897L215.67,67.584L216.42,257.85L217.16,195.23L217.91,54.976L218.65,189.44L219.4,57.642L220.15,261.87L220.89,57.163L221.64,61.117L222.39,251.46L223.13,264.94L223.88,54.872L224.62,86.305L225.37,253.69L226.12,56.032L226.86,261.67L227.61,66.345L228.36,269.9L229.1,57.846L229.85,56.933L230.6,55.75L231.34,265.04L232.09,56.062L232.83,54.785L233.58,54.112L234.33,135.94L235.07,54.956L235.82,143.21L236.57,164.54L237.31,263.38L238.06,54.97L238.8,78.532L239.55,217.79L240.3,253.21L241.04,265.98L241.79,55.555L242.54,63.094L243.28,240.85L244.03,53.891L244.77,266.56L245.52,55.072L246.27,54.223L247.01,56.107L247.76,55.707L248.51,139.72L249.25,56.121L250,57.35L250.74,57.597L251.49,53.469L252.24,46.253L252.98,256.02L253.73,266.3L254.48,271.4L255.22,258.68L255.97,55.377L256.72,77.743L257.46,258.7L258.21,98.388L258.95,56.4L259.7,56.801L260.45,56.08L261.19,56.6L261.94,272.18L262.69,54.929L263.43,57.413L264.18,57.163L264.92,56.876L265.67,57.161L266.42,147.8L267.16,41.925L267.91,267.55L268.66,264.93L269.4,266.45L270.15,249.32L270.89,56.655L271.64,61.111L272.39,266.63L273.13,56.812L273.88,56.258L274.63,261.51L275.37,56.546L276.12,55.645L276.86,55.622L277.61,57.507L278.36,57.303L279.1,137.19L279.85,56.965L280.6,58.478L281.34,39.832L282.09,230.42L282.84,226.34L283.58,239.6L284.33,203.27L285.07,62.393L285.82,54.99L286.57,246.9L287.31,57.778L288.06,265.56L288.81,56.103L289.55,56.51L290.3,62.376L291.04,157.08L291.79,131.56L292.54,55.397L293.28,131.42L294.03,267.79L294.78,55.535L295.52,97.855L296.27,262.59L297.01,112.75L297.76,162.33L298.51,209.22L299.25,55.592L300,76.901L300.75,266.04L301.49,96.761L302.24,56.593L302.98,56.276L303.73,56.385L304.48,56.516L305.22,153.47L305.97,57.209L306.72,57.383L307.46,56.533L308.21,53.738L308.95,46.218L309.7,263.3L310.45,264.81L311.19,276.18L311.94,258.61L312.69,56.333L313.43,234.85L314.18,61.192L314.93,277.68L315.67,57.172L316.42,56.897L317.16,56.66L317.91,271.18L318.66,56.888L319.4,55.2L320.15,55.607L320.9,57.072L321.64,57.083L322.39,129L323.13,56.612L323.88,39.789L324.63,225.49L325.37,242.19L326.12,247.56L326.87,272.05L327.61,64.094L328.36,55.137L329.1,166.96L329.85,56.933L330.6,56.153L331.34,241.34L332.09,56.613L332.84,56.539L333.58,55.927L334.33,59.253L335.07,121.67L335.82,53.218L336.57,126.97L337.31,246.89L338.06,172.97L338.81,257.49L339.55,265.05L340.3,56.05L341.05,103.29L341.79,95.248L342.54,54.041L343.28,75.849L344.03,266.13L344.78,85.415L345.52,269.07L346.27,56.154L347.02,56.426L347.76,56.528L348.51,278.46L349.25,54.31L350,56.85L350.75,57.462L351.49,54.044L352.24,54.646L352.99,132.58L353.73,66.887L354.48,56.89L355.22,55.773L355.97,54.72L356.72,246.48L357.46,268.7L358.21,53.772L358.96,99.273L359.7,69.142L360.45,250.25L361.19,255.15L361.94,58.16L362.69,56.942L363.43,55.208L364.18,56.858L364.93,57.049L365.67,150.88L366.42,56.904L367.17,56.565L367.91,38.733L368.66,56.575L369.4,56.321L370.15,208.34L370.9,57.098L371.64,54.753L372.39,203.4L373.14,56.113L373.88,56.704L374.63,203.16L375.37,267.34L376.12,57.879L376.87,56.194L377.61,55.758L378.36,250.31L379.11,54.115L379.85,58.811L380.6,57.222L381.34,57.588L382.09,56.784L382.84,133.87L383.58,38.48L384.33,263.92L385.08,58.29L385.82,56.632L386.57,56.15L387.31,264.89L388.06,56.889L388.81,56.972L389.55,57.024L390.3,57.904L391.05,54.408L391.79,122.66L392.54,185.17L393.29,56.536L394.03,55.879L394.78,56.711L395.52,56.425L396.27,263.27L397.02,54.287L397.76,134.12L398.51,55.47L399.26,99.759L400,125.49L400.75,128.71L401.31,49.722" style="fill:none;stroke:#F15A60" />
<path d="M405.2,277.58L425.2,277.58" style="fill:none;stroke:#F15A60" />
<text x="278.24" y="-271.91" transform="scale(1, -1)"
	style="font-family:Times;font-weight:normal;font-style:normal;font-size:12px">batch-100kb-ctable-64mb</text>
</g>
</svg>
