<?xml version="1.0"?>
<!-- Generated by SVGo and Plotinum VG -->
<svg width="425.2pt" height="283.46pt" viewBox="0 0 425.2 283.46"
	xmlns="http://www.w3.org/2000/svg"
	xmlns:xlink="http://www.w3.org/1999/xlink">
<g transform="scale(1, -1) translate(0, -283.46)">
<path d="M0,0L425.2,0L425.2,283.46L0,283.46Z" style="fill:#FFFFFF" />
<text x="207.23" y="-3.8613" transform="scale(1, -1)"
	style="font-family:Times;font-weight:normal;font-style:normal;font-size:12px">database size</text>
<text x="60.682" y="-15.602" transform="scale(1, -1)"
	style="font-family:Times;font-weight:normal;font-style:normal;font-size:10px">8.00 mb</text>
<text x="137.38" y="-15.602" transform="scale(1, -1)"
	style="font-family:Times;font-weight:normal;font-style:normal;font-size:10px">264.00 mb</text>
<text x="219.08" y="-15.602" transform="scale(1, -1)"
	style="font-family:Times;font-weight:normal;font-style:normal;font-size:10px">520.00 mb</text>
<text x="300.77" y="-15.602" transform="scale(1, -1)"
	style="font-family:Times;font-weight:normal;font-style:normal;font-size:10px">776.00 mb</text>
<text x="377.42" y="-15.602" transform="scale(1, -1)"
	style="font-family:Times;font-weight:normal;font-style:normal;font-size:10px">1024.00 mb</text>
<path d="M77.072,25.23L77.072,33.23" style="fill:none;stroke:#000000;stroke-width:0.5" />
<path d="M158.77,25.23L158.77,33.23" style="fill:none;stroke:#000000;stroke-width:0.5" />
<path d="M240.47,25.23L240.47,33.23" style="fill:none;stroke:#000000;stroke-width:0.5" />
<path d="M322.16,25.23L322.16,33.23" style="fill:none;stroke:#000000;stroke-width:0.5" />
<path d="M401.31,25.23L401.31,33.23" style="fill:none;stroke:#000000;stroke-width:0.5" />
<path d="M76.114,33.23L401.31,33.23" style="fill:none;stroke:#000000;stroke-width:0.5" />
<g transform="rotate(90)">
<text x="144.86" y="11.555" transform="scale(1, -1)"
	style="font-family:Times;font-weight:normal;font-style:normal;font-size:12px">speed</text>
</g>
<text x="20.416" y="-36.876" transform="scale(1, -1)"
	style="font-family:Times;font-weight:normal;font-style:normal;font-size:10px">2.00 mb/s</text>
<text x="15.416" y="-98.427" transform="scale(1, -1)"
	style="font-family:Times;font-weight:normal;font-style:normal;font-size:10px">18.00 mb/s</text>
<text x="15.416" y="-159.98" transform="scale(1, -1)"
	style="font-family:Times;font-weight:normal;font-style:normal;font-size:10px">34.00 mb/s</text>
<text x="15.416" y="-221.53" transform="scale(1, -1)"
	style="font-family:Times;font-weight:normal;font-style:normal;font-size:10px">50.00 mb/s</text>
<text x="15.416" y="-273.84" transform="scale(1, -1)"
	style="font-family:Times;font-weight:normal;font-style:normal;font-size:10px">63.60 mb/s</text>
<path d="M62.364,41.598L70.364,41.598" style="fill:none;stroke:#000000;stroke-width:0.5" />
<path d="M62.364,103.15L70.364,103.15" style="fill:none;stroke:#000000;stroke-width:0.5" />
<path d="M62.364,164.7L70.364,164.7" style="fill:none;stroke:#000000;stroke-width:0.5" />
<path d="M62.364,226.25L70.364,226.25" style="fill:none;stroke:#000000;stroke-width:0.5" />
<path d="M62.364,278.56L70.364,278.56" style="fill:none;stroke:#000000;stroke-width:0.5" />
<path d="M70.364,38.48L70.364,278.56" style="fill:none;stroke:#000000;stroke-width:0.5" />
<path d="M76.114,205.13L77.71,241.65L79.306,278.56L80.901,261.81L82.497,273.45L84.093,248.08L85.688,235.9L87.284,272.84L88.88,227.83L90.475,275.45L92.071,268.97L93.666,271.03L95.262,270.34L96.858,226.17L98.453,270.35L100.05,270.22L101.64,275.73L103.24,257.47L104.84,274.59L106.43,266.65L108.03,267.15L109.62,62.584L111.22,243.59L112.81,219.96L114.41,254.78L116.01,260.92L117.6,266.15L119.2,256.13L120.79,252.83L122.39,62.471L123.98,259.73L125.58,270.15L127.18,261.13L128.77,256.99L130.37,49.066L131.96,217.24L133.56,237.02L135.15,268.57L136.75,263.72L138.34,266.7L139.94,237.84L141.54,254.02L143.13,55.718L144.73,262.01L146.32,259.76L147.92,266.27L149.51,266.2L151.11,241.05L152.71,49.091L154.3,274.25L155.9,264.17L157.49,265.48L159.09,267.27L160.68,260.11L162.28,262.95L163.88,51.582L165.47,269.26L167.07,257.61L168.66,232.4L170.26,257.63L171.85,260.9L173.45,46.463L175.04,257.65L176.64,267.47L178.24,239.74L179.83,232.02L181.43,261.04L183.02,248.88L184.62,262.37L186.21,51.37L187.81,248.31L189.41,234.89L191,249.11L192.6,262.4L194.19,262.69L195.79,47.618L197.38,257.19L198.98,224.66L200.58,241.68L202.17,256.13L203.77,249.14L205.36,247.25L206.96,46.581L208.55,245.62L210.15,232.12L211.75,249.36L213.34,231.26L214.94,237.32L216.53,262.47L218.13,261.62L219.72,44.038L221.32,216.19L222.91,265.41L224.51,254.84L226.11,253.98L227.7,258.73L229.3,257.97L230.89,266.61L232.49,258.85L234.08,41.298L235.68,226.84L237.28,257.4L238.87,260.23L240.47,262.76L242.06,228.19L243.66,243.22L245.25,260.64L246.85,263.11L248.45,265.59L250.04,268.75L251.64,40.163L253.23,249.1L254.83,260.06L256.42,260.75L258.02,245.68L259.61,266.41L261.21,255.51L262.81,268.6L264.4,270.89L266,267.65L267.59,268.26L269.19,249.72L270.78,267.52L272.38,39.208L273.98,247.24L275.57,236.45L277.17,267.31L278.76,266.84L280.36,269.98L281.95,232.5L283.55,252.31L285.15,234.13L286.74,245.14L288.34,258.11L289.93,256.53L291.53,264.88L293.12,38.831L294.72,259.47L296.31,270.45L297.91,270.57L299.51,267.55L301.1,229.7L302.7,271.73L304.29,263.91L305.89,270.14L307.48,269L309.08,266.5L310.68,254.37L312.27,268.09L313.87,38.698L315.46,269.85L317.06,270.1L318.65,265.94L320.25,269.21L321.85,225.49L323.44,265.27L325.04,263.74L326.63,263.9L328.23,241.78L329.82,264.05L331.42,264.93L333.01,264.33L334.61,38.664L336.21,261.68L337.8,261.87L339.4,266.45L340.99,271.07L342.59,233.4L344.18,253.59L345.78,235.99L347.38,217.23L348.97,240.72L350.57,268.83L352.16,266.38L353.76,264.1L355.35,38.543L356.95,241.95L358.55,267.95L360.14,271.14L361.74,267.2L363.33,267.12L364.93,265.41L366.52,270.08L368.12,257.21L369.71,263.13L371.31,253.27L372.91,243.51L374.5,262.16L376.1,38.529L377.69,266.86L379.29,246.59L380.88,272.47L382.48,269.75L384.08,243.49L385.67,229.28L387.27,256.94L388.86,272.93L390.46,267.52L392.05,243.4L393.65,251.91L395.25,231.51L396.84,38.48L398.44,246.29L400.03,267.08L401.31,275.63" style="fill:none;stroke:#F15A60" />
<path d="M405.2,277.58L425.2,277.58" style="fill:none;stroke:#F15A60" />
<text x="325.55" y="-271.91" transform="scale(1, -1)"
	style="font-family:Times;font-weight:normal;font-style:normal;font-size:12px">batch-5mb-notx</text>
</g>
</svg>
