<?xml version="1.0"?>
<!-- Generated by SVGo and Plotinum VG -->
<svg width="425.2pt" height="283.46pt" viewBox="0 0 425.2 283.46"
	xmlns="http://www.w3.org/2000/svg"
	xmlns:xlink="http://www.w3.org/1999/xlink">
<g transform="scale(1, -1) translate(0, -283.46)">
<path d="M0,0L425.2,0L425.2,283.46L0,283.46Z" style="fill:#FFFFFF" />
<text x="207.23" y="-3.8613" transform="scale(1, -1)"
	style="font-family:Times;font-weight:normal;font-style:normal;font-size:12px">database size</text>
<text x="60.252" y="-15.602" transform="scale(1, -1)"
	style="font-family:Times;font-weight:normal;font-style:normal;font-size:10px">4.00 mb</text>
<text x="136.77" y="-15.602" transform="scale(1, -1)"
	style="font-family:Times;font-weight:normal;font-style:normal;font-size:10px">260.00 mb</text>
<text x="218.28" y="-15.602" transform="scale(1, -1)"
	style="font-family:Times;font-weight:normal;font-style:normal;font-size:10px">516.00 mb</text>
<text x="299.79" y="-15.602" transform="scale(1, -1)"
	style="font-family:Times;font-weight:normal;font-style:normal;font-size:10px">772.00 mb</text>
<text x="377.42" y="-15.602" transform="scale(1, -1)"
	style="font-family:Times;font-weight:normal;font-style:normal;font-size:10px">1023.63 mb</text>
<path d="M76.642,25.23L76.642,33.23" style="fill:none;stroke:#000000;stroke-width:0.5" />
<path d="M158.16,25.23L158.16,33.23" style="fill:none;stroke:#000000;stroke-width:0.5" />
<path d="M239.67,25.23L239.67,33.23" style="fill:none;stroke:#000000;stroke-width:0.5" />
<path d="M321.18,25.23L321.18,33.23" style="fill:none;stroke:#000000;stroke-width:0.5" />
<path d="M401.31,25.23L401.31,33.23" style="fill:none;stroke:#000000;stroke-width:0.5" />
<path d="M76.114,33.23L401.31,33.23" style="fill:none;stroke:#000000;stroke-width:0.5" />
<g transform="rotate(90)">
<text x="144.86" y="11.555" transform="scale(1, -1)"
	style="font-family:Times;font-weight:normal;font-style:normal;font-size:12px">speed</text>
</g>
<text x="20.416" y="-35.999" transform="scale(1, -1)"
	style="font-family:Times;font-weight:normal;font-style:normal;font-size:10px">2.00 mb/s</text>
<text x="15.416" y="-133.13" transform="scale(1, -1)"
	style="font-family:Times;font-weight:normal;font-style:normal;font-size:10px">34.00 mb/s</text>
<text x="15.416" y="-230.27" transform="scale(1, -1)"
	style="font-family:Times;font-weight:normal;font-style:normal;font-size:10px">66.00 mb/s</text>
<text x="15.416" y="-273.84" transform="scale(1, -1)"
	style="font-family:Times;font-weight:normal;font-style:normal;font-size:10px">80.35 mb/s</text>
<path d="M62.364,40.721L70.364,40.721" style="fill:none;stroke:#000000;stroke-width:0.5" />
<path d="M62.364,137.86L70.364,137.86" style="fill:none;stroke:#000000;stroke-width:0.5" />
<path d="M62.364,234.99L70.364,234.99" style="fill:none;stroke:#000000;stroke-width:0.5" />
<path d="M62.364,278.56L70.364,278.56" style="fill:none;stroke:#000000;stroke-width:0.5" />
<path d="M70.364,38.48L70.364,278.56" style="fill:none;stroke:#000000;stroke-width:0.5" />
<path d="M76.114,252.78L76.861,209.32L77.607,254.57L78.353,261.58L79.099,246.88L79.846,216.84L80.592,268.8L81.338,271.89L82.085,262.32L82.831,266.57L83.577,269.41L84.323,209.62L85.07,274.18L85.816,277.31L86.562,263.56L87.309,173.84L88.055,255.9L88.801,260.11L89.547,263.44L90.294,243.59L91.04,156.25L91.786,154.52L92.533,187.34L93.279,245.95L94.025,208.25L94.771,144.53L95.518,155.44L96.264,146.35L97.01,148.1L97.757,140.45L98.503,267.11L99.249,261.34L99.995,155.26L100.74,139.57L101.49,154.55L102.23,150.4L102.98,139.42L103.73,80.336L104.47,194.04L105.22,163.5L105.97,151.61L106.71,152.58L107.46,147.2L108.2,144.71L108.95,61.153L109.7,252.57L110.44,185.13L111.19,146.51L111.94,151.05L112.68,154.94L113.43,155L114.17,52.957L114.92,257.89L115.67,212.48L116.41,156.71L117.16,151.49L117.91,137.56L118.65,139.65L119.4,153.35L120.15,50.231L120.89,263.51L121.64,149.09L122.38,136.87L123.13,149.63L123.88,151.87L124.62,152.55L125.37,46.49L126.12,257.05L126.86,255.61L127.61,173.65L128.35,142.54L129.1,155.08L129.85,154.21L130.59,153.35L131.34,48.943L132.09,260.91L132.83,207.52L133.58,124.85L134.32,140.68L135.07,152.75L135.82,153.46L136.56,153.87L137.31,45.069L138.06,258.49L138.8,251.8L139.55,259.11L140.29,171.65L141.04,153.31L141.79,153.57L142.53,152.03L143.28,156.21L144.03,49.071L144.77,251.9L145.52,186.55L146.26,142.43L147.01,149.08L147.76,153.21L148.5,150.55L149.25,151.26L150,45.962L150.74,268.47L151.49,264.89L152.24,151.54L152.98,149.18L153.73,141.62L154.47,140.56L155.22,155.85L155.97,45.716L156.71,256.54L157.46,246.48L158.21,184.13L158.95,147.41L159.7,140.11L160.44,146.39L161.19,155.93L161.94,152.7L162.68,43.499L163.43,261.19L164.18,264.89L164.92,255.24L165.67,165.05L166.41,153.37L167.16,156.2L167.91,145.45L168.65,157.82L169.4,45.415L170.15,249.93L170.89,260.19L171.64,190.06L172.38,140.14L173.13,139.57L173.88,151.33L174.62,151.81L175.37,155.67L176.12,43.582L176.86,252.28L177.61,222.64L178.36,256.23L179.1,179.75L179.85,139.86L180.59,142.65L181.34,156.99L182.09,155L182.83,45.278L183.58,245.22L184.33,267.39L185.07,195.45L185.82,153.03L186.56,153.19L187.31,152.28L188.06,151.97L188.8,157.16L189.55,43.538L190.3,262.95L191.04,264.14L191.79,208.7L192.53,190.17L193.28,158.09L194.03,148.54L194.77,153.26L195.52,154.23L196.27,45.14L197.01,259.64L197.76,246.26L198.5,175.08L199.25,137.52L200,140.73L200.74,136.52L201.49,137.9L202.24,149.1L202.98,43.366L203.73,259.11L204.48,269.05L205.22,240.8L205.97,196.21L206.71,155.29L207.46,147.18L208.21,149.52L208.95,153.34L209.7,152.75L210.45,42.38L211.19,267.12L211.94,260.32L212.68,257.62L213.43,255.37L214.18,178.44L214.92,150.23L215.67,144.93L216.42,147.88L217.16,140.96L217.91,40.986L218.65,257.72L219.4,269.97L220.15,262.51L220.89,267.18L221.64,259.1L222.39,258.04L223.13,202.43L223.88,140.85L224.62,152.82L225.37,152.98L226.12,155.6L226.86,151.38L227.61,40.696L228.36,269.1L229.1,259.11L229.85,240.27L230.6,205.17L231.34,251.15L232.09,215.99L232.83,152.67L233.58,138.04L234.33,144.12L235.07,153.39L235.82,152.14L236.57,40.258L237.31,262.24L238.06,265.73L238.8,203.54L239.55,242.08L240.3,265.57L241.04,173.32L241.79,145.63L242.54,155.8L243.28,140.25L244.03,153.26L244.77,146.52L245.52,39.758L246.27,271.56L247.01,266.18L247.76,244.82L248.51,253.5L249.25,260.83L250,277.2L250.74,270.6L251.49,155.05L252.24,133.14L252.98,146.88L253.73,158.2L254.48,156.61L255.22,39.464L255.97,255.25L256.72,251.66L257.46,261.54L258.21,262.36L258.95,267.47L259.7,218.26L260.45,264.47L261.19,166.85L261.94,131.79L262.69,154.83L263.43,154.2L264.18,146.42L264.92,39.174L265.67,185.29L266.42,257.83L267.16,264.04L267.91,260.11L268.66,255.9L269.4,264.08L270.15,244.66L270.89,263.03L271.64,225.37L272.39,128.43L273.13,141.34L273.88,148.33L274.63,150.03L275.37,155.84L276.12,39.348L276.86,260.61L277.61,259.71L278.36,248.05L279.1,259.74L279.85,262.48L280.6,265.03L281.34,262.07L282.09,155.82L282.84,146.48L283.58,152.57L284.33,155.03L285.07,151.58L285.82,39.081L286.57,246.94L287.31,246.94L288.06,258.7L288.81,262.44L289.55,236.39L290.3,203.83L291.04,192L291.79,243.3L292.54,204.29L293.28,155.63L294.03,152.57L294.78,153.74L295.52,135.98L296.27,146.54L297.01,38.984L297.76,260.96L298.51,264.03L299.25,248.39L300,257.9L300.75,198.91L301.49,260.42L302.24,268.83L302.98,258.29L303.73,157.82L304.48,152.12L305.22,141.76L305.97,142.11L306.72,141.12L307.46,38.858L308.21,242.28L308.95,246.15L309.7,268.58L310.45,267.64L311.19,243.61L311.94,261.99L312.69,252.42L313.43,244.36L314.18,206.68L314.93,157.15L315.67,154.51L316.42,153.04L317.16,152.09L317.91,134.71L318.66,38.661L319.4,263.14L320.15,264.95L320.9,247.7L321.64,217.68L322.39,212.87L323.13,216.85L323.88,240.65L324.63,230.68L325.37,163.22L326.12,147.64L326.87,138.99L327.61,127.05L328.36,143.91L329.1,38.665L329.85,257.25L330.6,233.7L331.34,223.01L332.09,250.58L332.84,270.74L333.58,266.9L334.33,253.97L335.07,242.11L335.82,180.38L336.57,154.37L337.31,154.92L338.06,153.8L338.81,150.04L339.55,134.36L340.3,38.662L341.05,271.2L341.79,278.56L342.54,268.47L343.28,234.45L344.03,240.13L344.78,257.96L345.52,240.11L346.27,223.91L347.02,140.7L347.76,137.2L348.51,149.65L349.25,154.58L350,151.92L350.75,38.594L351.49,254.14L352.24,254L352.99,266.29L353.73,263.78L354.48,266.72L355.22,265.13L355.97,261.32L356.72,256.39L357.46,178.25L358.21,146.9L358.96,145.27L359.7,148.66L360.45,148.9L361.19,148.78L361.94,38.732L362.69,256.9L363.43,253.56L364.18,203.79L364.93,234.38L365.67,215.57L366.42,259.3L367.17,268.56L367.91,270.12L368.66,153.37L369.4,151.68L370.15,141.54L370.9,150.9L371.64,146.23L372.39,38.599L373.14,192.2L373.88,236.2L374.63,270.56L375.37,260.83L376.12,262.63L376.87,213.61L377.61,260.99L378.36,245.66L379.11,197.88L379.85,154.55L380.6,156.41L381.34,153.4L382.09,138.15L382.84,147.26L383.58,38.702L384.33,225.43L385.08,251.42L385.82,198.01L386.57,227.3L387.31,255.65L388.06,264.38L388.81,241.58L389.55,227.66L390.3,160.1L391.05,147.43L391.79,137.62L392.54,153.74L393.29,154.81L394.03,38.48L394.78,227.64L395.52,253.43L396.27,270.96L397.02,199.48L397.76,264.93L398.51,265.28L399.26,257.75L400,254.89L400.75,205.44L401.31,140.97" style="fill:none;stroke:#F15A60" />
<path d="M405.2,277.58L425.2,277.58" style="fill:none;stroke:#F15A60" />
<text x="304.22" y="-271.91" transform="scale(1, -1)"
	style="font-family:Times;font-weight:normal;font-style:normal;font-size:12px">batch-100kb-nosync</text>
</g>
</svg>
