<?xml version="1.0"?>
<!-- Generated by SVGo and Plotinum VG -->
<svg width="425.2pt" height="283.46pt" viewBox="0 0 425.2 283.46"
	xmlns="http://www.w3.org/2000/svg"
	xmlns:xlink="http://www.w3.org/1999/xlink">
<g transform="scale(1, -1) translate(0, -283.46)">
<path d="M0,0L425.2,0L425.2,283.46L0,283.46Z" style="fill:#FFFFFF" />
<text x="207.23" y="-3.8613" transform="scale(1, -1)"
	style="font-family:Times;font-weight:normal;font-style:normal;font-size:12px">database size</text>
<text x="60.682" y="-15.602" transform="scale(1, -1)"
	style="font-family:Times;font-weight:normal;font-style:normal;font-size:10px">8.00 mb</text>
<text x="137.38" y="-15.602" transform="scale(1, -1)"
	style="font-family:Times;font-weight:normal;font-style:normal;font-size:10px">264.00 mb</text>
<text x="219.08" y="-15.602" transform="scale(1, -1)"
	style="font-family:Times;font-weight:normal;font-style:normal;font-size:10px">520.00 mb</text>
<text x="300.77" y="-15.602" transform="scale(1, -1)"
	style="font-family:Times;font-weight:normal;font-style:normal;font-size:10px">776.00 mb</text>
<text x="377.42" y="-15.602" transform="scale(1, -1)"
	style="font-family:Times;font-weight:normal;font-style:normal;font-size:10px">1024.00 mb</text>
<path d="M77.072,25.23L77.072,33.23" style="fill:none;stroke:#000000;stroke-width:0.5" />
<path d="M158.77,25.23L158.77,33.23" style="fill:none;stroke:#000000;stroke-width:0.5" />
<path d="M240.47,25.23L240.47,33.23" style="fill:none;stroke:#000000;stroke-width:0.5" />
<path d="M322.16,25.23L322.16,33.23" style="fill:none;stroke:#000000;stroke-width:0.5" />
<path d="M401.31,25.23L401.31,33.23" style="fill:none;stroke:#000000;stroke-width:0.5" />
<path d="M76.114,33.23L401.31,33.23" style="fill:none;stroke:#000000;stroke-width:0.5" />
<g transform="rotate(90)">
<text x="144.86" y="11.555" transform="scale(1, -1)"
	style="font-family:Times;font-weight:normal;font-style:normal;font-size:12px">speed</text>
</g>
<text x="20.416" y="-35.379" transform="scale(1, -1)"
	style="font-family:Times;font-weight:normal;font-style:normal;font-size:10px">2.00 mb/s</text>
<text x="15.416" y="-100.95" transform="scale(1, -1)"
	style="font-family:Times;font-weight:normal;font-style:normal;font-size:10px">18.00 mb/s</text>
<text x="15.416" y="-166.52" transform="scale(1, -1)"
	style="font-family:Times;font-weight:normal;font-style:normal;font-size:10px">34.00 mb/s</text>
<text x="15.416" y="-232.1" transform="scale(1, -1)"
	style="font-family:Times;font-weight:normal;font-style:normal;font-size:10px">50.00 mb/s</text>
<text x="15.416" y="-273.84" transform="scale(1, -1)"
	style="font-family:Times;font-weight:normal;font-style:normal;font-size:10px">60.18 mb/s</text>
<path d="M62.364,40.101L70.364,40.101" style="fill:none;stroke:#000000;stroke-width:0.5" />
<path d="M62.364,105.67L70.364,105.67" style="fill:none;stroke:#000000;stroke-width:0.5" />
<path d="M62.364,171.25L70.364,171.25" style="fill:none;stroke:#000000;stroke-width:0.5" />
<path d="M62.364,236.82L70.364,236.82" style="fill:none;stroke:#000000;stroke-width:0.5" />
<path d="M62.364,278.56L70.364,278.56" style="fill:none;stroke:#000000;stroke-width:0.5" />
<path d="M70.364,38.48L70.364,278.56" style="fill:none;stroke:#000000;stroke-width:0.5" />
<path d="M76.114,197.77L77.71,278.56L79.306,233.82L80.901,275.25L82.497,247.55L84.093,263.71L85.688,258.79L87.284,272.28L88.88,267.25L90.475,230.59L92.071,254.1L93.666,99.109L95.262,262.91L96.858,275.26L98.453,82.327L100.05,243.08L101.64,243.93L103.24,70.089L104.84,237.87L106.43,262.36L108.03,62.42L109.62,225.81L111.22,274.03L112.81,57.245L114.41,251.78L116.01,258.9L117.6,53.704L119.2,267.97L120.79,233.77L122.39,53.115L123.98,238.71L125.58,254.57L127.18,52.716L128.77,199.68L130.37,260.5L131.96,52.41L133.56,243.85L135.15,268.13L136.75,51.909L138.34,245.57L139.94,241.39L141.54,52.044L143.13,246.6L144.73,267.09L146.32,51.645L147.92,239.58L149.51,268.19L151.11,51.679L152.71,215.59L154.3,263.73L155.9,49.775L157.49,253.22L159.09,261.48L160.68,267.04L162.28,52.902L163.88,255.52L165.47,266.31L167.07,52.186L168.66,258.26L170.26,232.83L171.85,52.646L173.45,253.09L175.04,222.89L176.64,51.724L178.24,211.76L179.83,238.67L181.43,48.697L183.02,242.7L184.62,253.43L186.21,219.38L187.81,47.355L189.41,255.78L191,204.1L192.6,267.24L194.19,46.321L195.79,249.21L197.38,259.97L198.98,239.86L200.58,45.085L202.17,216.64L203.77,223.13L205.36,262.33L206.96,42.979L208.55,226.99L210.15,267.07L211.75,272.11L213.34,231.79L214.94,42.386L216.53,250.22L218.13,267.2L219.72,266.85L221.32,211.65L222.91,41.948L224.51,252.11L226.11,246.2L227.7,254.38L229.3,246.72L230.89,40.821L232.49,251.46L234.08,259.4L235.68,257.98L237.28,255.63L238.87,256.35L240.47,40.615L242.06,233.66L243.66,266.33L245.25,218.98L246.85,243.82L248.45,259.75L250.04,40.325L251.64,230.99L253.23,262.04L254.83,257.48L256.42,277.38L258.02,268.33L259.61,39.927L261.21,207.28L262.81,260.68L264.4,268.07L266,259.39L267.59,259.7L269.19,39.32L270.78,255.06L272.38,248.28L273.98,263.92L275.57,256.91L277.17,248.5L278.76,39.485L280.36,248.31L281.95,237.89L283.55,251.58L285.15,213.37L286.74,250.75L288.34,39.495L289.93,251.7L291.53,261.02L293.12,273.45L294.72,264.98L296.31,259.64L297.91,39.29L299.51,241.18L301.1,255.53L302.7,270.15L304.29,232.06L305.89,251.48L307.48,39.301L309.08,254.09L310.68,257.42L312.27,222.32L313.87,258.67L315.46,256.29L317.06,39.238L318.65,251.54L320.25,258.09L321.85,271.14L323.44,259.49L325.04,272.39L326.63,39.352L328.23,249.84L329.82,253.7L331.42,235.93L333.01,255.87L334.61,264.68L336.21,39.362L337.8,244.74L339.4,262.16L340.99,260.29L342.59,258.32L344.18,247.59L345.78,39.263L347.38,245.79L348.97,255.8L350.57,262.26L352.16,259.36L353.76,258.34L355.35,39.126L356.95,227.12L358.55,261.43L360.14,262.08L361.74,265.83L363.33,260.61L364.93,39.079L366.52,256.39L368.12,242.52L369.71,268.31L371.31,264.97L372.91,270.63L374.5,39.108L376.1,198.05L377.69,262.97L379.29,260.05L380.88,255.98L382.48,264.51L384.08,38.892L385.67,254.66L387.27,251.58L388.86,259.96L390.46,262.57L392.05,199.83L393.65,38.48L395.25,244.15L396.84,257.2L398.44,263.22L400.03,214.25L401.31,204.33" style="fill:none;stroke:#F15A60" />
<path d="M405.2,277.58L425.2,277.58" style="fill:none;stroke:#F15A60" />
<text x="350.88" y="-271.91" transform="scale(1, -1)"
	style="font-family:Times;font-weight:normal;font-style:normal;font-size:12px">batch-5mb</text>
</g>
</svg>
