<?xml version="1.0"?>
<!-- Generated by SVGo and Plotinum VG -->
<svg width="425.2pt" height="283.46pt" viewBox="0 0 425.2 283.46"
	xmlns="http://www.w3.org/2000/svg"
	xmlns:xlink="http://www.w3.org/1999/xlink">
<g transform="scale(1, -1) translate(0, -283.46)">
<path d="M0,0L425.2,0L425.2,283.46L0,283.46Z" style="fill:#FFFFFF" />
<text x="207.23" y="-3.8613" transform="scale(1, -1)"
	style="font-family:Times;font-weight:normal;font-style:normal;font-size:12px">database size</text>
<text x="60.361" y="-15.602" transform="scale(1, -1)"
	style="font-family:Times;font-weight:normal;font-style:normal;font-size:10px">4.00 mb</text>
<text x="136.82" y="-15.602" transform="scale(1, -1)"
	style="font-family:Times;font-weight:normal;font-style:normal;font-size:10px">260.00 mb</text>
<text x="218.28" y="-15.602" transform="scale(1, -1)"
	style="font-family:Times;font-weight:normal;font-style:normal;font-size:10px">516.00 mb</text>
<text x="299.73" y="-15.602" transform="scale(1, -1)"
	style="font-family:Times;font-weight:normal;font-style:normal;font-size:10px">772.00 mb</text>
<text x="377.42" y="-15.602" transform="scale(1, -1)"
	style="font-family:Times;font-weight:normal;font-style:normal;font-size:10px">1024.00 mb</text>
<path d="M76.751,25.23L76.751,33.23" style="fill:none;stroke:#000000;stroke-width:0.5" />
<path d="M158.21,25.23L158.21,33.23" style="fill:none;stroke:#000000;stroke-width:0.5" />
<path d="M239.67,25.23L239.67,33.23" style="fill:none;stroke:#000000;stroke-width:0.5" />
<path d="M321.12,25.23L321.12,33.23" style="fill:none;stroke:#000000;stroke-width:0.5" />
<path d="M401.31,25.23L401.31,33.23" style="fill:none;stroke:#000000;stroke-width:0.5" />
<path d="M76.114,33.23L401.31,33.23" style="fill:none;stroke:#000000;stroke-width:0.5" />
<g transform="rotate(90)">
<text x="144.86" y="11.555" transform="scale(1, -1)"
	style="font-family:Times;font-weight:normal;font-style:normal;font-size:12px">speed</text>
</g>
<text x="20.416" y="-34.942" transform="scale(1, -1)"
	style="font-family:Times;font-weight:normal;font-style:normal;font-size:10px">1.00 mb/s</text>
<text x="15.416" y="-115.79" transform="scale(1, -1)"
	style="font-family:Times;font-weight:normal;font-style:normal;font-size:10px">33.00 mb/s</text>
<text x="15.416" y="-196.64" transform="scale(1, -1)"
	style="font-family:Times;font-weight:normal;font-style:normal;font-size:10px">65.00 mb/s</text>
<text x="15.416" y="-273.84" transform="scale(1, -1)"
	style="font-family:Times;font-weight:normal;font-style:normal;font-size:10px">95.55 mb/s</text>
<path d="M62.364,39.664L70.364,39.664" style="fill:none;stroke:#000000;stroke-width:0.5" />
<path d="M62.364,120.52L70.364,120.52" style="fill:none;stroke:#000000;stroke-width:0.5" />
<path d="M62.364,201.37L70.364,201.37" style="fill:none;stroke:#000000;stroke-width:0.5" />
<path d="M62.364,278.56L70.364,278.56" style="fill:none;stroke:#000000;stroke-width:0.5" />
<path d="M70.364,38.48L70.364,278.56" style="fill:none;stroke:#000000;stroke-width:0.5" />
<path d="M76.114,220.03L76.751,234.09L77.387,241.11L78.023,257.63L78.66,278.56L79.296,263.32L79.933,266.13L80.569,244.63L81.205,161.07L81.842,208.81L82.478,162.31L83.115,211.34L83.751,164.9L84.387,213.93L85.024,162.32L85.66,173.48L86.297,135.92L86.933,216.65L87.569,163.59L88.206,206.24L88.842,162.76L89.479,194.3L90.115,56.93L90.751,193.63L91.388,165.75L92.024,195.05L92.661,155.91L93.297,179.78L93.933,142.98L94.57,220.37L95.206,56.771L95.843,198L96.479,159.36L97.115,208.58L97.752,47.107L98.388,213.73L99.025,163.63L99.661,207.35L100.3,130.72L100.93,213.74L101.57,133.01L102.21,222.66L102.84,48.578L103.48,185.12L104.12,155.15L104.75,198.71L105.39,43.993L106.03,251.34L106.66,257.01L107.3,190.98L107.93,131.04L108.57,215.45L109.21,136.23L109.84,208.78L110.48,44.368L111.12,197.38L111.75,160.92L112.39,203.92L113.03,162.59L113.66,42.511L114.3,229.25L114.93,202.97L115.57,191.35L116.21,156.61L116.84,188.68L117.48,157.41L118.12,42.126L118.75,238.29L119.39,249.16L120.03,219.67L120.66,162.37L121.3,216.89L121.94,41.444L122.57,196.48L123.21,133.42L123.84,200.48L124.48,145.5L125.12,177.91L125.75,149.62L126.39,41.328L127.03,262.88L127.66,236.51L128.3,227.73L128.94,124.86L129.57,181.31L130.21,142.14L130.84,40.349L131.48,254.08L132.12,270.05L132.75,206.2L133.39,169.72L134.03,250.59L134.66,250.88L135.3,238.57L135.94,220.83L136.57,139.52L137.21,220.01L137.85,40.704L138.48,212.15L139.12,156.91L139.75,243.67L140.39,206.84L141.03,202.22L141.66,235.44L142.3,140.75L142.94,40.379L143.57,249.42L144.21,252.92L144.85,230.65L145.48,160.39L146.12,222.12L146.75,126.23L147.39,252.51L148.03,39.88L148.66,265.82L149.3,253.39L149.94,242.66L150.57,156.93L151.21,230.21L151.85,142.68L152.48,214.37L153.12,142.56L153.76,237.92L154.39,39.747L155.03,253.19L155.66,235.34L156.3,161.05L156.94,198.03L157.57,161.09L158.21,232.45L158.85,216.83L159.48,212.45L160.12,246.4L160.76,39.853L161.39,206.43L162.03,197.87L162.66,229.79L163.3,169.69L163.94,269.9L164.57,231.51L165.21,214.5L165.85,211.68L166.48,240.34L167.12,39.832L167.76,257.72L168.39,259.05L169.03,227.17L169.67,166.5L170.3,218.85L170.94,160.59L171.57,225.65L172.21,153.13L172.85,249.66L173.48,39.548L174.12,260.61L174.76,249.73L175.39,206.77L176.03,150.65L176.67,222.01L177.3,253.39L177.94,236.69L178.57,228.96L179.21,243.19L179.85,223.58L180.48,210.68L181.12,39.74L181.76,256.99L182.39,234.61L183.03,144.55L183.67,213.05L184.3,158.52L184.94,177.3L185.58,146.62L186.21,224.7L186.85,39.693L187.48,217.37L188.12,159.33L188.76,219.89L189.39,162.2L190.03,201.12L190.67,125.74L191.3,227.39L191.94,222.36L192.58,226.73L193.21,39.577L193.85,253.88L194.48,266.19L195.12,223.29L195.76,138.31L196.39,219.74L197.03,134.46L197.67,211.96L198.3,151.77L198.94,214.5L199.58,216L200.21,39.55L200.85,200.85L201.49,193.74L202.12,190.1L202.76,206.84L203.39,132.98L204.03,208.05L204.67,124.05L205.3,233.03L205.94,246.04L206.58,235.97L207.21,39.461L207.85,251.01L208.49,256.91L209.12,126.66L209.76,138.28L210.39,178.82L211.03,164.44L211.67,180.96L212.3,151.42L212.94,233.4L213.58,238.14L214.21,39.514L214.85,251.52L215.49,261.29L216.12,228.74L216.76,166.18L217.4,204.35L218.03,150.38L218.67,233.25L219.3,238.98L219.94,205.79L220.58,202.16L221.21,236.7L221.85,39.35L222.49,199.24L223.12,162.2L223.76,225.32L224.4,160.79L225.03,212.08L225.67,125.28L226.3,238.65L226.94,199.94L227.58,205.58L228.21,39.305L228.85,252.06L229.49,268.17L230.12,233.83L230.76,158.06L231.4,257.1L232.03,261.14L232.67,266.46L233.31,207.8L233.94,191.03L234.58,190.77L235.21,232.81L235.85,39.587L236.49,258.58L237.12,254.6L237.76,249.6L238.4,202.09L239.03,148.89L239.67,191.42L240.31,151.18L240.94,226.73L241.58,210.92L242.21,220.41L242.85,39.401L243.49,252.58L244.12,234.04L244.76,151.29L245.4,201.52L246.03,149.55L246.67,250.92L247.31,257.69L247.94,197.81L248.58,131.59L249.22,241.45L249.85,241.87L250.49,231.46L251.12,39.242L251.76,216.62L252.4,141.83L253.03,229.13L253.67,162.43L254.31,208.48L254.94,134.81L255.58,199.53L256.22,132.07L256.85,231.59L257.49,243.85L258.12,39.005L258.76,257.09L259.4,254.58L260.03,224.32L260.67,139.35L261.31,230.71L261.94,147.37L262.58,205.42L263.22,138.24L263.85,177.04L264.49,126.18L265.13,213.93L265.76,38.832L266.4,232.15L267.03,258.63L267.67,224.44L268.31,160.6L268.94,232.9L269.58,164.92L270.22,196.57L270.85,160.28L271.49,226.86L272.13,135.01L272.76,221.31L273.4,129.81L274.03,38.965L274.67,213.79L275.31,136.95L275.94,217.09L276.58,160.43L277.22,216.37L277.85,139.93L278.49,185.79L279.13,160.41L279.76,240.96L280.4,240.2L281.04,233.71L281.67,133.64L282.31,38.793L282.94,184.59L283.58,186.24L284.22,226.76L284.85,158.75L285.49,199.28L286.13,161.89L286.76,191.78L287.4,148.77L288.04,235.59L288.67,242.37L289.31,214.25L289.94,38.689L290.58,232.68L291.22,257.7L291.85,227.78L292.49,169.28L293.13,221.34L293.76,159.43L294.4,231.33L295.04,152.28L295.67,247.23L296.31,242.21L296.95,243.71L297.58,221.92L298.22,38.875L298.85,211.92L299.49,156.69L300.13,226.39L300.76,157.98L301.4,260.21L302.04,252.69L302.67,207.31L303.31,146.21L303.95,195.79L304.58,131.76L305.22,38.792L305.85,245.83L306.49,250.8L307.13,192.08L307.76,131.86L308.4,242.58L309.04,250.1L309.67,206.67L310.31,147.3L310.95,209.59L311.58,154.36L312.22,214.16L312.86,156.95L313.49,38.97L314.13,210.21L314.76,159.38L315.4,183.4L316.04,157.56L316.67,208.63L317.31,164.31L317.95,202.04L318.58,131.55L319.22,241.99L319.86,245.11L320.49,248.63L321.13,192.43L321.77,38.641L322.4,221.17L323.04,137.48L323.67,175.93L324.31,135.38L324.95,191.43L325.58,159.84L326.22,164.89L326.86,145.58L327.49,238.62L328.13,236.61L328.77,38.839L329.4,212.73L330.04,157.12L330.67,203.4L331.31,156.91L331.95,195.89L332.58,161.17L333.22,211.55L333.86,153.35L334.49,178.38L335.13,130.14L335.77,248.3L336.4,38.756L337.04,226.21L337.68,157.6L338.31,215.12L338.95,154.21L339.58,260.31L340.22,177.92L340.86,146.82L341.49,245.55L342.13,239.11L342.77,231.44L343.4,197.93L344.04,124.89L344.68,38.978L345.31,247.41L345.95,261.22L346.58,208.34L347.22,161.18L347.86,197.14L348.49,160.16L349.13,202.51L349.77,150.56L350.4,223.39L351.04,216.5L351.68,197.69L352.31,169.97L352.95,38.594L353.59,228.42L354.22,160.93L354.86,168.94L355.49,138.61L356.13,158.73L356.77,131.98L357.4,237.88L358.04,244.01L358.68,236.59L359.31,205.36L359.95,136.81L360.59,38.998L361.22,246.01L361.86,237.74L362.49,140.16L363.13,200.78L363.77,164.73L364.4,213.08L365.04,135.95L365.68,208.72L366.31,138.07L366.95,207.42L367.59,130.08L368.22,198.19L368.86,38.631L369.5,201.95L370.13,130.81L370.77,257.19L371.4,258.07L372.04,208.59L372.68,154.67L373.31,177.46L373.95,155.65L374.59,209.63L375.22,142.73L375.86,218.92L376.5,38.832L377.13,208.12L377.77,157.94L378.4,215.63L379.04,133.94L379.68,209.93L380.31,133.77L380.95,232.5L381.59,243.67L382.22,210.18L382.86,196.31L383.5,127.29L384.13,38.99L384.77,219.98L385.41,231.62L386.04,224.62L386.68,138.14L387.31,222.63L387.95,143.54L388.59,211.68L389.22,144.6L389.86,209.16L390.5,149.69L391.13,219.9L391.77,152.24L392.41,38.714L393.04,217.25L393.68,161.63L394.31,210.37L394.95,158.55L395.59,163.51L396.22,129.73L396.86,185.98L397.5,154.3L398.13,240.35L398.77,243.29L399.41,237.37L400.04,192.87L400.68,38.48L401.31,197.06" style="fill:none;stroke:#F15A60" />
<path d="M405.2,277.58L425.2,277.58" style="fill:none;stroke:#F15A60" />
<text x="325.55" y="-271.91" transform="scale(1, -1)"
	style="font-family:Times;font-weight:normal;font-style:normal;font-size:12px">batch-1mb-notx</text>
</g>
</svg>
