<?xml version="1.0"?>
<!-- Generated by SVGo and Plotinum VG -->
<svg width="425.2pt" height="283.46pt" viewBox="0 0 425.2 283.46"
	xmlns="http://www.w3.org/2000/svg"
	xmlns:xlink="http://www.w3.org/1999/xlink">
<g transform="scale(1, -1) translate(0, -283.46)">
<path d="M0,0L425.2,0L425.2,283.46L0,283.46Z" style="fill:#FFFFFF" />
<text x="207.23" y="-3.8613" transform="scale(1, -1)"
	style="font-family:Times;font-weight:normal;font-style:normal;font-size:12px">database size</text>
<text x="60.682" y="-15.602" transform="scale(1, -1)"
	style="font-family:Times;font-weight:normal;font-style:normal;font-size:10px">8.00 mb</text>
<text x="137.38" y="-15.602" transform="scale(1, -1)"
	style="font-family:Times;font-weight:normal;font-style:normal;font-size:10px">264.00 mb</text>
<text x="219.08" y="-15.602" transform="scale(1, -1)"
	style="font-family:Times;font-weight:normal;font-style:normal;font-size:10px">520.00 mb</text>
<text x="300.77" y="-15.602" transform="scale(1, -1)"
	style="font-family:Times;font-weight:normal;font-style:normal;font-size:10px">776.00 mb</text>
<text x="377.42" y="-15.602" transform="scale(1, -1)"
	style="font-family:Times;font-weight:normal;font-style:normal;font-size:10px">1024.00 mb</text>
<path d="M77.072,25.23L77.072,33.23" style="fill:none;stroke:#000000;stroke-width:0.5" />
<path d="M158.77,25.23L158.77,33.23" style="fill:none;stroke:#000000;stroke-width:0.5" />
<path d="M240.47,25.23L240.47,33.23" style="fill:none;stroke:#000000;stroke-width:0.5" />
<path d="M322.16,25.23L322.16,33.23" style="fill:none;stroke:#000000;stroke-width:0.5" />
<path d="M401.31,25.23L401.31,33.23" style="fill:none;stroke:#000000;stroke-width:0.5" />
<path d="M76.114,33.23L401.31,33.23" style="fill:none;stroke:#000000;stroke-width:0.5" />
<g transform="rotate(90)">
<text x="144.86" y="11.555" transform="scale(1, -1)"
	style="font-family:Times;font-weight:normal;font-style:normal;font-size:12px">speed</text>
</g>
<text x="20.416" y="-36.901" transform="scale(1, -1)"
	style="font-family:Times;font-weight:normal;font-style:normal;font-size:10px">2.00 mb/s</text>
<text x="15.416" y="-97.471" transform="scale(1, -1)"
	style="font-family:Times;font-weight:normal;font-style:normal;font-size:10px">18.00 mb/s</text>
<text x="15.416" y="-158.04" transform="scale(1, -1)"
	style="font-family:Times;font-weight:normal;font-style:normal;font-size:10px">34.00 mb/s</text>
<text x="15.416" y="-218.61" transform="scale(1, -1)"
	style="font-family:Times;font-weight:normal;font-style:normal;font-size:10px">50.00 mb/s</text>
<text x="15.416" y="-273.84" transform="scale(1, -1)"
	style="font-family:Times;font-weight:normal;font-style:normal;font-size:10px">64.59 mb/s</text>
<path d="M62.364,41.622L70.364,41.622" style="fill:none;stroke:#000000;stroke-width:0.5" />
<path d="M62.364,102.19L70.364,102.19" style="fill:none;stroke:#000000;stroke-width:0.5" />
<path d="M62.364,162.76L70.364,162.76" style="fill:none;stroke:#000000;stroke-width:0.5" />
<path d="M62.364,223.33L70.364,223.33" style="fill:none;stroke:#000000;stroke-width:0.5" />
<path d="M62.364,278.56L70.364,278.56" style="fill:none;stroke:#000000;stroke-width:0.5" />
<path d="M70.364,38.48L70.364,278.56" style="fill:none;stroke:#000000;stroke-width:0.5" />
<path d="M76.114,198.26L77.71,272.91L79.306,278.56L80.901,276.29L82.497,272.35L84.093,254.11L85.688,260.44L87.284,263.15L88.88,263.79L90.475,264.72L92.071,265.74L93.666,269.29L95.262,246.72L96.858,242.77L98.453,248.04L100.05,256.08L101.64,265.67L103.24,239.98L104.84,261.79L106.43,264.91L108.03,262.81L109.62,66.812L111.22,257.71L112.81,255.9L114.41,238.78L116.01,265.07L117.6,269.4L119.2,263.33L120.79,59.101L122.39,248.52L123.98,240.45L125.58,237.02L127.18,252.62L128.77,249.57L130.37,51.102L131.96,256.75L133.56,253.57L135.15,253.9L136.75,263.46L138.34,261.43L139.94,246.35L141.54,52.127L143.13,272.83L144.73,252.1L146.32,253.54L147.92,237.17L149.51,263.23L151.11,48.195L152.71,246.13L154.3,257.09L155.9,254.16L157.49,255.27L159.09,256.68L160.68,260.1L162.28,48.114L163.88,254.75L165.47,270.9L167.07,259.57L168.66,260.03L170.26,255.55L171.85,259.04L173.45,48.079L175.04,257.98L176.64,249.91L178.24,240.68L179.83,218.18L181.43,255.25L183.02,246.29L184.62,48.212L186.21,261.06L187.81,270.11L189.41,262.39L191,264.75L192.6,258.99L194.19,236.42L195.79,48.054L197.38,244.06L198.98,239.64L200.58,260.73L202.17,231.52L203.77,251.05L205.36,264.44L206.96,47.851L208.55,254.28L210.15,265.44L211.75,262.38L213.34,261.78L214.94,264.12L216.53,256.69L218.13,44.279L219.72,232.09L221.32,264.67L222.91,236.71L224.51,251.03L226.11,256.86L227.7,252.11L229.3,263.65L230.89,244.05L232.49,42.109L234.08,251.27L235.68,263.69L237.28,237.42L238.87,240.64L240.47,252.25L242.06,254.55L243.66,247.44L245.25,254.78L246.85,230.82L248.45,40.618L250.04,265.34L251.64,260.69L253.23,261.67L254.83,261.15L256.42,239.67L258.02,246.98L259.61,246.41L261.21,260.9L262.81,256.96L264.4,258.69L266,259.46L267.59,39.667L269.19,247.15L270.78,260.14L272.38,264.19L273.98,261.36L275.57,244.21L277.17,265.03L278.76,266.38L280.36,268.98L281.95,257.57L283.55,259.94L285.15,268.66L286.74,260.44L288.34,38.874L289.93,256L291.53,237.24L293.12,271.84L294.72,213.74L296.31,270.02L297.91,270.23L299.51,268.37L301.1,236.43L302.7,266.59L304.29,264.58L305.89,266.83L307.48,262.47L309.08,38.712L310.68,232.03L312.27,269.95L313.87,258.73L315.46,261.91L317.06,269.17L318.65,266.31L320.25,273.18L321.85,264.39L323.44,258.07L325.04,270.7L326.63,258.23L328.23,261.99L329.82,38.709L331.42,214.21L333.01,269.53L334.61,263.24L336.21,221.46L337.8,261.13L339.4,248.91L340.99,267.54L342.59,243.27L344.18,258.88L345.78,254.73L347.38,267.01L348.97,267.18L350.57,38.48L352.16,240.95L353.76,242.09L355.35,267.23L356.95,267.93L358.55,240.06L360.14,254.55L361.74,264.95L363.33,266.75L364.93,259.63L366.52,253.56L368.12,223.49L369.71,262.45L371.31,38.655L372.91,234.8L374.5,266.43L376.1,242.64L377.69,264.28L379.29,270.18L380.88,264.17L382.48,269.44L384.08,240.02L385.67,256.43L387.27,260.79L388.86,262.6L390.46,242.41L392.05,38.642L393.65,254.25L395.25,266.81L396.84,259.54L398.44,240.48L400.03,233.12L401.31,272.75" style="fill:none;stroke:#F15A60" />
<path d="M405.2,277.58L425.2,277.58" style="fill:none;stroke:#F15A60" />
<text x="325.55" y="-271.91" transform="scale(1, -1)"
	style="font-family:Times;font-weight:normal;font-style:normal;font-size:12px">batch-5mb-notx</text>
</g>
</svg>
