<?xml version="1.0"?>
<!-- Generated by SVGo and Plotinum VG -->
<svg width="425.2pt" height="283.46pt" viewBox="0 0 425.2 283.46"
	xmlns="http://www.w3.org/2000/svg"
	xmlns:xlink="http://www.w3.org/1999/xlink">
<g transform="scale(1, -1) translate(0, -283.46)">
<path d="M0,0L425.2,0L425.2,283.46L0,283.46Z" style="fill:#FFFFFF" />
<text x="207.23" y="-3.8613" transform="scale(1, -1)"
	style="font-family:Times;font-weight:normal;font-style:normal;font-size:12px">database size</text>
<text x="60.361" y="-15.602" transform="scale(1, -1)"
	style="font-family:Times;font-weight:normal;font-style:normal;font-size:10px">4.00 mb</text>
<text x="136.82" y="-15.602" transform="scale(1, -1)"
	style="font-family:Times;font-weight:normal;font-style:normal;font-size:10px">260.00 mb</text>
<text x="218.28" y="-15.602" transform="scale(1, -1)"
	style="font-family:Times;font-weight:normal;font-style:normal;font-size:10px">516.00 mb</text>
<text x="299.73" y="-15.602" transform="scale(1, -1)"
	style="font-family:Times;font-weight:normal;font-style:normal;font-size:10px">772.00 mb</text>
<text x="377.42" y="-15.602" transform="scale(1, -1)"
	style="font-family:Times;font-weight:normal;font-style:normal;font-size:10px">1024.00 mb</text>
<path d="M76.751,25.23L76.751,33.23" style="fill:none;stroke:#000000;stroke-width:0.5" />
<path d="M158.21,25.23L158.21,33.23" style="fill:none;stroke:#000000;stroke-width:0.5" />
<path d="M239.67,25.23L239.67,33.23" style="fill:none;stroke:#000000;stroke-width:0.5" />
<path d="M321.12,25.23L321.12,33.23" style="fill:none;stroke:#000000;stroke-width:0.5" />
<path d="M401.31,25.23L401.31,33.23" style="fill:none;stroke:#000000;stroke-width:0.5" />
<path d="M76.114,33.23L401.31,33.23" style="fill:none;stroke:#000000;stroke-width:0.5" />
<g transform="rotate(90)">
<text x="144.86" y="11.555" transform="scale(1, -1)"
	style="font-family:Times;font-weight:normal;font-style:normal;font-size:12px">speed</text>
</g>
<text x="20.416" y="-34.796" transform="scale(1, -1)"
	style="font-family:Times;font-weight:normal;font-style:normal;font-size:10px">1.00 mb/s</text>
<text x="15.416" y="-118.34" transform="scale(1, -1)"
	style="font-family:Times;font-weight:normal;font-style:normal;font-size:10px">33.00 mb/s</text>
<text x="15.416" y="-201.88" transform="scale(1, -1)"
	style="font-family:Times;font-weight:normal;font-style:normal;font-size:10px">65.00 mb/s</text>
<text x="15.416" y="-273.84" transform="scale(1, -1)"
	style="font-family:Times;font-weight:normal;font-style:normal;font-size:10px">92.56 mb/s</text>
<path d="M62.364,39.518L70.364,39.518" style="fill:none;stroke:#000000;stroke-width:0.5" />
<path d="M62.364,123.06L70.364,123.06" style="fill:none;stroke:#000000;stroke-width:0.5" />
<path d="M62.364,206.6L70.364,206.6" style="fill:none;stroke:#000000;stroke-width:0.5" />
<path d="M62.364,278.56L70.364,278.56" style="fill:none;stroke:#000000;stroke-width:0.5" />
<path d="M70.364,38.48L70.364,278.56" style="fill:none;stroke:#000000;stroke-width:0.5" />
<path d="M76.114,226.7L76.751,255.72L77.387,238.31L78.023,267.97L78.66,269.36L79.296,278.56L79.933,275.9L80.569,182.09L81.205,165.22L81.842,215.95L82.478,165.63L83.115,238.69L83.751,168.47L84.387,218.35L85.024,161.2L85.66,192.66L86.297,148.64L86.933,225.19L87.569,128.43L88.206,203.29L88.842,161.48L89.479,214.34L90.115,56.25L90.751,214.61L91.388,166.59L92.024,205.24L92.661,152.28L93.297,195.51L93.933,165.1L94.57,227.71L95.206,55.283L95.843,175.89L96.479,144.09L97.115,220.82L97.752,47.16L98.388,222.75L99.025,122.32L99.661,186.72L100.3,133.43L100.93,223.49L101.57,145.93L102.21,191.49L102.84,48.386L103.48,197.83L104.12,158.55L104.75,181.29L105.39,43.842L106.03,258.7L106.66,263.73L107.3,156.63L107.93,223.48L108.57,163.36L109.21,221.36L109.84,160.36L110.48,44.414L111.12,244.83L111.75,250.99L112.39,240.91L113.03,237.57L113.66,42.236L114.3,237.71L114.93,161.71L115.57,218.97L116.21,168.45L116.84,221.15L117.48,134.98L118.12,185.27L118.75,42.185L119.39,207.41L120.03,161.39L120.66,253.46L121.3,252.98L121.94,40.938L122.57,268.32L123.21,264.67L123.84,229.94L124.48,156.61L125.12,248.58L125.75,243.97L126.39,229.87L127.03,135.24L127.66,196.14L128.3,40.628L128.94,221.74L129.57,161.79L130.21,197.63L130.84,148.78L131.48,247.73L132.12,255.89L132.75,223.39L133.39,40.107L134.03,187.46L134.66,168.53L135.3,217.72L135.94,166.34L136.57,206.67L137.21,143.73L137.85,194.26L138.48,153.52L139.12,39.975L139.75,262.29L140.39,276.57L141.03,241.97L141.66,162.86L142.3,223.49L142.94,140.78L143.57,218.32L144.21,138.24L144.85,39.475L145.48,266.27L146.12,261.17L146.75,269.6L147.39,269.53L148.03,228.37L148.66,235.69L149.3,258.73L149.94,244.97L150.57,155.07L151.21,240.72L151.85,40.075L152.48,208.48L153.12,180.82L153.76,224.82L154.39,168.12L155.03,225.44L155.66,156.79L156.3,250.6L156.94,39.567L157.57,263.86L158.21,272.8L158.85,237.95L159.48,177.45L160.12,225.1L160.76,171.8L161.39,226.85L162.03,141.2L162.66,250.35L163.3,39.345L163.94,256.32L164.57,238.19L165.21,156.41L165.85,253.18L166.48,260.96L167.12,256.14L167.76,251.6L168.39,248.44L169.03,242.02L169.67,250.81L170.3,39.174L170.94,264.43L171.57,238.42L172.21,212.6L172.85,168.95L173.48,253.35L174.12,258.71L174.76,238.01L175.39,161.23L176.03,212.42L176.67,215.19L177.3,205.63L177.94,39.657L178.57,219.29L179.21,174.3L179.85,173.79L180.48,128.37L181.12,239.54L181.76,162.53L182.39,254.26L183.03,237.67L183.67,143.72L184.3,39.605L184.94,271.36L185.58,268.8L186.21,239.91L186.85,173L187.48,220.02L188.12,131.75L188.76,229.53L189.39,234.94L190.03,39.35L190.67,270.56L191.3,268.5L191.94,238.33L192.58,169.42L193.21,264.51L193.85,271.25L194.48,240.48L195.12,233.16L195.76,223.27L196.39,207.13L197.03,210.56L197.67,39.549L198.3,230.41L198.94,196.5L199.58,177.05L200.21,218L200.85,166.63L201.49,195.92L202.12,167.59L202.76,253.64L203.39,252.25L204.03,39.424L204.67,211.67L205.3,165.17L205.94,263.34L206.58,262.5L207.21,261.57L207.85,251.36L208.49,249.52L209.12,220.88L209.76,210.51L210.39,39.43L211.03,270.82L211.67,194.11L212.3,183.59L212.94,142.27L213.58,216.82L214.21,147.72L214.85,246.52L215.49,247.34L216.12,255.39L216.76,39.322L217.4,259.93L218.03,263.12L218.67,245.47L219.3,175.54L219.94,204.38L220.58,169.46L221.21,251.3L221.85,251.78L222.49,252.44L223.12,256.84L223.76,39.518L224.4,266.3L225.03,262.61L225.67,228.42L226.3,179.67L226.94,202.61L227.58,135.49L228.21,250.26L228.85,202.23L229.49,158.91L230.12,225.77L230.76,39.366L231.4,263.24L232.03,271.4L232.67,237.58L233.31,178.16L233.94,216.96L234.58,174.53L235.21,226.43L235.85,155.6L236.49,253.86L237.12,250.69L237.76,39.278L238.4,273.58L239.03,275.56L239.67,217.96L240.31,140.17L240.94,208.8L241.58,170.73L242.21,212.98L242.85,216.55L243.49,215.11L244.12,245.39L244.76,164.12L245.4,39.572L246.03,268.57L246.67,196.44L247.31,239.51L247.94,207.58L248.58,152.31L249.22,184.81L249.85,129.78L250.49,245.94L251.12,39.187L251.76,230.63L252.4,203.83L253.03,226.39L253.67,236.13L254.31,152.05L254.94,195.61L255.58,142.5L256.22,182.75L256.85,207.98L257.49,161.99L258.12,239.55L258.76,38.986L259.4,205.3L260.03,252.9L260.67,262.68L261.31,165.54L261.94,211.22L262.58,169.9L263.22,211.13L263.85,168.41L264.49,247.13L265.13,253.6L265.76,244.24L266.4,38.779L267.03,221.97L267.67,217.57L268.31,167.51L268.94,208.29L269.58,169.67L270.22,217.12L270.85,167.01L271.49,252.51L272.13,252.16L272.76,247.07L273.4,243.64L274.03,163.45L274.67,38.831L275.31,211.35L275.94,168.44L276.58,166.61L277.22,136.43L277.85,214.78L278.49,268.4L279.13,240.09L279.76,156.38L280.4,187.69L281.04,142.58L281.67,199.74L282.31,158.22L282.94,38.654L283.58,265.84L284.22,272.8L284.85,241.79L285.49,169.1L286.13,245.16L286.76,173.12L287.4,222.57L288.04,144.85L288.67,198.66L289.31,137.7L289.94,201.56L290.58,141.71L291.22,38.574L291.85,214.61L292.49,168.28L293.13,180.5L293.76,132.05L294.4,276.78L295.04,270.35L295.67,231.92L296.31,145.95L296.95,196.33L297.58,134.31L298.22,248.89L298.85,38.517L299.49,220.34L300.13,145.29L300.76,233.72L301.4,162.65L302.04,271.48L302.67,271.98L303.31,234.83L303.95,172.55L304.58,194.15L305.22,136.4L305.85,242.88L306.49,38.733L307.13,254.34L307.76,276.71L308.4,247.91L309.04,175.31L309.67,212.62L310.31,176.76L310.95,192.72L311.58,148L312.22,217.06L312.86,154.54L313.49,192.86L314.13,134.67L314.76,38.854L315.4,269.24L316.04,266.4L316.67,163.24L317.31,229.65L317.95,161.31L318.58,237.37L319.22,165.3L319.86,211.47L320.49,168.36L321.13,181.82L321.77,135L322.4,38.542L323.04,261.64L323.67,277.61L324.31,228.85L324.95,175.62L325.58,170.28L326.22,141.51L326.86,237.03L327.49,160.24L328.13,211.43L328.77,137.72L329.4,218.61L330.04,38.581L330.67,260.38L331.31,268.36L331.95,231.55L332.58,170.87L333.22,238.63L333.86,167.67L334.49,213.14L335.13,166.3L335.77,223.81L336.4,157.43L337.04,256.08L337.68,157.65L338.31,38.841L338.95,189.28L339.58,131.83L340.22,231.71L340.86,170.96L341.49,237.67L342.13,157.32L342.77,210.39L343.4,165.49L344.04,233.16L344.68,152.98L345.31,222.82L345.95,166.24L346.58,38.596L347.22,212.74L347.86,124.91L348.49,236.7L349.13,172.88L349.77,228.85L350.4,170.48L351.04,239.57L351.68,164.95L352.31,220.76L352.95,159.39L353.59,224.77L354.22,160.18L354.86,38.562L355.49,268.94L356.13,261.75L356.77,237.81L357.4,162.26L358.04,227.52L358.68,248.35L359.31,206.42L359.95,246.17L360.59,221.15L361.22,136.21L361.86,261.24L362.49,38.48L363.13,210.94L363.77,171.91L364.4,227.89L365.04,169.78L365.68,218.4L366.31,160.13L366.95,204.01L367.59,169.19L368.22,201.24L368.86,134.94L369.5,244.51L370.13,38.699L370.77,272.77L371.4,264.74L372.04,251.21L372.68,168.01L373.31,238.55L373.95,168.43L374.59,237.01L375.22,157.76L375.86,253.51L376.5,257.11L377.13,253.48L377.77,238.2L378.4,38.687L379.04,220.72L379.68,175.21L380.31,233.15L380.95,179.41L381.59,225.09L382.22,178.15L382.86,200.77L383.5,143.11L384.13,230.64L384.77,145.42L385.41,206.66L386.04,38.665L386.68,218.69L387.31,175.46L387.95,218.72L388.59,163.43L389.22,182.64L389.86,140.38L390.5,208.5L391.13,159.02L391.77,199.18L392.41,156.68L393.04,233.83L393.68,38.626L394.31,222.44L394.95,166.9L395.59,182.94L396.22,142.57L396.86,228.21L397.5,177.5L398.13,230.17L398.77,134.42L399.41,253.7L400.04,259.29L400.68,38.62L401.31,213.04" style="fill:none;stroke:#F15A60" />
<path d="M405.2,277.58L425.2,277.58" style="fill:none;stroke:#F15A60" />
<text x="325.55" y="-271.91" transform="scale(1, -1)"
	style="font-family:Times;font-weight:normal;font-style:normal;font-size:12px">batch-1mb-notx</text>
</g>
</svg>
