<?xml version="1.0"?>
<!-- Generated by SVGo and Plotinum VG -->
<svg width="425.2pt" height="283.46pt" viewBox="0 0 425.2 283.46"
	xmlns="http://www.w3.org/2000/svg"
	xmlns:xlink="http://www.w3.org/1999/xlink">
<g transform="scale(1, -1) translate(0, -283.46)">
<path d="M0,0L425.2,0L425.2,283.46L0,283.46Z" style="fill:#FFFFFF" />
<text x="207.23" y="-3.8613" transform="scale(1, -1)"
	style="font-family:Times;font-weight:normal;font-style:normal;font-size:12px">database size</text>
<text x="60.252" y="-15.602" transform="scale(1, -1)"
	style="font-family:Times;font-weight:normal;font-style:normal;font-size:10px">4.00 mb</text>
<text x="136.77" y="-15.602" transform="scale(1, -1)"
	style="font-family:Times;font-weight:normal;font-style:normal;font-size:10px">260.00 mb</text>
<text x="218.28" y="-15.602" transform="scale(1, -1)"
	style="font-family:Times;font-weight:normal;font-style:normal;font-size:10px">516.00 mb</text>
<text x="299.79" y="-15.602" transform="scale(1, -1)"
	style="font-family:Times;font-weight:normal;font-style:normal;font-size:10px">772.00 mb</text>
<text x="377.42" y="-15.602" transform="scale(1, -1)"
	style="font-family:Times;font-weight:normal;font-style:normal;font-size:10px">1023.63 mb</text>
<path d="M76.642,25.23L76.642,33.23" style="fill:none;stroke:#000000;stroke-width:0.5" />
<path d="M158.16,25.23L158.16,33.23" style="fill:none;stroke:#000000;stroke-width:0.5" />
<path d="M239.67,25.23L239.67,33.23" style="fill:none;stroke:#000000;stroke-width:0.5" />
<path d="M321.18,25.23L321.18,33.23" style="fill:none;stroke:#000000;stroke-width:0.5" />
<path d="M401.31,25.23L401.31,33.23" style="fill:none;stroke:#000000;stroke-width:0.5" />
<path d="M76.114,33.23L401.31,33.23" style="fill:none;stroke:#000000;stroke-width:0.5" />
<g transform="rotate(90)">
<text x="144.86" y="11.555" transform="scale(1, -1)"
	style="font-family:Times;font-weight:normal;font-style:normal;font-size:12px">speed</text>
</g>
<text x="15.416" y="-61.55" transform="scale(1, -1)"
	style="font-family:Times;font-weight:normal;font-style:normal;font-size:10px">16.00 mb/s</text>
<text x="15.416" y="-127.79" transform="scale(1, -1)"
	style="font-family:Times;font-weight:normal;font-style:normal;font-size:10px">32.00 mb/s</text>
<text x="15.416" y="-194.02" transform="scale(1, -1)"
	style="font-family:Times;font-weight:normal;font-style:normal;font-size:10px">48.00 mb/s</text>
<text x="15.416" y="-260.26" transform="scale(1, -1)"
	style="font-family:Times;font-weight:normal;font-style:normal;font-size:10px">64.00 mb/s</text>
<text x="15.416" y="-273.84" transform="scale(1, -1)"
	style="font-family:Times;font-weight:normal;font-style:normal;font-size:10px">67.28 mb/s</text>
<path d="M62.364,66.272L70.364,66.272" style="fill:none;stroke:#000000;stroke-width:0.5" />
<path d="M62.364,132.51L70.364,132.51" style="fill:none;stroke:#000000;stroke-width:0.5" />
<path d="M62.364,198.75L70.364,198.75" style="fill:none;stroke:#000000;stroke-width:0.5" />
<path d="M62.364,264.98L70.364,264.98" style="fill:none;stroke:#000000;stroke-width:0.5" />
<path d="M62.364,278.56L70.364,278.56" style="fill:none;stroke:#000000;stroke-width:0.5" />
<path d="M70.364,38.48L70.364,278.56" style="fill:none;stroke:#000000;stroke-width:0.5" />
<path d="M76.114,278.56L76.861,211.58L77.607,200.98L78.353,201.23L79.099,192.28L79.846,186.92L80.592,180.28L81.338,186.73L82.085,160.37L82.831,178.04L83.577,152.1L84.323,164.89L85.07,161.89L85.816,137.51L86.562,165.58L87.309,165.32L88.055,136.24L88.801,149.89L89.547,151.84L90.294,142.16L91.04,143.33L91.786,121.24L92.533,152.68L93.279,149.99L94.025,149.13L94.771,144.69L95.518,109.19L96.264,150.07L97.01,148.97L97.757,138.15L98.503,132.98L99.249,130.95L99.995,137.76L100.74,113.45L101.49,135.37L102.23,135.72L102.98,128.99L103.73,134.41L104.47,136.51L105.22,129.93L105.97,131.13L106.71,96.672L107.46,136.23L108.2,138.78L108.95,136.88L109.7,134.75L110.44,132.96L111.19,131.83L111.94,130.22L112.68,134.65L113.43,133.27L114.17,88.86L114.92,126.57L115.67,125.56L116.41,125.51L117.16,127.77L117.91,129.61L118.65,125.48L119.4,124.27L120.15,124.37L120.89,125.6L121.64,124.29L122.38,126.98L123.13,128.51L123.88,78.985L124.62,120.5L125.37,119.16L126.12,122.38L126.86,125.33L127.61,125.08L128.35,123.76L129.1,125.64L129.85,122.41L130.59,121.2L131.34,122.61L132.09,123.35L132.83,122.87L133.58,124.67L134.32,124.29L135.07,120.83L135.82,73.315L136.56,118.86L137.31,122.52L138.06,122.56L138.8,120.93L139.55,119.85L140.29,114.75L141.04,118.74L141.79,121.49L142.53,120.97L143.28,119.77L144.03,117.98L144.77,117.65L145.52,117.53L146.26,115.55L147.01,118.86L147.76,119.6L148.5,116.51L149.25,116.31L150,117.58L150.74,116.74L151.49,64.489L152.24,115.22L152.98,114.99L153.73,114.21L154.47,113.32L155.22,116.15L155.97,117.45L156.71,113.35L157.46,109.35L158.21,112.55L158.95,115.98L159.7,116.53L160.44,117.53L161.19,115.47L161.94,111.36L162.68,111.79L163.43,111.14L164.18,114.5L164.92,114.19L165.67,112.88L166.41,114.04L167.16,112.28L167.91,109.23L168.65,113.2L169.4,114.2L170.15,57.586L170.89,109.57L171.64,109.65L172.38,110.88L173.13,113L173.88,113.11L174.62,113.41L175.37,112.98L176.12,110.91L176.86,110.52L177.61,110.41L178.36,112.5L179.1,114.05L179.85,111.69L180.59,111.09L181.34,109.34L182.09,110.21L182.83,110.01L183.58,111.71L184.33,111.26L185.07,112.23L185.82,109.66L186.56,108.27L187.31,109.36L188.06,110.24L188.8,109.79L189.55,111.64L190.3,110.62L191.04,105.84L191.79,105.16L192.53,238.29L193.28,252.98L194.03,226.67L194.77,218.83L195.52,209.94L196.27,198.19L197.01,184.52L197.76,184.01L198.5,173.11L199.25,182.52L200,164.5L200.74,168.62L201.49,177.9L202.24,153.2L202.98,163.4L203.73,165.27L204.48,146.65L205.22,158.23L205.97,160.61L206.71,150.77L207.46,150.54L208.21,132.94L208.95,152.65L209.7,153.17L210.45,150.17L211.19,148.79L211.94,126.42L212.68,142.09L213.43,143.89L214.18,141.9L214.92,143.22L215.67,142.62L216.42,139.56L217.16,119.88L217.91,145.04L218.65,142.92L219.4,133.95L220.15,135.24L220.89,139.52L221.64,139.84L222.39,138.35L223.13,110.07L223.88,133.41L224.62,132.47L225.37,132.87L226.12,134.46L226.86,134.31L227.61,68.873L228.36,134.78L229.1,132.26L229.85,129.93L230.6,103.55L231.34,126.36L232.09,130.05L232.83,130.09L233.58,129.59L234.33,130.17L235.07,129.01L235.82,124.61L236.57,124.86L237.31,125.91L238.06,126.55L238.8,128.23L239.55,127L240.3,80.203L241.04,119.22L241.79,119.45L242.54,121.41L243.28,123.3L244.03,119.8L244.77,119.79L245.52,117.99L246.27,115.32L247.01,115.16L247.76,114.92L248.51,116.95L249.25,117.89L250,111.56L250.74,114.79L251.49,114.09L252.24,69.814L252.98,113.95L253.73,115.16L254.48,115.17L255.22,116.12L255.97,113.3L256.72,111.65L257.46,115.52L258.21,115.19L258.95,112.9L259.7,114.23L260.45,112.5L261.19,110.76L261.94,111.51L262.69,109.28L263.43,111.94L264.18,111.97L264.92,111.13L265.67,109.34L266.42,114.02L267.16,114.35L267.91,83.289L268.66,118.21L269.4,118.16L270.15,118.47L270.89,116.48L271.64,115.62L272.39,117.69L273.13,118.55L273.88,119.11L274.63,118.45L275.37,116.25L276.12,115.41L276.86,114.59L277.61,117.25L278.36,118.26L279.1,117.15L279.85,116.63L280.6,114.44L281.34,113.61L282.09,115.7L282.84,115.68L283.58,108.61L284.33,111.76L285.07,115.21L285.82,113.6L286.57,75.48L287.31,110.2L288.06,111.62L288.81,115.01L289.55,112.87L290.3,112.52L291.04,111.01L291.79,113.15L292.54,114.69L293.28,112.58L294.03,112.49L294.78,112.82L295.52,110.24L296.27,110.02L297.01,111.09L297.76,107.25L298.51,111.34L299.25,112.52L300,111.15L300.75,109.67L301.49,106.36L302.24,109.98L302.98,108.58L303.73,107.85L304.48,107.61L305.22,106.4L305.97,104.78L306.72,103.8L307.46,102.76L308.21,109.33L308.95,49.133L309.7,244.87L310.45,225.75L311.19,218.69L311.94,209.72L312.69,201.94L313.43,192.68L314.18,189.33L314.93,181.05L315.67,188.23L316.42,171.47L317.16,171.08L317.91,173.91L318.66,153.32L319.4,169.97L320.15,172.78L320.9,153.59L321.64,158.17L322.39,162.06L323.13,160.74L323.88,158.36L324.63,132.43L325.37,152.24L326.12,151.74L326.87,153.28L327.61,152.79L328.36,128.25L329.1,145.72L329.85,148.29L330.6,145.12L331.34,141.21L332.09,140.36L332.84,142.09L333.58,115.35L334.33,135.85L335.07,136.55L335.82,136.88L336.57,137.62L337.31,132.6L338.06,131.21L338.81,132.42L339.55,108.79L340.3,132.88L341.05,133.2L341.79,130.68L342.54,122.89L343.28,67L344.03,126.24L344.78,129.46L345.52,128.95L346.27,127.82L347.02,102.28L347.76,123.64L348.51,123.36L349.25,126.26L350,128.76L350.75,127.56L351.49,127.93L352.24,128.86L352.99,126.13L353.73,124.6L354.48,121.59L355.22,124.75L355.97,126.83L356.72,97.059L357.46,125.42L358.21,126.13L358.96,122.18L359.7,119.46L360.45,123.99L361.19,126.73L361.94,123.6L362.69,122.79L363.43,125.71L364.18,122.89L364.93,122.9L365.67,122.79L366.42,124.13L367.17,124.34L367.91,122.86L368.66,74.448L369.4,115.4L370.15,120.03L370.9,120.09L371.64,121.16L372.39,122.39L373.14,122.63L373.88,119.62L374.63,115.16L375.37,114.9L376.12,116.83L376.87,116.58L377.61,117.03L378.36,117.71L379.11,115.96L379.85,111.19L380.6,112.61L381.34,114.9L382.09,114.65L382.84,109.12L383.58,99.043L384.33,38.48L385.08,117.34L385.82,117.64L386.57,118.79L387.31,117.69L388.06,114.8L388.81,114.94L389.55,116.2L390.3,117.5L391.05,117.28L391.79,114.62L392.54,112.2L393.29,112.56L394.03,112.55L394.78,114.91L395.52,115.45L396.27,110.9L397.02,114.96L397.76,114.33L398.51,111.86L399.26,111.99L400,113.37L400.75,113.99L401.31,113.25" style="fill:none;stroke:#F15A60" />
<path d="M405.2,277.58L425.2,277.58" style="fill:none;stroke:#F15A60" />
<text x="232.93" y="-271.91" transform="scale(1, -1)"
	style="font-family:Times;font-weight:normal;font-style:normal;font-size:12px">batch-100kb-wb-512mb-cache-1gb</text>
</g>
</svg>
