<?xml version="1.0"?>
<!-- Generated by SVGo and Plotinum VG -->
<svg width="425.2pt" height="283.46pt" viewBox="0 0 425.2 283.46"
	xmlns="http://www.w3.org/2000/svg"
	xmlns:xlink="http://www.w3.org/1999/xlink">
<g transform="scale(1, -1) translate(0, -283.46)">
<path d="M0,0L425.2,0L425.2,283.46L0,283.46Z" style="fill:#FFFFFF" />
<text x="207.23" y="-3.8613" transform="scale(1, -1)"
	style="font-family:Times;font-weight:normal;font-style:normal;font-size:12px">database size</text>
<text x="60.361" y="-15.602" transform="scale(1, -1)"
	style="font-family:Times;font-weight:normal;font-style:normal;font-size:10px">4.00 mb</text>
<text x="136.82" y="-15.602" transform="scale(1, -1)"
	style="font-family:Times;font-weight:normal;font-style:normal;font-size:10px">260.00 mb</text>
<text x="218.28" y="-15.602" transform="scale(1, -1)"
	style="font-family:Times;font-weight:normal;font-style:normal;font-size:10px">516.00 mb</text>
<text x="299.73" y="-15.602" transform="scale(1, -1)"
	style="font-family:Times;font-weight:normal;font-style:normal;font-size:10px">772.00 mb</text>
<text x="377.42" y="-15.602" transform="scale(1, -1)"
	style="font-family:Times;font-weight:normal;font-style:normal;font-size:10px">1024.00 mb</text>
<path d="M76.751,25.23L76.751,33.23" style="fill:none;stroke:#000000;stroke-width:0.5" />
<path d="M158.21,25.23L158.21,33.23" style="fill:none;stroke:#000000;stroke-width:0.5" />
<path d="M239.67,25.23L239.67,33.23" style="fill:none;stroke:#000000;stroke-width:0.5" />
<path d="M321.12,25.23L321.12,33.23" style="fill:none;stroke:#000000;stroke-width:0.5" />
<path d="M401.31,25.23L401.31,33.23" style="fill:none;stroke:#000000;stroke-width:0.5" />
<path d="M76.114,33.23L401.31,33.23" style="fill:none;stroke:#000000;stroke-width:0.5" />
<g transform="rotate(90)">
<text x="144.86" y="11.555" transform="scale(1, -1)"
	style="font-family:Times;font-weight:normal;font-style:normal;font-size:12px">speed</text>
</g>
<text x="20.416" y="-34.832" transform="scale(1, -1)"
	style="font-family:Times;font-weight:normal;font-style:normal;font-size:10px">1.00 mb/s</text>
<text x="15.416" y="-116.32" transform="scale(1, -1)"
	style="font-family:Times;font-weight:normal;font-style:normal;font-size:10px">33.00 mb/s</text>
<text x="15.416" y="-197.81" transform="scale(1, -1)"
	style="font-family:Times;font-weight:normal;font-style:normal;font-size:10px">65.00 mb/s</text>
<text x="15.416" y="-273.84" transform="scale(1, -1)"
	style="font-family:Times;font-weight:normal;font-style:normal;font-size:10px">94.85 mb/s</text>
<path d="M62.364,39.554L70.364,39.554" style="fill:none;stroke:#000000;stroke-width:0.5" />
<path d="M62.364,121.04L70.364,121.04" style="fill:none;stroke:#000000;stroke-width:0.5" />
<path d="M62.364,202.53L70.364,202.53" style="fill:none;stroke:#000000;stroke-width:0.5" />
<path d="M62.364,278.56L70.364,278.56" style="fill:none;stroke:#000000;stroke-width:0.5" />
<path d="M70.364,38.48L70.364,278.56" style="fill:none;stroke:#000000;stroke-width:0.5" />
<path d="M76.114,217.03L76.751,237.87L77.387,235.16L78.023,242.66L78.66,274.57L79.296,223L79.933,199.39L80.569,190.49L81.205,170.39L81.842,212.88L82.478,167.59L83.115,234.05L83.751,161.13L84.387,179.83L85.024,149.62L85.66,229.27L86.297,146.73L86.933,199.21L87.569,134.67L88.206,197.24L88.842,155.3L89.479,197.51L90.115,56.313L90.751,224.38L91.388,165.21L92.024,185.36L92.661,166.55L93.297,194.94L93.933,126.21L94.57,57.521L95.206,228.76L95.843,236.18L96.479,232.8L97.115,209.41L97.752,46.912L98.388,113.57L99.025,166.32L99.661,222.55L100.3,164.72L100.93,231.83L101.57,165.09L102.21,240.35L102.84,47.998L103.48,170.3L104.12,141.88L104.75,202.6L105.39,44.017L106.03,260.12L106.66,265.43L107.3,218.74L107.93,146.42L108.57,177.21L109.21,148.72L109.84,175.31L110.48,44.17L111.12,204.1L111.75,131.71L112.39,217.32L113.03,150.68L113.66,42.462L114.3,226.89L114.93,202.82L115.57,236.01L116.21,199.61L116.84,152.47L117.48,206.5L118.12,42.166L118.75,181.7L119.39,153.53L120.03,176.16L120.66,122.51L121.3,208.65L121.94,41.284L122.57,210.48L123.21,159.18L123.84,207.19L124.48,246.62L125.12,153.84L125.75,201.73L126.39,150.89L127.03,40.895L127.66,263.12L128.3,246.2L128.94,195.72L129.57,131.05L130.21,248.62L130.84,240.83L131.48,233.89L132.12,40.258L132.75,224L133.39,167.94L134.03,221.78L134.66,145.17L135.3,222.83L135.94,218.58L136.57,199.85L137.21,158.11L137.85,39.998L138.48,257.29L139.12,272.03L139.75,240.05L140.39,152.28L141.03,230.66L141.66,129.84L142.3,252.98L142.94,39.65L143.57,197.55L144.21,218.2L144.85,257.81L145.48,243L146.12,164.07L146.75,207.97L147.39,129.78L148.03,246.05L148.66,240.78L149.3,39.456L149.94,258.81L150.57,229.22L151.21,162.14L151.85,201.43L152.48,147.61L153.12,229.34L153.76,250.83L154.39,255.27L155.03,253.64L155.66,254.19L156.3,242.41L156.94,39.481L157.57,219.97L158.21,150.51L158.85,264.44L159.48,263.79L160.12,263.58L160.76,248.22L161.39,250.49L162.03,251.9L162.66,240.67L163.3,150.07L163.94,39.661L164.57,196.19L165.21,226.02L165.85,214.19L166.48,146.82L167.12,243.34L167.76,242.27L168.39,254.44L169.03,205.91L169.67,144.08L170.3,39.326L170.94,266.53L171.57,265.19L172.21,248.08L172.85,160.1L173.48,203.78L174.12,154.58L174.76,248.55L175.39,251.17L176.03,39.422L176.67,259.83L177.3,262.59L177.94,199.8L178.57,159.36L179.21,275.17L179.85,261.18L180.48,243.89L181.12,242.8L181.76,245.77L182.39,244.15L183.03,39.558L183.67,261.7L184.3,266.72L184.94,170.23L185.58,223.02L186.21,170.63L186.85,204.22L187.48,162.6L188.12,246.2L188.76,225.2L189.39,206.46L190.03,219.89L190.67,39.646L191.3,227.42L191.94,157.94L192.58,264.5L193.21,268.38L193.85,241.97L194.48,255.46L195.12,202.61L195.76,211.21L196.39,39.677L197.03,260.57L197.67,271.54L198.3,227.05L198.94,165.11L199.58,218.84L200.21,155.75L200.85,186.39L201.49,144.86L202.12,215.11L202.76,39.515L203.39,256.75L204.03,278.56L204.67,227.88L205.3,144.17L205.94,208.39L206.58,223.72L207.21,166.15L207.85,220.03L208.49,155.82L209.12,209.02L209.76,39.402L210.39,258.42L211.03,266.42L211.67,225.17L212.3,168.59L212.94,233.29L213.58,152.96L214.21,227.99L214.85,243.7L215.49,242.02L216.12,250.31L216.76,39.377L217.4,261.47L218.03,262.83L218.67,231.98L219.3,166.83L219.94,194.73L220.58,155.55L221.21,231.04L221.85,238.92L222.49,235.05L223.12,252.79L223.76,223.84L224.4,39.607L225.03,183.47L225.67,139.65L226.3,227.19L226.94,163.66L227.58,199.59L228.21,149.27L228.85,208.88L229.49,209.38L230.12,39.603L230.76,214.95L231.4,127.09L232.03,118.2L232.67,243.64L233.31,270.32L233.94,229.69L234.58,207.86L235.21,215.6L235.85,223.8L236.49,234.94L237.12,39.491L237.76,221.02L238.4,176.21L239.03,176.21L239.67,160.07L240.31,267.38L240.94,218.18L241.58,204.52L242.21,209.25L242.85,192.78L243.49,150.69L244.12,39.566L244.76,270.1L245.4,268.92L246.03,218.77L246.67,158.04L247.31,208.27L247.94,128.91L248.58,249.49L249.22,247.74L249.85,39.219L250.49,270.87L251.12,238.59L251.76,156.84L252.4,228.49L253.03,153.63L253.67,200.17L254.31,152.24L254.94,202.01L255.58,164.44L256.22,204.59L256.85,163.8L257.49,215.23L258.12,39.048L258.76,216.11L259.4,151.69L260.03,269.03L260.67,266.04L261.31,220.87L261.94,153.45L262.58,205.82L263.22,163.37L263.85,207.59L264.49,152.68L265.13,38.945L265.76,269.06L266.4,260.83L267.03,248.77L267.67,137.72L268.31,243.43L268.94,156.96L269.58,269.36L270.22,243.23L270.85,248.62L271.49,157.07L272.13,174.57L272.76,38.703L273.4,170.4L274.03,139.53L274.67,185.39L275.31,155.34L275.94,275.1L276.58,261.79L277.22,153.9L277.85,245.77L278.49,217.07L279.13,180.13L279.76,124.7L280.4,38.759L281.04,208.75L281.67,157.75L282.31,215.91L282.94,165.03L283.58,214.07L284.22,168.75L284.85,214.26L285.49,138.43L286.13,231.61L286.76,149.44L287.4,238.27L288.04,38.685L288.67,223.55L289.31,163.95L289.94,169.06L290.58,139.21L291.22,213.61L291.85,152.87L292.49,222.82L293.13,159.68L293.76,183.57L294.4,155.12L295.04,217.2L295.67,169.39L296.31,38.86L296.95,272.42L297.58,270.05L298.22,216.14L298.85,162.71L299.49,222.63L300.13,176.11L300.76,220.63L301.4,127.58L302.04,242.85L302.67,226.71L303.31,158.85L303.95,38.537L304.58,212.89L305.22,169.99L305.85,176.91L306.49,129.63L307.13,199.16L307.76,168.54L308.4,268.92L309.04,252.48L309.67,233L310.31,187.92L310.95,152.89L311.58,205.84L312.22,38.783L312.86,200.27L313.49,168.92L314.13,209.01L314.76,200.89L315.4,249.19L316.04,133.36L316.67,210.36L317.31,132.91L317.95,199.92L318.58,210.83L319.22,38.786L319.86,269.87L320.49,257.04L321.13,235.82L321.77,157.17L322.4,241.22L323.04,160.43L323.67,231.88L324.31,144.57L324.95,224.58L325.58,129.01L326.22,216.88L326.86,143.86L327.49,38.774L328.13,254.1L328.77,265.01L329.4,93.685L330.04,182.86L330.67,148.14L331.31,191.87L331.95,140.98L332.58,125.44L333.22,155.45L333.86,194.14L334.49,138.87L335.13,38.48L335.77,206.86L336.4,173.5L337.04,214.55L337.68,161.52L338.31,225.85L338.95,162.61L339.58,233.35L340.22,164.92L340.86,215.22L341.49,167.37L342.13,194.33L342.77,161.3L343.4,38.877L344.04,205L344.68,165L345.31,228.78L345.95,165.12L346.58,204.33L347.22,173.08L347.86,236.88L348.49,152.69L349.13,227.31L349.77,139.69L350.4,206.43L351.04,139.46L351.68,38.662L352.31,204.46L352.95,162.54L353.59,222.79L354.22,160.47L354.86,220.68L355.49,168.13L356.13,222.95L356.77,134.85L357.4,188.02L358.04,151.76L358.68,196.44L359.31,123.12L359.95,38.585L360.59,261.88L361.22,256.24L361.86,247.05L362.49,157.31L363.13,215.65L363.77,147.32L364.4,211.57L365.04,212.73L365.68,206.5L366.31,154.55L366.95,216.37L367.59,146.16L368.22,38.604L368.86,211.93L369.5,140.83L370.13,227.38L370.77,167.23L371.4,181.46L372.04,145.85L372.68,220.94L373.31,170.41L373.95,201.64L374.59,134.05L375.22,248.54L375.86,38.495L376.5,220.19L377.13,203.58L377.77,234.03L378.4,228L379.04,170.8L379.68,209.94L380.31,141.5L380.95,176.77L381.59,142.39L382.22,197.62L382.86,157.64L383.5,204.69L384.13,38.708L384.77,220.46L385.41,168.81L386.04,220.8L386.68,168.06L387.31,237.14L387.95,167.75L388.59,196.08L389.22,162.63L389.86,212.72L390.5,136.16L391.13,38.682L391.77,212.03L392.41,152.22L393.04,265.09L393.68,272.02L394.31,205.74L394.95,152.17L395.59,192.44L396.22,146.04L396.86,177.56L397.5,163.83L398.13,216.94L398.77,157.96L399.41,38.881L400.04,260.35L400.68,269.11L401.31,177.04" style="fill:none;stroke:#F15A60" />
<path d="M405.2,277.58L425.2,277.58" style="fill:none;stroke:#F15A60" />
<text x="316.88" y="-271.91" transform="scale(1, -1)"
	style="font-family:Times;font-weight:normal;font-style:normal;font-size:12px">batch-100kb-notx</text>
</g>
</svg>
