<?xml version="1.0"?>
<!-- Generated by SVGo and Plotinum VG -->
<svg width="425.2pt" height="283.46pt" viewBox="0 0 425.2 283.46"
	xmlns="http://www.w3.org/2000/svg"
	xmlns:xlink="http://www.w3.org/1999/xlink">
<g transform="scale(1, -1) translate(0, -283.46)">
<path d="M0,0L425.2,0L425.2,283.46L0,283.46Z" style="fill:#FFFFFF" />
<text x="207.23" y="-3.8613" transform="scale(1, -1)"
	style="font-family:Times;font-weight:normal;font-style:normal;font-size:12px">database size</text>
<text x="60.252" y="-15.602" transform="scale(1, -1)"
	style="font-family:Times;font-weight:normal;font-style:normal;font-size:10px">4.00 mb</text>
<text x="136.77" y="-15.602" transform="scale(1, -1)"
	style="font-family:Times;font-weight:normal;font-style:normal;font-size:10px">260.00 mb</text>
<text x="218.28" y="-15.602" transform="scale(1, -1)"
	style="font-family:Times;font-weight:normal;font-style:normal;font-size:10px">516.00 mb</text>
<text x="299.79" y="-15.602" transform="scale(1, -1)"
	style="font-family:Times;font-weight:normal;font-style:normal;font-size:10px">772.00 mb</text>
<text x="377.42" y="-15.602" transform="scale(1, -1)"
	style="font-family:Times;font-weight:normal;font-style:normal;font-size:10px">1023.63 mb</text>
<path d="M76.642,25.23L76.642,33.23" style="fill:none;stroke:#000000;stroke-width:0.5" />
<path d="M158.16,25.23L158.16,33.23" style="fill:none;stroke:#000000;stroke-width:0.5" />
<path d="M239.67,25.23L239.67,33.23" style="fill:none;stroke:#000000;stroke-width:0.5" />
<path d="M321.18,25.23L321.18,33.23" style="fill:none;stroke:#000000;stroke-width:0.5" />
<path d="M401.31,25.23L401.31,33.23" style="fill:none;stroke:#000000;stroke-width:0.5" />
<path d="M76.114,33.23L401.31,33.23" style="fill:none;stroke:#000000;stroke-width:0.5" />
<g transform="rotate(90)">
<text x="144.86" y="11.555" transform="scale(1, -1)"
	style="font-family:Times;font-weight:normal;font-style:normal;font-size:12px">speed</text>
</g>
<text x="20.416" y="-33.799" transform="scale(1, -1)"
	style="font-family:Times;font-weight:normal;font-style:normal;font-size:10px">2.00 mb/s</text>
<text x="15.416" y="-126.61" transform="scale(1, -1)"
	style="font-family:Times;font-weight:normal;font-style:normal;font-size:10px">34.00 mb/s</text>
<text x="15.416" y="-219.41" transform="scale(1, -1)"
	style="font-family:Times;font-weight:normal;font-style:normal;font-size:10px">66.00 mb/s</text>
<text x="15.416" y="-273.84" transform="scale(1, -1)"
	style="font-family:Times;font-weight:normal;font-style:normal;font-size:10px">84.76 mb/s</text>
<path d="M62.364,38.52L70.364,38.52" style="fill:none;stroke:#000000;stroke-width:0.5" />
<path d="M62.364,131.33L70.364,131.33" style="fill:none;stroke:#000000;stroke-width:0.5" />
<path d="M62.364,224.14L70.364,224.14" style="fill:none;stroke:#000000;stroke-width:0.5" />
<path d="M62.364,278.56L70.364,278.56" style="fill:none;stroke:#000000;stroke-width:0.5" />
<path d="M70.364,38.48L70.364,278.56" style="fill:none;stroke:#000000;stroke-width:0.5" />
<path d="M76.114,245.83L76.861,231.64L77.607,242.91L78.353,244.75L79.099,247.52L79.846,241.84L80.592,259.2L81.338,115.84L82.085,162.76L82.831,220.65L83.577,194.09L84.323,194.62L85.07,74.727L85.816,164.9L86.562,261.57L87.309,252.66L88.055,60.798L88.801,266.2L89.547,159.5L90.294,245.19L91.04,239.21L91.786,54.202L92.533,142.52L93.279,247.47L94.025,268.31L94.771,264.8L95.518,54.028L96.264,93.971L97.01,237.79L97.757,213.05L98.503,217.03L99.249,54.249L99.995,69.67L100.74,229.8L101.49,220.79L102.23,262.46L102.98,55.568L103.73,58.302L104.47,247.09L105.22,178.64L105.97,229.52L106.71,54.597L107.46,163.57L108.2,265.73L108.95,252.27L109.7,54.96L110.44,252.3L111.19,97.335L111.94,253.33L112.68,257.07L113.43,54.782L114.17,68.85L114.92,246.83L115.67,255.49L116.41,252.16L117.16,54.364L117.91,58.107L118.65,246.99L119.4,55.451L120.15,54.635L120.89,53.337L121.64,255.97L122.38,255.61L123.13,241.48L123.88,268.76L124.62,54.156L125.37,94.358L126.12,206.85L126.86,158.32L127.61,247.94L128.35,278.56L129.1,53.426L129.85,69.168L130.59,251.31L131.34,53.855L132.09,260.8L132.83,57.851L133.58,260.24L134.32,55.896L135.07,55.185L135.82,54.008L136.56,226L137.31,52.458L138.06,123.45L138.8,168.13L139.55,245.13L140.29,244.54L141.04,54.408L141.79,77.754L142.53,260.92L143.28,244.16L144.03,54.575L144.77,263.55L145.52,62.604L146.26,207.25L147.01,56.13L147.76,55.73L148.5,55.145L149.25,226.57L150,53.65L150.74,138.47L151.49,54.287L152.24,139.55L152.98,232.67L153.73,255.92L154.47,53.388L155.22,83.452L155.97,261.44L156.71,248.68L157.46,54.216L158.21,254.14L158.95,64.976L159.7,208.65L160.44,56.18L161.19,55.36L161.94,259.4L162.68,54.227L163.43,55.091L164.18,51.851L164.92,51.789L165.67,157.66L166.41,251.32L167.16,149.24L167.91,225.74L168.65,54.331L169.4,80.534L170.15,227.76L170.89,244.86L171.64,269.9L172.38,52.582L173.13,64.308L173.88,211.2L174.62,56.712L175.37,267.01L176.12,55.607L176.86,54.589L177.61,54.772L178.36,55.214L179.1,52.739L179.85,147.79L180.59,124.3L181.34,56.128L182.09,121.52L182.83,233.22L183.58,235.18L184.33,55.069L185.07,76.587L185.82,263.01L186.56,260.03L187.31,53.563L188.06,246.23L188.8,62.4L189.55,252.41L190.3,56.781L191.04,55.593L191.79,55.1L192.53,253.57L193.28,54.979L194.03,54.219L194.77,56.501L195.52,52.783L196.27,51.26L197.01,144.86L197.76,99.104L198.5,165.36L199.25,254.24L200,54.763L200.74,67.46L201.49,255.26L202.24,257.55L202.98,257.94L203.73,54.906L204.48,57.512L205.22,238.63L205.97,257.13L206.71,56.245L207.46,60.649L208.21,260.94L208.95,53.625L209.7,258.67L210.45,84.851L211.19,258.15L211.94,54.17L212.68,66.13L213.43,255.12L214.18,242.56L214.92,56.954L215.67,55.581L216.42,54.877L217.16,55.646L217.91,55.708L218.65,152.24L219.4,53.069L220.15,123.53L220.89,55.721L221.64,124.22L222.39,244.81L223.13,262.69L223.88,54.989L224.62,78.976L225.37,256.8L226.12,258.02L226.86,255.91L227.61,54.556L228.36,62.229L229.1,218.51L229.85,55.844L230.6,55.657L231.34,259.31L232.09,55.542L232.83,55.862L233.58,54.686L234.33,55.019L235.07,55.512L235.82,125.26L236.57,53.135L237.31,46.694L238.06,255.1L238.8,248.92L239.55,248.78L240.3,256.31L241.04,54.606L241.79,65.503L242.54,253.94L243.28,55.604L244.03,54.815L244.77,264.03L245.52,54.907L246.27,56.098L247.01,55.249L247.76,56.336L248.51,130.93L249.25,55.82L250,57.515L250.74,55.83L251.49,40.682L252.24,251.63L252.98,241.92L253.73,263.31L254.48,271.98L255.22,53.775L255.97,96.516L256.72,82.583L257.46,261.14L258.21,54.654L258.95,54.902L259.7,55.55L260.45,55.759L261.19,55.535L261.94,139.22L262.69,53.482L263.43,55.632L264.18,55.742L264.92,55.465L265.67,38.559L266.42,233.37L267.16,214.46L267.91,263.01L268.66,258.3L269.4,189.2L270.15,245.15L270.89,56.778L271.64,66.791L272.39,211.35L273.13,221.56L273.88,54.018L274.63,223.23L275.37,61.293L276.12,265.96L276.86,56.624L277.61,54.773L278.36,63.553L279.1,256.55L279.85,52.026L280.6,73.518L281.34,168.23L282.09,261.89L282.84,54.722L283.58,269.57L284.33,66.852L285.07,126.53L285.82,55.496L286.57,55.162L287.31,55.298L288.06,221L288.81,55.466L289.55,53.946L290.3,56.234L291.04,55.686L291.79,124.23L292.54,52.656L293.28,53.042L294.03,71.142L294.78,168.56L295.52,251.94L296.27,190.81L297.01,54.963L297.76,164.78L298.51,66.017L299.25,55.387L300,55.104L300.75,251.37L301.49,55.791L302.24,55.53L302.98,54.935L303.73,55.83L304.48,55.631L305.22,136.78L305.97,56.303L306.72,56.537L307.46,38.48L308.21,245.86L308.95,245.86L309.7,254.69L310.45,273.69L311.19,266.3L311.94,62.704L312.69,55.068L313.43,228.18L314.18,255.36L314.93,57.655L315.67,55.6L316.42,55.739L317.16,55.328L317.91,259.81L318.66,53.77L319.4,62.597L320.15,129.34L320.9,55.497L321.64,86.859L322.39,243.29L323.13,270.64L323.88,52.209L324.63,97.953L325.37,98.11L326.12,163.56L326.87,266.69L327.61,266.37L328.36,55.023L329.1,74.962L329.85,86.152L330.6,55.292L331.34,202.32L332.09,55.251L332.84,55.041L333.58,55.159L334.33,56.364L335.07,143.2L335.82,56.463L336.57,55.658L337.31,52.244L338.06,44.502L338.81,55.333L339.55,257.51L340.3,54.971L341.05,270.25L341.79,54.429L342.54,120.4L343.28,64.217L344.03,198.48L344.78,55.692L345.52,55.77L346.27,55.235L347.02,55.319L347.76,55.911L348.51,137.11L349.25,56.391L350,56.041L350.75,56.344L351.49,55.445L352.24,39.829L352.99,241.3L353.73,260.91L354.48,56.467L355.22,55.682L355.97,55.564L356.72,205.75L357.46,55.309L358.21,55.171L358.96,55.736L359.7,52.106L360.45,56.359L361.19,148.8L361.94,56.711L362.69,55.563L363.43,60.823L364.18,43.004L364.93,55.346L365.67,211.31L366.42,55.095L367.17,55.728L367.91,55.695L368.66,55.538L369.4,55.794L370.15,266.69L370.9,58.673L371.64,56.926L372.39,71.799L373.14,55.52L373.88,55.331L374.63,270.31L375.37,53.755L376.12,257.07L376.87,53.624L377.61,64.251L378.36,243.96L379.11,267.1L379.85,56.453L380.6,55.683L381.34,55.842L382.09,54.678L382.84,131.22L383.58,55.744L384.33,56.605L385.08,56.834L385.82,50.61L386.57,55.843L387.31,228.36L388.06,264.64L388.81,56.037L389.55,55.719L390.3,55.172L391.05,55.405L391.79,209.81L392.54,53.877L393.29,54.242L394.03,132.85L394.78,55.187L395.52,52.159L396.27,138.18L397.02,121.2L397.76,55.457L398.51,55.865L399.26,55.727L400,259.67L400.75,51.669L401.31,48.211" style="fill:none;stroke:#F15A60" />
<path d="M405.2,277.58L425.2,277.58" style="fill:none;stroke:#F15A60" />
<text x="278.24" y="-271.91" transform="scale(1, -1)"
	style="font-family:Times;font-weight:normal;font-style:normal;font-size:12px">batch-100kb-ctable-64mb</text>
</g>
</svg>
