<?xml version="1.0"?>
<!-- Generated by SVGo and Plotinum VG -->
<svg width="425.2pt" height="283.46pt" viewBox="0 0 425.2 283.46"
	xmlns="http://www.w3.org/2000/svg"
	xmlns:xlink="http://www.w3.org/1999/xlink">
<g transform="scale(1, -1) translate(0, -283.46)">
<path d="M0,0L425.2,0L425.2,283.46L0,283.46Z" style="fill:#FFFFFF" />
<text x="209.73" y="-3.8613" transform="scale(1, -1)"
	style="font-family:Times;font-weight:normal;font-style:normal;font-size:12px">database size</text>
<text x="65.244" y="-15.602" transform="scale(1, -1)"
	style="font-family:Times;font-weight:normal;font-style:normal;font-size:10px">4.00 mb</text>
<text x="140.51" y="-15.602" transform="scale(1, -1)"
	style="font-family:Times;font-weight:normal;font-style:normal;font-size:10px">260.00 mb</text>
<text x="220.77" y="-15.602" transform="scale(1, -1)"
	style="font-family:Times;font-weight:normal;font-style:normal;font-size:10px">516.00 mb</text>
<text x="301.03" y="-15.602" transform="scale(1, -1)"
	style="font-family:Times;font-weight:normal;font-style:normal;font-size:10px">772.00 mb</text>
<text x="377.42" y="-15.602" transform="scale(1, -1)"
	style="font-family:Times;font-weight:normal;font-style:normal;font-size:10px">1023.63 mb</text>
<path d="M81.634,25.23L81.634,33.23" style="fill:none;stroke:#000000;stroke-width:0.5" />
<path d="M161.89,25.23L161.89,33.23" style="fill:none;stroke:#000000;stroke-width:0.5" />
<path d="M242.16,25.23L242.16,33.23" style="fill:none;stroke:#000000;stroke-width:0.5" />
<path d="M322.42,25.23L322.42,33.23" style="fill:none;stroke:#000000;stroke-width:0.5" />
<path d="M401.31,25.23L401.31,33.23" style="fill:none;stroke:#000000;stroke-width:0.5" />
<path d="M81.114,33.23L401.31,33.23" style="fill:none;stroke:#000000;stroke-width:0.5" />
<g transform="rotate(90)">
<text x="144.86" y="11.555" transform="scale(1, -1)"
	style="font-family:Times;font-weight:normal;font-style:normal;font-size:12px">speed</text>
</g>
<text x="15.416" y="-105.62" transform="scale(1, -1)"
	style="font-family:Times;font-weight:normal;font-style:normal;font-size:10px">256.00 mb/s</text>
<text x="15.416" y="-176.83" transform="scale(1, -1)"
	style="font-family:Times;font-weight:normal;font-style:normal;font-size:10px">288.00 mb/s</text>
<text x="15.416" y="-248.04" transform="scale(1, -1)"
	style="font-family:Times;font-weight:normal;font-style:normal;font-size:10px">320.00 mb/s</text>
<text x="15.416" y="-273.84" transform="scale(1, -1)"
	style="font-family:Times;font-weight:normal;font-style:normal;font-size:10px">331.59 mb/s</text>
<path d="M67.364,110.35L75.364,110.35" style="fill:none;stroke:#000000;stroke-width:0.5" />
<path d="M67.364,181.55L75.364,181.55" style="fill:none;stroke:#000000;stroke-width:0.5" />
<path d="M67.364,252.76L75.364,252.76" style="fill:none;stroke:#000000;stroke-width:0.5" />
<path d="M67.364,278.56L75.364,278.56" style="fill:none;stroke:#000000;stroke-width:0.5" />
<path d="M75.364,38.48L75.364,278.56" style="fill:none;stroke:#000000;stroke-width:0.5" />
<path d="M81.114,38.48L81.849,217L82.584,236.23L83.319,233.8L84.053,262.8L84.788,222.56L85.523,247.29L86.258,235.23L86.993,239.28L87.728,247.14L88.462,252.19L89.197,252.41L89.932,241.37L90.667,251.14L91.402,238.62L92.136,251.38L92.871,253.37L93.606,220.06L94.341,238.07L95.076,243.64L95.81,234.84L96.545,247.19L97.28,272.68L98.015,253.78L98.75,249.74L99.485,234.01L100.22,255.12L100.95,255.16L101.69,248.13L102.42,243.57L103.16,249.07L103.89,249.5L104.63,238.19L105.36,242.33L106.1,230.16L106.83,243.93L107.57,252.68L108.3,248.71L109.04,245.11L109.77,221.97L110.51,271.39L111.24,258.3L111.98,253.63L112.71,248.32L113.45,237.51L114.18,250.15L114.92,248.45L115.65,246.07L116.39,227.64L117.12,271.8L117.85,232.82L118.59,247.56L119.32,240.28L120.06,239.76L120.79,251.67L121.53,253.72L122.26,239.67L123,245L123.73,269.62L124.47,259.29L125.2,239.7L125.94,246.25L126.67,253.34L127.41,247.18L128.14,251.36L128.88,244.78L129.61,253.4L130.35,267.3L131.08,250.35L131.82,244.92L132.55,250.23L133.29,256.51L134.02,250.67L134.76,251.16L135.49,246.88L136.23,250.7L136.96,268.89L137.69,235.37L138.43,247.77L139.16,250.3L139.9,248.44L140.63,254.32L141.37,221.47L142.1,246.97L142.84,234.19L143.57,265.95L144.31,240.19L145.04,232.48L145.78,248.05L146.51,253.4L147.25,250.63L147.98,246.06L148.72,239.48L149.45,252.16L150.19,263.59L150.92,252L151.66,243.31L152.39,248.88L153.13,250.52L153.86,246.25L154.6,253.59L155.33,224.64L156.06,243.78L156.8,256.47L157.53,249.47L158.27,247.14L159,232.99L159.74,235.28L160.47,233.64L161.21,235.63L161.94,247.82L162.68,247.44L163.41,262.44L164.15,250.26L164.88,258.02L165.62,247.93L166.35,248.99L167.09,234.59L167.82,241.41L168.56,236.65L169.29,248.26L170.03,250.56L170.76,250.79L171.5,240.11L172.23,234.66L172.97,244.79L173.7,231.11L174.44,243.27L175.17,219.87L175.9,249.05L176.64,252.23L177.37,245.64L178.11,251.63L178.84,227.68L179.58,227.65L180.31,251.78L181.05,248.04L181.78,250.35L182.52,253.52L183.25,235.99L183.99,270.13L184.72,241.29L185.46,248.95L186.19,254.1L186.93,254.49L187.66,253.49L188.4,225.21L189.13,246.69L189.87,239.73L190.6,270.96L191.34,238.15L192.07,244.32L192.81,248.28L193.54,247.55L194.27,234.9L195.01,239.88L195.74,256.48L196.48,248.44L197.21,273.88L197.95,248.83L198.68,254.55L199.42,249.73L200.15,256.1L200.89,251.58L201.62,250.86L202.36,248.82L203.09,229.69L203.83,268.01L204.56,247.21L205.3,257L206.03,255.03L206.77,249.63L207.5,249.92L208.24,228.55L208.97,250.96L209.71,243.94L210.44,252.81L211.18,239.05L211.91,246.76L212.65,237.23L213.38,250.53L214.11,252.18L214.85,245.08L215.58,233.93L216.32,250.6L217.05,274.34L217.79,230.23L218.52,242.26L219.26,254.27L219.99,244.87L220.73,248.58L221.46,241.57L222.2,239.51L222.93,256.76L223.67,271.95L224.4,252.72L225.14,250.77L225.87,255.32L226.61,247.51L227.34,219.74L228.08,247.84L228.81,252.98L229.55,257.42L230.28,265.51L231.02,253.39L231.75,243.65L232.49,247.26L233.22,239.5L233.95,251.25L234.69,241.04L235.42,251.91L236.16,245.33L236.89,247.39L237.63,270.96L238.36,221.72L239.1,246.43L239.83,230.46L240.57,246.02L241.3,234.24L242.04,253.41L242.77,241.9L243.51,272.64L244.24,254.05L244.98,244.21L245.71,244.82L246.45,253.66L247.18,254.36L247.92,244.93L248.65,248.51L249.39,252.94L250.12,246.46L250.86,268.85L251.59,250.79L252.32,250.14L253.06,249.76L253.79,252.31L254.53,252.71L255.26,241.57L256,229.1L256.73,250.73L257.47,272.39L258.2,247.69L258.94,237.76L259.67,238.36L260.41,239.99L261.14,257.71L261.88,246.71L262.61,217.47L263.35,251.94L264.08,268.01L264.82,238.87L265.55,243.87L266.29,245.51L267.02,249.85L267.76,241.21L268.49,227.69L269.23,249.58L269.96,232.2L270.7,262.54L271.43,234.18L272.16,253.74L272.9,249.71L273.63,245.32L274.37,238.75L275.1,238.48L275.84,252.4L276.57,240.71L277.31,272.65L278.04,250.31L278.78,250.37L279.51,253.49L280.25,242.98L280.98,250.1L281.72,243.93L282.45,240.22L283.19,249.58L283.92,268.93L284.66,252.95L285.39,237.77L286.13,241.12L286.86,252.51L287.6,238.66L288.33,259.07L289.07,248.6L289.8,229.24L290.54,268.69L291.27,234.93L292,239.11L292.74,244.78L293.47,249.89L294.21,250.89L294.94,245.87L295.68,237.33L296.41,241.88L297.15,268.63L297.88,248.57L298.62,234.27L299.35,248.98L300.09,257.04L300.82,228.92L301.56,257.34L302.29,238.37L303.03,252.97L303.76,262.8L304.5,251.1L305.23,241.57L305.97,232.44L306.7,244.93L307.44,252.57L308.17,245.54L308.91,254.14L309.64,241.88L310.37,277.61L311.11,256.46L311.84,251.16L312.58,246.48L313.31,229.97L314.05,252.72L314.78,233.04L315.52,251.45L316.25,249.81L316.99,253.84L317.72,260.2L318.46,252.8L319.19,239.49L319.93,249.3L320.66,240.81L321.4,252.63L322.13,234.2L322.87,230.48L323.6,255.66L324.34,269.58L325.07,244.78L325.81,249.05L326.54,238.22L327.28,247.83L328.01,243.28L328.75,253.4L329.48,253.13L330.21,252.22L330.95,251.34L331.68,233.37L332.42,244.51L333.15,252.84L333.89,256.24L334.62,246.97L335.36,253.08L336.09,246.76L336.83,244.04L337.56,253.7L338.3,245.88L339.03,251L339.77,235.47L340.5,251.84L341.24,253.26L341.97,249.63L342.71,251.52L343.44,250.19L344.18,270.15L344.91,246.74L345.65,235.17L346.38,248.84L347.12,237.62L347.85,232.42L348.59,244.46L349.32,234.92L350.05,252.26L350.79,269.1L351.52,253.57L352.26,255.83L352.99,230.34L353.73,250.29L354.46,237.8L355.2,251.4L355.93,260.89L356.67,245.79L357.4,278.56L358.14,254.32L358.87,243.86L359.61,253.84L360.34,255.48L361.08,242.34L361.81,253.82L362.55,238.64L363.28,228.93L364.02,274.2L364.75,254.38L365.49,259.15L366.22,247.06L366.96,245.9L367.69,244.48L368.42,237.08L369.16,253.79L369.89,243L370.63,268.45L371.36,248.02L372.1,238.77L372.83,252.4L373.57,247L374.3,254.98L375.04,239.86L375.77,242.88L376.51,245.43L377.24,269.26L377.98,239.56L378.71,238.38L379.45,244.77L380.18,240.59L380.92,246.97L381.65,244.09L382.39,236.42L383.12,252.51L383.86,256.53L384.59,261.49L385.33,257.52L386.06,251.47L386.8,230.87L387.53,244.65L388.26,252.57L389,236.39L389.73,252.74L390.47,245.74L391.2,247.67L391.94,252.91L392.67,236.5L393.41,256.76L394.14,241.95L394.88,248.61L395.61,247.45L396.35,248.52L397.08,247.73L397.82,249.31L398.55,238.44L399.29,253.67L400.02,251.71L400.76,242.6L401.31,267.41" style="fill:none;stroke:#F15A60" />
<path d="M405.2,277.58L425.2,277.58" style="fill:none;stroke:#F15A60" />
<text x="316.88" y="-271.91" transform="scale(1, -1)"
	style="font-family:Times;font-weight:normal;font-style:normal;font-size:12px">batch-100kb-notx</text>
</g>
</svg>
