<?xml version="1.0"?>
<!-- Generated by SVGo and Plotinum VG -->
<svg width="425.2pt" height="283.46pt" viewBox="0 0 425.2 283.46"
	xmlns="http://www.w3.org/2000/svg"
	xmlns:xlink="http://www.w3.org/1999/xlink">
<g transform="scale(1, -1) translate(0, -283.46)">
<path d="M0,0L425.2,0L425.2,283.46L0,283.46Z" style="fill:#FFFFFF" />
<text x="207.23" y="-3.8613" transform="scale(1, -1)"
	style="font-family:Times;font-weight:normal;font-style:normal;font-size:12px">database size</text>
<text x="60.361" y="-15.602" transform="scale(1, -1)"
	style="font-family:Times;font-weight:normal;font-style:normal;font-size:10px">4.00 mb</text>
<text x="136.82" y="-15.602" transform="scale(1, -1)"
	style="font-family:Times;font-weight:normal;font-style:normal;font-size:10px">260.00 mb</text>
<text x="218.28" y="-15.602" transform="scale(1, -1)"
	style="font-family:Times;font-weight:normal;font-style:normal;font-size:10px">516.00 mb</text>
<text x="299.73" y="-15.602" transform="scale(1, -1)"
	style="font-family:Times;font-weight:normal;font-style:normal;font-size:10px">772.00 mb</text>
<text x="377.42" y="-15.602" transform="scale(1, -1)"
	style="font-family:Times;font-weight:normal;font-style:normal;font-size:10px">1024.00 mb</text>
<path d="M76.751,25.23L76.751,33.23" style="fill:none;stroke:#000000;stroke-width:0.5" />
<path d="M158.21,25.23L158.21,33.23" style="fill:none;stroke:#000000;stroke-width:0.5" />
<path d="M239.67,25.23L239.67,33.23" style="fill:none;stroke:#000000;stroke-width:0.5" />
<path d="M321.12,25.23L321.12,33.23" style="fill:none;stroke:#000000;stroke-width:0.5" />
<path d="M401.31,25.23L401.31,33.23" style="fill:none;stroke:#000000;stroke-width:0.5" />
<path d="M76.114,33.23L401.31,33.23" style="fill:none;stroke:#000000;stroke-width:0.5" />
<g transform="rotate(90)">
<text x="144.86" y="11.555" transform="scale(1, -1)"
	style="font-family:Times;font-weight:normal;font-style:normal;font-size:12px">speed</text>
</g>
<text x="20.416" y="-34.953" transform="scale(1, -1)"
	style="font-family:Times;font-weight:normal;font-style:normal;font-size:10px">1.00 mb/s</text>
<text x="15.416" y="-121.48" transform="scale(1, -1)"
	style="font-family:Times;font-weight:normal;font-style:normal;font-size:10px">33.00 mb/s</text>
<text x="15.416" y="-208" transform="scale(1, -1)"
	style="font-family:Times;font-weight:normal;font-style:normal;font-size:10px">65.00 mb/s</text>
<text x="15.416" y="-273.84" transform="scale(1, -1)"
	style="font-family:Times;font-weight:normal;font-style:normal;font-size:10px">89.35 mb/s</text>
<path d="M62.364,39.675L70.364,39.675" style="fill:none;stroke:#000000;stroke-width:0.5" />
<path d="M62.364,126.2L70.364,126.2" style="fill:none;stroke:#000000;stroke-width:0.5" />
<path d="M62.364,212.73L70.364,212.73" style="fill:none;stroke:#000000;stroke-width:0.5" />
<path d="M62.364,278.56L70.364,278.56" style="fill:none;stroke:#000000;stroke-width:0.5" />
<path d="M70.364,38.48L70.364,278.56" style="fill:none;stroke:#000000;stroke-width:0.5" />
<path d="M76.114,228.15L76.751,242.1L77.387,249.06L78.023,266.76L78.66,230.85L79.296,122.71L79.933,276L80.569,276.79L81.205,239.26L81.842,158.14L82.478,220.8L83.115,137.89L83.751,225.64L84.387,142.17L85.024,202.26L85.66,153.19L86.297,207.07L86.933,165.01L87.569,125.82L88.206,240.04L88.842,257.94L89.479,210.65L90.115,187.33L90.751,53.787L91.388,220.07L92.024,144.65L92.661,188.42L93.297,135.13L93.933,203.73L94.57,131.87L95.206,189.93L95.843,56.329L96.479,182.07L97.115,141.15L97.752,195.87L98.388,46.692L99.025,231.82L99.661,152.46L100.3,202.73L100.93,127.81L101.57,218.68L102.21,111.07L102.84,213.82L103.48,48.025L104.12,191.49L104.75,144.75L105.39,201.83L106.03,44.031L106.66,208.19L107.3,262.17L107.93,159.01L108.57,193.66L109.21,138.59L109.84,187.74L110.48,139.38L111.12,44.555L111.75,209.34L112.39,248.03L113.03,246.14L113.66,42.298L114.3,271.55L114.93,256.49L115.57,198.94L116.21,142.24L116.84,235.74L117.48,163.44L118.12,217.46L118.75,163.24L119.39,42.178L120.03,263.02L120.66,225.05L121.3,204.08L121.94,157.49L122.57,213.99L123.21,165.15L123.84,41.157L124.48,270.79L125.12,268.62L125.75,246.78L126.39,158.72L127.03,257.1L127.66,248.58L128.3,260.98L128.94,201.79L129.57,40.748L130.21,222.02L130.84,143.58L131.48,170.11L132.12,155.12L132.75,211.41L133.39,253.96L134.03,142.31L134.66,40.688L135.3,272.73L135.94,268.25L136.57,239.29L137.21,165.48L137.85,249.43L138.48,251.91L139.12,40.363L139.75,269.34L140.39,274.47L141.03,229.15L141.66,170.16L142.3,206.61L142.94,140.51L143.57,200.52L144.21,139.01L144.85,214.7L145.48,39.931L146.12,217.84L146.75,142.73L147.39,130.64L148.03,169.38L148.66,223.32L149.3,155.16L149.94,231.48L150.57,255.7L151.21,39.69L151.85,264.5L152.48,261.34L153.12,238.07L153.76,173.81L154.39,226.19L155.03,171.85L155.66,250.9L156.3,235.88L156.94,236.84L157.57,168.46L158.21,152.61L158.85,39.768L159.48,258.99L160.12,265.21L160.76,210.97L161.39,166.59L162.03,240.92L162.66,240.9L163.3,248.66L163.94,219.91L164.57,216.67L165.21,39.89L165.85,247.94L166.48,212.76L167.12,210.28L167.76,257.78L168.39,235.99L169.03,248.23L169.67,249.78L170.3,233.73L170.94,162.69L171.57,40.157L172.21,267.22L172.85,255.52L173.48,160.32L174.12,242.26L174.76,240.39L175.39,252.4L176.03,249.79L176.67,223.9L177.3,40.005L177.94,232.09L178.57,143.42L179.21,209.53L179.85,161.84L180.48,204.21L181.12,250.96L181.76,259.19L182.39,248.47L183.03,243.68L183.67,40.173L184.3,233.19L184.94,151.24L185.58,218.12L186.21,233.38L186.85,252.06L187.48,245.56L188.12,260.99L188.76,185.34L189.39,40.212L190.03,202.76L190.67,144.29L191.3,216.35L191.94,145.26L192.58,207.35L193.21,215.68L193.85,221.59L194.48,39.95L195.12,261.68L195.76,255.09L196.39,214.26L197.03,163.62L197.67,266.72L198.3,255.43L198.94,245.25L199.58,257.4L200.21,226.92L200.85,150.93L201.49,39.913L202.12,272.55L202.76,278.01L203.39,216.44L204.03,147.7L204.67,183.01L205.3,134.71L205.94,242.86L206.58,210.05L207.21,39.578L207.85,263.45L208.49,278.56L209.12,226.43L209.76,171.58L210.39,228.84L211.03,175.27L211.67,218.55L212.3,155.12L212.94,246.43L213.58,254.98L214.21,39.494L214.85,265.22L215.49,224.23L216.12,228.3L216.76,238.3L217.4,171.84L218.03,218.59L218.67,165.31L219.3,234.34L219.94,236.26L220.58,244.48L221.21,39.42L221.85,263.99L222.49,267.2L223.12,240.33L223.76,170.29L224.4,221.62L225.03,176.46L225.67,208.47L226.3,136.27L226.94,232.54L227.58,256.56L228.21,39.23L228.85,269.13L229.49,271.01L230.12,264.95L230.76,164.29L231.4,219.85L232.03,164.42L232.67,186.87L233.31,160.6L233.94,231.72L234.58,235.54L235.21,224.57L235.85,224.37L236.49,39.418L237.12,217.97L237.76,169.17L238.4,274.61L239.03,267.76L239.67,259.92L240.31,253.59L240.94,236.4L241.58,162.36L242.21,211.95L242.85,155.86L243.49,39.484L244.12,258.29L244.76,265.68L245.4,252.99L246.03,167.33L246.67,203.15L247.31,158.41L247.94,252.71L248.58,250.24L249.22,255.81L249.85,214.74L250.49,39.197L251.12,227.65L251.76,144.34L252.4,226.33L253.03,143.24L253.67,199.49L254.31,169.56L254.94,255.32L255.58,252.47L256.22,251.81L256.85,230.17L257.49,156.67L258.12,39.01L258.76,268.75L259.4,270.72L260.03,238.81L260.67,174.79L261.31,226.53L261.94,141.56L262.58,219.69L263.22,140.76L263.85,208.95L264.49,139.99L265.13,251.06L265.76,38.73L266.4,210.57L267.03,159.96L267.67,262.6L268.31,154.74L268.94,264.36L269.58,248.59L270.22,150.7L270.85,244.9L271.49,240.77L272.13,231.25L272.76,130.76L273.4,38.81L274.03,233.14L274.67,180.23L275.31,214.05L275.94,171.54L276.58,174.2L277.22,140.51L277.85,258.76L278.49,250.18L279.13,244.29L279.76,143.39L280.4,221.79L281.04,124.37L281.67,38.925L282.31,226.37L282.94,165.49L283.58,231.75L284.22,233.89L284.85,165.06L285.49,220.7L286.13,143.19L286.76,235.71L287.4,147.01L288.04,248.48L288.67,257.11L289.31,38.612L289.94,274.92L290.58,210.34L291.22,210.07L291.85,138.55L292.49,206.38L293.13,169.09L293.76,227.26L294.4,157.88L295.04,253.13L295.67,255.68L296.31,248.04L296.95,205.38L297.58,38.861L298.22,226.41L298.85,168.59L299.49,270.51L300.13,199.99L300.76,195.69L301.4,139.2L302.04,249.87L302.67,256.15L303.31,253.74L303.95,251.36L304.58,38.845L305.22,207.3L305.85,268.27L306.49,168.1L307.13,212.05L307.76,140.55L308.4,223.04L309.04,166.48L309.67,218.79L310.31,141.15L310.95,228.51L311.58,135.1L312.22,38.82L312.86,205.15L313.49,207.5L314.13,209.7L314.76,241.79L315.4,141.73L316.04,233.2L316.67,160.03L317.31,209.99L317.95,136.06L318.58,255.22L319.22,237.56L319.86,38.849L320.49,218.53L321.13,225.73L321.77,159.41L322.4,267.58L323.04,268.02L323.67,238.97L324.31,167.46L324.95,202.06L325.58,138.64L326.22,247.71L326.86,254.41L327.49,38.849L328.13,209.87L328.77,167.21L329.4,266.06L330.04,273.31L330.67,220.74L331.31,170.19L331.95,207.07L332.58,163.88L333.22,225.47L333.86,226.99L334.49,248.12L335.13,244.84L335.77,38.844L336.4,220.27L337.04,136.06L337.68,225.96L338.31,173.49L338.95,232.22L339.58,138.24L340.22,255.63L340.86,256.39L341.49,232.98L342.13,163.26L342.77,201.15L343.4,38.743L344.04,203.37L344.68,168.07L345.31,229.04L345.95,145.98L346.58,223.31L347.22,137.91L347.86,195.59L348.49,140.54L349.13,227.71L349.77,229.94L350.4,198.45L351.04,38.709L351.68,216.1L352.31,171.58L352.95,216.38L353.59,174.34L354.22,215.14L354.86,172.26L355.49,220.2L356.13,135.94L356.77,232.04L357.4,143.87L358.04,233.63L358.68,38.831L359.31,229.52L359.95,172.91L360.59,199.68L361.22,161.51L361.86,199.18L362.49,142.82L363.13,202.55L363.77,158.63L364.4,229.68L365.04,152.09L365.68,216.7L366.31,38.785L366.95,206.27L367.59,140.68L368.22,225.96L368.86,170.23L369.5,225.17L370.13,148.33L370.77,242.27L371.4,259.57L372.04,246.42L372.68,219.69L373.31,160.36L373.95,38.874L374.59,266.68L375.22,265.23L375.86,231.11L376.5,176.34L377.13,216.72L377.77,169.65L378.4,227.42L379.04,138.29L379.68,246.92L380.31,261.53L380.95,251.99L381.59,210.85L382.22,38.48L382.86,216.2L383.5,140.48L384.13,224.31L384.77,172.13L385.41,233.41L386.04,166.66L386.68,189.8L387.31,156.49L387.95,208.91L388.59,149.7L389.22,211.54L389.86,38.756L390.5,232.63L391.13,175.41L391.77,247.64L392.41,166.39L393.04,247.75L393.68,157.93L394.31,211.87L394.95,155.07L395.59,215.46L396.22,157.53L396.86,209.72L397.5,38.778L398.13,235.08L398.77,147.41L399.41,230.93L400.04,173.48L400.68,235.42L401.31,170.16" style="fill:none;stroke:#F15A60" />
<path d="M405.2,277.58L425.2,277.58" style="fill:none;stroke:#F15A60" />
<text x="316.88" y="-271.91" transform="scale(1, -1)"
	style="font-family:Times;font-weight:normal;font-style:normal;font-size:12px">batch-100kb-notx</text>
</g>
</svg>
