<?xml version="1.0"?>
<!-- Generated by SVGo and Plotinum VG -->
<svg width="425.2pt" height="283.46pt" viewBox="0 0 425.2 283.46"
	xmlns="http://www.w3.org/2000/svg"
	xmlns:xlink="http://www.w3.org/1999/xlink">
<g transform="scale(1, -1) translate(0, -283.46)">
<path d="M0,0L425.2,0L425.2,283.46L0,283.46Z" style="fill:#FFFFFF" />
<text x="209.73" y="-3.8613" transform="scale(1, -1)"
	style="font-family:Times;font-weight:normal;font-style:normal;font-size:12px">database size</text>
<text x="65.668" y="-15.602" transform="scale(1, -1)"
	style="font-family:Times;font-weight:normal;font-style:normal;font-size:10px">8.00 mb</text>
<text x="141.11" y="-15.602" transform="scale(1, -1)"
	style="font-family:Times;font-weight:normal;font-style:normal;font-size:10px">264.00 mb</text>
<text x="221.55" y="-15.602" transform="scale(1, -1)"
	style="font-family:Times;font-weight:normal;font-style:normal;font-size:10px">520.00 mb</text>
<text x="301.99" y="-15.602" transform="scale(1, -1)"
	style="font-family:Times;font-weight:normal;font-style:normal;font-size:10px">776.00 mb</text>
<text x="377.42" y="-15.602" transform="scale(1, -1)"
	style="font-family:Times;font-weight:normal;font-style:normal;font-size:10px">1024.00 mb</text>
<path d="M82.057,25.23L82.057,33.23" style="fill:none;stroke:#000000;stroke-width:0.5" />
<path d="M162.5,25.23L162.5,33.23" style="fill:none;stroke:#000000;stroke-width:0.5" />
<path d="M242.94,25.23L242.94,33.23" style="fill:none;stroke:#000000;stroke-width:0.5" />
<path d="M323.38,25.23L323.38,33.23" style="fill:none;stroke:#000000;stroke-width:0.5" />
<path d="M401.31,25.23L401.31,33.23" style="fill:none;stroke:#000000;stroke-width:0.5" />
<path d="M81.114,33.23L401.31,33.23" style="fill:none;stroke:#000000;stroke-width:0.5" />
<g transform="rotate(90)">
<text x="144.86" y="11.555" transform="scale(1, -1)"
	style="font-family:Times;font-weight:normal;font-style:normal;font-size:12px">speed</text>
</g>
<text x="15.416" y="-273.84" transform="scale(1, -1)"
	style="font-family:Times;font-weight:normal;font-style:normal;font-size:10px">243.04 mb/s</text>
<path d="M67.364,278.56L75.364,278.56" style="fill:none;stroke:#000000;stroke-width:0.5" />
<path d="M75.364,38.48L75.364,278.56" style="fill:none;stroke:#000000;stroke-width:0.5" />
<path d="M81.114,38.48L82.685,151.88L84.257,254.66L85.828,269.08L87.399,242.92L88.97,268.31L90.541,267.43L92.112,252.64L93.683,251.85L95.254,266.16L96.825,269.11L98.397,269.49L99.968,264.82L101.54,272L103.11,258.43L104.68,263.02L106.25,269.43L107.82,272.46L109.39,268.48L110.97,274.02L112.54,266.19L114.11,255.1L115.68,263.86L117.25,270.35L118.82,269.4L120.39,270.35L121.96,267.03L123.53,273.93L125.11,248.5L126.68,127.65L128.25,254.85L129.82,226.42L131.39,245.93L132.96,244.05L134.53,250.49L136.1,248.47L137.67,241.14L139.25,251.23L140.82,256.81L142.39,269.44L143.96,266.33L145.53,259.37L147.1,268.99L148.67,266.95L150.24,260.36L151.81,194.44L153.39,261.8L154.96,200.1L156.53,260.26L158.1,218.57L159.67,259.92L161.24,188.91L162.81,187.53L164.38,233.89L165.95,273.17L167.53,262.63L169.1,266.26L170.67,266.74L172.24,261.88L173.81,267.54L175.38,239.8L176.95,265.6L178.52,179.86L180.09,254.15L181.67,231.47L183.24,264.48L184.81,261.37L186.38,261.86L187.95,246.8L189.52,247.52L191.09,258.2L192.66,265.08L194.24,261.06L195.81,267.65L197.38,254.55L198.95,251.89L200.52,243.96L202.09,251.59L203.66,253.97L205.23,252.84L206.8,272.57L208.38,264.92L209.95,261.22L211.52,266.4L213.09,271.14L214.66,253.06L216.23,276.89L217.8,183.58L219.37,262.56L220.94,253.62L222.52,259.6L224.09,268.23L225.66,272.28L227.23,268.66L228.8,272.04L230.37,255.71L231.94,268.09L233.51,270.06L235.08,269.73L236.66,264.66L238.23,262.57L239.8,268.03L241.37,188.68L242.94,269.51L244.51,270.29L246.08,270.71L247.65,268.52L249.22,256.96L250.8,267.75L252.37,260.08L253.94,249.16L255.51,235.15L257.08,236.32L258.65,242.69L260.22,252.78L261.79,212.02L263.36,222.36L264.94,210.13L266.51,252.34L268.08,218.57L269.65,259.6L271.22,254.72L272.79,269.06L274.36,270.98L275.93,265.36L277.5,269.97L279.08,268.65L280.65,260.97L282.22,267.69L283.79,262.41L285.36,253.71L286.93,265.15L288.5,251.8L290.07,256.1L291.64,272.02L293.22,265.98L294.79,275.18L296.36,263.3L297.93,248.91L299.5,278.37L301.07,268.7L302.64,253.42L304.21,265.77L305.78,227.87L307.36,242.27L308.93,246.26L310.5,262.62L312.07,263.43L313.64,252.8L315.21,275.4L316.78,278.04L318.35,272.18L319.92,271.5L321.5,258.79L323.07,273.8L324.64,266.64L326.21,265.45L327.78,267.04L329.35,257.18L330.92,265.6L332.49,265.83L334.06,267.61L335.64,265.09L337.21,271.96L338.78,256.66L340.35,274.73L341.92,270.32L343.49,267.62L345.06,266.05L346.63,267.52L348.2,260.53L349.78,260.52L351.35,262.87L352.92,262.52L354.49,265.6L356.06,268.09L357.63,268.7L359.2,259.21L360.77,263.36L362.35,258.44L363.92,267.91L365.49,269.9L367.06,275.3L368.63,278.56L370.2,181.88L371.77,256.59L373.34,262.97L374.91,261.76L376.49,265.98L378.06,265.27L379.63,251.98L381.2,263.14L382.77,263.48L384.34,267.01L385.91,267.22L387.48,238.77L389.05,270.12L390.63,258.46L392.2,277.04L393.77,271.32L395.34,272.07L396.91,266.61L398.48,269.17L400.05,268.76L401.31,254.09" style="fill:none;stroke:#F15A60" />
<path d="M405.2,277.58L425.2,277.58" style="fill:none;stroke:#F15A60" />
<text x="350.88" y="-271.91" transform="scale(1, -1)"
	style="font-family:Times;font-weight:normal;font-style:normal;font-size:12px">batch-5mb</text>
</g>
</svg>
