<?xml version="1.0"?>
<!-- Generated by SVGo and Plotinum VG -->
<svg width="425.2pt" height="283.46pt" viewBox="0 0 425.2 283.46"
	xmlns="http://www.w3.org/2000/svg"
	xmlns:xlink="http://www.w3.org/1999/xlink">
<g transform="scale(1, -1) translate(0, -283.46)">
<path d="M0,0L425.2,0L425.2,283.46L0,283.46Z" style="fill:#FFFFFF" />
<text x="209.73" y="-3.8613" transform="scale(1, -1)"
	style="font-family:Times;font-weight:normal;font-style:normal;font-size:12px">database size</text>
<text x="65.244" y="-15.602" transform="scale(1, -1)"
	style="font-family:Times;font-weight:normal;font-style:normal;font-size:10px">4.00 mb</text>
<text x="140.51" y="-15.602" transform="scale(1, -1)"
	style="font-family:Times;font-weight:normal;font-style:normal;font-size:10px">260.00 mb</text>
<text x="220.77" y="-15.602" transform="scale(1, -1)"
	style="font-family:Times;font-weight:normal;font-style:normal;font-size:10px">516.00 mb</text>
<text x="301.03" y="-15.602" transform="scale(1, -1)"
	style="font-family:Times;font-weight:normal;font-style:normal;font-size:10px">772.00 mb</text>
<text x="377.42" y="-15.602" transform="scale(1, -1)"
	style="font-family:Times;font-weight:normal;font-style:normal;font-size:10px">1023.63 mb</text>
<path d="M81.634,25.23L81.634,33.23" style="fill:none;stroke:#000000;stroke-width:0.5" />
<path d="M161.89,25.23L161.89,33.23" style="fill:none;stroke:#000000;stroke-width:0.5" />
<path d="M242.16,25.23L242.16,33.23" style="fill:none;stroke:#000000;stroke-width:0.5" />
<path d="M322.42,25.23L322.42,33.23" style="fill:none;stroke:#000000;stroke-width:0.5" />
<path d="M401.31,25.23L401.31,33.23" style="fill:none;stroke:#000000;stroke-width:0.5" />
<path d="M81.114,33.23L401.31,33.23" style="fill:none;stroke:#000000;stroke-width:0.5" />
<g transform="rotate(90)">
<text x="144.86" y="11.555" transform="scale(1, -1)"
	style="font-family:Times;font-weight:normal;font-style:normal;font-size:12px">speed</text>
</g>
<text x="15.416" y="-89.229" transform="scale(1, -1)"
	style="font-family:Times;font-weight:normal;font-style:normal;font-size:10px">256.00 mb/s</text>
<text x="15.416" y="-169.27" transform="scale(1, -1)"
	style="font-family:Times;font-weight:normal;font-style:normal;font-size:10px">288.00 mb/s</text>
<text x="15.416" y="-249.31" transform="scale(1, -1)"
	style="font-family:Times;font-weight:normal;font-style:normal;font-size:10px">320.00 mb/s</text>
<text x="15.416" y="-273.84" transform="scale(1, -1)"
	style="font-family:Times;font-weight:normal;font-style:normal;font-size:10px">329.81 mb/s</text>
<path d="M67.364,93.951L75.364,93.951" style="fill:none;stroke:#000000;stroke-width:0.5" />
<path d="M67.364,173.99L75.364,173.99" style="fill:none;stroke:#000000;stroke-width:0.5" />
<path d="M67.364,254.03L75.364,254.03" style="fill:none;stroke:#000000;stroke-width:0.5" />
<path d="M67.364,278.56L75.364,278.56" style="fill:none;stroke:#000000;stroke-width:0.5" />
<path d="M75.364,38.48L75.364,278.56" style="fill:none;stroke:#000000;stroke-width:0.5" />
<path d="M81.114,38.48L81.849,226.9L82.584,239.04L83.319,252.35L84.053,221.15L84.788,236.87L85.523,236.18L86.258,242.67L86.993,235.14L87.728,212.83L88.462,239.04L89.197,247.81L89.932,226.87L90.667,240.94L91.402,224.97L92.136,224.58L92.871,244.79L93.606,241.49L94.341,235.31L95.076,270.02L95.81,238.11L96.545,251.03L97.28,243.11L98.015,225.34L98.75,238.53L99.485,240.52L100.22,239.47L100.95,271.9L101.69,243.98L102.42,231.91L103.16,216.99L103.89,245.36L104.63,242.9L105.36,233.95L106.1,233.29L106.83,268.3L107.57,233.81L108.3,245.29L109.04,236.76L109.77,226.72L110.51,236.94L111.24,226L111.98,245L112.71,261.81L113.45,253.47L114.18,231.87L114.92,230.94L115.65,244.84L116.39,226.46L117.12,245.42L117.85,241.8L118.59,262.85L119.32,243.65L120.06,248.73L120.79,249.34L121.53,249L122.26,241.88L123,240.1L123.73,246.42L124.47,271.42L125.2,251.01L125.94,235.63L126.67,229.74L127.41,223.21L128.14,229.64L128.88,244.89L129.61,242.1L130.35,266.25L131.08,236.17L131.82,244.95L132.55,228.53L133.29,229.25L134.02,242.21L134.76,246.28L135.49,230.35L136.23,269.89L136.96,230.94L137.69,246.98L138.43,239.97L139.16,242.44L139.9,241.91L140.63,237.41L141.37,237.24L142.1,261.34L142.84,241.6L143.57,235.82L144.31,235.56L145.04,237.6L145.78,229.26L146.51,244.46L147.25,231.89L147.98,264.61L148.72,233.83L149.45,229.22L150.19,222.72L150.92,236.19L151.66,237.24L152.39,237.77L153.13,245.63L153.86,269.94L154.6,241.68L155.33,240.63L156.06,227.63L156.8,242.07L157.53,229.6L158.27,227.4L159,244.59L159.74,268.2L160.47,225.19L161.21,241.93L161.94,241.45L162.68,234.26L163.41,243.31L164.15,236.27L164.88,244.76L165.62,263.44L166.35,247.42L167.09,231.63L167.82,244.21L168.56,234.77L169.29,239.96L170.03,233.87L170.76,222.44L171.5,268.36L172.23,231.91L172.97,218.6L173.7,233.36L174.44,232.99L175.17,239.18L175.9,234.62L176.64,243.8L177.37,269.54L178.11,225.95L178.84,226.67L179.58,245.91L180.31,241.24L181.05,243.22L181.78,248.17L182.52,243.89L183.25,269.8L183.99,215.13L184.72,234.62L185.46,238.69L186.19,228.79L186.93,243.33L187.66,246.34L188.4,243.67L189.13,267.17L189.87,233.73L190.6,241.07L191.34,237.03L192.07,242.44L192.81,248.7L193.54,221.49L194.27,236.22L195.01,259.66L195.74,234.8L196.48,233.16L197.21,225.53L197.95,242.22L198.68,236.38L199.42,235.33L200.15,234.04L200.89,259.78L201.62,215.08L202.36,238.96L203.09,220.98L203.83,238.75L204.56,236.91L205.3,238.83L206.03,238.58L206.77,270.38L207.5,227.2L208.24,233.73L208.97,244.46L209.71,240.29L210.44,229.49L211.18,244.55L211.91,267.51L212.65,228.29L213.38,229.41L214.11,250.2L214.85,248.18L215.58,229.69L216.32,245.8L217.05,250.22L217.79,269.76L218.52,252.36L219.26,248.61L219.99,250.38L220.73,228.3L221.46,246.54L222.2,247.56L222.93,224.14L223.67,261.82L224.4,237.41L225.14,244.03L225.87,248.79L226.61,246.49L227.34,219.91L228.08,248.31L228.81,222.74L229.55,242.9L230.28,271.56L231.02,227.99L231.75,217.19L232.49,240.41L233.22,246.96L233.95,245.06L234.69,224.41L235.42,229.3L236.16,276.43L236.89,245.52L237.63,245.32L238.36,233.08L239.1,226.73L239.83,238.02L240.57,245.18L241.3,242.85L242.04,272.19L242.77,253.15L243.51,247.08L244.24,248.66L244.98,234.37L245.71,245.95L246.45,223.26L247.18,239.54L247.92,269.39L248.65,244.75L249.39,241.99L250.12,237.83L250.86,233.79L251.59,242.51L252.32,238.63L253.06,247.48L253.79,235.61L254.53,263.61L255.26,239.92L256,245.24L256.73,252.79L257.47,236.33L258.2,243.24L258.94,243.44L259.67,243.25L260.41,259.08L261.14,228.9L261.88,245.87L262.61,244.24L263.35,234.82L264.08,244.2L264.82,232.65L265.55,241.94L266.29,248.29L267.02,243.59L267.76,245.88L268.49,243.14L269.23,240.31L269.96,235.3L270.7,237.17L271.43,246.89L272.16,274.87L272.9,242.11L273.63,227.6L274.37,221.76L275.1,236.6L275.84,249.26L276.57,227.53L277.31,228.15L278.04,266.44L278.78,239.26L279.51,246.04L280.25,231.92L280.98,246.64L281.72,245.04L282.45,229.13L283.19,226.62L283.92,242.34L284.66,262.61L285.39,241.03L286.13,241.74L286.86,234.23L287.6,251.16L288.33,243.78L289.07,233.41L289.8,191.13L290.54,261.97L291.27,245.51L292,239.63L292.74,239.22L293.47,234.84L294.21,224.72L294.94,237.52L295.68,233.09L296.41,258.59L297.15,231.4L297.88,248.3L298.62,245.53L299.35,241.73L300.09,228.88L300.82,252.04L301.56,233L302.29,265.84L303.03,230.26L303.76,245.42L304.5,247.39L305.23,216.79L305.97,235.07L306.7,237.11L307.44,246.48L308.17,227.39L308.91,244.73L309.64,243.78L310.37,231.22L311.11,232.16L311.84,226.84L312.58,245.31L313.31,244.81L314.05,251.85L314.78,271.94L315.52,223.37L316.25,231.45L316.99,213.31L317.72,241.58L318.46,225.93L319.19,237.47L319.93,248.58L320.66,278.56L321.4,238.23L322.13,232.48L322.87,248.39L323.6,237.22L324.34,246.67L325.07,219.37L325.81,239.27L326.54,251.99L327.28,246.81L328.01,244.98L328.75,247.69L329.48,224.6L330.21,237.8L330.95,231.85L331.68,238.42L332.42,240.38L333.15,242.99L333.89,227.49L334.62,226.23L335.36,233.66L336.09,246.48L336.83,246.74L337.56,243.67L338.3,249.89L339.03,269.15L339.77,237.07L340.5,252.64L341.24,234.13L341.97,244.33L342.71,243.38L343.44,247.29L344.18,248.1L344.91,255.29L345.65,243.41L346.38,244.53L347.12,236.13L347.85,225.02L348.59,239.76L349.32,243.14L350.05,227.68L350.79,262.27L351.52,228.3L352.26,246.75L352.99,245.8L353.73,247.79L354.46,230.85L355.2,237.74L355.93,232.54L356.67,220.5L357.4,266.48L358.14,230.51L358.87,231.14L359.61,240.18L360.34,235.82L361.08,244.78L361.81,242.27L362.55,232.4L363.28,251.06L364.02,247.89L364.75,247.14L365.49,236.67L366.22,244.43L366.96,213.84L367.69,238.44L368.42,245.97L369.16,275.18L369.89,247.11L370.63,229.22L371.36,230.1L372.1,247.78L372.83,244.44L373.57,247.16L374.3,235.26L375.04,255.39L375.77,246.35L376.51,245.32L377.24,230.67L377.98,248.9L378.71,250.19L379.45,245.28L380.18,231.67L380.92,235.62L381.65,263.31L382.39,230.1L383.12,241.8L383.86,236.07L384.59,239.64L385.33,226.59L386.06,236.21L386.8,238.83L387.53,263.4L388.26,240.34L389,224.84L389.73,225.18L390.47,241.06L391.2,243.48L391.94,249.84L392.67,244.06L393.41,267.57L394.14,245.02L394.88,249.95L395.61,225.99L396.35,229.42L397.08,237.67L397.82,252.3L398.55,248.14L399.29,243.55L400.02,271.57L400.76,242.65L401.31,230.54" style="fill:none;stroke:#F15A60" />
<path d="M405.2,277.58L425.2,277.58" style="fill:none;stroke:#F15A60" />
<text x="168.95" y="-271.91" transform="scale(1, -1)"
	style="font-family:Times;font-weight:normal;font-style:normal;font-size:12px">batch-100kb-ctable-64mb-wb-512mb-cache-1gb</text>
</g>
</svg>
