<?xml version="1.0"?>
<!-- Generated by SVGo and Plotinum VG -->
<svg width="425.2pt" height="283.46pt" viewBox="0 0 425.2 283.46"
	xmlns="http://www.w3.org/2000/svg"
	xmlns:xlink="http://www.w3.org/1999/xlink">
<g transform="scale(1, -1) translate(0, -283.46)">
<path d="M0,0L425.2,0L425.2,283.46L0,283.46Z" style="fill:#FFFFFF" />
<text x="209.73" y="-3.8613" transform="scale(1, -1)"
	style="font-family:Times;font-weight:normal;font-style:normal;font-size:12px">database size</text>
<text x="65.244" y="-15.602" transform="scale(1, -1)"
	style="font-family:Times;font-weight:normal;font-style:normal;font-size:10px">4.00 mb</text>
<text x="140.51" y="-15.602" transform="scale(1, -1)"
	style="font-family:Times;font-weight:normal;font-style:normal;font-size:10px">260.00 mb</text>
<text x="220.77" y="-15.602" transform="scale(1, -1)"
	style="font-family:Times;font-weight:normal;font-style:normal;font-size:10px">516.00 mb</text>
<text x="301.03" y="-15.602" transform="scale(1, -1)"
	style="font-family:Times;font-weight:normal;font-style:normal;font-size:10px">772.00 mb</text>
<text x="377.42" y="-15.602" transform="scale(1, -1)"
	style="font-family:Times;font-weight:normal;font-style:normal;font-size:10px">1023.63 mb</text>
<path d="M81.634,25.23L81.634,33.23" style="fill:none;stroke:#000000;stroke-width:0.5" />
<path d="M161.89,25.23L161.89,33.23" style="fill:none;stroke:#000000;stroke-width:0.5" />
<path d="M242.16,25.23L242.16,33.23" style="fill:none;stroke:#000000;stroke-width:0.5" />
<path d="M322.42,25.23L322.42,33.23" style="fill:none;stroke:#000000;stroke-width:0.5" />
<path d="M401.31,25.23L401.31,33.23" style="fill:none;stroke:#000000;stroke-width:0.5" />
<path d="M81.114,33.23L401.31,33.23" style="fill:none;stroke:#000000;stroke-width:0.5" />
<g transform="rotate(90)">
<text x="144.86" y="11.555" transform="scale(1, -1)"
	style="font-family:Times;font-weight:normal;font-style:normal;font-size:12px">speed</text>
</g>
<text x="15.416" y="-85.512" transform="scale(1, -1)"
	style="font-family:Times;font-weight:normal;font-style:normal;font-size:10px">256.00 mb/s</text>
<text x="15.416" y="-167.66" transform="scale(1, -1)"
	style="font-family:Times;font-weight:normal;font-style:normal;font-size:10px">288.00 mb/s</text>
<text x="15.416" y="-249.81" transform="scale(1, -1)"
	style="font-family:Times;font-weight:normal;font-style:normal;font-size:10px">320.00 mb/s</text>
<text x="15.416" y="-273.84" transform="scale(1, -1)"
	style="font-family:Times;font-weight:normal;font-style:normal;font-size:10px">329.36 mb/s</text>
<path d="M67.364,90.233L75.364,90.233" style="fill:none;stroke:#000000;stroke-width:0.5" />
<path d="M67.364,172.38L75.364,172.38" style="fill:none;stroke:#000000;stroke-width:0.5" />
<path d="M67.364,254.53L75.364,254.53" style="fill:none;stroke:#000000;stroke-width:0.5" />
<path d="M67.364,278.56L75.364,278.56" style="fill:none;stroke:#000000;stroke-width:0.5" />
<path d="M75.364,38.48L75.364,278.56" style="fill:none;stroke:#000000;stroke-width:0.5" />
<path d="M81.114,38.48L81.849,232.79L82.584,243.81L83.319,247.12L84.053,270.81L84.788,229.13L85.523,249.54L86.258,224.09L86.993,239L87.728,247.11L88.462,249.08L89.197,243.17L89.932,236.62L90.667,254.42L91.402,254.78L92.136,240.21L92.871,242.77L93.606,253.88L94.341,232.23L95.076,244.21L95.81,245.39L96.545,230.66L97.28,266.76L98.015,235.36L98.75,233.42L99.485,212.55L100.22,242.59L100.95,249.89L101.69,230.87L102.42,229.3L103.16,224.67L103.89,273.67L104.63,249.92L105.36,219.98L106.1,245.89L106.83,236.91L107.57,228.06L108.3,248.68L109.04,236.35L109.77,250.07L110.51,267.96L111.24,231.07L111.98,236.66L112.71,191.92L113.45,243.22L114.18,239.19L114.92,230.44L115.65,238.07L116.39,232.15L117.12,261.65L117.85,253.7L118.59,234.17L119.32,238.73L120.06,243.68L120.79,243.8L121.53,228.15L122.26,253.83L123,215.73L123.73,271.49L124.47,226.68L125.2,237.36L125.94,249.42L126.67,241.93L127.41,247.71L128.14,238.29L128.88,248.87L129.61,254.19L130.35,274.21L131.08,238.11L131.82,248.09L132.55,238.87L133.29,238.18L134.02,227.77L134.76,246.47L135.49,250.68L136.23,255.25L136.96,276.05L137.69,251.42L138.43,231.75L139.16,215.03L139.9,246.65L140.63,251.6L141.37,221.24L142.1,245.46L142.84,248.96L143.57,278.56L144.31,254.65L145.04,248.71L145.78,237.51L146.51,243.37L147.25,248.41L147.98,248.73L148.72,246.38L149.45,246.69L150.19,248.74L150.92,270.99L151.66,250.36L152.39,242.5L153.13,246.61L153.86,231.84L154.6,242.68L155.33,231.93L156.06,229.77L156.8,245.71L157.53,257.72L158.27,223.77L159,231.7L159.74,245.41L160.47,241.87L161.21,246.81L161.94,236.33L162.68,247.43L163.41,248.51L164.15,195.77L164.88,237.27L165.62,239.75L166.35,244.46L167.09,246.29L167.82,242.08L168.56,222.68L169.29,241.23L170.03,244.81L170.76,260.4L171.5,229.79L172.23,246.72L172.97,245.27L173.7,240.74L174.44,248.46L175.17,249.69L175.9,251.28L176.64,252.76L177.37,261.09L178.11,233.32L178.84,224.87L179.58,241.26L180.31,232.58L181.05,212.12L181.78,248.6L182.52,246.99L183.25,240.28L183.99,256.89L184.72,242.06L185.46,242.1L186.19,239.86L186.93,240.04L187.66,245.45L188.4,240.84L189.13,231.13L189.87,226.02L190.6,268.95L191.34,254.92L192.07,239.47L192.81,241.55L193.54,253.73L194.27,237.32L195.01,241.02L195.74,245.2L196.48,231.18L197.21,268.1L197.95,251.76L198.68,248.55L199.42,211.33L200.15,236.24L200.89,234.28L201.62,239.49L202.36,237.95L203.09,238.15L203.83,243.17L204.56,256.34L205.3,237.2L206.03,237.49L206.77,227.35L207.5,222.5L208.24,198.64L208.97,239.02L209.71,236.01L210.44,237.18L211.18,268.63L211.91,237.36L212.65,217.06L213.38,230.83L214.11,233.11L214.85,234.47L215.58,242.3L216.32,217.39L217.05,237.79L217.79,263.66L218.52,237.62L219.26,217.24L219.99,253.44L220.73,238.23L221.46,251.46L222.2,228.24L222.93,246.98L223.67,251.58L224.4,273.87L225.14,230.4L225.87,251.7L226.61,242.18L227.34,244.32L228.08,227.3L228.81,221.6L229.55,228.46L230.28,239.39L231.02,265.9L231.75,232.66L232.49,249.28L233.22,250.51L233.95,228.91L234.69,240.19L235.42,234.64L236.16,249.96L236.89,231.8L237.63,258.21L238.36,247.62L239.1,227.1L239.83,247.99L240.57,256.64L241.3,248.64L242.04,255.06L242.77,234.51L243.51,248L244.24,271.06L244.98,244.75L245.71,248.71L246.45,245.77L247.18,251.24L247.92,209.73L248.65,216.02L249.39,248.31L250.12,242.59L250.86,241.37L251.59,255.78L252.32,239.74L253.06,252.67L253.79,226.14L254.53,219.1L255.26,213.36L256,226.63L256.73,243.1L257.47,239.66L258.2,271.67L258.94,230.59L259.67,226.49L260.41,235.72L261.14,230.86L261.88,250.47L262.61,235.55L263.35,232.94L264.08,244.94L264.82,272.02L265.55,249.25L266.29,249.83L267.02,237.84L267.76,242.32L268.49,247.06L269.23,251.33L269.96,240.37L270.7,249.37L271.43,273.12L272.16,231.97L272.9,251.79L273.63,247.8L274.37,247.89L275.1,240.39L275.84,250.54L276.57,239.26L277.31,248.4L278.04,254.02L278.78,239.05L279.51,242.93L280.25,236.94L280.98,241.66L281.72,236.48L282.45,231.53L283.19,252.59L283.92,230.76L284.66,249.21L285.39,251.16L286.13,242.57L286.86,252.56L287.6,241.72L288.33,245.47L289.07,253.98L289.8,256.67L290.54,246.78L291.27,243.74L292,271.51L292.74,232.03L293.47,246.18L294.21,249.25L294.94,248.22L295.68,232.44L296.41,246.31L297.15,253.12L297.88,239L298.62,265.64L299.35,245.93L300.09,236.74L300.82,253.14L301.56,238.14L302.29,243.15L303.03,218.75L303.76,237.16L304.5,218.91L305.23,266.88L305.97,239.88L306.7,223.62L307.44,245.21L308.17,239.66L308.91,243.7L309.64,254.35L310.37,245.65L311.11,234.85L311.84,268.51L312.58,249.9L313.31,250.43L314.05,251.45L314.78,243.55L315.52,243.83L316.25,242.43L316.99,248.51L317.72,244.98L318.46,266.02L319.19,251.77L319.93,233.07L320.66,250.68L321.4,235.63L322.13,235.47L322.87,224.81L323.6,230.37L324.34,227.59L325.07,242.1L325.81,268.57L326.54,240.01L327.28,226.33L328.01,239.34L328.75,243.32L329.48,241.94L330.21,245.84L330.95,238.8L331.68,243.49L332.42,271.37L333.15,234.7L333.89,251.73L334.62,247.4L335.36,249.88L336.09,247.95L336.83,218.27L337.56,242.46L338.3,238.55L339.03,272.35L339.77,234.98L340.5,239.9L341.24,248.71L341.97,235.65L342.71,249L343.44,249.65L344.18,224.09L344.91,239.3L345.65,270.7L346.38,237.06L347.12,242.48L347.85,253.07L348.59,234.72L349.32,258.47L350.05,256.75L350.79,247.56L351.52,247.19L352.26,273.14L352.99,245.67L353.73,229.73L354.46,226.45L355.2,231.73L355.93,230.24L356.67,227.8L357.4,249.33L358.14,246.92L358.87,273.6L359.61,247.49L360.34,246.77L361.08,226.62L361.81,248.83L362.55,231.25L363.28,240.1L364.02,216.48L364.75,245.39L365.49,275.58L366.22,239.63L366.96,249.36L367.69,251.25L368.42,223.94L369.16,229.71L369.89,246.9L370.63,251.33L371.36,240.92L372.1,252.24L372.83,242.77L373.57,215.41L374.3,241.77L375.04,242.87L375.77,247.14L376.51,222.1L377.24,246.74L377.98,243.24L378.71,239.65L379.45,258.98L380.18,245.45L380.92,187.17L381.65,230.81L382.39,234.79L383.12,242.82L383.86,252.66L384.59,254.61L385.33,239.71L386.06,267.09L386.8,250.9L387.53,240.78L388.26,243.46L389,243.19L389.73,219.17L390.47,253.17L391.2,227.44L391.94,252.58L392.67,262.04L393.41,225.54L394.14,231.17L394.88,236.79L395.61,243.5L396.35,241.15L397.08,226.5L397.82,226.59L398.55,242.51L399.29,276.04L400.02,246.64L400.76,245.98L401.31,237.36" style="fill:none;stroke:#F15A60" />
<path d="M405.2,277.58L425.2,277.58" style="fill:none;stroke:#F15A60" />
<text x="168.95" y="-271.91" transform="scale(1, -1)"
	style="font-family:Times;font-weight:normal;font-style:normal;font-size:12px">batch-100kb-ctable-64mb-wb-512mb-cache-1gb</text>
</g>
</svg>
