<?xml version="1.0"?>
<!-- Generated by SVGo and Plotinum VG -->
<svg width="425.2pt" height="283.46pt" viewBox="0 0 425.2 283.46"
	xmlns="http://www.w3.org/2000/svg"
	xmlns:xlink="http://www.w3.org/1999/xlink">
<g transform="scale(1, -1) translate(0, -283.46)">
<path d="M0,0L425.2,0L425.2,283.46L0,283.46Z" style="fill:#FFFFFF" />
<text x="207.23" y="-3.8613" transform="scale(1, -1)"
	style="font-family:Times;font-weight:normal;font-style:normal;font-size:12px">database size</text>
<text x="60.252" y="-15.602" transform="scale(1, -1)"
	style="font-family:Times;font-weight:normal;font-style:normal;font-size:10px">4.00 mb</text>
<text x="136.77" y="-15.602" transform="scale(1, -1)"
	style="font-family:Times;font-weight:normal;font-style:normal;font-size:10px">260.00 mb</text>
<text x="218.28" y="-15.602" transform="scale(1, -1)"
	style="font-family:Times;font-weight:normal;font-style:normal;font-size:10px">516.00 mb</text>
<text x="299.79" y="-15.602" transform="scale(1, -1)"
	style="font-family:Times;font-weight:normal;font-style:normal;font-size:10px">772.00 mb</text>
<text x="377.42" y="-15.602" transform="scale(1, -1)"
	style="font-family:Times;font-weight:normal;font-style:normal;font-size:10px">1023.63 mb</text>
<path d="M76.642,25.23L76.642,33.23" style="fill:none;stroke:#000000;stroke-width:0.5" />
<path d="M158.16,25.23L158.16,33.23" style="fill:none;stroke:#000000;stroke-width:0.5" />
<path d="M239.67,25.23L239.67,33.23" style="fill:none;stroke:#000000;stroke-width:0.5" />
<path d="M321.18,25.23L321.18,33.23" style="fill:none;stroke:#000000;stroke-width:0.5" />
<path d="M401.31,25.23L401.31,33.23" style="fill:none;stroke:#000000;stroke-width:0.5" />
<path d="M76.114,33.23L401.31,33.23" style="fill:none;stroke:#000000;stroke-width:0.5" />
<g transform="rotate(90)">
<text x="144.86" y="11.555" transform="scale(1, -1)"
	style="font-family:Times;font-weight:normal;font-style:normal;font-size:12px">speed</text>
</g>
<text x="20.416" y="-35.547" transform="scale(1, -1)"
	style="font-family:Times;font-weight:normal;font-style:normal;font-size:10px">2.00 mb/s</text>
<text x="15.416" y="-126.34" transform="scale(1, -1)"
	style="font-family:Times;font-weight:normal;font-style:normal;font-size:10px">34.00 mb/s</text>
<text x="15.416" y="-217.12" transform="scale(1, -1)"
	style="font-family:Times;font-weight:normal;font-style:normal;font-size:10px">66.00 mb/s</text>
<text x="15.416" y="-273.84" transform="scale(1, -1)"
	style="font-family:Times;font-weight:normal;font-style:normal;font-size:10px">85.99 mb/s</text>
<path d="M62.364,40.269L70.364,40.269" style="fill:none;stroke:#000000;stroke-width:0.5" />
<path d="M62.364,131.06L70.364,131.06" style="fill:none;stroke:#000000;stroke-width:0.5" />
<path d="M62.364,221.85L70.364,221.85" style="fill:none;stroke:#000000;stroke-width:0.5" />
<path d="M62.364,278.56L70.364,278.56" style="fill:none;stroke:#000000;stroke-width:0.5" />
<path d="M70.364,38.48L70.364,278.56" style="fill:none;stroke:#000000;stroke-width:0.5" />
<path d="M76.114,247L76.861,242.97L77.607,206.33L78.353,223.26L79.099,249.55L79.846,247.51L80.592,274.11L81.338,177.73L82.085,202.83L82.831,274.96L83.577,262.93L84.323,266.46L85.07,90.624L85.816,195.71L86.562,265.91L87.309,265.08L88.055,71.019L88.801,275.06L89.547,192.87L90.294,227.26L91.04,269.35L91.786,62.158L92.533,192.52L93.279,269.69L94.025,277.07L94.771,270.26L95.518,63.201L96.264,115.06L97.01,262.17L97.757,272.46L98.503,267.05L99.249,63.338L99.995,79.464L100.74,265.4L101.49,248.63L102.23,271.63L102.98,63.633L103.73,66.647L104.47,273L105.22,257.97L105.97,265.36L106.71,62.374L107.46,173.16L108.2,271.78L108.95,263.46L109.7,62.725L110.44,247.47L111.19,107.7L111.94,210.96L112.68,225.68L113.43,63.162L114.17,79.892L114.92,223.41L115.67,268.54L116.41,271.28L117.16,62.95L117.91,65.766L118.65,229.78L119.4,264.81L120.15,65.664L120.89,61.344L121.64,255.73L122.38,61.944L123.13,173.69L123.88,195.39L124.62,266.62L125.37,62.762L126.12,100.29L126.86,246.74L127.61,247.97L128.35,266.79L129.1,61.988L129.85,75.045L130.59,261.39L131.34,64.372L132.09,264.87L132.83,62.361L133.58,60.313L134.32,59.154L135.07,263.33L135.82,249.36L136.56,278.56L137.31,267.68L138.06,62.587L138.8,121.71L139.55,258.15L140.29,261.21L141.04,266.97L141.79,62.506L142.53,84.312L143.28,262.32L144.03,247.33L144.77,227.31L145.52,61.654L146.26,68.349L147.01,246.37L147.76,66.083L148.5,63.072L149.25,271.33L150,62.539L150.74,58.284L151.49,126.89L152.24,65.279L152.98,135.86L153.73,259.94L154.47,266.97L155.22,61.508L155.97,91.297L156.71,269.28L157.46,238.69L158.21,270.81L158.95,62.793L159.7,71.55L160.44,268.8L161.19,64.035L161.94,238.42L162.68,62.841L163.43,63.208L164.18,62.721L164.92,58.06L165.67,57.566L166.41,148.92L167.16,268.59L167.91,200.05L168.65,262.29L169.4,62.581L170.15,90.32L170.89,261.08L171.64,259.96L172.38,255.71L173.13,62.831L173.88,70.843L174.62,261.54L175.37,253.73L176.12,64.177L176.86,63.052L177.61,62.921L178.36,61.774L179.1,63.148L179.85,156.77L180.59,58.609L181.34,151.96L182.09,62.405L182.83,116.63L183.58,209.25L184.33,263.45L185.07,62.92L185.82,82.727L186.56,269.25L187.31,257.81L188.06,243.1L188.8,61.698L189.55,67.984L190.3,262.79L191.04,65.803L191.79,62.858L192.53,216.07L193.28,63.35L194.03,63.21L194.77,61.406L195.52,64.031L196.27,57.789L197.01,134.81L197.76,57.767L198.5,101.37L199.25,199.36L200,261.28L200.74,62.24L201.49,219.67L202.24,72.447L202.98,62.802L203.73,62.347L204.48,62.556L205.22,261.4L205.97,61.905L206.71,63.816L207.46,61.093L208.21,64.6L208.95,57.834L209.7,144.49L210.45,57.204L211.19,146.81L211.94,200.61L212.68,264.31L213.43,62.236L214.18,260.48L214.92,82.523L215.67,270.1L216.42,267.11L217.16,62.285L217.91,67.113L218.65,262.13L219.4,263.16L220.15,66.815L220.89,71.217L221.64,261.46L222.39,61.416L223.13,277.91L223.88,100.1L224.62,261.42L225.37,62.845L226.12,74.978L226.86,260.33L227.61,268.32L228.36,65.916L229.1,63.013L229.85,62.993L230.6,63.045L231.34,253.58L232.09,59.903L232.83,63.836L233.58,59.792L234.33,56.379L235.07,122.75L235.82,258.13L236.57,269.7L237.31,260.82L238.06,61.681L238.8,83.874L239.55,254.94L240.3,255.52L241.04,269.25L241.79,62.674L242.54,68.307L243.28,260.23L244.03,65.528L244.77,278.41L245.52,61.65L246.27,63.13L247.01,63.35L247.76,62.785L248.51,132.94L249.25,65.235L250,64.633L250.74,63.903L251.49,57.444L252.24,48.804L252.98,236.05L253.73,273.41L254.48,269.88L255.22,263.7L255.97,62.404L256.72,84.09L257.46,269.82L258.21,124.6L258.95,62.956L259.7,62.857L260.45,62.451L261.19,62.508L261.94,260.33L262.69,59.521L263.43,66.185L264.18,64.397L264.92,64.088L265.67,63.307L266.42,152.7L267.16,43.051L267.91,260.69L268.66,228.75L269.4,265.2L270.15,260.6L270.89,263.78L271.64,62.674L272.39,63.789L273.13,250.24L273.88,65.656L274.63,207.31L275.37,62.263L276.12,62.807L276.86,63.251L277.61,62.045L278.36,63.054L279.1,141.88L279.85,63.027L280.6,65.213L281.34,64.036L282.09,38.48L282.84,250.17L283.58,258.92L284.33,265.83L285.07,263.08L285.82,72.835L286.57,60.307L287.31,181.22L288.06,267.48L288.81,64.475L289.55,61.693L290.3,62.797L291.04,67.123L291.79,151.13L292.54,149.58L293.28,62.552L294.03,140.78L294.78,260.47L295.52,62.388L296.27,202.14L297.01,128.87L297.76,133.63L298.51,171.4L299.25,254.85L300,62.793L300.75,271.39L301.49,89.991L302.24,104.88L302.98,62.718L303.73,61.975L304.48,62.824L305.22,264.64L305.97,59.841L306.72,64.6L307.46,64.31L308.21,63.986L308.95,57.864L309.7,132.45L310.45,50.073L311.19,272.25L311.94,265.44L312.69,263.44L313.43,246.42L314.18,63.619L314.93,65.983L315.67,200.64L316.42,66.109L317.16,62.997L317.91,256.66L318.66,62.068L319.4,63.496L320.15,61.741L320.9,63.604L321.64,64.508L322.39,152.48L323.13,64.31L323.88,63.992L324.63,41.343L325.37,262.25L326.12,252.4L326.87,265.48L327.61,271.02L328.36,76.303L329.1,60.596L329.85,191.56L330.6,63.564L331.34,207.15L332.09,61.419L332.84,63.37L333.58,63.144L334.33,62.623L335.07,131.95L335.82,64.636L336.57,126.96L337.31,64.013L338.06,116.01L338.81,257.06L339.55,247.37L340.3,62.673L341.05,123.92L341.79,119.04L342.54,190.57L343.28,254.27L344.03,271.41L344.78,62.757L345.52,90.807L346.27,102.66L347.02,62.676L347.76,62.757L348.51,268.4L349.25,63.026L350,60.795L350.75,63.974L351.49,62.999L352.24,58.588L352.99,132.57L353.73,61.527L354.48,71.95L355.22,263.84L355.97,65.527L356.72,261.97L357.46,61.93L358.21,61.491L358.96,58.055L359.7,123.03L360.45,72.415L361.19,248.56L361.94,261.59L362.69,65.888L363.43,62.07L364.18,63.332L364.93,61.875L365.67,131.8L366.42,65.546L367.17,64.147L367.91,63.595L368.66,63.681L369.4,41.063L370.15,197.87L370.9,253.84L371.64,65.88L372.39,63.193L373.14,62.825L373.88,62.677L374.63,276.97L375.37,63.456L376.12,63.58L376.87,60.288L377.61,63.574L378.36,147.57L379.11,63.386L379.85,63.252L380.6,66.121L381.34,46.948L382.09,63.079L382.84,253.02L383.58,63.07L384.33,61.845L385.08,63.743L385.82,63.186L386.57,63.373L387.31,263.77L388.06,64.728L388.81,64.287L389.55,87.86L390.3,63.119L391.05,62.898L391.79,262.65L392.54,63.344L393.29,61.128L394.03,57.696L394.78,200.79L395.52,73.44L396.27,206.69L397.02,255.18L397.76,66.077L398.51,63.313L399.26,63.18L400,237.58L400.75,60.406L401.31,58.1" style="fill:none;stroke:#F15A60" />
<path d="M405.2,277.58L425.2,277.58" style="fill:none;stroke:#F15A60" />
<text x="240.25" y="-271.91" transform="scale(1, -1)"
	style="font-family:Times;font-weight:normal;font-style:normal;font-size:12px">batch-100kb-ctable-64mb-nosync</text>
</g>
</svg>
