<?xml version="1.0"?>
<!-- Generated by SVGo and Plotinum VG -->
<svg width="425.2pt" height="283.46pt" viewBox="0 0 425.2 283.46"
	xmlns="http://www.w3.org/2000/svg"
	xmlns:xlink="http://www.w3.org/1999/xlink">
<g transform="scale(1, -1) translate(0, -283.46)">
<path d="M0,0L425.2,0L425.2,283.46L0,283.46Z" style="fill:#FFFFFF" />
<text x="209.73" y="-3.8613" transform="scale(1, -1)"
	style="font-family:Times;font-weight:normal;font-style:normal;font-size:12px">database size</text>
<text x="65.668" y="-15.602" transform="scale(1, -1)"
	style="font-family:Times;font-weight:normal;font-style:normal;font-size:10px">8.00 mb</text>
<text x="141.11" y="-15.602" transform="scale(1, -1)"
	style="font-family:Times;font-weight:normal;font-style:normal;font-size:10px">264.00 mb</text>
<text x="221.55" y="-15.602" transform="scale(1, -1)"
	style="font-family:Times;font-weight:normal;font-style:normal;font-size:10px">520.00 mb</text>
<text x="301.99" y="-15.602" transform="scale(1, -1)"
	style="font-family:Times;font-weight:normal;font-style:normal;font-size:10px">776.00 mb</text>
<text x="377.42" y="-15.602" transform="scale(1, -1)"
	style="font-family:Times;font-weight:normal;font-style:normal;font-size:10px">1024.00 mb</text>
<path d="M82.057,25.23L82.057,33.23" style="fill:none;stroke:#000000;stroke-width:0.5" />
<path d="M162.5,25.23L162.5,33.23" style="fill:none;stroke:#000000;stroke-width:0.5" />
<path d="M242.94,25.23L242.94,33.23" style="fill:none;stroke:#000000;stroke-width:0.5" />
<path d="M323.38,25.23L323.38,33.23" style="fill:none;stroke:#000000;stroke-width:0.5" />
<path d="M401.31,25.23L401.31,33.23" style="fill:none;stroke:#000000;stroke-width:0.5" />
<path d="M81.114,33.23L401.31,33.23" style="fill:none;stroke:#000000;stroke-width:0.5" />
<g transform="rotate(90)">
<text x="144.86" y="11.555" transform="scale(1, -1)"
	style="font-family:Times;font-weight:normal;font-style:normal;font-size:12px">speed</text>
</g>
<text x="15.416" y="-273.84" transform="scale(1, -1)"
	style="font-family:Times;font-weight:normal;font-style:normal;font-size:10px">236.95 mb/s</text>
<path d="M67.364,278.56L75.364,278.56" style="fill:none;stroke:#000000;stroke-width:0.5" />
<path d="M75.364,38.48L75.364,278.56" style="fill:none;stroke:#000000;stroke-width:0.5" />
<path d="M81.114,38.48L82.685,169.09L84.257,208.17L85.828,262.51L87.399,246.66L88.97,261.42L90.541,262.83L92.112,261.84L93.683,258.8L95.254,240.94L96.825,255.68L98.397,267.44L99.968,264.36L101.54,266.27L103.11,268.39L104.68,260.88L106.25,256.39L107.82,271.9L109.39,278.56L110.97,275.2L112.54,270.16L114.11,271.61L115.68,252.67L117.25,256.53L118.82,273.58L120.39,248.13L121.96,235.37L123.53,257.34L125.11,256.58L126.68,244.69L128.25,241.87L129.82,252.62L131.39,243.09L132.96,253.91L134.53,249.34L136.1,246.97L137.67,253.2L139.25,261.77L140.82,246.8L142.39,257.59L143.96,252.52L145.53,255.88L147.1,242.24L148.67,252.86L150.24,245.95L151.81,259.34L153.39,259.78L154.96,253.04L156.53,251.61L158.1,256.47L159.67,254.91L161.24,237.9L162.81,248.07L164.38,261.58L165.95,225.43L167.53,133.06L169.1,250.41L170.67,268.35L172.24,242.68L173.81,260L175.38,237.53L176.95,259.15L178.52,259.1L180.09,259.35L181.67,263.2L183.24,266.16L184.81,269.8L186.38,269.29L187.95,263.27L189.52,251.48L191.09,261.43L192.66,261.53L194.24,267.77L195.81,262.28L197.38,259.46L198.95,261.54L200.52,262.13L202.09,260.62L203.66,259.3L205.23,251.01L206.8,251.61L208.38,236.33L209.95,254.99L211.52,249.59L213.09,260.43L214.66,260.51L216.23,266.16L217.8,263.5L219.37,263.34L220.94,272.22L222.52,261.27L224.09,266.93L225.66,253L227.23,259.58L228.8,253.73L230.37,267.05L231.94,270.72L233.51,263.49L235.08,253.61L236.66,271.37L238.23,250.74L239.8,261.09L241.37,258.92L242.94,256.56L244.51,268.12L246.08,264.15L247.65,238.84L249.22,257.74L250.8,273.81L252.37,259.28L253.94,276.18L255.51,272.36L257.08,242.16L258.65,268.28L260.22,274.05L261.79,256.74L263.36,266.1L264.94,249.92L266.51,244.49L268.08,268.9L269.65,273.58L271.22,267.13L272.79,268.98L274.36,267.92L275.93,259.57L277.5,249.58L279.08,265.05L280.65,253.22L282.22,256.09L283.79,255.18L285.36,231.4L286.93,254.59L288.5,260.29L290.07,244.62L291.64,244.91L293.22,255.02L294.79,268.6L296.36,264.55L297.93,268.61L299.5,276.62L301.07,267.66L302.64,267.55L304.21,259.13L305.78,258.78L307.36,266.73L308.93,272.16L310.5,263.09L312.07,249.94L313.64,256.52L315.21,259.13L316.78,239.19L318.35,259.3L319.92,253.68L321.5,268.22L323.07,267.73L324.64,274.72L326.21,245.53L327.78,276.26L329.35,273.58L330.92,251.43L332.49,233.98L334.06,256.26L335.64,254.12L337.21,259.45L338.78,266.99L340.35,272.44L341.92,256.69L343.49,243.5L345.06,271.54L346.63,265.56L348.2,254.24L349.78,259.84L351.35,260.27L352.92,252.47L354.49,259.57L356.06,264.01L357.63,258.75L359.2,258.9L360.77,240.66L362.35,244.47L363.92,266.4L365.49,271.92L367.06,268.22L368.63,268.86L370.2,259.2L371.77,271.15L373.34,259.31L374.91,269.7L376.49,275.85L378.06,266.75L379.63,270.73L381.2,271.14L382.77,248.19L384.34,251.46L385.91,251.38L387.48,260.44L389.05,245.36L390.63,255.33L392.2,260.99L393.77,267.88L395.34,257.76L396.91,271.09L398.48,268.31L400.05,265.35L401.31,250.68" style="fill:none;stroke:#F15A60" />
<path d="M405.2,277.58L425.2,277.58" style="fill:none;stroke:#F15A60" />
<text x="350.88" y="-271.91" transform="scale(1, -1)"
	style="font-family:Times;font-weight:normal;font-style:normal;font-size:12px">batch-5mb</text>
</g>
</svg>
