<?xml version="1.0"?>
<!-- Generated by SVGo and Plotinum VG -->
<svg width="425.2pt" height="283.46pt" viewBox="0 0 425.2 283.46"
	xmlns="http://www.w3.org/2000/svg"
	xmlns:xlink="http://www.w3.org/1999/xlink">
<g transform="scale(1, -1) translate(0, -283.46)">
<path d="M0,0L425.2,0L425.2,283.46L0,283.46Z" style="fill:#FFFFFF" />
<text x="209.73" y="-3.8613" transform="scale(1, -1)"
	style="font-family:Times;font-weight:normal;font-style:normal;font-size:12px">database size</text>
<text x="65.352" y="-15.602" transform="scale(1, -1)"
	style="font-family:Times;font-weight:normal;font-style:normal;font-size:10px">4.00 mb</text>
<text x="140.56" y="-15.602" transform="scale(1, -1)"
	style="font-family:Times;font-weight:normal;font-style:normal;font-size:10px">260.00 mb</text>
<text x="220.76" y="-15.602" transform="scale(1, -1)"
	style="font-family:Times;font-weight:normal;font-style:normal;font-size:10px">516.00 mb</text>
<text x="300.97" y="-15.602" transform="scale(1, -1)"
	style="font-family:Times;font-weight:normal;font-style:normal;font-size:10px">772.00 mb</text>
<text x="377.42" y="-15.602" transform="scale(1, -1)"
	style="font-family:Times;font-weight:normal;font-style:normal;font-size:10px">1024.00 mb</text>
<path d="M81.741,25.23L81.741,33.23" style="fill:none;stroke:#000000;stroke-width:0.5" />
<path d="M161.95,25.23L161.95,33.23" style="fill:none;stroke:#000000;stroke-width:0.5" />
<path d="M242.15,25.23L242.15,33.23" style="fill:none;stroke:#000000;stroke-width:0.5" />
<path d="M322.36,25.23L322.36,33.23" style="fill:none;stroke:#000000;stroke-width:0.5" />
<path d="M401.31,25.23L401.31,33.23" style="fill:none;stroke:#000000;stroke-width:0.5" />
<path d="M81.114,33.23L401.31,33.23" style="fill:none;stroke:#000000;stroke-width:0.5" />
<g transform="rotate(90)">
<text x="144.86" y="11.555" transform="scale(1, -1)"
	style="font-family:Times;font-weight:normal;font-style:normal;font-size:12px">speed</text>
</g>
<text x="15.416" y="-273.84" transform="scale(1, -1)"
	style="font-family:Times;font-weight:normal;font-style:normal;font-size:10px">253.38 mb/s</text>
<path d="M67.364,278.56L75.364,278.56" style="fill:none;stroke:#000000;stroke-width:0.5" />
<path d="M75.364,38.48L75.364,278.56" style="fill:none;stroke:#000000;stroke-width:0.5" />
<path d="M81.114,38.48L81.741,163.43L82.367,244.35L82.994,237.07L83.621,251.81L84.247,248.71L84.874,256.54L85.501,248.68L86.127,255.17L86.754,246.84L87.38,251.31L88.007,252.42L88.634,246.2L89.26,259.47L89.887,268.33L90.513,255.52L91.14,258.15L91.767,246.48L92.393,250.79L93.02,237.41L93.647,253.19L94.273,268.31L94.9,232.31L95.526,260.69L96.153,256.22L96.78,255.57L97.406,207.31L98.033,231.01L98.66,265.61L99.286,269.63L99.913,276.85L100.54,259.43L101.17,253.65L101.79,257L102.42,256.51L103.05,251.79L103.67,261.49L104.3,259.77L104.93,193.87L105.55,184.73L106.18,244.5L106.81,248.05L107.43,248.17L108.06,257.32L108.69,244.19L109.31,267.31L109.94,254.32L110.57,247.1L111.19,215.92L111.82,254.43L112.45,260.23L113.07,254L113.7,257.63L114.32,257.16L114.95,248.38L115.58,250.95L116.2,250.83L116.83,257.67L117.46,253.94L118.08,247.74L118.71,263.15L119.34,268.97L119.96,219.22L120.59,213.35L121.22,219.86L121.84,215.7L122.47,212.67L123.1,202.51L123.72,208.49L124.35,197.82L124.98,225.72L125.6,253.66L126.23,256.86L126.86,259.09L127.48,253.16L128.11,254.61L128.74,275.66L129.36,259.57L129.99,264.79L130.62,261.87L131.24,276.79L131.87,267.8L132.5,264.01L133.12,253.95L133.75,272.55L134.38,262.81L135,256.06L135.63,257.87L136.26,274.03L136.88,256.47L137.51,250.84L138.14,259.4L138.76,260.71L139.39,226.03L140.02,261.86L140.64,245.84L141.27,267.68L141.9,232.58L142.52,246.49L143.15,258.29L143.78,257.48L144.4,263.34L145.03,264.13L145.66,250.52L146.28,235.81L146.91,203.31L147.54,237.7L148.16,252.88L148.79,253.8L149.42,242.38L150.04,252.39L150.67,242.38L151.3,246.49L151.92,227.73L152.55,236.09L153.18,247.9L153.8,247.11L154.43,245.85L155.05,240.43L155.68,261.18L156.31,238.64L156.93,240.43L157.56,246.21L158.19,252.53L158.81,253.01L159.44,263.21L160.07,255.38L160.69,258.45L161.32,253.65L161.95,226.89L162.57,257.32L163.2,248.93L163.83,261.55L164.45,262.34L165.08,252.55L165.71,266.49L166.33,252.71L166.96,257.78L167.59,270L168.21,246.37L168.84,248.79L169.47,254.76L170.09,260.05L170.72,256.04L171.35,245.71L171.97,268.49L172.6,270.98L173.23,260.74L173.85,244.92L174.48,268.48L175.11,250.37L175.73,259.9L176.36,268.49L176.99,237.87L177.61,228.29L178.24,262.68L178.87,261.84L179.49,264.65L180.12,261.36L180.75,258.15L181.37,273.87L182,268.63L182.63,257.67L183.25,273.18L183.88,275.11L184.51,261.54L185.13,259.74L185.76,245.09L186.39,277.17L187.01,261.48L187.64,259.44L188.27,251.15L188.89,254.45L189.52,260.87L190.15,258.47L190.77,246.15L191.4,261.38L192.03,264.32L192.65,270.82L193.28,253.01L193.91,262.93L194.53,265.09L195.16,264.8L195.78,268.61L196.41,257.67L197.04,255.56L197.66,269.63L198.29,254.78L198.92,267.62L199.54,256.35L200.17,271.01L200.8,251.78L201.42,259.59L202.05,261.41L202.68,240.68L203.3,257.78L203.93,273.57L204.56,255.86L205.18,241.62L205.81,245.9L206.44,263.14L207.06,256.87L207.69,256.66L208.32,258.45L208.94,263.82L209.57,250.36L210.2,249.42L210.82,270.33L211.45,269.13L212.08,258.62L212.7,253.21L213.33,261.52L213.96,258.26L214.58,256.79L215.21,252.92L215.84,235.98L216.46,269.83L217.09,236.67L217.72,257.04L218.34,258.44L218.97,258.27L219.6,241.17L220.22,266.12L220.85,255.44L221.48,246.84L222.1,267.13L222.73,252.49L223.36,271.02L223.98,271.15L224.61,272.02L225.24,278.56L225.86,261.37L226.49,253L227.12,256.22L227.74,218.41L228.37,213.46L229,214.31L229.62,223.24L230.25,214.39L230.88,227.7L231.5,219.35L232.13,229.87L232.76,222.67L233.38,217.39L234.01,228.01L234.64,207.15L235.26,215.92L235.89,223.19L236.52,223.34L237.14,222.93L237.77,216.33L238.39,222.51L239.02,218.09L239.65,226.87L240.27,217.02L240.9,222.93L241.53,226.56L242.15,240.89L242.78,227.14L243.41,229.29L244.03,222.09L244.66,211.08L245.29,213.92L245.91,224.76L246.54,224.71L247.17,255.09L247.79,252.42L248.42,232.86L249.05,273.74L249.67,255.87L250.3,265.8L250.93,258.16L251.55,270.49L252.18,263.15L252.81,249.54L253.43,244.23L254.06,258.57L254.69,262.04L255.31,262.52L255.94,263.15L256.57,259.09L257.19,252.55L257.82,239.11L258.45,250.17L259.07,266.62L259.7,277.17L260.33,180.34L260.95,253.78L261.58,256.83L262.21,255.08L262.83,254.62L263.46,255.24L264.09,256.84L264.71,245.59L265.34,247.45L265.97,258.52L266.59,262.23L267.22,262.64L267.85,251.94L268.47,267.94L269.1,247.45L269.73,253.01L270.35,261.22L270.98,257.33L271.61,262.16L272.23,266.46L272.86,258.76L273.49,255.75L274.11,253.96L274.74,261.36L275.37,257.65L275.99,253.5L276.62,245.88L277.25,231.74L277.87,259.1L278.5,240.25L279.12,259.45L279.75,237.56L280.38,196.35L281,237.86L281.63,239.99L282.26,247.1L282.88,251.52L283.51,215.73L284.14,205.86L284.76,242.37L285.39,263.84L286.02,221.54L286.64,263.01L287.27,272.85L287.9,256.65L288.52,255.93L289.15,250.02L289.78,244.79L290.4,258.62L291.03,265.63L291.66,228.32L292.28,250.01L292.91,236.7L293.54,257L294.16,255.27L294.79,256.71L295.42,259.24L296.04,258.14L296.67,258.45L297.3,261.18L297.92,265.13L298.55,252.59L299.18,255.2L299.8,243.02L300.43,258.29L301.06,247.67L301.68,250.54L302.31,252.89L302.94,255.69L303.56,263.68L304.19,261.88L304.82,259.71L305.44,251.11L306.07,263.04L306.7,255.39L307.32,268.18L307.95,256.52L308.58,273.18L309.2,244.79L309.83,262.06L310.46,251.43L311.08,237.9L311.71,255.57L312.34,245.55L312.96,251.51L313.59,257.45L314.22,251.59L314.84,253.67L315.47,259.4L316.1,261.86L316.72,238.48L317.35,248.22L317.98,251.75L318.6,262.17L319.23,277.87L319.85,256.82L320.48,214.7L321.11,208.2L321.73,213.77L322.36,217.84L322.99,223.2L323.61,200.37L324.24,264.94L324.87,260.75L325.49,266.1L326.12,261.56L326.75,272.87L327.37,258.74L328,255.56L328.63,255.57L329.25,259.11L329.88,247.57L330.51,233.62L331.13,229.71L331.76,240.27L332.39,207.86L333.01,199.27L333.64,216.22L334.27,244.32L334.89,256.37L335.52,248.79L336.15,251.76L336.77,250.22L337.4,254.16L338.03,267.61L338.65,249.61L339.28,261.53L339.91,198.45L340.53,203.05L341.16,249.54L341.79,249.44L342.41,263.5L343.04,263.39L343.67,251.89L344.29,253.63L344.92,260.72L345.55,263L346.17,269.84L346.8,254.25L347.43,252.44L348.05,256.81L348.68,255.1L349.31,249.4L349.93,256.89L350.56,268.3L351.19,262.35L351.81,268.79L352.44,274.21L353.07,268.8L353.69,256.72L354.32,206.02L354.95,245.97L355.57,260.08L356.2,257.49L356.83,261L357.45,253.53L358.08,256.7L358.71,246.47L359.33,250.96L359.96,252.75L360.58,256.33L361.21,253.5L361.84,211.5L362.46,244.06L363.09,250.65L363.72,256.52L364.34,257.79L364.97,256.86L365.6,255.4L366.22,262.92L366.85,231.95L367.48,260.52L368.1,254.96L368.73,253.32L369.36,251.47L369.98,256.21L370.61,266.79L371.24,269.97L371.86,244.34L372.49,258.63L373.12,274.23L373.74,257.66L374.37,266.09L375,238.2L375.62,249.11L376.25,265.32L376.88,267.63L377.5,254.12L378.13,217.3L378.76,184.72L379.38,167.66L380.01,244.51L380.64,243.11L381.26,257.67L381.89,269.81L382.52,243.72L383.14,248.81L383.77,243.57L384.4,262.53L385.02,253.96L385.65,258.45L386.28,249.59L386.9,261.69L387.53,255.42L388.16,265.65L388.78,258.09L389.41,207.69L390.04,255.56L390.66,257.49L391.29,259.61L391.92,268.8L392.54,264.13L393.17,266.99L393.8,269.46L394.42,273.74L395.05,241L395.68,247.73L396.3,259.44L396.93,262.64L397.56,258.45L398.18,222.09L398.81,251.77L399.44,251.78L400.06,259.89L400.69,228.57L401.31,255.49" style="fill:none;stroke:#F15A60" />
<path d="M405.2,277.58L425.2,277.58" style="fill:none;stroke:#F15A60" />
<text x="350.88" y="-271.91" transform="scale(1, -1)"
	style="font-family:Times;font-weight:normal;font-style:normal;font-size:12px">batch-1mb</text>
</g>
</svg>
