<?xml version="1.0"?>
<!-- Generated by SVGo and Plotinum VG -->
<svg width="425.2pt" height="283.46pt" viewBox="0 0 425.2 283.46"
	xmlns="http://www.w3.org/2000/svg"
	xmlns:xlink="http://www.w3.org/1999/xlink">
<g transform="scale(1, -1) translate(0, -283.46)">
<path d="M0,0L425.2,0L425.2,283.46L0,283.46Z" style="fill:#FFFFFF" />
<text x="209.73" y="-3.8613" transform="scale(1, -1)"
	style="font-family:Times;font-weight:normal;font-style:normal;font-size:12px">database size</text>
<text x="65.244" y="-15.602" transform="scale(1, -1)"
	style="font-family:Times;font-weight:normal;font-style:normal;font-size:10px">4.00 mb</text>
<text x="140.51" y="-15.602" transform="scale(1, -1)"
	style="font-family:Times;font-weight:normal;font-style:normal;font-size:10px">260.00 mb</text>
<text x="220.77" y="-15.602" transform="scale(1, -1)"
	style="font-family:Times;font-weight:normal;font-style:normal;font-size:10px">516.00 mb</text>
<text x="301.03" y="-15.602" transform="scale(1, -1)"
	style="font-family:Times;font-weight:normal;font-style:normal;font-size:10px">772.00 mb</text>
<text x="377.42" y="-15.602" transform="scale(1, -1)"
	style="font-family:Times;font-weight:normal;font-style:normal;font-size:10px">1023.63 mb</text>
<path d="M81.634,25.23L81.634,33.23" style="fill:none;stroke:#000000;stroke-width:0.5" />
<path d="M161.89,25.23L161.89,33.23" style="fill:none;stroke:#000000;stroke-width:0.5" />
<path d="M242.16,25.23L242.16,33.23" style="fill:none;stroke:#000000;stroke-width:0.5" />
<path d="M322.42,25.23L322.42,33.23" style="fill:none;stroke:#000000;stroke-width:0.5" />
<path d="M401.31,25.23L401.31,33.23" style="fill:none;stroke:#000000;stroke-width:0.5" />
<path d="M81.114,33.23L401.31,33.23" style="fill:none;stroke:#000000;stroke-width:0.5" />
<g transform="rotate(90)">
<text x="144.86" y="11.555" transform="scale(1, -1)"
	style="font-family:Times;font-weight:normal;font-style:normal;font-size:12px">speed</text>
</g>
<text x="15.416" y="-92.348" transform="scale(1, -1)"
	style="font-family:Times;font-weight:normal;font-style:normal;font-size:10px">256.00 mb/s</text>
<text x="15.416" y="-170.67" transform="scale(1, -1)"
	style="font-family:Times;font-weight:normal;font-style:normal;font-size:10px">288.00 mb/s</text>
<text x="15.416" y="-248.99" transform="scale(1, -1)"
	style="font-family:Times;font-weight:normal;font-style:normal;font-size:10px">320.00 mb/s</text>
<text x="15.416" y="-273.84" transform="scale(1, -1)"
	style="font-family:Times;font-weight:normal;font-style:normal;font-size:10px">330.15 mb/s</text>
<path d="M67.364,97.07L75.364,97.07" style="fill:none;stroke:#000000;stroke-width:0.5" />
<path d="M67.364,175.39L75.364,175.39" style="fill:none;stroke:#000000;stroke-width:0.5" />
<path d="M67.364,253.71L75.364,253.71" style="fill:none;stroke:#000000;stroke-width:0.5" />
<path d="M67.364,278.56L75.364,278.56" style="fill:none;stroke:#000000;stroke-width:0.5" />
<path d="M75.364,38.48L75.364,278.56" style="fill:none;stroke:#000000;stroke-width:0.5" />
<path d="M81.114,38.48L81.849,222.75L82.584,242.37L83.319,266.22L84.053,247.09L84.788,249.75L85.523,213.14L86.258,238.43L86.993,215.9L87.728,241.96L88.462,228.23L89.197,235.83L89.932,266.57L90.667,249.03L91.402,251.02L92.136,250.79L92.871,244.23L93.606,236.49L94.341,232.23L95.076,227.79L95.81,234.34L96.545,262.35L97.28,223.32L98.015,236.55L98.75,234.83L99.485,247.35L100.22,245.34L100.95,243.21L101.69,220.17L102.42,245.96L103.16,262.85L103.89,241.66L104.63,251L105.36,251.44L106.1,253.77L106.83,212.72L107.57,245.05L108.3,239.67L109.04,242.91L109.77,262.64L110.51,244.64L111.24,241.17L111.98,241.46L112.71,242.8L113.45,237.66L114.18,246.62L114.92,231.31L115.65,233.18L116.39,240.36L117.12,251.68L117.85,233.91L118.59,238.69L119.32,240.8L120.06,234.36L120.79,234.16L121.53,237.65L122.26,231.1L123,236.87L123.73,248.33L124.47,248.17L125.2,222.79L125.94,242.48L126.67,251.53L127.41,242.33L128.14,241.67L128.88,236.33L129.61,241.93L130.35,251.36L131.08,244.12L131.82,235.35L132.55,231.74L133.29,229.81L134.02,244.69L134.76,236.94L135.49,214.03L136.23,228.05L136.96,261L137.69,235.72L138.43,229.46L139.16,229.8L139.9,229.34L140.63,229.3L141.37,236L142.1,240.71L142.84,239.28L143.57,271.17L144.31,246.16L145.04,239.42L145.78,230.79L146.51,243.08L147.25,235.94L147.98,248.83L148.72,235.79L149.45,243.17L150.19,262.73L150.92,242.14L151.66,236.88L152.39,238.6L153.13,240.39L153.86,228.33L154.6,225.03L155.33,235.9L156.06,237.35L156.8,248.15L157.53,239.52L158.27,236.51L159,239.17L159.74,238.56L160.47,236.53L161.21,233.52L161.94,235.31L162.68,234.95L163.41,266.86L164.15,239.65L164.88,245.77L165.62,238.01L166.35,237.29L167.09,240.04L167.82,233.66L168.56,246.74L169.29,231.74L170.03,262.24L170.76,241.85L171.5,230.08L172.23,238.85L172.97,242.04L173.7,242.36L174.44,248.42L175.17,234.47L175.9,235.83L176.64,264.19L177.37,234.27L178.11,229.61L178.84,230.96L179.58,249.3L180.31,243.2L181.05,245.2L181.78,242.3L182.52,244.91L183.25,261.65L183.99,236.3L184.72,228.7L185.46,225.31L186.19,223L186.93,238.33L187.66,227.19L188.4,235.03L189.13,244L189.87,270.11L190.6,214.53L191.34,244.14L192.07,247.92L192.81,233.11L193.54,246.32L194.27,228.25L195.01,250.33L195.74,235.77L196.48,271.5L197.21,251L197.95,226.9L198.68,205.62L199.42,246.21L200.15,243.35L200.89,244.43L201.62,243.85L202.36,247.03L203.09,265.69L203.83,222.68L204.56,243.6L205.3,229.36L206.03,233.55L206.77,208.32L207.5,232.2L208.24,236.38L208.97,226.15L209.71,258.32L210.44,222.81L211.18,245.95L211.91,242.85L212.65,234.53L213.38,237.81L214.11,232.64L214.85,245.6L215.58,224.46L216.32,259.77L217.05,242.06L217.79,248.68L218.52,245.82L219.26,236.23L219.99,243.67L220.73,248.35L221.46,223.68L222.2,246.88L222.93,251.4L223.67,241.42L224.4,238.07L225.14,246.54L225.87,242.2L226.61,251.18L227.34,243.79L228.08,246.77L228.81,234.57L229.55,270.83L230.28,248.6L231.02,246.8L231.75,234.26L232.49,228.58L233.22,245.57L233.95,239.7L234.69,249.82L235.42,234.44L236.16,268.56L236.89,249.38L237.63,249.07L238.36,234.34L239.1,247.11L239.83,237L240.57,237.62L241.3,249.81L242.04,252.91L242.77,275.11L243.51,252.24L244.24,254.9L244.98,250.43L245.71,240.65L246.45,247.47L247.18,214.86L247.92,240.93L248.65,248.8L249.39,272.6L250.12,241.06L250.86,236.89L251.59,245.46L252.32,213.65L253.06,234.33L253.79,245.05L254.53,230.11L255.26,235.44L256,260.53L256.73,230.72L257.47,244.38L258.2,217.35L258.94,239.71L259.67,234.01L260.41,216.16L261.14,248.39L261.88,242.71L262.61,267.2L263.35,244.79L264.08,232.07L264.82,245.33L265.55,227.73L266.29,225.83L267.02,220.17L267.76,227.7L268.49,236.19L269.23,256.45L269.96,215.81L270.7,225.12L271.43,243.56L272.16,228.43L272.9,241.15L273.63,243.4L274.37,212.06L275.1,229.52L275.84,250.94L276.57,238.96L277.31,232.39L278.04,222.43L278.78,239.69L279.51,223.64L280.25,228.09L280.98,222.52L281.72,233.36L282.45,263.93L283.19,236.01L283.92,242.88L284.66,228.68L285.39,238.81L286.13,226.32L286.86,238.11L287.6,239.3L288.33,229.23L289.07,266.73L289.8,228.86L290.54,237.14L291.27,236.26L292,233.3L292.74,235.32L293.47,245.76L294.21,233.12L294.94,241.56L295.68,270.09L296.41,222.41L297.15,239.4L297.88,243.67L298.62,235.21L299.35,241.91L300.09,219.32L300.82,249.81L301.56,238.62L302.29,269.35L303.03,245.27L303.76,248.4L304.5,219.56L305.23,250.07L305.97,251.33L306.7,234.44L307.44,242.79L308.17,243.66L308.91,269.81L309.64,246.07L310.37,248.43L311.11,223.92L311.84,241.62L312.58,246.88L313.31,240.91L314.05,249.78L314.78,252.14L315.52,258.67L316.25,238.22L316.99,244.84L317.72,226.73L318.46,212.05L319.19,251.5L319.93,249.81L320.66,248.55L321.4,242.77L322.13,227.77L322.87,246.28L323.6,233.52L324.34,226.59L325.07,244.2L325.81,242.13L326.54,225.57L327.28,230.86L328.01,236.45L328.75,239.65L329.48,250.71L330.21,251.91L330.95,240.42L331.68,213.83L332.42,227.3L333.15,245.48L333.89,242.63L334.62,243.99L335.36,242.4L336.09,271.39L336.83,246.8L337.56,239.39L338.3,228.14L339.03,242.07L339.77,222.91L340.5,238.86L341.24,232.32L341.97,244.58L342.71,278.56L343.44,238.8L344.18,232.12L344.91,237.74L345.65,219.46L346.38,225.8L347.12,222.85L347.85,246.03L348.59,247.45L349.32,246.35L350.05,228.85L350.79,241.53L351.52,226.71L352.26,228.69L352.99,229.62L353.73,244.21L354.46,221.26L355.2,242.01L355.93,256.42L356.67,205.48L357.4,235.35L358.14,233.6L358.87,239.66L359.61,240.47L360.34,218.6L361.08,229.03L361.81,238.68L362.55,263.21L363.28,231.74L364.02,241.8L364.75,239.57L365.49,221.67L366.22,243.74L366.96,223.87L367.69,221.81L368.42,230.09L369.16,261.2L369.89,238.27L370.63,216.86L371.36,245.92L372.1,239.32L372.83,249.34L373.57,238.58L374.3,235.45L375.04,244.44L375.77,264.03L376.51,231.02L377.24,247.63L377.98,247.81L378.71,231.73L379.45,242.66L380.18,229.2L380.92,229.61L381.65,238.81L382.39,259.68L383.12,221.68L383.86,238.81L384.59,227.28L385.33,234.21L386.06,242.84L386.8,250.43L387.53,253.12L388.26,229.36L389,265.98L389.73,241.22L390.47,236.4L391.2,240.23L391.94,250.75L392.67,232.34L393.41,250.91L394.14,224.68L394.88,243.53L395.61,248.22L396.35,238.27L397.08,244.79L397.82,233.55L398.55,242.93L399.29,227.3L400.02,241.83L400.76,247.11L401.31,234.95" style="fill:none;stroke:#F15A60" />
<path d="M405.2,277.58L425.2,277.58" style="fill:none;stroke:#F15A60" />
<text x="278.24" y="-271.91" transform="scale(1, -1)"
	style="font-family:Times;font-weight:normal;font-style:normal;font-size:12px">batch-100kb-ctable-64mb</text>
</g>
</svg>
