<?xml version="1.0"?>
<!-- Generated by SVGo and Plotinum VG -->
<svg width="425.2pt" height="283.46pt" viewBox="0 0 425.2 283.46"
	xmlns="http://www.w3.org/2000/svg"
	xmlns:xlink="http://www.w3.org/1999/xlink">
<g transform="scale(1, -1) translate(0, -283.46)">
<path d="M0,0L425.2,0L425.2,283.46L0,283.46Z" style="fill:#FFFFFF" />
<text x="207.23" y="-3.8613" transform="scale(1, -1)"
	style="font-family:Times;font-weight:normal;font-style:normal;font-size:12px">database size</text>
<text x="60.252" y="-15.602" transform="scale(1, -1)"
	style="font-family:Times;font-weight:normal;font-style:normal;font-size:10px">4.00 mb</text>
<text x="136.77" y="-15.602" transform="scale(1, -1)"
	style="font-family:Times;font-weight:normal;font-style:normal;font-size:10px">260.00 mb</text>
<text x="218.28" y="-15.602" transform="scale(1, -1)"
	style="font-family:Times;font-weight:normal;font-style:normal;font-size:10px">516.00 mb</text>
<text x="299.79" y="-15.602" transform="scale(1, -1)"
	style="font-family:Times;font-weight:normal;font-style:normal;font-size:10px">772.00 mb</text>
<text x="377.42" y="-15.602" transform="scale(1, -1)"
	style="font-family:Times;font-weight:normal;font-style:normal;font-size:10px">1023.63 mb</text>
<path d="M76.642,25.23L76.642,33.23" style="fill:none;stroke:#000000;stroke-width:0.5" />
<path d="M158.16,25.23L158.16,33.23" style="fill:none;stroke:#000000;stroke-width:0.5" />
<path d="M239.67,25.23L239.67,33.23" style="fill:none;stroke:#000000;stroke-width:0.5" />
<path d="M321.18,25.23L321.18,33.23" style="fill:none;stroke:#000000;stroke-width:0.5" />
<path d="M401.31,25.23L401.31,33.23" style="fill:none;stroke:#000000;stroke-width:0.5" />
<path d="M76.114,33.23L401.31,33.23" style="fill:none;stroke:#000000;stroke-width:0.5" />
<g transform="rotate(90)">
<text x="144.86" y="11.555" transform="scale(1, -1)"
	style="font-family:Times;font-weight:normal;font-style:normal;font-size:12px">speed</text>
</g>
<text x="20.416" y="-35.31" transform="scale(1, -1)"
	style="font-family:Times;font-weight:normal;font-style:normal;font-size:10px">2.00 mb/s</text>
<text x="15.416" y="-129.38" transform="scale(1, -1)"
	style="font-family:Times;font-weight:normal;font-style:normal;font-size:10px">34.00 mb/s</text>
<text x="15.416" y="-223.46" transform="scale(1, -1)"
	style="font-family:Times;font-weight:normal;font-style:normal;font-size:10px">66.00 mb/s</text>
<text x="15.416" y="-273.84" transform="scale(1, -1)"
	style="font-family:Times;font-weight:normal;font-style:normal;font-size:10px">83.14 mb/s</text>
<path d="M62.364,40.031L70.364,40.031" style="fill:none;stroke:#000000;stroke-width:0.5" />
<path d="M62.364,134.1L70.364,134.1" style="fill:none;stroke:#000000;stroke-width:0.5" />
<path d="M62.364,228.18L70.364,228.18" style="fill:none;stroke:#000000;stroke-width:0.5" />
<path d="M62.364,278.56L70.364,278.56" style="fill:none;stroke:#000000;stroke-width:0.5" />
<path d="M70.364,38.48L70.364,278.56" style="fill:none;stroke:#000000;stroke-width:0.5" />
<path d="M76.114,244.24L76.861,233.2L77.607,250.43L78.353,250.01L79.099,252.28L79.846,250.28L80.592,259.92L81.338,119.72L82.085,165.96L82.831,253.52L83.577,194.66L84.323,243.76L85.07,75.961L85.816,166.56L86.562,262.2L87.309,259.79L88.055,61.926L88.801,278.56L89.547,162.2L90.294,254.73L91.04,253.55L91.786,56.49L92.533,145.76L93.279,214.08L94.025,263.05L94.771,267.1L95.518,56.452L96.264,98.81L97.01,237.38L97.757,218.54L98.503,261.51L99.249,56.764L99.995,71.097L100.74,242.1L101.49,185.23L102.23,257.98L102.98,57.017L103.73,60.371L104.47,257.3L105.22,251.07L105.97,255.32L106.71,55.578L107.46,161.46L108.2,220.71L108.95,218.97L109.7,56.185L110.44,268.93L111.19,96.115L111.94,264.62L112.68,266.64L113.43,56.542L114.17,68.455L114.92,247.38L115.67,255.88L116.41,265.22L117.16,56.522L117.91,60.537L118.65,237.84L119.4,265.7L120.15,57.937L120.89,54.9L121.64,239.48L122.38,55.986L123.13,212.69L123.88,163.58L124.62,260.81L125.37,56.368L126.12,86.789L126.86,256.71L127.61,242.7L128.35,276.65L129.1,56.526L129.85,64.974L130.59,251.26L131.34,57.884L132.09,269.27L132.83,57.045L133.58,55.434L134.32,54.705L135.07,244.54L135.82,242.17L136.56,254.41L137.31,264.31L138.06,55.748L138.8,108.17L139.55,263.95L140.29,246.52L141.04,267.39L141.79,54.069L142.53,68.891L143.28,263.98L144.03,240.51L144.77,258.02L145.52,56.037L146.26,61.75L147.01,262.92L147.76,57.946L148.5,57.208L149.25,256.28L150,56.819L150.74,55.107L151.49,145.97L152.24,56.417L152.98,116.97L153.73,259.24L154.47,261.96L155.22,56.434L155.97,78.228L156.71,242.28L157.46,238.85L158.21,257.11L158.95,55.905L159.7,64.614L160.44,252.61L161.19,57.781L161.94,245.05L162.68,57.474L163.43,56.978L164.18,57.227L164.92,53.012L165.67,128.42L166.41,148.24L167.16,55.739L167.91,139.91L168.65,266.58L169.4,55.617L170.15,74.18L170.89,267.65L171.64,143.46L172.38,264.26L173.13,55.48L173.88,58.289L174.62,244.25L175.37,258.13L176.12,58.037L176.86,57.155L177.61,57.033L178.36,56.431L179.1,56.315L179.85,138.77L180.59,54.353L181.34,135.25L182.09,57.257L182.83,104.32L183.58,244.48L184.33,210.92L185.07,55.86L185.82,73.869L186.56,259.48L187.31,247.48L188.06,250.43L188.8,55.228L189.55,61.181L190.3,243.92L191.04,57.779L191.79,57.279L192.53,258.24L193.28,55.404L194.03,57.244L194.77,56.402L195.52,57.166L196.27,53.949L197.01,151.67L197.76,53.286L198.5,87.254L199.25,167.68L200,238.18L200.74,55.219L201.49,262.94L202.24,65.217L202.98,258.02L203.73,58.114L204.48,55.609L205.22,244.57L205.97,57.578L206.71,55.834L207.46,56.114L208.21,57.732L208.95,56.725L209.7,149.94L210.45,53.58L211.19,48.633L211.94,256.61L212.68,248.72L213.43,247.61L214.18,203.8L214.92,56.392L215.67,69.458L216.42,262.37L217.16,257.6L217.91,55.566L218.65,260.59L219.4,59.307L220.15,261.49L220.89,58.342L221.64,62.013L222.39,253.46L223.13,251.42L223.88,55.777L224.62,84.441L225.37,241.5L226.12,55.918L226.86,253.42L227.61,67.742L228.36,262.29L229.1,58.288L229.85,57.075L230.6,56.102L231.34,252.03L232.09,57.203L232.83,56.033L233.58,54.262L234.33,131.33L235.07,56.899L235.82,136.08L236.57,150L237.31,260.91L238.06,56.537L238.8,80.281L239.55,240.81L240.3,213.12L241.04,256.5L241.79,56.652L242.54,64.637L243.28,248.58L244.03,57.672L244.77,265.26L245.52,57.026L246.27,57.059L247.01,57.282L247.76,56.363L248.51,144.34L249.25,57.944L250,57.359L250.74,57.034L251.49,53.72L252.24,47.063L252.98,241.4L253.73,260.25L254.48,263.83L255.22,201.4L255.97,55.475L256.72,79.03L257.46,257.5L258.21,103.54L258.95,56.299L259.7,56.507L260.45,56.805L261.19,56.189L261.94,208.55L262.69,55.407L263.43,58.03L264.18,56.809L264.92,57.78L265.67,57.841L266.42,134.81L267.16,41.855L267.91,259.52L268.66,251.39L269.4,250.08L270.15,233.58L270.89,265.04L271.64,56.839L272.39,61.191L273.13,243.5L273.88,55.805L274.63,244.54L275.37,54.716L276.12,55.862L276.86,56.901L277.61,56.286L278.36,57.611L279.1,148.69L279.85,56.685L280.6,57.947L281.34,57.491L282.09,39.81L282.84,226.67L283.58,252.66L284.33,226.99L285.07,217.71L285.82,62.375L286.57,54.124L287.31,243.96L288.06,254.22L288.81,54.771L289.55,57.239L290.3,56.899L291.04,60.51L291.79,177.46L292.54,147.42L293.28,55.379L294.03,123.12L294.78,258.05L295.52,55.882L296.27,250.81L297.01,104.75L297.76,88.993L298.51,170.44L299.25,260.32L300,55.997L300.75,211.48L301.49,78.965L302.24,90.066L302.98,56.954L303.73,57.111L304.48,56.416L305.22,277.13L305.97,54.181L306.72,57.614L307.46,57.535L308.21,57.611L308.95,53.846L309.7,131.04L310.45,47.386L311.19,266.86L311.94,248.52L312.69,239.79L313.43,231.36L314.18,57.499L314.93,59.837L315.67,252.61L316.42,58.648L317.16,57.011L317.91,261.33L318.66,57.493L319.4,57.156L320.15,55.653L320.9,57.974L321.64,57.753L322.39,149.12L323.13,58.307L323.88,56.517L324.63,39.841L325.37,219.75L326.12,235.07L326.87,258.35L327.61,266.5L328.36,66.129L329.1,55.546L329.85,164.22L330.6,57.156L331.34,205.83L332.09,57.387L332.84,57.178L333.58,56.519L334.33,56.822L335.07,146.38L335.82,57.905L336.57,52.7L337.31,126L338.06,253.68L338.81,245.82L339.55,257.45L340.3,56.523L341.05,95.291L341.79,100.87L342.54,167.07L343.28,253.96L344.03,248.18L344.78,56.519L345.52,78.569L346.27,89.412L347.02,56.865L347.76,56.614L348.51,209.77L349.25,56.468L350,56.075L350.75,57.176L351.49,57.972L352.24,54.284L352.99,149.04L353.73,47.252L354.48,262.13L355.22,57.657L355.97,56.966L356.72,250.15L357.46,56.329L358.21,53.86L358.96,127.52L359.7,66.987L360.45,246.78L361.19,230.01L361.94,57.706L362.69,56.639L363.43,56.785L364.18,56.769L364.93,57.958L365.67,130.59L366.42,59.545L367.17,57.059L367.91,57.516L368.66,39.618L369.4,210.22L370.15,259.26L370.9,58.375L371.64,57.354L372.39,54.84L373.14,55.638L373.88,256.62L374.63,258.83L375.37,55.833L376.12,56.743L376.87,252.78L377.61,57.091L378.36,248.01L379.11,57.08L379.85,57.437L380.6,55.811L381.34,57.463L382.09,58.24L382.84,150.23L383.58,58.051L384.33,57.948L385.08,38.48L385.82,191.78L386.57,58.151L387.31,250.52L388.06,56.713L388.81,56.563L389.55,57.682L390.3,56.386L391.05,56.343L391.79,205.96L392.54,54.407L393.29,55.582L394.03,136.13L394.78,55.57L395.52,57.406L396.27,261.21L397.02,57.769L397.76,56.746L398.51,55.195L399.26,162.25L400,125.28L400.75,56.445L401.31,93.428" style="fill:none;stroke:#F15A60" />
<path d="M405.2,277.58L425.2,277.58" style="fill:none;stroke:#F15A60" />
<text x="278.24" y="-271.91" transform="scale(1, -1)"
	style="font-family:Times;font-weight:normal;font-style:normal;font-size:12px">batch-100kb-ctable-64mb</text>
</g>
</svg>
