<?xml version="1.0"?>
<!-- Generated by SVGo and Plotinum VG -->
<svg width="425.2pt" height="283.46pt" viewBox="0 0 425.2 283.46"
	xmlns="http://www.w3.org/2000/svg"
	xmlns:xlink="http://www.w3.org/1999/xlink">
<g transform="scale(1, -1) translate(0, -283.46)">
<path d="M0,0L425.2,0L425.2,283.46L0,283.46Z" style="fill:#FFFFFF" />
<text x="209.73" y="-3.8613" transform="scale(1, -1)"
	style="font-family:Times;font-weight:normal;font-style:normal;font-size:12px">database size</text>
<text x="65.244" y="-15.602" transform="scale(1, -1)"
	style="font-family:Times;font-weight:normal;font-style:normal;font-size:10px">4.00 mb</text>
<text x="140.51" y="-15.602" transform="scale(1, -1)"
	style="font-family:Times;font-weight:normal;font-style:normal;font-size:10px">260.00 mb</text>
<text x="220.77" y="-15.602" transform="scale(1, -1)"
	style="font-family:Times;font-weight:normal;font-style:normal;font-size:10px">516.00 mb</text>
<text x="301.03" y="-15.602" transform="scale(1, -1)"
	style="font-family:Times;font-weight:normal;font-style:normal;font-size:10px">772.00 mb</text>
<text x="377.42" y="-15.602" transform="scale(1, -1)"
	style="font-family:Times;font-weight:normal;font-style:normal;font-size:10px">1023.63 mb</text>
<path d="M81.634,25.23L81.634,33.23" style="fill:none;stroke:#000000;stroke-width:0.5" />
<path d="M161.89,25.23L161.89,33.23" style="fill:none;stroke:#000000;stroke-width:0.5" />
<path d="M242.16,25.23L242.16,33.23" style="fill:none;stroke:#000000;stroke-width:0.5" />
<path d="M322.42,25.23L322.42,33.23" style="fill:none;stroke:#000000;stroke-width:0.5" />
<path d="M401.31,25.23L401.31,33.23" style="fill:none;stroke:#000000;stroke-width:0.5" />
<path d="M81.114,33.23L401.31,33.23" style="fill:none;stroke:#000000;stroke-width:0.5" />
<g transform="rotate(90)">
<text x="144.86" y="11.555" transform="scale(1, -1)"
	style="font-family:Times;font-weight:normal;font-style:normal;font-size:12px">speed</text>
</g>
<text x="15.416" y="-99.976" transform="scale(1, -1)"
	style="font-family:Times;font-weight:normal;font-style:normal;font-size:10px">256.00 mb/s</text>
<text x="15.416" y="-177.56" transform="scale(1, -1)"
	style="font-family:Times;font-weight:normal;font-style:normal;font-size:10px">288.00 mb/s</text>
<text x="15.416" y="-255.13" transform="scale(1, -1)"
	style="font-family:Times;font-weight:normal;font-style:normal;font-size:10px">320.00 mb/s</text>
<text x="15.416" y="-273.84" transform="scale(1, -1)"
	style="font-family:Times;font-weight:normal;font-style:normal;font-size:10px">327.71 mb/s</text>
<path d="M67.364,104.7L75.364,104.7" style="fill:none;stroke:#000000;stroke-width:0.5" />
<path d="M67.364,182.28L75.364,182.28" style="fill:none;stroke:#000000;stroke-width:0.5" />
<path d="M67.364,259.86L75.364,259.86" style="fill:none;stroke:#000000;stroke-width:0.5" />
<path d="M67.364,278.56L75.364,278.56" style="fill:none;stroke:#000000;stroke-width:0.5" />
<path d="M75.364,38.48L75.364,278.56" style="fill:none;stroke:#000000;stroke-width:0.5" />
<path d="M81.114,38.48L81.849,233.45L82.584,242.85L83.319,250.3L84.053,266.45L84.788,246.75L85.523,246.31L86.258,245.74L86.993,249.71L87.728,239.27L88.462,246.93L89.197,250.29L89.932,252.43L90.667,269.55L91.402,232.75L92.136,237.95L92.871,237.21L93.606,247.67L94.341,248.8L95.076,227.32L95.81,246.17L96.545,250.99L97.28,254.55L98.015,252.37L98.75,235.56L99.485,248.33L100.22,246.46L100.95,244.51L101.69,241.41L102.42,232.15L103.16,245.15L103.89,273.5L104.63,243.21L105.36,249.47L106.1,250.13L106.83,237.62L107.57,239.87L108.3,251.88L109.04,251.68L109.77,246.17L110.51,271.26L111.24,252.43L111.98,252.32L112.71,243.72L113.45,256.66L114.18,240.08L114.92,251.87L115.65,242.55L116.39,255.82L117.12,275.67L117.85,244.21L118.59,235.74L119.32,246.61L120.06,253.96L120.79,253.53L121.53,250.15L122.26,248.35L123,249.18L123.73,259.18L124.47,241.36L125.2,251.88L125.94,250.88L126.67,245.94L127.41,235.75L128.14,245.44L128.88,245.08L129.61,232.78L130.35,260.23L131.08,243.01L131.82,236.26L132.55,245.21L133.29,243.58L134.02,252.87L134.76,254.84L135.49,248.95L136.23,256.38L136.96,278.56L137.69,241.65L138.43,250.47L139.16,249.72L139.9,231.95L140.63,247.64L141.37,225.15L142.1,251.56L142.84,253.6L143.57,267.39L144.31,259.95L145.04,235.3L145.78,240.06L146.51,247.97L147.25,251.01L147.98,239.29L148.72,236L149.45,255.58L150.19,263.73L150.92,220.23L151.66,243.1L152.39,241.64L153.13,248.74L153.86,245.81L154.6,232.86L155.33,254.52L156.06,241.17L156.8,269.13L157.53,250.24L158.27,247.65L159,236.74L159.74,249.87L160.47,242L161.21,237.78L161.94,242.9L162.68,251.3L163.41,263.29L164.15,242.58L164.88,247.68L165.62,238.7L166.35,232.63L167.09,235.37L167.82,249.98L168.56,251.61L169.29,252.14L170.03,262.61L170.76,248.39L171.5,241.6L172.23,258.18L172.97,239.7L173.7,234.85L174.44,247.05L175.17,252.65L175.9,250.35L176.64,277.56L177.37,245.13L178.11,243.92L178.84,243.83L179.58,248.31L180.31,235.09L181.05,244.34L181.78,242.27L182.52,253.63L183.25,272.12L183.99,245.28L184.72,251.35L185.46,249.31L186.19,252.44L186.93,241.58L187.66,248.14L188.4,248.78L189.13,244.63L189.87,228.79L190.6,263.96L191.34,251.17L192.07,247.43L192.81,243.45L193.54,250.72L194.27,242.42L195.01,256.58L195.74,252.42L196.48,250.56L197.21,277.19L197.95,250.56L198.68,253.52L199.42,236.98L200.15,248.34L200.89,231.65L201.62,228.85L202.36,238.64L203.09,248.95L203.83,278.38L204.56,248.6L205.3,252.87L206.03,227.79L206.77,252.51L207.5,238.59L208.24,232.23L208.97,248.59L209.71,242.2L210.44,268.79L211.18,249.52L211.91,237.16L212.65,238.86L213.38,257.47L214.11,241.46L214.85,253.24L215.58,245.12L216.32,251.21L217.05,269.43L217.79,240.9L218.52,248.76L219.26,237.78L219.99,239.46L220.73,237.82L221.46,247.06L222.2,249.91L222.93,256.39L223.67,269.35L224.4,250.26L225.14,252.65L225.87,256.4L226.61,247.8L227.34,256.86L228.08,251.96L228.81,232.52L229.55,252.68L230.28,271.16L231.02,253.88L231.75,247.59L232.49,236.31L233.22,252.33L233.95,235.24L234.69,245.16L235.42,232.76L236.16,234.46L236.89,250.32L237.63,276.14L238.36,248.37L239.1,256.2L239.83,232.4L240.57,246.11L241.3,196.62L242.04,248.43L242.77,252.37L243.51,252.85L244.24,270.8L244.98,250.88L245.71,246.72L246.45,251.84L247.18,253.01L247.92,228.78L248.65,249.49L249.39,251.25L250.12,249.8L250.86,270.12L251.59,247.87L252.32,245.12L253.06,253.57L253.79,246.77L254.53,250.91L255.26,238.1L256,246.92L256.73,256.5L257.47,274.24L258.2,246.87L258.94,250.29L259.67,247.51L260.41,248.45L261.14,242.67L261.88,248.08L262.61,243.29L263.35,242.02L264.08,247.01L264.82,266.21L265.55,255.35L266.29,248.16L267.02,245.75L267.76,245.6L268.49,234.25L269.23,255.17L269.96,244.84L270.7,224.22L271.43,272.63L272.16,238.99L272.9,240.75L273.63,233.12L274.37,248.74L275.1,250.15L275.84,251.54L276.57,222.3L277.31,230.4L278.04,256.4L278.78,236.37L279.51,249.48L280.25,254.56L280.98,241.37L281.72,236.51L282.45,256.77L283.19,235L283.92,254.72L284.66,278.04L285.39,253.54L286.13,246.63L286.86,254.09L287.6,235.6L288.33,247.14L289.07,237.01L289.8,236.06L290.54,250.48L291.27,269.82L292,252.05L292.74,241.55L293.47,256.87L294.21,235.9L294.94,252.77L295.68,242.06L296.41,245.56L297.15,248.51L297.88,234.96L298.62,258.62L299.35,239.72L300.09,244.95L300.82,248.66L301.56,245.75L302.29,253.24L303.03,251.09L303.76,244.2L304.5,245.67L305.23,259.49L305.97,243.46L306.7,233.45L307.44,246.18L308.17,252.87L308.91,238.06L309.64,250.66L310.37,253.66L311.11,255.09L311.84,264.28L312.58,248.88L313.31,234.13L314.05,228.71L314.78,252.69L315.52,248.16L316.25,252.14L316.99,251.63L317.72,245.8L318.46,274.01L319.19,247.99L319.93,223.71L320.66,250.58L321.4,238.7L322.13,251.91L322.87,250.33L323.6,257.44L324.34,253.43L325.07,266.67L325.81,255.63L326.54,254.71L327.28,222.26L328.01,235.36L328.75,235.6L329.48,234.14L330.21,245.03L330.95,247.38L331.68,265.98L332.42,233.77L333.15,250.39L333.89,245.77L334.62,246.07L335.36,236.86L336.09,240.61L336.83,252.85L337.56,251.73L338.3,267.99L339.03,251.78L339.77,255.83L340.5,250.6L341.24,248.13L341.97,256.02L342.71,240.12L343.44,250.94L344.18,242.6L344.91,255.53L345.65,247.34L346.38,251.22L347.12,241.72L347.85,255.11L348.59,238.71L349.32,252.11L350.05,240.55L350.79,233.33L351.52,273.74L352.26,255.41L352.99,251.68L353.73,242.77L354.46,235.8L355.2,245.09L355.93,237.23L356.67,239.18L357.4,247.56L358.14,260.53L358.87,237.57L359.61,251.18L360.34,247.78L361.08,247.85L361.81,251.19L362.55,253.59L363.28,252.24L364.02,245.63L364.75,250.3L365.49,262.84L366.22,236.13L366.96,246.72L367.69,231.11L368.42,244.86L369.16,233.77L369.89,246.35L370.63,245.97L371.36,249.62L372.1,259.06L372.83,254.88L373.57,240.48L374.3,249.53L375.04,246.59L375.77,242.41L376.51,252.18L377.24,236.89L377.98,254.21L378.71,271.24L379.45,252.94L380.18,249.64L380.92,251.09L381.65,246.19L382.39,233.63L383.12,248.03L383.86,251.77L384.59,233.17L385.33,267.76L386.06,252.36L386.8,241.99L387.53,250.64L388.26,257.23L389,251.4L389.73,254.85L390.47,250.84L391.2,252.51L391.94,273.96L392.67,244.84L393.41,246.55L394.14,246.44L394.88,234.96L395.61,236.93L396.35,240.87L397.08,251L397.82,218.36L398.55,246.51L399.29,260.07L400.02,250.26L400.76,240.82L401.31,239.76" style="fill:none;stroke:#F15A60" />
<path d="M405.2,277.58L425.2,277.58" style="fill:none;stroke:#F15A60" />
<text x="168.95" y="-271.91" transform="scale(1, -1)"
	style="font-family:Times;font-weight:normal;font-style:normal;font-size:12px">batch-100kb-ctable-64mb-wb-512mb-cache-1gb</text>
</g>
</svg>
