<?xml version="1.0"?>
<!-- Generated by SVGo and Plotinum VG -->
<svg width="425.2pt" height="283.46pt" viewBox="0 0 425.2 283.46"
	xmlns="http://www.w3.org/2000/svg"
	xmlns:xlink="http://www.w3.org/1999/xlink">
<g transform="scale(1, -1) translate(0, -283.46)">
<path d="M0,0L425.2,0L425.2,283.46L0,283.46Z" style="fill:#FFFFFF" />
<text x="207.23" y="-3.8613" transform="scale(1, -1)"
	style="font-family:Times;font-weight:normal;font-style:normal;font-size:12px">database size</text>
<text x="60.252" y="-15.602" transform="scale(1, -1)"
	style="font-family:Times;font-weight:normal;font-style:normal;font-size:10px">4.00 mb</text>
<text x="136.77" y="-15.602" transform="scale(1, -1)"
	style="font-family:Times;font-weight:normal;font-style:normal;font-size:10px">260.00 mb</text>
<text x="218.28" y="-15.602" transform="scale(1, -1)"
	style="font-family:Times;font-weight:normal;font-style:normal;font-size:10px">516.00 mb</text>
<text x="299.79" y="-15.602" transform="scale(1, -1)"
	style="font-family:Times;font-weight:normal;font-style:normal;font-size:10px">772.00 mb</text>
<text x="377.42" y="-15.602" transform="scale(1, -1)"
	style="font-family:Times;font-weight:normal;font-style:normal;font-size:10px">1023.63 mb</text>
<path d="M76.642,25.23L76.642,33.23" style="fill:none;stroke:#000000;stroke-width:0.5" />
<path d="M158.16,25.23L158.16,33.23" style="fill:none;stroke:#000000;stroke-width:0.5" />
<path d="M239.67,25.23L239.67,33.23" style="fill:none;stroke:#000000;stroke-width:0.5" />
<path d="M321.18,25.23L321.18,33.23" style="fill:none;stroke:#000000;stroke-width:0.5" />
<path d="M401.31,25.23L401.31,33.23" style="fill:none;stroke:#000000;stroke-width:0.5" />
<path d="M76.114,33.23L401.31,33.23" style="fill:none;stroke:#000000;stroke-width:0.5" />
<g transform="rotate(90)">
<text x="144.86" y="11.555" transform="scale(1, -1)"
	style="font-family:Times;font-weight:normal;font-style:normal;font-size:12px">speed</text>
</g>
<text x="20.416" y="-34.135" transform="scale(1, -1)"
	style="font-family:Times;font-weight:normal;font-style:normal;font-size:10px">2.00 mb/s</text>
<text x="15.416" y="-126.19" transform="scale(1, -1)"
	style="font-family:Times;font-weight:normal;font-style:normal;font-size:10px">34.00 mb/s</text>
<text x="15.416" y="-218.24" transform="scale(1, -1)"
	style="font-family:Times;font-weight:normal;font-style:normal;font-size:10px">66.00 mb/s</text>
<text x="15.416" y="-273.84" transform="scale(1, -1)"
	style="font-family:Times;font-weight:normal;font-style:normal;font-size:10px">85.33 mb/s</text>
<path d="M62.364,38.857L70.364,38.857" style="fill:none;stroke:#000000;stroke-width:0.5" />
<path d="M62.364,130.91L70.364,130.91" style="fill:none;stroke:#000000;stroke-width:0.5" />
<path d="M62.364,222.96L70.364,222.96" style="fill:none;stroke:#000000;stroke-width:0.5" />
<path d="M62.364,278.56L70.364,278.56" style="fill:none;stroke:#000000;stroke-width:0.5" />
<path d="M70.364,38.48L70.364,278.56" style="fill:none;stroke:#000000;stroke-width:0.5" />
<path d="M76.114,240L76.861,230.52L77.607,241.38L78.353,245.65L79.099,244.04L79.846,257.47L80.592,204.7L81.338,110.24L82.085,173.43L82.831,264.8L83.577,264.56L84.323,193.79L85.07,73.951L85.816,165.8L86.562,273.07L87.309,264L88.055,60.295L88.801,271.81L89.547,163.07L90.294,267.05L91.04,199.55L91.786,54.941L92.533,141.79L93.279,253.11L94.025,210.68L94.771,249.59L95.518,54.433L96.264,94.155L97.01,220.94L97.757,262.94L98.503,263.07L99.249,55.123L99.995,67.143L100.74,253.06L101.49,249.47L102.23,278.25L102.98,54.751L103.73,58.191L104.47,258.23L105.22,252.6L105.97,266.36L106.71,54.821L107.46,165.62L108.2,256L108.95,182.6L109.7,53.07L110.44,259.96L111.19,96.097L111.94,171.26L112.68,259.24L113.43,54.895L114.17,67.494L114.92,253.9L115.67,209.32L116.41,259.72L117.16,55.093L117.91,58.186L118.65,240.6L119.4,265.95L120.15,55.894L120.89,54.666L121.64,252.88L122.38,53.67L123.13,218.28L123.88,147.57L124.62,266.94L125.37,54.435L126.12,82.716L126.86,248.06L127.61,252.78L128.35,278.56L129.1,54.927L129.85,66.202L130.59,258.12L131.34,56.483L132.09,265.2L132.83,55.184L133.58,54.702L134.32,53.39L135.07,253.43L135.82,254.56L136.56,274.37L137.31,266.42L138.06,53.674L138.8,108.12L139.55,268.96L140.29,236.36L141.04,262.66L141.79,54.727L142.53,73.21L143.28,253.5L144.03,247.39L144.77,237.81L145.52,53.875L146.26,60.092L147.01,256.31L147.76,56.03L148.5,55.519L149.25,259.13L150,55.939L150.74,53.886L151.49,133.58L152.24,54.495L152.98,109.64L153.73,218.85L154.47,244.75L155.22,54.742L155.97,75.605L156.71,247.09L157.46,211.46L158.21,273.82L158.95,54.588L159.7,62.104L160.44,260.6L161.19,56.13L161.94,249.89L162.68,55.887L163.43,55.584L164.18,56.002L164.92,52.549L165.67,52.628L166.41,133.9L167.16,187.05L167.91,167.89L168.65,261.53L169.4,54.76L170.15,76.954L170.89,246.23L171.64,257L172.38,263.42L173.13,54.84L173.88,62.187L174.62,239.45L175.37,225.63L176.12,56.376L176.86,55.152L177.61,55.618L178.36,56.041L179.1,55.384L179.85,128.46L180.59,54.247L181.34,136.05L182.09,54.83L182.83,104.28L183.58,251.91L184.33,236.4L185.07,54.48L185.82,72.286L186.56,226.63L187.31,246.33L188.06,253.61L188.8,53.801L189.55,60.561L190.3,256.29L191.04,56.755L191.79,55.783L192.53,191.83L193.28,55.591L194.03,55.683L194.77,55.013L195.52,55.853L196.27,52.82L197.01,126.83L197.76,52.753L198.5,85.647L199.25,171.79L200,248.84L200.74,53.249L201.49,262.08L202.24,65.207L202.98,260.49L203.73,56.64L204.48,55.307L205.22,186.97L205.97,55.581L206.71,55.136L207.46,54.934L208.21,55.974L208.95,56.67L209.7,133.79L210.45,52.791L211.19,47.434L211.94,258.29L212.68,250.28L213.43,250.56L214.18,254.34L214.92,55.002L215.67,68.039L216.42,245.47L217.16,243.8L217.91,54.392L218.65,214.15L219.4,57.728L220.15,265.2L220.89,56.555L221.64,59.77L222.39,215.47L223.13,262.73L223.88,54.181L224.62,84.973L225.37,252.86L226.12,53.917L226.86,227.12L227.61,66.067L228.36,265.73L229.1,55.954L229.85,55.973L230.6,54.782L231.34,204.12L232.09,55.162L232.83,52.307L233.58,52.501L234.33,146.15L235.07,54.301L235.82,141.53L236.57,168.02L237.31,263.82L238.06,52.692L238.8,77.936L239.55,244.73L240.3,200.28L241.04,257.6L241.79,53.625L242.54,62.863L243.28,258.82L244.03,56.616L244.77,267.91L245.52,55.643L246.27,53.786L247.01,54.782L247.76,54.682L248.51,131.06L249.25,55.98L250,55.894L250.74,56.701L251.49,52.217L252.24,45.689L252.98,206.83L253.73,259.41L254.48,266.1L255.22,269.5L255.97,54.219L256.72,78.481L257.46,259.64L258.21,94.563L258.95,55.831L259.7,55.982L260.45,55.92L261.19,55.931L261.94,207.83L262.69,54.169L263.43,56.473L264.18,56.251L264.92,56.45L265.67,56.353L266.42,142.98L267.16,40.643L267.91,256.66L268.66,253.06L269.4,264.28L270.15,238.22L270.89,263.58L271.64,53.245L272.39,60.202L273.13,258.78L273.88,56.332L274.63,206.66L275.37,55.604L276.12,56.038L276.86,55.398L277.61,55.602L278.36,55.814L279.1,127.88L279.85,56.964L280.6,56.471L281.34,56.251L282.09,38.8L282.84,218.5L283.58,258.34L284.33,265.61L285.07,191.05L285.82,62.185L286.57,53.529L287.31,227.66L288.06,260.29L288.81,55.294L289.55,54.827L290.3,55.71L291.04,59.387L291.79,158.83L292.54,132.51L293.28,54.776L294.03,123.81L294.78,261.11L295.52,54.708L296.27,249.34L297.01,102.81L297.76,111.93L298.51,170.26L299.25,262.69L300,55.038L300.75,260.54L301.49,77.44L302.24,92.87L302.98,55.955L303.73,54.89L304.48,55.826L305.22,213.36L305.97,53.308L306.72,57.461L307.46,56.646L308.21,55.587L308.95,52.717L309.7,146.46L310.45,45.714L311.19,276.07L311.94,261.9L312.69,207.47L313.43,210.9L314.18,55.921L314.93,58.275L315.67,259.5L316.42,56.907L317.16,55.735L317.91,261.4L318.66,55.397L319.4,55.874L320.15,54.964L320.9,56.584L321.64,56.483L322.39,143.54L323.13,55.851L323.88,57.053L324.63,38.847L325.37,258.87L326.12,241.66L326.87,267.82L327.61,269.43L328.36,64.661L329.1,54.35L329.85,160.97L330.6,252.04L331.34,271.55L332.09,56.676L332.84,55.962L333.58,55.486L334.33,55.325L335.07,133.36L335.82,55.682L336.57,56.901L337.31,127.53L338.06,54.031L338.81,84.269L339.55,256.14L340.3,265.18L341.05,54.982L341.79,90.539L342.54,95.064L343.28,171.08L344.03,253.75L344.78,258.18L345.52,55.168L346.27,72.501L347.02,84.187L347.76,55.569L348.51,265.88L349.25,55.149L350,55.863L350.75,54.748L351.49,55.718L352.24,56.581L352.99,133.23L353.73,53.63L354.48,45.643L355.22,247.96L355.97,56.191L356.72,204.82L357.46,56.286L358.21,54.557L358.96,53.09L359.7,88.487L360.45,64.56L361.19,249.58L361.94,263.02L362.69,56.495L363.43,55.798L364.18,55.641L364.93,55.929L365.67,125.35L366.42,57.014L367.17,56.775L367.91,55.98L368.66,56.396L369.4,38.48L370.15,248.49L370.9,250.64L371.64,56.674L372.39,55.792L373.14,55.806L373.88,55.953L374.63,266.86L375.37,55.11L376.12,55.026L376.87,54.959L377.61,56.453L378.36,128.05L379.11,56.722L379.85,57.214L380.6,60.118L381.34,43.212L382.09,55.833L382.84,252.42L383.58,55.76L384.33,55.275L385.08,56.095L385.82,56.108L386.57,55.655L387.31,207.05L388.06,58.719L388.81,57.289L389.55,75.281L390.3,55.486L391.05,55.792L391.79,265.48L392.54,56.209L393.29,54.04L394.03,52.23L394.78,154.55L395.52,66.765L396.27,209.13L397.02,205.18L397.76,56.516L398.51,55.363L399.26,55.164L400,192.35L400.75,53.883L401.31,51.03" style="fill:none;stroke:#F15A60" />
<path d="M405.2,277.58L425.2,277.58" style="fill:none;stroke:#F15A60" />
<text x="278.24" y="-271.91" transform="scale(1, -1)"
	style="font-family:Times;font-weight:normal;font-style:normal;font-size:12px">batch-100kb-ctable-64mb</text>
</g>
</svg>
