<?xml version="1.0"?>
<!-- Generated by SVGo and Plotinum VG -->
<svg width="425.2pt" height="283.46pt" viewBox="0 0 425.2 283.46"
	xmlns="http://www.w3.org/2000/svg"
	xmlns:xlink="http://www.w3.org/1999/xlink">
<g transform="scale(1, -1) translate(0, -283.46)">
<path d="M0,0L425.2,0L425.2,283.46L0,283.46Z" style="fill:#FFFFFF" />
<text x="207.23" y="-3.8613" transform="scale(1, -1)"
	style="font-family:Times;font-weight:normal;font-style:normal;font-size:12px">database size</text>
<text x="60.361" y="-15.602" transform="scale(1, -1)"
	style="font-family:Times;font-weight:normal;font-style:normal;font-size:10px">4.00 mb</text>
<text x="136.82" y="-15.602" transform="scale(1, -1)"
	style="font-family:Times;font-weight:normal;font-style:normal;font-size:10px">260.00 mb</text>
<text x="218.28" y="-15.602" transform="scale(1, -1)"
	style="font-family:Times;font-weight:normal;font-style:normal;font-size:10px">516.00 mb</text>
<text x="299.73" y="-15.602" transform="scale(1, -1)"
	style="font-family:Times;font-weight:normal;font-style:normal;font-size:10px">772.00 mb</text>
<text x="377.42" y="-15.602" transform="scale(1, -1)"
	style="font-family:Times;font-weight:normal;font-style:normal;font-size:10px">1024.00 mb</text>
<path d="M76.751,25.23L76.751,33.23" style="fill:none;stroke:#000000;stroke-width:0.5" />
<path d="M158.21,25.23L158.21,33.23" style="fill:none;stroke:#000000;stroke-width:0.5" />
<path d="M239.67,25.23L239.67,33.23" style="fill:none;stroke:#000000;stroke-width:0.5" />
<path d="M321.12,25.23L321.12,33.23" style="fill:none;stroke:#000000;stroke-width:0.5" />
<path d="M401.31,25.23L401.31,33.23" style="fill:none;stroke:#000000;stroke-width:0.5" />
<path d="M76.114,33.23L401.31,33.23" style="fill:none;stroke:#000000;stroke-width:0.5" />
<g transform="rotate(90)">
<text x="144.86" y="11.555" transform="scale(1, -1)"
	style="font-family:Times;font-weight:normal;font-style:normal;font-size:12px">speed</text>
</g>
<text x="20.416" y="-34.914" transform="scale(1, -1)"
	style="font-family:Times;font-weight:normal;font-style:normal;font-size:10px">1.00 mb/s</text>
<text x="15.416" y="-115.84" transform="scale(1, -1)"
	style="font-family:Times;font-weight:normal;font-style:normal;font-size:10px">33.00 mb/s</text>
<text x="15.416" y="-196.76" transform="scale(1, -1)"
	style="font-family:Times;font-weight:normal;font-style:normal;font-size:10px">65.00 mb/s</text>
<text x="15.416" y="-273.84" transform="scale(1, -1)"
	style="font-family:Times;font-weight:normal;font-style:normal;font-size:10px">95.48 mb/s</text>
<path d="M62.364,39.635L70.364,39.635" style="fill:none;stroke:#000000;stroke-width:0.5" />
<path d="M62.364,120.56L70.364,120.56" style="fill:none;stroke:#000000;stroke-width:0.5" />
<path d="M62.364,201.48L70.364,201.48" style="fill:none;stroke:#000000;stroke-width:0.5" />
<path d="M62.364,278.56L70.364,278.56" style="fill:none;stroke:#000000;stroke-width:0.5" />
<path d="M70.364,38.48L70.364,278.56" style="fill:none;stroke:#000000;stroke-width:0.5" />
<path d="M76.114,219.06L76.751,245.57L77.387,235.13L78.023,255.94L78.66,274.86L79.296,262.77L79.933,278.56L80.569,214.96L81.205,171.12L81.842,202.75L82.478,164.34L83.115,215.36L83.751,161.78L84.387,190.53L85.024,144.04L85.66,216.4L86.297,149.53L86.933,205.65L87.569,127.13L88.206,209.61L88.842,160.8L89.479,220.36L90.115,57.517L90.751,201.47L91.388,142.85L92.024,185.79L92.661,164.31L93.297,214.6L93.933,161.36L94.57,224.21L95.206,57.401L95.843,201.56L96.479,160.21L97.115,204.13L97.752,47.111L98.388,208.62L99.025,141.21L99.661,223.7L100.3,165.55L100.93,219.56L101.57,134.95L102.21,227.47L102.84,48.319L103.48,180.53L104.12,142.21L104.75,209.2L105.39,43.923L106.03,246.73L106.66,268.54L107.3,204.5L107.93,133.07L108.57,213.23L109.21,136.01L109.84,218.74L110.48,44.334L111.12,191.79L111.75,116.33L112.39,213.38L113.03,164.79L113.66,42.879L114.3,228.89L114.93,199.78L115.57,235.42L116.21,196.34L116.84,135.7L117.48,213.5L118.12,42.123L118.75,211.73L119.39,150.88L120.03,211.76L120.66,156.88L121.3,213L121.94,41.338L122.57,200.17L123.21,162.04L123.84,223.13L124.48,208.77L125.12,205.5L125.75,160.69L126.39,198.49L127.03,40.977L127.66,211.69L128.3,176.32L128.94,209.95L129.57,138L130.21,215.15L130.84,157.7L131.48,206.36L132.12,40.655L132.75,215.61L133.39,176.97L134.03,208.16L134.66,136.11L135.3,248.35L135.94,255.32L136.57,217.57L137.21,40.169L137.85,209.23L138.48,139.17L139.12,222.78L139.75,166.67L140.39,173.05L141.03,148.53L141.66,192.82L142.3,162.19L142.94,40.215L143.57,262.66L144.21,261.82L144.85,246.01L145.48,163.34L146.12,224.37L146.75,135.57L147.39,203.26L148.03,134.5L148.66,39.711L149.3,258.69L149.94,266.18L150.57,200.3L151.21,117.65L151.85,202.2L152.48,149.86L153.12,193.11L153.76,148.31L154.39,223.87L155.03,39.517L155.66,264.58L156.3,268.98L156.94,230.63L157.57,144.38L158.21,206.16L158.85,168.51L159.48,207.43L160.12,202.45L160.76,245.81L161.39,244.7L162.03,39.834L162.66,243.81L163.3,259.42L163.94,251.23L164.57,210.95L165.21,167.32L165.85,225.47L166.48,240.4L167.12,239.24L167.76,248.51L168.39,240.56L169.03,40.004L169.67,202.06L170.3,135.9L170.94,220.54L171.57,163L172.21,202.22L172.85,242.29L173.48,237.39L174.12,153.91L174.76,138.82L175.39,39.95L176.03,203.63L176.67,206.45L177.3,257.89L177.94,245.91L178.57,233.89L179.21,245.82L179.85,218.61L180.48,139.56L181.12,191.3L181.76,40.072L182.39,188.07L183.03,123.33L183.67,202.09L184.3,154.21L184.94,230.25L185.58,205.49L186.21,145.38L186.85,175.97L187.48,40.071L188.12,218.67L188.76,123.48L189.39,175.05L190.03,125.58L190.67,200.72L191.3,133.33L191.94,210.63L192.58,146.84L193.21,40.133L193.85,240.73L194.48,248.96L195.12,239.96L195.76,209.29L196.39,201.74L197.03,224.69L197.67,230.33L198.3,40.264L198.94,218.27L199.58,254.06L200.21,235.57L200.85,165.02L201.49,209.4L202.12,130.79L202.76,214.68L203.39,145.84L204.03,192.03L204.67,39.799L205.3,241.85L205.94,265.01L206.58,258.1L207.21,264.14L207.85,233.23L208.49,233.21L209.12,205.92L209.76,205.66L210.39,236.52L211.03,39.981L211.67,203.73L212.3,138.98L212.94,213.22L213.58,169.45L214.21,196.08L214.85,151.64L215.49,210.99L216.12,154.07L216.76,204.58L217.4,39.759L218.03,214.05L218.67,159.05L219.3,211.47L219.94,206.36L220.58,228.04L221.21,235.85L221.85,243.33L222.49,247.44L223.12,39.947L223.76,231.01L224.4,246.45L225.03,169.98L225.67,220.32L226.3,175.12L226.94,202.78L227.58,150.98L228.21,235.12L228.85,249.19L229.49,224.41L230.12,39.718L230.76,209.8L231.4,167.41L232.03,258.66L232.67,266.59L233.31,243.06L233.94,245.85L234.58,234.13L235.21,158.88L235.85,174.35L236.49,39.924L237.12,207.53L237.76,177.77L238.4,161.98L239.03,261.19L239.67,240.74L240.31,218.69L240.94,236.48L241.58,158.58L242.21,39.573L242.85,251.1L243.49,261.68L244.12,225.07L244.76,173.77L245.4,218.92L246.03,148.36L246.67,142.49L247.31,122.88L247.94,130.86L248.58,245.7L249.22,39.297L249.85,189.13L250.49,168.21L251.12,256.98L251.76,261.79L252.4,176.57L253.03,125.86L253.67,267.52L254.31,237.88L254.94,195.1L255.58,125.38L256.22,208.15L256.85,39.083L257.49,205.83L258.12,158.01L258.76,264.07L259.4,277.13L260.03,214.05L260.67,155.86L261.31,198.12L261.94,171.34L262.58,201.76L263.22,152.02L263.85,244.83L264.49,38.881L265.13,205.93L265.76,164.67L266.4,208.2L267.03,171.96L267.67,227.54L268.31,146.08L268.94,187.57L269.58,149.61L270.22,185.31L270.85,135.74L271.49,220.51L272.13,132.82L272.76,38.966L273.4,222.26L274.03,168.79L274.67,211.48L275.31,164.56L275.94,228.71L276.58,143.36L277.22,209.52L277.85,156.61L278.49,220.5L279.13,137.51L279.76,239.38L280.4,38.675L281.04,251.65L281.67,251.69L282.31,243.85L282.94,122.15L283.58,244.14L284.22,152.3L284.85,266.38L285.49,235.63L286.13,241.78L286.76,129.9L287.4,241.17L288.04,38.868L288.67,246.36L289.31,251.44L289.94,261.23L290.58,221.85L291.22,162.22L291.85,198.74L292.49,161.29L293.13,171.36L293.76,159.27L294.4,179.62L295.04,129.34L295.67,38.837L296.31,256.15L296.95,247.48L297.58,115.51L298.22,222.04L298.85,168.39L299.49,213.24L300.13,162.82L300.76,192L301.4,132.93L302.04,242.09L302.67,237.54L303.31,38.892L303.95,218.84L304.58,160.04L305.22,217.92L305.85,133.3L306.49,220.7L307.13,159.53L307.76,212.97L308.4,158.05L309.04,209.7L309.67,145.55L310.31,243.81L310.95,38.841L311.58,231.6L312.22,220.97L312.86,174.45L313.49,227.36L314.13,165.13L314.76,228.91L315.4,142.95L316.04,245.6L316.67,232.58L317.31,210.73L317.95,215.52L318.58,38.803L319.22,257.29L319.86,265.21L320.49,255.12L321.13,162.66L321.77,178.25L322.4,136.64L323.04,253.87L323.67,244.67L324.31,215.83L324.95,230.34L325.58,159.56L326.22,38.793L326.86,119.2L327.49,117.12L328.13,154.98L328.77,156.95L329.4,212.44L330.04,162.6L330.67,275.58L331.31,246.61L331.95,234.45L332.58,151.49L333.22,183.39L333.86,135.8L334.49,38.917L335.13,202.48L335.77,169.11L336.4,193.44L337.04,161.23L337.68,155.24L338.31,133.39L338.95,261.6L339.58,243.64L340.22,201.99L340.86,123.69L341.49,247.79L342.13,38.615L342.77,191.29L343.4,125.42L344.04,177.65L344.68,134.13L345.31,230.27L345.95,212.64L346.58,149.19L347.22,217.21L347.86,156.98L348.49,217.77L349.13,156.1L349.77,222.85L350.4,38.92L351.04,223.31L351.68,163.31L352.31,211.44L352.95,106.2L353.59,176.91L354.22,172.1L354.86,182.4L355.49,133.5L356.13,239.63L356.77,241.44L357.4,38.845L358.04,258.66L358.68,261.37L359.31,232.29L359.95,171.99L360.59,198.95L361.22,166.74L361.86,209.92L362.49,157.22L363.13,180.6L363.77,131.46L364.4,238.76L365.04,38.812L365.68,169.82L366.31,134.14L366.95,207.76L367.59,167.04L368.22,198.51L368.86,161.16L369.5,208.73L370.13,166L370.77,205.79L371.4,159.01L372.04,251.07L372.68,38.805L373.31,183.83L373.95,123.64L374.59,231.93L375.22,171.22L375.86,224.57L376.5,165.81L377.13,210.83L377.77,205.28L378.4,230.01L379.04,250.81L379.68,224.95L380.31,155.75L380.95,38.949L381.59,213.27L382.22,160.53L382.86,221.16L383.5,164.69L384.13,207.52L384.77,141.5L385.41,216.81L386.04,146.63L386.68,211.4L387.31,145.9L387.95,224.08L388.59,125.47L389.22,38.671L389.86,199.48L390.5,260.69L391.13,242.9L391.77,159.37L392.41,260.31L393.04,268.86L393.68,216.79L394.31,141.84L394.95,209.9L395.59,95.604L396.22,242.82L396.86,38.48L397.5,205.45L398.13,153.22L398.77,218.37L399.41,146.14L400.04,254.01L400.68,162.35L401.31,132.39" style="fill:none;stroke:#F15A60" />
<path d="M405.2,277.58L425.2,277.58" style="fill:none;stroke:#F15A60" />
<text x="316.88" y="-271.91" transform="scale(1, -1)"
	style="font-family:Times;font-weight:normal;font-style:normal;font-size:12px">batch-100kb-notx</text>
</g>
</svg>
