<?xml version="1.0"?>
<!-- Generated by SVGo and Plotinum VG -->
<svg width="425.2pt" height="283.46pt" viewBox="0 0 425.2 283.46"
	xmlns="http://www.w3.org/2000/svg"
	xmlns:xlink="http://www.w3.org/1999/xlink">
<g transform="scale(1, -1) translate(0, -283.46)">
<path d="M0,0L425.2,0L425.2,283.46L0,283.46Z" style="fill:#FFFFFF" />
<text x="209.73" y="-3.8613" transform="scale(1, -1)"
	style="font-family:Times;font-weight:normal;font-style:normal;font-size:12px">database size</text>
<text x="65.244" y="-15.602" transform="scale(1, -1)"
	style="font-family:Times;font-weight:normal;font-style:normal;font-size:10px">4.00 mb</text>
<text x="140.51" y="-15.602" transform="scale(1, -1)"
	style="font-family:Times;font-weight:normal;font-style:normal;font-size:10px">260.00 mb</text>
<text x="220.77" y="-15.602" transform="scale(1, -1)"
	style="font-family:Times;font-weight:normal;font-style:normal;font-size:10px">516.00 mb</text>
<text x="301.03" y="-15.602" transform="scale(1, -1)"
	style="font-family:Times;font-weight:normal;font-style:normal;font-size:10px">772.00 mb</text>
<text x="377.42" y="-15.602" transform="scale(1, -1)"
	style="font-family:Times;font-weight:normal;font-style:normal;font-size:10px">1023.63 mb</text>
<path d="M81.634,25.23L81.634,33.23" style="fill:none;stroke:#000000;stroke-width:0.5" />
<path d="M161.89,25.23L161.89,33.23" style="fill:none;stroke:#000000;stroke-width:0.5" />
<path d="M242.16,25.23L242.16,33.23" style="fill:none;stroke:#000000;stroke-width:0.5" />
<path d="M322.42,25.23L322.42,33.23" style="fill:none;stroke:#000000;stroke-width:0.5" />
<path d="M401.31,25.23L401.31,33.23" style="fill:none;stroke:#000000;stroke-width:0.5" />
<path d="M81.114,33.23L401.31,33.23" style="fill:none;stroke:#000000;stroke-width:0.5" />
<g transform="rotate(90)">
<text x="144.86" y="11.555" transform="scale(1, -1)"
	style="font-family:Times;font-weight:normal;font-style:normal;font-size:12px">speed</text>
</g>
<text x="15.416" y="-106.51" transform="scale(1, -1)"
	style="font-family:Times;font-weight:normal;font-style:normal;font-size:10px">256.00 mb/s</text>
<text x="15.416" y="-183.27" transform="scale(1, -1)"
	style="font-family:Times;font-weight:normal;font-style:normal;font-size:10px">288.00 mb/s</text>
<text x="15.416" y="-260.04" transform="scale(1, -1)"
	style="font-family:Times;font-weight:normal;font-style:normal;font-size:10px">320.00 mb/s</text>
<text x="15.416" y="-273.84" transform="scale(1, -1)"
	style="font-family:Times;font-weight:normal;font-style:normal;font-size:10px">325.75 mb/s</text>
<path d="M67.364,111.23L75.364,111.23" style="fill:none;stroke:#000000;stroke-width:0.5" />
<path d="M67.364,187.99L75.364,187.99" style="fill:none;stroke:#000000;stroke-width:0.5" />
<path d="M67.364,264.76L75.364,264.76" style="fill:none;stroke:#000000;stroke-width:0.5" />
<path d="M67.364,278.56L75.364,278.56" style="fill:none;stroke:#000000;stroke-width:0.5" />
<path d="M75.364,38.48L75.364,278.56" style="fill:none;stroke:#000000;stroke-width:0.5" />
<path d="M81.114,38.48L81.849,220L82.584,241.58L83.319,266.94L84.053,245.47L84.788,253.91L85.523,224.23L86.258,233.8L86.993,244.8L87.728,239.79L88.462,247.26L89.197,267.13L89.932,218.37L90.667,236.99L91.402,237.47L92.136,248.76L92.871,235.9L93.606,233.65L94.341,242.7L95.076,262.75L95.81,233.7L96.545,241.38L97.28,243.36L98.015,247.73L98.75,253.38L99.485,240.71L100.22,242.57L100.95,250.85L101.69,250.78L102.42,249.88L103.16,244.8L103.89,246.9L104.63,252.77L105.36,257.81L106.1,259.27L106.83,255.67L107.57,276.67L108.3,241.53L109.04,250.92L109.77,245.68L110.51,233.05L111.24,251.33L111.98,257.29L112.71,255.56L113.45,259.38L114.18,242.05L114.92,254.58L115.65,253.93L116.39,237.74L117.12,252.27L117.85,244.92L118.59,224.15L119.32,264.74L120.06,233.9L120.79,242.49L121.53,241.07L122.26,232.83L123,247.84L123.73,241.3L124.47,254.08L125.2,254.13L125.94,273.01L126.67,252.57L127.41,252.57L128.14,254.61L128.88,245.47L129.61,250.87L130.35,238.24L131.08,229.01L131.82,275.05L132.55,246.57L133.29,245.53L134.02,220.46L134.76,249.95L135.49,248.78L136.23,250.38L136.96,247.57L137.69,270.86L138.43,228.29L139.16,235.58L139.9,225.22L140.63,229.57L141.37,241.65L142.1,234.65L142.84,228.55L143.57,273.16L144.31,244.27L145.04,237.41L145.78,244.38L146.51,246.35L147.25,248.57L147.98,244.52L148.72,239.82L149.45,250.7L150.19,267.05L150.92,243.44L151.66,239.29L152.39,254.93L153.13,244.17L153.86,259.58L154.6,249.78L155.33,238.6L156.06,271.13L156.8,253.82L157.53,254.8L158.27,234.61L159,224.26L159.74,250.31L160.47,237.52L161.21,247.08L161.94,254.65L162.68,248.79L163.41,247.2L164.15,244.73L164.88,249.85L165.62,229.17L166.35,233.88L167.09,242.73L167.82,265.47L168.56,251.59L169.29,237.45L170.03,226.05L170.76,231.13L171.5,253.63L172.23,254.02L172.97,235.73L173.7,256.28L174.44,253.8L175.17,247.41L175.9,252.24L176.64,249.09L177.37,251.56L178.11,232.05L178.84,244.21L179.58,254.14L180.31,274.86L181.05,253.38L181.78,255.61L182.52,250.33L183.25,232.28L183.99,252.24L184.72,245.95L185.46,246.02L186.19,269.1L186.93,217.66L187.66,226.14L188.4,254.98L189.13,247.94L189.87,237.29L190.6,243.39L191.34,249.4L192.07,269.47L192.81,245.06L193.54,246.18L194.27,253.45L195.01,255.2L195.74,260.87L196.48,243.62L197.21,252.55L197.95,253.97L198.68,233.44L199.42,232.24L200.15,251.83L200.89,215.37L201.62,256.57L202.36,233.2L203.09,240.09L203.83,241L204.56,266.37L205.3,243.85L206.03,232.34L206.77,246.72L207.5,255.95L208.24,248.16L208.97,250.6L209.71,233.59L210.44,257.26L211.18,233.4L211.91,247.15L212.65,250.56L213.38,252.37L214.11,251.87L214.85,235.01L215.58,241.76L216.32,267.15L217.05,248.26L217.79,229.15L218.52,241.21L219.26,210.33L219.99,224.48L220.73,235.4L221.46,232.76L222.2,226.01L222.93,225.91L223.67,241.98L224.4,232.78L225.14,245.08L225.87,250.6L226.61,250.03L227.34,246.69L228.08,244.81L228.81,263.59L229.55,226.64L230.28,250.5L231.02,247.89L231.75,225.77L232.49,242.71L233.22,225.83L233.95,240.74L234.69,247.48L235.42,247.06L236.16,243.7L236.89,249.8L237.63,255.47L238.36,223.06L239.1,248.21L239.83,236.15L240.57,276.02L241.3,240.88L242.04,236.26L242.77,245.51L243.51,242.5L244.24,238.25L244.98,248.61L245.71,247.13L246.45,269.74L247.18,245.98L247.92,221.76L248.65,231.65L249.39,245.44L250.12,252.2L250.86,244.69L251.59,242.66L252.32,235.39L253.06,267.72L253.79,240.16L254.53,251.27L255.26,252.41L256,253.95L256.73,248.02L257.47,249.81L258.2,255.46L258.94,273.35L259.67,247.85L260.41,236.45L261.14,232.31L261.88,252.74L262.61,243.44L263.35,241.8L264.08,232.77L264.82,260.09L265.55,237.77L266.29,236.21L267.02,235.28L267.76,243.67L268.49,245.98L269.23,244.4L269.96,228.18L270.7,274.34L271.43,252.25L272.16,248.6L272.9,254.72L273.63,252.79L274.37,254.06L275.1,251.65L275.84,254.66L276.57,249.11L277.31,222.99L278.04,229.4L278.78,242.51L279.51,213.81L280.25,239.55L280.98,235.07L281.72,244.24L282.45,271.54L283.19,238.3L283.92,234.98L284.66,245.99L285.39,247.8L286.13,251.84L286.86,250.64L287.6,229.88L288.33,251.87L289.07,269.38L289.8,248.46L290.54,246.83L291.27,250.18L292,232.21L292.74,217.86L293.47,243.96L294.21,243.41L294.94,261.67L295.68,242.58L296.41,244.72L297.15,242.26L297.88,244.92L298.62,245.22L299.35,234.58L300.09,229.54L300.82,270.6L301.56,236.57L302.29,240.41L303.03,228.37L303.76,243.54L304.5,242.02L305.23,244.62L305.97,247.85L306.7,255.11L307.44,252.72L308.17,237.15L308.91,223.64L309.64,250.73L310.37,236.86L311.11,251.46L311.84,245.99L312.58,271.89L313.31,247.69L314.05,253.86L314.78,247.8L315.52,249.98L316.25,254.95L316.99,239.54L317.72,256.27L318.46,234.97L319.19,253.46L319.93,222.81L320.66,247.65L321.4,246.83L322.13,243.16L322.87,251.19L323.6,251.23L324.34,231.63L325.07,258.99L325.81,230.43L326.54,245.56L327.28,250.88L328.01,230.85L328.75,231.7L329.48,254.05L330.21,234.75L330.95,271.96L331.68,241.46L332.42,253.07L333.15,255.58L333.89,258.85L334.62,253.5L335.36,247.59L336.09,242.52L336.83,268.64L337.56,225.56L338.3,247.78L339.03,251.96L339.77,249.05L340.5,247.42L341.24,248.41L341.97,245.16L342.71,265.7L343.44,235.33L344.18,241.57L344.91,247.09L345.65,239.91L346.38,230.28L347.12,244.65L347.85,235.98L348.59,271.56L349.32,242.88L350.05,245.81L350.79,248.23L351.52,247.35L352.26,247.84L352.99,256.35L353.73,242.66L354.46,251.29L355.2,276.01L355.93,260.23L356.67,262.67L357.4,251.57L358.14,248.54L358.87,250.78L359.61,256.03L360.34,238.17L361.08,278.56L361.81,258.38L362.55,238.73L363.28,257.64L364.02,248.12L364.75,244.48L365.49,251.48L366.22,251.13L366.96,272.6L367.69,251.32L368.42,233.26L369.16,251.98L369.89,241.81L370.63,246.76L371.36,251.19L372.1,227.28L372.83,266.26L373.57,244.84L374.3,243.17L375.04,248.03L375.77,233.34L376.51,241.42L377.24,229.52L377.98,251.66L378.71,261.61L379.45,246.03L380.18,233.58L380.92,236.87L381.65,234.44L382.39,224.76L383.12,250.27L383.86,244.21L384.59,246.51L385.33,267.3L386.06,243.99L386.8,252.41L387.53,237.8L388.26,243.88L389,253.68L389.73,241.77L390.47,236.98L391.2,254.05L391.94,248.56L392.67,233.56L393.41,239.84L394.14,259.54L394.88,257.77L395.61,254.97L396.35,241.61L397.08,267.24L397.82,233.77L398.55,246.4L399.29,254.26L400.02,235.47L400.76,254.38L401.31,247.29" style="fill:none;stroke:#F15A60" />
<path d="M405.2,277.58L425.2,277.58" style="fill:none;stroke:#F15A60" />
<text x="278.24" y="-271.91" transform="scale(1, -1)"
	style="font-family:Times;font-weight:normal;font-style:normal;font-size:12px">batch-100kb-ctable-64mb</text>
</g>
</svg>
