<?xml version="1.0"?>
<!-- Generated by SVGo and Plotinum VG -->
<svg width="425.2pt" height="283.46pt" viewBox="0 0 425.2 283.46"
	xmlns="http://www.w3.org/2000/svg"
	xmlns:xlink="http://www.w3.org/1999/xlink">
<g transform="scale(1, -1) translate(0, -283.46)">
<path d="M0,0L425.2,0L425.2,283.46L0,283.46Z" style="fill:#FFFFFF" />
<text x="209.73" y="-3.8613" transform="scale(1, -1)"
	style="font-family:Times;font-weight:normal;font-style:normal;font-size:12px">database size</text>
<text x="65.244" y="-15.602" transform="scale(1, -1)"
	style="font-family:Times;font-weight:normal;font-style:normal;font-size:10px">4.00 mb</text>
<text x="140.51" y="-15.602" transform="scale(1, -1)"
	style="font-family:Times;font-weight:normal;font-style:normal;font-size:10px">260.00 mb</text>
<text x="220.77" y="-15.602" transform="scale(1, -1)"
	style="font-family:Times;font-weight:normal;font-style:normal;font-size:10px">516.00 mb</text>
<text x="301.03" y="-15.602" transform="scale(1, -1)"
	style="font-family:Times;font-weight:normal;font-style:normal;font-size:10px">772.00 mb</text>
<text x="377.42" y="-15.602" transform="scale(1, -1)"
	style="font-family:Times;font-weight:normal;font-style:normal;font-size:10px">1023.63 mb</text>
<path d="M81.634,25.23L81.634,33.23" style="fill:none;stroke:#000000;stroke-width:0.5" />
<path d="M161.89,25.23L161.89,33.23" style="fill:none;stroke:#000000;stroke-width:0.5" />
<path d="M242.16,25.23L242.16,33.23" style="fill:none;stroke:#000000;stroke-width:0.5" />
<path d="M322.42,25.23L322.42,33.23" style="fill:none;stroke:#000000;stroke-width:0.5" />
<path d="M401.31,25.23L401.31,33.23" style="fill:none;stroke:#000000;stroke-width:0.5" />
<path d="M81.114,33.23L401.31,33.23" style="fill:none;stroke:#000000;stroke-width:0.5" />
<g transform="rotate(90)">
<text x="144.86" y="11.555" transform="scale(1, -1)"
	style="font-family:Times;font-weight:normal;font-style:normal;font-size:12px">speed</text>
</g>
<text x="15.416" y="-102.49" transform="scale(1, -1)"
	style="font-family:Times;font-weight:normal;font-style:normal;font-size:10px">256.00 mb/s</text>
<text x="15.416" y="-178.82" transform="scale(1, -1)"
	style="font-family:Times;font-weight:normal;font-style:normal;font-size:10px">288.00 mb/s</text>
<text x="15.416" y="-255.14" transform="scale(1, -1)"
	style="font-family:Times;font-weight:normal;font-style:normal;font-size:10px">320.00 mb/s</text>
<text x="15.416" y="-273.84" transform="scale(1, -1)"
	style="font-family:Times;font-weight:normal;font-style:normal;font-size:10px">327.84 mb/s</text>
<path d="M67.364,107.21L75.364,107.21" style="fill:none;stroke:#000000;stroke-width:0.5" />
<path d="M67.364,183.54L75.364,183.54" style="fill:none;stroke:#000000;stroke-width:0.5" />
<path d="M67.364,259.86L75.364,259.86" style="fill:none;stroke:#000000;stroke-width:0.5" />
<path d="M67.364,278.56L75.364,278.56" style="fill:none;stroke:#000000;stroke-width:0.5" />
<path d="M75.364,38.48L75.364,278.56" style="fill:none;stroke:#000000;stroke-width:0.5" />
<path d="M81.114,38.48L81.849,234.93L82.584,246.69L83.319,266.36L84.053,257.24L84.788,241.69L85.523,228.56L86.258,244.83L86.993,250.13L87.728,245.82L88.462,248.23L89.197,245.32L89.932,248.62L90.667,268.89L91.402,254L92.136,245.99L92.871,251.77L93.606,243.09L94.341,242.57L95.076,233.18L95.81,240.16L96.545,249.85L97.28,270.89L98.015,252.65L98.75,244.08L99.485,252.09L100.22,253.41L100.95,240.41L101.69,245.16L102.42,244.01L103.16,270.98L103.89,255.04L104.63,256.34L105.36,249.1L106.1,253.73L106.83,239.37L107.57,233.88L108.3,247.53L109.04,249.19L109.77,241.76L110.51,267.16L111.24,239.18L111.98,250.5L112.71,247.27L113.45,240.09L114.18,258.37L114.92,237.43L115.65,243.06L116.39,250.46L117.12,272.5L117.85,258.76L118.59,261.78L119.32,255.19L120.06,252.39L120.79,247.33L121.53,251.27L122.26,251.33L123,252.83L123.73,273.3L124.47,252.19L125.2,237.43L125.94,246.79L126.67,249.95L127.41,249.63L128.14,245.7L128.88,253.63L129.61,243.49L130.35,261.2L131.08,244.93L131.82,243.62L132.55,241.26L133.29,222.21L134.02,253.25L134.76,248.42L135.49,245.24L136.23,246.85L136.96,266.96L137.69,249.09L138.43,241.03L139.16,245.42L139.9,254.54L140.63,252.02L141.37,249.05L142.1,237.09L142.84,242.58L143.57,270.92L144.31,256.09L145.04,249.05L145.78,249.5L146.51,251.4L147.25,237.57L147.98,251.92L148.72,247.56L149.45,273.48L150.19,251.52L150.92,255.1L151.66,251.72L152.39,249.47L153.13,240.69L153.86,224.72L154.6,243.16L155.33,236.06L156.06,271.65L156.8,251.69L157.53,242.31L158.27,246.37L159,236.7L159.74,252.38L160.47,249.41L161.21,236.21L161.94,249.71L162.68,278.49L163.41,228.4L164.15,249.34L164.88,256.28L165.62,240.42L166.35,254.23L167.09,230.8L167.82,243.7L168.56,252.06L169.29,271.88L170.03,237.97L170.76,252.98L171.5,241.12L172.23,236.25L172.97,253.13L173.7,250.97L174.44,246.46L175.17,228.15L175.9,269.32L176.64,251.8L177.37,239.34L178.11,253.35L178.84,243.49L179.58,246.39L180.31,247.24L181.05,234.9L181.78,239.04L182.52,267.8L183.25,252.3L183.99,244.81L184.72,248.15L185.46,252.54L186.19,250.43L186.93,240.89L187.66,225.74L188.4,236.83L189.13,275.94L189.87,237.39L190.6,258.24L191.34,253.34L192.07,244.41L192.81,255.1L193.54,237.88L194.27,247.75L195.01,234.75L195.74,271.58L196.48,243.93L197.21,254.64L197.95,237.51L198.68,248.82L199.42,253.31L200.15,240.96L200.89,246.31L201.62,257.3L202.36,274.49L203.09,246.2L203.83,248.63L204.56,249.24L205.3,251.18L206.03,250.77L206.77,243.97L207.5,257.41L208.24,257.4L208.97,277.7L209.71,242.41L210.44,246.41L211.18,250.26L211.91,249.62L212.65,251.71L213.38,241.1L214.11,242.99L214.85,249.93L215.58,272.2L216.32,246.47L217.05,235.3L217.79,246.97L218.52,248.3L219.26,224.77L219.99,245.74L220.73,246.54L221.46,253.67L222.2,272.64L222.93,247.74L223.67,252.01L224.4,245.5L225.14,242.99L225.87,243.74L226.61,245.63L227.34,255.79L228.08,237.5L228.81,268.11L229.55,236.96L230.28,256.01L231.02,241.38L231.75,235.09L232.49,248.95L233.22,254.36L233.95,250.35L234.69,244.09L235.42,273.68L236.16,248.97L236.89,251.71L237.63,243.56L238.36,252.87L239.1,253.29L239.83,239.17L240.57,240.87L241.3,239.28L242.04,272.38L242.77,258.26L243.51,249.66L244.24,251.31L244.98,201.67L245.71,236.59L246.45,254.19L247.18,235.99L247.92,240.77L248.65,242.51L249.39,272.73L250.12,233.17L250.86,242.56L251.59,252.28L252.32,255.81L253.06,249.25L253.79,244.81L254.53,240.4L255.26,251.1L256,258.54L256.73,226.89L257.47,229.91L258.2,250.27L258.94,244.93L259.67,251.96L260.41,245.66L261.14,254.31L261.88,247.01L262.61,262.34L263.35,238.12L264.08,233.44L264.82,235.68L265.55,250.24L266.29,238.17L267.02,249.62L267.76,247.83L268.49,252.12L269.23,272.71L269.96,255.21L270.7,249.93L271.43,235.3L272.16,249.55L272.9,251.02L273.63,228.2L274.37,248.49L275.1,250.64L275.84,274.68L276.57,245.63L277.31,237.56L278.04,230.3L278.78,253.15L279.51,243.86L280.25,250.61L280.98,240.22L281.72,248.75L282.45,257.26L283.19,247.76L283.92,236.26L284.66,251.6L285.39,245.76L286.13,236.85L286.86,251.39L287.6,248.83L288.33,251.14L289.07,261.73L289.8,254.68L290.54,236.37L291.27,257.13L292,244.57L292.74,249.63L293.47,235.3L294.21,245.87L294.94,247.52L295.68,256.37L296.41,249.12L297.15,252.21L297.88,233.34L298.62,227.83L299.35,244.79L300.09,252.01L300.82,250.33L301.56,246.37L302.29,266.1L303.03,231.34L303.76,258.29L304.5,238.72L305.23,251.23L305.97,251L306.7,255.53L307.44,246.79L308.17,245.57L308.91,264.32L309.64,252.99L310.37,243.47L311.11,248.83L311.84,234.83L312.58,244.19L313.31,252.25L314.05,252.74L314.78,237.47L315.52,267.67L316.25,248.41L316.99,250.9L317.72,253.25L318.46,242.11L319.19,247.96L319.93,231.75L320.66,244.05L321.4,240.36L322.13,265.22L322.87,252.96L323.6,239.03L324.34,246.28L325.07,248.02L325.81,250.11L326.54,240.28L327.28,244.66L328.01,243.78L328.75,272.7L329.48,248.59L330.21,237.59L330.95,251.97L331.68,249.93L332.42,244.9L333.15,228.9L333.89,251.39L334.62,248.65L335.36,265.53L336.09,231.06L336.83,250.28L337.56,235.29L338.3,252.7L339.03,238.04L339.77,243.29L340.5,232.1L341.24,252.03L341.97,252.32L342.71,256.99L343.44,242.98L344.18,250.37L344.91,252.52L345.65,253.72L346.38,251.06L347.12,250.26L347.85,242.2L348.59,252.21L349.32,277.68L350.05,247.13L350.79,224.72L351.52,244.27L352.26,230.62L352.99,240.49L353.73,251.49L354.46,247.09L355.2,246.12L355.93,264.71L356.67,222.19L357.4,247.09L358.14,248.19L358.87,243.22L359.61,234.21L360.34,235.77L361.08,244.18L361.81,252.8L362.55,271.88L363.28,240.19L364.02,248.56L364.75,249.63L365.49,251.73L366.22,257.18L366.96,255.64L367.69,254.6L368.42,247.25L369.16,278.56L369.89,233.57L370.63,250.27L371.36,248.47L372.1,249.48L372.83,253.57L373.57,252.14L374.3,246.98L375.04,251.29L375.77,270.83L376.51,247.64L377.24,236.36L377.98,241.43L378.71,240.3L379.45,233.13L380.18,232.32L380.92,229.88L381.65,244.8L382.39,267.23L383.12,224.93L383.86,234.91L384.59,249.83L385.33,230.07L386.06,233.72L386.8,245.9L387.53,256.93L388.26,254.36L389,270.04L389.73,237.04L390.47,237.76L391.2,250.52L391.94,248.74L392.67,223.73L393.41,243.08L394.14,243.14L394.88,253.45L395.61,273.14L396.35,252.93L397.08,233.79L397.82,258.37L398.55,231.42L399.29,237.15L400.02,246.52L400.76,251.73L401.31,259.85" style="fill:none;stroke:#F15A60" />
<path d="M405.2,277.58L425.2,277.58" style="fill:none;stroke:#F15A60" />
<text x="240.25" y="-271.91" transform="scale(1, -1)"
	style="font-family:Times;font-weight:normal;font-style:normal;font-size:12px">batch-100kb-ctable-64mb-nosync</text>
</g>
</svg>
