<?xml version="1.0"?>
<!-- Generated by SVGo and Plotinum VG -->
<svg width="425.2pt" height="283.46pt" viewBox="0 0 425.2 283.46"
	xmlns="http://www.w3.org/2000/svg"
	xmlns:xlink="http://www.w3.org/1999/xlink">
<g transform="scale(1, -1) translate(0, -283.46)">
<path d="M0,0L425.2,0L425.2,283.46L0,283.46Z" style="fill:#FFFFFF" />
<text x="209.73" y="-3.8613" transform="scale(1, -1)"
	style="font-family:Times;font-weight:normal;font-style:normal;font-size:12px">database size</text>
<text x="65.244" y="-15.602" transform="scale(1, -1)"
	style="font-family:Times;font-weight:normal;font-style:normal;font-size:10px">4.00 mb</text>
<text x="140.51" y="-15.602" transform="scale(1, -1)"
	style="font-family:Times;font-weight:normal;font-style:normal;font-size:10px">260.00 mb</text>
<text x="220.77" y="-15.602" transform="scale(1, -1)"
	style="font-family:Times;font-weight:normal;font-style:normal;font-size:10px">516.00 mb</text>
<text x="301.03" y="-15.602" transform="scale(1, -1)"
	style="font-family:Times;font-weight:normal;font-style:normal;font-size:10px">772.00 mb</text>
<text x="377.42" y="-15.602" transform="scale(1, -1)"
	style="font-family:Times;font-weight:normal;font-style:normal;font-size:10px">1023.63 mb</text>
<path d="M81.634,25.23L81.634,33.23" style="fill:none;stroke:#000000;stroke-width:0.5" />
<path d="M161.89,25.23L161.89,33.23" style="fill:none;stroke:#000000;stroke-width:0.5" />
<path d="M242.16,25.23L242.16,33.23" style="fill:none;stroke:#000000;stroke-width:0.5" />
<path d="M322.42,25.23L322.42,33.23" style="fill:none;stroke:#000000;stroke-width:0.5" />
<path d="M401.31,25.23L401.31,33.23" style="fill:none;stroke:#000000;stroke-width:0.5" />
<path d="M81.114,33.23L401.31,33.23" style="fill:none;stroke:#000000;stroke-width:0.5" />
<g transform="rotate(90)">
<text x="144.86" y="11.555" transform="scale(1, -1)"
	style="font-family:Times;font-weight:normal;font-style:normal;font-size:12px">speed</text>
</g>
<text x="15.416" y="-86.512" transform="scale(1, -1)"
	style="font-family:Times;font-weight:normal;font-style:normal;font-size:10px">256.00 mb/s</text>
<text x="15.416" y="-165.2" transform="scale(1, -1)"
	style="font-family:Times;font-weight:normal;font-style:normal;font-size:10px">288.00 mb/s</text>
<text x="15.416" y="-243.89" transform="scale(1, -1)"
	style="font-family:Times;font-weight:normal;font-style:normal;font-size:10px">320.00 mb/s</text>
<text x="15.416" y="-273.84" transform="scale(1, -1)"
	style="font-family:Times;font-weight:normal;font-style:normal;font-size:10px">332.18 mb/s</text>
<path d="M67.364,91.233L75.364,91.233" style="fill:none;stroke:#000000;stroke-width:0.5" />
<path d="M67.364,169.92L75.364,169.92" style="fill:none;stroke:#000000;stroke-width:0.5" />
<path d="M67.364,248.61L75.364,248.61" style="fill:none;stroke:#000000;stroke-width:0.5" />
<path d="M67.364,278.56L75.364,278.56" style="fill:none;stroke:#000000;stroke-width:0.5" />
<path d="M75.364,38.48L75.364,278.56" style="fill:none;stroke:#000000;stroke-width:0.5" />
<path d="M81.114,38.48L81.849,212.04L82.584,233.07L83.319,244.53L84.053,256.07L84.788,247.58L85.523,236.04L86.258,239.42L86.993,244.59L87.728,244.6L88.462,248.66L89.197,246.88L89.932,248.1L90.667,265.19L91.402,228.5L92.136,245.9L92.871,243.84L93.606,243.49L94.341,251.84L95.076,231.91L95.81,246.63L96.545,247L97.28,248.09L98.015,250.7L98.75,235.37L99.485,246.36L100.22,245.87L100.95,248.42L101.69,251.51L102.42,244.84L103.16,250.93L103.89,278.56L104.63,243.39L105.36,251.25L106.1,215.49L106.83,240.31L107.57,238.61L108.3,244.11L109.04,245.6L109.77,214.56L110.51,269.61L111.24,246.35L111.98,240.9L112.71,243.22L113.45,232.89L114.18,227.45L114.92,230.98L115.65,226.33L116.39,238.94L117.12,270.19L117.85,242.54L118.59,241.56L119.32,246.95L120.06,236.79L120.79,242.53L121.53,237.93L122.26,230.96L123,249.52L123.73,266.73L124.47,248.83L125.2,247.12L125.94,245.43L126.67,250.24L127.41,236.95L128.14,248.95L128.88,245.58L129.61,247.87L130.35,270.12L131.08,247.09L131.82,236.92L132.55,250.65L133.29,243.53L134.02,252.37L134.76,241.56L135.49,243.42L136.23,239.88L136.96,253.57L137.69,242.19L138.43,226.45L139.16,248.47L139.9,241.46L140.63,250.29L141.37,236.8L142.1,245.81L142.84,247.32L143.57,249.48L144.31,254.85L145.04,221.35L145.78,245.73L146.51,247L147.25,244.62L147.98,240.34L148.72,245.23L149.45,224.41L150.19,233.38L150.92,257.63L151.66,223.89L152.39,232.56L153.13,221.88L153.86,241.75L154.6,245.99L155.33,243.56L156.06,231.14L156.8,208.69L157.53,243.11L158.27,237.97L159,241.73L159.74,235.62L160.47,241.52L161.21,240.17L161.94,248.13L162.68,228.07L163.41,242.41L164.15,243.63L164.88,243.26L165.62,244.67L166.35,233.86L167.09,234.56L167.82,231.51L168.56,236.45L169.29,222.31L170.03,243.68L170.76,219.55L171.5,277.56L172.23,241.44L172.97,245.55L173.7,230.34L174.44,230.46L175.17,243.11L175.9,246.67L176.64,246.53L177.37,226.23L178.11,270.08L178.84,245.26L179.58,224.57L180.31,242.12L181.05,246.14L181.78,251.78L182.52,243.52L183.25,238.72L183.99,243.12L184.72,266.2L185.46,248.62L186.19,250.31L186.93,241.51L187.66,244.59L188.4,231.04L189.13,232.69L189.87,243.98L190.6,250.05L191.34,269.27L192.07,226.96L192.81,247.73L193.54,230.66L194.27,234.84L195.01,246.42L195.74,249.28L196.48,239.09L197.21,241.18L197.95,271.35L198.68,239.72L199.42,232.51L200.15,224.75L200.89,242.23L201.62,239.82L202.36,250.78L203.09,242.88L203.83,240.41L204.56,249.11L205.3,237.34L206.03,240.99L206.77,241.58L207.5,245.75L208.24,246.9L208.97,242.02L209.71,234.65L210.44,236.77L211.18,254.83L211.91,252.45L212.65,224.66L213.38,242.47L214.11,249.03L214.85,221.21L215.58,237.1L216.32,232.11L217.05,240.73L217.79,219.1L218.52,257.53L219.26,196.52L219.99,250.04L220.73,227.05L221.46,241.79L222.2,228.65L222.93,225.28L223.67,237.4L224.4,239.72L225.14,272.77L225.87,228.28L226.61,234.64L227.34,242.65L228.08,234.91L228.81,237.86L229.55,247.22L230.28,228.53L231.02,228.16L231.75,269.1L232.49,227.94L233.22,227.13L233.95,227.07L234.69,238.4L235.42,243.69L236.16,219.39L236.89,219.68L237.63,240.03L238.36,259.77L239.1,240.61L239.83,246.17L240.57,234.64L241.3,231.59L242.04,249.63L242.77,242.64L243.51,248.45L244.24,248.86L244.98,259.74L245.71,250.47L246.45,248.28L247.18,231.07L247.92,245.86L248.65,244.19L249.39,215.54L250.12,255.44L250.86,237.7L251.59,267.26L252.32,245.84L253.06,246.01L253.79,228.35L254.53,241.27L255.26,246.96L256,245.58L256.73,239.99L257.47,234.14L258.2,258.33L258.94,232.38L259.67,231.77L260.41,226.27L261.14,240L261.88,233.67L262.61,222.77L263.35,239.36L264.08,240.53L264.82,266.07L265.55,236.17L266.29,241.97L267.02,240.56L267.76,243.36L268.49,244.46L269.23,248.38L269.96,245.42L270.7,240.87L271.43,265.52L272.16,244.84L272.9,245.99L273.63,230.53L274.37,246.55L275.1,223.59L275.84,239.45L276.57,245.5L277.31,243.59L278.04,246.06L278.78,220.19L279.51,233.2L280.25,242.38L280.98,240.96L281.72,253.82L282.45,234.52L283.19,250.62L283.92,227.6L284.66,250.29L285.39,253.66L286.13,247.48L286.86,244.82L287.6,235.39L288.33,246.79L289.07,218.6L289.8,226.07L290.54,244.67L291.27,232.91L292,266.01L292.74,224.85L293.47,246.51L294.21,248.78L294.94,246.09L295.68,244.58L296.41,228.24L297.15,246.71L297.88,252.73L298.62,271.48L299.35,230.17L300.09,242.87L300.82,236.69L301.56,244.02L302.29,246.33L303.03,234.35L303.76,240.08L304.5,229.09L305.23,257.18L305.97,239.69L306.7,242.68L307.44,239.82L308.17,242.35L308.91,242.53L309.64,228.75L310.37,246.38L311.11,233.9L311.84,260.24L312.58,236.5L313.31,238.56L314.05,246.41L314.78,216.09L315.52,240.36L316.25,241.34L316.99,226.75L317.72,232.6L318.46,249.28L319.19,270.23L319.93,240.79L320.66,230.22L321.4,245.41L322.13,250.79L322.87,242.3L323.6,241.98L324.34,208.69L325.07,241.73L325.81,234.69L326.54,262.09L327.28,243.63L328.01,247.55L328.75,236.03L329.48,240.89L330.21,246.35L330.95,248.8L331.68,236.45L332.42,235.52L333.15,274.5L333.89,231.73L334.62,249.45L335.36,249.7L336.09,226.16L336.83,251.65L337.56,214.41L338.3,244.81L339.03,236.27L339.77,274.56L340.5,254.83L341.24,246.92L341.97,257.12L342.71,243.13L343.44,243.46L344.18,244.61L344.91,231.98L345.65,250.17L346.38,276.44L347.12,248.59L347.85,249L348.59,233.66L349.32,249.45L350.05,232.93L350.79,247.03L351.52,254.74L352.26,240.81L352.99,268.9L353.73,243.43L354.46,248.47L355.2,245.87L355.93,229.1L356.67,239.61L357.4,250.02L358.14,249.83L358.87,247.59L359.61,262.71L360.34,217.64L361.08,247.21L361.81,234.36L362.55,246.63L363.28,231.06L364.02,240.75L364.75,234.78L365.49,247.59L366.22,274.59L366.96,225.17L367.69,246.86L368.42,235.61L369.16,230.16L369.89,241.38L370.63,249.12L371.36,248.84L372.1,234.68L372.83,260.69L373.57,232.11L374.3,249.82L375.04,245.87L375.77,237.24L376.51,233.47L377.24,243.5L377.98,249.1L378.71,214.96L379.45,253L380.18,244.37L380.92,245.6L381.65,239.32L382.39,247.2L383.12,236.73L383.86,240.34L384.59,230.76L385.33,249.58L386.06,271.54L386.8,248.45L387.53,251.36L388.26,249.27L389,225.3L389.73,245.08L390.47,239.58L391.2,249.94L391.94,232.04L392.67,223.51L393.41,252.11L394.14,234.9L394.88,235.37L395.61,239.79L396.35,236.54L397.08,241.45L397.82,234.31L398.55,230.42L399.29,245.17L400.02,259.38L400.76,241.48L401.31,226.26" style="fill:none;stroke:#F15A60" />
<path d="M405.2,277.58L425.2,277.58" style="fill:none;stroke:#F15A60" />
<text x="240.25" y="-271.91" transform="scale(1, -1)"
	style="font-family:Times;font-weight:normal;font-style:normal;font-size:12px">batch-100kb-ctable-64mb-nosync</text>
</g>
</svg>
