<?xml version="1.0"?>
<!-- Generated by SVGo and Plotinum VG -->
<svg width="425.2pt" height="283.46pt" viewBox="0 0 425.2 283.46"
	xmlns="http://www.w3.org/2000/svg"
	xmlns:xlink="http://www.w3.org/1999/xlink">
<g transform="scale(1, -1) translate(0, -283.46)">
<path d="M0,0L425.2,0L425.2,283.46L0,283.46Z" style="fill:#FFFFFF" />
<text x="209.73" y="-3.8613" transform="scale(1, -1)"
	style="font-family:Times;font-weight:normal;font-style:normal;font-size:12px">database size</text>
<text x="65.244" y="-15.602" transform="scale(1, -1)"
	style="font-family:Times;font-weight:normal;font-style:normal;font-size:10px">4.00 mb</text>
<text x="140.51" y="-15.602" transform="scale(1, -1)"
	style="font-family:Times;font-weight:normal;font-style:normal;font-size:10px">260.00 mb</text>
<text x="220.77" y="-15.602" transform="scale(1, -1)"
	style="font-family:Times;font-weight:normal;font-style:normal;font-size:10px">516.00 mb</text>
<text x="301.03" y="-15.602" transform="scale(1, -1)"
	style="font-family:Times;font-weight:normal;font-style:normal;font-size:10px">772.00 mb</text>
<text x="377.42" y="-15.602" transform="scale(1, -1)"
	style="font-family:Times;font-weight:normal;font-style:normal;font-size:10px">1023.63 mb</text>
<path d="M81.634,25.23L81.634,33.23" style="fill:none;stroke:#000000;stroke-width:0.5" />
<path d="M161.89,25.23L161.89,33.23" style="fill:none;stroke:#000000;stroke-width:0.5" />
<path d="M242.16,25.23L242.16,33.23" style="fill:none;stroke:#000000;stroke-width:0.5" />
<path d="M322.42,25.23L322.42,33.23" style="fill:none;stroke:#000000;stroke-width:0.5" />
<path d="M401.31,25.23L401.31,33.23" style="fill:none;stroke:#000000;stroke-width:0.5" />
<path d="M81.114,33.23L401.31,33.23" style="fill:none;stroke:#000000;stroke-width:0.5" />
<g transform="rotate(90)">
<text x="144.86" y="11.555" transform="scale(1, -1)"
	style="font-family:Times;font-weight:normal;font-style:normal;font-size:12px">speed</text>
</g>
<text x="15.416" y="-104.17" transform="scale(1, -1)"
	style="font-family:Times;font-weight:normal;font-style:normal;font-size:10px">256.00 mb/s</text>
<text x="15.416" y="-176.27" transform="scale(1, -1)"
	style="font-family:Times;font-weight:normal;font-style:normal;font-size:10px">288.00 mb/s</text>
<text x="15.416" y="-248.37" transform="scale(1, -1)"
	style="font-family:Times;font-weight:normal;font-style:normal;font-size:10px">320.00 mb/s</text>
<text x="15.416" y="-273.84" transform="scale(1, -1)"
	style="font-family:Times;font-weight:normal;font-style:normal;font-size:10px">331.30 mb/s</text>
<path d="M67.364,108.89L75.364,108.89" style="fill:none;stroke:#000000;stroke-width:0.5" />
<path d="M67.364,180.99L75.364,180.99" style="fill:none;stroke:#000000;stroke-width:0.5" />
<path d="M67.364,253.09L75.364,253.09" style="fill:none;stroke:#000000;stroke-width:0.5" />
<path d="M67.364,278.56L75.364,278.56" style="fill:none;stroke:#000000;stroke-width:0.5" />
<path d="M75.364,38.48L75.364,278.56" style="fill:none;stroke:#000000;stroke-width:0.5" />
<path d="M81.114,54.806L81.849,231.78L82.584,242.07L83.319,254.04L84.053,271.6L84.788,247.55L85.523,245.75L86.258,246.88L86.993,241.94L87.728,239.69L88.462,249.16L89.197,263.1L89.932,245.46L90.667,254.36L91.402,242.82L92.136,252.11L92.871,231L93.606,248.18L94.341,253.04L95.076,246.22L95.81,234.89L96.545,244.02L97.28,259.01L98.015,241.89L98.75,248.71L99.485,235.86L100.22,235.18L100.95,250.3L101.69,240.7L102.42,253.88L103.16,244.15L103.89,260.53L104.63,235.08L105.36,254.1L106.1,250.2L106.83,234.97L107.57,235.95L108.3,226.91L109.04,254.09L109.77,251.45L110.51,277.26L111.24,251.56L111.98,244.37L112.71,242.96L113.45,242.04L114.18,244.98L114.92,246.83L115.65,247.48L116.39,242.61L117.12,268.55L117.85,249.55L118.59,248.05L119.32,246.84L120.06,241.57L120.79,238.98L121.53,251.54L122.26,242.29L123,248.8L123.73,257.08L124.47,250.35L125.2,224.89L125.94,244.3L126.67,238.53L127.41,246.46L128.14,252.83L128.88,220.69L129.61,253.47L130.35,264.09L131.08,244.19L131.82,226.06L132.55,226.02L133.29,238.82L134.02,239.29L134.76,237.35L135.49,248.28L136.23,238.07L136.96,265.2L137.69,229.21L138.43,233.41L139.16,238.57L139.9,235.56L140.63,248.71L141.37,251.03L142.1,241.35L142.84,247.74L143.57,260.79L144.31,221.46L145.04,249.59L145.78,246.47L146.51,248.48L147.25,253.86L147.98,254.65L148.72,225.73L149.45,245.24L150.19,273.72L150.92,250.12L151.66,238.75L152.39,241.74L153.13,245.42L153.86,247.18L154.6,230.76L155.33,245.36L156.06,249.34L156.8,270.26L157.53,249.54L158.27,252.32L159,248.35L159.74,246.68L160.47,248.99L161.21,244.16L161.94,245.53L162.68,251.38L163.41,236.85L164.15,272.07L164.88,234.88L165.62,230.36L166.35,245.14L167.09,225.15L167.82,234.21L168.56,247.35L169.29,245.28L170.03,38.48L170.76,262.82L171.5,253.62L172.23,254.03L172.97,250.91L173.7,230.32L174.44,246.32L175.17,248.7L175.9,252.03L176.64,229.16L177.37,243.13L178.11,225.76L178.84,250.82L179.58,242.11L180.31,242.68L181.05,244.02L181.78,253.88L182.52,228.66L183.25,244.16L183.99,241.53L184.72,257.71L185.46,247.03L186.19,247.62L186.93,243.16L187.66,233.77L188.4,240.84L189.13,249.71L189.87,248.13L190.6,246.12L191.34,259.93L192.07,234.55L192.81,242.71L193.54,231.2L194.27,238.2L195.01,240.19L195.74,230.73L196.48,222.89L197.21,247.12L197.95,254.07L198.68,248.9L199.42,91.644L200.15,107.41L200.89,231.18L201.62,242.44L202.36,257.33L203.09,227.57L203.83,251.72L204.56,249.83L205.3,251.77L206.03,237.82L206.77,238.42L207.5,250.99L208.24,224.45L208.97,274.1L209.71,238.78L210.44,247.34L211.18,251.13L211.91,257.2L212.65,246.9L213.38,241.79L214.11,252.13L214.85,231.57L215.58,269.84L216.32,247.65L217.05,248.08L217.79,247.63L218.52,241.2L219.26,235.76L219.99,248.77L220.73,223.8L221.46,249.35L222.2,249.66L222.93,265.31L223.67,250.3L224.4,244.17L225.14,246.1L225.87,250.91L226.61,250.59L227.34,238.87L228.08,245.5L228.81,243.6L229.55,249.75L230.28,245.74L231.02,251.85L231.75,250.11L232.49,249.98L233.22,245.73L233.95,235.72L234.69,244.56L235.42,245.71L236.16,255.64L236.89,250.7L237.63,239.66L238.36,235.74L239.1,250.69L239.83,250.62L240.57,245.33L241.3,246.37L242.04,231.63L242.77,259.33L243.51,248.85L244.24,239.43L244.98,248.66L245.71,254.41L246.45,234.96L247.18,245.23L247.92,241.07L248.65,252.68L249.39,274.66L250.12,246.68L250.86,248.62L251.59,242.39L252.32,235.2L253.06,237.25L253.79,242.44L254.53,251.09L255.26,255.62L256,278.05L256.73,236.32L257.47,239.29L258.2,230.78L258.94,246.96L259.67,246.95L260.41,241.49L261.14,246.09L261.88,246.87L262.61,275.1L263.35,227.77L264.08,236.6L264.82,246.6L265.55,243.74L266.29,238.94L267.02,249.92L267.76,241.46L268.49,252.49L269.23,265.04L269.96,235.66L270.7,226.63L271.43,248.28L272.16,234.25L272.9,245.44L273.63,245.86L274.37,219.54L275.1,251.23L275.84,237.91L276.57,265.6L277.31,246.9L278.04,249.74L278.78,247.62L279.51,231.5L280.25,246.12L280.98,248L281.72,242.62L282.45,254.06L283.19,269.49L283.92,253.23L284.66,220.74L285.39,251.49L286.13,244.89L286.86,242.75L287.6,230.82L288.33,246.18L289.07,234.76L289.8,265.62L290.54,231.44L291.27,248.3L292,236.59L292.74,239.8L293.47,246.57L294.21,238.64L294.94,235.73L295.68,251.47L296.41,278.56L297.15,233.13L297.88,236.84L298.62,246.9L299.35,229.06L300.09,237.61L300.82,247.04L301.56,250.87L302.29,222.82L303.03,265.9L303.76,244.78L304.5,249.8L305.23,237.73L305.97,236.18L306.7,247.36L307.44,250.09L308.17,252.19L308.91,241.96L309.64,269.23L310.37,246.87L311.11,235.5L311.84,248.19L312.58,248.28L313.31,254.62L314.05,248.73L314.78,222.46L315.52,244.04L316.25,268.96L316.99,238.25L317.72,243.79L318.46,227.51L319.19,245.03L319.93,243.27L320.66,242.06L321.4,246.53L322.13,251.72L322.87,239.13L323.6,258.49L324.34,248.62L325.07,251.46L325.81,238.56L326.54,245.19L327.28,248.91L328.01,250.53L328.75,239.79L329.48,248.83L330.21,273.73L330.95,230.13L331.68,227.58L332.42,238.5L333.15,250.21L333.89,250.5L334.62,230.57L335.36,248.1L336.09,244.81L336.83,270.99L337.56,235.46L338.3,247.94L339.03,234.83L339.77,237.31L340.5,246.61L341.24,223.2L341.97,228.25L342.71,243.92L343.44,248.96L344.18,262.19L344.91,247.94L345.65,255.49L346.38,253.36L347.12,230.16L347.85,235.08L348.59,240.56L349.32,245.1L350.05,232.1L350.79,262.82L351.52,236.35L352.26,252.12L352.99,247.35L353.73,232.93L354.46,229.43L355.2,246.3L355.93,248.78L356.67,234.69L357.4,265.77L358.14,249.53L358.87,253.21L359.61,255.72L360.34,252.38L361.08,251.97L361.81,251.68L362.55,251.6L363.28,248.43L364.02,274.18L364.75,241.44L365.49,244.38L366.22,250.32L366.96,216.79L367.69,247.23L368.42,245.77L369.16,246.86L369.89,247.67L370.63,273.36L371.36,237.11L372.1,250.71L372.83,247.1L373.57,248.82L374.3,244.42L375.04,235.41L375.77,238.94L376.51,248.02L377.24,264.64L377.98,237.14L378.71,252.36L379.45,248.7L380.18,228.3L380.92,239.94L381.65,245.98L382.39,227.11L383.12,245.7L383.86,268.89L384.59,250.24L385.33,230.9L386.06,247.33L386.8,229.23L387.53,243.5L388.26,247.07L389,236.79L389.73,249.43L390.47,271.47L391.2,237.96L391.94,248.77L392.67,240.38L393.41,228.93L394.14,240.83L394.88,253.32L395.61,248.83L396.35,249.33L397.08,251.55L397.82,273.67L398.55,252.11L399.29,251.29L400.02,246.36L400.76,233.37L401.31,255.64" style="fill:none;stroke:#F15A60" />
<path d="M405.2,277.58L425.2,277.58" style="fill:none;stroke:#F15A60" />
<text x="304.22" y="-271.91" transform="scale(1, -1)"
	style="font-family:Times;font-weight:normal;font-style:normal;font-size:12px">batch-100kb-nosync</text>
</g>
</svg>
