<?xml version="1.0"?>
<!-- Generated by SVGo and Plotinum VG -->
<svg width="425.2pt" height="283.46pt" viewBox="0 0 425.2 283.46"
	xmlns="http://www.w3.org/2000/svg"
	xmlns:xlink="http://www.w3.org/1999/xlink">
<g transform="scale(1, -1) translate(0, -283.46)">
<path d="M0,0L425.2,0L425.2,283.46L0,283.46Z" style="fill:#FFFFFF" />
<text x="207.23" y="-3.8613" transform="scale(1, -1)"
	style="font-family:Times;font-weight:normal;font-style:normal;font-size:12px">database size</text>
<text x="60.252" y="-15.602" transform="scale(1, -1)"
	style="font-family:Times;font-weight:normal;font-style:normal;font-size:10px">4.00 mb</text>
<text x="136.77" y="-15.602" transform="scale(1, -1)"
	style="font-family:Times;font-weight:normal;font-style:normal;font-size:10px">260.00 mb</text>
<text x="218.28" y="-15.602" transform="scale(1, -1)"
	style="font-family:Times;font-weight:normal;font-style:normal;font-size:10px">516.00 mb</text>
<text x="299.79" y="-15.602" transform="scale(1, -1)"
	style="font-family:Times;font-weight:normal;font-style:normal;font-size:10px">772.00 mb</text>
<text x="377.42" y="-15.602" transform="scale(1, -1)"
	style="font-family:Times;font-weight:normal;font-style:normal;font-size:10px">1023.63 mb</text>
<path d="M76.642,25.23L76.642,33.23" style="fill:none;stroke:#000000;stroke-width:0.5" />
<path d="M158.16,25.23L158.16,33.23" style="fill:none;stroke:#000000;stroke-width:0.5" />
<path d="M239.67,25.23L239.67,33.23" style="fill:none;stroke:#000000;stroke-width:0.5" />
<path d="M321.18,25.23L321.18,33.23" style="fill:none;stroke:#000000;stroke-width:0.5" />
<path d="M401.31,25.23L401.31,33.23" style="fill:none;stroke:#000000;stroke-width:0.5" />
<path d="M76.114,33.23L401.31,33.23" style="fill:none;stroke:#000000;stroke-width:0.5" />
<g transform="rotate(90)">
<text x="144.86" y="11.555" transform="scale(1, -1)"
	style="font-family:Times;font-weight:normal;font-style:normal;font-size:12px">speed</text>
</g>
<text x="20.416" y="-34.172" transform="scale(1, -1)"
	style="font-family:Times;font-weight:normal;font-style:normal;font-size:10px">2.00 mb/s</text>
<text x="15.416" y="-124.63" transform="scale(1, -1)"
	style="font-family:Times;font-weight:normal;font-style:normal;font-size:10px">34.00 mb/s</text>
<text x="15.416" y="-215.09" transform="scale(1, -1)"
	style="font-family:Times;font-weight:normal;font-style:normal;font-size:10px">66.00 mb/s</text>
<text x="15.416" y="-273.84" transform="scale(1, -1)"
	style="font-family:Times;font-weight:normal;font-style:normal;font-size:10px">86.78 mb/s</text>
<path d="M62.364,38.894L70.364,38.894" style="fill:none;stroke:#000000;stroke-width:0.5" />
<path d="M62.364,129.35L70.364,129.35" style="fill:none;stroke:#000000;stroke-width:0.5" />
<path d="M62.364,219.82L70.364,219.82" style="fill:none;stroke:#000000;stroke-width:0.5" />
<path d="M62.364,278.56L70.364,278.56" style="fill:none;stroke:#000000;stroke-width:0.5" />
<path d="M70.364,38.48L70.364,278.56" style="fill:none;stroke:#000000;stroke-width:0.5" />
<path d="M76.114,246.52L76.861,234.48L77.607,241.71L78.353,247.2L79.099,235.35L79.846,226.54L80.592,259.48L81.338,179.04L82.085,199.48L82.831,265L83.577,258.86L84.323,248.62L85.07,90.249L85.816,194.03L86.562,259.18L87.309,262.37L88.055,69.424L88.801,278.56L89.547,188.9L90.294,264.4L91.04,264.43L91.786,59.789L92.533,186.86L93.279,256.5L94.025,269.91L94.771,265.73L95.518,61.629L96.264,112.94L97.01,254.39L97.757,210.76L98.503,253.05L99.249,61.99L99.995,78.369L100.74,256.36L101.49,255.67L102.23,262.71L102.98,61.852L103.73,64.008L104.47,260.81L105.22,251.02L105.97,252.7L106.71,61.13L107.46,189.76L108.2,261.59L108.95,255.58L109.7,61.291L110.44,256.8L111.19,114.41L111.94,263.38L112.68,258.11L113.43,61.355L114.17,78.243L114.92,219.03L115.67,263.92L116.41,266.91L117.16,61.477L117.91,64.459L118.65,239.38L119.4,258.37L120.15,64.403L120.89,59.191L121.64,258.49L122.38,60.626L123.13,208.51L123.88,170.38L124.62,261.98L125.37,61.38L126.12,99.149L126.86,260.81L127.61,251.22L128.35,275.35L129.1,61.286L129.85,73.766L130.59,256.13L131.34,62.79L132.09,223.68L132.83,61.49L133.58,59.133L134.32,57.58L135.07,261.15L135.82,251.33L136.56,268.42L137.31,264.93L138.06,59.808L138.8,129.34L139.55,243.33L140.29,223.3L141.04,267.95L141.79,61.361L142.53,82.124L143.28,262.98L144.03,244.64L144.77,257.4L145.52,59.55L146.26,66.913L147.01,259.68L147.76,63.996L148.5,61.322L149.25,248.43L150,61.713L150.74,57.708L151.49,138.22L152.24,62.063L152.98,124.43L153.73,262.3L154.47,261.44L155.22,61.057L155.97,83.156L156.71,252.31L157.46,235.02L158.21,248.89L158.95,61.859L159.7,69.776L160.44,203.19L161.19,63.71L161.94,249.68L162.68,61.579L163.43,60.499L164.18,61.879L164.92,56.65L165.67,56.597L166.41,148.59L167.16,256.24L167.91,195.95L168.65,268.58L169.4,60.79L170.15,88.16L170.89,260.75L171.64,264.48L172.38,263.93L173.13,61.105L173.88,67.235L174.62,234.06L175.37,256.43L176.12,64.426L176.86,60.07L177.61,61.449L178.36,61.731L179.1,60.76L179.85,130.51L180.59,58.406L181.34,133.17L182.09,61.821L182.83,123.24L183.58,247.29L184.33,206.31L185.07,60.629L185.82,82.077L186.56,271.69L187.31,248.23L188.06,249.81L188.8,59.511L189.55,66.339L190.3,251.29L191.04,64.242L191.79,61.695L192.53,253.96L193.28,61.019L194.03,61.326L194.77,60.329L195.52,61.674L196.27,56.876L197.01,125.12L197.76,126.19L198.5,62.869L199.25,100.53L200,253.49L200.74,60.477L201.49,203.29L202.24,72.755L202.98,263.16L203.73,64.117L204.48,61.332L205.22,203.71L205.97,62.155L206.71,61.707L207.46,59.926L208.21,61.683L208.95,62.625L209.7,147.53L210.45,56.289L211.19,50.215L211.94,256.77L212.68,252.77L213.43,260L214.18,249.22L214.92,59.9L215.67,76.314L216.42,261.78L217.16,258.99L217.91,60.665L218.65,206.85L219.4,63.263L220.15,264.81L220.89,64.825L221.64,66.798L222.39,256.43L223.13,253.09L223.88,60.143L224.62,98.826L225.37,258.49L226.12,61.132L226.86,250.32L227.61,71.539L228.36,255.06L229.1,64.483L229.85,61.601L230.6,61.745L231.34,259.18L232.09,61.226L232.83,59.83L233.58,57.001L234.33,131.74L235.07,61.572L235.82,150.78L236.57,193.82L237.31,258.63L238.06,60.894L238.8,89.498L239.55,234.36L240.3,246.56L241.04,248.4L241.79,60.086L242.54,69.457L243.28,242.5L244.03,64.256L244.77,268.11L245.52,61.908L246.27,61.889L247.01,61.853L247.76,60.886L248.51,139.16L249.25,62.4L250,62.845L250.74,62.182L251.49,55.347L252.24,47.924L252.98,255.44L253.73,241.77L254.48,266.89L255.22,264.23L255.97,60.725L256.72,90.319L257.46,257.71L258.21,121.91L258.95,61.437L259.7,60.808L260.45,60.93L261.19,61.616L261.94,271.27L262.69,59.015L263.43,61.882L264.18,63.29L264.92,62.682L265.67,59.908L266.42,134.13L267.16,42.203L267.91,255.25L268.66,262.8L269.4,259.41L270.15,242.22L270.89,263.41L271.64,61.349L272.39,66.125L273.13,251.22L273.88,63.575L274.63,206.4L275.37,61.906L276.12,61.847L276.86,61.586L277.61,61.263L278.36,62.3L279.1,124.95L279.85,64.996L280.6,61.982L281.34,62.181L282.09,39.967L282.84,225.64L283.58,255.12L284.33,261.57L285.07,251.63L285.82,71.671L286.57,58.024L287.31,243.54L288.06,252.36L288.81,65.224L289.55,61.432L290.3,61.385L291.04,64.924L291.79,147.5L292.54,145.18L293.28,60.743L294.03,146.44L294.78,262.47L295.52,60.693L296.27,208.74L297.01,124.37L297.76,133.11L298.51,187.31L299.25,231.21L300,61.151L300.75,248.48L301.49,84.49L302.24,108.41L302.98,60.77L303.73,61.633L304.48,61.337L305.22,264L305.97,59.079L306.72,62.197L307.46,61.855L308.21,62.369L308.95,56.699L309.7,147.95L310.45,48.232L311.19,269.73L311.94,266.5L312.69,204.55L313.43,210.89L314.18,62.343L314.93,65.002L315.67,260.22L316.42,64.242L317.16,61.289L317.91,213.92L318.66,60.721L319.4,62.055L320.15,59.746L320.9,62.576L321.64,62.781L322.39,128.26L323.13,62.849L323.88,63.284L324.63,40.048L325.37,263.62L326.12,245.83L326.87,203.75L327.61,232.13L328.36,75.542L329.1,58.223L329.85,177.87L330.6,62.155L331.34,251.92L332.09,60.471L332.84,61.599L333.58,60.859L334.33,61.117L335.07,142.97L335.82,62.64L336.57,120.67L337.31,62.781L338.06,124.47L338.81,246.01L339.55,242.2L340.3,60.39L341.05,124.01L341.79,117.15L342.54,196.87L343.28,261.3L344.03,224.46L344.78,60.219L345.52,85.978L346.27,97.016L347.02,61.221L347.76,61.758L348.51,270.51L349.25,61.799L350,60.063L350.75,61.732L351.49,61.993L352.24,57.118L352.99,127.7L353.73,49.17L354.48,253.53L355.22,64.48L355.97,61.427L356.72,247.46L357.46,59.958L358.21,58.131L358.96,157.69L359.7,71.038L360.45,217.93L361.19,258.91L361.94,64.478L362.69,61.836L363.43,61.67L364.18,60.85L364.93,62.605L365.67,142.44L366.42,62.314L367.17,63.023L367.91,61.007L368.66,39.84L369.4,229.86L370.15,258.94L370.9,64.401L371.64,61.849L372.39,61.102L373.14,58.551L373.88,213.66L374.63,247.1L375.37,60.474L376.12,59.741L376.87,249.62L377.61,64.452L378.36,251.16L379.11,61.919L379.85,62.13L380.6,59.73L381.34,62.077L382.09,62.756L382.84,123.58L383.58,63.246L384.33,63.143L385.08,38.48L385.82,227.48L386.57,64.919L387.31,223.12L388.06,61.988L388.81,60.156L389.55,61.912L390.3,60.856L391.05,62.129L391.79,264.11L392.54,56.239L393.29,124.97L394.03,68.098L394.78,56.911L395.52,61.765L396.27,253.79L397.02,62.169L397.76,61.826L398.51,58.708L399.26,139.24L400,117.82L400.75,62.954L401.31,74.201" style="fill:none;stroke:#F15A60" />
<path d="M405.2,277.58L425.2,277.58" style="fill:none;stroke:#F15A60" />
<text x="240.25" y="-271.91" transform="scale(1, -1)"
	style="font-family:Times;font-weight:normal;font-style:normal;font-size:12px">batch-100kb-ctable-64mb-nosync</text>
</g>
</svg>
