<?xml version="1.0"?>
<!-- Generated by SVGo and Plotinum VG -->
<svg width="425.2pt" height="283.46pt" viewBox="0 0 425.2 283.46"
	xmlns="http://www.w3.org/2000/svg"
	xmlns:xlink="http://www.w3.org/1999/xlink">
<g transform="scale(1, -1) translate(0, -283.46)">
<path d="M0,0L425.2,0L425.2,283.46L0,283.46Z" style="fill:#FFFFFF" />
<text x="207.23" y="-3.8613" transform="scale(1, -1)"
	style="font-family:Times;font-weight:normal;font-style:normal;font-size:12px">database size</text>
<text x="60.252" y="-15.602" transform="scale(1, -1)"
	style="font-family:Times;font-weight:normal;font-style:normal;font-size:10px">4.00 mb</text>
<text x="136.77" y="-15.602" transform="scale(1, -1)"
	style="font-family:Times;font-weight:normal;font-style:normal;font-size:10px">260.00 mb</text>
<text x="218.28" y="-15.602" transform="scale(1, -1)"
	style="font-family:Times;font-weight:normal;font-style:normal;font-size:10px">516.00 mb</text>
<text x="299.79" y="-15.602" transform="scale(1, -1)"
	style="font-family:Times;font-weight:normal;font-style:normal;font-size:10px">772.00 mb</text>
<text x="377.42" y="-15.602" transform="scale(1, -1)"
	style="font-family:Times;font-weight:normal;font-style:normal;font-size:10px">1023.63 mb</text>
<path d="M76.642,25.23L76.642,33.23" style="fill:none;stroke:#000000;stroke-width:0.5" />
<path d="M158.16,25.23L158.16,33.23" style="fill:none;stroke:#000000;stroke-width:0.5" />
<path d="M239.67,25.23L239.67,33.23" style="fill:none;stroke:#000000;stroke-width:0.5" />
<path d="M321.18,25.23L321.18,33.23" style="fill:none;stroke:#000000;stroke-width:0.5" />
<path d="M401.31,25.23L401.31,33.23" style="fill:none;stroke:#000000;stroke-width:0.5" />
<path d="M76.114,33.23L401.31,33.23" style="fill:none;stroke:#000000;stroke-width:0.5" />
<g transform="rotate(90)">
<text x="144.86" y="11.555" transform="scale(1, -1)"
	style="font-family:Times;font-weight:normal;font-style:normal;font-size:12px">speed</text>
</g>
<text x="20.416" y="-35.694" transform="scale(1, -1)"
	style="font-family:Times;font-weight:normal;font-style:normal;font-size:10px">2.00 mb/s</text>
<text x="15.416" y="-126.36" transform="scale(1, -1)"
	style="font-family:Times;font-weight:normal;font-style:normal;font-size:10px">34.00 mb/s</text>
<text x="15.416" y="-217.02" transform="scale(1, -1)"
	style="font-family:Times;font-weight:normal;font-style:normal;font-size:10px">66.00 mb/s</text>
<text x="15.416" y="-273.84" transform="scale(1, -1)"
	style="font-family:Times;font-weight:normal;font-style:normal;font-size:10px">86.05 mb/s</text>
<path d="M62.364,40.416L70.364,40.416" style="fill:none;stroke:#000000;stroke-width:0.5" />
<path d="M62.364,131.08L70.364,131.08" style="fill:none;stroke:#000000;stroke-width:0.5" />
<path d="M62.364,221.74L70.364,221.74" style="fill:none;stroke:#000000;stroke-width:0.5" />
<path d="M62.364,278.56L70.364,278.56" style="fill:none;stroke:#000000;stroke-width:0.5" />
<path d="M70.364,38.48L70.364,278.56" style="fill:none;stroke:#000000;stroke-width:0.5" />
<path d="M76.114,246.55L76.861,232.19L77.607,241.08L78.353,249.67L79.099,246.88L79.846,250.84L80.592,258.84L81.338,187.45L82.085,202.3L82.831,262.83L83.577,261.59L84.323,250.75L85.07,91.382L85.816,173.53L86.562,263.65L87.309,267.83L88.055,70.922L88.801,278.25L89.547,188.87L90.294,267.28L91.04,268.95L91.786,62.021L92.533,190.2L93.279,261.37L94.025,268.93L94.771,269.24L95.518,63.278L96.264,114.32L97.01,247.15L97.757,270.76L98.503,268.49L99.249,63.562L99.995,77.109L100.74,187.33L101.49,255.84L102.23,261.13L102.98,63.713L103.73,66.302L104.47,263.41L105.22,256.6L105.97,255.15L106.71,62.548L107.46,188.29L108.2,252.11L108.95,256.47L109.7,62.711L110.44,266.38L111.19,115.08L111.94,266.92L112.68,268.78L113.43,62.968L114.17,79.835L114.92,258.85L115.67,192.23L116.41,259.14L117.16,63.151L117.91,66.222L118.65,244.69L119.4,272.89L120.15,64.201L120.89,61.515L121.64,261.62L122.38,62.203L123.13,208.82L123.88,190.47L124.62,266.41L125.37,62.946L126.12,100.71L126.86,254.61L127.61,251.49L128.35,271.08L129.1,61.599L129.85,75.676L130.59,253.21L131.34,65.706L132.09,242.21L132.83,62.406L133.58,60.838L134.32,58.708L135.07,244.44L135.82,252.63L136.56,258.44L137.31,264.02L138.06,62.747L138.8,131.21L139.55,260.37L140.29,199.33L141.04,273.5L141.79,63.1L142.53,85.076L143.28,262.67L144.03,243.39L144.77,254.62L145.52,63.159L146.26,68.606L147.01,264.8L147.76,64.626L148.5,62.585L149.25,258.36L150,63.351L150.74,59.336L151.49,126.48L152.24,64.168L152.98,129.67L153.73,263.13L154.47,264.43L155.22,62.733L155.97,90.707L156.71,258.54L157.46,256.67L158.21,201.25L158.95,61.493L159.7,71.552L160.44,264.87L161.19,65.636L161.94,258.04L162.68,63.112L163.43,63.279L164.18,62.171L164.92,58.489L165.67,58.161L166.41,151.35L167.16,259.11L167.91,198.39L168.65,267.85L169.4,62.456L170.15,90.069L170.89,259.7L171.64,189.5L172.38,262.73L173.13,61.764L173.88,70.59L174.62,254.23L175.37,264.59L176.12,64.355L176.86,62.129L177.61,63.129L178.36,63.256L179.1,63.345L179.85,147.21L180.59,58.138L181.34,140.14L182.09,64.765L182.83,125.06L183.58,245.03L184.33,271.1L185.07,62.048L185.82,80.798L186.56,266.28L187.31,202.85L188.06,245.01L188.8,62.769L189.55,66.588L190.3,261.48L191.04,66.153L191.79,61.775L192.53,262.54L193.28,63.213L194.03,63.35L194.77,62.168L195.52,64.423L196.27,58.303L197.01,135.34L197.76,56.276L198.5,108.75L199.25,201.11L200,250.69L200.74,62.473L201.49,264.63L202.24,74.037L202.98,266.74L203.73,65.54L204.48,62.693L205.22,253.19L205.97,62.53L206.71,63.234L207.46,61.968L208.21,63.713L208.95,63.235L209.7,137.63L210.45,57.354L211.19,52.331L211.94,255.22L212.68,245.45L213.43,259.77L214.18,248.38L214.92,62.803L215.67,77.236L216.42,249.96L217.16,200.59L217.91,62.636L218.65,264.47L219.4,65.119L220.15,263.31L220.89,66.443L221.64,69.002L222.39,254.54L223.13,260.17L223.88,61.705L224.62,100.68L225.37,257.08L226.12,62.669L226.86,261.05L227.61,73.272L228.36,266.43L229.1,65.635L229.85,63.358L230.6,62.941L231.34,189.27L232.09,63.223L232.83,61.006L233.58,58.924L234.33,122.77L235.07,63.39L235.82,149.38L236.57,193.96L237.31,262.33L238.06,62.597L238.8,89.49L239.55,229.79L240.3,262.32L241.04,264.54L241.79,62.684L242.54,70.202L243.28,230.48L244.03,66.192L244.77,270.89L245.52,62.989L246.27,61.532L247.01,63.156L247.76,62.984L248.51,134.03L249.25,65.2L250,63.684L250.74,64.13L251.49,57.415L252.24,49.843L252.98,236.98L253.73,268.03L254.48,217.5L255.22,248.56L255.97,62.335L256.72,91.956L257.46,260.94L258.21,121.52L258.95,63.526L259.7,63.359L260.45,63.066L261.19,63.422L261.94,274.1L262.69,59.681L263.43,63.781L264.18,64.26L264.92,64.043L265.67,64.081L266.42,147.03L267.16,43.6L267.91,250.5L268.66,260.75L269.4,267.49L270.15,243.4L270.89,213.75L271.64,63.129L272.39,67.93L273.13,197.19L273.88,66.04L274.63,254.56L275.37,63.475L276.12,63.45L276.86,63.363L277.61,61.822L278.36,64.017L279.1,145.78L279.85,65.002L280.6,64.213L281.34,63.989L282.09,38.48L282.84,245.71L283.58,258.13L284.33,268.88L285.07,261.51L285.82,72.61L286.57,59.334L287.31,218.92L288.06,254.11L288.81,66.821L289.55,62.915L290.3,63.028L291.04,67.048L291.79,167L292.54,128.58L293.28,64.04L294.03,135.12L294.78,257.14L295.52,62.528L296.27,257.2L297.01,114.74L297.76,137.36L298.51,169.59L299.25,256.61L300,63.121L300.75,262.79L301.49,90.471L302.24,112.4L302.98,63.398L303.73,63.078L304.48,62.98L305.22,209.88L305.97,59.513L306.72,64.807L307.46,63.885L308.21,63.346L308.95,57.961L309.7,151.62L310.45,49.804L311.19,260.68L311.94,248.94L312.69,242L313.43,235.13L314.18,64.18L314.93,67.385L315.67,263.81L316.42,66.051L317.16,63.053L317.91,258.59L318.66,63.294L319.4,63.484L320.15,61.013L320.9,63.97L321.64,62.657L322.39,132.86L323.13,63.931L323.88,63.921L324.63,41.574L325.37,260.26L326.12,245.63L326.87,272.28L327.61,263.53L328.36,77.343L329.1,59.85L329.85,160.29L330.6,63.889L331.34,268.26L332.09,63.261L332.84,62.233L333.58,63.263L334.33,61.883L335.07,132.64L335.82,65.909L336.57,134.78L337.31,61.953L338.06,117.16L338.81,254.97L339.55,248.65L340.3,62.761L341.05,125.47L341.79,118.59L342.54,179.43L343.28,213.43L344.03,246.7L344.78,63.362L345.52,90.286L346.27,102.88L347.02,62.015L347.76,62.821L348.51,278.56L349.25,62.069L350,60.518L350.75,65.199L351.49,64.489L352.24,58.781L352.99,128.17L353.73,50.807L354.48,257.41L355.22,66.213L355.97,62.991L356.72,247.3L357.46,61.634L358.21,59.519L358.96,158.28L359.7,73.753L360.45,62.958L361.19,269.93L361.94,63.043L362.69,63.431L363.43,63.111L364.18,62.937L364.93,64.431L365.67,131.31L366.42,64.378L367.17,64.562L367.91,64.015L368.66,43.642L369.4,235.92L370.15,261.76L370.9,66.194L371.64,63.639L372.39,63.597L373.14,60.543L373.88,204.11L374.63,252.57L375.37,58.327L376.12,62.954L376.87,256.67L377.61,65.707L378.36,253.09L379.11,63.299L379.85,63.661L380.6,61.809L381.34,64.649L382.09,64.716L382.84,142.13L383.58,63.087L384.33,65.918L385.08,39.915L385.82,240.17L386.57,66.873L387.31,258.11L388.06,62.03L388.81,63.069L389.55,63.497L390.3,63.253L391.05,62.852L391.79,267.1L392.54,57.789L393.29,61.24L394.03,170.27L394.78,63.042L395.52,62.287L396.27,249.27L397.02,64.116L397.76,63.486L398.51,60.465L399.26,133.16L400,124.29L400.75,63.239L401.31,77.428" style="fill:none;stroke:#F15A60" />
<path d="M405.2,277.58L425.2,277.58" style="fill:none;stroke:#F15A60" />
<text x="240.25" y="-271.91" transform="scale(1, -1)"
	style="font-family:Times;font-weight:normal;font-style:normal;font-size:12px">batch-100kb-ctable-64mb-nosync</text>
</g>
</svg>
