<?xml version="1.0"?>
<!-- Generated by SVGo and Plotinum VG -->
<svg width="425.2pt" height="283.46pt" viewBox="0 0 425.2 283.46"
	xmlns="http://www.w3.org/2000/svg"
	xmlns:xlink="http://www.w3.org/1999/xlink">
<g transform="scale(1, -1) translate(0, -283.46)">
<path d="M0,0L425.2,0L425.2,283.46L0,283.46Z" style="fill:#FFFFFF" />
<text x="207.23" y="-3.8613" transform="scale(1, -1)"
	style="font-family:Times;font-weight:normal;font-style:normal;font-size:12px">database size</text>
<text x="60.252" y="-15.602" transform="scale(1, -1)"
	style="font-family:Times;font-weight:normal;font-style:normal;font-size:10px">4.00 mb</text>
<text x="136.77" y="-15.602" transform="scale(1, -1)"
	style="font-family:Times;font-weight:normal;font-style:normal;font-size:10px">260.00 mb</text>
<text x="218.28" y="-15.602" transform="scale(1, -1)"
	style="font-family:Times;font-weight:normal;font-style:normal;font-size:10px">516.00 mb</text>
<text x="299.79" y="-15.602" transform="scale(1, -1)"
	style="font-family:Times;font-weight:normal;font-style:normal;font-size:10px">772.00 mb</text>
<text x="377.42" y="-15.602" transform="scale(1, -1)"
	style="font-family:Times;font-weight:normal;font-style:normal;font-size:10px">1023.63 mb</text>
<path d="M76.642,25.23L76.642,33.23" style="fill:none;stroke:#000000;stroke-width:0.5" />
<path d="M158.16,25.23L158.16,33.23" style="fill:none;stroke:#000000;stroke-width:0.5" />
<path d="M239.67,25.23L239.67,33.23" style="fill:none;stroke:#000000;stroke-width:0.5" />
<path d="M321.18,25.23L321.18,33.23" style="fill:none;stroke:#000000;stroke-width:0.5" />
<path d="M401.31,25.23L401.31,33.23" style="fill:none;stroke:#000000;stroke-width:0.5" />
<path d="M76.114,33.23L401.31,33.23" style="fill:none;stroke:#000000;stroke-width:0.5" />
<g transform="rotate(90)">
<text x="144.86" y="11.555" transform="scale(1, -1)"
	style="font-family:Times;font-weight:normal;font-style:normal;font-size:12px">speed</text>
</g>
<text x="20.416" y="-35.825" transform="scale(1, -1)"
	style="font-family:Times;font-weight:normal;font-style:normal;font-size:10px">2.00 mb/s</text>
<text x="15.416" y="-127.18" transform="scale(1, -1)"
	style="font-family:Times;font-weight:normal;font-style:normal;font-size:10px">34.00 mb/s</text>
<text x="15.416" y="-218.53" transform="scale(1, -1)"
	style="font-family:Times;font-weight:normal;font-style:normal;font-size:10px">66.00 mb/s</text>
<text x="15.416" y="-273.84" transform="scale(1, -1)"
	style="font-family:Times;font-weight:normal;font-style:normal;font-size:10px">85.37 mb/s</text>
<path d="M62.364,40.546L70.364,40.546" style="fill:none;stroke:#000000;stroke-width:0.5" />
<path d="M62.364,131.9L70.364,131.9" style="fill:none;stroke:#000000;stroke-width:0.5" />
<path d="M62.364,223.25L70.364,223.25" style="fill:none;stroke:#000000;stroke-width:0.5" />
<path d="M62.364,278.56L70.364,278.56" style="fill:none;stroke:#000000;stroke-width:0.5" />
<path d="M70.364,38.48L70.364,278.56" style="fill:none;stroke:#000000;stroke-width:0.5" />
<path d="M76.114,249.61L76.861,238.84L77.607,245.73L78.353,253.86L79.099,248.88L79.846,262.28L80.592,264.37L81.338,269.75L82.085,265.14L82.831,268.23L83.577,272.22L84.323,259.22L85.07,278.56L85.816,272.48L86.562,192.9L87.309,160.22L88.055,253.5L88.801,258.78L89.547,261.37L90.294,269.83L91.04,157.43L91.786,151.42L92.533,170.72L93.279,266.19L94.025,224.57L94.771,155.01L95.518,151.85L96.264,147.43L97.01,142.04L97.757,149.69L98.503,193.82L99.249,266.52L99.995,144.65L100.74,145.99L101.49,141.3L102.23,150.84L102.98,150.07L103.73,75.203L104.47,255.94L105.22,157.63L105.97,133.13L106.71,133.88L107.46,147.87L108.2,149.3L108.95,58.83L109.7,241.45L110.44,165.98L111.19,142.82L111.94,149.02L112.68,152.35L113.43,149.71L114.17,52.283L114.92,250.36L115.67,195.1L116.41,139.37L117.16,146.17L117.91,149.11L118.65,142.37L119.4,153.06L120.15,49.331L120.89,256.09L121.64,152.48L122.38,146.96L123.13,143.3L123.88,150.03L124.62,150.17L125.37,46.035L126.12,252.61L126.86,251.56L127.61,193.21L128.35,153.73L129.1,153.32L129.85,149.97L130.59,146.93L131.34,48.386L132.09,255.21L132.83,215.62L133.58,151.19L134.32,133.99L135.07,143.86L135.82,149.4L136.56,152.13L137.31,44.514L138.06,258.57L138.8,259.11L139.55,206.75L140.29,168.39L141.04,136.32L141.79,148.4L142.53,147.35L143.28,134.17L144.03,48.17L144.77,227.59L145.52,177.55L146.26,151.22L147.01,135.26L147.76,139.23L148.5,150.85L149.25,149.37L150,45.569L150.74,269.97L151.49,255.57L152.24,156.59L152.98,148.71L153.73,150.76L154.47,152.77L155.22,152.04L155.97,45.244L156.71,252.7L157.46,248.4L158.21,195.89L158.95,153.33L159.7,152.95L160.44,145.12L161.19,141.91L161.94,147.78L162.68,43.23L163.43,256.69L164.18,261.82L164.92,259.06L165.67,173.35L166.41,150.73L167.16,152.04L167.91,147.45L168.65,140.62L169.4,44.807L170.15,241.73L170.89,242.97L171.64,191.5L172.38,153.22L173.13,135.99L173.88,134.53L174.62,133.83L175.37,136.29L176.12,43.17L176.86,248.73L177.61,208.27L178.36,246.73L179.1,159.64L179.85,153.44L180.59,143.04L181.34,140.38L182.09,151.24L182.83,44.839L183.58,240.22L184.33,266.17L185.07,232.36L185.82,153.59L186.56,150.1L187.31,146.41L188.06,146.66L188.8,135.41L189.55,43.027L190.3,255.67L191.04,260.89L191.79,256.1L192.53,190.24L193.28,154.8L194.03,138.61L194.77,138.08L195.52,137.24L196.27,44.511L197.01,247.21L197.76,231.81L198.5,243.8L199.25,151.66L200,134.02L200.74,147.04L201.49,143.23L202.24,138.78L202.98,42.928L203.73,216.85L204.48,231.89L205.22,225.61L205.97,198.45L206.71,133.06L207.46,149.05L208.21,139.6L208.95,134.52L209.7,132.89L210.45,42.113L211.19,198.15L211.94,225.86L212.68,191.21L213.43,252.34L214.18,157.19L214.92,137.3L215.67,143.74L216.42,151.97L217.16,150.76L217.91,40.773L218.65,252.3L219.4,254.14L220.15,220.01L220.89,243.56L221.64,199.22L222.39,253.17L223.13,195.82L223.88,147.72L224.62,151.73L225.37,146.89L226.12,133.49L226.86,138.4L227.61,40.576L228.36,265.21L229.1,253.55L229.85,238.15L230.6,237.07L231.34,240.99L232.09,196.57L232.83,150.38L233.58,139.33L234.33,148.55L235.07,150.51L235.82,148.14L236.57,39.872L237.31,254.85L238.06,261.28L238.8,245.91L239.55,250.01L240.3,269.18L241.04,262.73L241.79,257.06L242.54,141.81L243.28,141.26L244.03,143.65L244.77,148.13L245.52,149.59L246.27,39.599L247.01,255.9L247.76,260.81L248.51,249.83L249.25,251.05L250,270.32L250.74,266.31L251.49,268.04L252.24,156.24L252.98,130.44L253.73,135.43L254.48,148.96L255.22,146.23L255.97,39.263L256.72,229.43L257.46,243.17L258.21,191.17L258.95,264.18L259.7,268.3L260.45,206.84L261.19,250.36L261.94,178.46L262.69,134.61L263.43,142.17L264.18,150.98L264.92,150.3L265.67,39.018L266.42,199.58L267.16,265.2L267.91,251.24L268.66,257.75L269.4,269.37L270.15,247.34L270.89,269.04L271.64,267.72L272.39,241.63L273.13,131.79L273.88,119.68L274.63,127.5L275.37,128.68L276.12,134.46L276.86,39.066L277.61,244.32L278.36,252.66L279.1,258.48L279.85,270.09L280.6,216.22L281.34,228.05L282.09,260.53L282.84,234.78L283.58,186.96L284.33,150.7L285.07,149.87L285.82,149.26L286.57,147.44L287.31,38.908L288.06,221.04L288.81,266.81L289.55,258.48L290.3,207.46L291.04,242.9L291.79,237.41L292.54,248.92L293.28,225.73L294.03,263.8L294.78,161.08L295.52,149.22L296.27,136.06L297.01,149.53L297.76,152.1L298.51,38.815L299.25,250.04L300,249.73L300.75,202.84L301.49,244.12L302.24,260.04L302.98,259.45L303.73,258.31L304.48,253.61L305.22,171.33L305.97,134.49L306.72,142.74L307.46,151.62L308.21,147.3L308.95,38.613L309.7,242.77L310.45,265.4L311.19,259.55L311.94,258.26L312.69,258.47L313.43,247.75L314.18,211.89L314.93,253.51L315.67,203.73L316.42,153.28L317.16,147.15L317.91,147.22L318.66,151.44L319.4,150.3L320.15,38.655L320.9,251.55L321.64,255.41L322.39,245.83L323.13,267.72L323.88,273.44L324.63,269.15L325.37,263.93L326.12,239.31L326.87,197.35L327.61,143.12L328.36,135.36L329.1,134.64L329.85,133.65L330.6,38.591L331.34,244.5L332.09,267.82L332.84,256.77L333.58,263.13L334.33,256.87L335.07,234.85L335.82,265.84L336.57,261.58L337.31,203.3L338.06,158.64L338.81,147.51L339.55,146.82L340.3,136.79L341.05,133.94L341.79,38.642L342.54,249.23L343.28,255.79L344.03,239.29L344.78,276.48L345.52,255.43L346.27,261.92L347.02,201.28L347.76,254.01L348.51,182.84L349.25,149.73L350,149.98L350.75,149.28L351.49,133.05L352.24,38.556L352.99,250.24L353.73,205.92L354.48,264.6L355.22,250.82L355.97,260.01L356.72,244.83L357.46,275.45L358.21,265.19L358.96,263.54L359.7,160.53L360.45,146.8L361.19,139.03L361.94,145.3L362.69,146.52L363.43,38.548L364.18,250.09L364.93,261.03L365.67,259.98L366.42,276.87L367.17,241.39L367.91,247.3L368.66,262.58L369.4,245.5L370.15,191.32L370.9,149.09L371.64,138.71L372.39,144.79L373.14,148.42L373.88,38.48L374.63,250.79L375.37,202.53L376.12,247.08L376.87,255.06L377.61,256.51L378.36,232.75L379.11,261L379.85,263.46L380.6,268.56L381.34,152.2L382.09,143.12L382.84,140.19L383.58,142.1L384.33,151.39L385.08,38.495L385.82,251.41L386.57,242.12L387.31,238.77L388.06,274.03L388.81,252.47L389.55,232.29L390.3,219.27L391.05,243.34L391.79,167.24L392.54,150.25L393.29,149.05L394.03,139.81L394.78,135.79L395.52,38.514L396.27,240.05L397.02,265.45L397.76,250.96L398.51,240.64L399.26,213.75L400,241.23L400.75,269.46L401.31,264.77" style="fill:none;stroke:#F15A60" />
<path d="M405.2,277.58L425.2,277.58" style="fill:none;stroke:#F15A60" />
<text x="304.22" y="-271.91" transform="scale(1, -1)"
	style="font-family:Times;font-weight:normal;font-style:normal;font-size:12px">batch-100kb-nosync</text>
</g>
</svg>
