<?xml version="1.0"?>
<!-- Generated by SVGo and Plotinum VG -->
<svg width="425.2pt" height="283.46pt" viewBox="0 0 425.2 283.46"
	xmlns="http://www.w3.org/2000/svg"
	xmlns:xlink="http://www.w3.org/1999/xlink">
<g transform="scale(1, -1) translate(0, -283.46)">
<path d="M0,0L425.2,0L425.2,283.46L0,283.46Z" style="fill:#FFFFFF" />
<text x="207.23" y="-3.8613" transform="scale(1, -1)"
	style="font-family:Times;font-weight:normal;font-style:normal;font-size:12px">database size</text>
<text x="60.361" y="-15.602" transform="scale(1, -1)"
	style="font-family:Times;font-weight:normal;font-style:normal;font-size:10px">4.00 mb</text>
<text x="136.82" y="-15.602" transform="scale(1, -1)"
	style="font-family:Times;font-weight:normal;font-style:normal;font-size:10px">260.00 mb</text>
<text x="218.28" y="-15.602" transform="scale(1, -1)"
	style="font-family:Times;font-weight:normal;font-style:normal;font-size:10px">516.00 mb</text>
<text x="299.73" y="-15.602" transform="scale(1, -1)"
	style="font-family:Times;font-weight:normal;font-style:normal;font-size:10px">772.00 mb</text>
<text x="377.42" y="-15.602" transform="scale(1, -1)"
	style="font-family:Times;font-weight:normal;font-style:normal;font-size:10px">1024.00 mb</text>
<path d="M76.751,25.23L76.751,33.23" style="fill:none;stroke:#000000;stroke-width:0.5" />
<path d="M158.21,25.23L158.21,33.23" style="fill:none;stroke:#000000;stroke-width:0.5" />
<path d="M239.67,25.23L239.67,33.23" style="fill:none;stroke:#000000;stroke-width:0.5" />
<path d="M321.12,25.23L321.12,33.23" style="fill:none;stroke:#000000;stroke-width:0.5" />
<path d="M401.31,25.23L401.31,33.23" style="fill:none;stroke:#000000;stroke-width:0.5" />
<path d="M76.114,33.23L401.31,33.23" style="fill:none;stroke:#000000;stroke-width:0.5" />
<g transform="rotate(90)">
<text x="144.86" y="11.555" transform="scale(1, -1)"
	style="font-family:Times;font-weight:normal;font-style:normal;font-size:12px">speed</text>
</g>
<text x="20.416" y="-34.831" transform="scale(1, -1)"
	style="font-family:Times;font-weight:normal;font-style:normal;font-size:10px">1.00 mb/s</text>
<text x="15.416" y="-117.23" transform="scale(1, -1)"
	style="font-family:Times;font-weight:normal;font-style:normal;font-size:10px">33.00 mb/s</text>
<text x="15.416" y="-199.64" transform="scale(1, -1)"
	style="font-family:Times;font-weight:normal;font-style:normal;font-size:10px">65.00 mb/s</text>
<text x="15.416" y="-273.84" transform="scale(1, -1)"
	style="font-family:Times;font-weight:normal;font-style:normal;font-size:10px">93.81 mb/s</text>
<path d="M62.364,39.553L70.364,39.553" style="fill:none;stroke:#000000;stroke-width:0.5" />
<path d="M62.364,121.96L70.364,121.96" style="fill:none;stroke:#000000;stroke-width:0.5" />
<path d="M62.364,204.36L70.364,204.36" style="fill:none;stroke:#000000;stroke-width:0.5" />
<path d="M62.364,278.56L70.364,278.56" style="fill:none;stroke:#000000;stroke-width:0.5" />
<path d="M70.364,38.48L70.364,278.56" style="fill:none;stroke:#000000;stroke-width:0.5" />
<path d="M76.114,222.37L76.751,232.22L77.387,230.54L78.023,267.15L78.66,270.26L79.296,263.15L79.933,274.77L80.569,214.94L81.205,158.9L81.842,196.19L82.478,214.75L83.115,161.5L83.751,210.94L84.387,156.17L85.024,212.66L85.66,163.4L86.297,204.9L86.933,153.53L87.569,151.42L88.206,240.89L88.842,216.14L89.479,197.47L90.115,158.34L90.751,53.909L91.388,270.43L92.024,264.52L92.661,157.86L93.297,206.57L93.933,146.46L94.57,195.01L95.206,164.17L95.843,53.198L96.479,243.94L97.115,207.21L97.752,181.34L98.388,143.5L99.025,46.206L99.661,254.48L100.3,247.04L100.93,229.44L101.57,155.76L102.21,225.82L102.84,164.68L103.48,213.16L104.12,46.285L104.75,202.24L105.39,133.84L106.03,202L106.66,166.82L107.3,44.081L107.93,262.8L108.57,246.49L109.21,240.27L109.84,158.81L110.48,238.94L111.12,154.48L111.75,43.168L112.39,215.38L113.03,227.51L113.66,218.01L114.3,160.03L114.93,205.89L115.57,42.164L116.21,208.59L116.84,198.02L117.48,153.23L118.12,211.06L118.75,162.47L119.39,216.75L120.03,41.731L120.66,178.06L121.3,146.87L121.94,253.52L122.57,239.97L123.21,251.9L123.84,216.38L124.48,40.971L125.12,213.12L125.75,177.41L126.39,192.29L127.03,152.09L127.66,194.72L128.3,166.8L128.94,176.15L129.57,40.636L130.21,214.37L130.84,169.89L131.48,219.03L132.12,159.66L132.75,247.04L133.39,250.44L134.03,218.25L134.66,40.341L135.3,213.09L135.94,152.77L136.57,237.07L137.21,256.14L137.85,244.61L138.48,254.26L139.12,207.22L139.75,135.76L140.39,40.381L141.03,257.44L141.66,272.21L142.3,225.5L142.94,161.01L143.57,198.81L144.21,147.09L144.85,180.74L145.48,134.35L146.12,40.065L146.75,260.48L147.39,254.51L148.03,155.3L148.66,205.62L149.3,155.4L149.94,199.75L150.57,216.04L151.21,140.1L151.85,39.674L152.48,258.66L153.12,261.74L153.76,236.85L154.39,167.85L155.03,189.16L155.66,125.21L156.3,230.87L156.94,225.13L157.57,39.428L158.21,256.03L158.85,246.72L159.48,159.5L160.12,271.75L160.76,262.27L161.39,261.83L162.03,244.96L162.66,223.91L163.3,242.64L163.94,250.64L164.57,39.534L165.21,201.33L165.85,214.33L166.48,278.36L167.12,163.02L167.76,251L168.39,168.02L169.03,246.31L169.67,244.33L170.3,247.19L170.94,246.2L171.57,39.496L172.21,255.27L172.85,248.58L173.48,149.46L174.12,225.7L174.76,162.69L175.39,224.26L176.03,162.57L176.67,200.03L177.3,155.01L177.94,204.81L178.57,39.38L179.21,269.86L179.85,214.22L180.48,143.58L181.12,261.92L181.76,268.06L182.39,265.61L183.03,248.49L183.67,214.32L184.3,204.27L184.94,251.29L185.58,39.059L186.21,230.26L186.85,150.37L187.48,232.8L188.12,152.66L188.76,264.35L189.39,256.75L190.03,233.81L190.67,251.06L191.3,247.26L191.94,234.05L192.58,39.484L193.21,205.81L193.85,201.61L194.48,219.5L195.12,96.005L195.76,271.17L196.39,235.94L197.03,244.55L197.67,246.48L198.3,248.65L198.94,217.32L199.58,39.811L200.21,200.96L200.85,136.09L201.49,274.04L202.12,275.99L202.76,245.72L203.39,254.25L204.03,258.01L204.67,249.37L205.3,154.34L205.94,39.812L206.58,258.46L207.21,264.21L207.85,215.85L208.49,165.18L209.12,215.53L209.76,132.21L210.39,247.47L211.03,200.68L211.67,136.48L212.3,39.57L212.94,249.82L213.58,220.66L214.21,219.17L214.85,258.92L215.49,236.37L216.12,234.95L216.76,228.36L217.4,180.62L218.03,139.91L218.67,39.798L219.3,258.93L219.94,256.57L220.58,233.72L221.21,151.01L221.85,248.91L222.49,252.57L223.12,247.75L223.76,253.36L224.4,221.83L225.03,39.545L225.67,214.93L226.3,159.48L226.94,225.68L227.58,260.94L228.21,232.23L228.85,218.8L229.49,215.39L230.12,235.47L230.76,39.574L231.4,259.14L232.03,258.55L232.67,164.89L233.31,217.35L233.94,161.58L234.58,191.38L235.21,247.49L235.85,229.91L236.49,208.87L237.12,39.45L237.76,263.87L238.4,265.34L239.03,166.41L239.67,204.55L240.31,163.32L240.94,259.03L241.58,210.25L242.21,195.67L242.85,155.29L243.49,247.11L244.12,39.249L244.76,262.22L245.4,278.56L246.03,254.17L246.67,160.03L247.31,239.41L247.94,159.56L248.58,226.31L249.22,158.92L249.85,189.31L250.49,151.08L251.12,227.24L251.76,39.072L252.4,223.73L253.03,141.6L253.67,252.16L254.31,273.82L254.94,233.23L255.58,154.88L256.22,213.52L256.85,156.2L257.49,225.1L258.12,213.24L258.76,218.11L259.4,183.88L260.03,38.77L260.67,215.45L261.31,156.71L261.94,219.36L262.58,259.51L263.22,157.64L263.85,227.56L264.49,159.35L265.13,182.12L265.76,150.47L266.4,211.82L267.03,136.89L267.67,38.865L268.31,170.32L268.94,160.03L269.58,273.22L270.22,247.25L270.85,123.06L271.49,172.36L272.13,159.38L272.76,181.03L273.4,147.61L274.03,230.7L274.67,227.63L275.31,38.572L275.94,185.49L276.58,166.2L277.22,179.36L277.85,146.33L278.49,218.1L279.13,167.65L279.76,247.46L280.4,208.34L281.04,209.45L281.67,227.17L282.31,157.47L282.94,38.787L283.58,229.63L284.22,222.23L284.85,178.57L285.49,212.99L286.13,177.02L286.76,220.72L287.4,177.19L288.04,213.17L288.67,139.62L289.31,245.83L289.94,256.32L290.58,38.745L291.22,240.34L291.85,162.47L292.49,239.06L293.13,165.87L293.76,227.65L294.4,156.06L295.04,226.57L295.67,163.94L296.31,207.12L296.95,130.65L297.58,234.87L298.22,38.759L298.85,231.15L299.49,166.52L300.13,232.74L300.76,159.88L301.4,255.86L302.04,264.52L302.67,238.03L303.31,159.01L303.95,184.74L304.58,123.89L305.22,256.89L305.85,38.742L306.49,201.16L307.13,158.97L307.76,188.86L308.4,143.89L309.04,223.62L309.67,154.68L310.31,265.64L310.95,217.47L311.58,247.45L312.22,162.39L312.86,223.94L313.49,150.79L314.13,38.84L314.76,268.8L315.4,273.4L316.04,221.98L316.67,135.3L317.31,267.2L317.95,265.11L318.58,269.88L319.22,190.55L319.86,133.55L320.49,257.95L321.13,249.52L321.77,38.48L322.4,261.77L323.04,268.94L323.67,238.79L324.31,166.23L324.95,199.73L325.58,165.29L326.22,208.92L326.86,144.85L327.49,207.72L328.13,230L328.77,226.23L329.4,38.715L330.04,222.2L330.67,219.16L331.31,153.62L331.95,267.6L332.58,262.96L333.22,227.73L333.86,135.83L334.49,180.15L335.13,128.01L335.77,249.67L336.4,238.42L337.04,38.6L337.68,207.83L338.31,158.09L338.95,262.38L339.58,264.69L340.22,203.11L340.86,138.18L341.49,235.82L342.13,147.37L342.77,196.18L343.4,121.36L344.04,201.88L344.68,38.728L345.31,216.92L345.95,144.1L346.58,211.82L347.22,171.84L347.86,211.27L348.49,168.39L349.13,207.54L349.77,134.9L350.4,238.78L351.04,251.99L351.68,239.71L352.31,188.55L352.95,38.66L353.59,224.05L354.22,168.09L354.86,210.32L355.49,269.89L356.13,202.26L356.77,218.51L357.4,162.45L358.04,208.69L358.68,133.24L359.31,255.48L359.95,38.751L360.59,256.87L361.22,261.28L361.86,244.61L362.49,152.3L363.13,275.37L363.77,252.54L364.4,218.02L365.04,159.53L365.68,201.6L366.31,135.03L366.95,218.4L367.59,38.736L368.22,207.13L368.86,144.74L369.5,233.03L370.13,154.42L370.77,174.94L371.4,154.56L372.04,225.91L372.68,146.71L373.31,190.61L373.95,159.17L374.59,194.49L375.22,145.13L375.86,38.889L376.5,192.03L377.13,166.98L377.77,224.65L378.4,152.03L379.04,262.68L379.68,264.22L380.31,234.77L380.95,146.88L381.59,231.26L382.22,162.14L382.86,222.78L383.5,158.19L384.13,38.61L384.77,234.22L385.41,168.42L386.04,227.41L386.68,146L387.31,233.19L387.95,162.85L388.59,222.86L389.22,163.69L389.86,212.4L390.5,137.2L391.13,234.5L391.77,141.58L392.41,38.575L393.04,230.43L393.68,142.64L394.31,246.01L394.95,158.14L395.59,220.52L396.22,148.69L396.86,209.04L397.5,141.49L398.13,195.86L398.77,148.41L399.41,219.74L400.04,140.43L400.68,38.521L401.31,226.85" style="fill:none;stroke:#F15A60" />
<path d="M405.2,277.58L425.2,277.58" style="fill:none;stroke:#F15A60" />
<text x="350.88" y="-271.91" transform="scale(1, -1)"
	style="font-family:Times;font-weight:normal;font-style:normal;font-size:12px">batch-1mb</text>
</g>
</svg>
