<?xml version="1.0"?>
<!-- Generated by SVGo and Plotinum VG -->
<svg width="425.2pt" height="283.46pt" viewBox="0 0 425.2 283.46"
	xmlns="http://www.w3.org/2000/svg"
	xmlns:xlink="http://www.w3.org/1999/xlink">
<g transform="scale(1, -1) translate(0, -283.46)">
<path d="M0,0L425.2,0L425.2,283.46L0,283.46Z" style="fill:#FFFFFF" />
<text x="209.73" y="-3.8613" transform="scale(1, -1)"
	style="font-family:Times;font-weight:normal;font-style:normal;font-size:12px">database size</text>
<text x="65.244" y="-15.602" transform="scale(1, -1)"
	style="font-family:Times;font-weight:normal;font-style:normal;font-size:10px">4.00 mb</text>
<text x="140.51" y="-15.602" transform="scale(1, -1)"
	style="font-family:Times;font-weight:normal;font-style:normal;font-size:10px">260.00 mb</text>
<text x="220.77" y="-15.602" transform="scale(1, -1)"
	style="font-family:Times;font-weight:normal;font-style:normal;font-size:10px">516.00 mb</text>
<text x="301.03" y="-15.602" transform="scale(1, -1)"
	style="font-family:Times;font-weight:normal;font-style:normal;font-size:10px">772.00 mb</text>
<text x="377.42" y="-15.602" transform="scale(1, -1)"
	style="font-family:Times;font-weight:normal;font-style:normal;font-size:10px">1023.63 mb</text>
<path d="M81.634,25.23L81.634,33.23" style="fill:none;stroke:#000000;stroke-width:0.5" />
<path d="M161.89,25.23L161.89,33.23" style="fill:none;stroke:#000000;stroke-width:0.5" />
<path d="M242.16,25.23L242.16,33.23" style="fill:none;stroke:#000000;stroke-width:0.5" />
<path d="M322.42,25.23L322.42,33.23" style="fill:none;stroke:#000000;stroke-width:0.5" />
<path d="M401.31,25.23L401.31,33.23" style="fill:none;stroke:#000000;stroke-width:0.5" />
<path d="M81.114,33.23L401.31,33.23" style="fill:none;stroke:#000000;stroke-width:0.5" />
<g transform="rotate(90)">
<text x="144.86" y="11.555" transform="scale(1, -1)"
	style="font-family:Times;font-weight:normal;font-style:normal;font-size:12px">speed</text>
</g>
<text x="15.416" y="-92.802" transform="scale(1, -1)"
	style="font-family:Times;font-weight:normal;font-style:normal;font-size:10px">256.00 mb/s</text>
<text x="15.416" y="-172.96" transform="scale(1, -1)"
	style="font-family:Times;font-weight:normal;font-style:normal;font-size:10px">288.00 mb/s</text>
<text x="15.416" y="-253.13" transform="scale(1, -1)"
	style="font-family:Times;font-weight:normal;font-style:normal;font-size:10px">320.00 mb/s</text>
<text x="15.416" y="-273.84" transform="scale(1, -1)"
	style="font-family:Times;font-weight:normal;font-style:normal;font-size:10px">328.27 mb/s</text>
<path d="M67.364,97.524L75.364,97.524" style="fill:none;stroke:#000000;stroke-width:0.5" />
<path d="M67.364,177.69L75.364,177.69" style="fill:none;stroke:#000000;stroke-width:0.5" />
<path d="M67.364,257.85L75.364,257.85" style="fill:none;stroke:#000000;stroke-width:0.5" />
<path d="M67.364,278.56L75.364,278.56" style="fill:none;stroke:#000000;stroke-width:0.5" />
<path d="M75.364,38.48L75.364,278.56" style="fill:none;stroke:#000000;stroke-width:0.5" />
<path d="M81.114,38.48L81.849,227.29L82.584,225.62L83.319,225.49L84.053,255.13L84.788,247L85.523,243.45L86.258,245.67L86.993,230.2L87.728,242.11L88.462,245.07L89.197,243.79L89.932,244.12L90.667,270.9L91.402,250.01L92.136,234.36L92.871,244.25L93.606,228.5L94.341,235.8L95.076,250.78L95.81,241.13L96.545,244.74L97.28,269.35L98.015,224.41L98.75,225.54L99.485,242.91L100.22,246.71L100.95,252.9L101.69,246.91L102.42,225.55L103.16,250.4L103.89,255.61L104.63,241.63L105.36,229.61L106.1,243.44L106.83,251.82L107.57,221.32L108.3,249.36L109.04,247.65L109.77,246.01L110.51,274.13L111.24,240.44L111.98,229.67L112.71,238.68L113.45,230.31L114.18,241.19L114.92,243.62L115.65,246.37L116.39,240.67L117.12,256.21L117.85,226.85L118.59,239.77L119.32,245.5L120.06,254.81L120.79,220.95L121.53,229.95L122.26,246.69L123,231.86L123.73,277.45L124.47,244.39L125.2,240.32L125.94,234.9L126.67,237.93L127.41,242.69L128.14,243.31L128.88,233.53L129.61,235.2L130.35,272.25L131.08,243.05L131.82,232.9L132.55,237.01L133.29,237.48L134.02,249.52L134.76,247.3L135.49,234.79L136.23,229.8L136.96,248.43L137.69,251.84L138.43,233.64L139.16,245.68L139.9,251.35L140.63,249.7L141.37,246.92L142.1,246.34L142.84,248.96L143.57,270.67L144.31,230.19L145.04,250.82L145.78,252.14L146.51,248.04L147.25,248.16L147.98,248.39L148.72,246.12L149.45,252.99L150.19,274.93L150.92,249.39L151.66,246.62L152.39,232.9L153.13,243.87L153.86,238.48L154.6,249.21L155.33,246.81L156.06,245.9L156.8,272.54L157.53,241.38L158.27,254.65L159,252.03L159.74,254.38L160.47,253.6L161.21,247.21L161.94,232.88L162.68,230.13L163.41,270.6L164.15,224.49L164.88,244.39L165.62,238.43L166.35,242.58L167.09,234.57L167.82,243.9L168.56,240.43L169.29,253.72L170.03,270.99L170.76,227.82L171.5,250.81L172.23,255.29L172.97,242.89L173.7,230.81L174.44,241.59L175.17,251.87L175.9,245.52L176.64,266.3L177.37,243.96L178.11,252.85L178.84,233.09L179.58,233.51L180.31,241.18L181.05,230.15L181.78,246.79L182.52,222.51L183.25,271.16L183.99,229.4L184.72,205.82L185.46,233.56L186.19,246.37L186.93,249.61L187.66,253.08L188.4,255.09L189.13,252.37L189.87,268.78L190.6,248.33L191.34,244.35L192.07,247.8L192.81,248.44L193.54,251.29L194.27,246.52L195.01,246.7L195.74,250.37L196.48,271.1L197.21,255L197.95,253.93L198.68,251.03L199.42,238.53L200.15,237.81L200.89,243.81L201.62,221L202.36,271.14L203.09,222.28L203.83,242.58L204.56,248.15L205.3,246.98L206.03,241.01L206.77,223.56L207.5,251.29L208.24,225.27L208.97,267.21L209.71,242.37L210.44,243.09L211.18,217.53L211.91,244.25L212.65,232.1L213.38,247.33L214.11,243.99L214.85,240.24L215.58,265.69L216.32,251.83L217.05,248.31L217.79,260.19L218.52,230.12L219.26,235.09L219.99,244.6L220.73,245.12L221.46,246.29L222.2,267.86L222.93,246.85L223.67,242.66L224.4,236.21L225.14,249.56L225.87,238.39L226.61,241.37L227.34,251.74L228.08,242.29L228.81,270.64L229.55,236.12L230.28,238.88L231.02,251.15L231.75,240.62L232.49,239.42L233.22,229.92L233.95,229.62L234.69,225.21L235.42,272.87L236.16,246.1L236.89,237.68L237.63,227.58L238.36,221.9L239.1,245.8L239.83,251.01L240.57,231.05L241.3,247.62L242.04,272.9L242.77,245.51L243.51,252.39L244.24,234.75L244.98,232.05L245.71,221.62L246.45,245.07L247.18,255.62L247.92,239.41L248.65,267.59L249.39,242L250.12,252.76L250.86,233.56L251.59,237.63L252.32,253.54L253.06,247.97L253.79,248.38L254.53,249.07L255.26,270.74L256,230.06L256.73,232.56L257.47,230.03L258.2,237.58L258.94,254.32L259.67,240.3L260.41,237.51L261.14,244.07L261.88,270.64L262.61,247.52L263.35,248.31L264.08,228.33L264.82,247.98L265.55,251.59L266.29,252.11L267.02,247.04L267.76,248.06L268.49,272.76L269.23,254.42L269.96,249.18L270.7,229.83L271.43,244.48L272.16,253.89L272.9,252.76L273.63,241.86L274.37,245.03L275.1,272.64L275.84,223.99L276.57,225.57L277.31,232.19L278.04,246.09L278.78,254.49L279.51,241.17L280.25,238.3L280.98,242.14L281.72,260.92L282.45,250.27L283.19,229.96L283.92,243.25L284.66,233.5L285.39,235.42L286.13,247.76L286.86,230.9L287.6,252.04L288.33,273.75L289.07,247.27L289.8,232.98L290.54,243.27L291.27,245.86L292,244.05L292.74,229.38L293.47,244.64L294.21,251.16L294.94,251.15L295.68,244.63L296.41,229.04L297.15,227.15L297.88,236.93L298.62,235.23L299.35,236.85L300.09,248.19L300.82,243.51L301.56,267.29L302.29,222.26L303.03,220.28L303.76,232.76L304.5,248.59L305.23,238.36L305.97,232.31L306.7,249.52L307.44,248.58L308.17,273.21L308.91,241.66L309.64,237.81L310.37,224.23L311.11,245.53L311.84,246.68L312.58,254.97L313.31,250.03L314.05,247L314.78,259.66L315.52,241.55L316.25,220.99L316.99,246.05L317.72,239.04L318.46,248.12L319.19,248.39L319.93,230.91L320.66,249.17L321.4,259.29L322.13,247.89L322.87,245.2L323.6,250L324.34,245.31L325.07,240.3L325.81,251.11L326.54,246.26L327.28,248.48L328.01,263.17L328.75,253.15L329.48,241.81L330.21,248.68L330.95,247.41L331.68,229.85L332.42,247.81L333.15,231.06L333.89,250.38L334.62,262.88L335.36,213.07L336.09,235.82L336.83,246.22L337.56,242.68L338.3,246.67L339.03,233.83L339.77,246.95L340.5,237.01L341.24,256.75L341.97,244.47L342.71,244.5L343.44,242.28L344.18,247.22L344.91,246.16L345.65,250.56L346.38,248.46L347.12,242.36L347.85,274.78L348.59,251.44L349.32,256.48L350.05,246.79L350.79,228.96L351.52,245L352.26,235.08L352.99,247.3L353.73,255.26L354.46,269L355.2,232.37L355.93,224.7L356.67,226.04L357.4,245.58L358.14,252.13L358.87,238.72L359.61,224.38L360.34,251.85L361.08,259.64L361.81,241.7L362.55,231.06L363.28,228.88L364.02,237.41L364.75,244.88L365.49,247.66L366.22,245.75L366.96,244.06L367.69,266.65L368.42,233.58L369.16,248.68L369.89,243.42L370.63,249.1L371.36,247.97L372.1,250.1L372.83,231.55L373.57,236.53L374.3,255.23L375.04,238.02L375.77,247.12L376.51,242.2L377.24,246.18L377.98,245.15L378.71,251.3L379.45,243.04L380.18,228.81L380.92,268.58L381.65,248.78L382.39,250.5L383.12,256.22L383.86,247.96L384.59,233.78L385.33,245.5L386.06,226.07L386.8,250.82L387.53,278.56L388.26,240.17L389,226.91L389.73,246.64L390.47,232.13L391.2,241.91L391.94,216.93L392.67,245.34L393.41,224.47L394.14,266.16L394.88,240.61L395.61,230.43L396.35,238.66L397.08,254.52L397.82,254.9L398.55,250.18L399.29,237.85L400.02,233.46L400.76,267.24L401.31,227.51" style="fill:none;stroke:#F15A60" />
<path d="M405.2,277.58L425.2,277.58" style="fill:none;stroke:#F15A60" />
<text x="304.22" y="-271.91" transform="scale(1, -1)"
	style="font-family:Times;font-weight:normal;font-style:normal;font-size:12px">batch-100kb-nosync</text>
</g>
</svg>
