<?xml version="1.0"?>
<!-- Generated by SVGo and Plotinum VG -->
<svg width="425.2pt" height="283.46pt" viewBox="0 0 425.2 283.46"
	xmlns="http://www.w3.org/2000/svg"
	xmlns:xlink="http://www.w3.org/1999/xlink">
<g transform="scale(1, -1) translate(0, -283.46)">
<path d="M0,0L425.2,0L425.2,283.46L0,283.46Z" style="fill:#FFFFFF" />
<text x="207.23" y="-3.8613" transform="scale(1, -1)"
	style="font-family:Times;font-weight:normal;font-style:normal;font-size:12px">database size</text>
<text x="60.682" y="-15.602" transform="scale(1, -1)"
	style="font-family:Times;font-weight:normal;font-style:normal;font-size:10px">8.00 mb</text>
<text x="137.38" y="-15.602" transform="scale(1, -1)"
	style="font-family:Times;font-weight:normal;font-style:normal;font-size:10px">264.00 mb</text>
<text x="219.08" y="-15.602" transform="scale(1, -1)"
	style="font-family:Times;font-weight:normal;font-style:normal;font-size:10px">520.00 mb</text>
<text x="300.77" y="-15.602" transform="scale(1, -1)"
	style="font-family:Times;font-weight:normal;font-style:normal;font-size:10px">776.00 mb</text>
<text x="377.42" y="-15.602" transform="scale(1, -1)"
	style="font-family:Times;font-weight:normal;font-style:normal;font-size:10px">1024.00 mb</text>
<path d="M77.072,25.23L77.072,33.23" style="fill:none;stroke:#000000;stroke-width:0.5" />
<path d="M158.77,25.23L158.77,33.23" style="fill:none;stroke:#000000;stroke-width:0.5" />
<path d="M240.47,25.23L240.47,33.23" style="fill:none;stroke:#000000;stroke-width:0.5" />
<path d="M322.16,25.23L322.16,33.23" style="fill:none;stroke:#000000;stroke-width:0.5" />
<path d="M401.31,25.23L401.31,33.23" style="fill:none;stroke:#000000;stroke-width:0.5" />
<path d="M76.114,33.23L401.31,33.23" style="fill:none;stroke:#000000;stroke-width:0.5" />
<g transform="rotate(90)">
<text x="144.86" y="11.555" transform="scale(1, -1)"
	style="font-family:Times;font-weight:normal;font-style:normal;font-size:12px">speed</text>
</g>
<text x="20.416" y="-35.401" transform="scale(1, -1)"
	style="font-family:Times;font-weight:normal;font-style:normal;font-size:10px">2.00 mb/s</text>
<text x="15.416" y="-99.671" transform="scale(1, -1)"
	style="font-family:Times;font-weight:normal;font-style:normal;font-size:10px">18.00 mb/s</text>
<text x="15.416" y="-163.94" transform="scale(1, -1)"
	style="font-family:Times;font-weight:normal;font-style:normal;font-size:10px">34.00 mb/s</text>
<text x="15.416" y="-228.21" transform="scale(1, -1)"
	style="font-family:Times;font-weight:normal;font-style:normal;font-size:10px">50.00 mb/s</text>
<text x="15.416" y="-273.84" transform="scale(1, -1)"
	style="font-family:Times;font-weight:normal;font-style:normal;font-size:10px">61.36 mb/s</text>
<path d="M62.364,40.123L70.364,40.123" style="fill:none;stroke:#000000;stroke-width:0.5" />
<path d="M62.364,104.39L70.364,104.39" style="fill:none;stroke:#000000;stroke-width:0.5" />
<path d="M62.364,168.66L70.364,168.66" style="fill:none;stroke:#000000;stroke-width:0.5" />
<path d="M62.364,232.93L70.364,232.93" style="fill:none;stroke:#000000;stroke-width:0.5" />
<path d="M62.364,278.56L70.364,278.56" style="fill:none;stroke:#000000;stroke-width:0.5" />
<path d="M70.364,38.48L70.364,278.56" style="fill:none;stroke:#000000;stroke-width:0.5" />
<path d="M76.114,187.56L77.71,275.08L79.306,234.82L80.901,277.49L82.497,248.22L84.093,253.57L85.688,263.86L87.284,263.71L88.88,255.8L90.475,229.35L92.071,265.71L93.666,93.023L95.262,262.19L96.858,273.05L98.453,78.243L100.05,260.63L101.64,260L103.24,67.991L104.84,264.07L106.43,254.05L108.03,60.245L109.62,257.4L111.22,275.6L112.81,56.513L114.41,260.66L116.01,268.22L117.6,53.239L119.2,257.8L120.79,269.83L122.39,52.398L123.98,256.21L125.58,265.17L127.18,52.472L128.77,241.7L130.37,262.39L131.96,51.566L133.56,246.65L135.15,269.6L136.75,52.186L138.34,251.63L139.94,262.67L141.54,51.68L143.13,251.29L144.73,260.86L146.32,51.48L147.92,243.69L149.51,272.98L151.11,51.105L152.71,228.2L154.3,269.6L155.9,48.961L157.49,244.05L159.09,237.42L160.68,245.07L162.28,53.378L163.88,259.84L165.47,268.11L167.07,51.212L168.66,251.72L170.26,272.78L171.85,52.278L173.45,252.63L175.04,266.15L176.64,51.138L178.24,248.63L179.83,277.83L181.43,49.368L183.02,238.96L184.62,248.75L186.21,262.82L187.81,46.756L189.41,254.16L191,257.09L192.6,265.5L194.19,46.096L195.79,232.8L197.38,253.64L198.98,229.37L200.58,43.322L202.17,250.68L203.77,223.18L205.36,258.03L206.96,257.55L208.55,42.764L210.15,255.92L211.75,265.72L213.34,215.62L214.94,254.54L216.53,42.521L218.13,256.13L219.72,259.11L221.32,257.88L222.91,270.79L224.51,41.82L226.11,201.15L227.7,254.06L229.3,202.05L230.89,252.73L232.49,40.867L234.08,253.48L235.68,278.56L237.28,266.36L238.87,256.36L240.47,257.55L242.06,40.556L243.66,241.83L245.25,255.6L246.85,260.9L248.45,211.69L250.04,263.92L251.64,40.252L253.23,250.89L254.83,252.43L256.42,263.6L258.02,219.66L259.61,261.85L261.21,39.881L262.81,190.55L264.4,252.57L266,257L267.59,271.09L269.19,252.85L270.78,39.273L272.38,255.27L273.98,263.46L275.57,263.96L277.17,265.95L278.76,265.14L280.36,39.216L281.95,249.28L283.55,254.88L285.15,262.87L286.74,224.93L288.34,227.21L289.93,38.762L291.53,247.89L293.12,234.7L294.72,241.37L296.31,210.15L297.91,250.96L299.51,39.271L301.1,233.63L302.7,265.72L304.29,263.05L305.89,261.25L307.48,221.87L309.08,39.047L310.68,250.1L312.27,256.12L313.87,270.78L315.46,275.96L317.06,276.37L318.65,38.992L320.25,255.25L321.85,256.25L323.44,202.91L325.04,251.61L326.63,271.2L328.23,38.835L329.82,251.03L331.42,259.07L333.01,250.41L334.61,264.39L336.21,263.29L337.8,39.047L339.4,258.95L340.99,263.98L342.59,258.54L344.18,269.83L345.78,254.82L347.38,39.16L348.97,260.43L350.57,257.71L352.16,269.16L353.76,275.49L355.35,244.8L356.95,39.046L358.55,258.83L360.14,256.12L361.74,262.95L363.33,265.39L364.93,235.22L366.52,38.81L368.12,254.08L369.71,264.63L371.31,265.42L372.91,261.01L374.5,265.6L376.1,38.48L377.69,241.49L379.29,232.19L380.88,258.91L382.48,212.33L384.08,258.7L385.67,38.757L387.27,248.06L388.86,227.83L390.46,257.43L392.05,262.45L393.65,252.99L395.25,38.778L396.84,245.5L398.44,261.64L400.03,256.65L401.31,263.27" style="fill:none;stroke:#F15A60" />
<path d="M405.2,277.58L425.2,277.58" style="fill:none;stroke:#F15A60" />
<text x="350.88" y="-271.91" transform="scale(1, -1)"
	style="font-family:Times;font-weight:normal;font-style:normal;font-size:12px">batch-5mb</text>
</g>
</svg>
