<?xml version="1.0"?>
<!-- Generated by SVGo and Plotinum VG -->
<svg width="425.2pt" height="283.46pt" viewBox="0 0 425.2 283.46"
	xmlns="http://www.w3.org/2000/svg"
	xmlns:xlink="http://www.w3.org/1999/xlink">
<g transform="scale(1, -1) translate(0, -283.46)">
<path d="M0,0L425.2,0L425.2,283.46L0,283.46Z" style="fill:#FFFFFF" />
<text x="209.73" y="-3.8613" transform="scale(1, -1)"
	style="font-family:Times;font-weight:normal;font-style:normal;font-size:12px">database size</text>
<text x="65.244" y="-15.602" transform="scale(1, -1)"
	style="font-family:Times;font-weight:normal;font-style:normal;font-size:10px">4.00 mb</text>
<text x="140.51" y="-15.602" transform="scale(1, -1)"
	style="font-family:Times;font-weight:normal;font-style:normal;font-size:10px">260.00 mb</text>
<text x="220.77" y="-15.602" transform="scale(1, -1)"
	style="font-family:Times;font-weight:normal;font-style:normal;font-size:10px">516.00 mb</text>
<text x="301.03" y="-15.602" transform="scale(1, -1)"
	style="font-family:Times;font-weight:normal;font-style:normal;font-size:10px">772.00 mb</text>
<text x="377.42" y="-15.602" transform="scale(1, -1)"
	style="font-family:Times;font-weight:normal;font-style:normal;font-size:10px">1023.63 mb</text>
<path d="M81.634,25.23L81.634,33.23" style="fill:none;stroke:#000000;stroke-width:0.5" />
<path d="M161.89,25.23L161.89,33.23" style="fill:none;stroke:#000000;stroke-width:0.5" />
<path d="M242.16,25.23L242.16,33.23" style="fill:none;stroke:#000000;stroke-width:0.5" />
<path d="M322.42,25.23L322.42,33.23" style="fill:none;stroke:#000000;stroke-width:0.5" />
<path d="M401.31,25.23L401.31,33.23" style="fill:none;stroke:#000000;stroke-width:0.5" />
<path d="M81.114,33.23L401.31,33.23" style="fill:none;stroke:#000000;stroke-width:0.5" />
<g transform="rotate(90)">
<text x="144.86" y="11.555" transform="scale(1, -1)"
	style="font-family:Times;font-weight:normal;font-style:normal;font-size:12px">speed</text>
</g>
<text x="15.416" y="-95.515" transform="scale(1, -1)"
	style="font-family:Times;font-weight:normal;font-style:normal;font-size:10px">256.00 mb/s</text>
<text x="15.416" y="-175.45" transform="scale(1, -1)"
	style="font-family:Times;font-weight:normal;font-style:normal;font-size:10px">288.00 mb/s</text>
<text x="15.416" y="-255.39" transform="scale(1, -1)"
	style="font-family:Times;font-weight:normal;font-style:normal;font-size:10px">320.00 mb/s</text>
<text x="15.416" y="-273.84" transform="scale(1, -1)"
	style="font-family:Times;font-weight:normal;font-style:normal;font-size:10px">327.38 mb/s</text>
<path d="M67.364,100.24L75.364,100.24" style="fill:none;stroke:#000000;stroke-width:0.5" />
<path d="M67.364,180.18L75.364,180.18" style="fill:none;stroke:#000000;stroke-width:0.5" />
<path d="M67.364,260.11L75.364,260.11" style="fill:none;stroke:#000000;stroke-width:0.5" />
<path d="M67.364,278.56L75.364,278.56" style="fill:none;stroke:#000000;stroke-width:0.5" />
<path d="M75.364,38.48L75.364,278.56" style="fill:none;stroke:#000000;stroke-width:0.5" />
<path d="M81.114,38.48L81.849,196.69L82.584,243.8L83.319,241.66L84.053,267.21L84.788,240.3L85.523,244.54L86.258,234.79L86.993,228.93L87.728,253.97L88.462,238.52L89.197,248.23L89.932,275.38L90.667,250.87L91.402,241.61L92.136,227.76L92.871,232.68L93.606,201.44L94.341,226.03L95.076,241.77L95.81,247.19L96.545,263.56L97.28,251.75L98.015,256.85L98.75,253.93L99.485,248.49L100.22,245.47L100.95,244.33L101.69,246.27L102.42,249.88L103.16,269.62L103.89,250.18L104.63,237.74L105.36,246.69L106.1,234.79L106.83,242.83L107.57,248.79L108.3,249.99L109.04,233.13L109.77,273.42L110.51,223.05L111.24,240.5L111.98,246.6L112.71,245.87L113.45,236.71L114.18,230.16L114.92,234.3L115.65,220.21L116.39,273.18L117.12,227.19L117.85,236.41L118.59,244.5L119.32,243.54L120.06,244.69L120.79,238.22L121.53,248.8L122.26,245.75L123,275.54L123.73,237.78L124.47,252.23L125.2,231.13L125.94,228.16L126.67,241.92L127.41,235.85L128.14,230.72L128.88,243.23L129.61,269.07L130.35,239.53L131.08,248.77L131.82,234.35L132.55,247.54L133.29,245.63L134.02,241.73L134.76,222.31L135.49,248.61L136.23,277.45L136.96,252.3L137.69,237.26L138.43,227.35L139.16,235.5L139.9,249.1L140.63,241.55L141.37,249.66L142.1,247.31L142.84,269.01L143.57,249.71L144.31,249.85L145.04,247.9L145.78,238.24L146.51,232.72L147.25,237.03L147.98,222.78L148.72,233.95L149.45,237.62L150.19,271.63L150.92,253.93L151.66,238.06L152.39,247L153.13,235.12L153.86,243.18L154.6,252.45L155.33,219.48L156.06,253.86L156.8,270.53L157.53,252.11L158.27,247.06L159,248.58L159.74,255.23L160.47,249.55L161.21,225.26L161.94,244.85L162.68,264.25L163.41,243.14L164.15,229.42L164.88,247.06L165.62,252.93L166.35,206.54L167.09,229.18L167.82,235.03L168.56,233L169.29,273.99L170.03,239.13L170.76,256.35L171.5,241.13L172.23,259.24L172.97,243.96L173.7,247.91L174.44,247.34L175.17,220.95L175.9,267.02L176.64,252.28L177.37,250.85L178.11,256.39L178.84,256.43L179.58,244.21L180.31,244.12L181.05,257.72L181.78,245.79L182.52,268.66L183.25,205.25L183.99,230.39L184.72,211.48L185.46,225.73L186.19,243.1L186.93,238.73L187.66,240.64L188.4,245.97L189.13,274.48L189.87,251.24L190.6,248.9L191.34,243.73L192.07,243.87L192.81,249.11L193.54,237.44L194.27,244.23L195.01,243.42L195.74,247.81L196.48,266.34L197.21,230.46L197.95,246.14L198.68,229.78L199.42,236.89L200.15,222.54L200.89,257.17L201.62,252.53L202.36,278.29L203.09,240.61L203.83,249.73L204.56,240.22L205.3,240.15L206.03,242.75L206.77,252.64L207.5,235.89L208.24,235.96L208.97,255.4L209.71,274.14L210.44,248.28L211.18,251.87L211.91,231.9L212.65,248.25L213.38,250.53L214.11,236.21L214.85,250.47L215.58,244.58L216.32,261.66L217.05,251.35L217.79,244.29L218.52,247.26L219.26,233.86L219.99,239.84L220.73,248.02L221.46,240.94L222.2,246.04L222.93,257.2L223.67,235.77L224.4,233.68L225.14,250.69L225.87,238.96L226.61,247.75L227.34,246.9L228.08,246.79L228.81,251.64L229.55,267.23L230.28,246.04L231.02,230.2L231.75,234.16L232.49,241.21L233.22,232.79L233.95,240.47L234.69,244.42L235.42,253.09L236.16,259.23L236.89,244.83L237.63,247.9L238.36,239.76L239.1,235.62L239.83,232.73L240.57,220.92L241.3,244.54L242.04,248.07L242.77,268.78L243.51,238.69L244.24,241.06L244.98,243.79L245.71,238.35L246.45,252.57L247.18,248.88L247.92,235.06L248.65,254.74L249.39,275.69L250.12,254.89L250.86,256.59L251.59,226.49L252.32,251.2L253.06,250.21L253.79,235.91L254.53,251.65L255.26,247.36L256,271.06L256.73,247.49L257.47,250.55L258.2,233.31L258.94,247.79L259.67,224.81L260.41,215.5L261.14,248.07L261.88,226.82L262.61,266.13L263.35,242.85L264.08,230.47L264.82,246L265.55,250.62L266.29,250.99L267.02,246.05L267.76,245.5L268.49,233.99L269.23,262.84L269.96,238.09L270.7,224.22L271.43,230.19L272.16,233.55L272.9,244.57L273.63,239.64L274.37,245.13L275.1,241.03L275.84,243.36L276.57,234.75L277.31,248.57L278.04,245.33L278.78,248.04L279.51,243.03L280.25,228.32L280.98,245.45L281.72,232.5L282.45,276.46L283.19,250.78L283.92,252.04L284.66,241.85L285.39,248.84L286.13,244.42L286.86,243.33L287.6,245.52L288.33,236.97L289.07,267.85L289.8,245.95L290.54,237.76L291.27,229.18L292,244.27L292.74,236.23L293.47,253.51L294.21,239.23L294.94,243.05L295.68,277.33L296.41,240.03L297.15,245.94L297.88,249.97L298.62,243.96L299.35,252.24L300.09,249.55L300.82,253.88L301.56,239.77L302.29,260.49L303.03,242.19L303.76,244.9L304.5,232.31L305.23,232.25L305.97,248.58L306.7,246.63L307.44,231.96L308.17,237.26L308.91,251.27L309.64,234.42L310.37,252.76L311.11,247.54L311.84,239.79L312.58,239.09L313.31,254.99L314.05,248.52L314.78,254.8L315.52,278.56L316.25,238.31L316.99,248.6L317.72,254.87L318.46,242.28L319.19,235.59L319.93,238.85L320.66,252.27L321.4,244.32L322.13,250.2L322.87,242.3L323.6,236.86L324.34,253.92L325.07,229.28L325.81,231.23L326.54,244.86L327.28,227.4L328.01,229.59L328.75,267.2L329.48,235.64L330.21,244.45L330.95,245.53L331.68,240.7L332.42,226.23L333.15,248.19L333.89,234.29L334.62,247.58L335.36,274.06L336.09,252.7L336.83,247.8L337.56,245.44L338.3,244.97L339.03,240L339.77,247.35L340.5,249.12L341.24,248.84L341.97,276.74L342.71,220.2L343.44,252.41L344.18,255.45L344.91,236.61L345.65,250.69L346.38,242.76L347.12,250.18L347.85,251.04L348.59,265.72L349.32,228L350.05,247.77L350.79,248.36L351.52,249.82L352.26,242.61L352.99,224.39L353.73,234.49L354.46,239.5L355.2,272.51L355.93,232.62L356.67,239.15L357.4,242.46L358.14,223.32L358.87,254.02L359.61,241.23L360.34,249.31L361.08,250.57L361.81,272.66L362.55,250.53L363.28,249.6L364.02,243.82L364.75,235.48L365.49,245.62L366.22,252.3L366.96,250.87L367.69,248.04L368.42,268.48L369.16,250.36L369.89,243.17L370.63,234.56L371.36,238.75L372.1,233.75L372.83,242.09L373.57,235.77L374.3,237.51L375.04,260.34L375.77,228.9L376.51,231.89L377.24,236.89L377.98,233.3L378.71,232.66L379.45,241.76L380.18,241.74L380.92,227.18L381.65,247.53L382.39,231L383.12,233.63L383.86,246.17L384.59,249.77L385.33,223.29L386.06,235.65L386.8,232.96L387.53,247.77L388.26,223.5L389,240.06L389.73,237.62L390.47,232.37L391.2,241.56L391.94,239.21L392.67,239.61L393.41,230.7L394.14,263.09L394.88,222.31L395.61,238.92L396.35,234.43L397.08,229.87L397.82,238.69L398.55,235.71L399.29,225.39L400.02,220.73L400.76,265.47L401.31,224.9" style="fill:none;stroke:#F15A60" />
<path d="M405.2,277.58L425.2,277.58" style="fill:none;stroke:#F15A60" />
<text x="194.93" y="-271.91" transform="scale(1, -1)"
	style="font-family:Times;font-weight:normal;font-style:normal;font-size:12px">batch-100kb-wb-512mb-cache-1gb-nosync</text>
</g>
</svg>
