<?xml version="1.0"?>
<!-- Generated by SVGo and Plotinum VG -->
<svg width="425.2pt" height="283.46pt" viewBox="0 0 425.2 283.46"
	xmlns="http://www.w3.org/2000/svg"
	xmlns:xlink="http://www.w3.org/1999/xlink">
<g transform="scale(1, -1) translate(0, -283.46)">
<path d="M0,0L425.2,0L425.2,283.46L0,283.46Z" style="fill:#FFFFFF" />
<text x="207.23" y="-3.8613" transform="scale(1, -1)"
	style="font-family:Times;font-weight:normal;font-style:normal;font-size:12px">database size</text>
<text x="60.361" y="-15.602" transform="scale(1, -1)"
	style="font-family:Times;font-weight:normal;font-style:normal;font-size:10px">4.00 mb</text>
<text x="136.82" y="-15.602" transform="scale(1, -1)"
	style="font-family:Times;font-weight:normal;font-style:normal;font-size:10px">260.00 mb</text>
<text x="218.28" y="-15.602" transform="scale(1, -1)"
	style="font-family:Times;font-weight:normal;font-style:normal;font-size:10px">516.00 mb</text>
<text x="299.73" y="-15.602" transform="scale(1, -1)"
	style="font-family:Times;font-weight:normal;font-style:normal;font-size:10px">772.00 mb</text>
<text x="377.42" y="-15.602" transform="scale(1, -1)"
	style="font-family:Times;font-weight:normal;font-style:normal;font-size:10px">1024.00 mb</text>
<path d="M76.751,25.23L76.751,33.23" style="fill:none;stroke:#000000;stroke-width:0.5" />
<path d="M158.21,25.23L158.21,33.23" style="fill:none;stroke:#000000;stroke-width:0.5" />
<path d="M239.67,25.23L239.67,33.23" style="fill:none;stroke:#000000;stroke-width:0.5" />
<path d="M321.12,25.23L321.12,33.23" style="fill:none;stroke:#000000;stroke-width:0.5" />
<path d="M401.31,25.23L401.31,33.23" style="fill:none;stroke:#000000;stroke-width:0.5" />
<path d="M76.114,33.23L401.31,33.23" style="fill:none;stroke:#000000;stroke-width:0.5" />
<g transform="rotate(90)">
<text x="144.86" y="11.555" transform="scale(1, -1)"
	style="font-family:Times;font-weight:normal;font-style:normal;font-size:12px">speed</text>
</g>
<text x="20.416" y="-34.869" transform="scale(1, -1)"
	style="font-family:Times;font-weight:normal;font-style:normal;font-size:10px">1.00 mb/s</text>
<text x="15.416" y="-116.37" transform="scale(1, -1)"
	style="font-family:Times;font-weight:normal;font-style:normal;font-size:10px">33.00 mb/s</text>
<text x="15.416" y="-197.87" transform="scale(1, -1)"
	style="font-family:Times;font-weight:normal;font-style:normal;font-size:10px">65.00 mb/s</text>
<text x="15.416" y="-273.84" transform="scale(1, -1)"
	style="font-family:Times;font-weight:normal;font-style:normal;font-size:10px">94.82 mb/s</text>
<path d="M62.364,39.591L70.364,39.591" style="fill:none;stroke:#000000;stroke-width:0.5" />
<path d="M62.364,121.09L70.364,121.09" style="fill:none;stroke:#000000;stroke-width:0.5" />
<path d="M62.364,202.6L70.364,202.6" style="fill:none;stroke:#000000;stroke-width:0.5" />
<path d="M62.364,278.56L70.364,278.56" style="fill:none;stroke:#000000;stroke-width:0.5" />
<path d="M70.364,38.48L70.364,278.56" style="fill:none;stroke:#000000;stroke-width:0.5" />
<path d="M76.114,216.91L76.751,237.42L77.387,231.66L78.023,249.71L78.66,271.59L79.296,255.48L79.933,258.8L80.569,222.32L81.205,163.25L81.842,214.6L82.478,159.83L83.115,225.54L83.751,159.28L84.387,204.98L85.024,152.5L85.66,228.38L86.297,154.27L86.933,214.32L87.569,131.41L88.206,202.49L88.842,154.78L89.479,183.37L90.115,57.277L90.751,204.8L91.388,167.97L92.024,197.44L92.661,151.7L93.297,213.49L93.933,133.59L94.57,224.81L95.206,57.528L95.843,209.41L96.479,157.06L97.115,220.02L97.752,47.138L98.388,219.26L99.025,163.24L99.661,184L100.3,133.53L100.93,211.7L101.57,134.16L102.21,181.78L102.84,48.254L103.48,207.65L104.12,158.64L104.75,213.68L105.39,43.974L106.03,247.73L106.66,260.28L107.3,223.61L107.93,160.31L108.57,223.87L109.21,138.98L109.84,212.73L110.48,44.184L111.12,166.33L111.75,131.95L112.39,204.94L113.03,166.4L113.66,42.711L114.3,258.22L114.93,206.11L115.57,149.44L116.21,216.44L116.84,159.65L117.48,208.47L118.12,42.149L118.75,211.84L119.39,141.93L120.03,212.82L120.66,155.25L121.3,216.44L121.94,41.276L122.57,205.82L123.21,160.74L123.84,243.15L124.48,210.59L125.12,245.12L125.75,199.83L126.39,146.37L127.03,40.962L127.66,265.7L128.3,266.29L128.94,230.31L129.57,133.55L130.21,247.97L130.84,251L131.48,215.04L132.12,40.385L132.75,216.47L133.39,171.03L134.03,225.23L134.66,157.43L135.3,217.01L135.94,214.66L136.57,224.83L137.21,153.33L137.85,40.132L138.48,262.18L139.12,199.74L139.75,251.63L140.39,160.25L141.03,223.8L141.66,123.53L142.3,216.12L142.94,39.729L143.57,231.33L144.21,193.9L144.85,198.58L145.48,138.14L146.12,218.11L146.75,156.84L147.39,183.07L148.03,160.33L148.66,239.15L149.3,39.696L149.94,256.33L150.57,265.75L151.21,211.55L151.85,162.03L152.48,261.91L153.12,237.79L153.76,248.77L154.39,241.65L155.03,248.43L155.66,228.39L156.3,39.786L156.94,254.7L157.57,256.5L158.21,245.61L158.85,157.34L159.48,197.01L160.12,204.43L160.76,250.99L161.39,250.88L162.03,237.84L162.66,39.893L163.3,159.86L163.94,146.2L164.57,225.85L165.21,158.45L165.85,248.91L166.48,243.05L167.12,217.29L167.76,223.04L168.39,230.69L169.03,39.905L169.67,165.11L170.3,140.07L170.94,196.55L171.57,164.16L172.21,237.73L172.85,251.89L173.48,238.28L174.12,244.11L174.76,150.26L175.39,40.105L176.03,258.52L176.67,267.25L177.3,266.36L177.94,231.8L178.57,248.73L179.21,214.19L179.85,232.16L180.48,235.99L181.12,40.065L181.76,218.86L182.39,162.42L183.03,210.7L183.67,159.46L184.3,225.91L184.94,248.32L185.58,216.26L186.21,157L186.85,40.115L187.48,252.33L188.12,261.93L188.76,213.03L189.39,134.43L190.03,190.32L190.67,121.87L191.3,236.79L191.94,39.695L192.58,228.63L193.21,140.35L193.85,216.91L194.48,172.35L195.12,210.3L195.76,164.22L196.39,241.39L197.03,238.22L197.67,231.08L198.3,156.81L198.94,39.735L199.58,219.3L200.21,216.11L200.85,267.46L201.49,251.55L202.12,167.8L202.76,240.53L203.39,216.66L204.03,219.5L204.67,39.872L205.3,251.76L205.94,262.21L206.58,248.8L207.21,158.24L207.85,269.48L208.49,230.15L209.12,247.9L209.76,235.97L210.39,223.5L211.03,241.46L211.67,39.852L212.3,217.09L212.94,145.14L213.58,237L214.21,169.41L214.85,211.59L215.49,125.92L216.12,245.89L216.76,206.49L217.4,149.78L218.03,39.677L218.67,260.96L219.3,259.46L219.94,237.33L220.58,158.34L221.21,246.96L221.85,246.55L222.49,243.41L223.12,232.14L223.76,160.32L224.4,39.713L225.03,248.22L225.67,256.66L226.3,267.4L226.94,183.11L227.58,154.15L228.21,219.54L228.85,153.08L229.49,248.76L230.12,39.387L230.76,250.13L231.4,258.76L232.03,268.09L232.67,260.22L233.31,259.75L233.94,226.85L234.58,231.67L235.21,220.33L235.85,239.37L236.49,244.2L237.12,39.711L237.76,261.33L238.4,191.38L239.03,164.33L239.67,212.54L240.31,160.82L240.94,162.75L241.58,218.19L242.21,153.39L242.85,214.77L243.49,39.28L244.12,224.36L244.76,155.25L245.4,238.63L246.03,136.99L246.67,223.87L247.31,158.06L247.94,200.98L248.58,158.8L249.22,234.28L249.85,158.28L250.49,213.31L251.12,127.98L251.76,39.157L252.4,258.68L253.03,273.93L253.67,184.76L254.31,167.52L254.94,229.26L255.58,168.25L256.22,173.99L256.85,136.27L257.49,209.95L258.12,206.98L258.76,38.945L259.4,223.64L260.03,161.62L260.67,278.56L261.31,268.4L261.94,222.07L262.58,165.59L263.22,213.69L263.85,159.9L264.49,253.47L265.13,248.87L265.76,227.92L266.4,38.842L267.03,223.33L267.67,143.8L268.31,208.22L268.94,169.36L269.58,226.34L270.22,134.3L270.85,234.53L271.49,164.45L272.13,213.1L272.76,137.94L273.4,225.91L274.03,138.59L274.67,38.94L275.31,212.85L275.94,172.63L276.58,178.85L277.22,124.36L277.85,232L278.49,165.94L279.13,233.42L279.76,168.43L280.4,210.11L281.04,134.84L281.67,202.88L282.31,145.9L282.94,38.71L283.58,222.38L284.22,219.82L284.85,220.89L285.49,148.36L286.13,264.05L286.76,251.13L287.4,261.79L288.04,195.29L288.67,159.47L289.31,242.41L289.94,243.25L290.58,38.61L291.22,215.64L291.85,139.83L292.49,230.06L293.13,167.56L293.76,191.32L294.4,140.41L295.04,201.21L295.67,141.55L296.31,231.89L296.95,237.73L297.58,238.32L298.22,38.787L298.85,257.18L299.49,264.39L300.13,222.93L300.76,170.3L301.4,224.6L302.04,142.08L302.67,209.54L303.31,140.83L303.95,223.21L304.58,135.28L305.22,240.08L305.85,38.807L306.49,222.59L307.13,139.03L307.76,234.87L308.4,155.19L309.04,216.23L309.67,171.72L310.31,212.68L310.95,147.1L311.58,179.41L312.22,149.16L312.86,243.81L313.49,38.832L314.13,267.6L314.76,246.61L315.4,165.65L316.04,266.73L316.67,255.5L317.31,233.44L317.95,161.81L318.58,183.65L319.22,132.26L319.86,248.09L320.49,254.69L321.13,234.98L321.77,38.773L322.4,203.01L323.04,169.93L323.67,215.42L324.31,156.75L324.95,213.68L325.58,160.79L326.22,209.33L326.86,166.92L327.49,204.74L328.13,137.94L328.77,193.57L329.4,38.763L330.04,209.93L330.67,139.49L331.31,211.61L331.95,158.42L332.58,152.18L333.22,163.61L333.86,199.94L334.49,147.76L335.13,201.97L335.77,217.89L336.4,212.37L337.04,38.823L337.68,184.07L338.31,139.53L338.95,211.79L339.58,160.27L340.22,167.44L340.86,165.3L341.49,190.25L342.13,121.15L342.77,205.41L343.4,215.76L344.04,38.813L344.68,225.04L345.31,165.88L345.95,238.21L346.58,167.52L347.22,197.84L347.86,168.86L348.49,213.69L349.13,153.3L349.77,234.3L350.4,238.83L351.04,238.98L351.68,199.17L352.31,38.804L352.95,207.69L353.59,171.52L354.22,224.6L354.86,174.98L355.49,223.96L356.13,158.72L356.77,185.48L357.4,134.68L358.04,216.21L358.68,155.27L359.31,203.44L359.95,38.833L360.59,172.62L361.22,166.34L361.86,217.52L362.49,164.37L363.13,211.7L363.77,157.24L364.4,244.18L365.04,250.27L365.68,247.06L366.31,239.08L366.95,137.77L367.59,38.902L368.22,259.36L368.86,264.02L369.5,223.32L370.13,163.36L370.77,225.57L371.4,168.85L372.04,208.18L372.68,160.32L373.31,210.61L373.95,135.26L374.59,224.07L375.22,38.534L375.86,256.35L376.5,267.25L377.13,179.34L377.77,135.14L378.4,174.88L379.04,141.41L379.68,231.93L380.31,146.89L380.95,201.14L381.59,159.88L382.22,229.96L382.86,147.68L383.5,38.921L384.13,258.95L384.77,246.93L385.41,167.36L386.04,205.5L386.68,164.98L387.31,209.46L387.95,156.83L388.59,200.58L389.22,158.24L389.86,215.87L390.5,166.57L391.13,214.99L391.77,38.48L392.41,202.07L393.04,163.96L393.68,201.46L394.31,152.93L394.95,175.91L395.59,169.18L396.22,194.07L396.86,129.69L397.5,249.47L398.13,249.75L398.77,38.745L399.41,257.22L400.04,262.14L400.68,238.73L401.31,163.88" style="fill:none;stroke:#F15A60" />
<path d="M405.2,277.58L425.2,277.58" style="fill:none;stroke:#F15A60" />
<text x="325.55" y="-271.91" transform="scale(1, -1)"
	style="font-family:Times;font-weight:normal;font-style:normal;font-size:12px">batch-1mb-notx</text>
</g>
</svg>
