<?xml version="1.0"?>
<!-- Generated by SVGo and Plotinum VG -->
<svg width="425.2pt" height="283.46pt" viewBox="0 0 425.2 283.46"
	xmlns="http://www.w3.org/2000/svg"
	xmlns:xlink="http://www.w3.org/1999/xlink">
<g transform="scale(1, -1) translate(0, -283.46)">
<path d="M0,0L425.2,0L425.2,283.46L0,283.46Z" style="fill:#FFFFFF" />
<text x="209.73" y="-3.8613" transform="scale(1, -1)"
	style="font-family:Times;font-weight:normal;font-style:normal;font-size:12px">database size</text>
<text x="65.668" y="-15.602" transform="scale(1, -1)"
	style="font-family:Times;font-weight:normal;font-style:normal;font-size:10px">8.00 mb</text>
<text x="141.11" y="-15.602" transform="scale(1, -1)"
	style="font-family:Times;font-weight:normal;font-style:normal;font-size:10px">264.00 mb</text>
<text x="221.55" y="-15.602" transform="scale(1, -1)"
	style="font-family:Times;font-weight:normal;font-style:normal;font-size:10px">520.00 mb</text>
<text x="301.99" y="-15.602" transform="scale(1, -1)"
	style="font-family:Times;font-weight:normal;font-style:normal;font-size:10px">776.00 mb</text>
<text x="377.42" y="-15.602" transform="scale(1, -1)"
	style="font-family:Times;font-weight:normal;font-style:normal;font-size:10px">1024.00 mb</text>
<path d="M82.057,25.23L82.057,33.23" style="fill:none;stroke:#000000;stroke-width:0.5" />
<path d="M162.5,25.23L162.5,33.23" style="fill:none;stroke:#000000;stroke-width:0.5" />
<path d="M242.94,25.23L242.94,33.23" style="fill:none;stroke:#000000;stroke-width:0.5" />
<path d="M323.38,25.23L323.38,33.23" style="fill:none;stroke:#000000;stroke-width:0.5" />
<path d="M401.31,25.23L401.31,33.23" style="fill:none;stroke:#000000;stroke-width:0.5" />
<path d="M81.114,33.23L401.31,33.23" style="fill:none;stroke:#000000;stroke-width:0.5" />
<g transform="rotate(90)">
<text x="144.86" y="11.555" transform="scale(1, -1)"
	style="font-family:Times;font-weight:normal;font-style:normal;font-size:12px">speed</text>
</g>
<text x="15.416" y="-273.84" transform="scale(1, -1)"
	style="font-family:Times;font-weight:normal;font-style:normal;font-size:10px">242.51 mb/s</text>
<path d="M67.364,278.56L75.364,278.56" style="fill:none;stroke:#000000;stroke-width:0.5" />
<path d="M75.364,38.48L75.364,278.56" style="fill:none;stroke:#000000;stroke-width:0.5" />
<path d="M81.114,38.48L82.685,155.75L84.257,210.63L85.828,253.34L87.399,254.95L88.97,267.22L90.541,265.22L92.112,270.87L93.683,271.24L95.254,263.42L96.825,271.91L98.397,268.56L99.968,272.41L101.54,264.16L103.11,267.36L104.68,257.24L106.25,253.91L107.82,262.94L109.39,264.92L110.97,249.68L112.54,267.91L114.11,271.85L115.68,260.27L117.25,255.1L118.82,254.53L120.39,266.22L121.96,269.55L123.53,250.75L125.11,248.98L126.68,269.47L128.25,272.14L129.82,272.13L131.39,263.2L132.96,272.19L134.53,268.23L136.1,272.53L137.67,254.89L139.25,256.05L140.82,274.13L142.39,272.74L143.96,270.43L145.53,270.52L147.1,270.82L148.67,271.75L150.24,260.7L151.81,272.13L153.39,259.52L154.96,253.29L156.53,254.9L158.1,274.63L159.67,257.04L161.24,271.47L162.81,268.12L164.38,275.69L165.95,265.78L167.53,257.67L169.1,256.89L170.67,239.46L172.24,263.64L173.81,269.07L175.38,256.15L176.95,261.93L178.52,262.55L180.09,246.62L181.67,259.24L183.24,237.65L184.81,249.06L186.38,271.1L187.95,270.14L189.52,270.59L191.09,251.67L192.66,271.47L194.24,252.07L195.81,261.39L197.38,265.42L198.95,266.64L200.52,266.98L202.09,268.94L203.66,258.62L205.23,266.98L206.8,265.57L208.38,260.59L209.95,274.63L211.52,251.63L213.09,253.27L214.66,262.34L216.23,271.7L217.8,265.03L219.37,254.63L220.94,266.12L222.52,273.8L224.09,268.5L225.66,271.81L227.23,270.6L228.8,265.24L230.37,266.35L231.94,260.39L233.51,266.44L235.08,267.75L236.66,274.01L238.23,250.29L239.8,275.02L241.37,268.79L242.94,268.82L244.51,273.19L246.08,272.12L247.65,245.81L249.22,258.68L250.8,267.03L252.37,273.79L253.94,259.89L255.51,254.63L257.08,266.88L258.65,261L260.22,242.75L261.79,259.57L263.36,260.16L264.94,252.91L266.51,231.11L268.08,244.76L269.65,265.09L271.22,266.05L272.79,267.04L274.36,274.79L275.93,273.3L277.5,270.99L279.08,267.73L280.65,267.67L282.22,273.48L283.79,269.63L285.36,266.48L286.93,262.78L288.5,268.41L290.07,271.24L291.64,267.1L293.22,265.23L294.79,258.42L296.36,273.46L297.93,268.18L299.5,277.27L301.07,268.06L302.64,278.56L304.21,269.69L305.78,268.21L307.36,266.22L308.93,263.75L310.5,263.74L312.07,223.23L313.64,239.52L315.21,251.98L316.78,216.05L318.35,218.11L319.92,210.86L321.5,206.96L323.07,214.08L324.64,251.14L326.21,238.98L327.78,250.82L329.35,247.12L330.92,245.05L332.49,244.7L334.06,270.22L335.64,272.96L337.21,258.78L338.78,270.13L340.35,254.97L341.92,267.24L343.49,258.79L345.06,267.02L346.63,272.42L348.2,273.18L349.78,261.05L351.35,240.33L352.92,236.2L354.49,221.54L356.06,234.83L357.63,235.28L359.2,267.58L360.77,257.47L362.35,270.96L363.92,271.69L365.49,273.46L367.06,264.28L368.63,260.48L370.2,267.61L371.77,195.93L373.34,257.46L374.91,266.37L376.49,272.95L378.06,271.39L379.63,273.6L381.2,249.39L382.77,236.77L384.34,240.28L385.91,249.25L387.48,253.86L389.05,260L390.63,254.59L392.2,272.67L393.77,269.56L395.34,271.07L396.91,257.26L398.48,257.33L400.05,253.83L401.31,235.1" style="fill:none;stroke:#F15A60" />
<path d="M405.2,277.58L425.2,277.58" style="fill:none;stroke:#F15A60" />
<text x="325.55" y="-271.91" transform="scale(1, -1)"
	style="font-family:Times;font-weight:normal;font-style:normal;font-size:12px">batch-5mb-notx</text>
</g>
</svg>
