<?xml version="1.0"?>
<!-- Generated by SVGo and Plotinum VG -->
<svg width="425.2pt" height="283.46pt" viewBox="0 0 425.2 283.46"
	xmlns="http://www.w3.org/2000/svg"
	xmlns:xlink="http://www.w3.org/1999/xlink">
<g transform="scale(1, -1) translate(0, -283.46)">
<path d="M0,0L425.2,0L425.2,283.46L0,283.46Z" style="fill:#FFFFFF" />
<text x="207.23" y="-3.8613" transform="scale(1, -1)"
	style="font-family:Times;font-weight:normal;font-style:normal;font-size:12px">database size</text>
<text x="60.252" y="-15.602" transform="scale(1, -1)"
	style="font-family:Times;font-weight:normal;font-style:normal;font-size:10px">4.00 mb</text>
<text x="136.77" y="-15.602" transform="scale(1, -1)"
	style="font-family:Times;font-weight:normal;font-style:normal;font-size:10px">260.00 mb</text>
<text x="218.28" y="-15.602" transform="scale(1, -1)"
	style="font-family:Times;font-weight:normal;font-style:normal;font-size:10px">516.00 mb</text>
<text x="299.79" y="-15.602" transform="scale(1, -1)"
	style="font-family:Times;font-weight:normal;font-style:normal;font-size:10px">772.00 mb</text>
<text x="377.42" y="-15.602" transform="scale(1, -1)"
	style="font-family:Times;font-weight:normal;font-style:normal;font-size:10px">1023.63 mb</text>
<path d="M76.642,25.23L76.642,33.23" style="fill:none;stroke:#000000;stroke-width:0.5" />
<path d="M158.16,25.23L158.16,33.23" style="fill:none;stroke:#000000;stroke-width:0.5" />
<path d="M239.67,25.23L239.67,33.23" style="fill:none;stroke:#000000;stroke-width:0.5" />
<path d="M321.18,25.23L321.18,33.23" style="fill:none;stroke:#000000;stroke-width:0.5" />
<path d="M401.31,25.23L401.31,33.23" style="fill:none;stroke:#000000;stroke-width:0.5" />
<path d="M76.114,33.23L401.31,33.23" style="fill:none;stroke:#000000;stroke-width:0.5" />
<g transform="rotate(90)">
<text x="144.86" y="11.555" transform="scale(1, -1)"
	style="font-family:Times;font-weight:normal;font-style:normal;font-size:12px">speed</text>
</g>
<text x="15.416" y="-43.263" transform="scale(1, -1)"
	style="font-family:Times;font-weight:normal;font-style:normal;font-size:10px">16.00 mb/s</text>
<text x="15.416" y="-113.65" transform="scale(1, -1)"
	style="font-family:Times;font-weight:normal;font-style:normal;font-size:10px">32.00 mb/s</text>
<text x="15.416" y="-184.03" transform="scale(1, -1)"
	style="font-family:Times;font-weight:normal;font-style:normal;font-size:10px">48.00 mb/s</text>
<text x="15.416" y="-254.41" transform="scale(1, -1)"
	style="font-family:Times;font-weight:normal;font-style:normal;font-size:10px">64.00 mb/s</text>
<text x="15.416" y="-273.84" transform="scale(1, -1)"
	style="font-family:Times;font-weight:normal;font-style:normal;font-size:10px">68.42 mb/s</text>
<path d="M62.364,47.985L70.364,47.985" style="fill:none;stroke:#000000;stroke-width:0.5" />
<path d="M62.364,118.37L70.364,118.37" style="fill:none;stroke:#000000;stroke-width:0.5" />
<path d="M62.364,188.75L70.364,188.75" style="fill:none;stroke:#000000;stroke-width:0.5" />
<path d="M62.364,259.13L70.364,259.13" style="fill:none;stroke:#000000;stroke-width:0.5" />
<path d="M62.364,278.56L70.364,278.56" style="fill:none;stroke:#000000;stroke-width:0.5" />
<path d="M70.364,38.48L70.364,278.56" style="fill:none;stroke:#000000;stroke-width:0.5" />
<path d="M76.114,278.56L76.861,213.39L77.607,205.47L78.353,203.24L79.099,183.76L79.846,173.16L80.592,176.7L81.338,189.83L82.085,159.96L82.831,173.4L83.577,134.71L84.323,155.25L85.07,166.2L85.816,133.77L86.562,167.21L87.309,163.33L88.055,132.52L88.801,149.8L89.547,159.68L90.294,154.87L91.04,151.42L91.786,111.19L92.533,145.4L93.279,148.92L94.025,147.75L94.771,145.35L95.518,101.07L96.264,141.41L97.01,141.53L97.757,139.58L98.503,133.63L99.249,129.85L99.995,132.92L100.74,88.398L101.49,129.41L102.23,129.76L102.98,131.15L103.73,131.3L104.47,131.29L105.22,126.74L105.97,128.17L106.71,76.056L107.46,135.15L108.2,139.44L108.95,138L109.7,136.05L110.44,137.9L111.19,136.84L111.94,135.22L112.68,131.78L113.43,129.79L114.17,95.919L114.92,121.43L115.67,123.62L116.41,115.04L117.16,113.92L117.91,116.7L118.65,117.59L119.4,116.18L120.15,115.65L120.89,120.68L121.64,119.95L122.38,120.39L123.13,118.24L123.88,66.257L124.62,121.45L125.37,126.09L126.12,121.32L126.86,119.17L127.61,122.54L128.35,124.41L129.1,125.57L129.85,122.92L130.59,123.07L131.34,123.85L132.09,122.8L132.83,122.87L133.58,120.16L134.32,120.21L135.07,120.27L135.82,61.193L136.56,112.93L137.31,118.83L138.06,117.54L138.8,113.05L139.55,118.04L140.29,116.76L141.04,117.09L141.79,117.38L142.53,112.65L143.28,114.8L144.03,117.03L144.77,110.71L145.52,115.85L146.26,116.23L147.01,112.93L147.76,112.91L148.5,115.81L149.25,116.15L150,115.21L150.74,114.71L151.49,49.242L152.24,109.41L152.98,104.08L153.73,100.35L154.47,98.487L155.22,106.27L155.97,110.5L156.71,110.63L157.46,112.88L158.21,114.09L158.95,103.86L159.7,105.57L160.44,111.26L161.19,110.16L161.94,109.37L162.68,111.78L163.43,110.01L164.18,109.01L164.92,110.34L165.67,107.62L166.41,109.75L167.16,109.73L167.91,106.03L168.65,105.77L169.4,106.44L170.15,41.416L170.89,106.28L171.64,108.79L172.38,107.44L173.13,109.5L173.88,102.75L174.62,103.38L175.37,106.69L176.12,107.09L176.86,107.38L177.61,106.73L178.36,107.23L179.1,108.8L179.85,106.33L180.59,98.818L181.34,104.07L182.09,106.81L182.83,104.03L183.58,104.05L184.33,103.49L185.07,102.92L185.82,98.382L186.56,98.346L187.31,102.74L188.06,102.37L188.8,102.71L189.55,101.69L190.3,103.34L191.04,103.11L191.79,103.87L192.53,157.55L193.28,246.16L194.03,225.8L194.77,219.21L195.52,207.97L196.27,189.04L197.01,194.86L197.76,184.4L198.5,155.57L199.25,179.45L200,167.3L200.74,171.34L201.49,176.59L202.24,147.29L202.98,160.15L203.73,165.68L204.48,140.8L205.22,154.72L205.97,162.18L206.71,156.04L207.46,154.92L208.21,129.24L208.95,153.53L209.7,154.24L210.45,151.47L211.19,147.73L211.94,102.3L212.68,132.09L213.43,132.03L214.18,130.66L214.92,128.49L215.67,128.88L216.42,129.03L217.16,74.279L217.91,118.13L218.65,53.072L219.4,121.12L220.15,121.64L220.89,119.48L221.64,119.06L222.39,118.6L223.13,72.501L223.88,116.53L224.62,120.04L225.37,119.99L226.12,119.2L226.86,112.49L227.61,116.16L228.36,117.7L229.1,116.6L229.85,115.63L230.6,72.19L231.34,117.23L232.09,118.12L232.83,119.04L233.58,116.76L234.33,116.18L235.07,117.42L235.82,115.23L236.57,112.05L237.31,106.2L238.06,112.21L238.8,115.52L239.55,115.18L240.3,63.882L241.04,110.92L241.79,110.63L242.54,112.14L243.28,110.8L244.03,107.76L244.77,110.13L245.52,111.62L246.27,109.06L247.01,110.74L247.76,112.6L248.51,110.02L249.25,109.18L250,109.04L250.74,110.18L251.49,110.79L252.24,55.574L252.98,104L253.73,105.46L254.48,107.4L255.22,107.04L255.97,108.59L256.72,107.99L257.46,105.57L258.21,99.564L258.95,104.96L259.7,106.32L260.45,107.08L261.19,106.6L261.94,105.96L262.69,105.97L263.43,104.98L264.18,104.8L264.92,104.07L265.67,104.48L266.42,106.53L267.16,105.09L267.91,46.661L268.66,108.49L269.4,109.19L270.15,109.85L270.89,107.01L271.64,108.15L272.39,106.5L273.13,101.63L273.88,106.57L274.63,108.35L275.37,107.37L276.12,108.52L276.86,106.37L277.61,106.07L278.36,108.67L279.1,102.43L279.85,101.92L280.6,105.24L281.34,104.65L282.09,102.7L282.84,107.75L283.58,109.29L284.33,109.22L285.07,106.81L285.82,104.54L286.57,60.186L287.31,103.19L288.06,105.74L288.81,106.73L289.55,103.81L290.3,106.83L291.04,104.12L291.79,104.86L292.54,98.389L293.28,103.12L294.03,101.23L294.78,98.692L295.52,104.03L296.27,101.69L297.01,103.18L297.76,96.582L298.51,98.328L299.25,99.026L300,98.153L300.75,98.211L301.49,102.1L302.24,61.45L302.98,94.584L303.73,98.624L304.48,94.382L305.22,99.575L305.97,97.889L306.72,98.787L307.46,91.33L308.21,92.448L308.95,217.59L309.7,256.08L310.45,234.24L311.19,223.94L311.94,214.71L312.69,206.72L313.43,194.25L314.18,191.98L314.93,177.28L315.67,191.57L316.42,169.88L317.16,177.21L317.91,179.33L318.66,153.31L319.4,166.27L320.15,167.4L320.9,147.4L321.64,155.78L322.39,162.56L323.13,157.14L323.88,152.82L324.63,127.01L325.37,149.42L326.12,151.74L326.87,150.79L327.61,148.96L328.36,117.71L329.1,138.59L329.85,137.38L330.6,133.51L331.34,134.19L332.09,133.19L332.84,129.76L333.58,51.966L334.33,138.52L335.07,140.01L335.82,137.56L336.57,138.07L337.31,139.16L338.06,132.38L338.81,131.75L339.55,100.06L340.3,128L341.05,123.91L341.79,127.56L342.54,119.1L343.28,123.78L344.03,129.24L344.78,125.07L345.52,124.74L346.27,124.32L347.02,93.168L347.76,119.66L348.51,122.75L349.25,121.99L350,124.13L350.75,122.69L351.49,120.71L352.24,120.66L352.99,108.58L353.73,101.45L354.48,114.05L355.22,118.97L355.97,119.35L356.72,57.976L357.46,105.47L358.21,113.73L358.96,113.6L359.7,114.27L360.45,118.89L361.19,111.68L361.94,113.57L362.69,115.71L363.43,112.39L364.18,113.08L364.93,111.95L365.67,116L366.42,115.99L367.17,114.95L367.91,114.35L368.66,38.48L369.4,106.91L370.15,111.34L370.9,115.03L371.64,115.25L372.39,104.83L373.14,102.6L373.88,100.07L374.63,104.57L375.37,105.43L376.12,96.718L376.87,91.509L377.61,95.934L378.36,92.579L379.11,64.739L379.85,94.129L380.6,94.234L381.34,101.23L382.09,98.725L382.84,87.868L383.58,97.348L384.33,63.554L385.08,101.91L385.82,101.49L386.57,102.76L387.31,103.74L388.06,98.324L388.81,101.67L389.55,101.26L390.3,101.9L391.05,102.56L391.79,101.87L392.54,100.9L393.29,102.35L394.03,100.27L394.78,102.36L395.52,102.56L396.27,102.06L397.02,102.36L397.76,102.76L398.51,100.5L399.26,101.56L400,104.54L400.75,102.7L401.31,104.42" style="fill:none;stroke:#F15A60" />
<path d="M405.2,277.58L425.2,277.58" style="fill:none;stroke:#F15A60" />
<text x="194.93" y="-271.91" transform="scale(1, -1)"
	style="font-family:Times;font-weight:normal;font-style:normal;font-size:12px">batch-100kb-wb-512mb-cache-1gb-nosync</text>
</g>
</svg>
