<?xml version="1.0"?>
<!-- Generated by SVGo and Plotinum VG -->
<svg width="425.2pt" height="283.46pt" viewBox="0 0 425.2 283.46"
	xmlns="http://www.w3.org/2000/svg"
	xmlns:xlink="http://www.w3.org/1999/xlink">
<g transform="scale(1, -1) translate(0, -283.46)">
<path d="M0,0L425.2,0L425.2,283.46L0,283.46Z" style="fill:#FFFFFF" />
<text x="209.73" y="-3.8613" transform="scale(1, -1)"
	style="font-family:Times;font-weight:normal;font-style:normal;font-size:12px">database size</text>
<text x="65.352" y="-15.602" transform="scale(1, -1)"
	style="font-family:Times;font-weight:normal;font-style:normal;font-size:10px">4.00 mb</text>
<text x="140.56" y="-15.602" transform="scale(1, -1)"
	style="font-family:Times;font-weight:normal;font-style:normal;font-size:10px">260.00 mb</text>
<text x="220.76" y="-15.602" transform="scale(1, -1)"
	style="font-family:Times;font-weight:normal;font-style:normal;font-size:10px">516.00 mb</text>
<text x="300.97" y="-15.602" transform="scale(1, -1)"
	style="font-family:Times;font-weight:normal;font-style:normal;font-size:10px">772.00 mb</text>
<text x="377.42" y="-15.602" transform="scale(1, -1)"
	style="font-family:Times;font-weight:normal;font-style:normal;font-size:10px">1024.00 mb</text>
<path d="M81.741,25.23L81.741,33.23" style="fill:none;stroke:#000000;stroke-width:0.5" />
<path d="M161.95,25.23L161.95,33.23" style="fill:none;stroke:#000000;stroke-width:0.5" />
<path d="M242.15,25.23L242.15,33.23" style="fill:none;stroke:#000000;stroke-width:0.5" />
<path d="M322.36,25.23L322.36,33.23" style="fill:none;stroke:#000000;stroke-width:0.5" />
<path d="M401.31,25.23L401.31,33.23" style="fill:none;stroke:#000000;stroke-width:0.5" />
<path d="M81.114,33.23L401.31,33.23" style="fill:none;stroke:#000000;stroke-width:0.5" />
<g transform="rotate(90)">
<text x="144.86" y="11.555" transform="scale(1, -1)"
	style="font-family:Times;font-weight:normal;font-style:normal;font-size:12px">speed</text>
</g>
<text x="15.416" y="-273.84" transform="scale(1, -1)"
	style="font-family:Times;font-weight:normal;font-style:normal;font-size:10px">254.20 mb/s</text>
<path d="M67.364,278.56L75.364,278.56" style="fill:none;stroke:#000000;stroke-width:0.5" />
<path d="M75.364,38.48L75.364,278.56" style="fill:none;stroke:#000000;stroke-width:0.5" />
<path d="M81.114,38.48L81.741,232.15L82.367,246.09L82.994,239.98L83.621,243.67L84.247,258.66L84.874,251.59L85.501,259.23L86.127,256.15L86.754,269.41L87.38,242.42L88.007,233.73L88.634,249.43L89.26,254.54L89.887,257.08L90.513,261.87L91.14,246.94L91.767,241.61L92.393,243.91L93.02,255.14L93.647,244.48L94.273,243.24L94.9,255.34L95.526,252.69L96.153,259.02L96.78,258.04L97.406,254.41L98.033,226.45L98.66,244.66L99.286,241.94L99.913,254.84L100.54,251.26L101.17,257.18L101.79,259.51L102.42,262.34L103.05,258.98L103.67,254.43L104.3,258.3L104.93,260.7L105.55,255.32L106.18,255.31L106.81,255.33L107.43,259.95L108.06,260L108.69,253.03L109.31,258.55L109.94,253.54L110.57,263.33L111.19,261.74L111.82,256.45L112.45,263.55L113.07,248.47L113.7,240.21L114.32,255.4L114.95,267.98L115.58,266.13L116.2,258.61L116.83,265.59L117.46,269.53L118.08,260.92L118.71,260.43L119.34,254.81L119.96,262.34L120.59,264.22L121.22,247.86L121.84,243.65L122.47,256.99L123.1,261.37L123.72,260.45L124.35,263.67L124.98,262.33L125.6,214.55L126.23,250.77L126.86,230.09L127.48,262.3L128.11,253.43L128.74,252.89L129.36,262.03L129.99,257.15L130.62,196.59L131.24,240.21L131.87,257.95L132.5,249.58L133.12,228.42L133.75,257.49L134.38,256.64L135,265.71L135.63,261.35L136.26,254.42L136.88,267.05L137.51,262.8L138.14,261.18L138.76,250.26L139.39,256.5L140.02,265.13L140.64,258.56L141.27,258.59L141.9,243.65L142.52,254.94L143.15,267.03L143.78,262.84L144.4,253L145.03,256.68L145.66,260.47L146.28,268.99L146.91,271.51L147.54,258.56L148.16,255.3L148.79,238.49L149.42,253.93L150.04,251.71L150.67,246.76L151.3,257.61L151.92,247.18L152.55,251.26L153.18,253.1L153.8,269.48L154.43,259.45L155.05,253.99L155.68,250.31L156.31,263.29L156.93,259.44L157.56,269.03L158.19,251.74L158.81,264.64L159.44,257.23L160.07,267.56L160.69,255.78L161.32,248.07L161.95,262.77L162.57,252.56L163.2,255.38L163.83,249.38L164.45,257.64L165.08,246.83L165.71,250.77L166.33,255.76L166.96,260.36L167.59,255.92L168.21,271.36L168.84,252.57L169.47,265.63L170.09,246.86L170.72,265.14L171.35,256.89L171.97,260.66L172.6,256.24L173.23,254.19L173.85,248.3L174.48,252.63L175.11,261.87L175.73,258.07L176.36,261.42L176.99,258.99L177.61,274.93L178.24,254.81L178.87,257.22L179.49,251.7L180.12,251.18L180.75,260.95L181.37,256.22L182,255.31L182.63,261.88L183.25,260.9L183.88,245.87L184.51,261.79L185.13,255.34L185.76,253.95L186.39,249.95L187.01,258.98L187.64,231.41L188.27,246.24L188.89,253.91L189.52,259.08L190.15,263.34L190.77,263.12L191.4,265.22L192.03,258.11L192.65,264.19L193.28,271.93L193.91,274.47L194.53,259.93L195.16,257.11L195.78,266.7L196.41,261.34L197.04,264.74L197.66,267L198.29,259.99L198.92,266.68L199.54,268.99L200.17,258.47L200.8,251.28L201.42,274.41L202.05,271L202.68,265.4L203.3,252.31L203.93,162.14L204.56,233.08L205.18,236.13L205.81,256.01L206.44,257.2L207.06,255.8L207.69,250.85L208.32,261.77L208.94,253.46L209.57,267.56L210.2,251.21L210.82,263.54L211.45,261.64L212.08,258.53L212.7,258.58L213.33,257.11L213.96,261.4L214.58,259.63L215.21,245.34L215.84,249.87L216.46,250.84L217.09,261.8L217.72,249.88L218.34,249.4L218.97,248.31L219.6,267.32L220.22,258.63L220.85,270.41L221.48,251.23L222.1,244.15L222.73,258.01L223.36,244.2L223.98,255.31L224.61,252.1L225.24,253.05L225.86,258.77L226.49,264.35L227.12,263.36L227.74,270.55L228.37,266.13L229,259.91L229.62,262.74L230.25,266.11L230.88,256.34L231.5,258.6L232.13,247.11L232.76,255.76L233.38,252.61L234.01,247.27L234.64,213.39L235.26,248.02L235.89,250.37L236.52,254.79L237.14,249.92L237.77,264.81L238.39,256.61L239.02,258.11L239.65,257.27L240.27,257.06L240.9,261.4L241.53,259.93L242.15,250.08L242.78,249.71L243.41,267.57L244.03,257.59L244.66,253.55L245.29,268.04L245.91,231.69L246.54,264.21L247.17,258.31L247.79,252.38L248.42,258.59L249.05,267.75L249.67,246.17L250.3,259.93L250.93,247.61L251.55,259.08L252.18,258.56L252.81,248.09L253.43,241.11L254.06,264.67L254.69,247.62L255.31,257.65L255.94,262.76L256.57,221.12L257.19,258.16L257.82,253.92L258.45,230.57L259.07,258.57L259.7,256.71L260.33,237.97L260.95,249.92L261.58,261.84L262.21,253.52L262.83,264.24L263.46,262.81L264.09,259.45L264.71,263.75L265.34,262.31L265.97,261.05L266.59,264.09L267.22,236.91L267.85,258.37L268.47,254.81L269.1,245.01L269.73,262.85L270.35,263.69L270.98,241.93L271.61,272.93L272.23,254.87L272.86,232.61L273.49,254.35L274.11,254.93L274.74,261.94L275.37,263.63L275.99,263.74L276.62,244.98L277.25,244.99L277.87,250.79L278.5,249.39L279.12,257.21L279.75,251.25L280.38,256.63L281,251.7L281.63,254.85L282.26,259.58L282.88,265.14L283.51,256.27L284.14,252.57L284.76,263.71L285.39,256.21L286.02,244.63L286.64,255.12L287.27,260.2L287.9,248.92L288.52,273.94L289.15,216.08L289.78,232.3L290.4,243.49L291.03,255.81L291.66,250.75L292.28,259.7L292.91,257.41L293.54,258.15L294.16,223.12L294.79,226L295.42,246.73L296.04,259.54L296.67,258.78L297.3,258.37L297.92,262.74L298.55,259.97L299.18,251.29L299.8,247.99L300.43,254.84L301.06,234.31L301.68,255.32L302.31,250.82L302.94,257.09L303.56,245.23L304.19,247.92L304.82,248L305.44,229.1L306.07,251.48L306.7,260.92L307.32,241.46L307.95,266.13L308.58,246.3L309.2,254.35L309.83,241.15L310.46,262.76L311.08,271.02L311.71,257.61L312.34,260.38L312.96,261.88L313.59,253.48L314.22,247.23L314.84,257.18L315.47,259.93L316.1,215.21L316.72,252.41L317.35,254.68L317.98,268.92L318.6,262.95L319.23,244.84L319.85,232.99L320.48,265.97L321.11,251.83L321.73,252.74L322.36,259.82L322.99,253.95L323.61,258.25L324.24,253.49L324.87,256.71L325.49,267.41L326.12,235.08L326.75,273.09L327.37,272.79L328,261.99L328.63,261.5L329.25,249.61L329.88,264.35L330.51,263.91L331.13,254.24L331.76,254.87L332.39,269.02L333.01,249.29L333.64,269.02L334.27,270.63L334.89,255.2L335.52,255L336.15,258.42L336.77,256.98L337.4,265.51L338.03,250.78L338.65,268.05L339.28,247.95L339.91,270.63L340.53,250.77L341.16,265.09L341.79,260.37L342.41,241.06L343.04,229.26L343.67,253.49L344.29,258.28L344.92,271.08L345.55,261.07L346.17,255.03L346.8,250.63L347.43,257.49L348.05,278.56L348.68,269.82L349.31,266.8L349.93,268.37L350.56,266.13L351.19,273.57L351.81,272.62L352.44,257.5L353.07,266.92L353.69,259.65L354.32,257.44L354.95,260.95L355.57,262.95L356.2,267.84L356.83,216.83L357.45,237.66L358.08,256.12L358.71,263.26L359.33,260.6L359.96,260.56L360.58,242.81L361.21,253.05L361.84,275.27L362.46,248.07L363.09,259.96L363.72,247.79L364.34,247.34L364.97,230.61L365.6,224.77L366.22,203.17L366.85,229.52L367.48,238.76L368.1,213.25L368.73,224.66L369.36,223.56L369.98,226.52L370.61,232.98L371.24,222.24L371.86,217.86L372.49,227.61L373.12,239.06L373.74,245.59L374.37,233.25L375,234.4L375.62,234.83L376.25,248.81L376.88,249.87L377.5,233.57L378.13,257.3L378.76,262.65L379.38,251.05L380.01,262.93L380.64,218.8L381.26,217.41L381.89,240.57L382.52,240.94L383.14,243.55L383.77,250.2L384.4,248.51L385.02,252.4L385.65,256.45L386.28,256.85L386.9,253.81L387.53,253.97L388.16,258.85L388.78,258.01L389.41,262.39L390.04,250.66L390.66,264.05L391.29,268.21L391.92,266.45L392.54,267.41L393.17,263.73L393.8,248.83L394.42,261.38L395.05,268.22L395.68,265.47L396.3,270.34L396.93,265.3L397.56,270.14L398.18,255.21L398.81,248.39L399.44,269.83L400.06,262L400.69,260.57L401.31,255.42" style="fill:none;stroke:#F15A60" />
<path d="M405.2,277.58L425.2,277.58" style="fill:none;stroke:#F15A60" />
<text x="325.55" y="-271.91" transform="scale(1, -1)"
	style="font-family:Times;font-weight:normal;font-style:normal;font-size:12px">batch-1mb-notx</text>
</g>
</svg>
