<?xml version="1.0"?>
<!-- Generated by SVGo and Plotinum VG -->
<svg width="425.2pt" height="283.46pt" viewBox="0 0 425.2 283.46"
	xmlns="http://www.w3.org/2000/svg"
	xmlns:xlink="http://www.w3.org/1999/xlink">
<g transform="scale(1, -1) translate(0, -283.46)">
<path d="M0,0L425.2,0L425.2,283.46L0,283.46Z" style="fill:#FFFFFF" />
<text x="207.23" y="-3.8613" transform="scale(1, -1)"
	style="font-family:Times;font-weight:normal;font-style:normal;font-size:12px">database size</text>
<text x="60.252" y="-15.602" transform="scale(1, -1)"
	style="font-family:Times;font-weight:normal;font-style:normal;font-size:10px">4.00 mb</text>
<text x="136.77" y="-15.602" transform="scale(1, -1)"
	style="font-family:Times;font-weight:normal;font-style:normal;font-size:10px">260.00 mb</text>
<text x="218.28" y="-15.602" transform="scale(1, -1)"
	style="font-family:Times;font-weight:normal;font-style:normal;font-size:10px">516.00 mb</text>
<text x="299.79" y="-15.602" transform="scale(1, -1)"
	style="font-family:Times;font-weight:normal;font-style:normal;font-size:10px">772.00 mb</text>
<text x="377.42" y="-15.602" transform="scale(1, -1)"
	style="font-family:Times;font-weight:normal;font-style:normal;font-size:10px">1023.63 mb</text>
<path d="M76.642,25.23L76.642,33.23" style="fill:none;stroke:#000000;stroke-width:0.5" />
<path d="M158.16,25.23L158.16,33.23" style="fill:none;stroke:#000000;stroke-width:0.5" />
<path d="M239.67,25.23L239.67,33.23" style="fill:none;stroke:#000000;stroke-width:0.5" />
<path d="M321.18,25.23L321.18,33.23" style="fill:none;stroke:#000000;stroke-width:0.5" />
<path d="M401.31,25.23L401.31,33.23" style="fill:none;stroke:#000000;stroke-width:0.5" />
<path d="M76.114,33.23L401.31,33.23" style="fill:none;stroke:#000000;stroke-width:0.5" />
<g transform="rotate(90)">
<text x="144.86" y="11.555" transform="scale(1, -1)"
	style="font-family:Times;font-weight:normal;font-style:normal;font-size:12px">speed</text>
</g>
<text x="20.416" y="-33.881" transform="scale(1, -1)"
	style="font-family:Times;font-weight:normal;font-style:normal;font-size:10px">1.00 mb/s</text>
<text x="15.416" y="-126.81" transform="scale(1, -1)"
	style="font-family:Times;font-weight:normal;font-style:normal;font-size:10px">33.00 mb/s</text>
<text x="15.416" y="-219.74" transform="scale(1, -1)"
	style="font-family:Times;font-weight:normal;font-style:normal;font-size:10px">65.00 mb/s</text>
<text x="15.416" y="-273.84" transform="scale(1, -1)"
	style="font-family:Times;font-weight:normal;font-style:normal;font-size:10px">83.63 mb/s</text>
<path d="M62.364,38.603L70.364,38.603" style="fill:none;stroke:#000000;stroke-width:0.5" />
<path d="M62.364,131.53L70.364,131.53" style="fill:none;stroke:#000000;stroke-width:0.5" />
<path d="M62.364,224.46L70.364,224.46" style="fill:none;stroke:#000000;stroke-width:0.5" />
<path d="M62.364,278.56L70.364,278.56" style="fill:none;stroke:#000000;stroke-width:0.5" />
<path d="M70.364,38.48L70.364,278.56" style="fill:none;stroke:#000000;stroke-width:0.5" />
<path d="M76.114,245.67L76.861,242.43L77.607,254.05L78.353,251.55L79.099,255.63L79.846,262.07L80.592,270.27L81.338,270.59L82.085,258.58L82.831,262.8L83.577,263.56L84.323,202.96L85.07,269.75L85.816,258.02L86.562,258.19L87.309,170.17L88.055,250.19L88.801,254.34L89.547,247.41L90.294,233.35L91.04,153.21L91.786,144.39L92.533,189.82L93.279,205.4L94.025,211.86L94.771,139.01L95.518,151.42L96.264,144.45L97.01,144.83L97.757,133.44L98.503,246.05L99.249,260.6L99.995,159.42L100.74,148.32L101.49,132.67L102.23,135.4L102.98,150.05L103.73,80.56L104.47,252.31L105.22,161.29L105.97,135.29L106.71,136.78L107.46,145.32L108.2,153.78L108.95,60.582L109.7,246.19L110.44,185.72L111.19,152.76L111.94,155.98L112.68,152.77L113.43,150.94L114.17,53.359L114.92,253.54L115.67,206.21L116.41,137.82L117.16,137.86L117.91,147.95L118.65,137.9L119.4,155.01L120.15,50.466L120.89,261.17L121.64,152.43L122.38,150.85L123.13,148.58L123.88,151.58L124.62,154.7L125.37,47.385L126.12,248.41L126.86,249.61L127.61,185.33L128.35,154.98L129.1,139.73L129.85,147.47L130.59,149.15L131.34,46.261L132.09,206.16L132.83,261.73L133.58,214.29L134.32,151.28L135.07,149.06L135.82,149.1L136.56,147.08L137.31,131.46L138.06,50.108L138.8,251.46L139.55,146.48L140.29,148.66L141.04,152.38L141.79,149.42L142.53,151.32L143.28,45.111L144.03,234.64L144.77,258.8L145.52,278.56L146.26,251.4L147.01,155.72L147.76,152.78L148.5,148.12L149.25,150.07L150,155.5L150.74,57.1L151.49,149.99L152.24,145.39L152.98,140.26L153.73,138.17L154.47,151.47L155.22,48.539L155.97,257.55L156.71,252.13L157.46,170.22L158.21,137.95L158.95,154.88L159.7,152.72L160.44,151.88L161.19,46.232L161.94,233.74L162.68,220.98L163.43,230.96L164.18,152.63L164.92,150.72L165.67,148.85L166.41,149.85L167.16,153.44L167.91,50.588L168.65,238.33L169.4,134.06L170.15,133.51L170.89,139.84L171.64,153.44L172.38,153.02L173.13,45.442L173.88,252.09L174.62,248.79L175.37,260.99L176.12,239.78L176.86,145.18L177.61,154.86L178.36,151.39L179.1,144.1L179.85,151.3L180.59,46.229L181.34,262.38L182.09,267.51L182.83,177.15L183.58,148.59L184.33,156.94L185.07,151.35L185.82,152.86L186.56,49.696L187.31,249.22L188.06,177.36L188.8,154.22L189.55,149.63L190.3,150.09L191.04,150.44L191.79,44.949L192.53,245.61L193.28,270.07L194.03,272.27L194.77,201.02L195.52,152.77L196.27,135.07L197.01,150.73L197.76,155.42L198.5,155.3L199.25,44.458L200,223.95L200.74,220.21L201.49,265.95L202.24,222.57L202.98,153.76L203.73,153.37L204.48,154.24L205.22,150.44L205.97,146.29L206.71,42.951L207.46,229.59L208.21,228.94L208.95,259.95L209.7,247.2L210.45,192.65L211.19,138.58L211.94,153.36L212.68,150.4L213.43,153.13L214.18,148.48L214.92,42.281L215.67,261.88L216.42,255.82L217.16,269.15L217.91,253.78L218.65,193.09L219.4,151.88L220.15,141.49L220.89,154.63L221.64,151.84L222.39,41.274L223.13,247.42L223.88,266.36L224.62,266.03L225.37,257.59L226.12,262.1L226.86,250.84L227.61,204.63L228.36,138.4L229.1,135.59L229.85,152.74L230.6,150.26L231.34,153.4L232.09,40.996L232.83,263.2L233.58,265.32L234.33,262.15L235.07,264.85L235.82,250.07L236.57,211.42L237.31,151.28L238.06,150.58L238.8,149.52L239.55,146.07L240.3,153.17L241.04,40.592L241.79,230.24L242.54,269.38L243.28,245.71L244.03,269.45L244.77,265.77L245.52,273.08L246.27,243.15L247.01,152.57L247.76,153.63L248.51,141.98L249.25,147.25L250,143.33L250.74,40.363L251.49,258.82L252.24,246.78L252.98,265.21L253.73,259.56L254.48,267.57L255.22,267.23L255.97,263.66L256.72,177.97L257.46,147.86L258.21,144.66L258.95,152.74L259.7,151.65L260.45,39.897L261.19,221.59L261.94,226.51L262.69,254.74L263.43,272.35L264.18,270.47L264.92,249.32L265.67,254.07L266.42,267.56L267.16,216.3L267.91,152.5L268.66,152.74L269.4,146.05L270.15,133.26L270.89,152.08L271.64,39.809L272.39,245.25L273.13,189.7L273.88,247.59L274.63,253.81L275.37,267.18L276.12,238.91L276.86,266.36L277.61,259.05L278.36,142.46L279.1,129.98L279.85,133.86L280.6,129.05L281.34,133.13L282.09,39.763L282.84,243.16L283.58,261.19L284.33,268.03L285.07,263.47L285.82,258.6L286.57,254.51L287.31,210.9L288.06,263.74L288.81,223.36L289.55,149.38L290.3,132.21L291.04,143.1L291.79,146.41L292.54,157.27L293.28,39.803L294.03,261.63L294.78,261.88L295.52,251.33L296.27,255.23L297.01,264.66L297.76,257.98L298.51,264.76L299.25,265.31L300,143.77L300.75,134.11L301.49,138.19L302.24,149.54L302.98,150.27L303.73,39.718L304.48,212.59L305.22,265.4L305.97,215.1L306.72,251.47L307.46,262.64L308.21,253.6L308.95,264.82L309.7,263.17L310.45,251.46L311.19,155.38L311.94,140.95L312.69,142.59L313.43,139.5L314.18,140.27L314.93,39.587L315.67,204.79L316.42,253.31L317.16,253.77L317.91,254.52L318.66,271.71L319.4,277.29L320.15,259.6L320.9,241.2L321.64,164.68L322.39,151.24L323.13,153.09L323.88,152.06L324.63,136.87L325.37,39.543L326.12,244.4L326.87,267.61L327.61,257.14L328.36,277.52L329.1,211.47L329.85,243.65L330.6,195.67L331.34,268.65L332.09,256.95L332.84,147.27L333.58,135.57L334.33,139.14L335.07,146.75L335.82,156.18L336.57,39.594L337.31,265.89L338.06,260.52L338.81,259.65L339.55,263.4L340.3,267.85L341.05,275.26L341.79,211.42L342.54,256.01L343.28,179.1L344.03,148.82L344.78,147.83L345.52,134.9L346.27,149.6L347.02,39.584L347.76,248.56L348.51,268.12L349.25,278.34L350,270.37L350.75,264.81L351.49,262.12L352.24,219.67L352.99,235.71L353.73,237.65L354.48,154.78L355.22,151.87L355.97,148.59L356.72,134.2L357.46,144.17L358.21,39.561L358.96,264.1L359.7,264.18L360.45,242.55L361.19,270.19L361.94,267.98L362.69,224.98L363.43,255.13L364.18,252.57L364.93,170.61L365.67,151.26L366.42,154.36L367.17,151.85L367.91,152.57L368.66,39.377L369.4,238.16L370.15,264.44L370.9,256.51L371.64,265.48L372.39,270.39L373.14,258.46L373.88,260.31L374.63,265.27L375.37,198.85L376.12,131.08L376.87,149.69L377.61,151.72L378.36,136.03L379.11,138.93L379.85,39.48L380.6,270.39L381.34,271.78L382.09,259.01L382.84,242.9L383.58,273.42L384.33,269.27L385.08,269.45L385.82,266.63L386.57,159.94L387.31,138.07L388.06,153.31L388.81,151.69L389.55,136.18L390.3,39.367L391.05,241.64L391.79,257.78L392.54,256.7L393.29,230.06L394.03,242.33L394.78,237.71L395.52,257.79L396.27,255.52L397.02,232.71L397.76,151.86L398.51,143.48L399.26,134.42L400,140.29L400.75,138.84L401.31,38.48" style="fill:none;stroke:#F15A60" />
<path d="M405.2,277.58L425.2,277.58" style="fill:none;stroke:#F15A60" />
<text x="304.22" y="-271.91" transform="scale(1, -1)"
	style="font-family:Times;font-weight:normal;font-style:normal;font-size:12px">batch-100kb-nosync</text>
</g>
</svg>
