<?xml version="1.0"?>
<!-- Generated by SVGo and Plotinum VG -->
<svg width="425.2pt" height="283.46pt" viewBox="0 0 425.2 283.46"
	xmlns="http://www.w3.org/2000/svg"
	xmlns:xlink="http://www.w3.org/1999/xlink">
<g transform="scale(1, -1) translate(0, -283.46)">
<path d="M0,0L425.2,0L425.2,283.46L0,283.46Z" style="fill:#FFFFFF" />
<text x="209.73" y="-3.8613" transform="scale(1, -1)"
	style="font-family:Times;font-weight:normal;font-style:normal;font-size:12px">database size</text>
<text x="65.244" y="-15.602" transform="scale(1, -1)"
	style="font-family:Times;font-weight:normal;font-style:normal;font-size:10px">4.00 mb</text>
<text x="140.51" y="-15.602" transform="scale(1, -1)"
	style="font-family:Times;font-weight:normal;font-style:normal;font-size:10px">260.00 mb</text>
<text x="220.77" y="-15.602" transform="scale(1, -1)"
	style="font-family:Times;font-weight:normal;font-style:normal;font-size:10px">516.00 mb</text>
<text x="301.03" y="-15.602" transform="scale(1, -1)"
	style="font-family:Times;font-weight:normal;font-style:normal;font-size:10px">772.00 mb</text>
<text x="377.42" y="-15.602" transform="scale(1, -1)"
	style="font-family:Times;font-weight:normal;font-style:normal;font-size:10px">1023.63 mb</text>
<path d="M81.634,25.23L81.634,33.23" style="fill:none;stroke:#000000;stroke-width:0.5" />
<path d="M161.89,25.23L161.89,33.23" style="fill:none;stroke:#000000;stroke-width:0.5" />
<path d="M242.16,25.23L242.16,33.23" style="fill:none;stroke:#000000;stroke-width:0.5" />
<path d="M322.42,25.23L322.42,33.23" style="fill:none;stroke:#000000;stroke-width:0.5" />
<path d="M401.31,25.23L401.31,33.23" style="fill:none;stroke:#000000;stroke-width:0.5" />
<path d="M81.114,33.23L401.31,33.23" style="fill:none;stroke:#000000;stroke-width:0.5" />
<g transform="rotate(90)">
<text x="144.86" y="11.555" transform="scale(1, -1)"
	style="font-family:Times;font-weight:normal;font-style:normal;font-size:12px">speed</text>
</g>
<text x="15.416" y="-94.965" transform="scale(1, -1)"
	style="font-family:Times;font-weight:normal;font-style:normal;font-size:10px">256.00 mb/s</text>
<text x="15.416" y="-175.85" transform="scale(1, -1)"
	style="font-family:Times;font-weight:normal;font-style:normal;font-size:10px">288.00 mb/s</text>
<text x="15.416" y="-256.73" transform="scale(1, -1)"
	style="font-family:Times;font-weight:normal;font-style:normal;font-size:10px">320.00 mb/s</text>
<text x="15.416" y="-273.84" transform="scale(1, -1)"
	style="font-family:Times;font-weight:normal;font-style:normal;font-size:10px">326.77 mb/s</text>
<path d="M67.364,99.687L75.364,99.687" style="fill:none;stroke:#000000;stroke-width:0.5" />
<path d="M67.364,180.57L75.364,180.57" style="fill:none;stroke:#000000;stroke-width:0.5" />
<path d="M67.364,261.45L75.364,261.45" style="fill:none;stroke:#000000;stroke-width:0.5" />
<path d="M67.364,278.56L75.364,278.56" style="fill:none;stroke:#000000;stroke-width:0.5" />
<path d="M75.364,38.48L75.364,278.56" style="fill:none;stroke:#000000;stroke-width:0.5" />
<path d="M81.114,38.48L81.849,229.3L82.584,245.4L83.319,258.2L84.053,233.25L84.788,214.13L85.523,246.32L86.258,234.6L86.993,232.25L87.728,235.84L88.462,250.42L89.197,242.09L89.932,257.44L90.667,241.61L91.402,219.07L92.136,235.46L92.871,233.55L93.606,241.42L94.341,230.08L95.076,232.39L95.81,247.47L96.545,246.48L97.28,260.59L98.015,238.73L98.75,232.04L99.485,223L100.22,236.62L100.95,255.99L101.69,232.78L102.42,247.42L103.16,270.35L103.89,248.5L104.63,234.68L105.36,237.67L106.1,248.78L106.83,246.99L107.57,239.34L108.3,244.77L109.04,249.61L109.77,256.72L110.51,245.02L111.24,247.58L111.98,235.76L112.71,242.53L113.45,231.5L114.18,245.66L114.92,242.87L115.65,250.91L116.39,275.11L117.12,254.69L117.85,248.24L118.59,249.53L119.32,246.02L120.06,245.63L120.79,250.37L121.53,240.49L122.26,254.75L123,264.68L123.73,238.42L124.47,249.77L125.2,249.85L125.94,232.76L126.67,248.97L127.41,243.91L128.14,255.85L128.88,234.03L129.61,269.72L130.35,247.84L131.08,242.17L131.82,244.22L132.55,232.48L133.29,241.81L134.02,253.26L134.76,253.56L135.49,245.4L136.23,253.85L136.96,248.88L137.69,252.42L138.43,223.64L139.16,250.34L139.9,247.01L140.63,244.41L141.37,249.7L142.1,252.58L142.84,271.38L143.57,247.97L144.31,224.5L145.04,245.1L145.78,245.36L146.51,241.31L147.25,248.47L147.98,243.68L148.72,230.75L149.45,272.25L150.19,244.54L150.92,220.82L151.66,243.58L152.39,252.45L153.13,254.41L153.86,230.97L154.6,235.5L155.33,244.46L156.06,271.32L156.8,222.96L157.53,231.41L158.27,233.14L159,235.72L159.74,246.66L160.47,243.11L161.21,248.54L161.94,250.88L162.68,276.09L163.41,251.38L164.15,243.75L164.88,234.1L165.62,245.03L166.35,252.83L167.09,258.41L167.82,218.53L168.56,242.34L169.29,255.66L170.03,245.48L170.76,227.75L171.5,232.36L172.23,245.76L172.97,245.07L173.7,244.83L174.44,247.52L175.17,226.67L175.9,275.7L176.64,254.21L177.37,244.84L178.11,247.2L178.84,237.8L179.58,247.4L180.31,248.96L181.05,248.77L181.78,251.5L182.52,273.15L183.25,237.15L183.99,252.26L184.72,255.66L185.46,240.43L186.19,232.91L186.93,244.01L187.66,248.59L188.4,234.83L189.13,246.12L189.87,271.13L190.6,243.57L191.34,248.63L192.07,248.62L192.81,252.52L193.54,251.91L194.27,242.6L195.01,250.28L195.74,248.08L196.48,269.33L197.21,233.31L197.95,234.65L198.68,240.75L199.42,241.12L200.15,223.22L200.89,252.09L201.62,248.06L202.36,243.61L203.09,268.48L203.83,248.38L204.56,245.77L205.3,249.44L206.03,243.55L206.77,248.76L207.5,231.55L208.24,253.2L208.97,246.72L209.71,268.84L210.44,251.05L211.18,231.58L211.91,252.68L212.65,250.06L213.38,243.52L214.11,254.39L214.85,249.96L215.58,245.24L216.32,258.63L217.05,236.99L217.79,237.83L218.52,226.44L219.26,250.99L219.99,244.49L220.73,247.04L221.46,249.63L222.2,233.6L222.93,240.01L223.67,272.94L224.4,236.88L225.14,242.28L225.87,249.74L226.61,230.51L227.34,244.37L228.08,242.34L228.81,243.62L229.55,254.2L230.28,275.46L231.02,240.09L231.75,244.12L232.49,239.01L233.22,249.62L233.95,248.28L234.69,251.02L235.42,255.64L236.16,250.75L236.89,278.56L237.63,249.87L238.36,238.55L239.1,239.86L239.83,249.67L240.57,249.51L241.3,234.96L242.04,232.94L242.77,251.97L243.51,267.06L244.24,229.24L244.98,250.05L245.71,244.75L246.45,251.58L247.18,233.92L247.92,228.66L248.65,247.83L249.39,231.35L250.12,257.72L250.86,250.47L251.59,248.88L252.32,240.19L253.06,254.02L253.79,239.25L254.53,248.62L255.26,233.93L256,241.04L256.73,257.83L257.47,246.24L258.2,220.41L258.94,248.08L259.67,251.09L260.41,251.05L261.14,249.47L261.88,237.42L262.61,248.9L263.35,269.79L264.08,251.31L264.82,245.9L265.55,252.72L266.29,233.12L267.02,238.04L267.76,251.95L268.49,228.05L269.23,249.46L269.96,268.6L270.7,249.52L271.43,252.65L272.16,255.15L272.9,239.38L273.63,224.41L274.37,230.14L275.1,232.76L275.84,237.57L276.57,261.58L277.31,249.29L278.04,247.59L278.78,251.12L279.51,240.53L280.25,239.85L280.98,240.64L281.72,248.64L282.45,249.09L283.19,270.84L283.92,254.89L284.66,250.55L285.39,215.04L286.13,240.93L286.86,248L287.6,249.15L288.33,231.51L289.07,247.92L289.8,271.32L290.54,252.98L291.27,255.46L292,236.71L292.74,238.55L293.47,245.04L294.21,230.61L294.94,245.06L295.68,242.38L296.41,271.1L297.15,232.22L297.88,232.17L298.62,236.71L299.35,233.33L300.09,231.88L300.82,231.59L301.56,247.72L302.29,247.03L303.03,275.27L303.76,247.54L304.5,254.67L305.23,249.81L305.97,233.82L306.7,242.91L307.44,242.69L308.17,233.42L308.91,241.76L309.64,275.47L310.37,248.75L311.11,235.93L311.84,226.03L312.58,242.44L313.31,246.64L314.05,249.98L314.78,244.41L315.52,208.67L316.25,226.38L316.99,224.65L317.72,238.45L318.46,250.19L319.19,252.63L319.93,231.72L320.66,223.28L321.4,241.28L322.13,242.95L322.87,274.19L323.6,231.51L324.34,250.47L325.07,242.87L325.81,242.45L326.54,248.89L327.28,245.78L328.01,238.1L328.75,243.78L329.48,255.05L330.21,246.07L330.95,249.21L331.68,250.04L332.42,234.91L333.15,245.36L333.89,247.88L334.62,237.66L335.36,241.07L336.09,271.62L336.83,242.62L337.56,239.53L338.3,248.81L339.03,251.97L339.77,238.26L340.5,244.2L341.24,237.96L341.97,231.59L342.71,275.23L343.44,244.86L344.18,247.94L344.91,249.02L345.65,240.46L346.38,253.16L347.12,244.31L347.85,247.24L348.59,231.88L349.32,274.75L350.05,233.77L350.79,251.04L351.52,243.3L352.26,248.75L352.99,249.62L353.73,250.84L354.46,252.67L355.2,253.43L355.93,261.73L356.67,245.36L357.4,239.51L358.14,245.23L358.87,245.46L359.61,248.5L360.34,244.19L361.08,233.84L361.81,246.6L362.55,274.53L363.28,250.09L364.02,247.94L364.75,230.13L365.49,235.11L366.22,245.46L366.96,224.14L367.69,232.09L368.42,244.94L369.16,268.59L369.89,246.91L370.63,253.24L371.36,251.43L372.1,252.76L372.83,224.02L373.57,246.81L374.3,226.23L375.04,245.63L375.77,271.26L376.51,236.39L377.24,224.04L377.98,249.26L378.71,241.32L379.45,233.05L380.18,234.02L380.92,247.02L381.65,229.65L382.39,269.24L383.12,230.44L383.86,251.68L384.59,252.83L385.33,242.41L386.06,245.38L386.8,238.21L387.53,250.09L388.26,232.97L389,269.5L389.73,244.52L390.47,242.37L391.2,238.72L391.94,234.57L392.67,244.92L393.41,248.83L394.14,235.24L394.88,230.53L395.61,274.06L396.35,251.79L397.08,246.86L397.82,244.21L398.55,230.79L399.29,250.43L400.02,251.07L400.76,252.52L401.31,265.21" style="fill:none;stroke:#F15A60" />
<path d="M405.2,277.58L425.2,277.58" style="fill:none;stroke:#F15A60" />
<text x="232.93" y="-271.91" transform="scale(1, -1)"
	style="font-family:Times;font-weight:normal;font-style:normal;font-size:12px">batch-100kb-wb-512mb-cache-1gb</text>
</g>
</svg>
