<?xml version="1.0"?>
<!-- Generated by SVGo and Plotinum VG -->
<svg width="425.2pt" height="283.46pt" viewBox="0 0 425.2 283.46"
	xmlns="http://www.w3.org/2000/svg"
	xmlns:xlink="http://www.w3.org/1999/xlink">
<g transform="scale(1, -1) translate(0, -283.46)">
<path d="M0,0L425.2,0L425.2,283.46L0,283.46Z" style="fill:#FFFFFF" />
<text x="207.23" y="-3.8613" transform="scale(1, -1)"
	style="font-family:Times;font-weight:normal;font-style:normal;font-size:12px">database size</text>
<text x="60.252" y="-15.602" transform="scale(1, -1)"
	style="font-family:Times;font-weight:normal;font-style:normal;font-size:10px">4.00 mb</text>
<text x="136.77" y="-15.602" transform="scale(1, -1)"
	style="font-family:Times;font-weight:normal;font-style:normal;font-size:10px">260.00 mb</text>
<text x="218.28" y="-15.602" transform="scale(1, -1)"
	style="font-family:Times;font-weight:normal;font-style:normal;font-size:10px">516.00 mb</text>
<text x="299.79" y="-15.602" transform="scale(1, -1)"
	style="font-family:Times;font-weight:normal;font-style:normal;font-size:10px">772.00 mb</text>
<text x="377.42" y="-15.602" transform="scale(1, -1)"
	style="font-family:Times;font-weight:normal;font-style:normal;font-size:10px">1023.63 mb</text>
<path d="M76.642,25.23L76.642,33.23" style="fill:none;stroke:#000000;stroke-width:0.5" />
<path d="M158.16,25.23L158.16,33.23" style="fill:none;stroke:#000000;stroke-width:0.5" />
<path d="M239.67,25.23L239.67,33.23" style="fill:none;stroke:#000000;stroke-width:0.5" />
<path d="M321.18,25.23L321.18,33.23" style="fill:none;stroke:#000000;stroke-width:0.5" />
<path d="M401.31,25.23L401.31,33.23" style="fill:none;stroke:#000000;stroke-width:0.5" />
<path d="M76.114,33.23L401.31,33.23" style="fill:none;stroke:#000000;stroke-width:0.5" />
<g transform="rotate(90)">
<text x="144.86" y="11.555" transform="scale(1, -1)"
	style="font-family:Times;font-weight:normal;font-style:normal;font-size:12px">speed</text>
</g>
<text x="15.416" y="-43.565" transform="scale(1, -1)"
	style="font-family:Times;font-weight:normal;font-style:normal;font-size:10px">16.00 mb/s</text>
<text x="15.416" y="-114.93" transform="scale(1, -1)"
	style="font-family:Times;font-weight:normal;font-style:normal;font-size:10px">32.00 mb/s</text>
<text x="15.416" y="-186.3" transform="scale(1, -1)"
	style="font-family:Times;font-weight:normal;font-style:normal;font-size:10px">48.00 mb/s</text>
<text x="15.416" y="-257.66" transform="scale(1, -1)"
	style="font-family:Times;font-weight:normal;font-style:normal;font-size:10px">64.00 mb/s</text>
<text x="15.416" y="-273.84" transform="scale(1, -1)"
	style="font-family:Times;font-weight:normal;font-style:normal;font-size:10px">67.63 mb/s</text>
<path d="M62.364,48.286L70.364,48.286" style="fill:none;stroke:#000000;stroke-width:0.5" />
<path d="M62.364,119.65L70.364,119.65" style="fill:none;stroke:#000000;stroke-width:0.5" />
<path d="M62.364,191.02L70.364,191.02" style="fill:none;stroke:#000000;stroke-width:0.5" />
<path d="M62.364,262.39L70.364,262.39" style="fill:none;stroke:#000000;stroke-width:0.5" />
<path d="M62.364,278.56L70.364,278.56" style="fill:none;stroke:#000000;stroke-width:0.5" />
<path d="M70.364,38.48L70.364,278.56" style="fill:none;stroke:#000000;stroke-width:0.5" />
<path d="M76.114,278.56L76.861,215.11L77.607,206.6L78.353,204.26L79.099,185.65L79.846,176.14L80.592,174.72L81.338,193.08L82.085,161.62L82.831,182.28L83.577,153.48L84.323,170.66L85.07,174.71L85.816,138.01L86.562,169.05L87.309,160.6L88.055,133.77L88.801,152.36L89.547,163.74L90.294,161.63L91.04,158.51L91.786,113.88L92.533,149.17L93.279,150.61L94.025,152.47L94.771,149.87L95.518,103.37L96.264,138.35L97.01,143.7L97.757,141.33L98.503,141.45L99.249,137.48L99.995,136.64L100.74,91.478L101.49,135.19L102.23,136.22L102.98,133.99L103.73,130.4L104.47,133.93L105.22,133.23L105.97,130.59L106.71,84.005L107.46,129.14L108.2,130.61L108.95,134.34L109.7,130.5L110.44,126.87L111.19,135.03L111.94,135.95L112.68,138.3L113.43,136.25L114.17,98.175L114.92,123.03L115.67,125.57L116.41,126.36L117.16,126.91L117.91,123.83L118.65,125.29L119.4,123.44L120.15,122.89L120.89,124.07L121.64,119.9L122.38,121.53L123.13,123.85L123.88,85.676L124.62,114.24L125.37,120.94L126.12,120L126.86,120.18L127.61,118.82L128.35,117.08L129.1,119.26L129.85,118.11L130.59,115.75L131.34,115.53L132.09,116.07L132.83,116.24L133.58,117.13L134.32,116.34L135.07,109.55L135.82,59.039L136.56,114.4L137.31,121.5L138.06,120.17L138.8,120.86L139.55,122.46L140.29,115.92L141.04,111.8L141.79,113.88L142.53,113.71L143.28,113.77L144.03,113.02L144.77,111.52L145.52,112.35L146.26,113.66L147.01,108.79L147.76,103.36L148.5,108.04L149.25,99.982L150,109.86L150.74,116.16L151.49,67.489L152.24,109.05L152.98,101.43L153.73,100.46L154.47,106.91L155.22,105.74L155.97,104.74L156.71,103.9L157.46,102.49L158.21,102.2L158.95,103.33L159.7,103.69L160.44,106.18L161.19,105.09L161.94,104.6L162.68,103.83L163.43,103.58L164.18,103.47L164.92,104.4L165.67,102.12L166.41,103.32L167.16,102.7L167.91,97.716L168.65,97.79L169.4,101.51L170.15,41.213L170.89,104L171.64,102.11L172.38,108.13L173.13,109.33L173.88,100.52L174.62,107.85L175.37,108.79L176.12,107.33L176.86,106.87L177.61,107.87L178.36,108.87L179.1,108.32L179.85,106.25L180.59,105.2L181.34,107.53L182.09,108.52L182.83,106.97L183.58,106.41L184.33,103.65L185.07,103.93L185.82,105.76L186.56,105.73L187.31,105.94L188.06,105.76L188.8,104.3L189.55,103.09L190.3,104.11L191.04,104.82L191.79,103.75L192.53,248.91L193.28,247.11L194.03,228.65L194.77,221.68L195.52,209.13L196.27,196.54L197.01,195.65L197.76,184.02L198.5,171.23L199.25,181.87L200,162.66L200.74,169.35L201.49,170.65L202.24,145.83L202.98,161.21L203.73,159.61L204.48,141.28L205.22,151.86L205.97,156.52L206.71,157.7L207.46,152.13L208.21,127.17L208.95,146.71L209.7,135.35L210.45,143.52L211.19,147.58L211.94,118.17L212.68,140.69L213.43,139.12L214.18,136.28L214.92,137.1L215.67,133.29L216.42,133.19L217.16,102.56L217.91,125.27L218.65,127.53L219.4,131.07L220.15,123.91L220.89,119.89L221.64,125.76L222.39,128.02L223.13,98.441L223.88,125.77L224.62,126.26L225.37,127.85L226.12,123.92L226.86,125.43L227.61,126.87L228.36,125.28L229.1,54.947L229.85,121.53L230.6,94.098L231.34,128.88L232.09,131.52L232.83,132.49L233.58,132.45L234.33,131.24L235.07,125.76L235.82,126.92L236.57,120.93L237.31,125.51L238.06,128.52L238.8,125.1L239.55,126.53L240.3,67.377L241.04,111.83L241.79,117.57L242.54,116.38L243.28,118.43L244.03,118.84L244.77,117.03L245.52,116.66L246.27,116.9L247.01,116.71L247.76,112.77L248.51,115.63L249.25,114.77L250,114.84L250.74,114.78L251.49,114.87L252.24,59.012L252.98,107.89L253.73,105.35L254.48,111.3L255.22,110.07L255.97,110.87L256.72,113.63L257.46,110.87L258.21,111.75L258.95,111.75L259.7,110.75L260.45,110.2L261.19,106.25L261.94,110.39L262.69,112.14L263.43,111.72L264.18,110.43L264.92,108.88L265.67,110.09L266.42,110.46L267.16,108.99L267.91,41.746L268.66,104.11L269.4,105.72L270.15,107.12L270.89,99.406L271.64,101.95L272.39,102.11L273.13,108.68L273.88,95.869L274.63,103.49L275.37,103.31L276.12,107.72L276.86,107.54L277.61,101.84L278.36,106.12L279.1,107.61L279.85,107.07L280.6,106.21L281.34,104.03L282.09,105.53L282.84,103.67L283.58,104.33L284.33,104.66L285.07,101.22L285.82,103.94L286.57,59.865L287.31,98.994L288.06,97.637L288.81,99.755L289.55,102.98L290.3,101.52L291.04,99.294L291.79,102.62L292.54,97.608L293.28,98.563L294.03,99.716L294.78,97.31L295.52,97.566L296.27,103.06L297.01,99.576L297.76,103.57L298.51,100.19L299.25,97.851L300,100.44L300.75,98.121L301.49,98.739L302.24,98.254L302.98,95.138L303.73,89.321L304.48,97.202L305.22,95.745L305.97,95.723L306.72,98.324L307.46,95.337L308.21,102.24L308.95,175.58L309.7,263.82L310.45,233.94L311.19,231.48L311.94,219.15L312.69,203.12L313.43,205.34L314.18,198.61L314.93,181.69L315.67,195.28L316.42,171.94L317.16,177.78L317.91,186.4L318.66,156.46L319.4,172.05L320.15,176.12L320.9,152.84L321.64,158.6L322.39,158.67L323.13,148.05L323.88,152.67L324.63,125.36L325.37,149.51L326.12,150.05L326.87,147.69L327.61,145.35L328.36,117.27L329.1,133.48L329.85,137.9L330.6,132.24L331.34,133.09L332.09,133.49L332.84,129.96L333.58,101.32L334.33,132.96L335.07,122.81L335.82,130.58L336.57,134.1L337.31,131.66L338.06,131.6L338.81,132.49L339.55,97.331L340.3,126.27L341.05,126.76L341.79,127.65L342.54,127.37L343.28,123.91L344.03,124.93L344.78,125.87L345.52,55.97L346.27,119.33L347.02,88.658L347.76,106.45L348.51,114.1L349.25,117.53L350,114.79L350.75,117.8L351.49,112.04L352.24,103.28L352.99,112.13L353.73,112.19L354.48,111.35L355.22,112.22L355.97,104.73L356.72,79.896L357.46,105.48L358.21,106.79L358.96,108.56L359.7,105.88L360.45,108.21L361.19,106.93L361.94,105.41L362.69,103.51L363.43,106.34L364.18,104.73L364.93,106.61L365.67,105.38L366.42,95.892L367.17,95.683L367.91,97.847L368.66,38.48L369.4,93.941L370.15,97.56L370.9,93.397L371.64,97.316L372.39,92.88L373.14,95.475L373.88,88.376L374.63,77.29L375.37,85.114L376.12,81.091L376.87,73.017L377.61,90.231L378.36,89.956L379.11,93.499L379.85,91.091L380.6,95.664L381.34,93.509L382.09,80.277L382.84,83.326L383.58,92.479L384.33,63.534L385.08,96.158L385.82,100.79L386.57,100.72L387.31,103.37L388.06,101.47L388.81,102.28L389.55,100.79L390.3,100.85L391.05,101.61L391.79,99.908L392.54,100.96L393.29,100.62L394.03,100.11L394.78,101.93L395.52,100.98L396.27,100.03L397.02,102.85L397.76,103.17L398.51,102.28L399.26,93.149L400,93.44L400.75,99.359L401.31,96.697" style="fill:none;stroke:#F15A60" />
<path d="M405.2,277.58L425.2,277.58" style="fill:none;stroke:#F15A60" />
<text x="232.93" y="-271.91" transform="scale(1, -1)"
	style="font-family:Times;font-weight:normal;font-style:normal;font-size:12px">batch-100kb-wb-512mb-cache-1gb</text>
</g>
</svg>
