<?xml version="1.0"?>
<!-- Generated by SVGo and Plotinum VG -->
<svg width="425.2pt" height="283.46pt" viewBox="0 0 425.2 283.46"
	xmlns="http://www.w3.org/2000/svg"
	xmlns:xlink="http://www.w3.org/1999/xlink">
<g transform="scale(1, -1) translate(0, -283.46)">
<path d="M0,0L425.2,0L425.2,283.46L0,283.46Z" style="fill:#FFFFFF" />
<text x="209.73" y="-3.8613" transform="scale(1, -1)"
	style="font-family:Times;font-weight:normal;font-style:normal;font-size:12px">database size</text>
<text x="65.244" y="-15.602" transform="scale(1, -1)"
	style="font-family:Times;font-weight:normal;font-style:normal;font-size:10px">4.00 mb</text>
<text x="140.51" y="-15.602" transform="scale(1, -1)"
	style="font-family:Times;font-weight:normal;font-style:normal;font-size:10px">260.00 mb</text>
<text x="220.77" y="-15.602" transform="scale(1, -1)"
	style="font-family:Times;font-weight:normal;font-style:normal;font-size:10px">516.00 mb</text>
<text x="301.03" y="-15.602" transform="scale(1, -1)"
	style="font-family:Times;font-weight:normal;font-style:normal;font-size:10px">772.00 mb</text>
<text x="377.42" y="-15.602" transform="scale(1, -1)"
	style="font-family:Times;font-weight:normal;font-style:normal;font-size:10px">1023.63 mb</text>
<path d="M81.634,25.23L81.634,33.23" style="fill:none;stroke:#000000;stroke-width:0.5" />
<path d="M161.89,25.23L161.89,33.23" style="fill:none;stroke:#000000;stroke-width:0.5" />
<path d="M242.16,25.23L242.16,33.23" style="fill:none;stroke:#000000;stroke-width:0.5" />
<path d="M322.42,25.23L322.42,33.23" style="fill:none;stroke:#000000;stroke-width:0.5" />
<path d="M401.31,25.23L401.31,33.23" style="fill:none;stroke:#000000;stroke-width:0.5" />
<path d="M81.114,33.23L401.31,33.23" style="fill:none;stroke:#000000;stroke-width:0.5" />
<g transform="rotate(90)">
<text x="144.86" y="11.555" transform="scale(1, -1)"
	style="font-family:Times;font-weight:normal;font-style:normal;font-size:12px">speed</text>
</g>
<text x="15.416" y="-89.965" transform="scale(1, -1)"
	style="font-family:Times;font-weight:normal;font-style:normal;font-size:10px">256.00 mb/s</text>
<text x="15.416" y="-172.8" transform="scale(1, -1)"
	style="font-family:Times;font-weight:normal;font-style:normal;font-size:10px">288.00 mb/s</text>
<text x="15.416" y="-255.63" transform="scale(1, -1)"
	style="font-family:Times;font-weight:normal;font-style:normal;font-size:10px">320.00 mb/s</text>
<text x="15.416" y="-273.84" transform="scale(1, -1)"
	style="font-family:Times;font-weight:normal;font-style:normal;font-size:10px">327.03 mb/s</text>
<path d="M67.364,94.687L75.364,94.687" style="fill:none;stroke:#000000;stroke-width:0.5" />
<path d="M67.364,177.52L75.364,177.52" style="fill:none;stroke:#000000;stroke-width:0.5" />
<path d="M67.364,260.35L75.364,260.35" style="fill:none;stroke:#000000;stroke-width:0.5" />
<path d="M67.364,278.56L75.364,278.56" style="fill:none;stroke:#000000;stroke-width:0.5" />
<path d="M75.364,38.48L75.364,278.56" style="fill:none;stroke:#000000;stroke-width:0.5" />
<path d="M81.114,38.48L81.849,239.54L82.584,250.83L83.319,257.95L84.053,244.29L84.788,242.69L85.523,237.21L86.258,248.04L86.993,241.79L87.728,232.17L88.462,244.34L89.197,275.55L89.932,252.37L90.667,245.13L91.402,224.86L92.136,254.78L92.871,234.06L93.606,244.12L94.341,250.82L95.076,251.42L95.81,255.87L96.545,234.77L97.28,248.81L98.015,254.59L98.75,231.53L99.485,251.29L100.22,212.75L100.95,251.06L101.69,267.69L102.42,243.84L103.16,228.15L103.89,233.09L104.63,254.63L105.36,250.01L106.1,227.69L106.83,240.13L107.57,270L108.3,247.4L109.04,242.39L109.77,241.96L110.51,238.44L111.24,242.01L111.98,235.79L112.71,246.1L113.45,271.99L114.18,243.63L114.92,230.33L115.65,242.22L116.39,249.68L117.12,241.98L117.85,241.29L118.59,240.04L119.32,228.72L120.06,257.03L120.79,249.47L121.53,252.71L122.26,233.13L123,243.28L123.73,247.86L124.47,245.93L125.2,228.43L125.94,271.91L126.67,224.57L127.41,254.19L128.14,222.71L128.88,247.56L129.61,250.73L130.35,232.22L131.08,248.14L131.82,257.09L132.55,242.77L133.29,242.94L134.02,252.28L134.76,242.11L135.49,235.15L136.23,225.97L136.96,246.11L137.69,274.78L138.43,248.91L139.16,186.04L139.9,248.55L140.63,233.78L141.37,241.52L142.1,232.63L142.84,247.81L143.57,264.12L144.31,236.65L145.04,252.17L145.78,249.25L146.51,217.06L147.25,223.89L147.98,247.44L148.72,248.15L149.45,255.35L150.19,273.94L150.92,237.61L151.66,219.56L152.39,232.23L153.13,247.98L153.86,232.42L154.6,242.55L155.33,244.06L156.06,278.31L156.8,253.01L157.53,253.4L158.27,246.25L159,254.28L159.74,224.98L160.47,233.12L161.21,249.3L161.94,278.56L162.68,246.22L163.41,248.96L164.15,243.87L164.88,247.32L165.62,238.01L166.35,194.73L167.09,230.61L167.82,266.57L168.56,215.27L169.29,249.25L170.03,244.13L170.76,247.23L171.5,248.61L172.23,244.68L172.97,230.67L173.7,249.51L174.44,243.17L175.17,241.17L175.9,230.85L176.64,235.26L177.37,240.64L178.11,240.11L178.84,245.52L179.58,245.42L180.31,260.95L181.05,243.31L181.78,234.71L182.52,243.23L183.25,227.21L183.99,240.44L184.72,249.89L185.46,236.3L186.19,260.52L186.93,243.64L187.66,233.03L188.4,248.81L189.13,226.8L189.87,243.59L190.6,250.91L191.34,238.46L192.07,258.44L192.81,250.67L193.54,252.41L194.27,256.53L195.01,256.29L195.74,245.22L196.48,246.01L197.21,248.6L197.95,268.8L198.68,235.52L199.42,241.34L200.15,243.7L200.89,221.6L201.62,240.08L202.36,243.11L203.09,192.4L203.83,275.8L204.56,255.64L205.3,253.06L206.03,229.5L206.77,245.69L207.5,238.8L208.24,238.92L208.97,240.56L209.71,244.07L210.44,266.53L211.18,247.71L211.91,226.48L212.65,234.42L213.38,247.65L214.11,249.43L214.85,234.53L215.58,229.97L216.32,252.55L217.05,239.07L217.79,249.39L218.52,237.36L219.26,250.77L219.99,246.92L220.73,242.03L221.46,232.89L222.2,261.59L222.93,234.78L223.67,245.25L224.4,239.86L225.14,243.48L225.87,219.67L226.61,240.85L227.34,239.68L228.08,266.17L228.81,228.3L229.55,232.96L230.28,245.77L231.02,252.7L231.75,255.2L232.49,235.79L233.22,228.23L233.95,269.58L234.69,231.23L235.42,245.12L236.16,229.92L236.89,253.04L237.63,251.94L238.36,247.86L239.1,246.85L239.83,235.82L240.57,267.72L241.3,235.83L242.04,250.28L242.77,236.02L243.51,249.21L244.24,248.3L244.98,237.33L245.71,248.88L246.45,274.9L247.18,243.58L247.92,243.19L248.65,239.27L249.39,247.25L250.12,240.22L250.86,243.41L251.59,250.22L252.32,254.45L253.06,240.38L253.79,224.61L254.53,242.57L255.26,247.5L256,247.66L256.73,233.81L257.47,245.48L258.2,274.41L258.94,242.87L259.67,245.03L260.41,238.49L261.14,222.17L261.88,233.09L262.61,225.17L263.35,248.09L264.08,246.27L264.82,265.38L265.55,228.41L266.29,244.13L267.02,238.02L267.76,239.94L268.49,231.2L269.23,233.27L269.96,245.64L270.7,262.33L271.43,244L272.16,242.22L272.9,231.5L273.63,244.5L274.37,256.3L275.1,241.46L275.84,245.54L276.57,264.72L277.31,243.94L278.04,239.48L278.78,247.63L279.51,243.51L280.25,229.49L280.98,243.79L281.72,248.7L282.45,254.37L283.19,244.59L283.92,240.6L284.66,241.29L285.39,233.18L286.13,242.89L286.86,246.06L287.6,232.66L288.33,270.25L289.07,248.12L289.8,245.18L290.54,252.16L291.27,239.97L292,253.56L292.74,238.11L293.47,244.08L294.21,248.68L294.94,272.78L295.68,247.29L296.41,249.9L297.15,241.62L297.88,243.16L298.62,229.45L299.35,237.48L300.09,227.74L300.82,254.07L301.56,252.69L302.29,241.58L303.03,243.98L303.76,251.79L304.5,248.28L305.23,239.67L305.97,246L306.7,276.86L307.44,242.31L308.17,253.88L308.91,243.22L309.64,247.39L310.37,231.93L311.11,246.68L311.84,219.29L312.58,270.98L313.31,235.97L314.05,246.88L314.78,234.95L315.52,227.1L316.25,237.47L316.99,253.8L317.72,238.71L318.46,227.63L319.19,277.38L319.93,246.71L320.66,214.59L321.4,232.43L322.13,252.63L322.87,244.39L323.6,250.84L324.34,247.6L325.07,263.39L325.81,212.6L326.54,249.51L327.28,240.73L328.01,225.51L328.75,223.7L329.48,244.8L330.21,216.91L330.95,267.98L331.68,204.52L332.42,243.13L333.15,249.5L333.89,242.79L334.62,244.9L335.36,251.89L336.09,242.82L336.83,267.57L337.56,244.47L338.3,249.77L339.03,248.34L339.77,244.34L340.5,243.58L341.24,243.71L341.97,236.2L342.71,246.21L343.44,267.54L344.18,239.6L344.91,243.57L345.65,243.36L346.38,234.29L347.12,250.92L347.85,247.4L348.59,240.68L349.32,247.55L350.05,246.67L350.79,229.03L351.52,237.62L352.26,241.62L352.99,234.78L353.73,236.8L354.46,219.17L355.2,267.3L355.93,244.7L356.67,238.13L357.4,248.68L358.14,245.03L358.87,254.2L359.61,236.69L360.34,241.98L361.08,229.85L361.81,268.08L362.55,246.02L363.28,236.62L364.02,244.45L364.75,231.28L365.49,244.94L366.22,246.55L366.96,242.86L367.69,271.29L368.42,248.72L369.16,243.18L369.89,236.94L370.63,244.37L371.36,245.64L372.1,242.34L372.83,231.83L373.57,268.26L374.3,248.55L375.04,233.76L375.77,242.39L376.51,236.57L377.24,247.15L377.98,243.57L378.71,227.02L379.45,235.19L380.18,265.85L380.92,248.38L381.65,239.39L382.39,239.96L383.12,243.05L383.86,251.15L384.59,224.62L385.33,232.91L386.06,267.66L386.8,243.76L387.53,237.52L388.26,250.07L389,245.68L389.73,240.01L390.47,256.19L391.2,247.03L391.94,272.17L392.67,239.32L393.41,245.95L394.14,241.57L394.88,238.73L395.61,247.43L396.35,256.92L397.08,249.3L397.82,248.2L398.55,224.46L399.29,227.4L400.02,240.27L400.76,234.67L401.31,257.72" style="fill:none;stroke:#F15A60" />
<path d="M405.2,277.58L425.2,277.58" style="fill:none;stroke:#F15A60" />
<text x="232.93" y="-271.91" transform="scale(1, -1)"
	style="font-family:Times;font-weight:normal;font-style:normal;font-size:12px">batch-100kb-wb-512mb-cache-1gb</text>
</g>
</svg>
