<?xml version="1.0"?>
<!-- Generated by SVGo and Plotinum VG -->
<svg width="425.2pt" height="283.46pt" viewBox="0 0 425.2 283.46"
	xmlns="http://www.w3.org/2000/svg"
	xmlns:xlink="http://www.w3.org/1999/xlink">
<g transform="scale(1, -1) translate(0, -283.46)">
<path d="M0,0L425.2,0L425.2,283.46L0,283.46Z" style="fill:#FFFFFF" />
<text x="209.73" y="-3.8613" transform="scale(1, -1)"
	style="font-family:Times;font-weight:normal;font-style:normal;font-size:12px">database size</text>
<text x="65.668" y="-15.602" transform="scale(1, -1)"
	style="font-family:Times;font-weight:normal;font-style:normal;font-size:10px">8.00 mb</text>
<text x="141.11" y="-15.602" transform="scale(1, -1)"
	style="font-family:Times;font-weight:normal;font-style:normal;font-size:10px">264.00 mb</text>
<text x="221.55" y="-15.602" transform="scale(1, -1)"
	style="font-family:Times;font-weight:normal;font-style:normal;font-size:10px">520.00 mb</text>
<text x="301.99" y="-15.602" transform="scale(1, -1)"
	style="font-family:Times;font-weight:normal;font-style:normal;font-size:10px">776.00 mb</text>
<text x="377.42" y="-15.602" transform="scale(1, -1)"
	style="font-family:Times;font-weight:normal;font-style:normal;font-size:10px">1024.00 mb</text>
<path d="M82.057,25.23L82.057,33.23" style="fill:none;stroke:#000000;stroke-width:0.5" />
<path d="M162.5,25.23L162.5,33.23" style="fill:none;stroke:#000000;stroke-width:0.5" />
<path d="M242.94,25.23L242.94,33.23" style="fill:none;stroke:#000000;stroke-width:0.5" />
<path d="M323.38,25.23L323.38,33.23" style="fill:none;stroke:#000000;stroke-width:0.5" />
<path d="M401.31,25.23L401.31,33.23" style="fill:none;stroke:#000000;stroke-width:0.5" />
<path d="M81.114,33.23L401.31,33.23" style="fill:none;stroke:#000000;stroke-width:0.5" />
<g transform="rotate(90)">
<text x="144.86" y="11.555" transform="scale(1, -1)"
	style="font-family:Times;font-weight:normal;font-style:normal;font-size:12px">speed</text>
</g>
<text x="15.416" y="-273.84" transform="scale(1, -1)"
	style="font-family:Times;font-weight:normal;font-style:normal;font-size:10px">243.67 mb/s</text>
<path d="M67.364,278.56L75.364,278.56" style="fill:none;stroke:#000000;stroke-width:0.5" />
<path d="M75.364,38.48L75.364,278.56" style="fill:none;stroke:#000000;stroke-width:0.5" />
<path d="M81.114,38.48L82.685,165.02L84.257,252.04L85.828,262.96L87.399,260.16L88.97,258.93L90.541,243.75L92.112,245.58L93.683,245.51L95.254,250.34L96.825,253.28L98.397,265.46L99.968,271.28L101.54,267.74L103.11,266.35L104.68,273.63L106.25,218.14L107.82,264.21L109.39,266.68L110.97,263.7L112.54,268.67L114.11,263.98L115.68,261.16L117.25,265.55L118.82,272.79L120.39,271.08L121.96,270.24L123.53,263.67L125.11,249.84L126.68,277.68L128.25,264.44L129.82,259.3L131.39,272.24L132.96,220.63L134.53,267.07L136.1,264.1L137.67,266.89L139.25,262.88L140.82,253.41L142.39,250.57L143.96,249.41L145.53,251.04L147.1,257.53L148.67,264.66L150.24,271L151.81,262.69L153.39,251.9L154.96,276.83L156.53,277.75L158.1,277.7L159.67,275.81L161.24,262.88L162.81,266.94L164.38,257.8L165.95,247.52L167.53,261.41L169.1,249.33L170.67,261.6L172.24,263.83L173.81,274.27L175.38,270.71L176.95,271.63L178.52,270.57L180.09,261.66L181.67,237.13L183.24,251.24L184.81,262.53L186.38,263.36L187.95,254.54L189.52,272.47L191.09,216.81L192.66,263.77L194.24,259.89L195.81,268.41L197.38,274.12L198.95,245.92L200.52,216.29L202.09,261.91L203.66,272.84L205.23,270.29L206.8,264.88L208.38,258.54L209.95,261.18L211.52,274.53L213.09,258.48L214.66,274.11L216.23,255.2L217.8,265.97L219.37,275.47L220.94,274.86L222.52,272.96L224.09,272.47L225.66,272.35L227.23,270.6L228.8,270.28L230.37,262.04L231.94,271.56L233.51,272.43L235.08,270.52L236.66,261.7L238.23,269.37L239.8,267.01L241.37,272.27L242.94,209.84L244.51,259.51L246.08,256.6L247.65,259.06L249.22,269.26L250.8,275.68L252.37,271.31L253.94,275.46L255.51,256.5L257.08,266.6L258.65,276.54L260.22,272.16L261.79,256.36L263.36,268L264.94,258.66L266.51,259.01L268.08,249.33L269.65,275.56L271.22,249.38L272.79,272.88L274.36,260.02L275.93,276.97L277.5,266.55L279.08,258.86L280.65,268.46L282.22,265.57L283.79,272.41L285.36,274.29L286.93,278.56L288.5,270.79L290.07,255.32L291.64,251.99L293.22,257.5L294.79,267.07L296.36,265.68L297.93,251.29L299.5,272.78L301.07,269.11L302.64,267.84L304.21,268.19L305.78,269.31L307.36,266.95L308.93,266.06L310.5,265.68L312.07,265.77L313.64,259.16L315.21,267.22L316.78,262.27L318.35,260.23L319.92,257.92L321.5,245.67L323.07,163.82L324.64,114.33L326.21,254.83L327.78,268.93L329.35,268.88L330.92,250.99L332.49,255.79L334.06,273.16L335.64,265.77L337.21,268.22L338.78,274.21L340.35,266.36L341.92,270.94L343.49,268.33L345.06,262.52L346.63,270.94L348.2,269.11L349.78,269.58L351.35,254.95L352.92,264.38L354.49,269.31L356.06,271.63L357.63,261.45L359.2,263.71L360.77,270.04L362.35,267.91L363.92,264.46L365.49,261.1L367.06,255.25L368.63,255.69L370.2,271.94L371.77,261.15L373.34,268.33L374.91,269.73L376.49,269.78L378.06,270.14L379.63,251.84L381.2,244.92L382.77,258.26L384.34,258.61L385.91,231.53L387.48,253.8L389.05,244.77L390.63,238.29L392.2,253.5L393.77,258.81L395.34,263.39L396.91,263.91L398.48,248.84L400.05,258.26L401.31,242.55" style="fill:none;stroke:#F15A60" />
<path d="M405.2,277.58L425.2,277.58" style="fill:none;stroke:#F15A60" />
<text x="350.88" y="-271.91" transform="scale(1, -1)"
	style="font-family:Times;font-weight:normal;font-style:normal;font-size:12px">batch-5mb</text>
</g>
</svg>
