<?xml version="1.0"?>
<!-- Generated by SVGo and Plotinum VG -->
<svg width="425.2pt" height="283.46pt" viewBox="0 0 425.2 283.46"
	xmlns="http://www.w3.org/2000/svg"
	xmlns:xlink="http://www.w3.org/1999/xlink">
<g transform="scale(1, -1) translate(0, -283.46)">
<path d="M0,0L425.2,0L425.2,283.46L0,283.46Z" style="fill:#FFFFFF" />
<text x="207.23" y="-3.8613" transform="scale(1, -1)"
	style="font-family:Times;font-weight:normal;font-style:normal;font-size:12px">database size</text>
<text x="60.252" y="-15.602" transform="scale(1, -1)"
	style="font-family:Times;font-weight:normal;font-style:normal;font-size:10px">4.00 mb</text>
<text x="136.77" y="-15.602" transform="scale(1, -1)"
	style="font-family:Times;font-weight:normal;font-style:normal;font-size:10px">260.00 mb</text>
<text x="218.28" y="-15.602" transform="scale(1, -1)"
	style="font-family:Times;font-weight:normal;font-style:normal;font-size:10px">516.00 mb</text>
<text x="299.79" y="-15.602" transform="scale(1, -1)"
	style="font-family:Times;font-weight:normal;font-style:normal;font-size:10px">772.00 mb</text>
<text x="377.42" y="-15.602" transform="scale(1, -1)"
	style="font-family:Times;font-weight:normal;font-style:normal;font-size:10px">1023.63 mb</text>
<path d="M76.642,25.23L76.642,33.23" style="fill:none;stroke:#000000;stroke-width:0.5" />
<path d="M158.16,25.23L158.16,33.23" style="fill:none;stroke:#000000;stroke-width:0.5" />
<path d="M239.67,25.23L239.67,33.23" style="fill:none;stroke:#000000;stroke-width:0.5" />
<path d="M321.18,25.23L321.18,33.23" style="fill:none;stroke:#000000;stroke-width:0.5" />
<path d="M401.31,25.23L401.31,33.23" style="fill:none;stroke:#000000;stroke-width:0.5" />
<path d="M76.114,33.23L401.31,33.23" style="fill:none;stroke:#000000;stroke-width:0.5" />
<g transform="rotate(90)">
<text x="144.86" y="11.555" transform="scale(1, -1)"
	style="font-family:Times;font-weight:normal;font-style:normal;font-size:12px">speed</text>
</g>
<text x="20.416" y="-34.926" transform="scale(1, -1)"
	style="font-family:Times;font-weight:normal;font-style:normal;font-size:10px">2.00 mb/s</text>
<text x="15.416" y="-129.29" transform="scale(1, -1)"
	style="font-family:Times;font-weight:normal;font-style:normal;font-size:10px">34.00 mb/s</text>
<text x="15.416" y="-223.65" transform="scale(1, -1)"
	style="font-family:Times;font-weight:normal;font-style:normal;font-size:10px">66.00 mb/s</text>
<text x="15.416" y="-273.84" transform="scale(1, -1)"
	style="font-family:Times;font-weight:normal;font-style:normal;font-size:10px">83.02 mb/s</text>
<path d="M62.364,39.647L70.364,39.647" style="fill:none;stroke:#000000;stroke-width:0.5" />
<path d="M62.364,134.01L70.364,134.01" style="fill:none;stroke:#000000;stroke-width:0.5" />
<path d="M62.364,228.37L70.364,228.37" style="fill:none;stroke:#000000;stroke-width:0.5" />
<path d="M62.364,278.56L70.364,278.56" style="fill:none;stroke:#000000;stroke-width:0.5" />
<path d="M70.364,38.48L70.364,278.56" style="fill:none;stroke:#000000;stroke-width:0.5" />
<path d="M76.114,246.33L76.861,232.92L77.607,217.06L78.353,251.35L79.099,238.26L79.846,203.07L80.592,256.89L81.338,191.4L82.085,198.04L82.831,263.91L83.577,262.26L84.323,244.05L85.07,93.333L85.816,194.83L86.562,263.63L87.309,263.94L88.055,70.996L88.801,278.43L89.547,187.88L90.294,258.09L91.04,261.85L91.786,61.74L92.533,188.98L93.279,216.93L94.025,263.71L94.771,257.17L95.518,62.536L96.264,110.82L97.01,241.02L97.757,267.67L98.503,258.78L99.249,63.834L99.995,79.676L100.74,241.02L101.49,251.15L102.23,265.08L102.98,63.841L103.73,64.251L104.47,263.78L105.22,251.79L105.97,250.28L106.71,62.822L107.46,173.8L108.2,269L108.95,267.53L109.7,62.723L110.44,266.09L111.19,117.15L111.94,267.8L112.68,260.58L113.43,63.059L114.17,79.887L114.92,219.35L115.67,263.42L116.41,195.19L117.16,63.167L117.91,66.4L118.65,248.26L119.4,278.12L120.15,64.012L120.89,61.431L121.64,267.77L122.38,61.186L123.13,207.94L123.88,192.84L124.62,274.61L125.37,61.626L126.12,102.7L126.86,260.59L127.61,249.1L128.35,278.54L129.1,62.872L129.85,75.996L130.59,249.72L131.34,65.802L132.09,275.78L132.83,62.858L133.58,60.757L134.32,58.642L135.07,246.87L135.82,253.23L136.56,203.95L137.31,224.57L138.06,62.614L138.8,131.95L139.55,267.09L140.29,248.35L141.04,276.24L141.79,62.713L142.53,82.995L143.28,268.59L144.03,254.09L144.77,266.05L145.52,62.924L146.26,69.081L147.01,264.96L147.76,65.303L148.5,61.655L149.25,243.36L150,62.955L150.74,59.231L151.49,129.38L152.24,64.441L152.98,132.98L153.73,263.64L154.47,263.09L155.22,61.588L155.97,92.204L156.71,264.46L157.46,181.25L158.21,261.61L158.95,63.094L159.7,71.57L160.44,263.93L161.19,65.814L161.94,252.77L162.68,63.455L163.43,63.2L164.18,63.521L164.92,58.033L165.67,57.592L166.41,144.4L167.16,261.18L167.91,259.1L168.65,258.61L169.4,62.21L170.15,89.243L170.89,268.23L171.64,265.69L172.38,263.56L173.13,62.609L173.88,71.024L174.62,252.27L175.37,270.72L176.12,65.789L176.86,63.2L177.61,62.053L178.36,62.976L179.1,63.426L179.85,153.31L180.59,58.843L181.34,152.79L182.09,63.353L182.83,120.22L183.58,224.61L184.33,214.54L185.07,62.752L185.82,83.879L186.56,271.12L187.31,238.52L188.06,191.19L188.8,63.202L189.55,68.401L190.3,257.78L191.04,66.055L191.79,63.008L192.53,260.09L193.28,63.387L194.03,63.249L194.77,61.038L195.52,64.659L196.27,57.764L197.01,136.08L197.76,56.399L198.5,101.01L199.25,194.1L200,206.17L200.74,62.418L201.49,268.55L202.24,73.739L202.98,224.22L203.73,64.954L204.48,62.792L205.22,246.41L205.97,63.812L206.71,63.054L207.46,60.455L208.21,65.327L208.95,64.118L209.7,136.43L210.45,56.663L211.19,52.255L211.94,258.49L212.68,252.11L213.43,248.05L214.18,245.02L214.92,61.981L215.67,76.074L216.42,260.2L217.16,188.19L217.91,62.58L218.65,277.7L219.4,64.441L220.15,269.31L220.89,66.322L221.64,68.714L222.39,263.92L223.13,257.74L223.88,60.587L224.62,100.94L225.37,266.36L226.12,62.355L226.86,192.76L227.61,76.056L228.36,262.58L229.1,66.199L229.85,63.274L230.6,62.552L231.34,240.94L232.09,63.526L232.83,60.416L233.58,59.349L234.33,132.84L235.07,64.284L235.82,147.69L236.57,177.24L237.31,247.14L238.06,62.914L238.8,91.826L239.55,257.42L240.3,258.51L241.04,259.89L241.79,62.882L242.54,71.69L243.28,255.08L244.03,65.996L244.77,265.88L245.52,62.048L246.27,63.678L247.01,62.66L247.76,61.722L248.51,145.86L249.25,64.828L250,64.242L250.74,64.293L251.49,57.45L252.24,49.3L252.98,251.2L253.73,266.2L254.48,274.52L255.22,263.56L255.97,62.479L256.72,92.787L257.46,269.28L258.21,123.64L258.95,63.65L259.7,63.298L260.45,63.428L261.19,63.189L261.94,269.69L262.69,59.312L263.43,64.772L264.18,64.122L264.92,64.499L265.67,64.51L266.42,150.39L267.16,43.343L267.91,261.61L268.66,268.38L269.4,265.2L270.15,248.07L270.89,64.746L271.64,68.359L272.39,267.08L273.13,66.206L273.88,63.062L274.63,261.78L275.37,63.172L276.12,63.661L276.86,61.231L277.61,65.3L278.36,64.27L279.1,149.19L279.85,62.947L280.6,64.721L281.34,40.868L282.09,267.02L282.84,249.55L283.58,269.3L284.33,267.13L285.07,70.69L285.82,59.692L286.57,231.04L287.31,66.422L288.06,256.08L288.81,62.255L289.55,63.078L290.3,69.865L291.04,159.13L291.79,146.61L292.54,61.245L293.28,184.09L294.03,235.6L294.78,62.721L295.52,125.4L296.27,265.77L297.01,135.98L297.76,205.94L298.51,63.088L299.25,89.505L300,113.18L300.75,258.7L301.49,63.336L302.24,63.333L302.98,63.439L303.73,63.228L304.48,63.099L305.22,147.71L305.97,62.945L306.72,66.052L307.46,58.24L308.21,62.569L308.95,67.74L309.7,268.34L310.45,278.56L311.19,267.59L311.94,64.816L312.69,68.733L313.43,234.5L314.18,262.23L314.93,66.718L315.67,63.495L316.42,63.463L317.16,62.724L317.91,247.47L318.66,60.154L319.4,64.625L320.15,64.021L320.9,64.81L321.64,62.893L322.39,148.63L323.13,40.671L323.88,256.19L324.63,260.02L325.37,199.39L326.12,62.77L326.87,262.37L327.61,67.139L328.36,257.4L329.1,66.586L329.85,63.346L330.6,63.479L331.34,268.52L332.09,64.01L332.84,61.685L333.58,64.748L334.33,64.578L335.07,148.11L335.82,65.327L336.57,64.869L337.31,39.556L338.06,62.202L338.81,61.564L339.55,264.49L340.3,260.81L341.05,76.075L341.79,58.274L342.54,259.2L343.28,64.697L344.03,262.96L344.78,62.426L345.52,62.827L346.27,62.633L347.02,62.325L347.76,71.166L348.51,152.96L349.25,151.8L350,62.715L350.75,121.35L351.49,259.11L352.24,62.548L352.99,202.43L353.73,116.75L354.48,126.11L355.22,198.28L355.97,269.77L356.72,239.23L357.46,62.001L358.21,85.274L358.96,108.84L359.7,63.132L360.45,63.044L361.19,206.83L361.94,63.855L362.69,60.807L363.43,63.961L364.18,64.357L364.93,59.585L365.67,127.51L366.42,49.719L367.17,261.08L367.91,66.584L368.66,63.103L369.4,63.068L370.15,278.27L370.9,60.216L371.64,259.79L372.39,58.89L373.14,116.26L373.88,74.957L374.63,205.36L375.37,62.189L376.12,62.712L376.87,63.465L377.61,61.497L378.36,147.11L379.11,65.332L379.85,63.43L380.6,65.495L381.34,64.118L382.09,38.48L382.84,259.8L383.58,63.252L384.33,62.846L385.08,62.389L385.82,63.075L386.57,63.932L387.31,260.08L388.06,63.055L388.81,60.872L389.55,64.719L390.3,65.278L391.05,61.951L391.79,148.19L392.54,62.075L393.29,47.667L394.03,63.265L394.78,63.208L395.52,62.651L396.27,264.45L397.02,62.211L397.76,63.534L398.51,63.512L399.26,65.03L400,121.95L400.75,63.271L401.31,119.27" style="fill:none;stroke:#F15A60" />
<path d="M405.2,277.58L425.2,277.58" style="fill:none;stroke:#F15A60" />
<text x="240.25" y="-271.91" transform="scale(1, -1)"
	style="font-family:Times;font-weight:normal;font-style:normal;font-size:12px">batch-100kb-ctable-64mb-nosync</text>
</g>
</svg>
