<?xml version="1.0"?>
<!-- Generated by SVGo and Plotinum VG -->
<svg width="425.2pt" height="283.46pt" viewBox="0 0 425.2 283.46"
	xmlns="http://www.w3.org/2000/svg"
	xmlns:xlink="http://www.w3.org/1999/xlink">
<g transform="scale(1, -1) translate(0, -283.46)">
<path d="M0,0L425.2,0L425.2,283.46L0,283.46Z" style="fill:#FFFFFF" />
<text x="209.73" y="-3.8613" transform="scale(1, -1)"
	style="font-family:Times;font-weight:normal;font-style:normal;font-size:12px">database size</text>
<text x="65.352" y="-15.602" transform="scale(1, -1)"
	style="font-family:Times;font-weight:normal;font-style:normal;font-size:10px">4.00 mb</text>
<text x="140.56" y="-15.602" transform="scale(1, -1)"
	style="font-family:Times;font-weight:normal;font-style:normal;font-size:10px">260.00 mb</text>
<text x="220.76" y="-15.602" transform="scale(1, -1)"
	style="font-family:Times;font-weight:normal;font-style:normal;font-size:10px">516.00 mb</text>
<text x="300.97" y="-15.602" transform="scale(1, -1)"
	style="font-family:Times;font-weight:normal;font-style:normal;font-size:10px">772.00 mb</text>
<text x="377.42" y="-15.602" transform="scale(1, -1)"
	style="font-family:Times;font-weight:normal;font-style:normal;font-size:10px">1024.00 mb</text>
<path d="M81.741,25.23L81.741,33.23" style="fill:none;stroke:#000000;stroke-width:0.5" />
<path d="M161.95,25.23L161.95,33.23" style="fill:none;stroke:#000000;stroke-width:0.5" />
<path d="M242.15,25.23L242.15,33.23" style="fill:none;stroke:#000000;stroke-width:0.5" />
<path d="M322.36,25.23L322.36,33.23" style="fill:none;stroke:#000000;stroke-width:0.5" />
<path d="M401.31,25.23L401.31,33.23" style="fill:none;stroke:#000000;stroke-width:0.5" />
<path d="M81.114,33.23L401.31,33.23" style="fill:none;stroke:#000000;stroke-width:0.5" />
<g transform="rotate(90)">
<text x="144.86" y="11.555" transform="scale(1, -1)"
	style="font-family:Times;font-weight:normal;font-style:normal;font-size:12px">speed</text>
</g>
<text x="15.416" y="-273.84" transform="scale(1, -1)"
	style="font-family:Times;font-weight:normal;font-style:normal;font-size:10px">253.38 mb/s</text>
<path d="M67.364,278.56L75.364,278.56" style="fill:none;stroke:#000000;stroke-width:0.5" />
<path d="M75.364,38.48L75.364,278.56" style="fill:none;stroke:#000000;stroke-width:0.5" />
<path d="M81.114,38.48L81.741,230.46L82.367,252.45L82.994,257.15L83.621,248.73L84.247,223.52L84.874,218.18L85.501,236.99L86.127,241.67L86.754,241.9L87.38,251.97L88.007,262.69L88.634,253.9L89.26,256.09L89.887,252.6L90.513,250.86L91.14,260.09L91.767,260.46L92.393,257.84L93.02,273.81L93.647,271.42L94.273,267.34L94.9,269.82L95.526,248.33L96.153,257.55L96.78,240.48L97.406,261.87L98.033,268.61L98.66,270.06L99.286,259.99L99.913,217.99L100.54,227.35L101.17,234.45L101.79,226.55L102.42,217.58L103.05,240.42L103.67,250.45L104.3,263.21L104.93,266.8L105.55,264.08L106.18,260.11L106.81,254.27L107.43,258.11L108.06,266.15L108.69,271.37L109.31,262.35L109.94,249.64L110.57,257.58L111.19,250.6L111.82,261.89L112.45,266.31L113.07,208.62L113.7,268.66L114.32,257.2L114.95,265.23L115.58,268.16L116.2,261.82L116.83,274.71L117.46,245.42L118.08,235.43L118.71,258.01L119.34,242.74L119.96,266.1L120.59,249.68L121.22,260.88L121.84,254.36L122.47,270.91L123.1,267.3L123.72,260.53L124.35,253.05L124.98,266.3L125.6,262.3L126.23,266.79L126.86,237.2L127.48,264.18L128.11,260.43L128.74,264.06L129.36,258.74L129.99,258.52L130.62,273.49L131.24,260.08L131.87,268.66L132.5,270.48L133.12,256.52L133.75,256.56L134.38,264.95L135,267.75L135.63,251.12L136.26,270.74L136.88,270.49L137.51,257.85L138.14,267.73L138.76,270.09L139.39,261.17L140.02,228.65L140.64,270.98L141.27,259.15L141.9,263.46L142.52,257.41L143.15,265.19L143.78,264.33L144.4,269.8L145.03,269.62L145.66,239.58L146.28,256.59L146.91,259.11L147.54,243.55L148.16,244.75L148.79,251.29L149.42,257.83L150.04,251.76L150.67,247.94L151.3,266.36L151.92,250.03L152.55,242.04L153.18,231.32L153.8,237.98L154.43,258.69L155.05,256.11L155.68,253.5L156.31,250.85L156.93,256.93L157.56,248.18L158.19,250.44L158.81,253.64L159.44,261.42L160.07,253.72L160.69,255.62L161.32,258.46L161.95,255.23L162.57,268.65L163.2,247.92L163.83,265.94L164.45,259.55L165.08,261.89L165.71,254.74L166.33,211.44L166.96,210.67L167.59,216.83L168.21,213.92L168.84,236.01L169.47,251.31L170.09,256.94L170.72,245.65L171.35,267.47L171.97,256.57L172.6,268.87L173.23,260.68L173.85,254.54L174.48,274.03L175.11,255.21L175.73,244.6L176.36,179.25L176.99,236.95L177.61,247.05L178.24,236.84L178.87,255.68L179.49,256.05L180.12,256.48L180.75,247.76L181.37,244.73L182,264.1L182.63,258.73L183.25,257.36L183.88,256.98L184.51,258.73L185.13,259.15L185.76,253.91L186.39,252.25L187.01,265.35L187.64,253.54L188.27,271.39L188.89,258.52L189.52,257.14L190.15,228.02L190.77,251.03L191.4,260.98L192.03,262.7L192.65,259.13L193.28,253.5L193.91,261.65L194.53,265.22L195.16,243.27L195.78,246.66L196.41,251.33L197.04,260.09L197.66,262.69L198.29,269.11L198.92,256.07L199.54,226.64L200.17,119.77L200.8,237.29L201.42,252.22L202.05,221.22L202.68,258.71L203.3,256.53L203.93,270.12L204.56,266.82L205.18,256.87L205.81,253.02L206.44,240.88L207.06,262.79L207.69,262.69L208.32,266.82L208.94,247.08L209.57,235.81L210.2,236.01L210.82,267.02L211.45,256.08L212.08,259.57L212.7,237.26L213.33,259.57L213.96,263.87L214.58,248.49L215.21,226.64L215.84,246.65L216.46,244.13L217.09,259.59L217.72,242.97L218.34,248.71L218.97,257.41L219.6,254.77L220.22,250.28L220.85,258.9L221.48,256.51L222.1,255.21L222.73,257.8L223.36,244.59L223.98,256.97L224.61,249.22L225.24,269.55L225.86,242.72L226.49,254.77L227.12,262.94L227.74,254.78L228.37,223.17L229,257.82L229.62,246.63L230.25,241.3L230.88,255.87L231.5,260.69L232.13,256.52L232.76,264.51L233.38,267.77L234.01,247.07L234.64,253.44L235.26,232.88L235.89,245.33L236.52,253.02L237.14,237.23L237.77,216.08L238.39,247.58L239.02,248.94L239.65,249.81L240.27,237.18L240.9,250.48L241.53,231.63L242.15,256.52L242.78,254.44L243.41,253.84L244.03,250.81L244.66,268.24L245.29,258.69L245.91,253.29L246.54,255.22L247.17,210.83L247.79,189.43L248.42,189.91L249.05,212.31L249.67,249.99L250.3,249.66L250.93,264.57L251.55,257.3L252.18,253.74L252.81,256.27L253.43,264.02L254.06,262.38L254.69,262.51L255.31,255.36L255.94,256.53L256.57,257.69L257.19,264.7L257.82,257.21L258.45,257.13L259.07,248.77L259.7,265.45L260.33,261.4L260.95,244.6L261.58,254.74L262.21,261.17L262.83,257.14L263.46,260.32L264.09,254.53L264.71,255.18L265.34,267.72L265.97,276.66L266.59,273.33L267.22,266.34L267.85,253.54L268.47,237.59L269.1,266.27L269.73,256.11L270.35,264.1L270.98,261.85L271.61,250.46L272.23,246.64L272.86,248.82L273.49,246.6L274.11,245.85L274.74,241.23L275.37,242.06L275.99,256.95L276.62,259.44L277.25,255.39L277.87,252.6L278.5,250.47L279.12,254.79L279.75,255.18L280.38,269.58L281,240.86L281.63,263.64L282.26,267.26L282.88,250.03L283.51,254.77L284.14,242.96L284.76,264.12L285.39,263.53L286.02,274.74L286.64,262.76L287.27,249.22L287.9,261.16L288.52,271.44L289.15,263.5L289.78,268.99L290.4,260.49L291.03,257.89L291.66,272.75L292.28,250.88L292.91,257.42L293.54,250.6L294.16,246.11L294.79,257.84L295.42,262.7L296.04,270.54L296.67,253.91L297.3,264.33L297.92,252.36L298.55,237.21L299.18,267.08L299.8,234.57L300.43,270.08L301.06,262.25L301.68,252.58L302.31,219.44L302.94,206.68L303.56,216.68L304.19,221.23L304.82,216.09L305.44,224.35L306.07,219.04L306.7,228.47L307.32,229.36L307.95,209.59L308.58,226.95L309.2,227.8L309.83,232.38L310.46,238.02L311.08,248.98L311.71,260.26L312.34,264.08L312.96,247.92L313.59,252.59L314.22,265.91L314.84,267.3L315.47,260.49L316.1,256.62L316.72,268.97L317.35,247.56L317.98,250.42L318.6,260.04L319.23,253.47L319.85,265.27L320.48,257.18L321.11,256.02L321.73,213.96L322.36,255.62L322.99,262.28L323.61,249.21L324.24,242.07L324.87,245.82L325.49,254.33L326.12,263.17L326.75,248.78L327.37,247.07L328,230.44L328.63,234.43L329.25,245.39L329.88,242.92L330.51,259.58L331.13,251.8L331.76,263.4L332.39,263.83L333.01,257.37L333.64,250.91L334.27,267.75L334.89,270.97L335.52,265.45L336.15,251.32L336.77,250.26L337.4,258.9L338.03,257.86L338.65,262.74L339.28,263.63L339.91,266.37L340.53,257.04L341.16,247.41L341.79,267.67L342.41,261.88L343.04,257.41L343.67,261.43L344.29,254.29L344.92,250.5L345.55,232.78L346.17,261.81L346.8,247.93L347.43,244.81L348.05,216.63L348.68,219.85L349.31,214.44L349.93,246.42L350.56,242.08L351.19,259.14L351.81,258.74L352.44,246.68L353.07,256.05L353.69,253.89L354.32,257.44L354.95,247.02L355.57,257.39L356.2,263.66L356.83,241.26L357.45,258.28L358.08,250.44L358.71,252.2L359.33,251.54L359.96,268.41L360.58,263.24L361.21,258.22L361.84,268.19L362.46,227.02L363.09,258.01L363.72,235.02L364.34,252.99L364.97,259.14L365.6,247.48L366.22,246.3L366.85,250.85L367.48,256.1L368.1,242.93L368.73,265.85L369.36,255.74L369.98,256.16L370.61,257.27L371.24,250.67L371.86,265.65L372.49,254.76L373.12,254.75L373.74,245.66L374.37,253.28L375,258.67L375.62,247.49L376.25,261.39L376.88,264.54L377.5,262.71L378.13,251.34L378.76,261.36L379.38,264.57L380.01,265.57L380.64,259.9L381.26,256.35L381.89,265.26L382.52,232.36L383.14,261.83L383.77,260.3L384.4,257.62L385.02,257.42L385.65,256.91L386.28,268.64L386.9,266.82L387.53,250.91L388.16,262.74L388.78,253.71L389.41,255.4L390.04,272.37L390.66,261.35L391.29,261.44L391.92,253.43L392.54,270.51L393.17,265.52L393.8,266.82L394.42,258.67L395.05,271.45L395.68,256.12L396.3,265.38L396.93,258.54L397.56,268.38L398.18,249.89L398.81,260.21L399.44,278.56L400.06,243.4L400.69,265.35L401.31,257.76" style="fill:none;stroke:#F15A60" />
<path d="M405.2,277.58L425.2,277.58" style="fill:none;stroke:#F15A60" />
<text x="325.55" y="-271.91" transform="scale(1, -1)"
	style="font-family:Times;font-weight:normal;font-style:normal;font-size:12px">batch-1mb-notx</text>
</g>
</svg>
