<?xml version="1.0"?>
<!-- Generated by SVGo and Plotinum VG -->
<svg width="425.2pt" height="283.46pt" viewBox="0 0 425.2 283.46"
	xmlns="http://www.w3.org/2000/svg"
	xmlns:xlink="http://www.w3.org/1999/xlink">
<g transform="scale(1, -1) translate(0, -283.46)">
<path d="M0,0L425.2,0L425.2,283.46L0,283.46Z" style="fill:#FFFFFF" />
<text x="207.23" y="-3.8613" transform="scale(1, -1)"
	style="font-family:Times;font-weight:normal;font-style:normal;font-size:12px">database size</text>
<text x="60.361" y="-15.602" transform="scale(1, -1)"
	style="font-family:Times;font-weight:normal;font-style:normal;font-size:10px">4.00 mb</text>
<text x="136.82" y="-15.602" transform="scale(1, -1)"
	style="font-family:Times;font-weight:normal;font-style:normal;font-size:10px">260.00 mb</text>
<text x="218.28" y="-15.602" transform="scale(1, -1)"
	style="font-family:Times;font-weight:normal;font-style:normal;font-size:10px">516.00 mb</text>
<text x="299.73" y="-15.602" transform="scale(1, -1)"
	style="font-family:Times;font-weight:normal;font-style:normal;font-size:10px">772.00 mb</text>
<text x="377.42" y="-15.602" transform="scale(1, -1)"
	style="font-family:Times;font-weight:normal;font-style:normal;font-size:10px">1024.00 mb</text>
<path d="M76.751,25.23L76.751,33.23" style="fill:none;stroke:#000000;stroke-width:0.5" />
<path d="M158.21,25.23L158.21,33.23" style="fill:none;stroke:#000000;stroke-width:0.5" />
<path d="M239.67,25.23L239.67,33.23" style="fill:none;stroke:#000000;stroke-width:0.5" />
<path d="M321.12,25.23L321.12,33.23" style="fill:none;stroke:#000000;stroke-width:0.5" />
<path d="M401.31,25.23L401.31,33.23" style="fill:none;stroke:#000000;stroke-width:0.5" />
<path d="M76.114,33.23L401.31,33.23" style="fill:none;stroke:#000000;stroke-width:0.5" />
<g transform="rotate(90)">
<text x="144.86" y="11.555" transform="scale(1, -1)"
	style="font-family:Times;font-weight:normal;font-style:normal;font-size:12px">speed</text>
</g>
<text x="20.416" y="-34.821" transform="scale(1, -1)"
	style="font-family:Times;font-weight:normal;font-style:normal;font-size:10px">1.00 mb/s</text>
<text x="15.416" y="-116.23" transform="scale(1, -1)"
	style="font-family:Times;font-weight:normal;font-style:normal;font-size:10px">33.00 mb/s</text>
<text x="15.416" y="-197.63" transform="scale(1, -1)"
	style="font-family:Times;font-weight:normal;font-style:normal;font-size:10px">65.00 mb/s</text>
<text x="15.416" y="-273.84" transform="scale(1, -1)"
	style="font-family:Times;font-weight:normal;font-style:normal;font-size:10px">94.95 mb/s</text>
<path d="M62.364,39.543L70.364,39.543" style="fill:none;stroke:#000000;stroke-width:0.5" />
<path d="M62.364,120.95L70.364,120.95" style="fill:none;stroke:#000000;stroke-width:0.5" />
<path d="M62.364,202.35L70.364,202.35" style="fill:none;stroke:#000000;stroke-width:0.5" />
<path d="M62.364,278.56L70.364,278.56" style="fill:none;stroke:#000000;stroke-width:0.5" />
<path d="M70.364,38.48L70.364,278.56" style="fill:none;stroke:#000000;stroke-width:0.5" />
<path d="M76.114,221.89L76.751,235.39L77.387,238.06L78.023,262.32L78.66,263.38L79.296,258.53L79.933,270.81L80.569,169.11L81.205,171.83L81.842,184.5L82.478,149.8L83.115,175.79L83.751,157.29L84.387,194.52L85.024,169.41L85.66,177.74L86.297,147.44L86.933,203.72L87.569,133.81L88.206,198.17L88.842,150.77L89.479,181.79L90.115,57.159L90.751,192.37L91.388,168.75L92.024,198.42L92.661,170.24L93.297,204.57L93.933,148.16L94.57,219.33L95.206,56.85L95.843,204.56L96.479,152.51L97.115,212.58L97.752,46.91L98.388,215.33L99.025,167.78L99.661,208.88L100.3,135.6L100.93,225.96L101.57,168.8L102.21,218.06L102.84,48.056L103.48,201.65L104.12,156.62L104.75,199.16L105.39,43.216L106.03,260.95L106.66,255.91L107.3,152.59L107.93,228.91L108.57,156.11L109.21,230.81L109.84,162.86L110.48,43.949L111.12,213.46L111.75,235.68L112.39,203.99L113.03,152.63L113.66,42.214L114.3,205.79L114.93,205.99L115.57,199.48L116.21,149.95L116.84,190.32L117.48,151.35L118.12,170.2L118.75,41.638L119.39,228.24L120.03,154.96L120.66,228.91L121.3,217.73L121.94,250.49L122.57,195.52L123.21,113.13L123.84,41.167L124.48,259.99L125.12,247.22L125.75,230.83L126.39,154.07L127.03,253.01L127.66,40.366L128.3,201.36L128.94,215.77L129.57,230.08L130.21,147.17L130.84,185.67L131.48,142.84L132.12,231.58L132.75,130.23L133.39,208.49L134.03,152.91L134.66,40.324L135.3,227.21L135.94,211.25L136.57,207.28L137.21,145.93L137.85,208.91L138.48,210.11L139.12,207.74L139.75,126.6L140.39,40.294L141.03,269.22L141.66,234.32L142.3,135.44L142.94,190.44L143.57,145.25L144.21,216.55L144.85,235.71L145.48,40.25L146.12,272.24L146.75,252.24L147.39,147.23L148.03,214.62L148.66,165.77L149.3,185.88L149.94,145.84L150.57,209.5L151.21,134.36L151.85,40.085L152.48,256.8L153.12,260.9L153.76,252.06L154.39,143.22L155.03,189.9L155.66,134.39L156.3,199.87L156.94,142.25L157.57,39.587L158.21,267.01L158.85,263.61L159.48,234.25L160.12,142.62L160.76,235.82L161.39,162.91L162.03,215.92L162.66,148.4L163.3,245.97L163.94,39.338L164.57,257.39L165.21,257.62L165.85,170.22L166.48,270.19L167.12,265.13L167.76,277.48L168.39,230.65L169.03,244.82L169.67,223.63L170.3,214.42L170.94,39.535L171.57,262.41L172.21,255.72L172.85,251.68L173.48,157.57L174.12,223.61L174.76,164.66L175.39,203.13L176.03,156.77L176.67,249.22L177.3,214.81L177.94,39.277L178.57,253.59L179.21,273.12L179.85,211.8L180.48,157.14L181.12,172.23L181.76,160.22L182.39,169.41L183.03,245.72L183.67,176.31L184.3,144.09L184.94,39.16L185.58,262.07L186.21,266.2L186.85,241.16L187.48,158.35L188.12,197.43L188.76,148.25L189.39,266.41L190.03,243.19L190.67,243.9L191.3,251.94L191.94,248.29L192.58,205.94L193.21,39.269L193.85,210.77L194.48,173.02L195.12,208.64L195.76,154.3L196.39,251.46L197.03,237.19L197.67,224.7L198.3,156.29L198.94,250.98L199.58,39.177L200.21,254.13L200.85,261.68L201.49,258.32L202.12,275.78L202.76,215.44L203.39,222.16L204.03,230.66L204.67,246.29L205.3,229.03L205.94,196.77L206.58,145.79L207.21,39.634L207.85,248.23L208.49,265.81L209.12,213.19L209.76,170.17L210.39,178L211.03,136.08L211.67,172.79L212.3,158.2L212.94,39.401L213.58,232.04L214.21,227.88L214.85,141.42L215.49,215.75L216.12,173.67L216.76,221.63L217.4,165.43L218.03,250.77L218.67,249.89L219.3,243.99L219.94,250.12L220.58,39.375L221.21,213.34L221.85,217.55L222.49,226.28L223.12,220.36L223.76,272.46L224.4,246.51L225.03,252.42L225.67,247.84L226.3,216.73L226.94,150.06L227.58,39.558L228.21,258.54L228.85,268.58L229.49,222.02L230.12,171.97L230.76,187.3L231.4,152.74L232.03,224.64L232.67,242.27L233.31,207.93L233.94,39.648L234.58,255.53L235.21,274.33L235.85,257.71L236.49,259.42L237.12,217.04L237.76,159.74L238.4,206.79L239.03,156.24L239.67,192.29L240.31,39.744L240.94,218.4L241.58,180.98L242.21,219.52L242.85,158.58L243.49,208.56L244.12,133.77L244.76,241.32L245.4,254.1L246.03,39.351L246.67,264.57L247.31,273.74L247.94,247.51L248.58,174.67L249.22,223.34L249.85,143.34L250.49,238.23L251.12,150.39L251.76,245.01L252.4,245.95L253.03,254.44L253.67,39.111L254.31,230.05L254.94,137.4L255.58,231.9L256.22,177.14L256.85,172.72L257.49,168.51L258.12,142.83L258.76,248.46L259.4,251.99L260.03,249.83L260.67,252.38L261.31,203.14L261.94,38.898L262.58,204.83L263.22,168.23L263.85,228.19L264.49,173.35L265.13,205.83L265.76,147.81L266.4,161.07L267.03,144.74L267.67,249.21L268.31,250.97L268.94,38.793L269.58,235.37L270.22,162.66L270.85,228.32L271.49,135.34L272.13,270.6L272.76,265.3L273.4,272.32L274.03,189.37L274.67,127.11L275.31,206.41L275.94,160.26L276.58,206.47L277.22,38.833L277.85,207.03L278.49,141.99L279.13,211.25L279.76,169.96L280.4,221.16L281.04,171.45L281.67,222.68L282.31,161.32L282.94,207.11L283.58,160.79L284.22,221.35L284.85,38.85L285.49,203.21L286.13,148.72L286.76,160.01L287.4,177.02L288.04,122.85L288.67,246.81L289.31,155.53L289.94,195.63L290.58,152.02L291.22,248.44L291.85,38.766L292.49,221.7L293.13,161.31L293.76,220.79L294.4,163.7L295.04,231.79L295.67,173.1L296.31,259.56L296.95,232.31L297.58,152.07L298.22,233.17L298.85,218.27L299.49,38.75L300.13,266.05L300.76,264.32L301.4,243.04L302.04,163.18L302.67,230.72L303.31,143.07L303.95,180.61L304.58,148.6L305.22,193.43L305.85,122.54L306.49,214.9L307.13,38.811L307.76,232.88L308.4,224.65L309.04,163.05L309.67,233.05L310.31,159.28L310.95,213.68L311.58,170.89L312.22,208.51L312.86,164.59L313.49,197.53L314.13,150.22L314.76,38.84L315.4,249.61L316.04,261.89L316.67,238.14L317.31,172.01L317.95,215.63L318.58,163.24L319.22,162.88L319.86,169.6L320.49,187.04L321.13,157.7L321.77,240.76L322.4,38.794L323.04,259.66L323.67,264.86L324.31,238.65L324.95,161.85L325.58,230.19L326.22,168.06L326.86,238.07L327.49,168.57L328.13,192.72L328.77,146.14L329.4,178.2L330.04,159L330.67,38.826L331.31,214.13L331.95,155.55L332.58,225.21L333.22,165.95L333.86,205.44L334.49,159.55L335.13,262.23L335.77,160.47L336.4,214.74L337.04,144.09L337.68,218.45L338.31,163.48L338.95,38.55L339.58,269.13L340.22,254.41L340.86,168.7L341.49,229.71L342.13,165.17L342.77,211.04L343.4,171.81L344.04,216.45L344.68,148.13L345.31,196.07L345.95,166.29L346.58,196.09L347.22,38.481L347.86,209.79L348.49,161.39L349.13,180.75L349.77,154.58L350.4,210.54L351.04,200.26L351.68,202.81L352.31,128.62L352.95,236.91L353.59,259.65L354.22,232.16L354.86,38.719L355.49,207.77L356.13,171.29L356.77,212.69L357.4,167.11L358.04,195.45L358.68,164.12L359.31,195.47L359.95,135.04L360.59,253.68L361.22,242.78L361.86,38.755L362.49,164.7L363.13,140.68L363.77,235.76L364.4,170.96L365.04,225.69L365.68,166.25L366.31,243.86L366.95,162.02L367.59,236.73L368.22,137.4L368.86,231.86L369.5,38.75L370.13,227.53L370.77,249.31L371.4,202.22L372.04,147.33L372.68,205.38L373.31,166.92L373.95,231.56L374.59,167.93L375.22,195.31L375.86,137.9L376.5,212.38L377.13,125.71L377.77,38.874L378.4,258.32L379.04,278.56L379.68,194.29L380.31,167.18L380.95,215.49L381.59,172.36L382.22,180.33L382.86,157.23L383.5,220.18L384.13,249.57L384.77,231.86L385.41,140.18L386.04,38.57L386.68,264.17L387.31,273.09L387.95,222.83L388.59,168.03L389.22,182.23L389.86,145.05L390.5,208.4L391.13,155.71L391.77,201.56L392.41,132.11L393.04,244.57L393.68,38.48L394.31,267.94L394.95,206.66L395.59,155.88L396.22,187.29L396.86,157.35L397.5,222.92L398.13,146.73L398.77,213.47L399.41,144.19L400.04,218.56L400.68,145.77L401.31,204.24" style="fill:none;stroke:#F15A60" />
<path d="M405.2,277.58L425.2,277.58" style="fill:none;stroke:#F15A60" />
<text x="350.88" y="-271.91" transform="scale(1, -1)"
	style="font-family:Times;font-weight:normal;font-style:normal;font-size:12px">batch-1mb</text>
</g>
</svg>
