<?xml version="1.0"?>
<!-- Generated by SVGo and Plotinum VG -->
<svg width="425.2pt" height="283.46pt" viewBox="0 0 425.2 283.46"
	xmlns="http://www.w3.org/2000/svg"
	xmlns:xlink="http://www.w3.org/1999/xlink">
<g transform="scale(1, -1) translate(0, -283.46)">
<path d="M0,0L425.2,0L425.2,283.46L0,283.46Z" style="fill:#FFFFFF" />
<text x="207.23" y="-3.8613" transform="scale(1, -1)"
	style="font-family:Times;font-weight:normal;font-style:normal;font-size:12px">database size</text>
<text x="60.252" y="-15.602" transform="scale(1, -1)"
	style="font-family:Times;font-weight:normal;font-style:normal;font-size:10px">4.00 mb</text>
<text x="136.77" y="-15.602" transform="scale(1, -1)"
	style="font-family:Times;font-weight:normal;font-style:normal;font-size:10px">260.00 mb</text>
<text x="218.28" y="-15.602" transform="scale(1, -1)"
	style="font-family:Times;font-weight:normal;font-style:normal;font-size:10px">516.00 mb</text>
<text x="299.79" y="-15.602" transform="scale(1, -1)"
	style="font-family:Times;font-weight:normal;font-style:normal;font-size:10px">772.00 mb</text>
<text x="377.42" y="-15.602" transform="scale(1, -1)"
	style="font-family:Times;font-weight:normal;font-style:normal;font-size:10px">1023.63 mb</text>
<path d="M76.642,25.23L76.642,33.23" style="fill:none;stroke:#000000;stroke-width:0.5" />
<path d="M158.16,25.23L158.16,33.23" style="fill:none;stroke:#000000;stroke-width:0.5" />
<path d="M239.67,25.23L239.67,33.23" style="fill:none;stroke:#000000;stroke-width:0.5" />
<path d="M321.18,25.23L321.18,33.23" style="fill:none;stroke:#000000;stroke-width:0.5" />
<path d="M401.31,25.23L401.31,33.23" style="fill:none;stroke:#000000;stroke-width:0.5" />
<path d="M76.114,33.23L401.31,33.23" style="fill:none;stroke:#000000;stroke-width:0.5" />
<g transform="rotate(90)">
<text x="144.86" y="11.555" transform="scale(1, -1)"
	style="font-family:Times;font-weight:normal;font-style:normal;font-size:12px">speed</text>
</g>
<text x="20.416" y="-35.222" transform="scale(1, -1)"
	style="font-family:Times;font-weight:normal;font-style:normal;font-size:10px">8.00 mb/s</text>
<text x="15.416" y="-98.432" transform="scale(1, -1)"
	style="font-family:Times;font-weight:normal;font-style:normal;font-size:10px">24.00 mb/s</text>
<text x="15.416" y="-161.64" transform="scale(1, -1)"
	style="font-family:Times;font-weight:normal;font-style:normal;font-size:10px">40.00 mb/s</text>
<text x="15.416" y="-224.85" transform="scale(1, -1)"
	style="font-family:Times;font-weight:normal;font-style:normal;font-size:10px">56.00 mb/s</text>
<text x="15.416" y="-273.84" transform="scale(1, -1)"
	style="font-family:Times;font-weight:normal;font-style:normal;font-size:10px">68.40 mb/s</text>
<path d="M62.364,39.944L70.364,39.944" style="fill:none;stroke:#000000;stroke-width:0.5" />
<path d="M62.364,103.15L70.364,103.15" style="fill:none;stroke:#000000;stroke-width:0.5" />
<path d="M62.364,166.36L70.364,166.36" style="fill:none;stroke:#000000;stroke-width:0.5" />
<path d="M62.364,229.57L70.364,229.57" style="fill:none;stroke:#000000;stroke-width:0.5" />
<path d="M62.364,278.56L70.364,278.56" style="fill:none;stroke:#000000;stroke-width:0.5" />
<path d="M70.364,38.48L70.364,278.56" style="fill:none;stroke:#000000;stroke-width:0.5" />
<path d="M76.114,278.56L76.861,230.29L77.607,216.6L78.353,214.16L79.099,210.47L79.846,192.78L80.592,193.62L81.338,204.57L82.085,165.32L82.831,191.6L83.577,167.48L84.323,185.55L85.07,187.22L85.816,153.79L86.562,183.2L87.309,184.07L88.055,148.41L88.801,163.75L89.547,176.98L90.294,175.79L91.04,171.33L91.786,130.41L92.533,167L93.279,165.28L94.025,164.89L94.771,151.32L95.518,121.45L96.264,163.44L97.01,163.2L97.757,161.52L98.503,158.37L99.249,158.21L99.995,158.61L100.74,120.51L101.49,147.14L102.23,139.68L102.98,140.25L103.73,145.85L104.47,142.95L105.22,143.53L105.97,146.36L106.71,116.88L107.46,142.68L108.2,141.79L108.95,141.63L109.7,133.74L110.44,137.59L111.19,139.66L111.94,140.68L112.68,137.13L113.43,137.36L114.17,95.088L114.92,137.03L115.67,141.5L116.41,144.15L117.16,137.88L117.91,135.32L118.65,135.36L119.4,134.57L120.15,135.3L120.89,134.91L121.64,133.63L122.38,134.22L123.13,133.66L123.88,86.373L124.62,134.4L125.37,137.56L126.12,136.64L126.86,137.38L127.61,137.67L128.35,135.73L129.1,138.73L129.85,137.14L130.59,134.19L131.34,135.95L132.09,136.31L132.83,134.69L133.58,134.7L134.32,135.34L135.07,133.82L135.82,98.836L136.56,122.98L137.31,128.05L138.06,124.84L138.8,126.55L139.55,126.65L140.29,126.11L141.04,123.76L141.79,117.66L142.53,122.75L143.28,124.86L144.03,123.27L144.77,121.83L145.52,121.01L146.26,118.71L147.01,118.69L147.76,122.49L148.5,122.31L149.25,122.54L150,118.62L150.74,120.68L151.49,72.222L152.24,127.38L152.98,126.42L153.73,128.12L154.47,128.36L155.22,126.24L155.97,125.95L156.71,126.25L157.46,126.94L158.21,128.84L158.95,125.26L159.7,121.06L160.44,120.66L161.19,121.83L161.94,122.77L162.68,120.63L163.43,121.15L164.18,120.91L164.92,115.59L165.67,116.01L166.41,121.28L167.16,121.25L167.91,122.29L168.65,123.77L169.4,122.31L170.15,80.912L170.89,116.83L171.64,115.5L172.38,116.69L173.13,117L173.88,111.27L174.62,116.36L175.37,115.78L176.12,115.31L176.86,116.77L177.61,115.84L178.36,116.42L179.1,116.19L179.85,114.02L180.59,109.07L181.34,111.97L182.09,113.66L182.83,114.83L183.58,114.6L184.33,114.61L185.07,116.07L185.82,114.23L186.56,113.89L187.31,114.49L188.06,114.92L188.8,114.24L189.55,113.84L190.3,114.42L191.04,112.1L191.79,111.37L192.53,240.48L193.28,245.03L194.03,233.67L194.77,218.52L195.52,214.54L196.27,199.86L197.01,194L197.76,191.69L198.5,181.37L199.25,195.39L200,179.51L200.74,184.65L201.49,183.98L202.24,162.66L202.98,177.52L203.73,177.84L204.48,159.62L205.22,163.24L205.97,166.71L206.71,161.29L207.46,164.73L208.21,141.03L208.95,160.68L209.7,156.67L210.45,156.56L211.19,155.66L211.94,131.72L212.68,154.03L213.43,152.57L214.18,147.88L214.92,149.79L215.67,147.72L216.42,147.37L217.16,121.48L217.91,144.25L218.65,145.9L219.4,143.66L220.15,143.51L220.89,148.24L221.64,149.49L222.39,147.82L223.13,118.32L223.88,142.47L224.62,143.03L225.37,141.54L226.12,142.79L226.86,141.79L227.61,139.35L228.36,136.98L229.1,133.49L229.85,132.1L230.6,93.003L231.34,74.599L232.09,132.16L232.83,135.03L233.58,133.63L234.33,132.26L235.07,134.86L235.82,133.25L236.57,132.14L237.31,133.25L238.06,132.61L238.8,132.85L239.55,128.85L240.3,83.955L241.04,128.67L241.79,131.07L242.54,130.43L243.28,131.24L244.03,127.11L244.77,129.88L245.52,130.35L246.27,128.57L247.01,127.56L247.76,124.92L248.51,124.99L249.25,127.22L250,126.96L250.74,128.01L251.49,128.31L252.24,79.406L252.98,121.99L253.73,126.5L254.48,126.38L255.22,124.71L255.97,123.81L256.72,125.38L257.46,124.92L258.21,125.06L258.95,125.07L259.7,124.41L260.45,126.14L261.19,125.43L261.94,125.76L262.69,123.69L263.43,124.57L264.18,124.65L264.92,126.72L265.67,131.22L266.42,132.32L267.16,131.37L267.91,90.707L268.66,129.22L269.4,129.89L270.15,130.74L270.89,131.51L271.64,128.66L272.39,128.91L273.13,128.79L273.88,124.12L274.63,127.19L275.37,124.97L276.12,116.34L276.86,114.25L277.61,117.19L278.36,121.53L279.1,125.56L279.85,124.6L280.6,116.83L281.34,121.02L282.09,123.52L282.84,124.12L283.58,123.63L284.33,124.05L285.07,123.94L285.82,123.7L286.57,81.471L287.31,121.63L288.06,122.59L288.81,122.48L289.55,122.39L290.3,119.83L291.04,122L291.79,121.09L292.54,119.54L293.28,121.23L294.03,116.85L294.78,113.72L295.52,114.94L296.27,118.53L297.01,119.32L297.76,120.8L298.51,120.07L299.25,118.56L300,119.39L300.75,119.59L301.49,112.95L302.24,118.24L302.98,120.06L303.73,119.86L304.48,118.28L305.22,119.59L305.97,120.7L306.72,119.76L307.46,118.95L308.21,118.94L308.95,62.185L309.7,233.1L310.45,218.07L311.19,210.25L311.94,201.43L312.69,190.5L313.43,193.93L314.18,192.95L314.93,181.69L315.67,190.19L316.42,175.24L317.16,181L317.91,185.81L318.66,163.59L319.4,175.9L320.15,177.75L320.9,158.47L321.64,165.23L322.39,172.01L323.13,169.99L323.88,168.25L324.63,141.92L325.37,162.24L326.12,163.3L326.87,162.75L327.61,160.32L328.36,135.23L329.1,155.69L329.85,157L330.6,154.76L331.34,153.3L332.09,152.65L332.84,149.84L333.58,117.24L334.33,140.73L335.07,139.76L335.82,139.92L336.57,139.73L337.31,134.66L338.06,130.49L338.81,134.6L339.55,112.6L340.3,136.12L341.05,137.48L341.79,137.68L342.54,134.87L343.28,134.56L344.03,133.63L344.78,134.19L345.52,133.19L346.27,132.97L347.02,106.58L347.76,114.05L348.51,38.48L349.25,123.51L350,127.84L350.75,126.27L351.49,125.91L352.24,125.81L352.99,125.77L353.73,126.27L354.48,126.65L355.22,127.84L355.97,96.882L356.72,101.76L357.46,128.69L358.21,132.06L358.96,132.46L359.7,131.16L360.45,129.52L361.19,131.52L361.94,130.55L362.69,130.42L363.43,131.25L364.18,129.57L364.93,126.82L365.67,128.5L366.42,128.88L367.17,129.39L367.91,128.71L368.66,97.132L369.4,124.74L370.15,124.19L370.9,127.47L371.64,129.05L372.39,126.79L373.14,128.61L373.88,128.74L374.63,129.14L375.37,128.12L376.12,127.95L376.87,124.56L377.61,119.1L378.36,124.54L379.11,123.88L379.85,124.71L380.6,125.15L381.34,124.41L382.09,122.06L382.84,120.37L383.58,118.75L384.33,47.975L385.08,114.9L385.82,116.22L386.57,115.87L387.31,113.73L388.06,114.17L388.81,113.78L389.55,113.23L390.3,110.79L391.05,110.55L391.79,113.03L392.54,112.4L393.29,115.4L394.03,115.52L394.78,115.85L395.52,112.85L396.27,110.56L397.02,108.04L397.76,110.66L398.51,112.69L399.26,112.54L400,113.32L400.75,113.99L401.31,113.25" style="fill:none;stroke:#F15A60" />
<path d="M405.2,277.58L425.2,277.58" style="fill:none;stroke:#F15A60" />
<text x="168.95" y="-271.91" transform="scale(1, -1)"
	style="font-family:Times;font-weight:normal;font-style:normal;font-size:12px">batch-100kb-ctable-64mb-wb-512mb-cache-1gb</text>
</g>
</svg>
