<?xml version="1.0"?>
<!-- Generated by SVGo and Plotinum VG -->
<svg width="425.2pt" height="283.46pt" viewBox="0 0 425.2 283.46"
	xmlns="http://www.w3.org/2000/svg"
	xmlns:xlink="http://www.w3.org/1999/xlink">
<g transform="scale(1, -1) translate(0, -283.46)">
<path d="M0,0L425.2,0L425.2,283.46L0,283.46Z" style="fill:#FFFFFF" />
<text x="207.23" y="-3.8613" transform="scale(1, -1)"
	style="font-family:Times;font-weight:normal;font-style:normal;font-size:12px">database size</text>
<text x="60.682" y="-15.602" transform="scale(1, -1)"
	style="font-family:Times;font-weight:normal;font-style:normal;font-size:10px">8.00 mb</text>
<text x="137.38" y="-15.602" transform="scale(1, -1)"
	style="font-family:Times;font-weight:normal;font-style:normal;font-size:10px">264.00 mb</text>
<text x="219.08" y="-15.602" transform="scale(1, -1)"
	style="font-family:Times;font-weight:normal;font-style:normal;font-size:10px">520.00 mb</text>
<text x="300.77" y="-15.602" transform="scale(1, -1)"
	style="font-family:Times;font-weight:normal;font-style:normal;font-size:10px">776.00 mb</text>
<text x="377.42" y="-15.602" transform="scale(1, -1)"
	style="font-family:Times;font-weight:normal;font-style:normal;font-size:10px">1024.00 mb</text>
<path d="M77.072,25.23L77.072,33.23" style="fill:none;stroke:#000000;stroke-width:0.5" />
<path d="M158.77,25.23L158.77,33.23" style="fill:none;stroke:#000000;stroke-width:0.5" />
<path d="M240.47,25.23L240.47,33.23" style="fill:none;stroke:#000000;stroke-width:0.5" />
<path d="M322.16,25.23L322.16,33.23" style="fill:none;stroke:#000000;stroke-width:0.5" />
<path d="M401.31,25.23L401.31,33.23" style="fill:none;stroke:#000000;stroke-width:0.5" />
<path d="M76.114,33.23L401.31,33.23" style="fill:none;stroke:#000000;stroke-width:0.5" />
<g transform="rotate(90)">
<text x="144.86" y="11.555" transform="scale(1, -1)"
	style="font-family:Times;font-weight:normal;font-style:normal;font-size:12px">speed</text>
</g>
<text x="20.416" y="-35.305" transform="scale(1, -1)"
	style="font-family:Times;font-weight:normal;font-style:normal;font-size:10px">2.00 mb/s</text>
<text x="15.416" y="-102.27" transform="scale(1, -1)"
	style="font-family:Times;font-weight:normal;font-style:normal;font-size:10px">18.00 mb/s</text>
<text x="15.416" y="-169.23" transform="scale(1, -1)"
	style="font-family:Times;font-weight:normal;font-style:normal;font-size:10px">34.00 mb/s</text>
<text x="15.416" y="-236.2" transform="scale(1, -1)"
	style="font-family:Times;font-weight:normal;font-style:normal;font-size:10px">50.00 mb/s</text>
<text x="15.416" y="-273.84" transform="scale(1, -1)"
	style="font-family:Times;font-weight:normal;font-style:normal;font-size:10px">58.99 mb/s</text>
<path d="M62.364,40.027L70.364,40.027" style="fill:none;stroke:#000000;stroke-width:0.5" />
<path d="M62.364,106.99L70.364,106.99" style="fill:none;stroke:#000000;stroke-width:0.5" />
<path d="M62.364,173.95L70.364,173.95" style="fill:none;stroke:#000000;stroke-width:0.5" />
<path d="M62.364,240.92L70.364,240.92" style="fill:none;stroke:#000000;stroke-width:0.5" />
<path d="M62.364,278.56L70.364,278.56" style="fill:none;stroke:#000000;stroke-width:0.5" />
<path d="M70.364,38.48L70.364,278.56" style="fill:none;stroke:#000000;stroke-width:0.5" />
<path d="M76.114,192.05L77.71,264.75L79.306,227.27L80.901,274.13L82.497,275.98L84.093,232.98L85.688,264.95L87.284,252.55L88.88,219.78L90.475,262.34L92.071,270.17L93.666,97.066L95.262,267.32L96.858,259.78L98.453,83.404L100.05,271.32L101.64,254.89L103.24,67.834L104.84,228.26L106.43,247.02L108.03,59.906L109.62,264.15L111.22,272.85L112.81,56.326L114.41,231.56L116.01,235.49L117.6,53.526L119.2,260.24L120.79,264.66L122.39,52.936L123.98,254.79L125.58,262.36L127.18,52.337L128.77,242.03L130.37,268.64L131.96,52.512L133.56,248.16L135.15,271.03L136.75,52.227L138.34,254.67L139.94,226.95L141.54,51.913L143.13,253.68L144.73,278.56L146.32,51.604L147.92,254.35L149.51,239.55L151.11,51.619L152.71,250.74L154.3,271.56L155.9,49.614L157.49,234.63L159.09,270.91L160.68,274.05L162.28,52.753L163.88,258.5L165.47,273.51L167.07,52.3L168.66,260.16L170.26,276.94L171.85,52.366L173.45,257.97L175.04,235.28L176.64,51.965L178.24,256.14L179.83,262.28L181.43,49.72L183.02,258.27L184.62,262.17L186.21,262.07L187.81,47.092L189.41,259.35L191,254.89L192.6,265.99L194.19,45.861L195.79,246.4L197.38,269.86L198.98,256.58L200.58,43.579L202.17,251.62L203.77,264.86L205.36,270.21L206.96,244.35L208.55,42.66L210.15,250.26L211.75,257.43L213.34,249.76L214.94,220.6L216.53,42.362L218.13,203.87L219.72,223.39L221.32,214.7L222.91,159.51L224.51,40.737L226.11,251.27L227.7,265.4L229.3,270.99L230.89,268.18L232.49,277.91L234.08,40.725L235.68,259.89L237.28,267.13L238.87,267.89L240.47,223.76L242.06,248.31L243.66,40.32L245.25,247.09L246.85,226.08L248.45,259.46L250.04,260.47L251.64,270.1L253.23,40.211L254.83,259.92L256.42,207.3L258.02,259.88L259.61,268.34L261.21,275.13L262.81,39.782L264.4,263.39L266,255.21L267.59,268.17L269.19,261.45L270.78,269.9L272.38,39.512L273.98,236.92L275.57,259.39L277.17,269.13L278.76,258.26L280.36,263.9L281.95,39.228L283.55,251.04L285.15,262.68L286.74,272.49L288.34,266.5L289.93,271.57L291.53,39.108L293.12,259.86L294.72,266.75L296.31,258.67L297.91,260.01L299.51,270.34L301.1,38.934L302.7,257.22L304.29,263.49L305.89,249.94L307.48,208.72L309.08,268.81L310.68,38.898L312.27,206.84L313.87,268.5L315.46,259.62L317.06,262.98L318.65,197.88L320.25,38.881L321.85,198.41L323.44,253.72L325.04,270.33L326.63,263.35L328.23,267.31L329.82,39.205L331.42,181.11L333.01,230.12L334.61,264.11L336.21,237.25L337.8,258L339.4,38.886L340.99,266.09L342.59,268.84L344.18,275.06L345.78,266.83L347.38,274.15L348.97,38.936L350.57,261L352.16,269.33L353.76,263.04L355.35,260.06L356.95,269.93L358.55,38.916L360.14,260.26L361.74,252.64L363.33,273.46L364.93,259.54L366.52,267.72L368.12,38.782L369.71,255.27L371.31,266.68L372.91,261.99L374.5,263.35L376.1,264.28L377.69,38.768L379.29,251.9L380.88,262.81L382.48,262.31L384.08,266.64L385.67,211.28L387.27,38.48L388.86,259.71L390.46,256.96L392.05,230.92L393.65,266.39L395.25,262.06L396.84,38.535L398.44,255.23L400.03,245.98L401.31,266.4" style="fill:none;stroke:#F15A60" />
<path d="M405.2,277.58L425.2,277.58" style="fill:none;stroke:#F15A60" />
<text x="350.88" y="-271.91" transform="scale(1, -1)"
	style="font-family:Times;font-weight:normal;font-style:normal;font-size:12px">batch-5mb</text>
</g>
</svg>
