<?xml version="1.0"?>
<!-- Generated by SVGo and Plotinum VG -->
<svg width="425.2pt" height="283.46pt" viewBox="0 0 425.2 283.46"
	xmlns="http://www.w3.org/2000/svg"
	xmlns:xlink="http://www.w3.org/1999/xlink">
<g transform="scale(1, -1) translate(0, -283.46)">
<path d="M0,0L425.2,0L425.2,283.46L0,283.46Z" style="fill:#FFFFFF" />
<text x="209.73" y="-3.8613" transform="scale(1, -1)"
	style="font-family:Times;font-weight:normal;font-style:normal;font-size:12px">database size</text>
<text x="65.244" y="-15.602" transform="scale(1, -1)"
	style="font-family:Times;font-weight:normal;font-style:normal;font-size:10px">4.00 mb</text>
<text x="140.51" y="-15.602" transform="scale(1, -1)"
	style="font-family:Times;font-weight:normal;font-style:normal;font-size:10px">260.00 mb</text>
<text x="220.77" y="-15.602" transform="scale(1, -1)"
	style="font-family:Times;font-weight:normal;font-style:normal;font-size:10px">516.00 mb</text>
<text x="301.03" y="-15.602" transform="scale(1, -1)"
	style="font-family:Times;font-weight:normal;font-style:normal;font-size:10px">772.00 mb</text>
<text x="377.42" y="-15.602" transform="scale(1, -1)"
	style="font-family:Times;font-weight:normal;font-style:normal;font-size:10px">1023.63 mb</text>
<path d="M81.634,25.23L81.634,33.23" style="fill:none;stroke:#000000;stroke-width:0.5" />
<path d="M161.89,25.23L161.89,33.23" style="fill:none;stroke:#000000;stroke-width:0.5" />
<path d="M242.16,25.23L242.16,33.23" style="fill:none;stroke:#000000;stroke-width:0.5" />
<path d="M322.42,25.23L322.42,33.23" style="fill:none;stroke:#000000;stroke-width:0.5" />
<path d="M401.31,25.23L401.31,33.23" style="fill:none;stroke:#000000;stroke-width:0.5" />
<path d="M81.114,33.23L401.31,33.23" style="fill:none;stroke:#000000;stroke-width:0.5" />
<g transform="rotate(90)">
<text x="144.86" y="11.555" transform="scale(1, -1)"
	style="font-family:Times;font-weight:normal;font-style:normal;font-size:12px">speed</text>
</g>
<text x="15.416" y="-97.591" transform="scale(1, -1)"
	style="font-family:Times;font-weight:normal;font-style:normal;font-size:10px">256.00 mb/s</text>
<text x="15.416" y="-175.57" transform="scale(1, -1)"
	style="font-family:Times;font-weight:normal;font-style:normal;font-size:10px">288.00 mb/s</text>
<text x="15.416" y="-253.55" transform="scale(1, -1)"
	style="font-family:Times;font-weight:normal;font-style:normal;font-size:10px">320.00 mb/s</text>
<text x="15.416" y="-273.84" transform="scale(1, -1)"
	style="font-family:Times;font-weight:normal;font-style:normal;font-size:10px">328.32 mb/s</text>
<path d="M67.364,102.31L75.364,102.31" style="fill:none;stroke:#000000;stroke-width:0.5" />
<path d="M67.364,180.29L75.364,180.29" style="fill:none;stroke:#000000;stroke-width:0.5" />
<path d="M67.364,258.27L75.364,258.27" style="fill:none;stroke:#000000;stroke-width:0.5" />
<path d="M67.364,278.56L75.364,278.56" style="fill:none;stroke:#000000;stroke-width:0.5" />
<path d="M75.364,38.48L75.364,278.56" style="fill:none;stroke:#000000;stroke-width:0.5" />
<path d="M81.114,38.48L81.849,227.31L82.584,230.16L83.319,268.93L84.053,244.02L84.788,234.63L85.523,248.55L86.258,249.33L86.993,240.42L87.728,251.14L88.462,237.9L89.197,252L89.932,262.47L90.667,223.84L91.402,246.27L92.136,232.62L92.871,243.47L93.606,245.91L94.341,232.92L95.076,245.12L95.81,239.75L96.545,273.6L97.28,250.53L98.015,249.39L98.75,246.22L99.485,253.4L100.22,250.05L100.95,248.37L101.69,237.78L102.42,248.71L103.16,268.48L103.89,245.66L104.63,230.49L105.36,247.36L106.1,253.07L106.83,244.57L107.57,235.28L108.3,248.82L109.04,245.25L109.77,249.15L110.51,244.97L111.24,237.71L111.98,218.25L112.71,252.47L113.45,252.6L114.18,246.29L114.92,246.06L115.65,229.61L116.39,261.99L117.12,243.96L117.85,253.02L118.59,247.16L119.32,241.7L120.06,248.38L120.79,248.66L121.53,251.25L122.26,252.1L123,267.92L123.73,254.28L124.47,241.17L125.2,248.98L125.94,240.85L126.67,206.6L127.41,230.71L128.14,227.7L128.88,242.2L129.61,269.83L130.35,249.93L131.08,248.14L131.82,244.88L132.55,245.8L133.29,247.68L134.02,247.19L134.76,249.46L135.49,244.69L136.23,269.11L136.96,251.31L137.69,251.76L138.43,250.14L139.16,234.96L139.9,235.8L140.63,251.24L141.37,242.47L142.1,251.43L142.84,272.79L143.57,246.45L144.31,250.37L145.04,246.87L145.78,245.12L146.51,251.81L147.25,226.61L147.98,248.11L148.72,246.12L149.45,269.26L150.19,222.56L150.92,248.1L151.66,236.81L152.39,242.51L153.13,234.66L153.86,248.37L154.6,244.62L155.33,252.85L156.06,275.74L156.8,246.77L157.53,240.62L158.27,233.08L159,233.47L159.74,233.76L160.47,244.2L161.21,246.1L161.94,254.65L162.68,274.78L163.41,246.97L164.15,251.67L164.88,260.37L165.62,246.46L166.35,242.01L167.09,254.09L167.82,233.88L168.56,244.35L169.29,274.75L170.03,249.36L170.76,231.06L171.5,252.65L172.23,234.22L172.97,248.54L173.7,243.53L174.44,232.02L175.17,232.62L175.9,250.29L176.64,244.64L177.37,245.53L178.11,234.73L178.84,254.22L179.58,242.01L180.31,248.96L181.05,233.54L181.78,229.21L182.52,265.49L183.25,244.51L183.99,244.57L184.72,247.94L185.46,251.13L186.19,245.86L186.93,248.07L187.66,223.16L188.4,246.24L189.13,272.51L189.87,251.69L190.6,214.99L191.34,258.5L192.07,251.82L192.81,254.99L193.54,239.44L194.27,257.27L195.01,230.03L195.74,265.77L196.48,252.37L197.21,249.41L197.95,244.78L198.68,240.51L199.42,249.09L200.15,248.26L200.89,230.01L201.62,237.5L202.36,267.13L203.09,241.51L203.83,251.27L204.56,248.13L205.3,230.1L206.03,246.27L206.77,249.28L207.5,254.06L208.24,250.73L208.97,244.68L209.71,227.78L210.44,245.4L211.18,236.98L211.91,219.51L212.65,244.44L213.38,249.62L214.11,226.12L214.85,265.9L215.58,235.4L216.32,248.73L217.05,245.99L217.79,235.11L218.52,241.8L219.26,242.63L219.99,246.18L220.73,231.36L221.46,260.06L222.2,240.65L222.93,232.14L223.67,242.04L224.4,248.38L225.14,238.18L225.87,239.56L226.61,243.48L227.34,255.67L228.08,276.34L228.81,251.74L229.55,246.75L230.28,246.37L231.02,249.08L231.75,246.77L232.49,249.14L233.22,248.58L233.95,233.83L234.69,265.5L235.42,233.2L236.16,242.88L236.89,253.34L237.63,244.79L238.36,228.59L239.1,253.4L239.83,254.45L240.57,242.01L241.3,272.32L242.04,253.4L242.77,248.75L243.51,249.51L244.24,250.15L244.98,244.39L245.71,251.51L246.45,249.33L247.18,251.39L247.92,269.7L248.65,236.76L249.39,249.85L250.12,234.73L250.86,237.67L251.59,237.01L252.32,254.04L253.06,239.22L253.79,244.88L254.53,258.63L255.26,246.54L256,233.14L256.73,250.29L257.47,232.78L258.2,248.17L258.94,250.99L259.67,243.73L260.41,240.49L261.14,260.72L261.88,253.27L262.61,249.71L263.35,243.66L264.08,243.88L264.82,254.75L265.55,252.49L266.29,231.88L267.02,246.24L267.76,272.74L268.49,253.41L269.23,236.66L269.96,233.38L270.7,242.36L271.43,234.13L272.16,236.45L272.9,246.6L273.63,245.52L274.37,268.53L275.1,233.95L275.84,245.6L276.57,223.55L277.31,249.05L278.04,246.05L278.78,231.23L279.51,251.9L280.25,231.02L280.98,273.26L281.72,253.21L282.45,235.27L283.19,249.14L283.92,253.41L284.66,241.6L285.39,245.94L286.13,249.55L286.86,241.38L287.6,257.57L288.33,257.07L289.07,238.47L289.8,245.52L290.54,250.72L291.27,248.95L292,251.91L292.74,245.89L293.47,241.77L294.21,278.56L294.94,241.19L295.68,241.54L296.41,245.42L297.15,251.59L297.88,242.98L298.62,251.19L299.35,233.25L300.09,246.44L300.82,266.13L301.56,249.06L302.29,252.74L303.03,255.5L303.76,251.26L304.5,241.67L305.23,221.6L305.97,244L306.7,253.59L307.44,249.99L308.17,242.29L308.91,239.37L309.64,243.5L310.37,243.03L311.11,245.82L311.84,245.31L312.58,239.49L313.31,239.56L314.05,243.99L314.78,262.44L315.52,230.32L316.25,244.33L316.99,240.83L317.72,248.21L318.46,248.44L319.19,239.74L319.93,250.71L320.66,250.73L321.4,259.74L322.13,248.18L322.87,235.93L323.6,245.75L324.34,246.84L325.07,250.36L325.81,237.81L326.54,248.6L327.28,247.52L328.01,272.66L328.75,251.96L329.48,252.71L330.21,250.15L330.95,234.13L331.68,246.45L332.42,232.36L333.15,253.07L333.89,254.48L334.62,269.55L335.36,233.73L336.09,242.96L336.83,251.92L337.56,246.33L338.3,254.54L339.03,238.09L339.77,252.08L340.5,274.1L341.24,246.66L341.97,243.44L342.71,251.74L343.44,252.94L344.18,238.04L344.91,250.19L345.65,249.96L346.38,248.67L347.12,266.79L347.85,247.92L348.59,251.01L349.32,234.56L350.05,232.34L350.79,251.55L351.52,252.26L352.26,252.86L352.99,256.53L353.73,242.05L354.46,269.64L355.2,247.8L355.93,248.81L356.67,220.59L357.4,240.45L358.14,239.41L358.87,241.45L359.61,248.14L360.34,226.57L361.08,267.77L361.81,248.07L362.55,236.99L363.28,243.69L364.02,238.21L364.75,230.1L365.49,237.53L366.22,244.08L366.96,247.11L367.69,262.97L368.42,247.82L369.16,248.54L369.89,251.38L370.63,250.54L371.36,249.13L372.1,233.78L372.83,240.29L373.57,249.63L374.3,272.93L375.04,251.88L375.77,252.03L376.51,252.91L377.24,239.99L377.98,235.39L378.71,244.13L379.45,238.68L380.18,239.7L380.92,262.88L381.65,246.11L382.39,240.31L383.12,239.85L383.86,240.21L384.59,256.98L385.33,253.8L386.06,229.85L386.8,245.15L387.53,276.08L388.26,249.85L389,250.1L389.73,241.54L390.47,250.86L391.2,233.41L391.94,245.35L392.67,215.39L393.41,235.56L394.14,271.14L394.88,246.11L395.61,212.78L396.35,243.77L397.08,250.51L397.82,243.49L398.55,247.65L399.29,246.92L400.02,250.02L400.76,263.73L401.31,230.34" style="fill:none;stroke:#F15A60" />
<path d="M405.2,277.58L425.2,277.58" style="fill:none;stroke:#F15A60" />
<text x="316.88" y="-271.91" transform="scale(1, -1)"
	style="font-family:Times;font-weight:normal;font-style:normal;font-size:12px">batch-100kb-notx</text>
</g>
</svg>
