<?xml version="1.0"?>
<!-- Generated by SVGo and Plotinum VG -->
<svg width="425.2pt" height="283.46pt" viewBox="0 0 425.2 283.46"
	xmlns="http://www.w3.org/2000/svg"
	xmlns:xlink="http://www.w3.org/1999/xlink">
<g transform="scale(1, -1) translate(0, -283.46)">
<path d="M0,0L425.2,0L425.2,283.46L0,283.46Z" style="fill:#FFFFFF" />
<text x="209.73" y="-3.8613" transform="scale(1, -1)"
	style="font-family:Times;font-weight:normal;font-style:normal;font-size:12px">database size</text>
<text x="65.244" y="-15.602" transform="scale(1, -1)"
	style="font-family:Times;font-weight:normal;font-style:normal;font-size:10px">4.00 mb</text>
<text x="140.51" y="-15.602" transform="scale(1, -1)"
	style="font-family:Times;font-weight:normal;font-style:normal;font-size:10px">260.00 mb</text>
<text x="220.77" y="-15.602" transform="scale(1, -1)"
	style="font-family:Times;font-weight:normal;font-style:normal;font-size:10px">516.00 mb</text>
<text x="301.03" y="-15.602" transform="scale(1, -1)"
	style="font-family:Times;font-weight:normal;font-style:normal;font-size:10px">772.00 mb</text>
<text x="377.42" y="-15.602" transform="scale(1, -1)"
	style="font-family:Times;font-weight:normal;font-style:normal;font-size:10px">1023.63 mb</text>
<path d="M81.634,25.23L81.634,33.23" style="fill:none;stroke:#000000;stroke-width:0.5" />
<path d="M161.89,25.23L161.89,33.23" style="fill:none;stroke:#000000;stroke-width:0.5" />
<path d="M242.16,25.23L242.16,33.23" style="fill:none;stroke:#000000;stroke-width:0.5" />
<path d="M322.42,25.23L322.42,33.23" style="fill:none;stroke:#000000;stroke-width:0.5" />
<path d="M401.31,25.23L401.31,33.23" style="fill:none;stroke:#000000;stroke-width:0.5" />
<path d="M81.114,33.23L401.31,33.23" style="fill:none;stroke:#000000;stroke-width:0.5" />
<g transform="rotate(90)">
<text x="144.86" y="11.555" transform="scale(1, -1)"
	style="font-family:Times;font-weight:normal;font-style:normal;font-size:12px">speed</text>
</g>
<text x="15.416" y="-100.29" transform="scale(1, -1)"
	style="font-family:Times;font-weight:normal;font-style:normal;font-size:10px">256.00 mb/s</text>
<text x="15.416" y="-176.08" transform="scale(1, -1)"
	style="font-family:Times;font-weight:normal;font-style:normal;font-size:10px">288.00 mb/s</text>
<text x="15.416" y="-251.87" transform="scale(1, -1)"
	style="font-family:Times;font-weight:normal;font-style:normal;font-size:10px">320.00 mb/s</text>
<text x="15.416" y="-273.84" transform="scale(1, -1)"
	style="font-family:Times;font-weight:normal;font-style:normal;font-size:10px">329.27 mb/s</text>
<path d="M67.364,105.01L75.364,105.01" style="fill:none;stroke:#000000;stroke-width:0.5" />
<path d="M67.364,180.8L75.364,180.8" style="fill:none;stroke:#000000;stroke-width:0.5" />
<path d="M67.364,256.59L75.364,256.59" style="fill:none;stroke:#000000;stroke-width:0.5" />
<path d="M67.364,278.56L75.364,278.56" style="fill:none;stroke:#000000;stroke-width:0.5" />
<path d="M75.364,38.48L75.364,278.56" style="fill:none;stroke:#000000;stroke-width:0.5" />
<path d="M81.114,38.48L81.849,227.03L82.584,245.4L83.319,275.14L84.053,250.36L84.788,243.98L85.523,242.57L86.258,247.93L86.993,237L87.728,250.29L88.462,250.65L89.197,278.56L89.932,248.91L90.667,250.51L91.402,250.52L92.136,228.75L92.871,245.68L93.606,232.82L94.341,238.61L95.076,272.07L95.81,250.34L96.545,232.12L97.28,245.6L98.015,234.75L98.75,232.52L99.485,206.49L100.22,236.85L100.95,265.19L101.69,239.82L102.42,236.72L103.16,246.5L103.89,251.75L104.63,254.26L105.36,247.36L106.1,273.65L106.83,248.61L107.57,254.33L108.3,251.14L109.04,256.54L109.77,249.95L110.51,249.3L111.24,243.04L111.98,275.96L112.71,243.86L113.45,250.28L114.18,250.23L114.92,236.3L115.65,249.68L116.39,243.58L117.12,237.96L117.85,268.03L118.59,242.15L119.32,250.96L120.06,255.44L120.79,249.74L121.53,246.93L122.26,253.83L123,250.4L123.73,267.9L124.47,244.79L125.2,225.11L125.94,237.6L126.67,236.28L127.41,236.25L128.14,225.41L128.88,235.41L129.61,247.47L130.35,233.76L131.08,236.48L131.82,223.91L132.55,236.82L133.29,247.08L134.02,237.95L134.76,240.2L135.49,264.46L136.23,246.73L136.96,248.17L137.69,234.8L138.43,237.38L139.16,245.17L139.9,248.16L140.63,250.69L141.37,271.17L142.1,228.03L142.84,237.81L143.57,245.8L144.31,249.99L145.04,246.63L145.78,248.13L146.51,226.55L147.25,270.7L147.98,228.35L148.72,244.76L149.45,254.05L150.19,256.85L150.92,257.37L151.66,251.94L152.39,241.02L153.13,268.65L153.86,232.88L154.6,233.09L155.33,252.94L156.06,248.7L156.8,247.37L157.53,253.99L158.27,250.23L159,271.42L159.74,252.82L160.47,250.3L161.21,232.41L161.94,240.11L162.68,250.86L163.41,222.58L164.15,233.96L164.88,270.42L165.62,249.4L166.35,247.76L167.09,244.32L167.82,232.38L168.56,245.24L169.29,253.93L170.03,237.35L170.76,250.97L171.5,270.92L172.23,240.17L172.97,236.53L173.7,239.42L174.44,240.13L175.17,257.15L175.9,239.93L176.64,251.46L177.37,253.93L178.11,224.83L178.84,248.47L179.58,245.81L180.31,230.47L181.05,234.95L181.78,223.92L182.52,242.16L183.25,271.06L183.99,234.45L184.72,228.85L185.46,241.47L186.19,243.99L186.93,242.08L187.66,244.24L188.4,246.48L189.13,268.47L189.87,245.18L190.6,246.59L191.34,248.61L192.07,224.02L192.81,251.4L193.54,232.07L194.27,247.3L195.01,274.61L195.74,232.4L196.48,246.85L197.21,248.33L197.95,252.43L198.68,251.78L199.42,242.71L200.15,239.1L200.89,246.66L201.62,267.34L202.36,247.19L203.09,249.26L203.83,256.74L204.56,256.08L205.3,251.37L206.03,235.85L206.77,253.25L207.5,273.16L208.24,248.39L208.97,238.14L209.71,239.99L210.44,232.06L211.18,251.29L211.91,235.38L212.65,237.63L213.38,269.65L214.11,244.27L214.85,232.55L215.58,226.9L216.32,246.64L217.05,243.84L217.79,247.91L218.52,240.3L219.26,263.03L219.99,248.87L220.73,232.66L221.46,251.14L222.2,229.96L222.93,236.05L223.67,220.88L224.4,238.51L225.14,258.53L225.87,215.97L226.61,237.55L227.34,253.84L228.08,244.27L228.81,241.32L229.55,245.1L230.28,250.14L231.02,250.09L231.75,260.48L232.49,243.26L233.22,221.44L233.95,239.22L234.69,243.22L235.42,253.48L236.16,232.51L236.89,248.84L237.63,270.17L238.36,230.76L239.1,226.79L239.83,237.29L240.57,239.4L241.3,252.11L242.04,246.24L242.77,244.55L243.51,275.7L244.24,237.39L244.98,251.76L245.71,250.16L246.45,246.78L247.18,245.26L247.92,227.17L248.65,246.13L249.39,254.62L250.12,235.79L250.86,245.82L251.59,253.85L252.32,249.17L253.06,251.68L253.79,240.87L254.53,238.26L255.26,254.41L256,276.43L256.73,258.3L257.47,255.76L258.2,245.51L258.94,235.01L259.67,240.17L260.41,241.64L261.14,232.35L261.88,259.28L262.61,241.92L263.35,246.02L264.08,233.47L264.82,238.28L265.55,250.03L266.29,251.73L267.02,246.6L267.76,273.68L268.49,250.65L269.23,244.48L269.96,245.79L270.7,228.43L271.43,246.86L272.16,229.51L272.9,242.03L273.63,265.47L274.37,249.84L275.1,249.76L275.84,234.85L276.57,221.17L277.31,250.63L278.04,245.92L278.78,249.06L279.51,276.2L280.25,254.06L280.98,253.93L281.72,244.3L282.45,237.54L283.19,231.27L283.92,245.18L284.66,226.98L285.39,243.73L286.13,261.61L286.86,252.16L287.6,247.53L288.33,250.93L289.07,250.59L289.8,245.29L290.54,244.73L291.27,231.97L292,273.8L292.74,230.08L293.47,242.89L294.21,233.23L294.94,247.95L295.68,235.85L296.41,248.6L297.15,240.65L297.88,270.13L298.62,248.03L299.35,248.03L300.09,228.87L300.82,244.32L301.56,226.91L302.29,243.45L303.03,246.45L303.76,272.09L304.5,236.8L305.23,237.4L305.97,238.97L306.7,246.13L307.44,230.08L308.17,245.7L308.91,231.89L309.64,270.03L310.37,237.69L311.11,249.81L311.84,226.92L312.58,244.78L313.31,252.88L314.05,241.28L314.78,253.71L315.52,251.8L316.25,261.76L316.99,238L317.72,252.64L318.46,246.23L319.19,248.54L319.93,233.51L320.66,250.49L321.4,248.57L322.13,271.47L322.87,243.96L323.6,232.28L324.34,248.98L325.07,251.4L325.81,234.97L326.54,254.03L327.28,236.99L328.01,266.73L328.75,228.32L329.48,239.39L330.21,241.33L330.95,234.79L331.68,241.8L332.42,250.54L333.15,252.36L333.89,272.59L334.62,247.29L335.36,238.06L336.09,237.43L336.83,244.65L337.56,247.26L338.3,234.08L339.03,247.33L339.77,264.71L340.5,246.28L341.24,236.77L341.97,227.71L342.71,248.9L343.44,236.92L344.18,230.3L344.91,240.97L345.65,259.68L346.38,246.49L347.12,218.87L347.85,244.96L348.59,234.18L349.32,242.67L350.05,233.84L350.79,244.18L351.52,246.58L352.26,274.58L352.99,243.12L353.73,234.67L354.46,228.27L355.2,251.29L355.93,244.48L356.67,237.15L357.4,232.42L358.14,273.61L358.87,229.81L359.61,248.13L360.34,232.47L361.08,239.14L361.81,250.55L362.55,230.24L363.28,240.36L364.02,269.55L364.75,238.81L365.49,245.43L366.22,243.65L366.96,228.37L367.69,220.1L368.42,250.02L369.16,246.31L369.89,236.26L370.63,263.97L371.36,241.95L372.1,251.66L372.83,244.34L373.57,224.2L374.3,218.28L375.04,244.42L375.77,242.33L376.51,265.09L377.24,235.08L377.98,235.71L378.71,247.7L379.45,243.53L380.18,243.98L380.92,252.08L381.65,243.78L382.39,257.75L383.12,250.55L383.86,244.88L384.59,253.92L385.33,240.03L386.06,227.24L386.8,248.04L387.53,242.89L388.26,263.09L389,243.54L389.73,232.72L390.47,243.66L391.2,240.28L391.94,219.02L392.67,246.65L393.41,228.01L394.14,228.47L394.88,248.57L395.61,239.76L396.35,242.49L397.08,248.06L397.82,237.85L398.55,244.91L399.29,248.81L400.02,245.23L400.76,278.5L401.31,217.3" style="fill:none;stroke:#F15A60" />
<path d="M405.2,277.58L425.2,277.58" style="fill:none;stroke:#F15A60" />
<text x="342.21" y="-271.91" transform="scale(1, -1)"
	style="font-family:Times;font-weight:normal;font-style:normal;font-size:12px">batch-100kb</text>
</g>
</svg>
