<?xml version="1.0"?>
<!-- Generated by SVGo and Plotinum VG -->
<svg width="425.2pt" height="283.46pt" viewBox="0 0 425.2 283.46"
	xmlns="http://www.w3.org/2000/svg"
	xmlns:xlink="http://www.w3.org/1999/xlink">
<g transform="scale(1, -1) translate(0, -283.46)">
<path d="M0,0L425.2,0L425.2,283.46L0,283.46Z" style="fill:#FFFFFF" />
<text x="207.23" y="-3.8613" transform="scale(1, -1)"
	style="font-family:Times;font-weight:normal;font-style:normal;font-size:12px">database size</text>
<text x="60.252" y="-15.602" transform="scale(1, -1)"
	style="font-family:Times;font-weight:normal;font-style:normal;font-size:10px">4.00 mb</text>
<text x="136.77" y="-15.602" transform="scale(1, -1)"
	style="font-family:Times;font-weight:normal;font-style:normal;font-size:10px">260.00 mb</text>
<text x="218.28" y="-15.602" transform="scale(1, -1)"
	style="font-family:Times;font-weight:normal;font-style:normal;font-size:10px">516.00 mb</text>
<text x="299.79" y="-15.602" transform="scale(1, -1)"
	style="font-family:Times;font-weight:normal;font-style:normal;font-size:10px">772.00 mb</text>
<text x="377.42" y="-15.602" transform="scale(1, -1)"
	style="font-family:Times;font-weight:normal;font-style:normal;font-size:10px">1023.63 mb</text>
<path d="M76.642,25.23L76.642,33.23" style="fill:none;stroke:#000000;stroke-width:0.5" />
<path d="M158.16,25.23L158.16,33.23" style="fill:none;stroke:#000000;stroke-width:0.5" />
<path d="M239.67,25.23L239.67,33.23" style="fill:none;stroke:#000000;stroke-width:0.5" />
<path d="M321.18,25.23L321.18,33.23" style="fill:none;stroke:#000000;stroke-width:0.5" />
<path d="M401.31,25.23L401.31,33.23" style="fill:none;stroke:#000000;stroke-width:0.5" />
<path d="M76.114,33.23L401.31,33.23" style="fill:none;stroke:#000000;stroke-width:0.5" />
<g transform="rotate(90)">
<text x="144.86" y="11.555" transform="scale(1, -1)"
	style="font-family:Times;font-weight:normal;font-style:normal;font-size:12px">speed</text>
</g>
<text x="15.416" y="-55.144" transform="scale(1, -1)"
	style="font-family:Times;font-weight:normal;font-style:normal;font-size:10px">16.00 mb/s</text>
<text x="15.416" y="-124.47" transform="scale(1, -1)"
	style="font-family:Times;font-weight:normal;font-style:normal;font-size:10px">32.00 mb/s</text>
<text x="15.416" y="-193.8" transform="scale(1, -1)"
	style="font-family:Times;font-weight:normal;font-style:normal;font-size:10px">48.00 mb/s</text>
<text x="15.416" y="-263.12" transform="scale(1, -1)"
	style="font-family:Times;font-weight:normal;font-style:normal;font-size:10px">64.00 mb/s</text>
<text x="15.416" y="-273.84" transform="scale(1, -1)"
	style="font-family:Times;font-weight:normal;font-style:normal;font-size:10px">66.47 mb/s</text>
<path d="M62.364,59.866L70.364,59.866" style="fill:none;stroke:#000000;stroke-width:0.5" />
<path d="M62.364,129.19L70.364,129.19" style="fill:none;stroke:#000000;stroke-width:0.5" />
<path d="M62.364,198.52L70.364,198.52" style="fill:none;stroke:#000000;stroke-width:0.5" />
<path d="M62.364,267.84L70.364,267.84" style="fill:none;stroke:#000000;stroke-width:0.5" />
<path d="M62.364,278.56L70.364,278.56" style="fill:none;stroke:#000000;stroke-width:0.5" />
<path d="M70.364,38.48L70.364,278.56" style="fill:none;stroke:#000000;stroke-width:0.5" />
<path d="M76.114,278.56L76.861,220.09L77.607,194.83L78.353,194.88L79.099,194.18L79.846,181.07L80.592,181.02L81.338,194.64L82.085,160.99L82.831,174.03L83.577,155.59L84.323,178.63L85.07,176.25L85.816,146.72L86.562,163.76L87.309,168.76L88.055,138.84L88.801,160.42L89.547,172.13L90.294,166.49L91.04,163.79L91.786,122.53L92.533,160.38L93.279,162.37L94.025,159.45L94.771,145.29L95.518,109.47L96.264,150.29L97.01,153.9L97.757,153.97L98.503,142.05L99.249,146.07L99.995,149.04L100.74,103.37L101.49,135.13L102.23,133.04L102.98,141.11L103.73,144.54L104.47,143.17L105.22,130.69L105.97,131.09L106.71,94.348L107.46,145.6L108.2,144.95L108.95,134.24L109.7,138.24L110.44,143.91L111.19,145.23L111.94,144.74L112.68,142.2L113.43,144.63L114.17,108.47L114.92,120.87L115.67,130.89L116.41,136.6L117.16,132.36L117.91,133.37L118.65,135.8L119.4,132.73L120.15,133.69L120.89,132.3L121.64,130.53L122.38,133.25L123.13,132.6L123.88,97.113L124.62,129.82L125.37,131.92L126.12,129.58L126.86,130.92L127.61,127.67L128.35,128.74L129.1,131.08L129.85,129.12L130.59,129.44L131.34,126.52L132.09,126.77L132.83,125.76L133.58,126.36L134.32,126.47L135.07,126.18L135.82,70.397L136.56,124.99L137.31,131.05L138.06,129.88L138.8,131.23L139.55,130.42L140.29,125.64L141.04,120.3L141.79,115.57L142.53,122.26L143.28,123.91L144.03,123.4L144.77,123.22L145.52,122.77L146.26,120.79L147.01,115.08L147.76,121.07L148.5,126.47L149.25,127.87L150,127.37L150.74,126.08L151.49,78.154L152.24,117.25L152.98,118.2L153.73,118.28L154.47,117.92L155.22,116.78L155.97,118.73L156.71,117.45L157.46,116.91L158.21,116.23L158.95,115.86L159.7,115.48L160.44,113.09L161.19,114.92L161.94,115.19L162.68,109.67L163.43,113.14L164.18,114.34L164.92,113.22L165.67,112.84L166.41,113.81L167.16,113.22L167.91,112.63L168.65,113.62L169.4,111.19L170.15,52.57L170.89,119.1L171.64,121.48L172.38,118.69L173.13,112.2L173.88,113.01L174.62,120.03L175.37,119.69L176.12,118.16L176.86,108.5L177.61,104.12L178.36,110.79L179.1,119.05L179.85,119.72L180.59,119.04L181.34,108.93L182.09,114.95L182.83,119.4L183.58,117.91L184.33,116.87L185.07,114.3L185.82,114.89L186.56,115.63L187.31,114.19L188.06,115.22L188.8,116.48L189.55,115.13L190.3,115.79L191.04,116.04L191.79,113.7L192.53,251.14L193.28,256.23L194.03,236.11L194.77,217.92L195.52,208.99L196.27,199.73L197.01,204.1L197.76,196.13L198.5,178.22L199.25,179.48L200,163.35L200.74,173.84L201.49,177.12L202.24,155.47L202.98,170.02L203.73,172.45L204.48,150.46L205.22,160.42L205.97,170.29L206.71,162.53L207.46,162.74L208.21,133.16L208.95,152.02L209.7,157.81L210.45,160.67L211.19,156.4L211.94,124.02L212.68,148.48L213.43,147.79L214.18,144.7L214.92,144.18L215.67,143.11L216.42,142.65L217.16,110.56L217.91,66.986L218.65,143.72L219.4,142.98L220.15,142.04L220.89,143.96L221.64,140.48L222.39,137.38L223.13,113.36L223.88,145.75L224.62,147.32L225.37,146.81L226.12,146.77L226.86,143.42L227.61,142.74L228.36,140.93L229.1,144.61L229.85,143.58L230.6,108.97L231.34,137.72L232.09,139.82L232.83,140.44L233.58,134.29L234.33,138.68L235.07,139.38L235.82,138.01L236.57,137.99L237.31,140.12L238.06,133.99L238.8,135.62L239.55,131.4L240.3,55.483L241.04,126.07L241.79,119.17L242.54,114.48L243.28,122.61L244.03,121.03L244.77,122.86L245.52,124.06L246.27,120.86L247.01,120.89L247.76,120.72L248.51,120.33L249.25,117.48L250,119.08L250.74,114.03L251.49,120.3L252.24,38.48L252.98,112.55L253.73,118.04L254.48,112.8L255.22,107.33L255.97,116.48L256.72,116.11L257.46,116.69L258.21,117.7L258.95,116.97L259.7,114.69L260.45,115.23L261.19,115.04L261.94,118.3L262.69,114.75L263.43,115.56L264.18,117.2L264.92,113.93L265.67,113.99L266.42,117.71L267.16,112.1L267.91,39.547L268.66,113.54L269.4,111.87L270.15,114.43L270.89,115.73L271.64,115.88L272.39,115.72L273.13,114.62L273.88,115.47L274.63,115.42L275.37,115.09L276.12,115.75L276.86,114.62L277.61,114.21L278.36,113.02L279.1,114.15L279.85,112.2L280.6,106.58L281.34,104.15L282.09,98.317L282.84,73.266L283.58,96.136L284.33,106.05L285.07,109.92L285.82,105.79L286.57,68.239L287.31,114.8L288.06,113.3L288.81,115.4L289.55,110.05L290.3,111.53L291.04,114.12L291.79,112.43L292.54,111.32L293.28,110.33L294.03,105.28L294.78,106.61L295.52,111.41L296.27,110.24L297.01,110.54L297.76,112.7L298.51,109.07L299.25,112.89L300,106.46L300.75,106.01L301.49,112.52L302.24,111.2L302.98,108.8L303.73,111.12L304.48,98.816L305.22,109.44L305.97,113.14L306.72,110.27L307.46,108.84L308.21,112.92L308.95,181.38L309.7,255.74L310.45,246.45L311.19,231.7L311.94,221.78L312.69,211.8L313.43,205.46L314.18,204.78L314.93,187.9L315.67,197.82L316.42,178.54L317.16,185.14L317.91,190.03L318.66,164.43L319.4,179.73L320.15,179.71L320.9,159.72L321.64,159.98L322.39,169.79L323.13,172.69L323.88,168.3L324.63,138.45L325.37,165.16L326.12,163.02L326.87,162.58L327.61,158.35L328.36,128.11L329.1,147.01L329.85,149.58L330.6,146.44L331.34,146.87L332.09,144.47L332.84,141.57L333.58,114.64L334.33,75.077L335.07,148.41L335.82,150.71L336.57,150.88L337.31,139.92L338.06,138.64L338.81,146.74L339.55,112.58L340.3,142.26L341.05,142.64L341.79,143.95L342.54,142.32L343.28,141.47L344.03,135.89L344.78,139.58L345.52,137.7L346.27,128.53L347.02,104.19L347.76,131.18L348.51,130.23L349.25,125.07L350,128.58L350.75,130.07L351.49,130.68L352.24,130.71L352.99,130.32L353.73,126.67L354.48,127.29L355.22,127.2L355.97,124.65L356.72,55.405L357.46,114.02L358.21,121.3L358.96,116.3L359.7,116L360.45,122.22L361.19,118.47L361.94,117.78L362.69,119.19L363.43,117.18L364.18,119.49L364.93,115.97L365.67,114.1L366.42,115.72L367.17,90.823L367.91,118.11L368.66,54.293L369.4,108.04L370.15,107.43L370.9,106.96L371.64,107.66L372.39,107.47L373.14,103.81L373.88,100.78L374.63,105.54L375.37,97.148L376.12,86.282L376.87,101.04L377.61,97.56L378.36,100.23L379.11,102.08L379.85,103.11L380.6,95.846L381.34,102.74L382.09,101.58L382.84,102.4L383.58,104.14L384.33,77.965L385.08,117.26L385.82,118.42L386.57,118.34L387.31,115.44L388.06,115.9L388.81,116.68L389.55,117.41L390.3,116.6L391.05,114.57L391.79,110.44L392.54,113.86L393.29,111.07L394.03,111.6L394.78,114.66L395.52,115.24L396.27,106.81L397.02,109.65L397.76,110.31L398.51,110.92L399.26,114.64L400,114.32L400.75,112.57L401.31,114.97" style="fill:none;stroke:#F15A60" />
<path d="M405.2,277.58L425.2,277.58" style="fill:none;stroke:#F15A60" />
<text x="194.93" y="-271.91" transform="scale(1, -1)"
	style="font-family:Times;font-weight:normal;font-style:normal;font-size:12px">batch-100kb-wb-512mb-cache-1gb-nosync</text>
</g>
</svg>
