<?xml version="1.0"?>
<!-- Generated by SVGo and Plotinum VG -->
<svg width="425.2pt" height="283.46pt" viewBox="0 0 425.2 283.46"
	xmlns="http://www.w3.org/2000/svg"
	xmlns:xlink="http://www.w3.org/1999/xlink">
<g transform="scale(1, -1) translate(0, -283.46)">
<path d="M0,0L425.2,0L425.2,283.46L0,283.46Z" style="fill:#FFFFFF" />
<text x="207.23" y="-3.8613" transform="scale(1, -1)"
	style="font-family:Times;font-weight:normal;font-style:normal;font-size:12px">database size</text>
<text x="60.221" y="-15.602" transform="scale(1, -1)"
	style="font-family:Times;font-weight:normal;font-style:normal;font-size:10px">4.00 mb</text>
<text x="136.74" y="-15.602" transform="scale(1, -1)"
	style="font-family:Times;font-weight:normal;font-style:normal;font-size:10px">260.00 mb</text>
<text x="218.26" y="-15.602" transform="scale(1, -1)"
	style="font-family:Times;font-weight:normal;font-style:normal;font-size:10px">516.00 mb</text>
<text x="299.79" y="-15.602" transform="scale(1, -1)"
	style="font-family:Times;font-weight:normal;font-style:normal;font-size:10px">772.00 mb</text>
<text x="377.42" y="-15.602" transform="scale(1, -1)"
	style="font-family:Times;font-weight:normal;font-style:normal;font-size:10px">1023.64 mb</text>
<path d="M76.61,25.23L76.61,33.23" style="fill:none;stroke:#000000;stroke-width:0.5" />
<path d="M158.13,25.23L158.13,33.23" style="fill:none;stroke:#000000;stroke-width:0.5" />
<path d="M239.65,25.23L239.65,33.23" style="fill:none;stroke:#000000;stroke-width:0.5" />
<path d="M321.18,25.23L321.18,33.23" style="fill:none;stroke:#000000;stroke-width:0.5" />
<path d="M401.31,25.23L401.31,33.23" style="fill:none;stroke:#000000;stroke-width:0.5" />
<path d="M76.114,33.23L401.31,33.23" style="fill:none;stroke:#000000;stroke-width:0.5" />
<g transform="rotate(90)">
<text x="144.86" y="11.555" transform="scale(1, -1)"
	style="font-family:Times;font-weight:normal;font-style:normal;font-size:12px">speed</text>
</g>
<text x="20.416" y="-33.813" transform="scale(1, -1)"
	style="font-family:Times;font-weight:normal;font-style:normal;font-size:10px">1.00 mb/s</text>
<text x="15.416" y="-103.18" transform="scale(1, -1)"
	style="font-family:Times;font-weight:normal;font-style:normal;font-size:10px">17.00 mb/s</text>
<text x="15.416" y="-172.54" transform="scale(1, -1)"
	style="font-family:Times;font-weight:normal;font-style:normal;font-size:10px">33.00 mb/s</text>
<text x="15.416" y="-241.9" transform="scale(1, -1)"
	style="font-family:Times;font-weight:normal;font-style:normal;font-size:10px">49.00 mb/s</text>
<text x="15.416" y="-273.84" transform="scale(1, -1)"
	style="font-family:Times;font-weight:normal;font-style:normal;font-size:10px">56.37 mb/s</text>
<path d="M62.364,38.534L70.364,38.534" style="fill:none;stroke:#000000;stroke-width:0.5" />
<path d="M62.364,107.9L70.364,107.9" style="fill:none;stroke:#000000;stroke-width:0.5" />
<path d="M62.364,177.26L70.364,177.26" style="fill:none;stroke:#000000;stroke-width:0.5" />
<path d="M62.364,246.62L70.364,246.62" style="fill:none;stroke:#000000;stroke-width:0.5" />
<path d="M62.364,278.56L70.364,278.56" style="fill:none;stroke:#000000;stroke-width:0.5" />
<path d="M70.364,38.48L70.364,278.56" style="fill:none;stroke:#000000;stroke-width:0.5" />
<path d="M76.114,201.19L76.892,212.08L77.669,228.35L78.447,241.72L79.225,235.27L80.002,245.19L80.78,246.37L81.557,237.21L82.335,238.34L83.113,240.85L83.89,233.79L84.668,154.82L85.445,236.15L86.223,238.63L87.001,243.25L87.778,242.36L88.556,235.57L89.334,237.09L90.111,237.76L90.889,129.6L91.666,234.21L92.444,238.87L93.222,241.29L93.999,62.976L94.777,236.65L95.554,239.41L96.332,239.68L97.11,243.8L97.887,251.93L98.665,244.06L99.442,253.65L100.22,237.34L101,242.32L101.78,232L102.55,239.87L103.33,242.88L104.11,241.73L104.89,235.62L105.66,94.827L106.44,232.34L107.22,216.92L108,238.54L108.77,238.25L109.55,68.821L110.33,240.98L111.11,239.11L111.88,244.98L112.66,239L113.44,74.63L114.22,51.431L114.99,243.95L115.77,244.97L116.55,221.44L117.33,247.24L118.1,241.9L118.88,48.03L119.66,238.13L120.44,244.53L121.22,237.52L121.99,244.02L122.77,216.06L123.55,237.52L124.33,246.04L125.1,46.466L125.88,244.39L126.66,239.5L127.44,242.56L128.21,229.85L128.99,251.06L129.77,244.06L130.55,228.78L131.32,234.58L132.1,44.145L132.88,228.71L133.66,238.5L134.43,240.63L135.21,229.48L135.99,219.9L136.77,234.13L137.54,242.82L138.32,228.66L139.1,201.94L139.88,43.085L140.66,227.65L141.43,244.53L142.21,237.11L142.99,244.19L143.77,238.25L144.54,247.23L145.32,236.42L146.1,244.24L146.88,249.54L147.65,242.39L148.43,42.623L149.21,231.8L149.99,240.35L150.76,239.02L151.54,238.11L152.32,202.7L153.1,232.39L153.87,245.75L154.65,226.77L155.43,205.49L156.21,42.171L156.98,232.68L157.76,245.22L158.54,240.65L159.32,244.07L160.1,235.42L160.87,242.16L161.65,245.55L162.43,249.71L163.21,239.84L163.98,245.05L164.76,41.97L165.54,239.91L166.32,237.77L167.09,245.19L167.87,238.49L168.65,243.68L169.43,226.81L170.2,239.75L170.98,218.89L171.76,242.28L172.54,40.936L173.31,236.74L174.09,231.88L174.87,241.74L175.65,222.23L176.43,232.81L177.2,237.42L177.98,242.51L178.76,247.97L179.54,239.55L180.31,246.07L181.09,40.785L181.87,231.5L182.65,224.33L183.42,242.88L184.2,238.59L184.98,193.4L185.76,154.26L186.53,232.21L187.31,219.22L188.09,238.55L188.87,40.312L189.64,244.32L190.42,232.33L191.2,243.93L191.98,242.81L192.75,231.22L193.53,239.18L194.31,222.33L195.09,242.73L195.87,247.19L196.64,242.65L197.42,40.627L198.2,241.78L198.98,240.01L199.75,219.75L200.53,237.38L201.31,242.2L202.09,231.76L202.86,230.61L203.64,211.28L204.42,232.64L205.2,40.647L205.97,243.03L206.75,246.43L207.53,239.03L208.31,242.53L209.08,238.71L209.86,238.02L210.64,245.9L211.42,244.37L212.19,241.2L212.97,242.26L213.75,40.183L214.53,233.17L215.31,242.61L216.08,224.01L216.86,237.84L217.64,235.43L218.42,242.03L219.19,209.04L219.97,243.35L220.75,241.28L221.53,40.207L222.3,238.9L223.08,242.91L223.86,239.41L224.64,244.61L225.41,243.35L226.19,235.08L226.97,249.41L227.75,227.02L228.52,238.77L229.3,239.85L230.08,40.194L230.86,234.3L231.63,246.06L232.41,247.83L233.19,240.63L233.97,246.6L234.75,246.09L235.52,216.79L236.3,237.56L237.08,243.64L237.86,145.52L238.63,239.08L239.41,240.19L240.19,248.42L240.97,239.29L241.74,238.01L242.52,231.78L243.3,243.44L244.08,243.6L244.85,241.08L245.63,233.28L246.41,240.5L247.19,62.425L247.96,245.75L248.74,238.24L249.52,238.13L250.3,237.72L251.07,233.55L251.85,126.5L252.63,59.187L253.41,236.94L254.19,250.37L254.96,244.14L255.74,51.758L256.52,247.33L257.3,228.68L258.07,243.03L258.85,236.78L259.63,241.66L260.41,246.01L261.18,54.502L261.96,240.18L262.74,247.69L263.52,240.23L264.29,232.78L265.07,46.152L265.85,229.94L266.63,240.75L267.4,214.74L268.18,242.36L268.96,234.49L269.74,44.631L270.51,242.94L271.29,236.73L272.07,224.77L272.85,237.8L273.63,244.37L274.4,227.52L275.18,237.66L275.96,42.965L276.74,210.85L277.51,239.98L278.29,244.67L279.07,236.73L279.85,236.29L280.62,218.63L281.4,244.45L282.18,237.16L282.96,237.31L283.73,42.394L284.51,234.24L285.29,238.31L286.07,236.44L286.84,238.7L287.62,224.35L288.4,232.5L289.18,245.09L289.95,230.53L290.73,41.718L291.51,241.06L292.29,247.3L293.07,240.98L293.84,240.5L294.62,233.65L295.4,242.17L296.18,241.96L296.95,231.77L297.73,240.76L298.51,235.82L299.29,41.391L300.06,189.25L300.84,144.97L301.62,211.1L302.4,225.06L303.17,188.29L303.95,210.74L304.73,220L305.51,212.72L306.28,249.75L307.06,40.73L307.84,217.34L308.62,228.09L309.4,242.94L310.17,234.39L310.95,222.49L311.73,240.94L312.51,231.68L313.28,231.88L314.06,228.52L314.84,242.52L315.62,38.764L316.39,213.88L317.17,229L317.95,239.79L318.73,235.42L319.5,238.4L320.28,236.59L321.06,233.48L321.84,235.69L322.61,234.79L323.39,38.918L324.17,220.92L324.95,238.6L325.72,211.16L326.5,244.59L327.28,225.81L328.06,236.23L328.84,242.26L329.61,242.71L330.39,231.7L331.17,243.69L331.95,38.655L332.72,235.3L333.5,238.24L334.28,239.34L335.06,235.54L335.83,243.51L336.61,230.4L337.39,232.86L338.17,248.86L338.94,242.67L339.72,38.614L340.5,233.45L341.28,231.22L342.05,227.21L342.83,245.21L343.61,232.51L344.39,234.61L345.16,237.55L345.94,230.34L346.72,232.26L347.5,230.65L348.28,38.5L349.05,228.24L349.83,231.03L350.61,242.87L351.39,241.75L352.16,246.47L352.94,233.5L353.72,242.13L354.5,241.91L355.27,245.13L356.05,38.767L356.83,230.81L357.61,214.72L358.38,235.48L359.16,222.7L359.94,236.74L360.72,244.36L361.49,232.24L362.27,213.77L363.05,242.44L363.83,217.17L364.6,38.583L365.38,228.86L366.16,233.01L366.94,227.66L367.72,227.85L368.49,227.46L369.27,239.84L370.05,247.11L370.83,234.27L371.6,237.36L372.38,38.739L373.16,233.82L373.94,236.28L374.71,241.14L375.49,242.88L376.27,234.52L377.05,243.38L377.82,247.83L378.6,243.88L379.38,245.38L380.16,38.844L380.93,239.24L381.71,238.95L382.49,243.29L383.27,237.36L384.04,242.9L384.82,242.98L385.6,235.38L386.38,236.73L387.16,242.08L387.93,237.71L388.71,38.735L389.49,218.68L390.27,238.38L391.04,218.82L391.82,246.38L392.6,247.04L393.38,241.22L394.15,237.6L394.93,241.16L395.71,242.78L396.49,38.48L397.26,237.74L398.04,242.15L398.82,239.31L399.6,234.99L400.37,224.36L401.15,197.99L401.31,278.56" style="fill:none;stroke:#F15A60" />
<path d="M405.2,277.58L425.2,277.58" style="fill:none;stroke:#F15A60" />
<text x="350.89" y="-271.91" transform="scale(1, -1)"
	style="font-family:Times;font-weight:normal;font-style:normal;font-size:12px">concurrent</text>
</g>
</svg>
