<?xml version="1.0"?>
<!-- Generated by SVGo and Plotinum VG -->
<svg width="425.2pt" height="283.46pt" viewBox="0 0 425.2 283.46"
	xmlns="http://www.w3.org/2000/svg"
	xmlns:xlink="http://www.w3.org/1999/xlink">
<g transform="scale(1, -1) translate(0, -283.46)">
<path d="M0,0L425.2,0L425.2,283.46L0,283.46Z" style="fill:#FFFFFF" />
<text x="207.23" y="-3.8613" transform="scale(1, -1)"
	style="font-family:Times;font-weight:normal;font-style:normal;font-size:12px">database size</text>
<text x="60.221" y="-15.602" transform="scale(1, -1)"
	style="font-family:Times;font-weight:normal;font-style:normal;font-size:10px">4.00 mb</text>
<text x="136.74" y="-15.602" transform="scale(1, -1)"
	style="font-family:Times;font-weight:normal;font-style:normal;font-size:10px">260.00 mb</text>
<text x="218.26" y="-15.602" transform="scale(1, -1)"
	style="font-family:Times;font-weight:normal;font-style:normal;font-size:10px">516.00 mb</text>
<text x="299.79" y="-15.602" transform="scale(1, -1)"
	style="font-family:Times;font-weight:normal;font-style:normal;font-size:10px">772.00 mb</text>
<text x="377.42" y="-15.602" transform="scale(1, -1)"
	style="font-family:Times;font-weight:normal;font-style:normal;font-size:10px">1023.64 mb</text>
<path d="M76.61,25.23L76.61,33.23" style="fill:none;stroke:#000000;stroke-width:0.5" />
<path d="M158.13,25.23L158.13,33.23" style="fill:none;stroke:#000000;stroke-width:0.5" />
<path d="M239.65,25.23L239.65,33.23" style="fill:none;stroke:#000000;stroke-width:0.5" />
<path d="M321.18,25.23L321.18,33.23" style="fill:none;stroke:#000000;stroke-width:0.5" />
<path d="M401.31,25.23L401.31,33.23" style="fill:none;stroke:#000000;stroke-width:0.5" />
<path d="M76.114,33.23L401.31,33.23" style="fill:none;stroke:#000000;stroke-width:0.5" />
<g transform="rotate(90)">
<text x="144.86" y="11.555" transform="scale(1, -1)"
	style="font-family:Times;font-weight:normal;font-style:normal;font-size:12px">speed</text>
</g>
<text x="20.416" y="-33.826" transform="scale(1, -1)"
	style="font-family:Times;font-weight:normal;font-style:normal;font-size:10px">1.00 mb/s</text>
<text x="15.416" y="-99.887" transform="scale(1, -1)"
	style="font-family:Times;font-weight:normal;font-style:normal;font-size:10px">17.00 mb/s</text>
<text x="15.416" y="-165.95" transform="scale(1, -1)"
	style="font-family:Times;font-weight:normal;font-style:normal;font-size:10px">33.00 mb/s</text>
<text x="15.416" y="-232.01" transform="scale(1, -1)"
	style="font-family:Times;font-weight:normal;font-style:normal;font-size:10px">49.00 mb/s</text>
<text x="15.416" y="-273.84" transform="scale(1, -1)"
	style="font-family:Times;font-weight:normal;font-style:normal;font-size:10px">59.13 mb/s</text>
<path d="M62.364,38.548L70.364,38.548" style="fill:none;stroke:#000000;stroke-width:0.5" />
<path d="M62.364,104.61L70.364,104.61" style="fill:none;stroke:#000000;stroke-width:0.5" />
<path d="M62.364,170.67L70.364,170.67" style="fill:none;stroke:#000000;stroke-width:0.5" />
<path d="M62.364,236.73L70.364,236.73" style="fill:none;stroke:#000000;stroke-width:0.5" />
<path d="M62.364,278.56L70.364,278.56" style="fill:none;stroke:#000000;stroke-width:0.5" />
<path d="M70.364,38.48L70.364,278.56" style="fill:none;stroke:#000000;stroke-width:0.5" />
<path d="M76.114,193.43L76.892,231.25L77.669,230.5L78.447,234.73L79.225,215.18L80.002,208.68L80.78,235.3L81.557,242.02L82.335,234.81L83.113,225.47L83.89,231.28L84.668,227.25L85.445,229.47L86.223,244.4L87.001,235.54L87.778,234.73L88.556,235.83L89.334,237.25L90.111,156.43L90.889,209.84L91.666,244.41L92.444,228.06L93.222,63.806L93.999,225.75L94.777,233.85L95.554,230.06L96.332,232.96L97.11,232.39L97.887,234.43L98.665,237.9L99.442,239.56L100.22,239.16L101,232.15L101.78,240.13L102.55,237.38L103.33,233.41L104.11,233.36L104.89,84.856L105.66,229.74L106.44,237.81L107.22,210.75L108,235.04L108.77,66.209L109.55,226.99L110.33,238.15L111.11,234.5L111.88,232.97L112.66,72.681L113.44,50.418L114.22,208.8L114.99,231.85L115.77,227.29L116.55,236.53L117.33,229.14L118.1,47.514L118.88,218.29L119.66,235.94L120.44,218.28L121.22,233.67L121.99,222.46L122.77,201.36L123.55,233.79L124.33,46.067L125.1,221.18L125.88,231.96L126.66,234.71L127.44,235.11L128.21,230.89L128.99,215.76L129.77,227.72L130.55,245.85L131.32,43.953L132.1,216.83L132.88,230.81L133.66,203.63L134.43,216.31L135.21,242.84L135.99,219.12L136.77,223.85L137.54,232.59L138.32,241.31L139.1,42.924L139.88,231.52L140.66,235.73L141.43,227.65L142.21,221.13L142.99,232.85L143.77,232.82L144.54,221.71L145.32,219.17L146.1,217.98L146.88,244.56L147.65,42.156L148.43,236.66L149.21,238.17L149.99,239.63L150.76,242.2L151.54,224.99L152.32,188L153.1,206.5L153.87,212.19L154.65,227.1L155.43,41.871L156.21,220.78L156.98,214.73L157.76,227.83L158.54,226.89L159.32,234.45L160.1,230.51L160.87,239.48L161.65,213.57L162.43,239.58L163.21,231.6L163.98,40.922L164.76,215.71L165.54,232.79L166.32,237.32L167.09,237.46L167.87,227.96L168.65,228.28L169.43,217.9L170.2,233.68L170.98,224.96L171.76,41.054L172.54,224.24L173.31,231.89L174.09,216.8L174.87,235.18L175.65,223.97L176.43,229.1L177.2,228.74L177.98,232.88L178.76,232.17L179.54,225.34L180.31,40.948L181.09,222.82L181.87,242.03L182.65,236.12L183.42,233.48L184.2,230.93L184.98,230.95L185.76,229.26L186.53,229.26L187.31,195.94L188.09,40.928L188.87,235.47L189.64,240.08L190.42,220.56L191.2,236.5L191.98,231.68L192.75,229.73L193.53,229.13L194.31,229.6L195.09,237.19L195.87,236.97L196.64,40.159L197.42,228L198.2,244.75L198.98,225.21L199.75,232.26L200.53,222.12L201.31,237.02L202.09,234.47L202.86,233.59L203.64,167.07L204.42,40.48L205.2,216.92L205.97,232L206.75,228.54L207.53,212.04L208.31,232.15L209.08,236.34L209.86,231.67L210.64,233.09L211.42,233.4L212.19,222.04L212.97,40.299L213.75,217.08L214.53,233.91L215.31,239.68L216.08,216.99L216.86,228.05L217.64,235.22L218.42,220.07L219.19,232.61L219.97,210.05L220.75,40.142L221.53,232.95L222.3,228.82L223.08,226.48L223.86,234.76L224.64,243.41L225.41,243.25L226.19,223.5L226.97,240.16L227.75,239.23L228.52,231.52L229.3,40.206L230.08,236.78L230.86,233.47L231.63,235.62L232.41,238.46L233.19,220.16L233.97,235.32L234.75,234.12L235.52,212.34L236.3,241.95L237.08,88.748L237.86,231.45L238.63,226.12L239.41,210.28L240.19,218.61L240.97,237.11L241.74,235.42L242.52,222.62L243.3,217.95L244.08,227.01L244.85,230.24L245.63,230.1L246.41,64.453L247.19,227.84L247.96,242.79L248.74,239.09L249.52,237.08L250.3,223.44L251.07,59.468L251.85,203.49L252.63,233.59L253.41,229.47L254.19,61.86L254.96,51.328L255.74,224.63L256.52,228.37L257.3,220.71L258.07,218.49L258.85,64.118L259.63,234.36L260.41,215.72L261.18,231.69L261.96,231.47L262.74,46.607L263.52,221.88L264.29,230.66L265.07,221.93L265.85,239.48L266.63,207.66L267.4,233.26L268.18,44.405L268.96,231L269.74,231.52L270.51,217.74L271.29,225.68L272.07,227.79L272.85,215.6L273.63,43.175L274.4,192.33L275.18,213.62L275.96,225.74L276.74,232.48L277.51,230.85L278.29,239.02L279.07,233.3L279.85,235.28L280.62,42.774L281.4,225.6L282.18,215.63L282.96,230.98L283.73,198.46L284.51,230.31L285.29,219.7L286.07,230.6L286.84,41.942L287.62,228.76L288.4,234.45L289.18,225.68L289.95,231.49L290.73,228.45L291.51,222.41L292.29,233.08L293.07,237.59L293.84,209.52L294.62,41.42L295.4,227.75L296.18,234.85L296.95,217.02L297.73,224.47L298.51,234.84L299.29,224.49L300.06,190.9L300.84,233.15L301.62,41.231L302.4,225.14L303.17,237.33L303.95,227.08L304.73,234.48L305.51,232.69L306.28,229.41L307.06,230.42L307.84,229.48L308.62,233.01L309.4,228.11L310.17,39.947L310.95,192.65L311.73,223.14L312.51,204.52L313.28,236.16L314.06,231.14L314.84,209.27L315.62,229.22L316.39,205.31L317.17,229.96L317.95,38.71L318.73,238.41L319.5,233.5L320.28,234.29L321.06,223.67L321.84,229.35L322.61,221.99L323.39,220.51L324.17,220.03L324.95,225.8L325.72,210.59L326.5,38.722L327.28,223.27L328.06,232.56L328.84,237.25L329.61,229.74L330.39,217.08L331.17,214.24L331.95,231.48L332.72,200.24L333.5,221.08L334.28,38.73L335.06,223.08L335.83,231L336.61,225.61L337.39,233.1L338.17,237.73L338.94,233.54L339.72,207.3L340.5,227.17L341.28,229.94L342.05,212.2L342.83,38.48L343.61,228.6L344.39,217.4L345.16,231.29L345.94,234.19L346.72,232.96L347.5,221.49L348.28,209.71L349.05,226.71L349.83,238.28L350.61,38.609L351.39,224.21L352.16,233.3L352.94,208.21L353.72,238.51L354.5,223.54L355.27,226.86L356.05,221.15L356.83,229.46L357.61,223.11L358.38,228.01L359.16,38.666L359.94,233.5L360.72,240.24L361.49,223.65L362.27,217.85L363.05,232.05L363.83,231.68L364.6,202.15L365.38,236.89L366.16,216.34L366.94,38.722L367.72,241.34L368.49,230.07L369.27,227.19L370.05,209.41L370.83,230.92L371.6,228.68L372.38,233.4L373.16,215.03L373.94,197.44L374.71,226.22L375.49,38.645L376.27,228.14L377.05,208.32L377.82,156.02L378.6,213.43L379.38,225.32L380.16,212.25L380.93,198.5L381.71,225.4L382.49,233.59L383.27,38.504L384.04,223.36L384.82,208.52L385.6,234.48L386.38,234.63L387.16,221.6L387.93,211.44L388.71,212.31L389.49,223.62L390.27,210.71L391.04,188.06L391.82,38.664L392.6,236.78L393.38,213.67L394.15,215.08L394.93,216.97L395.71,224.35L396.49,233.72L397.26,199.31L398.04,243.26L398.82,216.3L399.6,38.584L400.37,223.01L401.15,233.25L401.31,278.56" style="fill:none;stroke:#F15A60" />
<path d="M405.2,277.58L425.2,277.58" style="fill:none;stroke:#F15A60" />
<text x="305.13" y="-271.91" transform="scale(1, -1)"
	style="font-family:Times;font-weight:normal;font-style:normal;font-size:12px">concurrent-nomerge</text>
</g>
</svg>
