<?xml version="1.0"?>
<!-- Generated by SVGo and Plotinum VG -->
<svg width="425.2pt" height="283.46pt" viewBox="0 0 425.2 283.46"
	xmlns="http://www.w3.org/2000/svg"
	xmlns:xlink="http://www.w3.org/1999/xlink">
<g transform="scale(1, -1) translate(0, -283.46)">
<path d="M0,0L425.2,0L425.2,283.46L0,283.46Z" style="fill:#FFFFFF" />
<text x="204.73" y="-3.8613" transform="scale(1, -1)"
	style="font-family:Times;font-weight:normal;font-style:normal;font-size:12px">database size</text>
<text x="55.229" y="-15.602" transform="scale(1, -1)"
	style="font-family:Times;font-weight:normal;font-style:normal;font-size:10px">4.00 mb</text>
<text x="133" y="-15.602" transform="scale(1, -1)"
	style="font-family:Times;font-weight:normal;font-style:normal;font-size:10px">260.00 mb</text>
<text x="215.78" y="-15.602" transform="scale(1, -1)"
	style="font-family:Times;font-weight:normal;font-style:normal;font-size:10px">516.00 mb</text>
<text x="298.55" y="-15.602" transform="scale(1, -1)"
	style="font-family:Times;font-weight:normal;font-style:normal;font-size:10px">772.00 mb</text>
<text x="377.42" y="-15.602" transform="scale(1, -1)"
	style="font-family:Times;font-weight:normal;font-style:normal;font-size:10px">1023.64 mb</text>
<path d="M71.618,25.23L71.618,33.23" style="fill:none;stroke:#000000;stroke-width:0.5" />
<path d="M154.39,25.23L154.39,33.23" style="fill:none;stroke:#000000;stroke-width:0.5" />
<path d="M237.17,25.23L237.17,33.23" style="fill:none;stroke:#000000;stroke-width:0.5" />
<path d="M319.94,25.23L319.94,33.23" style="fill:none;stroke:#000000;stroke-width:0.5" />
<path d="M401.31,25.23L401.31,33.23" style="fill:none;stroke:#000000;stroke-width:0.5" />
<path d="M71.114,33.23L401.31,33.23" style="fill:none;stroke:#000000;stroke-width:0.5" />
<g transform="rotate(90)">
<text x="144.86" y="11.555" transform="scale(1, -1)"
	style="font-family:Times;font-weight:normal;font-style:normal;font-size:12px">speed</text>
</g>
<text x="15.416" y="-88.871" transform="scale(1, -1)"
	style="font-family:Times;font-weight:normal;font-style:normal;font-size:10px">0.50 mb/s</text>
<text x="15.416" y="-154.63" transform="scale(1, -1)"
	style="font-family:Times;font-weight:normal;font-style:normal;font-size:10px">0.56 mb/s</text>
<text x="15.416" y="-220.38" transform="scale(1, -1)"
	style="font-family:Times;font-weight:normal;font-style:normal;font-size:10px">0.62 mb/s</text>
<text x="15.416" y="-273.84" transform="scale(1, -1)"
	style="font-family:Times;font-weight:normal;font-style:normal;font-size:10px">0.68 mb/s</text>
<path d="M57.364,93.593L65.364,93.593" style="fill:none;stroke:#000000;stroke-width:0.5" />
<path d="M57.364,159.35L65.364,159.35" style="fill:none;stroke:#000000;stroke-width:0.5" />
<path d="M57.364,225.11L65.364,225.11" style="fill:none;stroke:#000000;stroke-width:0.5" />
<path d="M57.364,278.56L65.364,278.56" style="fill:none;stroke:#000000;stroke-width:0.5" />
<path d="M65.364,38.48L65.364,278.56" style="fill:none;stroke:#000000;stroke-width:0.5" />
<path d="M71.114,38.48L71.904,237.27L72.693,208.4L73.483,275.51L74.272,251.74L75.062,190.25L75.852,248.42L76.641,271.83L77.431,217.48L78.22,242.56L79.01,201.82L79.799,232.56L80.589,198.97L81.379,246.4L82.168,227.72L82.958,222.86L83.747,227.7L84.537,219.15L85.326,221.93L86.116,239.12L86.905,215.16L87.695,263.55L88.485,275.83L89.274,268.49L90.064,221.45L90.853,215.4L91.643,195.58L92.432,183.64L93.222,233.86L94.011,225.93L94.801,202.71L95.591,207.28L96.38,240.49L97.17,192.38L97.959,202.07L98.749,149.49L99.538,227.31L100.33,202.48L101.12,195.17L101.91,225.42L102.7,208.25L103.49,187.17L104.28,196.05L105.07,186.25L105.85,194.87L106.64,210.79L107.43,211.38L108.22,213.52L109.01,235.79L109.8,247.42L110.59,167.19L111.38,230.38L112.17,245.56L112.96,238.75L113.75,195.25L114.54,224.45L115.33,239.94L116.12,219.99L116.91,190.28L117.7,216.61L118.49,187.6L119.28,166.95L120.07,202.94L120.86,212.06L121.65,211.66L122.44,150.27L123.23,175.72L124.01,208.81L124.8,217.06L125.59,195.45L126.38,203.51L127.17,192.24L127.96,190.48L128.75,200.17L129.54,222.36L130.33,195.51L131.12,203.18L131.91,208.87L132.7,224.77L133.49,191.72L134.28,200.48L135.07,163.19L135.86,181.42L136.65,154.43L137.44,160.93L138.23,206.4L139.02,204.34L139.81,229.74L140.6,218.61L141.38,201.37L142.17,183.16L142.96,225.62L143.75,214.66L144.54,229.69L145.33,190.44L146.12,215.62L146.91,224.96L147.7,221.98L148.49,220.13L149.28,191.46L150.07,205.2L150.86,205.72L151.65,213.95L152.44,228.06L153.23,199.62L154.02,185.6L154.81,217.36L155.6,197L156.39,210.44L157.18,166.25L157.97,207.85L158.76,199.48L159.54,209.72L160.33,178.73L161.12,169.67L161.91,200.52L162.7,118.7L163.49,215.37L164.28,207.46L165.07,209.59L165.86,215.49L166.65,221.53L167.44,210.63L168.23,256.59L169.02,171.36L169.81,204.46L170.6,243.64L171.39,252.74L172.18,215.53L172.97,231.84L173.76,211.88L174.55,148.91L175.34,187.13L176.13,235.34L176.92,203.07L177.7,213.57L178.49,228.34L179.28,235.82L180.07,231.43L180.86,211.21L181.65,229.19L182.44,220.74L183.23,242.57L184.02,230.79L184.81,226.29L185.6,226.59L186.39,187L187.18,168.54L187.97,210.93L188.76,197.93L189.55,231.7L190.34,222.57L191.13,240.81L191.92,237.32L192.71,189.09L193.5,213.58L194.29,237.8L195.07,257.67L195.86,224.15L196.65,259.71L197.44,237.12L198.23,189.3L199.02,224.29L199.81,227.35L200.6,225.28L201.39,231.35L202.18,213.29L202.97,208.39L203.76,244.02L204.55,216.68L205.34,203.8L206.13,263.16L206.92,199.98L207.71,256.83L208.5,262.45L209.29,208.26L210.08,186.49L210.87,193.66L211.66,214.19L212.45,208.05L213.23,222.26L214.02,199.54L214.81,246.32L215.6,188.93L216.39,216.26L217.18,172.45L217.97,219.12L218.76,198.39L219.55,227.34L220.34,239.86L221.13,226.22L221.92,204.22L222.71,148.57L223.5,245.48L224.29,235.34L225.08,215.24L225.87,239L226.66,233.7L227.45,239.21L228.24,256.79L229.03,214.75L229.82,235.83L230.61,244.85L231.39,237.7L232.18,278.56L232.97,255.92L233.76,243.68L234.55,270.71L235.34,210.49L236.13,223.57L236.92,225.99L237.71,229.76L238.5,230.9L239.29,190.64L240.08,186.67L240.87,141.5L241.66,158.3L242.45,179.69L243.24,227.94L244.03,219.34L244.82,218.79L245.61,186.88L246.4,205.34L247.19,201.36L247.98,221.69L248.76,221.63L249.55,210.37L250.34,183.45L251.13,186.99L251.92,198.83L252.71,143.48L253.5,204.39L254.29,198.16L255.08,236.49L255.87,213.57L256.66,207.56L257.45,220.83L258.24,203.7L259.03,199.35L259.82,198.89L260.61,212.68L261.4,192.13L262.19,190.91L262.98,198.66L263.77,209.08L264.56,193.78L265.35,198.81L266.14,220.76L266.92,249.7L267.71,245.53L268.5,210.37L269.29,226.87L270.08,220.83L270.87,203.68L271.66,204.28L272.45,241.81L273.24,221.46L274.03,237.27L274.82,228.46L275.61,210.05L276.4,210.44L277.19,207.79L277.98,249.16L278.77,250.26L279.56,238.36L280.35,239.57L281.14,238.5L281.93,178.33L282.72,213.94L283.51,247.84L284.3,225.09L285.08,231.77L285.87,219.26L286.66,252.64L287.45,256.97L288.24,245.96L289.03,226.8L289.82,260.79L290.61,242.28L291.4,233.84L292.19,249.33L292.98,260.17L293.77,228.29L294.56,208.63L295.35,205.18L296.14,250.84L296.93,203.46L297.72,194.44L298.51,199.49L299.3,231.8L300.09,244.33L300.88,177.05L301.67,182.94L302.45,195.65L303.24,233.99L304.03,247.49L304.82,230.04L305.61,265.28L306.4,237.25L307.19,224.81L307.98,232.69L308.77,242.32L309.56,233.24L310.35,229.87L311.14,229.26L311.93,246.62L312.72,207.62L313.51,175.33L314.3,231.59L315.09,221.33L315.88,226.09L316.67,240.1L317.46,213.7L318.25,255.53L319.04,187.21L319.83,230.61L320.61,218.81L321.4,203.86L322.19,211.29L322.98,208L323.77,192.68L324.56,221.68L325.35,157.08L326.14,217.8L326.93,199.28L327.72,182.42L328.51,206.68L329.3,158.17L330.09,186.98L330.88,172.02L331.67,172.91L332.46,202.51L333.25,221.33L334.04,195.13L334.83,231.83L335.62,203.66L336.41,187.22L337.2,219.65L337.99,213.59L338.77,229.61L339.56,208L340.35,205.3L341.14,240.03L341.93,135.54L342.72,180.71L343.51,181.42L344.3,217.91L345.09,233.34L345.88,213.5L346.67,198.13L347.46,209.16L348.25,166.38L349.04,203.22L349.83,176.95L350.62,165.28L351.41,194.31L352.2,219.67L352.99,207.04L353.78,174.93L354.57,135.62L355.36,173.91L356.14,165.6L356.93,187.21L357.72,212.29L358.51,199.11L359.3,192.59L360.09,191.37L360.88,223.5L361.67,193.38L362.46,217.66L363.25,207.12L364.04,219.04L364.83,221.65L365.62,186.22L366.41,204.01L367.2,196.44L367.99,223.14L368.78,232.58L369.57,212.29L370.36,213.84L371.15,216.14L371.94,185.24L372.73,224.41L373.52,210.61L374.3,215.07L375.09,195.93L375.88,222.16L376.67,228.63L377.46,157.94L378.25,213.16L379.04,198.11L379.83,228.3L380.62,212.58L381.41,214.31L382.2,207.16L382.99,201.1L383.78,204.87L384.57,210.5L385.36,207.35L386.15,215.34L386.94,209.95L387.73,206.92L388.52,202.63L389.31,179.68L390.1,194.89L390.89,204.37L391.68,187.99L392.46,192.09L393.25,204.25L394.04,199.84L394.83,217.53L395.62,205.55L396.41,229.76L397.2,229.59L397.99,234.28L398.78,222.57L399.57,230.79L400.36,176.39L401.15,153.87L401.31,215.42" style="fill:none;stroke:#F15A60" />
<path d="M405.2,277.58L425.2,277.58" style="fill:none;stroke:#F15A60" />
<text x="350.89" y="-271.91" transform="scale(1, -1)"
	style="font-family:Times;font-weight:normal;font-style:normal;font-size:12px">concurrent</text>
</g>
</svg>
