<?xml version="1.0"?>
<!-- Generated by SVGo and Plotinum VG -->
<svg width="425.2pt" height="283.46pt" viewBox="0 0 425.2 283.46"
	xmlns="http://www.w3.org/2000/svg"
	xmlns:xlink="http://www.w3.org/1999/xlink">
<g transform="scale(1, -1) translate(0, -283.46)">
<path d="M0,0L425.2,0L425.2,283.46L0,283.46Z" style="fill:#FFFFFF" />
<text x="207.23" y="-3.8613" transform="scale(1, -1)"
	style="font-family:Times;font-weight:normal;font-style:normal;font-size:12px">database size</text>
<text x="60.221" y="-15.602" transform="scale(1, -1)"
	style="font-family:Times;font-weight:normal;font-style:normal;font-size:10px">4.00 mb</text>
<text x="136.74" y="-15.602" transform="scale(1, -1)"
	style="font-family:Times;font-weight:normal;font-style:normal;font-size:10px">260.00 mb</text>
<text x="218.26" y="-15.602" transform="scale(1, -1)"
	style="font-family:Times;font-weight:normal;font-style:normal;font-size:10px">516.00 mb</text>
<text x="299.79" y="-15.602" transform="scale(1, -1)"
	style="font-family:Times;font-weight:normal;font-style:normal;font-size:10px">772.00 mb</text>
<text x="377.42" y="-15.602" transform="scale(1, -1)"
	style="font-family:Times;font-weight:normal;font-style:normal;font-size:10px">1023.64 mb</text>
<path d="M76.61,25.23L76.61,33.23" style="fill:none;stroke:#000000;stroke-width:0.5" />
<path d="M158.13,25.23L158.13,33.23" style="fill:none;stroke:#000000;stroke-width:0.5" />
<path d="M239.65,25.23L239.65,33.23" style="fill:none;stroke:#000000;stroke-width:0.5" />
<path d="M321.18,25.23L321.18,33.23" style="fill:none;stroke:#000000;stroke-width:0.5" />
<path d="M401.31,25.23L401.31,33.23" style="fill:none;stroke:#000000;stroke-width:0.5" />
<path d="M76.114,33.23L401.31,33.23" style="fill:none;stroke:#000000;stroke-width:0.5" />
<g transform="rotate(90)">
<text x="144.86" y="11.555" transform="scale(1, -1)"
	style="font-family:Times;font-weight:normal;font-style:normal;font-size:12px">speed</text>
</g>
<text x="20.416" y="-41.625" transform="scale(1, -1)"
	style="font-family:Times;font-weight:normal;font-style:normal;font-size:10px">2.00 mb/s</text>
<text x="15.416" y="-129.61" transform="scale(1, -1)"
	style="font-family:Times;font-weight:normal;font-style:normal;font-size:10px">10.00 mb/s</text>
<text x="15.416" y="-217.6" transform="scale(1, -1)"
	style="font-family:Times;font-weight:normal;font-style:normal;font-size:10px">18.00 mb/s</text>
<text x="15.787" y="-273.84" transform="scale(1, -1)"
	style="font-family:Times;font-weight:normal;font-style:normal;font-size:10px">23.11 mb/s</text>
<path d="M62.364,46.347L70.364,46.347" style="fill:none;stroke:#000000;stroke-width:0.5" />
<path d="M62.364,134.34L70.364,134.34" style="fill:none;stroke:#000000;stroke-width:0.5" />
<path d="M62.364,222.33L70.364,222.33" style="fill:none;stroke:#000000;stroke-width:0.5" />
<path d="M62.364,278.56L70.364,278.56" style="fill:none;stroke:#000000;stroke-width:0.5" />
<path d="M70.364,38.48L70.364,278.56" style="fill:none;stroke:#000000;stroke-width:0.5" />
<path d="M76.114,259.53L76.892,270.66L77.669,261.29L78.447,263.21L79.225,272.27L80.002,245.55L80.78,277.49L81.557,278.56L82.335,272.15L83.113,265.58L83.89,254.72L84.668,250.33L85.445,265.7L86.223,276.63L87.001,257.84L87.778,257.19L88.556,248.95L89.334,241.63L90.111,273.36L90.889,248.71L91.666,252.08L92.444,254.06L93.222,248.93L93.999,237.81L94.777,252.72L95.554,247.39L96.332,249.46L97.11,254.18L97.887,139.95L98.665,253.77L99.442,254.92L100.22,250.6L101,254.88L101.78,104.24L102.55,247.34L103.33,246.58L104.11,251.12L104.89,87.204L105.66,249.45L106.44,252.55L107.22,248.48L108,248.38L108.77,83.337L109.55,249.13L110.33,256.06L111.11,248.3L111.88,252.07L112.66,78.863L113.44,249.25L114.22,248.7L114.99,252.25L115.77,65.907L116.55,247.97L117.33,218.02L118.1,245.84L118.88,247.67L119.66,256.03L120.44,80.085L121.22,234.26L121.99,256.97L122.77,245.33L123.55,247.37L124.33,74.358L125.1,248.73L125.88,248.57L126.66,249.11L127.44,253.38L128.21,77.894L128.99,243.29L129.77,251.06L130.55,251.35L131.32,83.135L132.1,243.93L132.88,251.49L133.66,250.51L134.43,244.17L135.21,63.389L135.99,221.54L136.77,259.86L137.54,247.06L138.32,244.47L139.1,200.18L139.88,77.226L140.66,245.02L141.43,253.34L142.21,255.2L142.99,68.934L143.77,226.15L144.54,248.33L145.32,247.12L146.1,255.69L146.88,249.54L147.65,83.262L148.43,236.45L149.21,250.47L149.99,248.73L150.76,254.87L151.54,68.518L152.32,239.63L153.1,245.5L153.87,249.07L154.65,256.94L155.43,247.05L156.21,64.97L156.98,247.77L157.76,243.61L158.54,249.32L159.32,245.9L160.1,248.81L160.87,62.21L161.65,236.09L162.43,246.01L163.21,243.67L163.98,246.92L164.76,80.764L165.54,78.218L166.32,242.61L167.09,244.73L167.87,247.27L168.65,250.04L169.43,58.207L170.2,122.65L170.98,241.97L171.76,241.15L172.54,234.21L173.31,235.38L174.09,246.49L174.87,61.553L175.65,89.553L176.43,233.22L177.2,236.83L177.98,245.2L178.76,248.8L179.54,250.69L180.31,51.809L181.09,145.59L181.87,235.8L182.65,236.45L183.42,244.02L184.2,243.98L184.98,250.96L185.76,76.503L186.53,61.582L187.31,234.68L188.09,242.14L188.87,234.88L189.64,240.31L190.42,245.69L191.2,70.522L191.98,66.918L192.75,216.76L193.53,227.99L194.31,232.97L195.09,238.07L195.87,250.88L196.64,60.628L197.42,85.288L198.2,232.85L198.98,234.24L199.75,245.45L200.53,237.55L201.31,243.71L202.09,142.72L202.86,50.606L203.64,217.86L204.42,243.32L205.2,243.04L205.97,243.45L206.75,240.64L207.53,184.97L208.31,48.179L209.08,234.84L209.86,239.16L210.64,237.28L211.42,245.9L212.19,240.37L212.97,93.836L213.75,51.105L214.53,232.73L215.31,244.36L216.08,240.43L216.86,241.42L217.64,239.33L218.42,240.83L219.19,247.31L219.97,47.503L220.75,247.65L221.53,243.47L222.3,242.52L223.08,238.2L223.86,240.54L224.64,246.56L225.41,47.143L226.19,245.3L226.97,242.2L227.75,244.24L228.52,246.73L229.3,245.87L230.08,243.83L230.86,44.941L231.63,239.72L232.41,241.21L233.19,241.88L233.97,245.91L234.75,236.27L235.52,239.61L236.3,247.17L237.08,47.931L237.86,236.93L238.63,236.44L239.41,241.72L240.19,240.54L240.97,236.91L241.74,243.11L242.52,45.715L243.3,248.79L244.08,242.1L244.85,243.35L245.63,246.79L246.41,229.19L247.19,236.93L247.96,245.97L248.74,45.453L249.52,238.56L250.3,245.14L251.07,243.44L251.85,234.13L252.63,242.57L253.41,249.79L254.19,243.9L254.96,49.202L255.74,106.8L256.52,233.39L257.3,234.8L258.07,241.88L258.85,236.49L259.63,239.82L260.41,232.3L261.18,247.99L261.96,43.139L262.74,249.14L263.52,244.31L264.29,239.26L265.07,239.78L265.85,239.36L266.63,243.68L267.4,242.46L268.18,42.08L268.96,253.39L269.74,240.27L270.51,230.46L271.29,246.45L272.07,247.04L272.85,231.78L273.63,248.61L274.4,43.354L275.18,238.52L275.96,240.39L276.74,242.43L277.51,236.15L278.29,233.56L279.07,244.63L279.85,247.96L280.62,43.501L281.4,236.12L282.18,236.95L282.96,236.06L283.73,236.08L284.51,246.51L285.29,249.8L286.07,239.82L286.84,45.703L287.62,115.78L288.4,242.88L289.18,238.49L289.95,245.78L290.73,236.49L291.51,239.51L292.29,240.68L293.07,70.482L293.84,47.625L294.62,227.62L295.4,243.86L296.18,240.19L296.95,242.4L297.73,237.44L298.51,237.17L299.29,240.54L300.06,236.26L300.84,42.089L301.62,241.09L302.4,246.99L303.17,244.83L303.95,236.77L304.73,241.85L305.51,236.75L306.28,245.29L307.06,40.646L307.84,241.65L308.62,240.07L309.4,228.52L310.17,236.37L310.95,232.39L311.73,246.42L312.51,235.5L313.28,239.26L314.06,63.248L314.84,49.908L315.62,237.08L316.39,235.06L317.17,234.37L317.95,243.01L318.73,242.63L319.5,241.23L320.28,244.91L321.06,232.09L321.84,41.244L322.61,250.49L323.39,233.81L324.17,250.23L324.95,239.58L325.72,242.29L326.5,235.43L327.28,241.14L328.06,237.9L328.84,41.006L329.61,234.94L330.39,238.81L331.17,241.44L331.95,236.85L332.72,241.97L333.5,245.67L334.28,239.51L335.06,242.55L335.83,136.47L336.61,42.648L337.39,233.86L338.17,238.34L338.94,239.09L339.72,236.04L340.5,245.09L341.28,237.95L342.05,239.77L342.83,236.65L343.61,39.222L344.39,251.28L345.16,241.33L345.94,235.99L346.72,242.87L347.5,232.92L348.28,237.45L349.05,239.81L349.83,243.07L350.61,41.647L351.39,93.387L352.16,244.53L352.94,230.7L353.72,233.45L354.5,238.74L355.27,245.99L356.05,246.29L356.83,239.75L357.61,106.89L358.38,40.909L359.16,230.96L359.94,233.77L360.72,242.42L361.49,242.83L362.27,241.13L363.05,236.82L363.83,236.59L364.6,234.18L365.38,39.743L366.16,242.55L366.94,239.58L367.72,241.63L368.49,246.83L369.27,221.49L370.05,240.5L370.83,238.79L371.6,239.58L372.38,44.282L373.16,73.111L373.94,250.92L374.71,232.19L375.49,243.01L376.27,241.29L377.05,243.4L377.82,238.79L378.6,241.03L379.38,244.38L380.16,39.202L380.93,239.87L381.71,245.67L382.49,239.08L383.27,244.25L384.04,244.01L384.82,244.21L385.6,234.66L386.38,244.67L387.16,38.48L387.93,243.88L388.71,236.8L389.49,243.56L390.27,235.78L391.04,237.23L391.82,249.69L392.6,249.36L393.38,243.3L394.15,63.847L394.93,44.117L395.71,243.41L396.49,233.03L397.26,244.43L398.04,244.76L398.82,242.36L399.6,247.98L400.37,238.63L401.15,238.5L401.31,93.766" style="fill:none;stroke:#F15A60" />
<path d="M405.2,277.58L425.2,277.58" style="fill:none;stroke:#F15A60" />
<text x="350.89" y="-271.91" transform="scale(1, -1)"
	style="font-family:Times;font-weight:normal;font-style:normal;font-size:12px">concurrent</text>
</g>
</svg>
