<?xml version="1.0"?>
<!-- Generated by SVGo and Plotinum VG -->
<svg width="425.2pt" height="283.46pt" viewBox="0 0 425.2 283.46"
	xmlns="http://www.w3.org/2000/svg"
	xmlns:xlink="http://www.w3.org/1999/xlink">
<g transform="scale(1, -1) translate(0, -283.46)">
<path d="M0,0L425.2,0L425.2,283.46L0,283.46Z" style="fill:#FFFFFF" />
<text x="207.23" y="-3.8613" transform="scale(1, -1)"
	style="font-family:Times;font-weight:normal;font-style:normal;font-size:12px">database size</text>
<text x="60.221" y="-15.602" transform="scale(1, -1)"
	style="font-family:Times;font-weight:normal;font-style:normal;font-size:10px">4.00 mb</text>
<text x="136.74" y="-15.602" transform="scale(1, -1)"
	style="font-family:Times;font-weight:normal;font-style:normal;font-size:10px">260.00 mb</text>
<text x="218.26" y="-15.602" transform="scale(1, -1)"
	style="font-family:Times;font-weight:normal;font-style:normal;font-size:10px">516.00 mb</text>
<text x="299.79" y="-15.602" transform="scale(1, -1)"
	style="font-family:Times;font-weight:normal;font-style:normal;font-size:10px">772.00 mb</text>
<text x="377.42" y="-15.602" transform="scale(1, -1)"
	style="font-family:Times;font-weight:normal;font-style:normal;font-size:10px">1023.64 mb</text>
<path d="M76.61,25.23L76.61,33.23" style="fill:none;stroke:#000000;stroke-width:0.5" />
<path d="M158.13,25.23L158.13,33.23" style="fill:none;stroke:#000000;stroke-width:0.5" />
<path d="M239.65,25.23L239.65,33.23" style="fill:none;stroke:#000000;stroke-width:0.5" />
<path d="M321.18,25.23L321.18,33.23" style="fill:none;stroke:#000000;stroke-width:0.5" />
<path d="M401.31,25.23L401.31,33.23" style="fill:none;stroke:#000000;stroke-width:0.5" />
<path d="M76.114,33.23L401.31,33.23" style="fill:none;stroke:#000000;stroke-width:0.5" />
<g transform="rotate(90)">
<text x="144.86" y="11.555" transform="scale(1, -1)"
	style="font-family:Times;font-weight:normal;font-style:normal;font-size:12px">speed</text>
</g>
<text x="20.416" y="-62.577" transform="scale(1, -1)"
	style="font-family:Times;font-weight:normal;font-style:normal;font-size:10px">4.00 mb/s</text>
<text x="20.416" y="-136.12" transform="scale(1, -1)"
	style="font-family:Times;font-weight:normal;font-style:normal;font-size:10px">8.00 mb/s</text>
<text x="15.416" y="-209.67" transform="scale(1, -1)"
	style="font-family:Times;font-weight:normal;font-style:normal;font-size:10px">12.00 mb/s</text>
<text x="15.416" y="-273.84" transform="scale(1, -1)"
	style="font-family:Times;font-weight:normal;font-style:normal;font-size:10px">15.49 mb/s</text>
<path d="M62.364,67.299L70.364,67.299" style="fill:none;stroke:#000000;stroke-width:0.5" />
<path d="M62.364,140.84L70.364,140.84" style="fill:none;stroke:#000000;stroke-width:0.5" />
<path d="M62.364,214.39L70.364,214.39" style="fill:none;stroke:#000000;stroke-width:0.5" />
<path d="M62.364,278.56L70.364,278.56" style="fill:none;stroke:#000000;stroke-width:0.5" />
<path d="M70.364,38.48L70.364,278.56" style="fill:none;stroke:#000000;stroke-width:0.5" />
<path d="M76.114,233.47L76.892,220.37L77.669,213.95L78.447,222.33L79.225,230.86L80.002,197.66L80.78,246.78L81.557,213.12L82.335,219.72L83.113,200.53L83.89,179.34L84.668,221.28L85.445,252.5L86.223,228.57L87.001,195.47L87.778,209.25L88.556,254.59L89.334,240.82L90.111,224.59L90.889,200.85L91.666,178.6L92.444,248.6L93.222,249.89L93.999,186.61L94.777,182.05L95.554,196.44L96.332,240.25L97.11,278.56L97.887,189.76L98.665,194.27L99.442,213.08L100.22,196.97L101,222.08L101.78,187.28L102.55,170.3L103.33,187.76L104.11,178.44L104.89,230.69L105.66,183.57L106.44,189.42L107.22,214.46L108,198.48L108.77,238.52L109.55,201.84L110.33,188.19L111.11,221.87L111.88,179.87L112.66,190.97L113.44,178.6L114.22,197.58L114.99,180.6L115.77,190.13L116.55,198.78L117.33,193.71L118.1,184.92L118.88,194.07L119.66,218.91L120.44,191.7L121.22,177.28L121.99,179.77L122.77,183.87L123.55,196.11L124.33,186.7L125.1,195.38L125.88,185.79L126.66,183.99L127.44,204.48L128.21,185.74L128.99,181.24L129.77,191.05L130.55,209.13L131.32,198.53L132.1,205.9L132.88,195.82L133.66,171.64L134.43,184.8L135.21,194.84L135.99,196.5L136.77,186.54L137.54,189.44L138.32,188.05L139.1,192.55L139.88,217.67L140.66,192.81L141.43,194.73L142.21,182.3L142.99,195.86L143.77,205.51L144.54,168.07L145.32,185.9L146.1,185.11L146.88,198.41L147.65,203.46L148.43,171L149.21,185.7L149.99,174.73L150.76,189.02L151.54,211.43L152.32,165.82L153.1,166.8L153.87,195.72L154.65,179.09L155.43,192.06L156.21,101.7L156.98,219.31L157.76,202.49L158.54,178.53L159.32,186.04L160.1,121.07L160.87,179.43L161.65,182.19L162.43,190.06L163.21,206.19L163.98,106.41L164.76,181.74L165.54,168.14L166.32,181.13L167.09,185.24L167.87,191.46L168.65,112.61L169.43,185.96L170.2,192.54L170.98,192.1L171.76,198.32L172.54,192.97L173.31,160.87L174.09,176.17L174.87,198.33L175.65,203.03L176.43,206.53L177.2,107.66L177.98,175.72L178.76,180.01L179.54,179.95L180.31,188.9L181.09,110.3L181.87,188.62L182.65,182.85L183.42,202.85L184.2,198.34L184.98,188.1L185.76,139.54L186.53,177.31L187.31,194.69L188.09,183.44L188.87,198.14L189.64,101.33L190.42,192.41L191.2,202.15L191.98,225.91L192.75,215.38L193.53,193.45L194.31,88.644L195.09,169.42L195.87,182.98L196.64,172.75L197.42,207.6L198.2,199.94L198.98,93.057L199.75,189.26L200.53,179.66L201.31,196.66L202.09,206.28L202.86,99.149L203.64,180.1L204.42,175.54L205.2,193.4L205.97,203.1L206.75,173.88L207.53,84.636L208.31,189.68L209.08,189.33L209.86,195.76L210.64,204.22L211.42,174.44L212.19,94.591L212.97,177.54L213.75,180.4L214.53,178.58L215.31,193.03L216.08,196.7L216.86,82.041L217.64,186.81L218.42,193.03L219.19,178.67L219.97,178.99L220.75,211.13L221.53,81.392L222.3,177.26L223.08,210.56L223.86,204.06L224.64,179.36L225.41,210.67L226.19,74.398L226.97,179.7L227.75,196.92L228.52,225.46L229.3,200.95L230.08,205.75L230.86,83.84L231.63,181.82L232.41,182.98L233.19,201.44L233.97,184.27L234.75,77.019L235.52,190.69L236.3,180.69L237.08,193.05L237.86,192.24L238.63,219.2L239.41,68.587L240.19,225.47L240.97,197.3L241.74,190.77L242.52,178.52L243.3,188.6L244.08,48.194L244.85,188.93L245.63,182.96L246.41,164.4L247.19,195.02L247.96,204.49L248.74,61.531L249.52,171.1L250.3,172.66L251.07,191.19L251.85,186.09L252.63,204.32L253.41,61.06L254.19,170.25L254.96,185.99L255.74,183.11L256.52,180.52L257.3,194.54L258.07,67.392L258.85,186.02L259.63,172.18L260.41,175.16L261.18,190.03L261.96,66.868L262.74,121.7L263.52,180.82L264.29,185.08L265.07,185.23L265.85,207.75L266.63,64.678L267.4,177.32L268.18,178.18L268.96,185.49L269.74,186.21L270.51,189.78L271.29,66.884L272.07,173.2L272.85,181.98L273.63,198.06L274.4,193.56L275.18,197.22L275.96,55.983L276.74,181.67L277.51,186.67L278.29,201.47L279.07,201.86L279.85,191.56L280.62,61.189L281.4,176.15L282.18,185.95L282.96,181.75L283.73,200.17L284.51,196.18L285.29,54.383L286.07,177.45L286.84,187.94L287.62,186.67L288.4,211.43L289.18,190.57L289.95,67.036L290.73,178.26L291.51,169.49L292.29,192.82L293.07,189.61L293.84,59.971L294.62,181.74L295.4,169.57L296.18,179.72L296.95,173.07L297.73,193.38L298.51,53.245L299.29,179.64L300.06,193.61L300.84,179.97L301.62,178.02L302.4,185.91L303.17,59.71L303.95,194.39L304.73,172.47L305.51,176.73L306.28,192.11L307.06,220.82L307.84,53.702L308.62,206.08L309.4,185.22L310.17,181.69L310.95,202.96L311.73,184.36L312.51,44.382L313.28,171.87L314.06,188.37L314.84,182.93L315.62,204.15L316.39,195.03L317.17,183.14L317.95,58.088L318.73,191.38L319.5,197.46L320.28,193.98L321.06,207.09L321.84,192.61L322.61,44.25L323.39,187.6L324.17,173.11L324.95,182.52L325.72,178.05L326.5,184.28L327.28,185.04L328.06,57.975L328.84,190.65L329.61,176.39L330.39,170.08L331.17,170.95L331.95,181.9L332.72,43.075L333.5,210.71L334.28,186.71L335.06,169.43L335.83,174.48L336.61,186.65L337.39,192.74L338.17,54.909L338.94,183.75L339.72,178.44L340.5,180.93L341.28,190.61L342.05,181.26L342.83,46.533L343.61,198.56L344.39,163.98L345.16,187.19L345.94,187.86L346.72,178.96L347.5,192.3L348.28,41.516L349.05,186.52L349.83,195.12L350.61,192.13L351.39,178.3L352.16,194.48L352.94,187.48L353.72,46.347L354.5,178.04L355.27,183.49L356.05,206.04L356.83,178.24L357.61,195.88L358.38,191.78L359.16,46.027L359.94,173.89L360.72,178.56L361.49,186.32L362.27,185.45L363.05,175.16L363.83,189.92L364.6,54.388L365.38,185.39L366.16,183.11L366.94,169.01L367.72,190.43L368.49,45.391L369.27,184.7L370.05,200.22L370.83,192.35L371.6,183.01L372.38,188.41L373.16,194.71L373.94,48.448L374.71,169.7L375.49,181.75L376.27,192.8L377.05,189.92L377.82,196.57L378.6,44.405L379.38,192.06L380.16,214.53L380.93,202.51L381.71,190.2L382.49,197.31L383.27,191.68L384.04,38.48L384.82,185.2L385.6,189.75L386.38,220.81L387.16,177.56L387.93,187.55L388.71,189.51L389.49,40.331L390.27,190.42L391.04,195.79L391.82,201.79L392.6,216.82L393.38,178.66L394.15,195.78L394.93,39.011L395.71,206.89L396.49,186.42L397.26,179.19L398.04,179.25L398.82,177.89L399.6,180.69L400.37,40.595L401.15,193.05L401.31,180.8" style="fill:none;stroke:#F15A60" />
<path d="M405.2,277.58L425.2,277.58" style="fill:none;stroke:#F15A60" />
<text x="305.13" y="-271.91" transform="scale(1, -1)"
	style="font-family:Times;font-weight:normal;font-style:normal;font-size:12px">concurrent-nomerge</text>
</g>
</svg>
