<?xml version="1.0"?>
<!-- Generated by SVGo and Plotinum VG -->
<svg width="425.2pt" height="283.46pt" viewBox="0 0 425.2 283.46"
	xmlns="http://www.w3.org/2000/svg"
	xmlns:xlink="http://www.w3.org/1999/xlink">
<g transform="scale(1, -1) translate(0, -283.46)">
<path d="M0,0L425.2,0L425.2,283.46L0,283.46Z" style="fill:#FFFFFF" />
<text x="207.23" y="-3.8613" transform="scale(1, -1)"
	style="font-family:Times;font-weight:normal;font-style:normal;font-size:12px">database size</text>
<text x="60.221" y="-15.602" transform="scale(1, -1)"
	style="font-family:Times;font-weight:normal;font-style:normal;font-size:10px">4.00 mb</text>
<text x="136.74" y="-15.602" transform="scale(1, -1)"
	style="font-family:Times;font-weight:normal;font-style:normal;font-size:10px">260.00 mb</text>
<text x="218.26" y="-15.602" transform="scale(1, -1)"
	style="font-family:Times;font-weight:normal;font-style:normal;font-size:10px">516.00 mb</text>
<text x="299.79" y="-15.602" transform="scale(1, -1)"
	style="font-family:Times;font-weight:normal;font-style:normal;font-size:10px">772.00 mb</text>
<text x="377.42" y="-15.602" transform="scale(1, -1)"
	style="font-family:Times;font-weight:normal;font-style:normal;font-size:10px">1023.64 mb</text>
<path d="M76.61,25.23L76.61,33.23" style="fill:none;stroke:#000000;stroke-width:0.5" />
<path d="M158.13,25.23L158.13,33.23" style="fill:none;stroke:#000000;stroke-width:0.5" />
<path d="M239.65,25.23L239.65,33.23" style="fill:none;stroke:#000000;stroke-width:0.5" />
<path d="M321.18,25.23L321.18,33.23" style="fill:none;stroke:#000000;stroke-width:0.5" />
<path d="M401.31,25.23L401.31,33.23" style="fill:none;stroke:#000000;stroke-width:0.5" />
<path d="M76.114,33.23L401.31,33.23" style="fill:none;stroke:#000000;stroke-width:0.5" />
<g transform="rotate(90)">
<text x="144.86" y="11.555" transform="scale(1, -1)"
	style="font-family:Times;font-weight:normal;font-style:normal;font-size:12px">speed</text>
</g>
<text x="20.416" y="-41.321" transform="scale(1, -1)"
	style="font-family:Times;font-weight:normal;font-style:normal;font-size:10px">2.00 mb/s</text>
<text x="15.416" y="-127.57" transform="scale(1, -1)"
	style="font-family:Times;font-weight:normal;font-style:normal;font-size:10px">10.00 mb/s</text>
<text x="15.416" y="-213.83" transform="scale(1, -1)"
	style="font-family:Times;font-weight:normal;font-style:normal;font-size:10px">18.00 mb/s</text>
<text x="15.416" y="-273.84" transform="scale(1, -1)"
	style="font-family:Times;font-weight:normal;font-style:normal;font-size:10px">23.57 mb/s</text>
<path d="M62.364,46.043L70.364,46.043" style="fill:none;stroke:#000000;stroke-width:0.5" />
<path d="M62.364,132.3L70.364,132.3" style="fill:none;stroke:#000000;stroke-width:0.5" />
<path d="M62.364,218.55L70.364,218.55" style="fill:none;stroke:#000000;stroke-width:0.5" />
<path d="M62.364,278.56L70.364,278.56" style="fill:none;stroke:#000000;stroke-width:0.5" />
<path d="M70.364,38.48L70.364,278.56" style="fill:none;stroke:#000000;stroke-width:0.5" />
<path d="M76.114,271.27L76.892,262.5L77.669,263.31L78.447,271.88L79.225,266.52L80.002,257.46L80.78,265.86L81.557,278.56L82.335,271.76L83.113,266.34L83.89,251.22L84.668,256.15L85.445,262.86L86.223,274.23L87.001,231.44L87.778,246.88L88.556,254.38L89.334,254.79L90.111,246.46L90.889,248.03L91.666,246.89L92.444,246.88L93.222,249.72L93.999,218.07L94.777,251.37L95.554,253.41L96.332,249.09L97.11,240.74L97.887,142.94L98.665,250.44L99.442,253.6L100.22,250.86L101,252.47L101.78,101.56L102.55,250.42L103.33,251.74L104.11,246.68L104.89,83.983L105.66,252.05L106.44,259.57L107.22,245.69L108,251.3L108.77,78.371L109.55,236.69L110.33,247.44L111.11,248.81L111.88,244.85L112.66,72.415L113.44,250.38L114.22,251.83L114.99,251.43L115.77,63.07L116.55,252.15L117.33,223.74L118.1,244.35L118.88,251.13L119.66,249.54L120.44,80.549L121.22,235.7L121.99,245.63L122.77,252.37L123.55,244.56L124.33,76.284L125.1,250.42L125.88,250.29L126.66,266.72L127.44,136.67L128.21,85.056L128.99,244.12L129.77,249.58L130.55,253.85L131.32,80.409L132.1,243.71L132.88,253.83L133.66,242.03L134.43,249.26L135.21,62.246L135.99,217.3L136.77,253.3L137.54,247.36L138.32,253.59L139.1,254.11L139.88,77.407L140.66,238.98L141.43,243.61L142.21,252.07L142.99,88.676L143.77,99.211L144.54,220.58L145.32,254.18L146.1,249.3L146.88,255.54L147.65,75.874L148.43,235.52L149.21,246.37L149.99,246.87L150.76,250.36L151.54,71.668L152.32,245.21L153.1,248.05L153.87,253.04L154.65,249.97L155.43,64.624L156.21,238.22L156.98,244.48L157.76,250.58L158.54,249.05L159.32,100.67L160.1,76.861L160.87,229.66L161.65,243.32L162.43,247.69L163.21,251.93L163.98,56.565L164.76,245.33L165.54,238.36L166.32,236.39L167.09,243.4L167.87,250.86L168.65,53.501L169.43,249.01L170.2,238.08L170.98,237.57L171.76,238.51L172.54,241.46L173.31,251.24L174.09,52.067L174.87,241.12L175.65,237.79L176.43,239.53L177.2,236.84L177.98,249.57L178.76,247.81L179.54,51.722L180.31,240.1L181.09,232.9L181.87,239.92L182.65,240.72L183.42,246.14L184.2,253.79L184.98,51.294L185.76,204.22L186.53,239.57L187.31,238.69L188.09,237.01L188.87,245.28L189.64,247.59L190.42,49.333L191.2,236.8L191.98,247.34L192.75,237.15L193.53,237.12L194.31,243.11L195.09,242.67L195.87,48.283L196.64,248.94L197.42,242.4L198.2,238.62L198.98,237.59L199.75,238.33L200.53,242.34L201.31,51.659L202.09,116.78L202.86,233.93L203.64,243.69L204.42,240.45L205.2,243.93L205.97,239.04L206.75,49.835L207.53,103.51L208.31,241.04L209.08,237.4L209.86,238.81L210.64,245L211.42,243.51L212.19,238.49L212.97,82.263L213.75,56.17L214.53,234.6L215.31,236.16L216.08,242.25L216.86,242.53L217.64,242.9L218.42,94.097L219.19,54.193L219.97,230.55L220.75,239.48L221.53,238.34L222.3,240.86L223.08,237.88L223.86,141.18L224.64,48.826L225.41,233.89L226.19,234.42L226.97,240.8L227.75,238.29L228.52,241.42L229.3,249.27L230.08,45.526L230.86,230.08L231.63,242.83L232.41,249.57L233.19,248.42L233.97,245.98L234.75,245.52L235.52,243.26L236.3,45.798L237.08,239.02L237.86,252.97L238.63,241.71L239.41,240.94L240.19,243.21L240.97,236.51L241.74,246.12L242.52,45.794L243.3,248.17L244.08,238.23L244.85,239.07L245.63,238.7L246.41,233.32L247.19,240.62L247.96,247.05L248.74,45.537L249.52,246.43L250.3,239.98L251.07,237.78L251.85,236.52L252.63,236.32L253.41,243.62L254.19,245.47L254.96,50.147L255.74,97.329L256.52,238.11L257.3,239.07L258.07,248.56L258.85,247.16L259.63,245.51L260.41,239.31L261.18,183.18L261.96,46.274L262.74,237.16L263.52,241.1L264.29,238.67L265.07,238.42L265.85,241.99L266.63,241.8L267.4,249.23L268.18,44.971L268.96,247.59L269.74,236.35L270.51,244.07L271.29,241.58L272.07,249.4L272.85,236.76L273.63,244.62L274.4,44.62L275.18,249.61L275.96,236.89L276.74,242.75L277.51,245.36L278.29,232.82L279.07,250.62L279.85,246.61L280.62,42.942L281.4,241.79L282.18,229.07L282.96,241.05L283.73,223.18L284.51,241.28L285.29,239.55L286.07,241.89L286.84,57.335L287.62,57.269L288.4,240.97L289.18,233.23L289.95,233.01L290.73,231.36L291.51,241.57L292.29,246.58L293.07,144.08L293.84,43.797L294.62,231.95L295.4,237.87L296.18,244.72L296.95,244.76L297.73,237.42L298.51,247.11L299.29,242.46L300.06,41.081L300.84,240.39L301.62,244.42L302.4,239.69L303.17,244.38L303.95,247.87L304.73,230.77L305.51,241.4L306.28,244.83L307.06,42.482L307.84,239.12L308.62,236.71L309.4,246.25L310.17,240.59L310.95,238.55L311.73,245.81L312.51,245.39L313.28,44.491L314.06,92.86L314.84,242.11L315.62,231.31L316.39,237.68L317.17,250.56L317.95,246.03L318.73,235.99L319.5,237.83L320.28,229.96L321.06,41.467L321.84,237.38L322.61,241.62L323.39,238.07L324.17,240.13L324.95,243.75L325.72,244.75L326.5,237.4L327.28,237.84L328.06,40.852L328.84,239.4L329.61,241.89L330.39,241.84L331.17,237.5L331.95,243.64L332.72,243.9L333.5,238.25L334.28,240.77L335.06,48.98L335.83,66.91L336.61,245.77L337.39,233.68L338.17,239.61L338.94,235.77L339.72,242.78L340.5,241.51L341.28,240.17L342.05,245.61L342.83,40.702L343.61,244.96L344.39,243.1L345.16,240.72L345.94,243.71L346.72,239.52L347.5,240.15L348.28,239.35L349.05,240.18L349.83,40.586L350.61,247.88L351.39,240.89L352.16,242.95L352.94,240.51L353.72,236.47L354.5,240.49L355.27,239.99L356.05,240.37L356.83,50.634L357.61,57.579L358.38,238.85L359.16,235.26L359.94,241.91L360.72,240.76L361.49,237.9L362.27,239.59L363.05,247.22L363.83,236.6L364.6,39.914L365.38,228.91L366.16,238.64L366.94,235.66L367.72,242.71L368.49,234.23L369.27,229.2L370.05,231.22L370.83,242.77L371.6,39.769L372.38,241.25L373.16,242.47L373.94,245.38L374.71,237.47L375.49,240.54L376.27,245.08L377.05,242.66L377.82,243.54L378.6,97.156L379.38,41.929L380.16,236.79L380.93,240.98L381.71,244.72L382.49,239.12L383.27,240.37L384.04,242.07L384.82,243.56L385.6,233.51L386.38,39.231L387.16,247.3L387.93,235.75L388.71,237.62L389.49,236.03L390.27,236.19L391.04,242.32L391.82,245.59L392.6,243.95L393.38,42.421L394.15,80.798L394.93,234.69L395.71,232.41L396.49,242.62L397.26,256.71L398.04,233.89L398.82,244.24L399.6,246.09L400.37,172.5L401.15,38.48L401.31,248.72" style="fill:none;stroke:#F15A60" />
<path d="M405.2,277.58L425.2,277.58" style="fill:none;stroke:#F15A60" />
<text x="350.89" y="-271.91" transform="scale(1, -1)"
	style="font-family:Times;font-weight:normal;font-style:normal;font-size:12px">concurrent</text>
</g>
</svg>
