<?xml version="1.0"?>
<!-- Generated by SVGo and Plotinum VG -->
<svg width="425.2pt" height="283.46pt" viewBox="0 0 425.2 283.46"
	xmlns="http://www.w3.org/2000/svg"
	xmlns:xlink="http://www.w3.org/1999/xlink">
<g transform="scale(1, -1) translate(0, -283.46)">
<path d="M0,0L425.2,0L425.2,283.46L0,283.46Z" style="fill:#FFFFFF" />
<text x="207.23" y="-3.8613" transform="scale(1, -1)"
	style="font-family:Times;font-weight:normal;font-style:normal;font-size:12px">database size</text>
<text x="60.221" y="-15.602" transform="scale(1, -1)"
	style="font-family:Times;font-weight:normal;font-style:normal;font-size:10px">4.00 mb</text>
<text x="136.74" y="-15.602" transform="scale(1, -1)"
	style="font-family:Times;font-weight:normal;font-style:normal;font-size:10px">260.00 mb</text>
<text x="218.26" y="-15.602" transform="scale(1, -1)"
	style="font-family:Times;font-weight:normal;font-style:normal;font-size:10px">516.00 mb</text>
<text x="299.79" y="-15.602" transform="scale(1, -1)"
	style="font-family:Times;font-weight:normal;font-style:normal;font-size:10px">772.00 mb</text>
<text x="377.42" y="-15.602" transform="scale(1, -1)"
	style="font-family:Times;font-weight:normal;font-style:normal;font-size:10px">1023.64 mb</text>
<path d="M76.61,25.23L76.61,33.23" style="fill:none;stroke:#000000;stroke-width:0.5" />
<path d="M158.13,25.23L158.13,33.23" style="fill:none;stroke:#000000;stroke-width:0.5" />
<path d="M239.65,25.23L239.65,33.23" style="fill:none;stroke:#000000;stroke-width:0.5" />
<path d="M321.18,25.23L321.18,33.23" style="fill:none;stroke:#000000;stroke-width:0.5" />
<path d="M401.31,25.23L401.31,33.23" style="fill:none;stroke:#000000;stroke-width:0.5" />
<path d="M76.114,33.23L401.31,33.23" style="fill:none;stroke:#000000;stroke-width:0.5" />
<g transform="rotate(90)">
<text x="144.86" y="11.555" transform="scale(1, -1)"
	style="font-family:Times;font-weight:normal;font-style:normal;font-size:12px">speed</text>
</g>
<text x="20.416" y="-42.216" transform="scale(1, -1)"
	style="font-family:Times;font-weight:normal;font-style:normal;font-size:10px">4.00 mb/s</text>
<text x="15.416" y="-121.57" transform="scale(1, -1)"
	style="font-family:Times;font-weight:normal;font-style:normal;font-size:10px">12.00 mb/s</text>
<text x="15.416" y="-200.92" transform="scale(1, -1)"
	style="font-family:Times;font-weight:normal;font-style:normal;font-size:10px">20.00 mb/s</text>
<text x="15.416" y="-273.84" transform="scale(1, -1)"
	style="font-family:Times;font-weight:normal;font-style:normal;font-size:10px">27.35 mb/s</text>
<path d="M62.364,46.937L70.364,46.937" style="fill:none;stroke:#000000;stroke-width:0.5" />
<path d="M62.364,126.29L70.364,126.29" style="fill:none;stroke:#000000;stroke-width:0.5" />
<path d="M62.364,205.64L70.364,205.64" style="fill:none;stroke:#000000;stroke-width:0.5" />
<path d="M62.364,278.56L70.364,278.56" style="fill:none;stroke:#000000;stroke-width:0.5" />
<path d="M70.364,38.48L70.364,278.56" style="fill:none;stroke:#000000;stroke-width:0.5" />
<path d="M76.114,274.06L76.892,265.54L77.669,270.95L78.447,268.97L79.225,255.96L80.002,260.55L80.78,274.85L81.557,278.56L82.335,277.43L83.113,230.67L83.89,264.65L84.668,259.9L85.445,276.81L86.223,278.15L87.001,267L87.778,266.26L88.556,250.81L89.334,277.87L90.111,276.89L90.889,262.84L91.666,258.09L92.444,218.15L93.222,273.46L93.999,270.99L94.777,263.37L95.554,259.59L96.332,261.79L97.11,240.85L97.887,264.56L98.665,261.78L99.442,264.12L100.22,259.2L101,212.68L101.78,239.44L102.55,257.01L103.33,236.88L104.11,262.6L104.89,141.91L105.66,260.8L106.44,262.75L107.22,250.87L108,265.64L108.77,130.73L109.55,232.27L110.33,259.25L111.11,259.57L111.88,132.11L112.66,251.19L113.44,263.96L114.22,233.18L114.99,263.89L115.77,113.22L116.55,257.81L117.33,260.69L118.1,255.64L118.88,265.23L119.66,115.92L120.44,260.52L121.22,263.98L121.99,261.5L122.77,258.56L123.55,128.34L124.33,266.06L125.1,240.88L125.88,239.21L126.66,140.3L127.44,214.3L128.21,247.03L128.99,253.64L129.77,265.19L130.55,99.543L131.32,258.89L132.1,262.45L132.88,255.93L133.66,261.44L134.43,110.68L135.21,263.48L135.99,256.29L136.77,263.9L137.54,113.95L138.32,255.46L139.1,263.85L139.88,242.75L140.66,261.53L141.43,117.48L142.21,258.27L142.99,260.66L143.77,255.16L144.54,255.16L145.32,136.23L146.1,261.84L146.88,262.81L147.65,250.84L148.43,99.147L149.21,229.64L149.99,254.05L150.76,261.57L151.54,239.45L152.32,77.307L153.1,243.28L153.87,235.38L154.65,252.47L155.43,244.54L156.21,262.52L156.98,75.264L157.76,248.95L158.54,251.81L159.32,238.91L160.1,259.88L160.87,255.48L161.65,74.928L162.43,232.83L163.21,238.8L163.98,263.51L164.76,260.82L165.54,262.39L166.32,70.47L167.09,208.83L167.87,259.13L168.65,240.13L169.43,259.54L170.2,74.328L170.98,222.91L171.76,224.31L172.54,251.1L173.31,258.39L174.09,241.59L174.87,70.586L175.65,235.48L176.43,223.04L177.2,252.58L177.98,262.59L178.76,238.14L179.54,68.795L180.31,229.5L181.09,251.34L181.87,259.89L182.65,234.83L183.42,262.53L184.2,65.448L184.98,248.92L185.76,219.16L186.53,230.74L187.31,242.39L188.09,258.77L188.87,66.45L189.64,241.23L190.42,250.33L191.2,258.5L191.98,257.61L192.75,252.8L193.53,66.893L194.31,205.41L195.09,250.12L195.87,257.5L196.64,246.73L197.42,62.984L198.2,230.7L198.98,222.52L199.75,249.71L200.53,242.4L201.31,255.74L202.09,63.709L202.86,244.55L203.64,245.93L204.42,249.64L205.2,229.78L205.97,247.07L206.75,61.235L207.53,227.87L208.31,247.03L209.08,230.2L209.86,263.29L210.64,263.13L211.42,61.622L212.19,238.78L212.97,222.21L213.75,247.2L214.53,260.9L215.31,263.68L216.08,55.527L216.86,230.88L217.64,218.19L218.42,254.13L219.19,254.05L219.97,255.4L220.75,60.974L221.53,242.7L222.3,237.37L223.08,251.69L223.86,253.64L224.64,257.29L225.41,57.39L226.19,235.36L226.97,221.6L227.75,254.68L228.52,245.9L229.3,52.575L230.08,247.68L230.86,229.84L231.63,245.71L232.41,232.05L233.19,263.94L233.97,259.77L234.75,107.19L235.52,99.717L236.3,246.65L237.08,228.56L237.86,260.56L238.63,264.64L239.41,60.418L240.19,251.19L240.97,230.76L241.74,225.76L242.52,238.88L243.3,261.33L244.08,51.567L244.85,245.44L245.63,236.49L246.41,219.93L247.19,217.95L247.96,261.92L248.74,262.15L249.52,65.179L250.3,248.64L251.07,248.21L251.85,210.02L252.63,246.5L253.41,250.98L254.19,50.368L254.96,246.8L255.74,251.07L256.52,245.93L257.3,249.62L258.07,264.96L258.85,239.75L259.63,61.42L260.41,245.64L261.18,239.3L261.96,227.87L262.74,229.51L263.52,240.13L264.29,50.067L265.07,213.05L265.85,228.07L266.63,249.59L267.4,228.19L268.18,255.73L268.96,264.86L269.74,50.916L270.51,240.43L271.29,248.53L272.07,224.24L272.85,252.3L273.63,260.68L274.4,239.4L275.18,59.088L275.96,244.69L276.74,231.89L277.51,250.76L278.29,254.4L279.07,240.89L279.85,48.528L280.62,255.88L281.4,242.16L282.18,224.12L282.96,223.32L283.73,253.87L284.51,260.09L285.29,47.465L286.07,240.38L286.84,238.81L287.62,230.08L288.4,226.39L289.18,259.78L289.95,261.79L290.73,50.085L291.51,218.61L292.29,229.18L293.07,234.6L293.84,213.02L294.62,224.59L295.4,263.68L296.18,49.528L296.95,224.15L297.73,213.53L298.51,253.53L299.29,245.62L300.06,235.84L300.84,258.93L301.62,50.396L302.4,244.19L303.17,249.31L303.95,248.25L304.73,247.46L305.51,230.8L306.28,244.34L307.06,50.175L307.84,245.26L308.62,216.95L309.4,252.08L310.17,228.77L310.95,250.37L311.73,246.97L312.51,48.642L313.28,230.37L314.06,224.03L314.84,232.69L315.62,209.96L316.39,251.87L317.17,257.98L317.95,47.37L318.73,226.63L319.5,251.21L320.28,251.82L321.06,228.16L321.84,254.71L322.61,238.59L323.39,48.03L324.17,237.61L324.95,226.26L325.72,224.74L326.5,231.19L327.28,232.84L328.06,243.48L328.84,46.254L329.61,242.44L330.39,252.98L331.17,251L331.95,245.75L332.72,251.84L333.5,261.31L334.28,46.812L335.06,222.64L335.83,232.46L336.61,227.21L337.39,237.17L338.17,253.84L338.94,256.9L339.72,46.715L340.5,243.27L341.28,233.39L342.05,250.11L342.83,240.6L343.61,231.46L344.39,264.73L345.16,44.821L345.94,227.95L346.72,248.78L347.5,225.53L348.28,240.32L349.05,257.48L349.83,260.12L350.61,45.225L351.39,247.21L352.16,249.21L352.94,254.06L353.72,218.06L354.5,233.16L355.27,258.83L356.05,44.231L356.83,215.93L357.61,240.61L358.38,220.89L359.16,234.77L359.94,242.81L360.72,256.32L361.49,40.721L362.27,249.32L363.05,233.38L363.83,227.49L364.6,226.05L365.38,226.94L366.16,236.16L366.94,43.29L367.72,246.22L368.49,228.04L369.27,227.02L370.05,247.82L370.83,230.25L371.6,239.67L372.38,42.793L373.16,221.45L373.94,251.87L374.71,246.68L375.49,228.78L376.27,259.25L377.05,261.74L377.82,43.598L378.6,248.12L379.38,246.74L380.16,241.56L380.93,249.18L381.71,213.26L382.49,254.94L383.27,41.11L384.04,235.92L384.82,233.27L385.6,234.34L386.38,230.94L387.16,236.02L387.93,222.74L388.71,39.966L389.49,250.44L390.27,227.14L391.04,227.6L391.82,254.46L392.6,211.06L393.38,255.36L394.15,38.48L394.93,247.88L395.71,222.12L396.49,249.3L397.26,250.86L398.04,230.53L398.82,239.28L399.6,245.13L400.37,38.539L401.15,232.26L401.31,244.31" style="fill:none;stroke:#F15A60" />
<path d="M405.2,277.58L425.2,277.58" style="fill:none;stroke:#F15A60" />
<text x="326.22" y="-271.91" transform="scale(1, -1)"
	style="font-family:Times;font-weight:normal;font-style:normal;font-size:12px">nobatch-nosync</text>
</g>
</svg>
