<?xml version="1.0"?>
<!-- Generated by SVGo and Plotinum VG -->
<svg width="425.2pt" height="283.46pt" viewBox="0 0 425.2 283.46"
	xmlns="http://www.w3.org/2000/svg"
	xmlns:xlink="http://www.w3.org/1999/xlink">
<g transform="scale(1, -1) translate(0, -283.46)">
<path d="M0,0L425.2,0L425.2,283.46L0,283.46Z" style="fill:#FFFFFF" />
<text x="207.23" y="-3.8613" transform="scale(1, -1)"
	style="font-family:Times;font-weight:normal;font-style:normal;font-size:12px">database size</text>
<text x="60.221" y="-15.602" transform="scale(1, -1)"
	style="font-family:Times;font-weight:normal;font-style:normal;font-size:10px">4.00 mb</text>
<text x="136.74" y="-15.602" transform="scale(1, -1)"
	style="font-family:Times;font-weight:normal;font-style:normal;font-size:10px">260.00 mb</text>
<text x="218.26" y="-15.602" transform="scale(1, -1)"
	style="font-family:Times;font-weight:normal;font-style:normal;font-size:10px">516.00 mb</text>
<text x="299.79" y="-15.602" transform="scale(1, -1)"
	style="font-family:Times;font-weight:normal;font-style:normal;font-size:10px">772.00 mb</text>
<text x="377.42" y="-15.602" transform="scale(1, -1)"
	style="font-family:Times;font-weight:normal;font-style:normal;font-size:10px">1023.64 mb</text>
<path d="M76.61,25.23L76.61,33.23" style="fill:none;stroke:#000000;stroke-width:0.5" />
<path d="M158.13,25.23L158.13,33.23" style="fill:none;stroke:#000000;stroke-width:0.5" />
<path d="M239.65,25.23L239.65,33.23" style="fill:none;stroke:#000000;stroke-width:0.5" />
<path d="M321.18,25.23L321.18,33.23" style="fill:none;stroke:#000000;stroke-width:0.5" />
<path d="M401.31,25.23L401.31,33.23" style="fill:none;stroke:#000000;stroke-width:0.5" />
<path d="M76.114,33.23L401.31,33.23" style="fill:none;stroke:#000000;stroke-width:0.5" />
<g transform="rotate(90)">
<text x="144.86" y="11.555" transform="scale(1, -1)"
	style="font-family:Times;font-weight:normal;font-style:normal;font-size:12px">speed</text>
</g>
<text x="20.416" y="-33.817" transform="scale(1, -1)"
	style="font-family:Times;font-weight:normal;font-style:normal;font-size:10px">1.00 mb/s</text>
<text x="15.416" y="-100.69" transform="scale(1, -1)"
	style="font-family:Times;font-weight:normal;font-style:normal;font-size:10px">17.00 mb/s</text>
<text x="15.416" y="-167.56" transform="scale(1, -1)"
	style="font-family:Times;font-weight:normal;font-style:normal;font-size:10px">33.00 mb/s</text>
<text x="15.416" y="-234.43" transform="scale(1, -1)"
	style="font-family:Times;font-weight:normal;font-style:normal;font-size:10px">49.00 mb/s</text>
<text x="15.416" y="-273.84" transform="scale(1, -1)"
	style="font-family:Times;font-weight:normal;font-style:normal;font-size:10px">58.43 mb/s</text>
<path d="M62.364,38.539L70.364,38.539" style="fill:none;stroke:#000000;stroke-width:0.5" />
<path d="M62.364,105.41L70.364,105.41" style="fill:none;stroke:#000000;stroke-width:0.5" />
<path d="M62.364,172.28L70.364,172.28" style="fill:none;stroke:#000000;stroke-width:0.5" />
<path d="M62.364,239.15L70.364,239.15" style="fill:none;stroke:#000000;stroke-width:0.5" />
<path d="M62.364,278.56L70.364,278.56" style="fill:none;stroke:#000000;stroke-width:0.5" />
<path d="M70.364,38.48L70.364,278.56" style="fill:none;stroke:#000000;stroke-width:0.5" />
<path d="M76.114,208.57L76.892,232.93L77.669,220.93L78.447,218.61L79.225,253.29L80.002,242.65L80.78,232.16L81.557,240.25L82.335,229.39L83.113,228.56L83.89,246.77L84.668,250.3L85.445,243.27L86.223,244.2L87.001,221.97L87.778,216.3L88.556,252.14L89.334,242.05L90.111,229.89L90.889,213.92L91.666,234.57L92.444,57.958L93.222,253.79L93.999,202.08L94.777,155.75L95.554,248.22L96.332,234.35L97.11,236.95L97.887,235.29L98.665,224.02L99.442,234L100.22,246.02L101,239.71L101.78,250.22L102.55,227.65L103.33,231.85L104.11,92.342L104.89,215.21L105.66,256.17L106.44,229.47L107.22,204.44L108,63.638L108.77,232.5L109.55,247.52L110.33,256.39L111.11,240.78L111.88,71.144L112.66,49.994L113.44,181.95L114.22,220.84L114.99,236.92L115.77,240.82L116.55,237.9L117.33,46.756L118.1,226.27L118.88,245.5L119.66,244.14L120.44,226.8L121.22,215.25L121.99,250.26L122.77,207.66L123.55,45.987L124.33,251.76L125.1,240.38L125.88,252.74L126.66,217.29L127.44,242.17L128.21,228.42L128.99,246.01L129.77,240.39L130.55,44.602L131.32,237.34L132.1,256.6L132.88,235.18L133.66,229.31L134.43,244.47L135.21,222.55L135.99,227.96L136.77,249.49L137.54,228.63L138.32,43.446L139.1,201.44L139.88,229.39L140.66,233.84L141.43,234.02L142.21,228.32L142.99,236.02L143.77,233.49L144.54,256.96L145.32,244.98L146.1,42.78L146.88,228.47L147.65,259.04L148.43,237.14L149.21,249.81L149.99,244.95L150.76,243.19L151.54,238.02L152.32,236.13L153.1,246.31L153.87,244.15L154.65,42.241L155.43,218.47L156.21,240.07L156.98,237.34L157.76,246.32L158.54,251.65L159.32,254.14L160.1,235.4L160.87,253.76L161.65,248.37L162.43,41.534L163.21,241.91L163.98,229.51L164.76,237.99L165.54,217.01L166.32,251.07L167.09,220.36L167.87,243.6L168.65,246.17L169.43,256.28L170.2,240.91L170.98,41.146L171.76,217.47L172.54,240.77L173.31,239.02L174.09,249.97L174.87,230.06L175.65,231.96L176.43,230.51L177.2,224.45L177.98,231.46L178.76,40.859L179.54,228.83L180.31,233.27L181.09,234.64L181.87,245.11L182.65,229.12L183.42,251.44L184.2,230.57L184.98,240.22L185.76,241.69L186.53,241.29L187.31,40.712L188.09,238.16L188.87,239.96L189.64,228.64L190.42,232.61L191.2,256.27L191.98,241.52L192.75,235.93L193.53,257.16L194.31,247.75L195.09,40.683L195.87,248.66L196.64,251.49L197.42,236.85L198.2,252.19L198.98,239.6L199.75,244.96L200.53,238.35L201.31,230.34L202.09,241.98L202.86,244.62L203.64,40.358L204.42,237.6L205.2,254.56L205.97,243.13L206.75,260.79L207.53,243.67L208.31,242.07L209.08,218.16L209.86,245.56L210.64,227.2L211.42,40.257L212.19,209.55L212.97,242.91L213.75,249.09L214.53,241.07L215.31,223.88L216.08,245.64L216.86,243.44L217.64,252.73L218.42,239.12L219.19,236.96L219.97,40.202L220.75,232.09L221.53,239.37L222.3,235.09L223.08,247.58L223.86,248.51L224.64,155.25L225.41,216.82L226.19,229.33L226.97,211.03L227.75,39.942L228.52,180.08L229.3,203.62L230.08,210.28L230.86,213.32L231.63,202.76L232.41,247.59L233.19,203.86L233.97,193.77L234.75,232.46L235.52,204.01L236.3,67.81L237.08,199.08L237.86,238.56L238.63,231.6L239.41,248.55L240.19,234.42L240.97,249.66L241.74,252.68L242.52,239.76L243.3,234.38L244.08,249.98L244.85,54.582L245.63,239.64L246.41,225.37L247.19,227.23L247.96,244.69L248.74,252.77L249.52,250.67L250.3,250.88L251.07,232.63L251.85,52.598L252.63,227.31L253.41,236.67L254.19,62.401L254.96,227.24L255.74,241.02L256.52,232.36L257.3,250.66L258.07,216.74L258.85,47.544L259.63,228.76L260.41,241.82L261.18,228.89L261.96,240.85L262.74,227.42L263.52,227.15L264.29,46.231L265.07,229.1L265.85,224.47L266.63,241.96L267.4,247.02L268.18,205.15L268.96,43.944L269.74,231.66L270.51,230.8L271.29,233.64L272.07,227.46L272.85,239.88L273.63,241.74L274.4,254.38L275.18,228.96L275.96,43.122L276.74,232.33L277.51,243L278.29,234.87L279.07,232.37L279.85,242.11L280.62,230.99L281.4,221.3L282.18,240.44L282.96,42.357L283.73,253.56L284.51,191.87L285.29,247.87L286.07,231.11L286.84,256.27L287.62,219.66L288.4,236.6L289.18,233.64L289.95,41.861L290.73,241.74L291.51,244.7L292.29,245.56L293.07,229.9L293.84,231.21L294.62,249.27L295.4,217.94L296.18,248.84L296.95,230.95L297.73,41.664L298.51,227.76L299.29,250.67L300.06,233.41L300.84,209.8L301.62,231.29L302.4,246.65L303.17,249.39L303.95,243.11L304.73,41.095L305.51,227.48L306.28,217.4L307.06,236.68L307.84,241.3L308.62,235.27L309.4,234.1L310.17,215.32L310.95,212.73L311.73,257.36L312.51,223.25L313.28,38.966L314.06,228.14L314.84,241.19L315.62,222.79L316.39,212.96L317.17,225.47L317.95,239.49L318.73,234.98L319.5,241.08L320.28,244.67L321.06,38.898L321.84,229.12L322.61,241.49L323.39,247.68L324.17,241.42L324.95,235.32L325.72,228.24L326.5,228.7L327.28,256.18L328.06,225.19L328.84,240.16L329.61,38.648L330.39,234.67L331.17,245.27L331.95,221.66L332.72,217.5L333.5,232.98L334.28,225.59L335.06,248.13L335.83,243.27L336.61,231.85L337.39,38.64L338.17,215.38L338.94,233.11L339.72,222.8L340.5,213.22L341.28,240.39L342.05,221.67L342.83,222.33L343.61,221.12L344.39,247.93L345.16,216.74L345.94,38.505L346.72,248.8L347.5,249.19L348.28,210.39L349.05,182.9L349.83,190.68L350.61,232.38L351.39,218.13L352.16,230.76L352.94,225.02L353.72,38.646L354.5,212.38L355.27,238.79L356.05,237.78L356.83,232.21L357.61,253.3L358.38,236.02L359.16,246.86L359.94,206.35L360.72,224.64L361.49,225.47L362.27,38.558L363.05,234.22L363.83,223.2L364.6,205.42L365.38,247.87L366.16,236.53L366.94,238.12L367.72,231.75L368.49,212.4L369.27,230.1L370.05,38.757L370.83,230.26L371.6,216.5L372.38,253.1L373.16,246.2L373.94,235.99L374.71,237.68L375.49,227.83L376.27,226.9L377.05,225.1L377.82,241.7L378.6,38.665L379.38,240.35L380.16,234.95L380.93,210.78L381.71,243.37L382.49,233.39L383.27,252.32L384.04,250.9L384.82,235.47L385.6,239.94L386.38,39.084L387.16,235.79L387.93,229.62L388.71,240.16L389.49,193.45L390.27,225.06L391.04,229.71L391.82,248.39L392.6,246.31L393.38,245.36L394.15,230.5L394.93,38.48L395.71,228.15L396.49,229.24L397.26,217.52L398.04,248.7L398.82,168.17L399.6,242.22L400.37,227.36L401.15,239.39L401.31,278.56" style="fill:none;stroke:#F15A60" />
<path d="M405.2,277.58L425.2,277.58" style="fill:none;stroke:#F15A60" />
<text x="326.22" y="-271.91" transform="scale(1, -1)"
	style="font-family:Times;font-weight:normal;font-style:normal;font-size:12px">nobatch-nosync</text>
</g>
</svg>
