<?xml version="1.0"?>
<!-- Generated by SVGo and Plotinum VG -->
<svg width="425.2pt" height="283.46pt" viewBox="0 0 425.2 283.46"
	xmlns="http://www.w3.org/2000/svg"
	xmlns:xlink="http://www.w3.org/1999/xlink">
<g transform="scale(1, -1) translate(0, -283.46)">
<path d="M0,0L425.2,0L425.2,283.46L0,283.46Z" style="fill:#FFFFFF" />
<text x="207.23" y="-3.8613" transform="scale(1, -1)"
	style="font-family:Times;font-weight:normal;font-style:normal;font-size:12px">database size</text>
<text x="60.221" y="-15.602" transform="scale(1, -1)"
	style="font-family:Times;font-weight:normal;font-style:normal;font-size:10px">4.00 mb</text>
<text x="136.74" y="-15.602" transform="scale(1, -1)"
	style="font-family:Times;font-weight:normal;font-style:normal;font-size:10px">260.00 mb</text>
<text x="218.26" y="-15.602" transform="scale(1, -1)"
	style="font-family:Times;font-weight:normal;font-style:normal;font-size:10px">516.00 mb</text>
<text x="299.79" y="-15.602" transform="scale(1, -1)"
	style="font-family:Times;font-weight:normal;font-style:normal;font-size:10px">772.00 mb</text>
<text x="377.42" y="-15.602" transform="scale(1, -1)"
	style="font-family:Times;font-weight:normal;font-style:normal;font-size:10px">1023.64 mb</text>
<path d="M76.61,25.23L76.61,33.23" style="fill:none;stroke:#000000;stroke-width:0.5" />
<path d="M158.13,25.23L158.13,33.23" style="fill:none;stroke:#000000;stroke-width:0.5" />
<path d="M239.65,25.23L239.65,33.23" style="fill:none;stroke:#000000;stroke-width:0.5" />
<path d="M321.18,25.23L321.18,33.23" style="fill:none;stroke:#000000;stroke-width:0.5" />
<path d="M401.31,25.23L401.31,33.23" style="fill:none;stroke:#000000;stroke-width:0.5" />
<path d="M76.114,33.23L401.31,33.23" style="fill:none;stroke:#000000;stroke-width:0.5" />
<g transform="rotate(90)">
<text x="144.86" y="11.555" transform="scale(1, -1)"
	style="font-family:Times;font-weight:normal;font-style:normal;font-size:12px">speed</text>
</g>
<text x="20.416" y="-34.064" transform="scale(1, -1)"
	style="font-family:Times;font-weight:normal;font-style:normal;font-size:10px">0.50 mb/s</text>
<text x="20.416" y="-108.39" transform="scale(1, -1)"
	style="font-family:Times;font-weight:normal;font-style:normal;font-size:10px">8.50 mb/s</text>
<text x="15.416" y="-182.72" transform="scale(1, -1)"
	style="font-family:Times;font-weight:normal;font-style:normal;font-size:10px">16.50 mb/s</text>
<text x="15.416" y="-257.05" transform="scale(1, -1)"
	style="font-family:Times;font-weight:normal;font-style:normal;font-size:10px">24.50 mb/s</text>
<text x="15.416" y="-273.84" transform="scale(1, -1)"
	style="font-family:Times;font-weight:normal;font-style:normal;font-size:10px">26.31 mb/s</text>
<path d="M62.364,38.786L70.364,38.786" style="fill:none;stroke:#000000;stroke-width:0.5" />
<path d="M62.364,113.12L70.364,113.12" style="fill:none;stroke:#000000;stroke-width:0.5" />
<path d="M62.364,187.45L70.364,187.45" style="fill:none;stroke:#000000;stroke-width:0.5" />
<path d="M62.364,261.78L70.364,261.78" style="fill:none;stroke:#000000;stroke-width:0.5" />
<path d="M62.364,278.56L70.364,278.56" style="fill:none;stroke:#000000;stroke-width:0.5" />
<path d="M70.364,38.48L70.364,278.56" style="fill:none;stroke:#000000;stroke-width:0.5" />
<path d="M76.114,278.56L76.892,221L77.669,246.18L78.447,172.05L79.225,201.45L80.002,151.94L80.78,107.35L81.557,134.14L82.335,88.396L83.113,99.46L83.89,140.7L84.668,81.709L85.445,85.983L86.223,76.469L87.001,198.97L87.778,59.378L88.556,169.86L89.334,72.167L90.111,69.759L90.889,74.174L91.666,106.51L92.444,99.472L93.222,244.89L93.999,183.75L94.777,198.74L95.554,162.23L96.332,110.91L97.11,143.49L97.887,104.19L98.665,90.918L99.442,150L100.22,87.72L101,89.194L101.78,80.653L102.55,188.2L103.33,59.542L104.11,189.4L104.89,77.204L105.66,66.114L106.44,78.664L107.22,62.944L108,68.859L108.77,154.29L109.55,66.058L110.33,58.739L111.11,83.309L111.88,57.078L112.66,61.814L113.44,56.308L114.22,64.712L114.99,54.19L115.77,64.426L116.55,64.404L117.33,62.49L118.1,64.185L118.88,52.264L119.66,65.191L120.44,64.902L121.22,47.134L121.99,151.47L122.77,51.95L123.55,90.2L124.33,65.43L125.1,52.21L125.88,65.646L126.66,58.016L127.44,65.137L128.21,50.791L128.99,62.274L129.77,64.582L130.55,51.855L131.32,56.477L132.1,59.932L132.88,62.067L133.66,61.104L134.43,49.494L135.21,57.211L135.99,54.877L136.77,62.145L137.54,62.727L138.32,62.101L139.1,62.692L139.88,61.714L140.66,47.524L141.43,163.93L142.21,47.321L142.99,143.19L143.77,51.459L144.54,62.761L145.32,74.774L146.1,50.219L146.88,58.372L147.65,62.071L148.43,62.041L149.21,63.122L149.99,62.705L150.76,52.238L151.54,49.106L152.32,69.064L153.1,49.885L153.87,60.698L154.65,58.711L155.43,56.928L156.21,61.174L156.98,58.67L157.76,59.692L158.54,48.468L159.32,59.97L160.1,60.405L160.87,60.488L161.65,61.308L162.43,60.674L163.21,45.032L163.98,59.256L164.76,60.144L165.54,60.013L166.32,51.705L167.09,58.532L167.87,60.698L168.65,47.459L169.43,65.102L170.2,52.357L170.98,49.499L171.76,58.581L172.54,59.134L173.31,60.144L174.09,52.269L174.87,47.608L175.65,166.58L176.43,47.808L177.2,59.937L177.98,59.502L178.76,57.953L179.54,59.957L180.31,58.741L181.09,60.651L181.87,60.751L182.65,58.432L183.42,51.267L184.2,58.537L184.98,48.638L185.76,58.6L186.53,58.82L187.31,50.026L188.09,50.632L188.87,57.247L189.64,59.375L190.42,57.789L191.2,59.88L191.98,58.152L192.75,67.094L193.53,47.675L194.31,166.07L195.09,48.454L195.87,57.952L196.64,59.231L197.42,57.504L198.2,59.893L198.98,55.12L199.75,75.037L200.53,58.563L201.31,58.455L202.09,58.667L202.86,59.388L203.64,48.362L204.42,58.497L205.2,57.963L205.97,58.759L206.75,58.832L207.53,58.51L208.31,58.36L209.08,57.947L209.86,58.831L210.64,59.072L211.42,58.565L212.19,144.18L212.97,48.408L213.75,60.868L214.53,51.875L215.31,64.617L216.08,51.267L216.86,56.915L217.64,57.633L218.42,57.022L219.19,56.695L219.97,58.667L220.75,58.017L221.53,56.861L222.3,57.111L223.08,57.35L223.86,49.028L224.64,45.734L225.41,158.86L226.19,56.936L226.97,56.729L227.75,57.538L228.52,55.838L229.3,57.744L230.08,58.279L230.86,46.965L231.63,54.182L232.41,56.638L233.19,56.967L233.97,160.88L234.75,225.83L235.52,206.55L236.3,172.13L237.08,126.56L237.86,134.5L238.63,95.721L239.41,112.09L240.19,93.588L240.97,197.41L241.74,84.591L242.52,82.585L243.3,98.811L244.08,113.85L244.85,78.295L245.63,72.934L246.41,171.91L247.19,72.52L247.96,63.272L248.74,169.77L249.52,64.291L250.3,64.646L251.07,65.773L251.85,85.591L252.63,54.525L253.41,54.415L254.19,59.632L254.96,107.6L255.74,51.701L256.52,68.208L257.3,62.16L258.07,65.953L258.85,94.514L259.63,56.25L260.41,64.961L261.18,56.979L261.96,58.462L262.74,57.475L263.52,52.001L264.29,64.185L265.07,62.507L265.85,60.038L266.63,54.416L267.4,63.099L268.18,63.73L268.96,51.81L269.74,51.757L270.51,59.907L271.29,65.43L272.07,57.605L272.85,55.947L273.63,56.09L274.4,52.492L275.18,52.014L275.96,59.719L276.74,60.074L277.51,53.343L278.29,53.206L279.07,54.603L279.85,55.122L280.62,47.316L281.4,59.613L282.18,54.473L282.96,52.177L283.73,58.864L284.51,51.844L285.29,50.79L286.07,100.79L286.84,57.903L287.62,47.982L288.4,54.928L289.18,58.602L289.95,53.444L290.73,46.467L291.51,56.057L292.29,56.329L293.07,47.768L293.84,56.323L294.62,57.84L295.4,50.1L296.18,57.218L296.95,45.167L297.73,56.737L298.51,55.797L299.29,55.771L300.06,55.84L300.84,55.831L301.62,47.655L302.4,55.778L303.17,56.032L303.95,55.439L304.73,55.01L305.51,54.344L306.28,55.288L307.06,55.466L307.84,55.466L308.62,54.919L309.4,45.452L310.17,53.593L310.95,54.709L311.73,54.562L312.51,51.747L313.28,53.956L314.06,54.619L314.84,54.481L315.62,53.764L316.39,54.19L317.17,53.578L317.95,53.822L318.73,53.782L319.5,54.58L320.28,54.286L321.06,54.448L321.84,54.387L322.61,53.679L323.39,54.185L324.17,53.585L324.95,54.284L325.72,53.66L326.5,54.123L327.28,54.129L328.06,54.545L328.84,54.174L329.61,160.17L330.39,53.532L331.17,53.898L331.95,53.675L332.72,52.927L333.5,54.26L334.28,54.375L335.06,54.354L335.83,53.684L336.61,53.378L337.39,54.539L338.17,54.442L338.94,54.051L339.72,53.911L340.5,53.787L341.28,53.517L342.05,53.771L342.83,54.101L343.61,163.57L344.39,44.853L345.16,154.31L345.94,53.267L346.72,54.581L347.5,54.319L348.28,54.044L349.05,54.558L349.83,53.575L350.61,53.02L351.39,51.168L352.16,52.696L352.94,52.859L353.72,53.94L354.5,53.811L355.27,53.382L356.05,54.04L356.83,53.977L357.61,53.832L358.38,53.281L359.16,53.08L359.94,53.462L360.72,53.009L361.49,151.03L362.27,53.006L363.05,52.273L363.83,52.876L364.6,53.921L365.38,53.041L366.16,52.398L366.94,53.115L367.72,53.562L368.49,53.447L369.27,52.872L370.05,53.154L370.83,52.51L371.6,160.95L372.38,52.219L373.16,51.887L373.94,49.857L374.71,51.854L375.49,53.103L376.27,52.928L377.05,52.93L377.82,52.859L378.6,52.991L379.38,52.987L380.16,53.311L380.93,52.258L381.71,53.382L382.49,52.324L383.27,52.715L384.04,52.542L384.82,52.586L385.6,52.985L386.38,52.432L387.16,52.29L387.93,53.258L388.71,52.221L389.49,52.677L390.27,52.56L391.04,52.44L391.82,50.153L392.6,51.897L393.38,53.113L394.15,52.358L394.93,53.236L395.71,52.912L396.49,52.697L397.26,154.27L398.04,52.311L398.82,52.808L399.6,52.687L400.37,52.622L401.15,53.178L401.31,38.48" style="fill:none;stroke:#F15A60" />
<path d="M405.2,277.58L425.2,277.58" style="fill:none;stroke:#F15A60" />
<text x="326.22" y="-271.91" transform="scale(1, -1)"
	style="font-family:Times;font-weight:normal;font-style:normal;font-size:12px">nobatch-nosync</text>
</g>
</svg>
