<?xml version="1.0"?>
<!-- Generated by SVGo and Plotinum VG -->
<svg width="425.2pt" height="283.46pt" viewBox="0 0 425.2 283.46"
	xmlns="http://www.w3.org/2000/svg"
	xmlns:xlink="http://www.w3.org/1999/xlink">
<g transform="scale(1, -1) translate(0, -283.46)">
<path d="M0,0L425.2,0L425.2,283.46L0,283.46Z" style="fill:#FFFFFF" />
<text x="207.23" y="-3.8613" transform="scale(1, -1)"
	style="font-family:Times;font-weight:normal;font-style:normal;font-size:12px">database size</text>
<text x="60.221" y="-15.602" transform="scale(1, -1)"
	style="font-family:Times;font-weight:normal;font-style:normal;font-size:10px">4.00 mb</text>
<text x="136.74" y="-15.602" transform="scale(1, -1)"
	style="font-family:Times;font-weight:normal;font-style:normal;font-size:10px">260.00 mb</text>
<text x="218.26" y="-15.602" transform="scale(1, -1)"
	style="font-family:Times;font-weight:normal;font-style:normal;font-size:10px">516.00 mb</text>
<text x="299.79" y="-15.602" transform="scale(1, -1)"
	style="font-family:Times;font-weight:normal;font-style:normal;font-size:10px">772.00 mb</text>
<text x="377.42" y="-15.602" transform="scale(1, -1)"
	style="font-family:Times;font-weight:normal;font-style:normal;font-size:10px">1023.64 mb</text>
<path d="M76.61,25.23L76.61,33.23" style="fill:none;stroke:#000000;stroke-width:0.5" />
<path d="M158.13,25.23L158.13,33.23" style="fill:none;stroke:#000000;stroke-width:0.5" />
<path d="M239.65,25.23L239.65,33.23" style="fill:none;stroke:#000000;stroke-width:0.5" />
<path d="M321.18,25.23L321.18,33.23" style="fill:none;stroke:#000000;stroke-width:0.5" />
<path d="M401.31,25.23L401.31,33.23" style="fill:none;stroke:#000000;stroke-width:0.5" />
<path d="M76.114,33.23L401.31,33.23" style="fill:none;stroke:#000000;stroke-width:0.5" />
<g transform="rotate(90)">
<text x="144.86" y="11.555" transform="scale(1, -1)"
	style="font-family:Times;font-weight:normal;font-style:normal;font-size:12px">speed</text>
</g>
<text x="20.416" y="-40.942" transform="scale(1, -1)"
	style="font-family:Times;font-weight:normal;font-style:normal;font-size:10px">4.00 mb/s</text>
<text x="15.416" y="-120.26" transform="scale(1, -1)"
	style="font-family:Times;font-weight:normal;font-style:normal;font-size:10px">12.00 mb/s</text>
<text x="15.416" y="-199.58" transform="scale(1, -1)"
	style="font-family:Times;font-weight:normal;font-style:normal;font-size:10px">20.00 mb/s</text>
<text x="15.416" y="-273.84" transform="scale(1, -1)"
	style="font-family:Times;font-weight:normal;font-style:normal;font-size:10px">27.49 mb/s</text>
<path d="M62.364,45.664L70.364,45.664" style="fill:none;stroke:#000000;stroke-width:0.5" />
<path d="M62.364,124.98L70.364,124.98" style="fill:none;stroke:#000000;stroke-width:0.5" />
<path d="M62.364,204.3L70.364,204.3" style="fill:none;stroke:#000000;stroke-width:0.5" />
<path d="M62.364,278.56L70.364,278.56" style="fill:none;stroke:#000000;stroke-width:0.5" />
<path d="M70.364,38.48L70.364,278.56" style="fill:none;stroke:#000000;stroke-width:0.5" />
<path d="M76.114,272.47L76.892,249.14L77.669,267.48L78.447,273.33L79.225,270.64L80.002,259.09L80.78,272.61L81.557,278.56L82.335,274.26L83.113,268.86L83.89,239.94L84.668,257.43L85.445,278.06L86.223,275.66L87.001,269.58L87.778,240.24L88.556,248.52L89.334,276.12L90.111,271.95L90.889,264.15L91.666,258.45L92.444,242.37L93.222,271.71L93.999,251.1L94.777,238.63L95.554,257.8L96.332,262.06L97.11,237.22L97.887,241.17L98.665,249.92L99.442,262.05L100.22,262.27L101,199.16L101.78,262.73L102.55,261.52L103.33,262L104.11,262.3L104.89,148.29L105.66,263.13L106.44,262.18L107.22,260.35L108,265.94L108.77,136.08L109.55,254.58L110.33,261.21L111.11,262.31L111.88,130.08L112.66,209.39L113.44,238.85L114.22,239.87L114.99,262.68L115.77,108.56L116.55,255.15L117.33,259.39L118.1,255.51L118.88,260.47L119.66,114.85L120.44,264.95L121.22,265.31L121.99,237.15L122.77,245.84L123.55,126.31L124.33,265.65L125.1,245.26L125.88,220.62L126.66,138.89L127.44,242.33L128.21,245.67L128.99,258.3L129.77,261.13L130.55,100.89L131.32,227.48L132.1,257.35L132.88,258.19L133.66,258.1L134.43,106.94L135.21,262.2L135.99,260.96L136.77,264.48L137.54,116.59L138.32,258.59L139.1,236.06L139.88,256.62L140.66,262.66L141.43,120.59L142.21,263.44L142.99,262.1L143.77,259.25L144.54,259.99L145.32,136.52L146.1,262.39L146.88,264.55L147.65,263.86L148.43,98.394L149.21,243.78L149.99,228.33L150.76,258.31L151.54,234.84L152.32,77.52L153.1,237.78L153.87,255.14L154.65,246.33L155.43,251.05L156.21,259.8L156.98,74.65L157.76,250.95L158.54,236.46L159.32,258.84L160.1,238.95L160.87,252.34L161.65,73.415L162.43,224.29L163.21,248.94L163.98,263.95L164.76,256.92L165.54,171.57L166.32,78.75L167.09,251.83L167.87,258.86L168.65,263.59L169.43,243.96L170.2,72.559L170.98,239.3L171.76,233.04L172.54,251.15L173.31,264.27L174.09,263.77L174.87,70.723L175.65,239.02L176.43,220.69L177.2,225.46L177.98,263.97L178.76,264.09L179.54,68.53L180.31,246.16L181.09,228.55L181.87,228.11L182.65,260L183.42,262.45L184.2,65.866L184.98,251.75L185.76,238.84L186.53,256.55L187.31,258.55L188.09,251.46L188.87,66.851L189.64,218.48L190.42,227.22L191.2,258.56L191.98,261.9L192.75,257.68L193.53,58.81L194.31,228.2L195.09,233.39L195.87,259.39L196.64,259.48L197.42,60.035L198.2,236.59L198.98,202.55L199.75,256.3L200.53,261.85L201.31,261.64L202.09,61.858L202.86,248.86L203.64,223.81L204.42,257.9L205.2,262.68L205.97,242.38L206.75,59.855L207.53,245.34L208.31,249.89L209.08,248.76L209.86,241.57L210.64,245.7L211.42,60.216L212.19,218.18L212.97,230.93L213.75,228.51L214.53,255.3L215.31,262.39L216.08,54.366L216.86,237.8L217.64,223.22L218.42,236.68L219.19,225.97L219.97,234.41L220.75,59.516L221.53,240.96L222.3,233.32L223.08,252.23L223.86,260.86L224.64,225.78L225.41,56.25L226.19,196.79L226.97,245L227.75,232.85L228.52,234.6L229.3,55.486L230.08,249.06L230.86,222.62L231.63,229.83L232.41,255.63L233.19,235.62L233.97,48.071L234.75,248.11L235.52,232.23L236.3,232.28L237.08,243.47L237.86,261.64L238.63,247.79L239.41,61.784L240.19,209.97L240.97,247.97L241.74,220.79L242.52,256.42L243.3,245.24L244.08,54.358L244.85,245.46L245.63,220.27L246.41,244.31L247.19,254.09L247.96,237.33L248.74,56.579L249.52,240.9L250.3,229.44L251.07,229.54L251.85,249.68L252.63,244.36L253.41,48.808L254.19,224.28L254.96,251.73L255.74,226.65L256.52,245.55L257.3,251.68L258.07,237.6L258.85,55.973L259.63,249.43L260.41,226.23L261.18,247.19L261.96,251.45L262.74,251.81L263.52,47.009L264.29,233.28L265.07,251.11L265.85,248.78L266.63,221.43L267.4,233.49L268.18,252.66L268.96,47.716L269.74,224.92L270.51,247.09L271.29,231.84L272.07,246.94L272.85,249.4L273.63,257.65L274.4,56.329L275.18,226.78L275.96,217.82L276.74,213.87L277.51,237.03L278.29,236.38L279.07,48.875L279.85,249.78L280.62,251.54L281.4,249.72L282.18,228.35L282.96,259.59L283.73,236.58L284.51,54.986L285.29,243.83L286.07,232.57L286.84,220.13L287.62,260.32L288.4,234.22L289.18,47.686L289.95,243.37L290.73,249.65L291.51,248.72L292.29,227.38L293.07,248.99L293.84,54.042L294.62,245.15L295.4,217.71L296.18,236.29L296.95,230.23L297.73,253.11L298.51,47.584L299.29,247.85L300.06,244.88L300.84,220.31L301.62,234.9L302.4,201.33L303.17,238.92L303.95,46.858L304.73,214.1L305.51,223.04L306.28,254.05L307.06,221.47L307.84,231.16L308.62,232.36L309.4,48.459L310.17,236.12L310.95,233.4L311.73,237.07L312.51,224.89L313.28,250.94L314.06,259.75L314.84,46.929L315.62,223.46L316.39,227.99L317.17,229.91L317.95,247.4L318.73,232.87L319.5,257L320.28,46.531L321.06,228.34L321.84,226.26L322.61,251.03L323.39,246.15L324.17,226.39L324.95,259.21L325.72,52.031L326.5,133.5L327.28,248.43L328.06,248.12L328.84,233.82L329.61,223.01L330.39,235.24L331.17,45.151L331.95,245.33L332.72,219.11L333.5,250.73L334.28,234.34L335.06,231.23L335.83,235.98L336.61,44.233L337.39,224.33L338.17,246.72L338.94,248.31L339.72,251.66L340.5,250.5L341.28,228.83L342.05,254.48L342.83,41.926L343.61,208.21L344.39,209.28L345.16,249.87L345.94,241.46L346.72,253.02L347.5,86.779L348.28,57.041L349.05,229.71L349.83,224.05L350.61,247.55L351.39,236.72L352.16,258.91L352.94,251.24L353.72,42.64L354.5,198.94L355.27,228.16L356.05,228.05L356.83,242.53L357.61,252.12L358.38,256.59L359.16,40.413L359.94,237.64L360.72,230.16L361.49,224.33L362.27,252.19L363.05,226.65L363.83,261.58L364.6,38.48L365.38,240.13L366.16,228.84L366.94,223.79L367.72,251.92L368.49,231.9L369.27,259.83L370.05,39.973L370.83,252.12L371.6,252.4L372.38,241.21L373.16,235.22L373.94,237.93L374.71,234.97L375.49,40.279L376.27,243.54L377.05,245.87L377.82,250.92L378.6,246.07L379.38,251.64L380.16,257.76L380.93,41.184L381.71,238.95L382.49,219.24L383.27,250.46L384.04,240.77L384.82,245.47L385.6,254.02L386.38,40.953L387.16,238.75L387.93,250.18L388.71,230.7L389.49,229.9L390.27,240.21L391.04,255.16L391.82,40.863L392.6,220.55L393.38,226.59L394.15,249.61L394.93,231.77L395.71,244.39L396.49,255.99L397.26,40.844L398.04,222.1L398.82,244.4L399.6,213.6L400.37,241.24L401.15,229.25L401.31,247.64" style="fill:none;stroke:#F15A60" />
<path d="M405.2,277.58L425.2,277.58" style="fill:none;stroke:#F15A60" />
<text x="326.22" y="-271.91" transform="scale(1, -1)"
	style="font-family:Times;font-weight:normal;font-style:normal;font-size:12px">nobatch-nosync</text>
</g>
</svg>
